<svg id="svg" version="1.1" xmlns="http://www.w3.org/2000/svg" xmlns:xlink="http://www.w3.org/1999/xlink" width="400" height="409.0909090909091" viewBox="0, 0, 400,409.0909090909091"><g id="svgg"><path id="path0" d="M140.400 49.031 C 137.885 49.717,135.200 51.342,135.200 52.178 C 135.200 52.757,137.207 54.400,137.914 54.400 C 138.128 54.400,139.322 55.190,140.566 56.156 C 141.810 57.122,143.946 58.325,145.314 58.829 C 149.259 60.284,149.600 60.597,149.600 62.770 C 149.600 65.452,148.934 66.213,146.960 65.788 C 146.102 65.603,144.140 65.467,142.600 65.486 C 135.198 65.579,128.025 65.947,126.400 66.319 C 120.223 67.730,118.390 68.013,112.994 68.382 C 106.286 68.841,104.870 69.150,101.588 70.871 C 99.885 71.763,98.202 72.221,94.980 72.667 C 90.029 73.352,86.591 74.496,85.964 75.667 C 85.432 76.661,82.177 78.162,79.114 78.826 C 76.244 79.448,76.452 79.801,80.043 80.407 C 83.797 81.040,88.378 80.618,91.108 79.387 C 93.674 78.230,96.207 77.733,103.041 77.043 C 107.007 76.642,108.808 76.269,110.441 75.507 C 114.787 73.482,120.095 72.993,137.014 73.061 C 153.723 73.129,152.100 72.936,159.401 75.718 C 160.282 76.054,163.162 76.625,165.801 76.988 C 171.738 77.804,177.797 79.043,179.437 79.775 C 180.118 80.079,182.530 80.883,184.798 81.561 C 187.066 82.239,189.772 83.340,190.811 84.007 C 191.850 84.674,194.208 85.767,196.050 86.437 C 197.893 87.106,200.766 88.452,202.435 89.427 C 204.104 90.402,205.642 91.200,205.852 91.200 C 206.061 91.200,207.632 92.084,209.342 93.163 C 211.052 94.243,213.271 95.368,214.272 95.663 C 215.595 96.054,216.513 96.703,217.635 98.042 C 218.822 99.459,219.758 100.096,221.689 100.798 C 223.532 101.468,224.626 102.187,225.800 103.500 C 228.109 106.082,231.330 108.451,235.044 110.301 C 240.081 112.810,243.460 115.096,244.343 116.593 C 245.755 118.987,249.730 120.013,254.520 119.220 C 257.587 118.712,258.494 119.165,260.458 122.184 L 262.030 124.600 261.985 144.600 C 261.920 173.951,262.055 179.536,262.870 181.022 C 264.247 183.533,266.565 183.551,268.196 181.063 C 268.815 180.118,269.759 174.181,269.386 173.577 C 269.273 173.394,269.194 169.949,269.212 165.922 C 269.421 118.174,269.396 115.759,268.680 114.667 C 267.258 112.496,266.300 112.204,260.418 112.151 C 253.010 112.085,252.471 111.848,246.392 106.000 C 242.878 102.620,240.367 100.601,238.481 99.640 C 236.860 98.814,235.059 97.550,229.401 93.264 C 228.081 92.264,225.426 90.674,223.501 89.730 C 221.575 88.786,220.000 87.869,220.000 87.693 C 220.000 87.206,217.866 86.048,215.411 85.204 C 214.202 84.788,212.445 83.930,211.507 83.297 C 208.511 81.277,199.909 77.305,196.600 76.414 C 194.840 75.940,192.680 75.132,191.800 74.618 C 189.790 73.445,187.995 72.962,182.008 71.985 C 179.384 71.557,176.013 70.743,174.518 70.177 C 172.855 69.547,169.937 68.923,167.000 68.570 C 160.980 67.846,160.752 67.792,159.496 66.804 L 158.463 65.991 159.657 63.675 C 160.792 61.474,160.828 61.261,160.367 59.379 C 159.527 55.943,159.061 55.386,155.708 53.803 C 153.999 52.996,152.060 51.831,151.400 51.213 C 148.798 48.777,144.477 47.920,140.400 49.031 M69.500 83.472 C 68.584 83.716,68.606 84.285,69.544 84.582 C 70.495 84.884,71.679 84.437,71.484 83.851 C 71.314 83.342,70.538 83.194,69.500 83.472 M325.288 88.737 C 324.188 89.435,323.182 93.107,323.455 95.429 C 323.763 98.053,324.376 98.908,328.034 101.827 C 330.457 103.760,330.858 104.278,331.411 106.179 C 331.756 107.366,332.564 109.116,333.206 110.068 C 333.849 111.021,334.483 112.610,334.616 113.600 C 334.899 115.704,336.871 119.953,338.565 122.110 C 340.069 124.027,340.367 127.087,339.455 131.273 C 338.698 134.747,339.112 148.411,340.131 153.600 C 340.622 156.101,340.730 163.011,340.781 195.165 C 340.846 235.519,340.839 235.340,342.542 236.753 C 343.384 237.451,346.434 236.403,347.937 234.899 L 348.908 233.928 348.604 227.864 C 348.437 224.529,348.333 212.800,348.373 201.800 C 348.416 189.802,348.264 179.566,347.993 176.217 C 347.658 172.073,347.657 169.803,347.992 167.417 C 348.318 165.088,348.330 161.659,348.036 155.000 C 347.730 148.067,347.749 144.913,348.115 142.200 C 348.437 139.811,348.494 137.188,348.284 134.400 C 348.111 132.090,347.982 129.009,347.998 127.553 C 348.047 123.285,346.890 120.763,343.977 118.785 C 341.531 117.124,341.319 116.739,340.168 111.880 C 340.023 111.264,339.234 110.222,338.417 109.565 C 337.090 108.499,336.854 108.018,336.225 105.092 C 335.838 103.288,335.134 101.111,334.660 100.254 C 334.187 99.396,333.497 98.134,333.126 97.448 C 332.755 96.761,332.261 95.341,332.028 94.291 C 330.911 89.259,328.107 86.948,325.288 88.737 M310.709 120.700 C 308.420 123.304,307.132 133.691,307.770 144.400 C 307.908 146.710,307.985 151.570,307.942 155.200 C 307.899 158.830,307.851 163.060,307.835 164.600 C 307.819 166.140,307.957 174.060,308.142 182.200 C 308.326 190.340,308.425 197.720,308.361 198.600 C 307.788 206.463,309.079 214.000,311.000 214.000 C 313.471 214.000,313.617 212.229,313.718 181.000 L 313.800 155.800 314.757 153.856 C 315.577 152.191,316.062 151.747,318.146 150.762 L 320.578 149.612 322.107 151.106 L 323.635 152.600 328.908 152.800 C 337.092 153.110,337.783 152.208,338.101 140.800 C 338.394 130.313,337.446 128.536,331.054 127.585 C 325.676 126.785,320.813 127.904,320.803 129.943 C 320.801 130.309,320.573 130.386,320.100 130.180 C 319.715 130.012,318.570 129.603,317.556 129.273 C 315.592 128.632,315.342 128.306,313.437 123.897 C 311.900 120.341,311.469 119.835,310.709 120.700 M235.186 126.734 C 229.079 128.940,227.595 131.196,227.301 138.723 C 227.060 144.860,227.680 146.031,231.416 146.498 C 237.527 147.262,239.604 145.220,240.380 137.688 C 240.813 133.483,241.484 132.188,244.080 130.550 C 246.037 129.314,245.675 128.700,241.875 126.800 C 238.993 125.360,238.987 125.360,235.186 126.734 M54.206 126.667 C 48.003 128.570,44.348 138.957,47.352 146.146 C 48.035 147.781,51.826 148.643,53.132 147.461 C 53.500 147.129,54.610 146.508,55.600 146.080 C 58.483 144.836,58.992 144.015,58.862 140.822 C 58.718 137.310,60.532 132.605,62.652 130.987 C 66.144 128.324,59.644 124.999,54.206 126.667 M82.223 126.800 C 78.818 128.539,78.231 129.724,76.776 137.800 C 75.710 143.715,75.724 143.207,76.593 144.533 C 78.647 147.668,85.130 147.310,88.325 143.886 C 89.143 143.009,89.278 142.368,89.484 138.347 C 89.734 133.486,90.690 131.129,92.891 129.951 C 96.228 128.165,85.662 125.045,82.223 126.800 M144.785 126.568 C 139.196 127.795,136.000 132.866,136.000 140.505 C 136.000 146.652,139.230 148.420,145.676 145.800 C 149.254 144.346,149.599 143.930,149.608 141.038 C 149.620 137.441,150.293 133.397,151.251 131.170 C 152.260 128.824,151.744 127.554,149.382 126.567 C 147.825 125.916,147.755 125.916,144.785 126.568 M176.732 126.616 C 170.717 127.792,167.359 132.793,167.438 140.459 C 167.496 146.189,168.672 147.368,173.549 146.582 C 180.841 145.408,180.821 145.428,181.408 138.383 C 181.888 132.634,182.547 131.215,185.240 130.137 L 186.798 129.514 185.818 128.743 C 183.131 126.629,180.188 125.941,176.732 126.616 M203.310 126.845 C 199.659 128.248,196.800 134.858,196.800 141.894 C 196.800 145.563,199.871 147.345,204.541 146.387 C 208.582 145.558,208.994 144.955,209.602 138.977 C 210.173 133.368,210.621 132.456,213.394 131.256 C 217.617 129.428,217.312 128.610,211.817 127.030 C 207.561 125.806,206.095 125.775,203.310 126.845 M113.769 126.942 C 111.731 127.871,109.815 129.823,108.934 131.868 C 105.047 140.896,104.798 143.898,107.708 146.704 C 110.587 149.481,114.404 148.936,117.613 145.290 L 119.200 143.487 119.231 139.244 C 119.276 132.999,119.646 132.092,122.761 130.589 L 125.300 129.365 122.785 128.024 C 119.839 126.454,115.882 125.979,113.769 126.942 M92.183 159.641 C 87.929 159.865,82.800 160.844,82.800 161.432 C 82.800 162.881,84.941 162.984,120.400 163.238 C 156.846 163.500,158.157 163.568,162.142 165.391 C 164.725 166.572,167.891 167.110,174.200 167.438 C 176.840 167.576,180.530 168.017,182.400 168.419 C 184.270 168.821,187.420 169.274,189.400 169.426 C 191.753 169.606,193.796 170.032,195.298 170.655 C 198.315 171.907,202.115 172.784,204.600 172.804 C 207.673 172.828,210.005 173.511,212.227 175.039 C 213.764 176.095,214.925 176.529,217.027 176.831 C 224.830 177.953,225.127 178.031,226.887 179.430 C 227.864 180.207,229.974 181.243,231.800 181.842 C 233.560 182.419,235.720 183.301,236.600 183.803 C 237.480 184.304,239.773 185.194,241.696 185.780 C 244.175 186.536,245.596 187.227,246.582 188.157 C 247.531 189.052,248.901 189.739,250.895 190.318 C 252.842 190.884,254.370 191.640,255.473 192.584 C 256.384 193.364,258.270 194.515,259.665 195.143 C 261.059 195.771,262.964 196.926,263.898 197.709 C 264.832 198.493,266.767 199.523,268.198 199.999 C 270.300 200.699,271.086 201.214,272.287 202.680 C 273.282 203.895,274.662 204.927,276.456 205.800 C 279.046 207.061,283.143 209.928,285.191 211.912 C 285.736 212.441,286.936 213.315,287.857 213.854 C 288.778 214.394,289.821 215.277,290.174 215.816 C 290.527 216.356,291.848 217.324,293.108 217.968 C 294.369 218.612,296.003 219.699,296.741 220.384 C 297.479 221.069,299.138 222.163,300.429 222.815 C 301.719 223.466,303.162 224.522,303.635 225.162 C 304.108 225.801,305.328 226.779,306.347 227.334 C 307.366 227.889,308.740 228.914,309.400 229.610 C 310.060 230.307,311.950 231.583,313.600 232.445 C 315.250 233.307,318.056 235.228,319.835 236.714 C 321.614 238.199,324.246 240.011,325.682 240.740 C 327.119 241.470,329.132 242.758,330.155 243.604 C 331.178 244.449,332.957 245.446,334.108 245.819 C 335.259 246.192,337.100 246.999,338.200 247.614 C 339.300 248.228,341.280 249.039,342.600 249.416 C 343.920 249.793,346.440 250.687,348.200 251.402 C 352.333 253.082,364.855 253.221,362.388 251.560 C 362.050 251.333,360.660 251.266,359.120 251.404 C 355.927 251.691,354.873 251.179,353.813 248.829 C 353.049 247.134,352.044 246.612,347.262 245.426 C 344.054 244.631,343.686 244.416,342.430 242.606 C 341.661 241.498,340.859 240.942,339.266 240.411 C 337.947 239.971,336.496 239.079,335.466 238.072 C 334.318 236.950,333.066 236.220,331.440 235.722 C 329.561 235.147,328.884 234.705,328.123 233.554 C 327.596 232.759,326.274 231.623,325.184 231.030 C 324.094 230.437,323.010 229.593,322.776 229.154 C 322.541 228.716,321.326 227.703,320.075 226.903 C 316.717 224.756,311.985 220.950,310.490 219.194 C 309.751 218.326,308.530 217.448,307.690 217.179 C 304.578 216.184,300.826 213.876,298.241 211.367 C 296.661 209.832,295.096 208.679,294.407 208.541 C 293.768 208.414,292.599 207.611,291.809 206.758 C 291.020 205.905,289.795 204.917,289.087 204.562 C 288.379 204.207,286.900 202.968,285.800 201.810 C 284.288 200.218,283.263 199.533,281.600 199.005 C 280.236 198.571,278.792 197.723,277.800 196.772 C 276.920 195.928,275.300 194.844,274.200 194.361 C 273.100 193.879,271.286 192.903,270.170 192.192 C 269.053 191.481,267.253 190.508,266.170 190.031 C 265.086 189.553,263.570 188.450,262.800 187.580 C 261.593 186.215,261.023 185.920,258.662 185.439 C 256.353 184.969,255.686 184.634,254.405 183.301 C 253.166 182.012,252.445 181.634,250.482 181.248 C 249.159 180.988,247.847 180.497,247.565 180.158 C 246.594 178.988,244.037 178.007,239.388 177.023 C 236.055 176.317,234.188 175.691,232.847 174.830 C 231.730 174.113,229.524 173.282,227.401 172.778 C 225.439 172.312,222.656 171.485,221.217 170.940 C 217.013 169.349,209.336 167.612,204.800 167.226 C 201.295 166.927,200.236 166.670,198.400 165.668 C 194.799 163.704,193.339 163.479,184.655 163.552 C 176.362 163.622,172.622 163.221,170.600 162.045 C 166.263 159.522,161.626 159.235,126.600 159.317 C 110.320 159.355,94.832 159.501,92.183 159.641 M52.864 164.026 C 51.470 164.209,49.400 164.670,48.264 165.049 L 46.200 165.739 47.833 166.455 C 51.936 168.256,64.419 168.236,73.600 166.414 L 77.000 165.740 74.785 165.083 C 71.140 164.003,57.901 163.365,52.864 164.026 M79.445 286.019 C 77.388 286.537,74.853 287.986,74.632 288.771 C 73.893 291.400,73.591 294.531,73.681 298.623 C 73.739 301.250,73.763 309.970,73.734 318.000 C 73.705 326.030,73.759 334.490,73.853 336.800 C 74.101 342.884,74.093 344.184,73.781 348.326 C 73.243 355.462,74.589 355.969,93.000 355.558 C 107.757 355.228,108.810 355.075,111.600 352.853 C 112.370 352.240,113.816 351.263,114.812 350.683 C 117.370 349.193,118.593 347.736,119.416 345.200 C 119.809 343.990,120.549 342.100,121.061 341.000 C 123.430 335.911,121.534 328.982,116.174 323.142 C 114.536 321.357,113.645 320.067,113.764 319.655 C 113.867 319.295,114.158 318.204,114.410 317.232 C 114.662 316.259,115.566 314.635,116.419 313.623 C 122.523 306.385,120.000 293.901,111.636 289.953 C 110.186 289.269,108.550 288.390,108.000 287.999 C 105.266 286.059,84.905 284.647,79.445 286.019 M139.636 285.974 C 134.953 286.763,134.990 286.461,135.042 322.913 L 135.084 352.425 136.042 353.451 C 138.080 355.632,137.770 355.600,156.966 355.600 L 174.772 355.600 179.186 353.952 C 181.614 353.046,183.600 352.166,183.600 351.998 C 183.600 351.586,182.034 350.586,180.800 350.211 C 180.250 350.044,178.762 349.282,177.492 348.520 L 175.185 347.133 163.292 347.027 C 145.240 346.867,145.591 347.083,145.618 336.181 C 145.634 329.611,146.101 326.421,147.262 324.948 C 147.867 324.180,149.736 324.011,160.342 323.765 C 175.141 323.423,178.095 321.837,172.803 317.078 L 170.848 315.321 161.524 315.046 C 145.635 314.578,144.418 313.780,145.610 304.610 C 145.811 303.064,145.981 300.879,145.988 299.754 C 146.015 295.273,147.551 294.791,162.409 294.603 C 175.182 294.441,175.787 294.292,178.459 290.640 C 180.029 288.494,179.946 288.269,177.100 286.955 L 174.600 285.800 158.000 285.738 C 148.870 285.704,140.606 285.810,139.636 285.974 M258.124 286.019 C 255.793 286.479,254.529 287.416,253.920 289.133 C 253.029 291.645,253.233 351.580,254.137 352.959 C 255.853 355.578,259.982 355.845,262.642 353.509 L 263.972 352.342 263.871 336.271 C 263.765 319.428,263.939 316.093,265.042 313.767 C 265.835 312.096,266.025 312.242,267.175 315.400 C 267.655 316.720,268.738 318.970,269.581 320.400 C 270.424 321.830,271.607 324.530,272.210 326.400 C 272.812 328.270,273.897 330.880,274.620 332.200 C 275.344 333.520,276.508 336.579,277.208 338.997 C 277.908 341.415,278.901 344.115,279.415 344.997 C 279.929 345.879,280.831 347.901,281.418 349.491 C 284.291 357.268,292.846 357.242,295.160 349.447 C 295.641 347.828,296.573 345.653,297.231 344.615 C 297.890 343.577,298.697 341.567,299.026 340.149 C 299.355 338.731,300.581 335.372,301.751 332.685 C 302.920 329.998,304.200 326.810,304.593 325.600 C 305.599 322.511,306.538 320.780,307.916 319.471 C 308.570 318.850,309.613 317.147,310.233 315.687 L 311.362 313.032 312.113 314.755 C 312.907 316.577,313.392 341.440,312.776 348.800 C 312.408 353.211,313.464 354.476,317.924 354.967 L 320.449 355.245 322.071 353.624 L 323.692 352.002 323.586 344.301 C 323.527 340.065,323.504 326.545,323.534 314.256 C 323.602 286.627,323.715 287.213,318.084 286.018 C 312.067 284.741,308.907 288.150,304.606 300.558 C 303.394 304.055,302.229 307.124,302.018 307.378 C 301.807 307.632,300.987 309.541,300.194 311.620 C 299.402 313.699,298.162 316.480,297.439 317.800 C 296.716 319.120,295.704 321.711,295.190 323.559 C 293.555 329.433,289.283 336.899,288.112 335.927 C 285.704 333.929,282.229 327.099,281.235 322.412 C 280.980 321.209,280.244 319.403,279.600 318.400 C 278.956 317.396,277.794 314.822,277.019 312.681 C 276.244 310.539,275.236 308.054,274.779 307.158 C 274.321 306.262,273.344 303.700,272.606 301.464 C 268.310 288.439,264.803 284.699,258.124 286.019 M212.468 286.797 C 209.494 287.500,206.337 292.835,203.943 301.200 C 203.282 303.510,202.300 306.030,201.759 306.800 C 201.219 307.570,200.130 310.270,199.339 312.800 C 198.549 315.330,197.471 318.255,196.944 319.301 C 195.935 321.302,192.870 329.078,192.017 331.800 C 191.232 334.302,188.794 340.403,187.738 342.505 C 185.780 346.403,184.280 351.629,184.827 352.650 C 185.897 354.651,188.222 355.780,190.109 355.216 C 194.621 353.868,195.159 353.289,196.350 348.506 C 197.933 342.145,200.766 338.236,204.070 337.852 C 207.773 337.423,223.331 337.454,224.401 337.894 C 227.203 339.045,229.919 342.712,231.414 347.364 C 233.500 353.853,236.451 356.086,241.032 354.642 C 244.819 353.449,244.906 352.904,242.246 347.084 C 241.011 344.381,240.000 342.020,240.000 341.837 C 240.000 341.655,239.291 339.932,238.425 338.009 C 237.559 336.086,236.556 333.375,236.196 331.985 C 235.836 330.594,235.076 328.544,234.507 327.429 C 233.938 326.313,232.962 323.710,232.339 321.643 C 231.715 319.577,230.773 317.113,230.244 316.168 C 229.716 315.223,228.614 312.413,227.795 309.925 C 226.977 307.436,225.864 304.524,225.324 303.454 C 224.783 302.384,223.727 299.512,222.978 297.070 C 220.374 288.589,217.357 285.640,212.468 286.797 M100.044 295.436 C 107.946 297.084,111.294 305.067,106.636 311.155 C 104.267 314.250,89.673 315.632,86.331 313.076 L 84.600 311.752 84.600 304.831 L 84.600 297.910 86.595 296.104 L 88.590 294.298 92.895 294.571 C 95.262 294.720,98.480 295.110,100.044 295.436 M217.614 308.980 C 217.884 310.311,218.868 313.380,219.802 315.800 C 223.798 326.156,223.683 326.712,217.236 328.169 C 207.141 330.450,203.229 327.745,206.549 320.778 C 207.341 319.115,208.366 316.235,208.828 314.378 C 210.266 308.590,210.980 307.326,213.559 306.007 L 215.800 304.861 216.462 305.711 C 216.827 306.178,217.345 307.650,217.614 308.980 M99.600 324.044 C 106.426 325.025,111.674 330.671,110.973 336.279 C 110.390 340.945,107.961 344.800,105.605 344.800 C 105.233 344.800,103.504 345.180,101.764 345.644 C 92.471 348.122,89.289 348.033,86.660 345.223 L 84.917 343.360 84.640 338.380 C 84.217 330.792,85.209 325.437,87.290 324.072 C 88.509 323.272,94.140 323.259,99.600 324.044 " stroke="none" fill="#40403f" fill-rule="evenodd"></path><path id="path1" d="M0.000 204.400 L 0.000 408.800 200.000 408.800 L 400.000 408.800 400.000 204.400 L 400.000 0.000 200.000 0.000 L 0.000 0.000 0.000 204.400 M149.000 49.495 C 149.660 49.822,150.740 50.595,151.400 51.213 C 152.060 51.831,153.999 52.996,155.708 53.803 C 159.061 55.386,159.527 55.943,160.367 59.379 C 160.828 61.261,160.792 61.474,159.657 63.675 L 158.463 65.991 159.496 66.804 C 160.752 67.792,160.980 67.846,167.000 68.570 C 169.937 68.923,172.855 69.547,174.518 70.177 C 176.013 70.743,179.384 71.557,182.008 71.985 C 187.995 72.962,189.790 73.445,191.800 74.618 C 192.680 75.132,194.840 75.940,196.600 76.414 C 199.909 77.305,208.511 81.277,211.507 83.297 C 212.445 83.930,214.202 84.788,215.411 85.204 C 217.866 86.048,220.000 87.206,220.000 87.693 C 220.000 87.869,221.575 88.786,223.501 89.730 C 225.426 90.674,228.081 92.264,229.401 93.264 C 235.059 97.550,236.860 98.814,238.481 99.640 C 240.367 100.601,242.878 102.620,246.392 106.000 C 252.471 111.848,253.010 112.085,260.418 112.151 C 266.300 112.204,267.258 112.496,268.680 114.667 C 269.396 115.759,269.421 118.174,269.212 165.922 C 269.194 169.949,269.273 173.394,269.386 173.577 C 269.759 174.181,268.815 180.118,268.196 181.063 C 266.565 183.551,264.247 183.533,262.870 181.022 C 262.055 179.536,261.920 173.951,261.985 144.600 L 262.030 124.600 260.458 122.184 C 258.494 119.165,257.587 118.712,254.520 119.220 C 249.730 120.013,245.755 118.987,244.343 116.593 C 243.460 115.096,240.081 112.810,235.044 110.301 C 231.330 108.451,228.109 106.082,225.800 103.500 C 224.626 102.187,223.532 101.468,221.689 100.798 C 219.758 100.096,218.822 99.459,217.635 98.042 C 216.513 96.703,215.595 96.054,214.272 95.663 C 213.271 95.368,211.052 94.243,209.342 93.163 C 207.632 92.084,206.061 91.200,205.852 91.200 C 205.642 91.200,204.104 90.402,202.435 89.427 C 200.766 88.452,197.893 87.106,196.050 86.437 C 194.208 85.767,191.850 84.674,190.811 84.007 C 189.772 83.340,187.066 82.239,184.798 81.561 C 182.530 80.883,180.118 80.079,179.437 79.775 C 177.797 79.043,171.738 77.804,165.801 76.988 C 163.162 76.625,160.282 76.054,159.401 75.718 C 152.100 72.936,153.723 73.129,137.014 73.061 C 120.095 72.993,114.787 73.482,110.441 75.507 C 108.808 76.269,107.007 76.642,103.041 77.043 C 96.207 77.733,93.674 78.230,91.108 79.387 C 88.378 80.618,83.797 81.040,80.043 80.407 C 76.452 79.801,76.244 79.448,79.114 78.826 C 82.177 78.162,85.432 76.661,85.964 75.667 C 86.591 74.496,90.029 73.352,94.980 72.667 C 98.202 72.221,99.885 71.763,101.588 70.871 C 104.870 69.150,106.286 68.841,112.994 68.382 C 118.390 68.013,120.223 67.730,126.400 66.319 C 128.025 65.947,135.198 65.579,142.600 65.486 C 144.140 65.467,146.102 65.603,146.960 65.788 C 148.934 66.213,149.600 65.452,149.600 62.770 C 149.600 60.597,149.259 60.284,145.314 58.829 C 143.946 58.325,141.810 57.122,140.566 56.156 C 139.322 55.190,138.128 54.400,137.914 54.400 C 137.207 54.400,135.200 52.757,135.200 52.178 C 135.200 49.478,145.086 47.556,149.000 49.495 M71.484 83.851 C 71.679 84.437,70.495 84.884,69.544 84.582 C 68.606 84.285,68.584 83.716,69.500 83.472 C 70.538 83.194,71.314 83.342,71.484 83.851 M330.596 90.391 C 331.151 91.487,331.795 93.242,332.028 94.291 C 332.261 95.341,332.755 96.761,333.126 97.448 C 333.497 98.134,334.187 99.396,334.660 100.254 C 335.134 101.111,335.838 103.288,336.225 105.092 C 336.854 108.018,337.090 108.499,338.417 109.565 C 339.234 110.222,340.023 111.264,340.168 111.880 C 341.319 116.739,341.531 117.124,343.977 118.785 C 346.890 120.763,348.047 123.285,347.998 127.553 C 347.982 129.009,348.111 132.090,348.284 134.400 C 348.494 137.188,348.437 139.811,348.115 142.200 C 347.749 144.913,347.730 148.067,348.036 155.000 C 348.330 161.659,348.318 165.088,347.992 167.417 C 347.657 169.803,347.658 172.073,347.993 176.217 C 348.264 179.566,348.416 189.802,348.373 201.800 C 348.333 212.800,348.437 224.529,348.604 227.864 L 348.908 233.928 347.937 234.899 C 346.434 236.403,343.384 237.451,342.542 236.753 C 340.839 235.340,340.846 235.519,340.781 195.165 C 340.730 163.011,340.622 156.101,340.131 153.600 C 339.112 148.411,338.698 134.747,339.455 131.273 C 340.367 127.087,340.069 124.027,338.565 122.110 C 336.871 119.953,334.899 115.704,334.616 113.600 C 334.483 112.610,333.849 111.021,333.206 110.068 C 332.564 109.116,331.756 107.366,331.411 106.179 C 330.858 104.278,330.457 103.760,328.034 101.827 C 323.323 98.068,322.339 95.473,323.985 91.142 C 325.394 87.434,328.896 87.037,330.596 90.391 M313.437 123.897 C 315.342 128.306,315.592 128.632,317.556 129.273 C 318.570 129.603,319.715 130.012,320.100 130.180 C 320.573 130.386,320.801 130.309,320.803 129.943 C 320.813 127.904,325.676 126.785,331.054 127.585 C 337.446 128.536,338.394 130.313,338.101 140.800 C 337.783 152.208,337.092 153.110,328.908 152.800 L 323.635 152.600 322.107 151.106 L 320.578 149.612 318.146 150.762 C 316.062 151.747,315.577 152.191,314.757 153.856 L 313.800 155.800 313.718 181.000 C 313.617 212.229,313.471 214.000,311.000 214.000 C 309.079 214.000,307.788 206.463,308.361 198.600 C 308.425 197.720,308.326 190.340,308.142 182.200 C 307.957 174.060,307.819 166.140,307.835 164.600 C 307.851 163.060,307.899 158.830,307.942 155.200 C 307.985 151.570,307.908 146.710,307.770 144.400 C 307.362 137.554,308.226 125.114,309.252 123.074 C 311.131 119.336,311.497 119.408,313.437 123.897 M241.875 126.800 C 245.675 128.700,246.037 129.314,244.080 130.550 C 241.484 132.188,240.813 133.483,240.380 137.688 C 239.604 145.220,237.527 147.262,231.416 146.498 C 227.680 146.031,227.060 144.860,227.301 138.723 C 227.595 131.196,229.079 128.940,235.186 126.734 C 238.987 125.360,238.993 125.360,241.875 126.800 M59.827 126.605 C 63.680 127.785,64.725 129.407,62.652 130.987 C 60.532 132.605,58.718 137.310,58.862 140.822 C 58.992 144.015,58.483 144.836,55.600 146.080 C 54.610 146.508,53.500 147.129,53.132 147.461 C 52.613 147.931,51.958 148.002,50.190 147.781 C 47.548 147.451,46.973 146.617,46.553 142.498 C 45.467 131.860,51.889 124.171,59.827 126.605 M89.716 126.846 C 92.094 127.463,94.020 129.347,92.891 129.951 C 90.690 131.129,89.734 133.486,89.484 138.347 C 89.225 143.390,88.870 144.128,86.000 145.592 C 81.754 147.756,75.715 146.216,75.889 143.012 C 75.961 141.678,77.736 132.703,78.233 131.157 C 79.644 126.772,83.641 125.272,89.716 126.846 M149.382 126.567 C 151.744 127.554,152.260 128.824,151.251 131.170 C 150.293 133.397,149.620 137.441,149.608 141.038 C 149.599 143.930,149.254 144.346,145.676 145.800 C 139.230 148.420,136.000 146.652,136.000 140.505 C 136.000 132.866,139.196 127.795,144.785 126.568 C 147.755 125.916,147.825 125.916,149.382 126.567 M183.119 127.234 C 184.064 127.640,185.279 128.319,185.818 128.743 L 186.798 129.514 185.240 130.137 C 182.547 131.215,181.888 132.634,181.408 138.383 C 180.821 145.428,180.841 145.408,173.549 146.582 C 168.672 147.368,167.496 146.189,167.438 140.459 C 167.331 130.026,174.850 123.686,183.119 127.234 M211.817 127.030 C 217.312 128.610,217.617 129.428,213.394 131.256 C 210.621 132.456,210.173 133.368,209.602 138.977 C 208.994 144.955,208.582 145.558,204.541 146.387 C 197.993 147.731,195.825 144.839,197.417 136.883 C 199.372 127.107,203.133 124.533,211.817 127.030 M122.785 128.024 L 125.300 129.365 122.761 130.589 C 119.646 132.092,119.276 132.999,119.231 139.244 L 119.200 143.487 117.613 145.290 C 114.404 148.936,110.587 149.481,107.708 146.704 C 104.798 143.898,105.047 140.896,108.934 131.868 C 111.230 126.538,116.995 124.938,122.785 128.024 M161.400 159.809 C 166.712 160.383,168.482 160.813,170.600 162.045 C 172.622 163.221,176.362 163.622,184.655 163.552 C 193.339 163.479,194.799 163.704,198.400 165.668 C 200.236 166.670,201.295 166.927,204.800 167.226 C 209.336 167.612,217.013 169.349,221.217 170.940 C 222.656 171.485,225.439 172.312,227.401 172.778 C 229.524 173.282,231.730 174.113,232.847 174.830 C 234.188 175.691,236.055 176.317,239.388 177.023 C 244.037 178.007,246.594 178.988,247.565 180.158 C 247.847 180.497,249.159 180.988,250.482 181.248 C 252.445 181.634,253.166 182.012,254.405 183.301 C 255.686 184.634,256.353 184.969,258.662 185.439 C 261.023 185.920,261.593 186.215,262.800 187.580 C 263.570 188.450,265.086 189.553,266.170 190.031 C 267.253 190.508,269.053 191.481,270.170 192.192 C 271.286 192.903,273.100 193.879,274.200 194.361 C 275.300 194.844,276.920 195.928,277.800 196.772 C 278.792 197.723,280.236 198.571,281.600 199.005 C 283.263 199.533,284.288 200.218,285.800 201.810 C 286.900 202.968,288.379 204.207,289.087 204.562 C 289.795 204.917,291.020 205.905,291.809 206.758 C 292.599 207.611,293.768 208.414,294.407 208.541 C 295.096 208.679,296.661 209.832,298.241 211.367 C 300.826 213.876,304.578 216.184,307.690 217.179 C 308.530 217.448,309.751 218.326,310.490 219.194 C 311.985 220.950,316.717 224.756,320.075 226.903 C 321.326 227.703,322.541 228.716,322.776 229.154 C 323.010 229.593,324.094 230.437,325.184 231.030 C 326.274 231.623,327.596 232.759,328.123 233.554 C 328.884 234.705,329.561 235.147,331.440 235.722 C 333.066 236.220,334.318 236.950,335.466 238.072 C 336.496 239.079,337.947 239.971,339.266 240.411 C 340.859 240.942,341.661 241.498,342.430 242.606 C 343.686 244.416,344.054 244.631,347.262 245.426 C 352.044 246.612,353.049 247.134,353.813 248.829 C 354.873 251.179,355.927 251.691,359.120 251.404 C 360.660 251.266,362.050 251.333,362.388 251.560 C 364.855 253.221,352.333 253.082,348.200 251.402 C 346.440 250.687,343.920 249.793,342.600 249.416 C 341.280 249.039,339.300 248.228,338.200 247.614 C 337.100 246.999,335.259 246.192,334.108 245.819 C 332.957 245.446,331.178 244.449,330.155 243.604 C 329.132 242.758,327.119 241.470,325.682 240.740 C 324.246 240.011,321.614 238.199,319.835 236.714 C 318.056 235.228,315.250 233.307,313.600 232.445 C 311.950 231.583,310.060 230.307,309.400 229.610 C 308.740 228.914,307.366 227.889,306.347 227.334 C 305.328 226.779,304.108 225.801,303.635 225.162 C 303.162 224.522,301.719 223.466,300.429 222.815 C 299.138 222.163,297.479 221.069,296.741 220.384 C 296.003 219.699,294.369 218.612,293.108 217.968 C 291.848 217.324,290.527 216.356,290.174 215.816 C 289.821 215.277,288.778 214.394,287.857 213.854 C 286.936 213.315,285.736 212.441,285.191 211.912 C 283.143 209.928,279.046 207.061,276.456 205.800 C 274.662 204.927,273.282 203.895,272.287 202.680 C 271.086 201.214,270.300 200.699,268.198 199.999 C 266.767 199.523,264.832 198.493,263.898 197.709 C 262.964 196.926,261.059 195.771,259.665 195.143 C 258.270 194.515,256.384 193.364,255.473 192.584 C 254.370 191.640,252.842 190.884,250.895 190.318 C 248.901 189.739,247.531 189.052,246.582 188.157 C 245.596 187.227,244.175 186.536,241.696 185.780 C 239.773 185.194,237.480 184.304,236.600 183.803 C 235.720 183.301,233.560 182.419,231.800 181.842 C 229.974 181.243,227.864 180.207,226.887 179.430 C 225.127 178.031,224.830 177.953,217.027 176.831 C 214.925 176.529,213.764 176.095,212.227 175.039 C 210.005 173.511,207.673 172.828,204.600 172.804 C 202.115 172.784,198.315 171.907,195.298 170.655 C 193.796 170.032,191.753 169.606,189.400 169.426 C 187.420 169.274,184.270 168.821,182.400 168.419 C 180.530 168.017,176.840 167.576,174.200 167.438 C 167.891 167.110,164.725 166.572,162.142 165.391 C 158.157 163.568,156.846 163.500,120.400 163.238 C 84.941 162.984,82.800 162.881,82.800 161.432 C 82.800 160.844,87.929 159.865,92.183 159.641 C 102.613 159.090,155.945 159.220,161.400 159.809 M70.385 164.225 C 71.586 164.336,73.566 164.722,74.785 165.083 L 77.000 165.740 73.600 166.414 C 64.419 168.236,51.936 168.256,47.833 166.455 L 46.200 165.739 48.264 165.049 C 52.139 163.754,61.516 163.405,70.385 164.225 M104.800 286.602 C 106.010 286.980,107.450 287.609,108.000 287.999 C 108.550 288.390,110.186 289.269,111.636 289.953 C 120.000 293.901,122.523 306.385,116.419 313.623 C 115.566 314.635,114.662 316.259,114.410 317.232 C 114.158 318.204,113.867 319.295,113.764 319.655 C 113.645 320.067,114.536 321.357,116.174 323.142 C 121.534 328.982,123.430 335.911,121.061 341.000 C 120.549 342.100,119.809 343.990,119.416 345.200 C 118.593 347.736,117.370 349.193,114.812 350.683 C 113.816 351.263,112.370 352.240,111.600 352.853 C 108.810 355.075,107.757 355.228,93.000 355.558 C 74.589 355.969,73.243 355.462,73.781 348.326 C 74.093 344.184,74.101 342.884,73.853 336.800 C 73.759 334.490,73.705 326.030,73.734 318.000 C 73.763 309.970,73.739 301.250,73.681 298.623 C 73.591 294.531,73.893 291.400,74.632 288.771 C 74.853 287.986,77.388 286.537,79.445 286.019 C 82.182 285.332,102.206 285.792,104.800 286.602 M177.100 286.955 C 179.946 288.269,180.029 288.494,178.459 290.640 C 175.787 294.292,175.182 294.441,162.409 294.603 C 147.551 294.791,146.015 295.273,145.988 299.754 C 145.981 300.879,145.811 303.064,145.610 304.610 C 144.418 313.780,145.635 314.578,161.524 315.046 L 170.848 315.321 172.803 317.078 C 178.095 321.837,175.141 323.423,160.342 323.765 C 149.736 324.011,147.867 324.180,147.262 324.948 C 146.101 326.421,145.634 329.611,145.618 336.181 C 145.591 347.083,145.240 346.867,163.292 347.027 L 175.185 347.133 177.492 348.520 C 178.762 349.282,180.250 350.044,180.800 350.211 C 182.034 350.586,183.600 351.586,183.600 351.998 C 183.600 352.166,181.614 353.046,179.186 353.952 L 174.772 355.600 156.966 355.600 C 137.770 355.600,138.080 355.632,136.042 353.451 L 135.084 352.425 135.042 322.913 C 134.997 290.955,135.072 289.403,136.768 287.505 C 138.342 285.743,139.244 285.668,158.000 285.738 L 174.600 285.800 177.100 286.955 M263.911 286.631 C 267.178 288.259,269.629 292.440,272.606 301.464 C 273.344 303.700,274.321 306.262,274.779 307.158 C 275.236 308.054,276.244 310.539,277.019 312.681 C 277.794 314.822,278.956 317.396,279.600 318.400 C 280.244 319.403,280.980 321.209,281.235 322.412 C 282.229 327.099,285.704 333.929,288.112 335.927 C 289.283 336.899,293.555 329.433,295.190 323.559 C 295.704 321.711,296.716 319.120,297.439 317.800 C 298.162 316.480,299.402 313.699,300.194 311.620 C 300.987 309.541,301.807 307.632,302.018 307.378 C 302.229 307.124,303.394 304.055,304.606 300.558 C 308.907 288.150,312.067 284.741,318.084 286.018 C 323.715 287.213,323.602 286.627,323.534 314.256 C 323.504 326.545,323.527 340.065,323.586 344.301 L 323.692 352.002 322.071 353.624 L 320.449 355.245 317.924 354.967 C 313.464 354.476,312.408 353.211,312.776 348.800 C 313.392 341.440,312.907 316.577,312.113 314.755 L 311.362 313.032 310.233 315.687 C 309.613 317.147,308.570 318.850,307.916 319.471 C 306.538 320.780,305.599 322.511,304.593 325.600 C 304.200 326.810,302.920 329.998,301.751 332.685 C 300.581 335.372,299.355 338.731,299.026 340.149 C 298.697 341.567,297.890 343.577,297.231 344.615 C 296.573 345.653,295.641 347.828,295.160 349.447 C 292.846 357.242,284.291 357.268,281.418 349.491 C 280.831 347.901,279.929 345.879,279.415 344.997 C 278.901 344.115,277.908 341.415,277.208 338.997 C 276.508 336.579,275.344 333.520,274.620 332.200 C 273.897 330.880,272.812 328.270,272.210 326.400 C 271.607 324.530,270.424 321.830,269.581 320.400 C 268.738 318.970,267.655 316.720,267.175 315.400 C 264.609 308.350,263.731 313.902,263.871 336.271 L 263.972 352.342 262.642 353.509 C 259.982 355.845,255.853 355.578,254.137 352.959 C 253.233 351.580,253.029 291.645,253.920 289.133 C 254.529 287.416,255.793 286.479,258.124 286.019 C 260.915 285.467,261.755 285.556,263.911 286.631 M217.859 287.700 C 220.376 290.390,221.634 292.693,222.978 297.070 C 223.727 299.512,224.783 302.384,225.324 303.454 C 225.864 304.524,226.977 307.436,227.795 309.925 C 228.614 312.413,229.716 315.223,230.244 316.168 C 230.773 317.113,231.715 319.577,232.339 321.643 C 232.962 323.710,233.938 326.313,234.507 327.429 C 235.076 328.544,235.836 330.594,236.196 331.985 C 236.556 333.375,237.559 336.086,238.425 338.009 C 239.291 339.932,240.000 341.655,240.000 341.837 C 240.000 342.020,241.011 344.381,242.246 347.084 C 244.906 352.904,244.819 353.449,241.032 354.642 C 236.451 356.086,233.500 353.853,231.414 347.364 C 229.919 342.712,227.203 339.045,224.401 337.894 C 223.331 337.454,207.773 337.423,204.070 337.852 C 200.766 338.236,197.933 342.145,196.350 348.506 C 195.159 353.289,194.621 353.868,190.109 355.216 C 188.222 355.780,185.897 354.651,184.827 352.650 C 184.280 351.629,185.780 346.403,187.738 342.505 C 188.794 340.403,191.232 334.302,192.017 331.800 C 192.870 329.078,195.935 321.302,196.944 319.301 C 197.471 318.255,198.549 315.330,199.339 312.800 C 200.130 310.270,201.219 307.570,201.759 306.800 C 202.300 306.030,203.282 303.510,203.943 301.200 C 207.505 288.752,213.449 282.986,217.859 287.700 M86.595 296.104 L 84.600 297.910 84.600 304.831 L 84.600 311.752 86.331 313.076 C 89.673 315.632,104.267 314.250,106.636 311.155 C 109.826 306.985,108.587 298.936,104.427 296.814 C 102.304 295.731,98.001 294.894,92.895 294.571 L 88.590 294.298 86.595 296.104 M213.559 306.007 C 210.980 307.326,210.266 308.590,208.828 314.378 C 208.366 316.235,207.341 319.115,206.549 320.778 C 203.229 327.745,207.141 330.450,217.236 328.169 C 223.683 326.712,223.798 326.156,219.802 315.800 C 218.868 313.380,217.884 310.311,217.614 308.980 C 217.345 307.650,216.827 306.178,216.462 305.711 L 215.800 304.861 213.559 306.007 M87.290 324.072 C 85.209 325.437,84.217 330.792,84.640 338.380 L 84.917 343.360 86.660 345.223 C 89.289 348.033,92.471 348.122,101.764 345.644 C 103.504 345.180,105.233 344.800,105.605 344.800 C 107.961 344.800,110.390 340.945,110.973 336.279 C 111.674 330.671,106.426 325.025,99.600 324.044 C 94.140 323.259,88.509 323.272,87.290 324.072 " stroke="none" fill="#f8f9f8" fill-rule="evenodd"></path></g></svg>