<svg id="svg" version="1.1" xmlns="http://www.w3.org/2000/svg" xmlns:xlink="http://www.w3.org/1999/xlink" width="400" height="109.29705215419501" viewBox="0, 0, 400,109.29705215419501"><g id="svgg"><path id="path0" d="M95.293 26.904 C 93.955 27.381,93.230 28.215,92.861 29.699 C 92.521 31.065,92.590 68.934,92.934 70.118 C 94.039 73.920,99.244 73.729,100.398 69.844 C 100.633 69.053,100.667 67.588,100.667 58.154 C 100.667 47.670,100.676 47.336,101.017 46.226 C 101.998 43.023,105.807 42.185,107.183 44.868 C 107.486 45.458,107.500 46.009,107.500 56.919 C 107.500 69.440,107.540 70.032,108.480 71.375 C 110.185 73.813,114.517 73.005,115.293 70.104 C 115.608 68.924,115.589 43.676,115.272 42.159 C 114.350 37.754,110.393 35.431,105.805 36.603 C 103.896 37.090,101.522 38.747,101.116 39.875 C 100.765 40.849,100.667 39.892,100.667 35.493 C 100.667 29.996,100.531 29.128,99.491 27.946 C 98.497 26.817,96.751 26.383,95.293 26.904 M72.833 36.577 C 69.215 37.241,66.873 39.037,65.761 42.000 C 65.109 43.737,64.987 44.294,64.764 46.557 C 64.619 48.031,64.480 48.744,64.318 48.846 C 64.186 48.930,58.636 48.996,51.634 48.997 L 39.184 49.000 38.384 49.423 C 35.429 50.985,35.736 55.309,38.886 56.491 C 39.200 56.608,43.479 56.667,51.826 56.667 C 63.045 56.667,64.308 56.693,64.399 56.930 C 64.454 57.075,64.500 57.882,64.500 58.722 C 64.498 67.764,67.129 71.843,73.485 72.654 C 80.792 73.587,85.558 70.567,86.749 64.250 C 87.573 59.874,86.235 57.500,82.943 57.500 C 80.166 57.500,79.434 58.542,79.010 63.099 C 78.780 65.572,77.971 66.500,76.048 66.500 C 74.608 66.500,73.821 65.621,73.214 63.333 C 72.753 61.599,72.773 46.898,73.239 45.333 C 74.450 41.257,78.958 41.760,78.993 45.974 C 79.016 48.817,80.377 50.326,82.917 50.326 C 86.517 50.326,87.907 47.208,86.369 42.583 C 84.804 37.876,79.231 35.403,72.833 36.577 M130.167 36.526 C 125.051 37.358,121.941 40.577,121.924 45.059 L 121.917 47.036 122.680 47.726 C 124.684 49.538,128.701 49.144,129.448 47.062 C 129.542 46.799,129.751 46.031,129.912 45.356 C 130.795 41.646,134.986 40.970,136.223 44.339 C 137.267 47.183,136.244 48.233,128.750 52.008 C 128.017 52.377,127.268 52.770,127.087 52.881 C 126.906 52.992,126.349 53.335,125.850 53.642 C 124.065 54.739,122.430 56.853,121.964 58.667 C 121.882 58.987,121.738 59.550,121.645 59.917 C 121.058 62.225,121.533 67.064,122.532 68.963 C 124.980 73.617,132.659 74.211,135.760 69.987 C 136.506 68.971,136.779 68.944,136.920 69.875 C 137.254 72.098,139.886 73.366,142.551 72.587 C 144.568 71.998,144.989 71.038,144.675 67.750 C 144.576 66.705,144.500 61.666,144.500 56.035 C 144.500 42.452,144.306 41.078,142.088 38.933 C 139.984 36.900,134.580 35.809,130.167 36.526 M152.917 36.658 C 152.095 37.029,151.634 37.536,151.275 38.462 C 150.844 39.577,150.855 69.182,151.287 70.388 C 152.395 73.479,156.797 73.703,158.390 70.750 C 158.744 70.094,158.752 69.921,158.849 59.917 C 158.903 54.325,159.008 49.525,159.083 49.250 C 159.575 47.439,161.396 46.167,163.497 46.167 C 166.382 46.167,168.167 44.306,168.167 41.297 C 168.167 39.118,166.923 36.667,165.818 36.667 C 165.654 36.667,165.473 36.592,165.417 36.500 C 165.360 36.408,164.905 36.333,164.405 36.333 C 162.141 36.333,160.541 37.993,158.903 42.041 C 158.439 43.190,158.333 43.032,158.333 41.186 C 158.333 37.238,155.983 35.273,152.917 36.658 M177.149 36.575 C 174.694 37.252,172.518 39.586,171.794 42.318 C 170.963 45.456,170.792 48.051,170.892 56.000 C 170.980 62.996,171.256 65.441,172.175 67.333 C 172.242 67.471,172.436 67.870,172.607 68.220 C 173.780 70.628,176.317 72.000,179.596 72.000 C 182.056 72.000,183.407 71.468,184.948 69.892 C 185.607 69.218,186.189 68.667,186.240 68.667 C 186.427 68.667,186.312 74.940,186.104 76.083 C 185.396 79.980,181.646 81.021,179.796 77.833 C 177.410 73.720,172.246 74.444,172.252 78.891 C 172.258 83.097,175.631 85.167,182.481 85.167 C 188.775 85.167,192.007 83.302,193.616 78.741 L 194.083 77.417 194.130 58.417 C 194.172 41.198,194.151 39.350,193.905 38.702 C 192.529 35.073,187.328 35.672,186.750 39.526 C 186.626 40.353,186.132 40.513,185.906 39.799 C 185.195 37.561,180.219 35.728,177.149 36.575 M208.833 36.592 C 203.892 37.452,201.868 39.552,200.730 45.000 C 200.341 46.859,200.266 61.901,200.637 63.583 C 200.758 64.133,200.974 65.108,201.115 65.750 C 202.160 70.475,205.900 72.839,212.323 72.834 C 215.634 72.832,218.799 71.629,220.648 69.672 C 221.070 69.225,222.167 67.590,222.167 67.408 C 222.167 67.349,222.268 67.064,222.392 66.775 C 224.293 62.343,222.886 58.840,219.203 58.835 C 216.436 58.832,215.577 59.665,215.173 62.750 C 214.652 66.736,211.081 67.975,209.447 64.737 C 208.720 63.297,208.300 56.010,208.930 55.768 C 209.075 55.712,211.719 55.665,214.805 55.664 L 220.417 55.661 221.315 55.206 C 222.039 54.838,222.314 54.572,222.732 53.833 L 223.250 52.917 223.242 49.417 C 223.224 41.290,221.014 37.702,215.333 36.580 C 213.821 36.282,210.582 36.287,208.833 36.592 M213.736 43.059 C 214.440 43.520,214.794 43.998,215.093 44.892 C 215.397 45.800,215.618 48.840,215.434 49.574 L 215.325 50.007 212.038 49.962 L 208.750 49.917 208.695 48.417 C 208.528 43.817,210.955 41.237,213.736 43.059 M183.901 43.346 C 185.755 44.440,186.326 47.031,186.330 54.372 C 186.335 62.972,185.434 65.643,182.520 65.661 C 180.594 65.673,179.860 64.583,179.432 61.077 C 178.889 56.625,179.169 46.147,179.850 45.425 C 179.933 45.338,180.000 45.131,180.000 44.966 C 180.000 43.599,182.540 42.543,183.901 43.346 M136.500 57.740 C 136.500 62.996,135.813 65.157,133.819 66.174 C 131.745 67.232,129.931 65.806,129.716 62.946 C 129.469 59.684,130.582 58.059,135.158 55.000 C 135.364 54.862,135.656 54.659,135.808 54.547 C 136.471 54.058,136.500 54.192,136.500 57.740 " stroke="none" fill="#fc7d17" fill-rule="evenodd"></path><path id="path1" d="M289.597 24.914 C 287.210 25.895,286.136 28.887,287.330 31.226 C 288.449 33.416,291.349 34.272,293.522 33.052 C 298.469 30.277,294.842 22.757,289.597 24.914 M342.399 35.725 C 341.417 36.000,340.581 36.744,340.092 37.778 L 339.667 38.676 339.667 43.675 L 339.667 48.675 339.239 48.837 C 338.564 49.094,325.963 49.052,325.632 48.792 C 325.412 48.618,325.354 48.036,325.284 45.333 C 325.190 41.660,325.074 41.156,323.893 39.328 C 321.956 36.330,317.732 35.453,313.917 37.257 C 312.952 37.713,311.000 39.426,311.000 39.817 C 311.000 40.344,310.342 39.964,310.235 39.375 C 309.529 35.483,303.888 35.221,302.757 39.028 C 302.355 40.383,302.371 68.896,302.775 70.147 C 303.640 72.824,307.046 73.747,309.123 71.866 C 310.443 70.671,310.512 69.989,310.491 58.333 C 310.470 46.482,310.488 46.265,311.613 44.720 C 312.758 43.148,315.135 42.798,316.430 44.011 C 317.450 44.967,317.409 44.441,317.501 57.750 C 317.593 71.002,317.559 70.559,318.564 71.643 C 320.359 73.580,323.624 73.120,324.892 70.752 C 325.236 70.109,325.253 69.832,325.333 63.583 C 325.379 60.008,325.477 56.990,325.552 56.875 C 325.811 56.474,339.277 56.584,339.494 56.989 C 339.604 57.195,339.667 59.569,339.667 63.551 C 339.667 69.452,339.685 69.832,340.004 70.553 C 341.355 73.607,345.394 73.772,346.868 70.833 L 347.328 69.917 347.331 63.555 C 347.332 60.057,347.379 57.075,347.434 56.930 C 347.524 56.696,348.263 56.667,354.043 56.667 L 360.550 56.667 361.452 56.225 C 364.403 54.781,364.385 50.828,361.420 49.425 L 360.521 49.000 354.127 49.000 C 349.376 49.000,347.682 48.949,347.533 48.800 C 347.387 48.653,347.333 47.272,347.333 43.623 L 347.333 38.646 346.906 37.743 C 346.062 35.958,344.331 35.183,342.399 35.725 M231.559 36.554 C 230.513 36.945,229.762 37.826,229.345 39.150 C 229.080 39.992,229.097 79.634,229.363 80.564 C 230.068 83.031,232.751 84.125,235.041 82.878 C 236.854 81.891,237.167 80.626,237.167 74.267 C 237.167 71.767,237.206 69.683,237.254 69.635 C 237.302 69.587,237.812 70.009,238.387 70.573 C 241.430 73.557,246.719 73.613,249.544 70.693 C 250.619 69.581,250.984 68.862,251.839 66.167 C 252.771 63.227,252.718 46.079,251.766 42.750 C 250.699 39.018,249.126 37.281,246.167 36.567 C 242.952 35.790,239.421 37.127,237.848 39.716 C 237.356 40.525,237.166 40.447,236.844 39.307 C 236.167 36.910,233.845 35.701,231.559 36.554 M266.333 36.580 C 261.416 37.495,259.078 39.965,257.809 45.583 C 257.484 47.025,257.484 62.142,257.809 63.583 C 259.097 69.285,261.512 71.750,266.633 72.590 C 273.352 73.691,278.786 71.055,280.365 65.926 C 281.580 61.984,281.579 47.092,280.364 43.250 C 278.713 38.026,273.043 35.331,266.333 36.580 M289.667 36.612 C 288.829 36.972,288.344 37.466,287.896 38.417 L 287.503 39.250 287.503 54.583 L 287.503 69.917 287.899 70.767 C 289.228 73.621,293.769 73.481,294.932 70.551 C 295.237 69.783,295.250 69.113,295.250 54.500 L 295.250 39.250 294.868 38.483 C 293.943 36.625,291.597 35.781,289.667 36.612 M270.862 42.934 C 272.563 43.804,273.000 46.211,272.999 54.707 C 272.998 64.744,272.446 66.500,269.288 66.500 C 267.390 66.500,266.511 65.411,266.071 62.515 C 265.742 60.344,265.740 48.902,266.069 46.744 C 266.603 43.238,268.503 41.727,270.862 42.934 M242.398 43.348 C 243.820 44.467,243.985 45.647,243.993 54.794 C 244.002 64.271,243.816 65.365,242.039 66.287 C 240.104 67.291,238.141 65.747,237.434 62.665 C 237.048 60.983,237.123 47.579,237.526 46.333 C 238.480 43.381,240.706 42.017,242.398 43.348 M215.375 49.083 C 215.377 49.450,215.411 49.580,215.451 49.373 C 215.491 49.166,215.490 48.866,215.448 48.706 C 215.406 48.547,215.374 48.717,215.375 49.083 M357.917 63.843 C 354.934 64.719,354.115 69.821,356.607 72.000 C 358.842 73.952,362.231 72.992,363.313 70.099 C 364.709 66.369,361.598 62.763,357.917 63.843 M361.000 64.663 C 363.187 65.824,363.554 69.752,361.639 71.500 C 358.833 74.064,354.826 70.980,355.874 67.063 C 356.476 64.811,359.028 63.616,361.000 64.663 M357.808 66.542 C 357.635 68.640,357.841 70.689,358.220 70.635 C 358.526 70.591,358.591 70.459,358.634 69.792 C 358.705 68.685,359.161 68.701,359.865 69.833 C 360.290 70.517,360.468 70.667,360.858 70.667 C 361.446 70.667,361.452 70.505,360.894 69.663 L 360.455 68.999 360.894 68.366 C 361.882 66.940,361.105 65.833,359.117 65.833 L 357.867 65.833 357.808 66.542 M360.176 67.101 C 360.390 67.501,360.377 67.562,360.009 67.860 C 359.195 68.519,358.354 67.889,358.732 66.903 C 358.899 66.469,359.913 66.609,360.176 67.101 " stroke="none" fill="#7d9dae" fill-rule="evenodd"></path><path id="path2" d="M0.000 54.583 L 0.000 109.167 200.000 109.167 L 400.000 109.167 400.000 54.583 L 400.000 0.000 200.000 0.000 L 0.000 0.000 0.000 54.583 M292.951 24.861 C 297.644 26.616,296.369 33.556,291.355 33.554 C 288.596 33.553,286.915 31.859,286.918 29.083 C 286.923 25.764,289.864 23.705,292.951 24.861 M97.992 26.946 C 100.227 27.667,100.543 28.624,100.623 34.917 C 100.682 39.527,100.800 40.744,101.105 39.903 C 101.529 38.733,103.868 37.089,105.805 36.600 C 110.441 35.429,114.343 37.720,115.272 42.159 C 115.569 43.582,115.610 68.917,115.316 70.083 C 114.563 73.074,110.347 73.837,108.457 71.325 C 107.535 70.101,107.505 69.652,107.500 57.000 L 107.495 45.417 107.122 44.766 C 106.109 42.994,103.710 42.774,102.172 44.313 C 100.648 45.836,100.667 45.659,100.665 58.153 C 100.663 69.476,100.632 70.005,99.903 71.135 C 98.162 73.836,93.840 73.223,92.926 70.146 C 92.575 68.966,92.533 30.690,92.882 29.583 C 93.650 27.141,95.554 26.158,97.992 26.946 M344.483 35.694 C 345.577 35.947,346.376 36.622,346.906 37.743 L 347.333 38.646 347.333 43.623 C 347.333 47.272,347.387 48.653,347.533 48.800 C 347.682 48.949,349.376 49.000,354.127 49.000 L 360.521 49.000 361.420 49.425 C 364.385 50.828,364.403 54.781,361.452 56.225 L 360.550 56.667 354.043 56.667 C 348.263 56.667,347.524 56.696,347.434 56.930 C 347.379 57.075,347.332 60.057,347.331 63.555 L 347.328 69.917 346.868 70.833 C 345.394 73.772,341.355 73.607,340.004 70.553 C 339.685 69.832,339.667 69.452,339.667 63.551 C 339.667 59.569,339.604 57.195,339.494 56.989 C 339.277 56.584,325.811 56.474,325.552 56.875 C 325.477 56.990,325.379 60.008,325.333 63.583 C 325.253 69.832,325.236 70.109,324.892 70.752 C 323.624 73.120,320.359 73.580,318.564 71.643 C 317.559 70.559,317.593 71.002,317.501 57.750 C 317.409 44.441,317.450 44.967,316.430 44.011 C 315.135 42.798,312.758 43.148,311.613 44.720 C 310.488 46.265,310.470 46.482,310.491 58.333 C 310.512 69.989,310.443 70.671,309.123 71.866 C 307.046 73.747,303.640 72.824,302.775 70.147 C 302.371 68.896,302.355 40.383,302.757 39.028 C 303.888 35.221,309.529 35.483,310.235 39.375 C 310.342 39.964,311.000 40.344,311.000 39.817 C 311.000 39.426,312.952 37.713,313.917 37.257 C 317.732 35.453,321.956 36.330,323.893 39.328 C 325.074 41.156,325.190 41.660,325.284 45.333 C 325.354 48.036,325.412 48.618,325.632 48.792 C 325.963 49.052,338.564 49.094,339.239 48.837 L 339.667 48.675 339.667 43.675 L 339.667 38.676 340.092 37.778 C 340.927 36.014,342.544 35.247,344.483 35.694 M78.917 36.567 C 83.266 37.434,85.923 39.923,86.754 43.905 C 87.587 47.899,86.156 50.319,82.953 50.330 C 80.299 50.338,79.304 49.262,79.009 46.066 C 78.610 41.747,74.450 41.219,73.236 45.333 C 72.775 46.898,72.757 61.602,73.215 63.333 C 73.662 65.023,73.961 65.567,74.712 66.054 C 76.480 67.200,78.652 66.091,78.899 63.917 C 79.540 58.277,80.037 57.493,82.962 57.507 C 86.264 57.524,87.617 59.960,86.753 64.333 C 85.978 68.257,83.985 70.722,80.432 72.155 C 78.310 73.010,73.675 73.009,71.117 72.152 C 67.164 70.828,65.364 68.149,64.746 62.667 C 64.616 61.521,64.508 59.792,64.505 58.825 C 64.502 57.686,64.430 56.996,64.300 56.867 C 64.148 56.715,61.128 56.667,51.728 56.667 C 43.450 56.667,39.200 56.608,38.886 56.491 C 35.587 55.253,35.476 50.611,38.712 49.204 C 39.059 49.054,42.291 49.002,51.629 48.997 C 58.479 48.993,64.187 48.925,64.315 48.846 C 64.472 48.748,64.614 48.016,64.760 46.559 C 65.035 43.811,65.550 41.971,66.443 40.548 C 68.541 37.203,73.759 35.537,78.917 36.567 M136.402 36.577 C 140.706 37.223,142.851 38.776,143.896 42.000 C 144.385 43.510,144.500 46.166,144.500 55.936 C 144.500 61.690,144.575 66.515,144.683 67.697 C 144.993 71.096,144.518 72.163,142.473 72.653 C 139.751 73.306,137.245 72.056,136.906 69.875 C 136.777 69.051,136.612 68.997,136.112 69.616 C 132.420 74.192,125.116 73.861,122.544 69.000 C 121.671 67.349,121.457 66.213,121.464 63.239 C 121.476 57.144,122.854 55.036,128.847 51.944 C 129.985 51.356,131.658 50.492,132.564 50.024 C 133.471 49.555,134.483 48.967,134.814 48.718 C 138.050 46.279,136.189 41.444,132.387 42.412 C 130.844 42.804,129.667 44.564,129.667 46.476 C 129.667 48.890,124.908 49.741,122.680 47.726 L 121.917 47.035 121.925 45.143 C 121.941 41.114,123.829 38.642,128.152 36.988 C 129.793 36.360,133.670 36.167,136.402 36.577 M156.194 36.571 C 157.723 37.209,158.222 38.208,158.303 40.792 C 158.339 41.915,158.435 42.833,158.517 42.833 C 158.599 42.833,158.667 42.747,158.667 42.641 C 158.667 42.535,158.845 42.067,159.064 41.599 C 159.282 41.132,159.650 40.333,159.880 39.824 C 162.292 34.495,168.166 35.507,168.162 41.250 C 168.160 44.386,166.486 46.167,163.539 46.167 C 161.395 46.167,159.579 47.424,159.083 49.250 C 159.008 49.525,158.903 54.325,158.849 59.917 C 158.752 69.921,158.744 70.094,158.390 70.750 C 156.867 73.573,152.772 73.566,151.433 70.738 L 151.000 69.824 151.000 54.433 C 151.000 37.438,150.953 38.220,152.033 37.218 C 152.932 36.384,154.984 36.065,156.194 36.571 M181.135 36.510 C 182.875 36.903,184.907 38.266,185.942 39.734 C 186.365 40.333,186.603 40.206,186.756 39.296 C 187.365 35.692,192.569 35.205,193.892 38.628 C 194.342 39.794,194.304 76.007,193.851 77.854 C 192.905 81.705,190.733 83.825,186.683 84.849 C 185.100 85.249,179.168 85.252,178.000 84.853 C 177.679 84.744,177.154 84.573,176.833 84.475 C 173.381 83.412,171.503 80.549,172.310 77.579 C 173.096 74.687,178.032 74.372,179.432 77.125 C 180.630 79.480,181.744 80.074,183.710 79.405 C 185.749 78.710,186.333 76.997,186.333 71.708 C 186.333 68.397,186.304 68.317,185.472 69.372 C 183.938 71.320,182.379 72.001,179.461 71.999 C 175.409 71.995,172.797 69.955,171.678 65.917 C 170.688 62.346,170.500 47.899,171.392 44.000 C 171.815 42.156,171.934 41.785,172.464 40.655 C 174.018 37.345,177.489 35.686,181.135 36.510 M215.333 36.573 C 220.974 37.652,223.217 41.271,223.240 49.333 C 223.258 55.546,223.100 55.665,214.861 55.669 C 207.877 55.672,208.667 55.314,208.667 58.478 C 208.669 64.267,209.622 66.500,212.090 66.500 C 213.724 66.500,214.843 65.136,215.168 62.750 C 215.587 59.668,216.440 58.833,219.170 58.833 C 221.876 58.833,223.167 60.102,223.167 62.763 C 223.167 63.838,222.753 66.024,222.408 66.775 C 222.275 67.064,222.167 67.354,222.167 67.419 C 222.167 68.539,219.192 71.196,217.070 71.972 C 209.898 74.595,202.572 71.776,201.117 65.833 C 200.432 63.032,200.417 62.788,200.427 54.500 C 200.439 45.119,200.575 43.904,201.940 41.062 C 203.687 37.421,209.531 35.462,215.333 36.573 M234.885 36.746 C 235.897 37.229,236.468 37.974,236.844 39.307 C 237.166 40.447,237.356 40.525,237.848 39.716 C 239.421 37.127,242.952 35.790,246.167 36.567 C 249.126 37.281,250.699 39.018,251.766 42.750 C 252.718 46.079,252.771 63.227,251.839 66.167 C 250.984 68.862,250.619 69.581,249.544 70.693 C 246.719 73.613,241.430 73.557,238.387 70.573 C 237.812 70.009,237.302 69.587,237.254 69.635 C 237.206 69.683,237.167 71.767,237.167 74.267 C 237.167 80.626,236.854 81.891,235.041 82.878 C 232.751 84.125,230.068 83.031,229.363 80.564 C 229.097 79.634,229.080 39.992,229.345 39.150 C 230.131 36.655,232.520 35.618,234.885 36.746 M272.333 36.581 C 277.203 37.412,279.720 39.977,280.841 45.250 C 281.331 47.552,281.336 61.673,280.848 63.917 C 279.689 69.249,277.183 71.753,272.167 72.591 C 264.334 73.899,259.446 70.832,257.809 63.583 C 257.484 62.142,257.484 47.025,257.809 45.583 C 258.934 40.601,260.666 38.390,264.500 37.045 C 266.476 36.351,269.826 36.153,272.333 36.581 M292.852 36.590 C 293.755 36.908,294.374 37.490,294.868 38.483 L 295.250 39.250 295.250 54.500 C 295.250 69.113,295.237 69.783,294.932 70.551 C 293.769 73.481,289.228 73.621,287.899 70.767 L 287.503 69.917 287.503 54.583 L 287.503 39.250 287.896 38.417 C 288.759 36.586,290.756 35.850,292.852 36.590 M268.623 42.641 C 266.322 43.185,265.841 45.252,265.836 54.598 C 265.832 64.712,266.350 66.500,269.288 66.500 C 272.446 66.500,272.998 64.744,272.999 54.707 C 273.000 44.332,272.090 41.822,268.623 42.641 M210.589 42.948 C 209.301 43.644,208.667 45.303,208.667 47.969 C 208.667 50.185,208.355 50.000,212.077 50.000 L 215.285 50.000 215.379 48.958 C 215.617 46.319,215.105 44.091,214.087 43.333 C 213.105 42.603,211.544 42.431,210.589 42.948 M181.071 43.533 C 179.570 44.851,179.167 47.047,179.167 53.891 C 179.167 63.242,179.853 65.667,182.497 65.667 C 183.935 65.667,184.945 64.776,185.615 62.917 C 186.628 60.106,186.631 48.701,185.619 45.811 C 184.728 43.269,182.592 42.198,181.071 43.533 M239.495 43.281 C 238.527 43.942,238.069 44.652,237.526 46.333 C 237.123 47.579,237.048 60.983,237.434 62.665 C 238.537 67.476,242.451 68.093,243.682 63.650 C 244.492 60.727,244.068 45.984,243.123 44.223 C 242.482 43.030,240.586 42.537,239.495 43.281 M135.808 54.547 C 135.656 54.659,135.364 54.862,135.158 55.000 C 130.673 57.999,129.744 59.288,129.756 62.500 C 129.769 66.159,131.986 67.631,134.508 65.655 C 135.962 64.516,136.500 62.383,136.500 57.757 C 136.500 54.191,136.471 54.058,135.808 54.547 M360.734 63.849 C 362.924 64.457,364.235 67.635,363.313 70.099 C 361.513 74.910,355.170 73.535,355.170 68.333 C 355.170 64.932,357.595 62.978,360.734 63.849 M358.750 64.337 C 356.639 64.647,355.149 67.304,355.845 69.517 C 357.265 74.027,362.833 73.084,362.833 68.333 C 362.833 65.584,361.192 63.978,358.750 64.337 M360.850 66.351 C 361.452 66.995,361.464 67.544,360.894 68.366 L 360.455 68.999 360.894 69.663 C 361.452 70.505,361.446 70.667,360.858 70.667 C 360.468 70.667,360.290 70.517,359.865 69.833 C 359.161 68.701,358.705 68.685,358.634 69.792 C 358.591 70.459,358.526 70.591,358.220 70.635 C 357.841 70.689,357.635 68.640,357.808 66.542 L 357.867 65.833 359.117 65.833 C 360.300 65.833,360.392 65.861,360.850 66.351 M358.732 66.903 C 358.354 67.889,359.195 68.519,360.009 67.860 C 360.377 67.562,360.390 67.501,360.176 67.101 C 359.913 66.609,358.899 66.469,358.732 66.903 " stroke="none" fill="#fbfbfb" fill-rule="evenodd"></path></g></svg>
