<svg xmlns="http://www.w3.org/2000/svg" width="1034.065" height="1034.064" viewBox="0 0 969.43554 969.43543"><path d="M6.514 17.17c-17.753 357.997 3.968 594.693 26.992 952.265 211.787 0 689.468-6.755 923.703-11.663 22.206-.424 10.846-943.237-7.755-944.207-67.799-3.484-794.286-30.78-942.94 3.605z" fill="#ffb800"/><path fill="#ffe12d" d="M885.336 395.808V98.25H89.232v444.974h80.704v-144.72l102.182-.787V212.432h102.213v49.411l107.757-1.484v-121.18l75.948 8.058v65.195h74.07v80.797h72.19V147.237l67.496-1.636 61.892 255.6z"/><g fill="#fff"><path d="M798.724 689.034c-24.993-47.412-120.39-65.558-168.285-44.352-57.74 25.539-52.954 140.236-8.452 176.924 35.596 29.325 101.82 56.803 145.473 33.445 57.469-30.961 58.62-114.091 31.264-166.017zm-29.052 89.825c-29.537 44.382-122.783 35.87-150.2-7.089-13.723-21.449-16.086-55.773 4.09-75.101 23.812-22.994 106-38.263 131.78-10.937 19.45 20.54 30.416 68.891 14.33 93.127zM345.733 637.17C228.525 572.428 95.987 744.05 190.778 841.842c40.655 42.019 101.607 43.988 149.23 17.147 73.676-41.414 82.28-179.499 5.725-221.82zm.849 156.08c-26.69 26.174-86.37 53.288-115.482 21.479-26.417-28.872-30.961-75.314-15.42-110.426 4.06-9.089 10.3-17.965 17.934-25.63 18.42-18.42 45.169-30.022 70.04-22.115 20.782 6.544 37.626 35.021 48.169 52.501 15.42 25.63 17.722 61.65-5.241 84.19z"/><path d="M630.863 368.694c-22.054-21.418-160.408 6.392-139.747 41.05 16.753 28.084 84.733-33.113 105.606-10.937 6.574 6.938 12.723 94.46 20.54 119.515 1.18 3.696 2.362 8.815 3.544 15.117-27.174-46.473-169.376 15.48-212.333 60.317-7.937-18.207-28.356-54.864-40.534-69.073-11.209-13.148-33.96-16.359-33.445 16.42.091 6.787 21.964 29.114 32.809 42.171-35.96 32.234-110.695 161.655-95.67 175.924 6.362 6.028 88.642-105.821 111.908-149.84 21.448 36.96 37.928 72.163 45.562 113.334 5.21 28.356-11.542 67.891 38.353 72.436 54.863 5.059 43.563-61.439-6.513-54.259-.818-10.088-2.787-20.48-5.544-30.9 48.925-5.363 160.317-106.185 169.072-155.475 11.664 71.284 28.507 206.218 68.223 208.581 37.383 2.151-36.202-369.478-61.83-394.38zM538.86 622.961c-27.356 26.508-40.231 39.868-78.372 55.44-8.967-26.63-19.54-48.14-30.021-71.557 36.928-25.085 77.735-45.11 103.545-45.11 48.593 0 44.079 23.116 4.848 61.227z"/><path d="M430.436 529.38c-1.272-28.024-70.676-37.658-102.576-42.929-34.93-5.695-63.255 12.24-47.38 38.808 20.72 34.658 149.956 23.236 149.956 4.12z"/></g></svg>