<svg id="svg" version="1.1" xmlns="http://www.w3.org/2000/svg" xmlns:xlink="http://www.w3.org/1999/xlink" width="400" height="400" viewBox="0, 0, 400,400"><g id="svgg"><path id="path0" d="M192.587 39.739 C 191.700 39.993,190.348 40.593,189.583 41.074 C 188.817 41.554,187.743 42.150,187.196 42.398 C 186.648 42.646,185.300 43.360,184.200 43.986 C 183.100 44.611,180.580 45.965,178.600 46.995 C 176.620 48.024,174.100 49.377,173.000 50.000 C 171.900 50.623,169.380 51.976,167.400 53.005 C 165.420 54.035,162.948 55.355,161.907 55.938 C 160.865 56.522,158.615 57.741,156.907 58.647 C 155.198 59.552,152.720 60.887,151.400 61.612 C 150.080 62.337,147.290 63.836,145.200 64.943 C 143.110 66.050,140.549 67.416,139.509 67.978 C 138.469 68.540,136.039 69.842,134.109 70.872 C 132.179 71.902,129.610 73.296,128.400 73.969 C 127.190 74.643,125.480 75.562,124.600 76.011 C 123.720 76.460,121.200 77.808,119.000 79.005 C 116.800 80.202,114.280 81.548,113.400 81.996 C 112.520 82.445,110.000 83.800,107.800 85.008 C 105.600 86.216,103.260 87.457,102.600 87.766 C 101.940 88.076,100.230 88.999,98.800 89.819 C 97.370 90.638,95.516 91.682,94.681 92.139 C 91.867 93.676,95.143 97.921,99.200 97.993 C 99.530 97.999,100.520 98.448,101.400 98.990 C 102.280 99.532,103.360 99.986,103.800 100.000 C 104.240 100.014,105.320 100.468,106.200 101.010 C 107.080 101.552,108.052 101.997,108.360 101.998 C 108.668 101.999,109.883 102.450,111.060 103.000 C 112.237 103.550,114.163 104.450,115.340 105.000 C 116.517 105.550,117.733 106.000,118.043 106.000 C 118.353 106.000,119.452 106.450,120.485 107.000 C 121.518 107.550,122.598 108.000,122.885 108.000 C 123.172 108.000,124.215 108.428,125.203 108.951 C 126.191 109.474,127.573 110.025,128.272 110.177 C 128.972 110.328,129.750 110.698,130.000 111.000 C 130.250 111.302,131.028 111.672,131.728 111.823 C 132.427 111.975,133.809 112.526,134.797 113.049 C 135.785 113.572,136.865 114.001,137.197 114.002 C 137.529 114.003,138.520 114.448,139.400 114.990 C 140.280 115.532,141.273 115.981,141.606 115.988 C 141.939 115.994,142.839 116.334,143.606 116.741 C 144.373 117.149,145.716 117.716,146.590 118.002 C 147.465 118.288,148.725 118.854,149.390 119.259 C 150.056 119.665,150.871 119.998,151.203 119.999 C 151.535 119.999,152.652 120.450,153.685 121.000 C 154.718 121.550,155.779 122.000,156.042 122.000 C 156.305 122.000,157.438 122.427,158.560 122.950 C 163.513 125.256,165.080 125.910,166.272 126.172 C 166.972 126.326,167.750 126.698,168.000 127.000 C 168.250 127.302,169.028 127.672,169.728 127.823 C 170.427 127.975,171.809 128.526,172.797 129.049 C 173.785 129.572,174.828 130.000,175.115 130.000 C 175.402 130.000,176.482 130.450,177.515 131.000 C 178.548 131.550,179.665 132.001,179.997 132.001 C 180.329 132.002,181.144 132.335,181.810 132.741 C 182.475 133.146,183.735 133.706,184.610 133.984 C 185.484 134.262,186.560 134.712,187.000 134.984 C 187.440 135.256,188.516 135.713,189.390 136.000 C 190.265 136.287,191.525 136.854,192.190 137.259 C 192.856 137.665,193.670 137.999,194.000 138.001 C 194.330 138.003,195.140 138.299,195.800 138.658 C 200.077 140.985,200.476 140.697,217.255 123.178 C 218.215 122.176,223.041 117.136,227.980 111.978 C 238.248 101.255,242.143 97.196,246.744 92.422 C 251.668 87.313,251.525 86.416,244.886 80.728 C 242.529 78.708,240.420 76.852,240.200 76.603 C 239.980 76.355,238.630 75.182,237.200 73.998 C 235.770 72.813,234.330 71.538,234.000 71.163 C 233.670 70.789,231.960 69.272,230.200 67.791 C 226.940 65.049,223.385 61.941,219.000 58.000 C 214.586 54.033,211.051 50.944,207.800 48.212 C 206.040 46.733,204.420 45.307,204.200 45.043 C 202.875 43.456,198.214 39.986,196.925 39.628 C 195.114 39.125,194.700 39.136,192.587 39.739 M275.939 68.723 C 274.472 68.893,274.111 70.091,273.830 75.723 C 273.700 78.321,273.334 82.191,273.017 84.323 C 272.700 86.455,272.246 91.530,272.009 95.600 C 271.772 99.670,271.316 104.710,270.996 106.800 C 270.676 108.890,270.224 113.928,269.993 117.996 C 269.761 122.064,269.313 127.113,268.998 129.217 C 268.682 131.320,268.229 136.451,267.992 140.620 C 267.755 144.789,267.309 149.730,267.002 151.600 C 266.694 153.470,266.244 158.420,266.001 162.600 C 265.758 166.780,265.299 171.820,264.981 173.800 C 263.596 182.430,264.328 184.551,269.546 187.023 C 271.226 187.819,272.870 188.635,273.200 188.836 C 273.530 189.037,274.215 189.381,274.722 189.599 C 276.814 190.501,281.041 192.488,281.600 192.832 C 281.930 193.036,282.650 193.381,283.200 193.601 C 283.750 193.820,285.100 194.435,286.200 194.967 C 287.300 195.499,288.650 196.128,289.200 196.364 C 289.750 196.601,290.470 196.959,290.800 197.161 C 291.466 197.569,302.021 202.629,313.400 207.996 C 315.820 209.137,318.610 210.484,319.600 210.989 C 320.590 211.493,321.850 212.038,322.400 212.200 C 322.950 212.362,323.670 212.728,324.000 213.013 C 327.463 216.002,332.909 214.817,333.857 210.869 C 333.998 210.281,334.538 209.064,335.057 208.165 C 335.575 207.266,336.000 206.165,336.000 205.719 C 336.000 205.273,336.334 204.479,336.742 203.954 C 337.150 203.429,337.717 202.280,338.002 201.400 C 338.288 200.520,338.744 199.440,339.016 199.000 C 339.288 198.560,339.734 197.480,340.006 196.600 C 340.278 195.720,340.727 194.730,341.003 194.400 C 341.279 194.070,341.624 193.350,341.770 192.800 C 341.915 192.250,342.461 190.900,342.983 189.800 C 345.460 184.578,346.000 183.360,346.000 182.991 C 346.000 182.772,346.424 181.785,346.943 180.797 C 347.461 179.809,348.015 178.460,348.174 177.800 C 348.333 177.140,348.697 176.330,348.984 176.000 C 349.271 175.670,349.638 174.950,349.801 174.400 C 349.963 173.850,350.635 172.230,351.293 170.800 C 351.951 169.370,352.809 167.480,353.200 166.600 C 353.591 165.720,354.380 163.992,354.955 162.760 C 355.530 161.528,356.000 160.247,356.000 159.914 C 356.000 159.581,356.349 158.864,356.775 158.322 C 357.202 157.780,357.677 156.811,357.832 156.168 C 357.987 155.526,358.539 154.191,359.057 153.203 C 360.044 151.323,360.260 149.136,359.625 147.465 C 359.174 146.279,355.510 142.605,345.204 133.000 C 340.954 129.040,336.540 124.900,335.395 123.800 C 334.249 122.700,330.104 118.740,326.183 115.000 C 322.262 111.260,318.115 107.300,316.967 106.200 C 315.819 105.100,314.097 103.480,313.140 102.600 C 312.183 101.720,309.687 99.380,307.592 97.400 C 305.498 95.420,301.011 91.190,297.621 88.000 C 294.232 84.810,289.573 80.400,287.268 78.200 C 277.367 68.748,277.167 68.581,275.939 68.723 M99.826 124.056 C 99.215 124.220,98.418 124.616,98.057 124.937 C 97.696 125.258,96.770 125.809,96.000 126.161 C 95.230 126.514,93.790 127.340,92.800 127.997 C 91.810 128.654,90.280 129.555,89.400 130.000 C 88.520 130.445,86.990 131.345,86.000 132.000 C 85.010 132.655,83.480 133.555,82.600 134.000 C 81.720 134.445,80.190 135.345,79.200 136.000 C 78.210 136.655,76.680 137.555,75.800 138.000 C 74.920 138.445,73.390 139.345,72.400 140.000 C 71.410 140.655,69.880 141.564,69.000 142.020 C 66.291 143.423,64.838 144.270,64.151 144.847 C 63.789 145.151,62.811 145.760,61.977 146.200 C 60.243 147.115,57.333 148.783,55.000 150.200 C 54.120 150.735,52.770 151.466,52.000 151.826 C 51.230 152.185,50.297 152.748,49.928 153.077 C 49.558 153.405,48.698 153.972,48.017 154.337 C 40.972 158.111,39.571 159.479,39.479 162.676 C 39.411 165.025,40.322 171.679,40.959 173.483 C 41.272 174.371,41.733 176.786,41.983 178.849 C 42.234 180.912,42.692 183.500,43.002 184.600 C 43.312 185.700,43.761 188.130,44.000 190.000 C 44.239 191.870,44.687 194.300,44.996 195.400 C 45.305 196.500,45.753 199.020,45.992 201.000 C 46.230 202.980,46.695 205.545,47.024 206.700 C 47.353 207.855,47.803 210.285,48.025 212.100 C 48.246 213.915,48.682 216.300,48.994 217.400 C 49.306 218.500,49.760 221.110,50.001 223.200 C 50.243 225.290,50.684 227.633,50.980 228.406 C 51.276 229.179,51.725 231.519,51.978 233.606 C 52.231 235.693,52.692 238.300,53.002 239.400 C 53.312 240.500,53.761 242.930,54.000 244.800 C 54.239 246.670,54.687 249.100,54.996 250.200 C 55.305 251.300,55.757 253.820,56.000 255.800 C 56.243 257.780,56.695 260.300,57.004 261.400 C 57.313 262.500,57.764 264.930,58.006 266.800 C 59.131 275.475,60.621 276.179,65.473 270.331 C 66.811 268.719,68.421 266.849,69.053 266.174 C 71.054 264.036,73.270 261.526,77.150 257.000 C 79.225 254.580,81.046 252.510,81.196 252.400 C 81.347 252.290,82.590 250.893,83.958 249.296 C 85.325 247.699,86.839 245.978,87.322 245.472 C 87.805 244.966,89.625 242.880,91.367 240.838 C 93.108 238.795,94.740 236.916,94.992 236.662 C 95.244 236.408,96.574 234.893,97.948 233.296 C 99.321 231.699,100.839 229.984,101.322 229.486 C 102.256 228.521,104.968 225.366,107.412 222.400 C 108.228 221.410,109.025 220.510,109.183 220.400 C 109.341 220.290,110.590 218.893,111.958 217.296 C 113.325 215.699,114.839 213.977,115.322 213.470 C 116.707 212.014,121.252 206.883,124.065 203.600 C 126.635 200.600,127.420 199.711,132.526 194.032 C 136.528 189.581,137.923 186.477,136.810 184.495 C 136.596 184.113,136.139 183.170,135.795 182.400 C 135.451 181.630,134.669 180.100,134.057 179.000 C 133.445 177.900,132.067 175.380,130.994 173.400 C 129.922 171.420,128.546 168.900,127.937 167.800 C 127.328 166.700,126.567 165.253,126.245 164.584 C 125.923 163.915,124.508 161.305,123.102 158.784 C 121.695 156.263,120.261 153.660,119.915 153.000 C 119.568 152.340,118.727 150.810,118.046 149.600 C 117.364 148.390,116.440 146.680,115.993 145.800 C 115.546 144.920,114.915 143.750,114.591 143.200 C 114.267 142.650,112.650 139.680,110.996 136.600 C 109.343 133.520,107.727 130.550,107.405 130.000 C 107.083 129.450,106.477 128.280,106.058 127.400 C 104.672 124.489,102.522 123.335,99.826 124.056 M351.400 232.992 C 350.740 233.292,349.300 233.655,348.200 233.798 C 347.100 233.941,344.580 234.483,342.600 235.001 C 340.620 235.519,338.100 236.112,337.000 236.319 C 335.900 236.525,333.830 236.985,332.400 237.340 C 326.524 238.800,324.417 239.278,320.746 239.983 C 318.627 240.390,316.557 240.900,316.146 241.118 C 315.736 241.335,314.080 241.717,312.466 241.966 C 310.852 242.214,308.915 242.676,308.161 242.991 C 307.407 243.305,305.318 243.765,303.518 244.011 C 301.718 244.258,299.778 244.701,299.206 244.997 C 298.635 245.292,296.819 245.722,295.171 245.951 C 293.523 246.180,291.549 246.629,290.783 246.949 C 290.018 247.269,287.996 247.725,286.291 247.962 C 284.586 248.199,282.574 248.651,281.821 248.965 C 281.068 249.280,279.046 249.749,277.326 250.008 C 275.607 250.267,273.633 250.715,272.940 251.003 C 272.246 251.291,270.433 251.719,268.911 251.956 C 267.389 252.192,265.359 252.662,264.400 253.000 C 263.441 253.338,261.384 253.810,259.829 254.049 C 258.273 254.288,256.433 254.718,255.740 255.005 C 255.046 255.291,253.164 255.730,251.556 255.980 C 242.402 257.400,240.794 259.185,240.006 268.800 C 239.762 271.770,239.312 275.190,239.005 276.400 C 238.698 277.610,238.250 280.758,238.009 283.395 C 237.768 286.032,237.307 289.452,236.984 290.995 C 236.661 292.538,236.204 295.870,235.968 298.400 C 235.732 300.930,235.288 304.088,234.980 305.418 C 234.672 306.747,234.223 310.077,233.980 312.818 C 233.738 315.558,233.269 318.870,232.939 320.177 C 230.838 328.487,231.940 331.719,237.023 332.161 C 238.550 332.294,241.960 332.680,244.600 333.020 C 247.240 333.360,252.370 333.817,256.000 334.035 C 259.630 334.253,264.220 334.689,266.200 335.004 C 268.180 335.319,273.040 335.770,277.000 336.007 C 280.960 336.244,285.910 336.687,288.000 336.993 C 304.255 339.369,305.847 338.934,309.767 331.038 C 311.105 328.342,312.380 325.777,312.600 325.337 C 312.820 324.898,313.250 324.012,313.555 323.369 C 317.160 315.770,318.544 312.904,318.851 312.400 C 319.052 312.070,319.494 311.170,319.834 310.400 C 320.174 309.630,321.232 307.380,322.184 305.400 C 323.136 303.420,324.113 301.350,324.354 300.800 C 324.596 300.250,324.961 299.530,325.164 299.200 C 325.492 298.667,329.168 291.001,330.343 288.400 C 330.591 287.850,330.960 287.130,331.163 286.800 C 331.539 286.189,336.330 276.309,340.280 268.000 C 341.482 265.470,342.632 263.130,342.834 262.800 C 343.036 262.470,343.394 261.750,343.628 261.200 C 344.348 259.511,348.429 251.037,348.829 250.400 C 349.036 250.070,349.409 249.350,349.658 248.800 C 350.690 246.515,354.512 238.555,354.843 238.000 C 357.334 233.832,355.479 231.135,351.400 232.992 M157.811 260.999 C 156.717 261.309,154.287 261.752,152.411 261.984 C 150.535 262.215,148.164 262.659,147.143 262.970 C 146.121 263.282,143.538 263.745,141.404 264.000 C 139.269 264.254,136.842 264.703,136.012 264.996 C 135.182 265.289,132.815 265.734,130.754 265.984 C 128.692 266.235,125.665 266.791,124.027 267.220 C 122.389 267.649,120.408 268.001,119.625 268.003 C 118.841 268.004,116.760 268.350,115.000 268.771 C 113.240 269.193,110.270 269.743,108.400 269.994 C 106.530 270.246,104.083 270.714,102.962 271.036 C 101.840 271.358,99.448 271.789,97.645 271.995 C 93.313 272.489,90.141 275.162,91.423 277.237 C 91.529 277.409,91.802 279.028,92.028 280.836 C 92.255 282.643,92.708 284.764,93.036 285.549 C 93.364 286.333,93.815 288.287,94.038 289.891 C 94.261 291.494,94.686 293.390,94.982 294.103 C 95.278 294.816,95.734 296.817,95.995 298.548 C 96.256 300.279,96.732 302.439,97.052 303.348 C 97.373 304.257,97.823 306.345,98.051 307.989 C 98.280 309.633,98.650 311.319,98.873 311.736 C 99.095 312.152,99.597 314.227,99.988 316.346 C 100.378 318.466,100.987 321.370,101.341 322.800 C 102.580 327.811,103.302 331.032,104.029 334.800 C 104.432 336.890,105.033 339.320,105.363 340.200 C 105.694 341.080,105.973 342.186,105.982 342.659 C 106.036 345.268,111.504 347.071,122.200 348.004 C 124.840 348.235,128.212 348.690,129.694 349.015 C 131.176 349.341,134.595 349.787,137.292 350.008 C 139.990 350.228,143.488 350.675,145.066 351.001 C 146.645 351.327,150.144 351.785,152.842 352.020 C 155.540 352.254,158.839 352.696,160.174 353.003 C 161.508 353.309,164.040 353.670,165.800 353.806 C 170.030 354.132,174.711 354.760,176.200 355.202 C 176.860 355.398,179.701 355.748,182.513 355.979 C 185.326 356.210,188.926 356.661,190.513 356.982 C 192.101 357.303,195.650 357.762,198.400 358.002 C 201.150 358.243,204.030 358.616,204.800 358.832 C 207.470 359.581,221.124 360.809,222.206 360.398 C 223.485 359.911,223.862 358.971,223.133 358.085 C 222.822 357.708,222.257 356.770,221.877 356.000 C 221.497 355.230,220.650 353.790,219.994 352.800 C 219.339 351.810,218.535 350.427,218.207 349.727 C 217.880 349.027,217.414 348.333,217.173 348.183 C 216.931 348.034,216.387 347.167,215.963 346.256 C 215.539 345.345,214.656 343.790,214.002 342.800 C 213.348 341.810,212.592 340.550,212.322 340.000 C 212.052 339.450,211.419 338.491,210.916 337.869 C 210.412 337.247,210.000 336.496,210.000 336.200 C 210.000 335.904,209.588 335.153,209.084 334.531 C 208.581 333.909,207.948 332.950,207.678 332.400 C 207.408 331.850,206.656 330.590,206.007 329.600 C 205.357 328.610,204.366 326.990,203.804 326.000 C 203.242 325.010,202.335 323.480,201.789 322.600 C 201.243 321.720,200.430 320.370,199.984 319.600 C 199.538 318.830,198.645 317.390,198.000 316.400 C 197.355 315.410,196.455 313.970,196.001 313.200 C 195.546 312.430,194.613 310.900,193.926 309.800 C 193.239 308.700,192.473 307.440,192.223 307.000 C 191.219 305.227,189.079 301.697,187.979 300.000 C 187.338 299.010,186.594 297.750,186.326 297.200 C 186.058 296.650,185.471 295.660,185.020 295.000 C 184.570 294.340,183.931 293.320,183.601 292.734 C 182.489 290.763,181.181 288.612,179.991 286.800 C 179.340 285.810,178.445 284.280,178.000 283.400 C 177.555 282.520,176.659 280.990,176.009 280.000 C 175.358 279.010,174.368 277.390,173.809 276.400 C 172.388 273.883,171.929 273.169,170.900 271.872 C 170.405 271.249,170.000 270.537,170.000 270.291 C 170.000 270.045,169.577 269.203,169.061 268.422 C 168.544 267.640,167.464 265.980,166.661 264.733 C 164.271 261.023,161.643 259.914,157.811 260.999 " stroke="none" fill="#251e24" fill-rule="evenodd"></path><path id="path1" d="M0.000 200.000 L 0.000 400.000 200.000 400.000 L 400.000 400.000 400.000 200.000 L 400.000 0.000 200.000 0.000 L 0.000 0.000 0.000 200.000 M196.925 39.628 C 198.214 39.986,202.875 43.456,204.200 45.043 C 204.420 45.307,206.040 46.733,207.800 48.212 C 211.051 50.944,214.586 54.033,219.000 58.000 C 223.385 61.941,226.940 65.049,230.200 67.791 C 231.960 69.272,233.670 70.789,234.000 71.163 C 234.330 71.538,235.770 72.813,237.200 73.998 C 238.630 75.182,239.980 76.355,240.200 76.603 C 240.420 76.852,242.529 78.708,244.886 80.728 C 251.525 86.416,251.668 87.313,246.744 92.422 C 242.143 97.196,238.248 101.255,227.980 111.978 C 199.778 141.430,202.016 139.333,198.800 139.319 C 197.810 139.315,196.460 139.017,195.800 138.658 C 195.140 138.299,194.330 138.003,194.000 138.001 C 193.670 137.999,192.856 137.665,192.190 137.259 C 191.525 136.854,190.265 136.287,189.390 136.000 C 188.516 135.713,187.440 135.256,187.000 134.984 C 186.560 134.712,185.484 134.262,184.610 133.984 C 183.735 133.706,182.475 133.146,181.810 132.741 C 181.144 132.335,180.329 132.002,179.997 132.001 C 179.665 132.001,178.548 131.550,177.515 131.000 C 176.482 130.450,175.402 130.000,175.115 130.000 C 174.828 130.000,173.785 129.572,172.797 129.049 C 171.809 128.526,170.427 127.975,169.728 127.823 C 169.028 127.672,168.250 127.302,168.000 127.000 C 167.750 126.698,166.972 126.326,166.272 126.172 C 165.080 125.910,163.513 125.256,158.560 122.950 C 157.438 122.427,156.305 122.000,156.042 122.000 C 155.779 122.000,154.718 121.550,153.685 121.000 C 152.652 120.450,151.535 119.999,151.203 119.999 C 150.871 119.998,150.056 119.665,149.390 119.259 C 148.725 118.854,147.465 118.288,146.590 118.002 C 145.716 117.716,144.373 117.149,143.606 116.741 C 142.839 116.334,141.939 115.994,141.606 115.988 C 141.273 115.981,140.280 115.532,139.400 114.990 C 138.520 114.448,137.529 114.003,137.197 114.002 C 136.865 114.001,135.785 113.572,134.797 113.049 C 133.809 112.526,132.427 111.975,131.728 111.823 C 131.028 111.672,130.250 111.302,130.000 111.000 C 129.750 110.698,128.972 110.328,128.272 110.177 C 127.573 110.025,126.191 109.474,125.203 108.951 C 124.215 108.428,123.172 108.000,122.885 108.000 C 122.598 108.000,121.518 107.550,120.485 107.000 C 119.452 106.450,118.353 106.000,118.043 106.000 C 117.733 106.000,116.517 105.550,115.340 105.000 C 114.163 104.450,112.237 103.550,111.060 103.000 C 109.883 102.450,108.668 101.999,108.360 101.998 C 108.052 101.997,107.080 101.552,106.200 101.010 C 105.320 100.468,104.240 100.014,103.800 100.000 C 103.360 99.986,102.280 99.532,101.400 98.990 C 100.520 98.448,99.530 97.999,99.200 97.993 C 95.143 97.921,91.867 93.676,94.681 92.139 C 95.516 91.682,97.370 90.638,98.800 89.819 C 100.230 88.999,101.940 88.076,102.600 87.766 C 103.260 87.457,105.600 86.216,107.800 85.008 C 110.000 83.800,112.520 82.445,113.400 81.996 C 114.280 81.548,116.800 80.202,119.000 79.005 C 121.200 77.808,123.720 76.460,124.600 76.011 C 125.480 75.562,127.190 74.643,128.400 73.969 C 129.610 73.296,132.179 71.902,134.109 70.872 C 136.039 69.842,138.469 68.540,139.509 67.978 C 140.549 67.416,143.110 66.050,145.200 64.943 C 147.290 63.836,150.080 62.337,151.400 61.612 C 152.720 60.887,155.198 59.552,156.907 58.647 C 158.615 57.741,160.865 56.522,161.907 55.938 C 162.948 55.355,165.420 54.035,167.400 53.005 C 169.380 51.976,171.900 50.623,173.000 50.000 C 174.100 49.377,176.620 48.024,178.600 46.995 C 180.580 45.965,183.100 44.611,184.200 43.986 C 185.300 43.360,186.648 42.646,187.196 42.398 C 187.743 42.150,188.817 41.554,189.583 41.074 C 192.143 39.466,194.600 38.982,196.925 39.628 M281.803 73.000 C 282.504 73.660,284.964 76.000,287.268 78.200 C 289.573 80.400,294.232 84.810,297.621 88.000 C 301.011 91.190,305.498 95.420,307.592 97.400 C 309.687 99.380,312.183 101.720,313.140 102.600 C 314.097 103.480,315.819 105.100,316.967 106.200 C 318.115 107.300,322.262 111.260,326.183 115.000 C 330.104 118.740,334.249 122.700,335.395 123.800 C 336.540 124.900,340.954 129.040,345.204 133.000 C 355.510 142.605,359.174 146.279,359.625 147.465 C 360.260 149.136,360.044 151.323,359.057 153.203 C 358.539 154.191,357.987 155.526,357.832 156.168 C 357.677 156.811,357.202 157.780,356.775 158.322 C 356.349 158.864,356.000 159.581,356.000 159.914 C 356.000 160.247,355.530 161.528,354.955 162.760 C 354.380 163.992,353.591 165.720,353.200 166.600 C 352.809 167.480,351.951 169.370,351.293 170.800 C 350.635 172.230,349.963 173.850,349.801 174.400 C 349.638 174.950,349.271 175.670,348.984 176.000 C 348.697 176.330,348.333 177.140,348.174 177.800 C 348.015 178.460,347.461 179.809,346.943 180.797 C 346.424 181.785,346.000 182.772,346.000 182.991 C 346.000 183.360,345.460 184.578,342.983 189.800 C 342.461 190.900,341.915 192.250,341.770 192.800 C 341.624 193.350,341.279 194.070,341.003 194.400 C 340.727 194.730,340.278 195.720,340.006 196.600 C 339.734 197.480,339.288 198.560,339.016 199.000 C 338.744 199.440,338.288 200.520,338.002 201.400 C 337.717 202.280,337.150 203.429,336.742 203.954 C 336.334 204.479,336.000 205.273,336.000 205.719 C 336.000 206.165,335.575 207.266,335.057 208.165 C 334.538 209.064,333.998 210.281,333.857 210.869 C 332.909 214.817,327.463 216.002,324.000 213.013 C 323.670 212.728,322.950 212.362,322.400 212.200 C 321.850 212.038,320.590 211.493,319.600 210.989 C 318.610 210.484,315.820 209.137,313.400 207.996 C 302.021 202.629,291.466 197.569,290.800 197.161 C 290.470 196.959,289.750 196.601,289.200 196.364 C 288.650 196.128,287.300 195.499,286.200 194.967 C 285.100 194.435,283.750 193.820,283.200 193.601 C 282.650 193.381,281.930 193.036,281.600 192.832 C 281.041 192.488,276.814 190.501,274.722 189.599 C 274.215 189.381,273.530 189.037,273.200 188.836 C 272.870 188.635,271.226 187.819,269.546 187.023 C 264.328 184.551,263.596 182.430,264.981 173.800 C 265.299 171.820,265.758 166.780,266.001 162.600 C 266.244 158.420,266.694 153.470,267.002 151.600 C 267.309 149.730,267.755 144.789,267.992 140.620 C 268.229 136.451,268.682 131.320,268.998 129.217 C 269.313 127.113,269.761 122.064,269.993 117.996 C 270.224 113.928,270.676 108.890,270.996 106.800 C 271.316 104.710,271.772 99.670,272.009 95.600 C 272.246 91.530,272.700 86.455,273.017 84.323 C 273.334 82.191,273.700 78.321,273.830 75.723 C 274.271 66.880,275.024 66.623,281.803 73.000 M104.348 124.947 C 104.870 125.416,105.639 126.520,106.058 127.400 C 106.477 128.280,107.083 129.450,107.405 130.000 C 107.727 130.550,109.343 133.520,110.996 136.600 C 112.650 139.680,114.267 142.650,114.591 143.200 C 114.915 143.750,115.546 144.920,115.993 145.800 C 116.440 146.680,117.364 148.390,118.046 149.600 C 118.727 150.810,119.568 152.340,119.915 153.000 C 120.261 153.660,121.695 156.263,123.102 158.784 C 124.508 161.305,125.923 163.915,126.245 164.584 C 126.567 165.253,127.328 166.700,127.937 167.800 C 128.546 168.900,129.922 171.420,130.994 173.400 C 132.067 175.380,133.445 177.900,134.057 179.000 C 134.669 180.100,135.451 181.630,135.795 182.400 C 136.139 183.170,136.596 184.113,136.810 184.495 C 137.923 186.477,136.528 189.581,132.526 194.032 C 127.420 199.711,126.635 200.600,124.065 203.600 C 121.252 206.883,116.707 212.014,115.322 213.470 C 114.839 213.977,113.325 215.699,111.958 217.296 C 110.590 218.893,109.341 220.290,109.183 220.400 C 109.025 220.510,108.228 221.410,107.412 222.400 C 104.968 225.366,102.256 228.521,101.322 229.486 C 100.839 229.984,99.321 231.699,97.948 233.296 C 96.574 234.893,95.244 236.408,94.992 236.662 C 94.740 236.916,93.108 238.795,91.367 240.838 C 89.625 242.880,87.805 244.966,87.322 245.472 C 86.839 245.978,85.325 247.699,83.958 249.296 C 82.590 250.893,81.347 252.290,81.196 252.400 C 81.046 252.510,79.225 254.580,77.150 257.000 C 73.270 261.526,71.054 264.036,69.053 266.174 C 68.421 266.849,66.811 268.719,65.473 270.331 C 60.621 276.179,59.131 275.475,58.006 266.800 C 57.764 264.930,57.313 262.500,57.004 261.400 C 56.695 260.300,56.243 257.780,56.000 255.800 C 55.757 253.820,55.305 251.300,54.996 250.200 C 54.687 249.100,54.239 246.670,54.000 244.800 C 53.761 242.930,53.312 240.500,53.002 239.400 C 52.692 238.300,52.231 235.693,51.978 233.606 C 51.725 231.519,51.276 229.179,50.980 228.406 C 50.684 227.633,50.243 225.290,50.001 223.200 C 49.760 221.110,49.306 218.500,48.994 217.400 C 48.682 216.300,48.246 213.915,48.025 212.100 C 47.803 210.285,47.353 207.855,47.024 206.700 C 46.695 205.545,46.230 202.980,45.992 201.000 C 45.753 199.020,45.305 196.500,44.996 195.400 C 44.687 194.300,44.239 191.870,44.000 190.000 C 43.761 188.130,43.312 185.700,43.002 184.600 C 42.692 183.500,42.234 180.912,41.983 178.849 C 41.733 176.786,41.272 174.371,40.959 173.483 C 40.322 171.679,39.411 165.025,39.479 162.676 C 39.571 159.479,40.972 158.111,48.017 154.337 C 48.698 153.972,49.558 153.405,49.928 153.077 C 50.297 152.748,51.230 152.185,52.000 151.826 C 52.770 151.466,54.120 150.735,55.000 150.200 C 57.333 148.783,60.243 147.115,61.977 146.200 C 62.811 145.760,63.789 145.151,64.151 144.847 C 64.838 144.270,66.291 143.423,69.000 142.020 C 69.880 141.564,71.410 140.655,72.400 140.000 C 73.390 139.345,74.920 138.445,75.800 138.000 C 76.680 137.555,78.210 136.655,79.200 136.000 C 80.190 135.345,81.720 134.445,82.600 134.000 C 83.480 133.555,85.010 132.655,86.000 132.000 C 86.990 131.345,88.520 130.445,89.400 130.000 C 90.280 129.555,91.810 128.654,92.800 127.997 C 93.790 127.340,95.230 126.514,96.000 126.161 C 96.770 125.809,97.696 125.258,98.057 124.937 C 99.643 123.529,102.777 123.534,104.348 124.947 M355.920 234.023 C 356.031 235.349,355.703 236.561,354.843 238.000 C 354.512 238.555,350.690 246.515,349.658 248.800 C 349.409 249.350,349.036 250.070,348.829 250.400 C 348.429 251.037,344.348 259.511,343.628 261.200 C 343.394 261.750,343.036 262.470,342.834 262.800 C 342.632 263.130,341.482 265.470,340.280 268.000 C 336.330 276.309,331.539 286.189,331.163 286.800 C 330.960 287.130,330.591 287.850,330.343 288.400 C 329.168 291.001,325.492 298.667,325.164 299.200 C 324.961 299.530,324.596 300.250,324.354 300.800 C 324.113 301.350,323.136 303.420,322.184 305.400 C 321.232 307.380,320.174 309.630,319.834 310.400 C 319.494 311.170,319.052 312.070,318.851 312.400 C 318.544 312.904,317.160 315.770,313.555 323.369 C 313.250 324.012,312.820 324.898,312.600 325.337 C 312.380 325.777,311.105 328.342,309.767 331.038 C 305.847 338.934,304.255 339.369,288.000 336.993 C 285.910 336.687,280.960 336.244,277.000 336.007 C 273.040 335.770,268.180 335.319,266.200 335.004 C 264.220 334.689,259.630 334.253,256.000 334.035 C 252.370 333.817,247.240 333.360,244.600 333.020 C 241.960 332.680,238.550 332.294,237.023 332.161 C 231.940 331.719,230.838 328.487,232.939 320.177 C 233.269 318.870,233.738 315.558,233.980 312.818 C 234.223 310.077,234.672 306.747,234.980 305.418 C 235.288 304.088,235.732 300.930,235.968 298.400 C 236.204 295.870,236.661 292.538,236.984 290.995 C 237.307 289.452,237.768 286.032,238.009 283.395 C 238.250 280.758,238.698 277.610,239.005 276.400 C 239.312 275.190,239.762 271.770,240.006 268.800 C 240.794 259.185,242.402 257.400,251.556 255.980 C 253.164 255.730,255.046 255.291,255.740 255.005 C 256.433 254.718,258.273 254.288,259.829 254.049 C 261.384 253.810,263.441 253.338,264.400 253.000 C 265.359 252.662,267.389 252.192,268.911 251.956 C 270.433 251.719,272.246 251.291,272.940 251.003 C 273.633 250.715,275.607 250.267,277.326 250.008 C 279.046 249.749,281.068 249.280,281.821 248.965 C 282.574 248.651,284.586 248.199,286.291 247.962 C 287.996 247.725,290.018 247.269,290.783 246.949 C 291.549 246.629,293.523 246.180,295.171 245.951 C 296.819 245.722,298.635 245.292,299.206 244.997 C 299.778 244.701,301.718 244.258,303.518 244.011 C 305.318 243.765,307.407 243.305,308.161 242.991 C 308.915 242.676,310.852 242.214,312.466 241.966 C 314.080 241.717,315.736 241.335,316.146 241.118 C 316.557 240.900,318.627 240.390,320.746 239.983 C 324.417 239.278,326.524 238.800,332.400 237.340 C 333.830 236.985,335.900 236.525,337.000 236.319 C 338.100 236.112,340.620 235.519,342.600 235.001 C 344.580 234.483,347.100 233.941,348.200 233.798 C 349.300 233.655,350.740 233.292,351.400 232.992 C 353.759 231.918,355.781 232.379,355.920 234.023 M163.817 261.610 C 164.578 262.081,165.858 263.486,166.661 264.733 C 167.464 265.980,168.544 267.640,169.061 268.422 C 169.577 269.203,170.000 270.045,170.000 270.291 C 170.000 270.537,170.405 271.249,170.900 271.872 C 171.929 273.169,172.388 273.883,173.809 276.400 C 174.368 277.390,175.358 279.010,176.009 280.000 C 176.659 280.990,177.555 282.520,178.000 283.400 C 178.445 284.280,179.340 285.810,179.991 286.800 C 181.181 288.612,182.489 290.763,183.601 292.734 C 183.931 293.320,184.570 294.340,185.020 295.000 C 185.471 295.660,186.058 296.650,186.326 297.200 C 186.594 297.750,187.338 299.010,187.979 300.000 C 189.079 301.697,191.219 305.227,192.223 307.000 C 192.473 307.440,193.239 308.700,193.926 309.800 C 194.613 310.900,195.546 312.430,196.001 313.200 C 196.455 313.970,197.355 315.410,198.000 316.400 C 198.645 317.390,199.538 318.830,199.984 319.600 C 200.430 320.370,201.243 321.720,201.789 322.600 C 202.335 323.480,203.242 325.010,203.804 326.000 C 204.366 326.990,205.357 328.610,206.007 329.600 C 206.656 330.590,207.408 331.850,207.678 332.400 C 207.948 332.950,208.581 333.909,209.084 334.531 C 209.588 335.153,210.000 335.904,210.000 336.200 C 210.000 336.496,210.412 337.247,210.916 337.869 C 211.419 338.491,212.052 339.450,212.322 340.000 C 212.592 340.550,213.348 341.810,214.002 342.800 C 214.656 343.790,215.539 345.345,215.963 346.256 C 216.387 347.167,216.931 348.034,217.173 348.183 C 217.414 348.333,217.880 349.027,218.207 349.727 C 218.535 350.427,219.339 351.810,219.994 352.800 C 220.650 353.790,221.497 355.230,221.877 356.000 C 222.257 356.770,222.822 357.708,223.133 358.085 C 223.862 358.971,223.485 359.911,222.206 360.398 C 221.124 360.809,207.470 359.581,204.800 358.832 C 204.030 358.616,201.150 358.243,198.400 358.002 C 195.650 357.762,192.101 357.303,190.513 356.982 C 188.926 356.661,185.326 356.210,182.513 355.979 C 179.701 355.748,176.860 355.398,176.200 355.202 C 174.711 354.760,170.030 354.132,165.800 353.806 C 164.040 353.670,161.508 353.309,160.174 353.003 C 158.839 352.696,155.540 352.254,152.842 352.020 C 150.144 351.785,146.645 351.327,145.066 351.001 C 143.488 350.675,139.990 350.228,137.292 350.008 C 134.595 349.787,131.176 349.341,129.694 349.015 C 128.212 348.690,124.840 348.235,122.200 348.004 C 111.504 347.071,106.036 345.268,105.982 342.659 C 105.973 342.186,105.694 341.080,105.363 340.200 C 105.033 339.320,104.432 336.890,104.029 334.800 C 103.302 331.032,102.580 327.811,101.341 322.800 C 100.987 321.370,100.378 318.466,99.988 316.346 C 99.597 314.227,99.095 312.152,98.873 311.736 C 98.650 311.319,98.280 309.633,98.051 307.989 C 97.823 306.345,97.373 304.257,97.052 303.348 C 96.732 302.439,96.256 300.279,95.995 298.548 C 95.734 296.817,95.278 294.816,94.982 294.103 C 94.686 293.390,94.261 291.494,94.038 289.891 C 93.815 288.287,93.364 286.333,93.036 285.549 C 92.708 284.764,92.255 282.643,92.028 280.836 C 91.802 279.028,91.529 277.409,91.423 277.237 C 90.141 275.162,93.313 272.489,97.645 271.995 C 99.448 271.789,101.840 271.358,102.962 271.036 C 104.083 270.714,106.530 270.246,108.400 269.994 C 110.270 269.743,113.240 269.193,115.000 268.771 C 116.760 268.350,118.841 268.004,119.625 268.003 C 120.408 268.001,122.389 267.649,124.027 267.220 C 125.665 266.791,128.692 266.235,130.754 265.984 C 132.815 265.734,135.182 265.289,136.012 264.996 C 136.842 264.703,139.269 264.254,141.404 264.000 C 143.538 263.745,146.121 263.282,147.143 262.970 C 148.164 262.659,150.535 262.215,152.411 261.984 C 154.287 261.752,156.717 261.309,157.811 260.999 C 160.247 260.309,162.000 260.487,163.817 261.610 " stroke="none" fill="#fbfbfb" fill-rule="evenodd"></path></g></svg>
