<svg id="svg" version="1.1" xmlns="http://www.w3.org/2000/svg" xmlns:xlink="http://www.w3.org/1999/xlink" width="400" height="411.1111111111111" viewBox="0, 0, 400,411.1111111111111"><g id="svgg"><path id="path0" d="M107.400 42.056 C 89.603 42.459,90.157 42.358,89.813 45.277 C 89.187 50.569,89.774 141.146,90.438 141.810 C 91.062 142.434,94.515 140.900,96.800 138.983 C 97.130 138.706,98.570 137.994,100.000 137.400 C 103.462 135.963,106.645 134.390,108.600 133.150 C 110.204 132.133,114.535 130.000,114.996 130.000 C 115.132 130.000,117.078 128.951,119.321 127.669 C 121.564 126.387,124.030 125.096,124.800 124.801 C 127.112 123.913,131.694 121.568,133.400 120.398 C 134.280 119.795,136.260 118.763,137.800 118.105 C 139.340 117.446,141.950 116.155,143.600 115.236 C 145.250 114.316,147.590 113.115,148.800 112.566 C 152.413 110.927,156.520 108.745,157.800 107.785 C 158.460 107.290,160.215 106.404,161.701 105.815 C 163.186 105.226,165.976 103.848,167.901 102.752 C 169.825 101.656,171.940 100.546,172.600 100.286 C 176.620 98.703,183.508 94.706,183.877 93.743 C 184.377 92.441,182.870 92.389,152.326 92.657 C 123.992 92.906,121.574 92.875,120.626 92.254 L 119.600 91.582 119.600 80.234 C 119.600 70.255,119.676 68.856,120.233 68.643 C 121.196 68.273,281.726 68.365,282.309 68.736 C 283.231 69.320,276.184 74.032,273.511 74.620 C 272.821 74.771,271.379 75.512,270.307 76.266 C 269.234 77.020,267.961 77.811,267.478 78.025 C 266.995 78.239,265.790 78.914,264.800 79.525 C 263.810 80.136,262.152 80.954,261.116 81.345 C 260.080 81.735,258.640 82.455,257.916 82.946 C 256.725 83.754,251.721 86.409,249.200 87.571 C 248.111 88.073,247.520 88.423,244.800 90.178 C 243.810 90.816,240.967 92.295,238.482 93.463 C 235.997 94.631,233.386 96.028,232.678 96.567 C 231.971 97.107,230.044 98.201,228.396 99.000 C 224.233 101.018,220.317 103.160,219.580 103.822 C 219.239 104.128,218.159 104.661,217.180 105.006 C 215.695 105.528,212.865 107.064,206.667 110.710 C 206.190 110.991,204.810 111.679,203.600 112.239 C 202.390 112.799,200.860 113.561,200.200 113.932 C 199.540 114.302,197.992 115.176,196.759 115.873 C 195.527 116.570,193.367 117.621,191.959 118.208 C 190.552 118.796,189.040 119.606,188.600 120.008 C 187.461 121.049,183.020 123.502,180.200 124.648 C 178.880 125.184,176.900 126.208,175.800 126.923 C 174.700 127.639,173.350 128.442,172.800 128.709 C 172.250 128.976,171.530 129.369,171.200 129.582 C 170.870 129.795,169.530 130.456,168.223 131.050 C 166.916 131.645,165.116 132.614,164.223 133.204 C 162.195 134.545,160.181 135.607,156.600 137.226 C 155.060 137.922,152.979 139.076,151.975 139.791 C 150.972 140.505,148.632 141.815,146.775 142.700 C 144.919 143.586,141.666 145.296,139.546 146.500 C 137.427 147.704,135.131 148.885,134.445 149.125 C 133.758 149.364,132.252 150.156,131.098 150.885 C 126.462 153.812,124.230 155.056,123.103 155.338 C 121.913 155.637,115.922 158.945,114.131 160.293 C 113.434 160.818,112.174 161.437,111.331 161.669 C 110.489 161.901,109.350 162.409,108.800 162.798 C 106.873 164.162,100.187 167.873,98.802 168.348 C 97.432 168.817,93.374 171.115,90.200 173.218 C 89.320 173.802,88.135 174.392,87.567 174.530 C 86.686 174.745,85.127 175.548,82.400 177.194 C 79.504 178.942,75.962 180.800,75.524 180.800 C 74.781 180.800,72.037 182.305,70.631 183.484 C 69.989 184.023,67.206 185.548,64.448 186.873 C 61.689 188.198,58.525 189.851,57.416 190.545 C 56.307 191.239,54.500 192.222,53.400 192.728 C 52.300 193.235,51.130 193.822,50.800 194.033 C 50.470 194.244,49.632 194.678,48.937 194.998 C 45.935 196.381,45.995 196.029,46.040 211.954 C 46.091 230.189,45.970 229.861,51.337 226.374 C 52.673 225.506,54.736 224.432,55.921 223.989 C 57.106 223.546,58.644 222.757,59.338 222.236 C 60.032 221.716,61.320 220.938,62.200 220.508 C 63.080 220.077,64.340 219.426,65.000 219.060 C 65.660 218.693,67.190 217.952,68.400 217.412 C 69.610 216.872,72.040 215.525,73.800 214.419 C 75.560 213.313,77.974 212.038,79.164 211.586 C 80.354 211.133,81.847 210.394,82.482 209.942 C 83.117 209.490,85.833 208.000,88.518 206.631 C 91.203 205.262,94.182 203.647,95.138 203.042 C 96.094 202.437,98.704 201.047,100.938 199.953 C 106.266 197.345,107.013 196.941,109.498 195.324 C 110.652 194.574,112.178 193.757,112.890 193.509 C 113.601 193.261,115.703 192.180,117.562 191.107 C 119.420 190.033,123.304 187.997,126.192 186.582 C 129.080 185.167,132.411 183.287,133.594 182.404 C 134.777 181.522,136.107 180.800,136.549 180.800 C 136.991 180.800,138.565 180.080,140.047 179.200 C 141.528 178.320,142.870 177.600,143.029 177.600 C 143.187 177.600,144.236 176.991,145.359 176.246 C 146.481 175.501,148.070 174.707,148.889 174.481 C 149.707 174.256,150.877 173.717,151.489 173.284 C 153.780 171.661,159.442 168.505,160.536 168.241 C 161.161 168.090,162.801 167.254,164.180 166.383 C 165.558 165.512,166.810 164.800,166.960 164.800 C 167.111 164.800,168.342 164.080,169.697 163.200 C 171.051 162.320,172.498 161.600,172.912 161.600 C 173.326 161.600,174.595 160.991,175.732 160.246 C 178.856 158.201,183.174 155.856,185.284 155.058 C 186.320 154.667,187.760 153.950,188.484 153.466 C 190.469 152.138,195.505 149.200,195.795 149.200 C 196.280 149.200,200.572 147.059,201.918 146.145 C 202.663 145.640,205.348 144.210,207.885 142.967 C 210.422 141.724,213.241 140.208,214.149 139.598 C 215.057 138.988,217.870 137.490,220.400 136.269 C 222.930 135.048,225.984 133.408,227.186 132.625 C 228.389 131.841,230.189 130.900,231.186 130.532 C 232.184 130.165,233.270 129.651,233.600 129.390 C 234.643 128.565,242.156 124.490,243.200 124.183 C 243.750 124.021,245.785 122.968,247.721 121.844 C 249.658 120.720,252.088 119.309,253.121 118.709 C 254.155 118.109,255.291 117.614,255.646 117.609 C 256.001 117.604,256.729 117.256,257.264 116.836 C 257.798 116.416,259.307 115.503,260.618 114.807 C 261.928 114.112,263.450 113.293,264.000 112.989 C 264.550 112.684,265.990 111.983,267.200 111.433 C 268.410 110.882,270.840 109.528,272.600 108.426 C 274.360 107.323,276.952 105.956,278.361 105.387 C 279.769 104.819,281.659 103.854,282.561 103.241 C 283.462 102.629,286.270 101.095,288.800 99.831 C 291.330 98.568,294.840 96.656,296.600 95.582 C 298.360 94.508,300.021 93.622,300.290 93.614 C 300.861 93.598,307.698 90.071,307.998 89.639 C 308.109 89.478,309.225 88.767,310.478 88.057 C 313.421 86.390,313.268 87.827,313.121 63.314 C 313.009 44.659,312.949 43.177,312.286 42.514 C 311.475 41.703,139.920 41.320,107.400 42.056 M352.800 92.200 C 351.810 92.730,350.370 93.378,349.600 93.640 C 348.830 93.902,346.850 94.978,345.200 96.032 C 343.550 97.086,340.940 98.534,339.400 99.250 C 337.860 99.966,335.306 101.312,333.724 102.242 C 332.143 103.171,328.934 104.856,326.595 105.984 C 324.255 107.113,321.467 108.650,320.399 109.401 C 319.330 110.152,317.409 111.210,316.128 111.752 C 314.848 112.294,312.450 113.497,310.800 114.425 C 307.644 116.200,306.155 116.974,303.200 118.376 C 301.349 119.253,296.159 122.261,295.161 123.035 C 294.852 123.274,293.520 123.898,292.200 124.421 C 290.880 124.944,288.719 126.029,287.397 126.832 C 286.076 127.634,284.096 128.739,282.997 129.287 C 278.792 131.386,277.143 132.264,273.727 134.225 C 271.787 135.339,269.376 136.556,268.369 136.931 C 267.363 137.306,265.439 138.328,264.095 139.201 C 262.751 140.074,259.435 141.936,256.726 143.338 C 254.017 144.740,250.450 146.588,248.799 147.444 C 247.149 148.300,245.217 149.238,244.508 149.530 C 243.798 149.821,242.022 150.861,240.562 151.840 C 239.101 152.820,236.892 154.084,235.653 154.650 C 231.976 156.330,227.843 158.443,227.200 158.971 C 226.184 159.806,222.886 161.600,222.366 161.600 C 222.095 161.600,219.427 163.021,216.437 164.758 C 213.447 166.495,210.585 168.040,210.079 168.192 C 209.572 168.343,208.070 169.082,206.740 169.834 C 205.411 170.585,204.213 171.200,204.079 171.200 C 203.945 171.200,202.837 171.894,201.617 172.741 C 200.398 173.589,198.887 174.407,198.261 174.559 C 197.208 174.814,192.561 177.301,189.163 179.428 C 188.373 179.923,187.081 180.506,186.291 180.724 C 185.502 180.942,183.898 181.744,182.728 182.507 C 179.319 184.727,175.945 186.580,173.916 187.344 C 172.880 187.734,171.409 188.477,170.648 188.993 C 169.887 189.510,167.585 190.787,165.532 191.832 C 163.479 192.876,161.530 193.871,161.200 194.042 C 160.870 194.213,159.070 195.249,157.200 196.344 C 155.330 197.439,152.370 198.985,150.622 199.780 C 148.875 200.575,146.491 201.859,145.324 202.633 C 144.158 203.407,141.988 204.606,140.502 205.297 C 139.016 205.988,135.975 207.599,133.745 208.877 C 131.515 210.155,129.568 211.200,129.419 211.200 C 129.152 211.200,126.125 212.644,123.800 213.880 C 123.140 214.231,121.932 215.042,121.114 215.681 C 120.297 216.321,118.587 217.268,117.314 217.786 C 114.487 218.936,108.946 221.842,107.648 222.854 C 107.124 223.263,106.024 223.778,105.203 223.999 C 104.382 224.220,103.100 224.812,102.355 225.314 C 99.677 227.118,94.399 230.015,92.518 230.712 C 89.485 231.837,89.549 231.272,89.684 255.696 C 89.779 272.966,89.899 276.891,90.343 277.165 C 92.402 278.437,311.074 277.898,312.354 276.618 C 313.308 275.663,313.557 179.604,312.608 178.157 C 311.896 177.070,310.660 177.348,307.606 179.283 C 306.620 179.908,305.093 180.614,304.213 180.850 C 303.333 181.087,301.692 181.893,300.565 182.641 C 299.439 183.388,298.397 184.000,298.250 184.000 C 298.103 184.000,297.306 184.448,296.478 184.996 C 295.651 185.543,293.900 186.414,292.587 186.931 C 291.274 187.448,288.054 189.070,285.432 190.535 C 282.809 192.001,280.078 193.362,279.363 193.559 C 278.648 193.757,277.284 194.441,276.332 195.080 C 274.662 196.201,270.544 198.314,266.800 199.971 C 265.810 200.409,263.740 201.484,262.200 202.360 C 257.384 205.099,255.642 206.000,255.165 206.000 C 254.911 206.000,253.119 206.914,251.183 208.032 C 249.246 209.149,245.983 210.785,243.931 211.667 C 241.879 212.549,239.660 213.674,239.000 214.167 C 237.316 215.425,232.803 217.806,230.953 218.412 C 230.099 218.691,227.600 219.937,225.400 221.179 C 223.200 222.422,220.185 223.965,218.700 224.608 C 212.678 227.217,213.731 227.302,250.113 227.141 C 278.148 227.017,282.073 227.073,282.407 227.600 C 282.997 228.530,282.916 249.724,282.320 250.320 C 281.648 250.992,121.560 251.021,120.305 250.349 C 119.428 249.880,119.964 249.480,123.958 247.622 C 124.484 247.377,125.564 246.663,126.358 246.036 C 127.521 245.116,135.996 240.800,136.639 240.800 C 136.732 240.800,137.661 240.213,138.704 239.497 C 140.679 238.138,144.020 236.400,144.655 236.400 C 144.857 236.400,145.459 236.085,145.993 235.700 C 147.387 234.696,151.892 232.138,154.000 231.155 C 157.894 229.338,161.561 227.349,163.716 225.884 C 164.550 225.318,166.080 224.532,167.116 224.139 C 168.152 223.747,169.720 222.952,170.600 222.374 C 172.408 221.187,176.719 218.907,180.000 217.403 C 181.210 216.848,183.920 215.345,186.022 214.063 C 188.125 212.781,190.403 211.538,191.085 211.300 C 191.767 211.062,194.007 209.899,196.063 208.714 C 198.118 207.530,201.016 205.994,202.502 205.301 C 203.988 204.607,206.148 203.426,207.302 202.674 C 208.456 201.923,211.740 200.168,214.600 198.775 C 217.460 197.381,220.430 195.744,221.200 195.137 C 221.970 194.529,223.402 193.749,224.383 193.404 C 225.364 193.059,226.984 192.260,227.983 191.628 C 230.432 190.079,236.717 186.808,237.317 186.769 C 237.583 186.751,238.610 186.215,239.600 185.577 C 240.590 184.938,241.795 184.241,242.278 184.026 C 242.761 183.812,244.064 182.998,245.174 182.218 C 246.284 181.438,247.509 180.800,247.896 180.799 C 248.283 180.798,249.590 180.204,250.800 179.479 C 254.492 177.265,259.896 174.400,260.381 174.400 C 260.632 174.400,261.865 173.733,263.119 172.917 C 264.374 172.101,266.210 171.002,267.200 170.475 C 268.190 169.947,269.360 169.294,269.800 169.024 C 270.240 168.754,271.175 168.336,271.877 168.095 C 272.579 167.854,275.313 166.385,277.951 164.829 C 280.590 163.273,282.895 162.000,283.074 161.999 C 283.587 161.998,288.072 159.573,289.400 158.579 C 290.456 157.788,298.933 153.600,299.477 153.600 C 299.591 153.600,300.341 153.093,301.142 152.474 C 302.876 151.134,305.849 149.411,307.085 149.029 C 307.572 148.879,309.282 148.018,310.885 147.117 C 317.265 143.530,318.619 142.818,319.072 142.809 C 319.332 142.804,320.142 142.424,320.872 141.965 C 326.367 138.510,328.736 137.152,329.972 136.750 C 330.758 136.494,332.631 135.591,334.136 134.743 C 335.641 133.894,336.930 133.200,337.001 133.200 C 337.072 133.200,338.075 132.578,339.229 131.818 C 340.383 131.057,341.857 130.319,342.504 130.177 C 343.151 130.035,344.682 129.217,345.907 128.359 C 347.131 127.502,348.300 126.800,348.505 126.800 C 348.709 126.800,349.365 126.452,349.961 126.028 C 350.558 125.603,351.846 124.950,352.823 124.577 C 356.169 123.299,356.000 124.206,356.000 107.529 C 356.000 90.056,356.081 90.443,352.800 92.200 M127.064 315.056 C 115.600 317.128,109.608 330.299,112.738 346.548 C 115.205 359.354,129.782 366.238,142.105 360.415 C 147.884 357.685,148.400 356.606,148.400 347.263 C 148.400 337.658,149.122 338.400,139.777 338.400 C 130.953 338.400,129.467 339.120,131.260 342.526 C 131.977 343.888,132.338 343.987,136.620 343.994 C 141.660 344.002,141.600 343.942,141.600 348.906 C 141.600 353.982,140.641 355.373,136.400 356.451 L 135.400 356.705 136.450 356.753 C 140.207 356.922,142.000 354.369,142.000 348.849 C 142.000 343.276,141.924 343.200,136.360 343.200 C 132.097 343.200,131.445 342.885,131.671 340.933 C 131.879 339.135,133.093 338.813,139.674 338.806 C 142.905 338.803,146.010 338.976,146.574 339.190 L 147.600 339.580 147.600 347.576 L 147.600 355.572 146.406 356.933 C 142.696 361.158,128.878 363.541,124.771 360.665 C 124.249 360.299,123.571 360.000,123.265 360.000 C 122.265 360.000,118.780 357.139,117.150 354.980 C 110.436 346.088,111.558 325.848,119.135 319.167 C 122.629 316.086,126.642 314.981,133.000 315.348 C 135.861 315.514,136.189 315.483,134.600 315.200 C 130.695 314.506,130.166 314.496,127.064 315.056 M275.107 314.626 C 275.004 314.729,273.858 314.954,272.560 315.126 C 270.672 315.376,271.281 315.437,275.600 315.433 C 282.218 315.425,284.856 316.398,288.233 320.093 C 290.880 322.990,292.441 327.592,290.967 328.157 C 288.899 328.951,286.000 328.113,286.000 326.721 C 286.000 322.609,279.755 319.133,273.918 319.995 C 272.569 320.194,273.070 320.289,276.252 320.437 C 281.759 320.692,284.470 322.566,285.390 326.754 C 285.735 328.323,286.609 328.800,289.145 328.800 C 297.006 328.800,288.970 316.604,280.194 315.214 C 278.657 314.970,276.926 314.696,276.347 314.605 C 275.768 314.514,275.210 314.523,275.107 314.626 M158.900 315.612 L 158.000 315.974 158.000 338.560 C 158.000 361.068,158.003 361.147,158.830 361.410 C 159.287 361.554,159.767 361.567,159.897 361.437 C 160.027 361.306,159.833 361.200,159.467 361.200 C 158.852 361.200,158.800 359.430,158.800 338.647 L 158.800 316.093 159.700 315.852 C 163.111 314.938,166.145 315.801,166.813 317.875 C 167.083 318.714,167.437 319.580,167.600 319.800 C 167.763 320.020,168.123 320.920,168.400 321.800 C 168.677 322.680,169.029 323.580,169.180 323.800 C 169.332 324.020,171.866 330.264,174.812 337.675 C 181.801 355.261,180.822 354.967,186.377 341.152 C 195.336 318.875,196.444 316.220,196.911 315.923 C 197.631 315.465,202.328 315.533,203.226 316.014 C 204.188 316.529,204.468 360.463,203.514 361.053 C 203.246 361.219,202.391 361.493,201.614 361.664 C 200.275 361.957,200.291 361.966,201.916 361.823 C 205.010 361.551,204.800 363.245,204.800 338.600 C 204.800 313.276,205.189 315.516,200.744 315.265 C 195.982 314.996,196.479 314.330,190.846 328.520 C 184.624 344.192,182.362 349.708,181.981 350.140 C 181.412 350.783,180.198 350.006,179.739 348.705 C 178.954 346.474,177.961 343.852,177.428 342.600 C 176.304 339.959,173.022 331.843,171.200 327.200 C 170.270 324.831,169.086 321.872,168.078 319.400 C 167.630 318.300,167.163 317.082,167.042 316.694 C 166.615 315.332,161.341 314.631,158.900 315.612 M216.097 315.614 L 215.193 315.977 215.297 338.688 L 215.400 361.400 216.400 361.496 C 217.385 361.591,217.387 361.586,216.500 361.209 L 215.600 360.826 215.600 338.627 C 215.600 313.581,215.325 315.600,218.741 315.600 C 221.226 315.600,221.487 315.825,224.708 320.757 C 226.375 323.311,229.586 328.214,231.844 331.653 C 234.102 335.092,237.679 340.558,239.793 343.799 C 245.400 352.397,245.200 352.820,245.200 332.352 C 245.200 314.572,245.028 315.600,248.000 315.600 C 251.019 315.600,250.800 313.799,250.800 338.594 C 250.800 359.272,250.753 360.789,250.100 361.195 C 249.460 361.592,249.469 361.619,250.200 361.509 C 250.988 361.391,251.002 361.042,251.104 338.795 C 251.222 313.263,251.480 315.200,247.968 315.200 C 244.221 315.200,244.409 314.320,244.298 332.367 C 244.196 348.774,244.111 349.490,242.558 347.097 C 237.389 339.130,234.440 334.607,225.909 321.558 C 223.245 317.484,221.804 315.640,221.145 315.464 C 219.810 315.106,217.164 315.185,216.097 315.614 M139.000 316.795 C 143.520 319.024,148.353 325.810,146.992 328.014 C 146.178 329.331,141.832 328.180,141.420 326.539 C 140.452 322.680,136.837 320.273,131.831 320.153 L 128.200 320.067 131.826 320.363 C 136.642 320.757,138.583 321.992,140.414 325.829 C 142.016 329.186,144.923 330.336,147.167 328.500 L 148.023 327.800 147.111 325.124 C 145.655 320.848,140.186 315.580,137.229 315.605 C 136.883 315.608,137.680 316.143,139.000 316.795 M268.155 316.005 C 267.933 316.227,266.960 316.812,265.993 317.305 C 258.733 321.004,258.145 332.426,265.000 336.628 C 268.551 338.805,269.541 339.331,271.000 339.815 C 283.583 343.991,285.400 345.275,285.400 349.990 C 285.400 353.149,284.704 354.273,281.819 355.771 C 280.548 356.432,280.132 356.800,280.659 356.800 C 281.111 356.800,282.220 356.264,283.126 355.608 C 287.839 352.193,287.240 346.239,281.909 343.527 C 279.935 342.522,278.749 342.049,272.906 339.936 C 258.724 334.806,255.957 322.804,267.602 316.928 C 269.110 316.167,269.856 315.614,269.380 315.609 C 268.929 315.604,268.378 315.782,268.155 316.005 M124.560 321.576 C 121.709 323.725,121.313 324.183,120.234 326.590 C 116.540 334.826,117.958 349.065,122.932 353.680 C 125.640 356.193,127.258 356.837,131.277 357.002 L 135.000 357.155 131.319 356.795 C 123.892 356.066,120.197 351.846,119.179 342.928 C 117.852 331.307,121.292 321.811,127.235 320.691 C 128.191 320.511,128.190 320.508,127.160 320.454 C 126.563 320.423,125.456 320.900,124.560 321.576 M268.636 322.009 C 262.842 327.350,266.365 332.692,278.000 336.206 C 290.900 340.103,295.610 348.959,289.045 356.971 C 281.570 366.094,259.200 361.039,259.200 350.227 C 259.200 347.459,264.100 348.126,265.187 351.044 C 266.262 353.927,269.809 356.868,272.071 356.753 C 272.984 356.706,272.983 356.701,272.000 356.451 C 268.977 355.683,265.600 352.527,265.600 350.471 C 265.600 349.078,264.102 348.200,261.726 348.200 C 259.024 348.200,258.372 348.859,258.793 351.163 C 261.097 363.761,285.315 366.478,291.217 354.800 C 295.347 346.627,290.409 339.808,277.200 335.443 C 272.095 333.757,270.495 332.984,268.674 331.324 C 265.422 328.361,266.656 322.860,271.000 320.957 C 272.064 320.491,272.097 320.430,271.291 320.416 C 270.770 320.407,269.637 321.087,268.636 322.009 M196.693 328.852 C 196.117 330.033,193.379 336.670,190.609 343.600 C 187.838 350.530,185.335 356.740,185.046 357.400 C 184.757 358.060,184.295 359.175,184.020 359.878 C 183.746 360.581,183.224 361.235,182.860 361.332 C 182.261 361.491,182.260 361.511,182.851 361.554 C 183.848 361.625,184.145 361.080,186.981 353.994 C 188.432 350.367,189.784 347.040,189.984 346.600 C 190.933 344.516,192.113 341.703,192.416 340.800 C 193.957 336.215,197.514 328.581,197.920 328.987 C 198.064 329.131,198.186 336.483,198.191 345.324 L 198.200 361.400 199.200 361.496 L 200.200 361.592 199.250 361.190 L 198.299 360.788 198.583 344.494 C 198.905 325.998,198.742 324.650,196.693 328.852 M163.872 328.048 C 163.750 328.514,163.757 335.976,163.888 344.631 C 164.077 357.110,164.021 360.493,163.614 360.983 C 163.333 361.322,163.282 361.600,163.502 361.600 C 164.844 361.600,164.931 360.533,164.669 347.282 C 164.526 340.087,164.291 332.940,164.145 331.400 L 163.880 328.600 165.012 329.717 C 165.771 330.466,167.163 333.366,169.236 338.517 C 179.146 363.137,178.588 362.045,181.200 361.953 C 182.028 361.924,181.970 361.864,180.863 361.602 C 178.939 361.147,179.303 361.867,172.616 345.265 C 165.539 327.695,164.499 325.648,163.872 328.048 M221.200 344.232 C 221.200 356.771,221.083 360.825,220.714 361.053 C 220.446 361.219,219.591 361.493,218.814 361.664 C 217.475 361.957,217.491 361.966,219.116 361.823 C 222.166 361.555,222.000 362.510,222.000 345.175 C 222.000 328.924,222.095 328.059,223.670 330.042 C 224.443 331.017,228.695 337.375,232.202 342.800 C 243.203 359.817,244.480 361.607,245.600 361.566 C 246.046 361.549,246.019 361.472,245.496 361.265 C 245.109 361.112,242.199 357.030,239.029 352.193 C 222.875 327.548,223.261 328.105,222.211 327.904 L 221.200 327.711 221.200 344.232 M274.700 357.093 C 275.635 357.177,277.165 357.177,278.100 357.093 C 279.035 357.009,278.270 356.940,276.400 356.940 C 274.530 356.940,273.765 357.009,274.700 357.093 M160.900 361.876 C 161.285 361.976,161.915 361.976,162.300 361.876 C 162.685 361.775,162.370 361.693,161.600 361.693 C 160.830 361.693,160.515 361.775,160.900 361.876 M247.105 361.883 C 247.602 361.979,248.322 361.975,248.705 361.875 C 249.087 361.775,248.680 361.696,247.800 361.701 C 246.920 361.705,246.607 361.787,247.105 361.883 " stroke="none" fill="#11ace2" fill-rule="evenodd"></path><path id="path1" d="M0.000 205.400 L 0.000 410.800 200.000 410.800 L 400.000 410.800 400.000 205.400 L 400.000 0.000 200.000 0.000 L 0.000 0.000 0.000 205.400 M312.286 42.514 C 312.949 43.177,313.009 44.659,313.121 63.314 C 313.268 87.827,313.421 86.390,310.478 88.057 C 309.225 88.767,308.109 89.478,307.998 89.639 C 307.698 90.071,300.861 93.598,300.290 93.614 C 300.021 93.622,298.360 94.508,296.600 95.582 C 294.840 96.656,291.330 98.568,288.800 99.831 C 286.270 101.095,283.462 102.629,282.561 103.241 C 281.659 103.854,279.769 104.819,278.361 105.387 C 276.952 105.956,274.360 107.323,272.600 108.426 C 270.840 109.528,268.410 110.882,267.200 111.433 C 265.990 111.983,264.550 112.684,264.000 112.989 C 263.450 113.293,261.928 114.112,260.618 114.807 C 259.307 115.503,257.798 116.416,257.264 116.836 C 256.729 117.256,256.001 117.604,255.646 117.609 C 255.291 117.614,254.155 118.109,253.121 118.709 C 252.088 119.309,249.658 120.720,247.721 121.844 C 245.785 122.968,243.750 124.021,243.200 124.183 C 242.156 124.490,234.643 128.565,233.600 129.390 C 233.270 129.651,232.184 130.165,231.186 130.532 C 230.189 130.900,228.389 131.841,227.186 132.625 C 225.984 133.408,222.930 135.048,220.400 136.269 C 217.870 137.490,215.057 138.988,214.149 139.598 C 213.241 140.208,210.422 141.724,207.885 142.967 C 205.348 144.210,202.663 145.640,201.918 146.145 C 200.572 147.059,196.280 149.200,195.795 149.200 C 195.505 149.200,190.469 152.138,188.484 153.466 C 187.760 153.950,186.320 154.667,185.284 155.058 C 183.174 155.856,178.856 158.201,175.732 160.246 C 174.595 160.991,173.326 161.600,172.912 161.600 C 172.498 161.600,171.051 162.320,169.697 163.200 C 168.342 164.080,167.111 164.800,166.960 164.800 C 166.810 164.800,165.558 165.512,164.180 166.383 C 162.801 167.254,161.161 168.090,160.536 168.241 C 159.442 168.505,153.780 171.661,151.489 173.284 C 150.877 173.717,149.707 174.256,148.889 174.481 C 148.070 174.707,146.481 175.501,145.359 176.246 C 144.236 176.991,143.187 177.600,143.029 177.600 C 142.870 177.600,141.528 178.320,140.047 179.200 C 138.565 180.080,136.991 180.800,136.549 180.800 C 136.107 180.800,134.777 181.522,133.594 182.404 C 132.411 183.287,129.080 185.167,126.192 186.582 C 123.304 187.997,119.420 190.033,117.562 191.107 C 115.703 192.180,113.601 193.261,112.890 193.509 C 112.178 193.757,110.652 194.574,109.498 195.324 C 107.013 196.941,106.266 197.345,100.938 199.953 C 98.704 201.047,96.094 202.437,95.138 203.042 C 94.182 203.647,91.203 205.262,88.518 206.631 C 85.833 208.000,83.117 209.490,82.482 209.942 C 81.847 210.394,80.354 211.133,79.164 211.586 C 77.974 212.038,75.560 213.313,73.800 214.419 C 72.040 215.525,69.610 216.872,68.400 217.412 C 67.190 217.952,65.660 218.693,65.000 219.060 C 64.340 219.426,63.080 220.077,62.200 220.508 C 61.320 220.938,60.032 221.716,59.338 222.236 C 58.644 222.757,57.106 223.546,55.921 223.989 C 54.736 224.432,52.673 225.506,51.337 226.374 C 45.970 229.861,46.091 230.189,46.040 211.954 C 45.995 196.029,45.935 196.381,48.937 194.998 C 49.632 194.678,50.470 194.244,50.800 194.033 C 51.130 193.822,52.300 193.235,53.400 192.728 C 54.500 192.222,56.307 191.239,57.416 190.545 C 58.525 189.851,61.689 188.198,64.448 186.873 C 67.206 185.548,69.989 184.023,70.631 183.484 C 72.037 182.305,74.781 180.800,75.524 180.800 C 75.962 180.800,79.504 178.942,82.400 177.194 C 85.127 175.548,86.686 174.745,87.567 174.530 C 88.135 174.392,89.320 173.802,90.200 173.218 C 93.374 171.115,97.432 168.817,98.802 168.348 C 100.187 167.873,106.873 164.162,108.800 162.798 C 109.350 162.409,110.489 161.901,111.331 161.669 C 112.174 161.437,113.434 160.818,114.131 160.293 C 115.922 158.945,121.913 155.637,123.103 155.338 C 124.230 155.056,126.462 153.812,131.098 150.885 C 132.252 150.156,133.758 149.364,134.445 149.125 C 135.131 148.885,137.427 147.704,139.546 146.500 C 141.666 145.296,144.919 143.586,146.775 142.700 C 148.632 141.815,150.972 140.505,151.975 139.791 C 152.979 139.076,155.060 137.922,156.600 137.226 C 160.181 135.607,162.195 134.545,164.223 133.204 C 165.116 132.614,166.916 131.645,168.223 131.050 C 169.530 130.456,170.870 129.795,171.200 129.582 C 171.530 129.369,172.250 128.976,172.800 128.709 C 173.350 128.442,174.700 127.639,175.800 126.923 C 176.900 126.208,178.880 125.184,180.200 124.648 C 183.020 123.502,187.461 121.049,188.600 120.008 C 189.040 119.606,190.552 118.796,191.959 118.208 C 193.367 117.621,195.527 116.570,196.759 115.873 C 197.992 115.176,199.540 114.302,200.200 113.932 C 200.860 113.561,202.390 112.799,203.600 112.239 C 204.810 111.679,206.190 110.991,206.667 110.710 C 212.865 107.064,215.695 105.528,217.180 105.006 C 218.159 104.661,219.239 104.128,219.580 103.822 C 220.317 103.160,224.233 101.018,228.396 99.000 C 230.044 98.201,231.971 97.107,232.678 96.567 C 233.386 96.028,235.997 94.631,238.482 93.463 C 240.967 92.295,243.810 90.816,244.800 90.178 C 247.520 88.423,248.111 88.073,249.200 87.571 C 251.721 86.409,256.725 83.754,257.916 82.946 C 258.640 82.455,260.080 81.735,261.116 81.345 C 262.152 80.954,263.810 80.136,264.800 79.525 C 265.790 78.914,266.995 78.239,267.478 78.025 C 267.961 77.811,269.234 77.020,270.307 76.266 C 271.379 75.512,272.821 74.771,273.511 74.620 C 276.184 74.032,283.231 69.320,282.309 68.736 C 281.726 68.365,121.196 68.273,120.233 68.643 C 119.676 68.856,119.600 70.255,119.600 80.234 L 119.600 91.582 120.626 92.254 C 121.574 92.875,123.992 92.906,152.326 92.657 C 182.870 92.389,184.377 92.441,183.877 93.743 C 183.508 94.706,176.620 98.703,172.600 100.286 C 171.940 100.546,169.825 101.656,167.901 102.752 C 165.976 103.848,163.186 105.226,161.701 105.815 C 160.215 106.404,158.460 107.290,157.800 107.785 C 156.520 108.745,152.413 110.927,148.800 112.566 C 147.590 113.115,145.250 114.316,143.600 115.236 C 141.950 116.155,139.340 117.446,137.800 118.105 C 136.260 118.763,134.280 119.795,133.400 120.398 C 131.694 121.568,127.112 123.913,124.800 124.801 C 124.030 125.096,121.564 126.387,119.321 127.669 C 117.078 128.951,115.132 130.000,114.996 130.000 C 114.535 130.000,110.204 132.133,108.600 133.150 C 106.645 134.390,103.462 135.963,100.000 137.400 C 98.570 137.994,97.130 138.706,96.800 138.983 C 96.470 139.260,95.047 140.153,93.638 140.967 C 89.411 143.410,89.818 148.212,89.681 94.286 C 89.553 44.129,89.572 43.365,90.932 42.782 C 94.030 41.454,310.963 41.191,312.286 42.514 M355.586 91.974 C 355.850 92.467,356.000 98.105,356.000 107.529 C 356.000 124.206,356.169 123.299,352.823 124.577 C 351.846 124.950,350.558 125.603,349.961 126.028 C 349.365 126.452,348.709 126.800,348.505 126.800 C 348.300 126.800,347.131 127.502,345.907 128.359 C 344.682 129.217,343.151 130.035,342.504 130.177 C 341.857 130.319,340.383 131.057,339.229 131.818 C 338.075 132.578,337.072 133.200,337.001 133.200 C 336.930 133.200,335.641 133.894,334.136 134.743 C 332.631 135.591,330.758 136.494,329.972 136.750 C 328.736 137.152,326.367 138.510,320.872 141.965 C 320.142 142.424,319.332 142.804,319.072 142.809 C 318.619 142.818,317.265 143.530,310.885 147.117 C 309.282 148.018,307.572 148.879,307.085 149.029 C 305.849 149.411,302.876 151.134,301.142 152.474 C 300.341 153.093,299.591 153.600,299.477 153.600 C 298.933 153.600,290.456 157.788,289.400 158.579 C 288.072 159.573,283.587 161.998,283.074 161.999 C 282.895 162.000,280.590 163.273,277.951 164.829 C 275.313 166.385,272.579 167.854,271.877 168.095 C 271.175 168.336,270.240 168.754,269.800 169.024 C 269.360 169.294,268.190 169.947,267.200 170.475 C 266.210 171.002,264.374 172.101,263.119 172.917 C 261.865 173.733,260.632 174.400,260.381 174.400 C 259.896 174.400,254.492 177.265,250.800 179.479 C 249.590 180.204,248.283 180.798,247.896 180.799 C 247.509 180.800,246.284 181.438,245.174 182.218 C 244.064 182.998,242.761 183.812,242.278 184.026 C 241.795 184.241,240.590 184.938,239.600 185.577 C 238.610 186.215,237.583 186.751,237.317 186.769 C 236.717 186.808,230.432 190.079,227.983 191.628 C 226.984 192.260,225.364 193.059,224.383 193.404 C 223.402 193.749,221.970 194.529,221.200 195.137 C 220.430 195.744,217.460 197.381,214.600 198.775 C 211.740 200.168,208.456 201.923,207.302 202.674 C 206.148 203.426,203.988 204.607,202.502 205.301 C 201.016 205.994,198.118 207.530,196.063 208.714 C 194.007 209.899,191.767 211.062,191.085 211.300 C 190.403 211.538,188.125 212.781,186.022 214.063 C 183.920 215.345,181.210 216.848,180.000 217.403 C 176.719 218.907,172.408 221.187,170.600 222.374 C 169.720 222.952,168.152 223.747,167.116 224.139 C 166.080 224.532,164.550 225.318,163.716 225.884 C 161.561 227.349,157.894 229.338,154.000 231.155 C 151.892 232.138,147.387 234.696,145.993 235.700 C 145.459 236.085,144.857 236.400,144.655 236.400 C 144.020 236.400,140.679 238.138,138.704 239.497 C 137.661 240.213,136.732 240.800,136.639 240.800 C 135.996 240.800,127.521 245.116,126.358 246.036 C 125.564 246.663,124.484 247.377,123.958 247.622 C 119.964 249.480,119.428 249.880,120.305 250.349 C 121.560 251.021,281.648 250.992,282.320 250.320 C 282.916 249.724,282.997 228.530,282.407 227.600 C 282.073 227.073,278.148 227.017,250.113 227.141 C 213.731 227.302,212.678 227.217,218.700 224.608 C 220.185 223.965,223.200 222.422,225.400 221.179 C 227.600 219.937,230.099 218.691,230.953 218.412 C 232.803 217.806,237.316 215.425,239.000 214.167 C 239.660 213.674,241.879 212.549,243.931 211.667 C 245.983 210.785,249.246 209.149,251.183 208.032 C 253.119 206.914,254.911 206.000,255.165 206.000 C 255.642 206.000,257.384 205.099,262.200 202.360 C 263.740 201.484,265.810 200.409,266.800 199.971 C 270.544 198.314,274.662 196.201,276.332 195.080 C 277.284 194.441,278.648 193.757,279.363 193.559 C 280.078 193.362,282.809 192.001,285.432 190.535 C 288.054 189.070,291.274 187.448,292.587 186.931 C 293.900 186.414,295.651 185.543,296.478 184.996 C 297.306 184.448,298.103 184.000,298.250 184.000 C 298.397 184.000,299.439 183.388,300.565 182.641 C 301.692 181.893,303.333 181.087,304.213 180.850 C 305.093 180.614,306.620 179.908,307.606 179.283 C 310.660 177.348,311.896 177.070,312.608 178.157 C 313.557 179.604,313.308 275.663,312.354 276.618 C 311.074 277.898,92.402 278.437,90.343 277.165 C 89.899 276.891,89.779 272.966,89.684 255.696 C 89.549 231.272,89.485 231.837,92.518 230.712 C 94.399 230.015,99.677 227.118,102.355 225.314 C 103.100 224.812,104.382 224.220,105.203 223.999 C 106.024 223.778,107.124 223.263,107.648 222.854 C 108.946 221.842,114.487 218.936,117.314 217.786 C 118.587 217.268,120.297 216.321,121.114 215.681 C 121.932 215.042,123.140 214.231,123.800 213.880 C 126.125 212.644,129.152 211.200,129.419 211.200 C 129.568 211.200,131.515 210.155,133.745 208.877 C 135.975 207.599,139.016 205.988,140.502 205.297 C 141.988 204.606,144.158 203.407,145.324 202.633 C 146.491 201.859,148.875 200.575,150.622 199.780 C 152.370 198.985,155.330 197.439,157.200 196.344 C 159.070 195.249,160.870 194.213,161.200 194.042 C 161.530 193.871,163.479 192.876,165.532 191.832 C 167.585 190.787,169.887 189.510,170.648 188.993 C 171.409 188.477,172.880 187.734,173.916 187.344 C 175.945 186.580,179.319 184.727,182.728 182.507 C 183.898 181.744,185.502 180.942,186.291 180.724 C 187.081 180.506,188.373 179.923,189.163 179.428 C 192.561 177.301,197.208 174.814,198.261 174.559 C 198.887 174.407,200.398 173.589,201.617 172.741 C 202.837 171.894,203.945 171.200,204.079 171.200 C 204.213 171.200,205.411 170.585,206.740 169.834 C 208.070 169.082,209.572 168.343,210.079 168.192 C 210.585 168.040,213.447 166.495,216.437 164.758 C 219.427 163.021,222.095 161.600,222.366 161.600 C 222.886 161.600,226.184 159.806,227.200 158.971 C 227.843 158.443,231.976 156.330,235.653 154.650 C 236.892 154.084,239.101 152.820,240.562 151.840 C 242.022 150.861,243.798 149.821,244.508 149.530 C 245.217 149.238,247.149 148.300,248.799 147.444 C 250.450 146.588,254.017 144.740,256.726 143.338 C 259.435 141.936,262.751 140.074,264.095 139.201 C 265.439 138.328,267.363 137.306,268.369 136.931 C 269.376 136.556,271.787 135.339,273.727 134.225 C 277.143 132.264,278.792 131.386,282.997 129.287 C 284.096 128.739,286.076 127.634,287.397 126.832 C 288.719 126.029,290.880 124.944,292.200 124.421 C 293.520 123.898,294.852 123.274,295.161 123.035 C 296.159 122.261,301.349 119.253,303.200 118.376 C 306.155 116.974,307.644 116.200,310.800 114.425 C 312.450 113.497,314.848 112.294,316.128 111.752 C 317.409 111.210,319.330 110.152,320.399 109.401 C 321.467 108.650,324.255 107.113,326.595 105.984 C 328.934 104.856,332.143 103.171,333.724 102.242 C 335.306 101.312,337.860 99.966,339.400 99.250 C 340.940 98.534,343.550 97.086,345.200 96.032 C 346.850 94.978,348.830 93.902,349.600 93.640 C 350.370 93.378,351.810 92.730,352.800 92.200 C 355.006 91.019,355.072 91.014,355.586 91.974 M134.872 315.193 C 140.737 316.059,145.279 319.743,147.111 325.124 L 148.023 327.800 147.167 328.500 C 144.923 330.336,142.016 329.186,140.414 325.829 C 138.387 321.583,136.618 320.600,131.000 320.600 L 126.600 320.600 124.343 322.315 C 121.094 324.785,119.830 327.584,119.169 333.774 C 117.570 348.733,122.127 356.586,132.400 356.577 C 140.000 356.569,141.600 355.235,141.600 348.906 C 141.600 343.942,141.660 344.002,136.620 343.994 C 132.338 343.987,131.977 343.888,131.260 342.526 C 130.582 341.238,130.698 340.102,131.600 339.200 C 132.900 337.900,146.858 337.977,147.777 339.289 C 148.527 340.360,148.691 353.573,147.977 355.474 C 146.818 358.564,141.493 361.410,135.757 362.004 C 118.372 363.807,109.923 352.564,112.680 331.298 C 113.968 321.363,122.875 313.247,131.000 314.606 C 131.440 314.679,133.182 314.943,134.872 315.193 M280.194 315.214 C 288.970 316.604,297.006 328.800,289.145 328.800 C 286.609 328.800,285.735 328.323,285.390 326.754 C 283.597 318.593,268.178 317.805,266.977 325.813 C 266.277 330.481,268.491 332.566,277.200 335.443 C 290.409 339.808,295.347 346.627,291.217 354.800 C 285.315 366.478,261.097 363.761,258.793 351.163 C 258.372 348.859,259.024 348.200,261.726 348.200 C 264.102 348.200,265.600 349.078,265.600 350.471 C 265.600 355.286,275.984 358.742,281.691 355.827 C 284.697 354.292,285.400 353.186,285.400 349.990 C 285.400 345.275,283.583 343.991,271.000 339.815 C 269.541 339.331,268.551 338.805,265.000 336.628 C 258.175 332.444,258.732 321.007,265.939 317.331 C 266.876 316.853,267.858 316.284,268.121 316.066 C 268.385 315.848,270.028 315.471,271.773 315.229 C 273.518 314.986,275.024 314.709,275.120 314.613 C 275.216 314.517,275.768 314.514,276.347 314.605 C 276.926 314.696,278.657 314.970,280.194 315.214 M165.784 315.594 C 166.354 315.811,166.920 316.306,167.042 316.694 C 167.163 317.082,167.630 318.300,168.078 319.400 C 169.086 321.872,170.270 324.831,171.200 327.200 C 173.022 331.843,176.304 339.959,177.428 342.600 C 177.961 343.852,178.954 346.474,179.739 348.705 C 180.198 350.006,181.412 350.783,181.981 350.140 C 182.362 349.708,184.624 344.192,190.846 328.520 C 196.479 314.330,195.982 314.996,200.744 315.265 C 205.205 315.517,204.822 313.246,204.703 338.746 L 204.600 360.989 203.447 361.542 C 202.593 361.951,201.762 362.005,200.247 361.747 L 198.200 361.400 198.191 345.324 C 198.186 336.483,198.064 329.131,197.920 328.987 C 197.514 328.581,193.957 336.215,192.416 340.800 C 192.113 341.703,190.933 344.516,189.984 346.600 C 189.784 347.040,188.432 350.367,186.981 353.994 C 183.927 361.625,184.035 361.456,181.998 361.800 C 178.621 362.371,179.437 363.859,169.236 338.517 C 167.163 333.366,165.771 330.466,165.012 329.717 L 163.880 328.600 164.145 331.400 C 164.734 337.627,164.948 360.340,164.424 360.971 C 163.696 361.848,161.585 362.134,159.664 361.617 L 158.000 361.169 158.000 338.572 L 158.000 315.974 158.900 315.612 C 160.123 315.121,164.508 315.109,165.784 315.594 M221.145 315.464 C 221.804 315.640,223.245 317.484,225.909 321.558 C 234.440 334.607,237.389 339.130,242.558 347.097 C 244.111 349.490,244.196 348.774,244.298 332.367 C 244.409 314.320,244.221 315.200,247.968 315.200 C 251.480 315.200,251.222 313.263,251.104 338.800 L 251.000 361.400 249.200 361.745 C 244.795 362.591,245.746 363.633,232.990 344.000 C 223.965 330.111,223.027 328.817,222.426 329.415 C 222.155 329.685,221.973 335.275,221.905 345.410 L 221.800 360.989 220.647 361.542 C 219.793 361.951,218.962 362.005,217.447 361.747 L 215.400 361.400 215.297 338.688 L 215.193 315.977 216.097 315.614 C 217.164 315.185,219.810 315.106,221.145 315.464 " stroke="none" fill="#fbfbfb" fill-rule="evenodd"></path><path id="path2" d="M126.293 315.591 C 111.163 318.327,107.234 348.641,120.725 358.545 C 121.815 359.345,122.958 360.000,123.265 360.000 C 123.571 360.000,124.249 360.299,124.771 360.665 C 128.878 363.541,142.696 361.158,146.406 356.933 L 147.600 355.572 147.600 347.576 L 147.600 339.580 146.574 339.190 C 146.010 338.976,142.905 338.803,139.674 338.806 C 133.093 338.813,131.879 339.135,131.671 340.933 C 131.445 342.885,132.097 343.200,136.360 343.200 C 141.924 343.200,142.000 343.276,142.000 348.849 C 142.000 355.695,140.619 356.886,132.600 356.957 C 127.342 357.004,126.038 356.562,122.932 353.680 C 116.443 347.659,116.585 328.104,123.158 322.630 C 125.904 320.343,126.263 320.233,131.000 320.216 C 136.802 320.195,140.372 322.361,141.420 326.539 C 141.766 327.915,142.686 328.400,144.950 328.400 C 147.226 328.400,147.376 328.127,146.587 325.414 C 144.429 317.992,135.885 313.857,126.293 315.591 M271.800 315.589 C 262.273 316.896,257.378 327.328,263.084 334.163 C 264.956 336.405,267.852 338.108,272.906 339.936 C 278.749 342.049,279.935 342.522,281.909 343.527 C 287.401 346.321,287.845 352.253,282.827 355.800 C 281.165 356.975,281.030 357.000,276.265 356.995 C 269.736 356.988,266.819 355.421,265.187 351.044 C 264.100 348.126,259.200 347.459,259.200 350.227 C 259.200 361.039,281.570 366.094,289.045 356.971 C 295.610 348.959,290.900 340.103,278.000 336.206 C 268.381 333.301,265.196 330.346,266.425 325.465 C 268.464 317.370,286.000 318.495,286.000 326.721 C 286.000 328.113,288.899 328.951,290.967 328.157 C 292.441 327.592,290.880 322.990,288.233 320.093 C 284.599 316.117,279.046 314.595,271.800 315.589 M159.500 315.876 C 158.844 316.047,158.800 317.468,158.800 338.583 L 158.800 361.107 159.700 361.348 C 164.247 362.566,164.165 362.895,163.888 344.631 C 163.543 321.808,163.199 321.788,172.570 345.129 C 175.778 353.120,178.582 359.993,178.801 360.402 C 179.779 362.230,183.233 361.891,184.016 359.890 C 184.293 359.181,184.757 358.060,185.046 357.400 C 185.335 356.740,187.838 350.530,190.609 343.600 C 199.326 321.795,198.911 321.743,198.730 344.600 L 198.600 361.000 200.111 361.373 C 201.058 361.607,202.029 361.604,202.711 361.364 L 203.800 360.981 203.904 338.790 C 204.001 318.284,203.957 316.562,203.328 316.100 C 202.583 315.553,197.705 315.418,196.911 315.923 C 196.444 316.220,195.336 318.875,186.377 341.152 C 180.822 354.967,181.801 355.261,174.812 337.675 C 171.866 330.264,169.332 324.020,169.180 323.800 C 169.029 323.580,168.677 322.680,168.400 321.800 C 168.123 320.920,167.763 320.020,167.600 319.800 C 167.437 319.580,167.083 318.714,166.813 317.875 C 166.152 315.824,162.999 314.961,159.500 315.876 M216.272 316.100 C 215.643 316.562,215.599 318.285,215.696 338.800 L 215.800 361.000 217.311 361.373 C 218.258 361.607,219.229 361.604,219.911 361.364 L 221.000 360.981 221.104 344.347 L 221.209 327.713 222.215 327.905 C 223.260 328.105,222.889 327.570,239.029 352.193 C 245.006 361.312,245.204 361.525,247.726 361.572 C 251.060 361.633,250.800 363.579,250.800 338.600 C 250.800 313.798,251.019 315.600,248.000 315.600 C 245.028 315.600,245.200 314.572,245.200 332.352 C 245.200 352.820,245.400 352.397,239.793 343.799 C 237.679 340.558,234.102 335.092,231.844 331.653 C 229.586 328.214,226.375 323.311,224.708 320.757 C 223.040 318.204,221.374 315.999,221.005 315.857 C 219.875 315.424,216.992 315.571,216.272 316.100 " stroke="none" fill="#0e0e0e" fill-rule="evenodd"></path></g></svg>