<svg id="svg" version="1.1" xmlns="http://www.w3.org/2000/svg" xmlns:xlink="http://www.w3.org/1999/xlink" width="400" height="102.38095238095238" viewBox="0, 0, 400,102.38095238095238"><g id="svgg"><path id="path0" d="M22.892 17.279 C 21.455 17.571,21.500 16.795,21.500 41.499 L 21.500 63.271 22.011 63.760 L 22.521 64.250 26.302 64.302 C 30.464 64.358,32.191 64.199,33.616 63.628 C 34.851 63.133,34.853 63.025,33.636 62.333 C 31.568 61.158,31.373 60.848,32.145 59.964 C 32.408 59.663,32.895 58.877,33.226 58.217 C 33.557 57.558,34.230 56.568,34.720 56.019 C 35.211 55.469,35.868 54.641,36.181 54.178 C 36.908 53.103,37.195 53.017,40.702 52.825 C 42.271 52.739,44.151 52.528,45.005 52.341 L 46.522 52.010 47.636 52.446 C 48.271 52.694,49.036 53.153,49.417 53.514 C 49.783 53.863,50.603 54.380,51.238 54.664 C 51.874 54.947,52.890 55.548,53.496 55.997 C 54.206 56.524,55.051 56.962,55.869 57.229 C 57.665 57.815,60.334 59.685,60.797 60.682 C 61.027 61.177,59.178 62.270,57.544 62.605 C 55.209 63.083,55.389 63.189,59.667 63.862 C 61.984 64.226,62.497 64.242,72.204 64.246 L 82.325 64.250 82.788 63.788 L 83.250 63.326 83.353 41.871 C 83.409 30.071,83.462 20.073,83.471 19.653 C 83.493 18.560,83.298 17.989,82.771 17.595 C 82.045 17.053,63.373 17.053,62.831 17.595 C 62.020 18.406,62.004 18.729,62.002 34.217 C 62.000 49.692,62.029 49.137,61.188 49.898 C 60.861 50.194,60.493 50.210,54.546 50.188 C 51.083 50.175,47.837 50.225,47.333 50.298 C 45.698 50.535,43.872 50.174,43.311 49.501 L 42.840 48.938 42.792 34.094 C 42.742 18.541,42.742 18.541,42.011 17.638 L 41.696 17.250 32.473 17.228 C 27.400 17.216,23.089 17.239,22.892 17.279 M86.063 17.506 C 84.928 18.233,85.283 22.111,86.758 25.105 C 87.320 26.245,87.629 27.191,87.991 28.874 C 88.350 30.546,88.667 31.520,89.233 32.685 C 89.796 33.843,90.107 34.792,90.427 36.333 C 90.747 37.871,91.054 38.810,91.599 39.919 C 92.118 40.973,92.459 41.991,92.745 43.335 C 93.228 45.606,93.403 46.146,94.017 47.250 C 94.472 48.067,94.836 49.275,95.415 51.898 C 95.578 52.636,95.995 53.758,96.365 54.456 C 96.862 55.395,97.144 56.260,97.510 57.975 C 98.194 61.175,99.365 63.503,100.614 64.146 C 100.865 64.275,102.919 64.333,107.204 64.333 C 113.792 64.333,114.049 64.309,116.248 63.487 L 117.240 63.115 116.520 62.516 C 116.124 62.186,115.500 61.652,115.134 61.328 L 114.468 60.738 114.644 58.994 C 114.741 58.035,114.917 56.971,115.036 56.630 C 115.209 56.132,115.213 55.530,115.055 53.547 C 114.452 45.989,114.601 45.833,122.435 45.833 C 130.165 45.833,130.460 45.718,131.176 42.413 C 131.410 41.333,131.779 40.284,132.257 39.345 C 132.818 38.241,133.082 37.425,133.422 35.750 C 133.670 34.529,134.049 33.220,134.289 32.750 C 134.524 32.292,134.849 31.652,135.011 31.329 C 135.173 31.005,135.501 29.816,135.739 28.685 C 136.350 25.792,136.671 25.107,137.581 24.760 C 138.471 24.420,138.727 23.933,139.029 22.010 C 139.404 19.624,139.459 20.960,139.480 32.808 C 139.504 46.191,139.222 45.005,142.636 46.084 C 144.242 46.591,144.731 47.108,145.341 48.941 C 146.233 51.619,148.948 54.296,150.807 54.329 C 151.312 54.338,153.672 55.913,153.560 56.166 C 153.499 56.304,153.203 57.372,152.902 58.541 C 152.601 59.709,152.317 60.724,152.272 60.798 C 152.227 60.871,152.002 61.431,151.771 62.043 L 151.353 63.155 152.462 63.701 L 153.571 64.247 157.154 64.310 C 161.969 64.393,162.448 64.160,162.160 61.870 C 162.016 60.720,162.048 60.475,162.600 58.535 C 162.794 57.853,164.463 57.293,166.903 57.091 C 169.759 56.853,170.579 55.529,168.841 53.962 L 168.337 53.508 169.281 53.234 C 170.346 52.924,170.666 53.099,170.668 53.990 C 170.669 54.786,171.036 55.747,171.773 56.886 C 172.712 58.339,173.061 58.352,173.134 56.938 C 173.190 55.853,173.449 55.528,174.974 54.630 C 175.397 54.381,175.935 53.894,176.170 53.550 C 176.977 52.360,177.728 52.262,178.908 53.190 L 179.303 53.500 178.488 54.708 L 177.672 55.917 178.116 56.280 C 178.361 56.480,178.979 56.797,179.490 56.983 C 180.494 57.349,181.395 57.942,181.779 58.490 C 183.041 60.292,184.529 56.622,184.014 52.980 C 183.750 51.121,183.730 51.068,183.115 50.629 L 182.583 50.250 172.583 50.167 C 160.604 50.067,159.910 49.950,160.531 48.141 C 161.244 46.063,161.484 46.000,168.753 46.000 C 175.503 46.000,176.491 45.868,177.528 44.831 L 178.000 44.359 178.000 40.539 C 178.000 35.343,178.808 35.796,169.333 35.673 L 162.417 35.583 161.417 35.161 L 160.417 34.739 160.465 33.995 C 160.639 31.286,160.445 31.333,171.298 31.333 C 180.564 31.333,180.212 31.372,180.955 30.276 C 181.473 29.513,181.612 18.417,181.111 17.863 C 180.466 17.151,180.723 17.159,160.333 17.206 C 138.330 17.255,139.362 17.197,139.311 18.393 L 139.289 18.917 139.186 18.347 C 138.984 17.228,138.679 17.194,128.654 17.180 L 119.890 17.167 119.116 17.680 C 117.455 18.780,117.153 19.401,116.591 22.885 C 116.172 25.482,115.881 26.584,115.327 27.677 C 114.921 28.476,114.565 29.900,114.254 31.970 C 113.927 34.152,113.730 35.067,113.394 35.976 L 113.126 36.701 112.021 36.587 C 110.478 36.427,110.270 36.078,109.751 32.793 C 109.306 29.971,108.991 28.640,108.498 27.500 C 107.843 25.985,107.559 24.909,107.168 22.448 C 106.683 19.394,106.328 18.709,104.676 17.644 L 103.935 17.167 95.259 17.169 C 86.869 17.172,86.566 17.183,86.063 17.506 M183.648 17.500 C 182.343 18.189,182.776 23.399,184.300 25.336 C 184.850 26.036,185.146 26.934,185.660 29.467 C 186.019 31.233,186.327 32.254,186.798 33.236 C 187.430 34.554,187.730 35.594,188.232 38.214 C 188.369 38.927,188.777 40.165,189.140 40.964 C 189.937 42.721,190.071 43.156,190.414 45.083 C 190.755 47.001,190.899 47.460,191.668 49.083 C 192.120 50.036,192.445 51.124,192.808 52.897 C 193.160 54.617,193.491 55.741,193.891 56.563 C 194.615 58.058,194.734 58.447,195.236 60.986 C 195.917 64.428,195.618 64.334,205.827 64.333 C 214.548 64.332,214.508 64.341,214.921 62.333 C 214.987 62.012,215.296 61.132,215.607 60.376 C 215.977 59.480,216.288 58.294,216.503 56.960 C 217.125 53.104,217.350 52.107,217.902 50.763 C 218.206 50.023,218.661 48.629,218.913 47.667 C 220.022 43.424,220.741 43.590,221.412 48.243 C 221.705 50.273,222.080 51.858,222.419 52.496 L 222.643 52.917 223.001 52.113 C 223.198 51.670,223.471 50.733,223.608 50.029 C 224.570 45.060,222.664 45.685,237.039 45.629 L 248.982 45.583 249.571 45.012 C 249.967 44.628,250.247 44.137,250.425 43.512 C 250.571 43.001,250.982 41.983,251.339 41.250 C 251.740 40.426,252.089 39.375,252.251 38.500 C 252.729 35.927,253.012 34.933,253.690 33.456 C 254.161 32.428,254.501 31.302,254.835 29.659 C 255.499 26.393,255.696 25.927,256.522 25.680 C 257.405 25.415,257.757 24.792,258.003 23.063 C 258.415 20.163,258.500 21.829,258.500 32.758 C 258.500 44.971,258.421 44.002,259.550 45.651 C 260.366 46.845,260.488 47.848,260.494 53.448 C 260.498 56.617,260.562 58.518,260.667 58.583 C 260.776 58.651,260.833 57.019,260.833 53.813 C 260.833 46.243,261.089 45.663,264.428 45.669 C 266.253 45.672,267.713 45.997,268.304 46.531 C 269.140 47.286,269.374 47.408,270.965 47.920 C 272.801 48.511,273.040 48.739,272.550 49.436 C 271.596 50.793,271.643 51.312,272.874 52.964 C 273.744 54.132,273.867 54.239,274.944 54.769 C 275.939 55.258,276.254 55.570,276.831 56.638 C 277.292 57.490,277.610 57.633,278.354 57.325 C 279.482 56.857,279.417 58.063,279.417 37.750 L 279.417 19.417 278.957 18.545 C 278.194 17.097,278.700 17.167,268.940 17.167 C 260.989 17.167,260.289 17.190,259.348 17.483 C 258.352 17.793,258.315 17.793,257.318 17.483 C 256.377 17.190,255.675 17.167,247.619 17.167 L 238.934 17.167 238.172 17.978 C 236.618 19.633,236.207 20.816,235.656 25.213 C 235.240 28.542,234.842 30.247,234.230 31.319 C 233.493 32.612,232.256 34.496,232.143 34.498 C 231.931 34.502,231.344 31.860,230.996 29.333 C 230.760 27.625,230.468 26.270,230.133 25.333 C 229.672 24.041,229.297 22.673,228.580 19.667 C 228.190 18.032,227.710 17.407,226.741 17.275 C 224.705 16.996,212.896 17.154,212.616 17.464 C 212.204 17.919,211.738 19.073,211.188 21.001 C 210.913 21.963,210.504 23.350,210.279 24.083 C 210.053 24.817,209.706 26.729,209.506 28.333 C 209.125 31.404,208.568 34.167,208.332 34.167 C 208.166 34.167,206.685 31.615,206.099 30.321 C 205.568 29.149,205.242 27.510,204.834 23.962 C 204.316 19.462,204.019 18.700,202.377 17.659 L 201.601 17.167 192.926 17.174 C 184.718 17.181,184.218 17.199,183.648 17.500 M283.599 17.703 C 283.299 18.004,282.891 18.685,282.693 19.216 L 282.332 20.183 282.374 41.708 L 282.417 63.234 283.139 63.742 L 283.862 64.250 292.473 64.301 C 301.610 64.354,301.912 64.333,302.826 63.564 L 303.333 63.137 303.333 58.356 C 303.333 52.905,303.295 53.069,304.730 52.400 C 306.208 51.712,306.847 52.203,307.695 54.675 C 308.826 57.971,308.978 58.523,309.336 60.618 C 309.911 63.985,310.063 64.118,313.514 64.284 C 315.200 64.365,315.604 64.330,316.705 64.003 C 317.932 63.638,317.988 63.636,318.826 63.914 C 319.895 64.269,320.516 64.274,321.658 63.935 C 322.502 63.684,322.611 63.688,323.627 64.001 C 325.214 64.492,329.748 64.486,331.129 63.992 C 332.003 63.680,332.192 63.668,333.369 63.855 C 334.494 64.033,334.785 64.022,335.699 63.768 C 337.327 63.315,337.331 63.284,335.975 61.998 C 335.021 61.094,334.811 60.808,334.918 60.560 C 334.992 60.389,335.274 59.612,335.545 58.833 C 335.847 57.967,336.306 57.071,336.727 56.526 C 337.107 56.036,337.717 55.023,338.083 54.276 C 339.018 52.369,338.781 52.429,345.417 52.422 C 348.350 52.419,350.968 52.477,351.235 52.551 C 351.796 52.707,354.317 55.161,354.722 55.945 C 355.175 56.822,355.818 57.165,357.026 57.175 C 360.443 57.204,361.387 57.714,361.580 59.634 C 361.762 61.450,361.341 62.042,359.417 62.673 L 358.250 63.055 359.167 63.338 C 359.671 63.494,360.496 63.759,361.000 63.927 C 361.812 64.198,362.667 64.240,368.500 64.295 C 376.568 64.372,377.321 64.320,378.002 63.639 L 378.500 63.141 378.497 58.279 C 378.493 52.672,378.355 51.282,377.742 50.667 L 377.326 50.250 366.621 50.167 C 355.101 50.077,355.713 50.126,354.949 49.225 C 354.617 48.833,354.891 47.216,355.433 46.375 L 355.674 46.000 362.949 46.000 L 370.224 46.000 370.945 45.247 L 371.667 44.494 371.661 40.622 C 371.654 35.151,372.539 35.667,363.157 35.667 L 355.889 35.667 355.259 35.122 L 354.629 34.578 354.821 33.330 C 355.143 31.244,354.246 31.430,364.463 31.333 C 374.082 31.242,374.408 31.209,375.298 30.222 L 375.680 29.799 375.632 24.691 C 375.576 18.783,375.465 18.274,374.083 17.583 C 373.138 17.110,334.709 17.052,334.239 17.523 C 333.336 18.425,333.333 18.499,333.333 39.030 C 333.333 58.314,333.355 59.061,333.957 60.239 C 334.205 60.725,334.201 60.735,333.353 61.543 C 331.966 62.866,331.561 62.441,330.822 58.889 C 330.563 57.646,330.091 55.982,329.773 55.190 C 329.455 54.398,329.034 53.002,328.839 52.088 C 328.410 50.088,328.060 49.253,327.291 48.396 C 326.971 48.041,326.439 47.324,326.108 46.804 C 325.595 45.999,325.290 45.736,324.053 45.039 C 323.255 44.588,322.576 44.146,322.546 44.055 C 322.483 43.864,323.788 43.135,324.736 42.831 C 325.095 42.717,325.695 42.310,326.069 41.927 C 326.444 41.545,327.107 40.988,327.544 40.690 C 328.129 40.290,328.475 39.875,328.858 39.115 C 329.143 38.548,329.588 37.842,329.846 37.546 C 331.147 36.057,331.395 29.217,330.231 26.917 C 328.087 22.676,327.886 22.383,326.500 21.457 C 325.813 20.998,325.025 20.414,324.750 20.159 C 323.909 19.380,323.026 19.038,320.250 18.418 C 318.783 18.090,317.171 17.696,316.667 17.543 C 315.843 17.292,314.148 17.258,299.947 17.210 L 284.145 17.155 283.599 17.703 M307.583 30.585 C 310.130 30.909,311.231 31.644,311.591 33.259 C 312.182 35.917,311.618 37.339,309.579 38.326 C 306.496 39.818,305.517 39.780,304.101 38.109 L 303.417 37.300 303.364 34.677 L 303.311 32.054 303.936 31.505 C 304.735 30.804,305.799 30.316,306.333 30.408 C 306.563 30.447,307.125 30.526,307.583 30.585 M321.073 52.854 C 321.310 53.862,321.643 54.963,321.813 55.301 C 322.085 55.840,322.097 55.992,321.909 56.526 C 321.791 56.861,321.568 57.761,321.412 58.526 C 320.989 60.609,320.658 61.108,319.891 60.823 C 319.528 60.688,319.172 59.571,319.162 58.533 C 319.160 58.286,318.987 57.580,318.777 56.965 C 318.539 56.267,318.449 55.753,318.536 55.596 C 318.613 55.459,318.905 54.462,319.185 53.381 C 320.052 50.038,320.391 49.943,321.073 52.854 M173.833 58.333 C 174.437 58.527,175.167 58.527,175.167 58.333 C 175.167 58.241,174.775 58.174,174.292 58.183 C 173.603 58.196,173.506 58.228,173.833 58.333 M277.188 60.375 C 276.314 63.135,276.733 64.104,278.497 63.399 C 279.012 63.192,279.167 63.040,279.167 62.740 C 279.167 60.748,277.645 58.930,277.188 60.375 M121.417 61.756 C 120.958 61.986,120.301 62.373,119.956 62.616 L 119.330 63.058 119.956 63.291 C 122.424 64.209,122.494 64.226,122.921 63.998 C 123.671 63.596,123.886 63.086,123.567 62.458 C 122.935 61.210,122.672 61.124,121.417 61.756 M144.750 61.840 C 142.651 62.513,142.433 63.085,144.083 63.589 C 146.877 64.443,148.748 63.548,147.267 62.067 C 146.605 61.405,146.215 61.369,144.750 61.840 M174.582 62.669 C 174.259 63.025,174.259 63.033,174.576 63.265 C 175.201 63.723,175.687 63.268,175.207 62.675 L 174.909 62.307 174.582 62.669 M260.359 62.688 C 260.171 62.989,260.177 63.082,260.402 63.307 C 260.800 63.705,261.289 63.206,261.010 62.686 C 260.773 62.242,260.637 62.242,260.359 62.688 M41.125 62.762 C 40.554 63.072,40.555 63.100,41.158 63.412 C 42.268 63.986,49.833 63.699,49.833 63.083 C 49.833 62.471,42.181 62.189,41.125 62.762 M345.699 63.124 C 346.679 63.154,348.329 63.154,349.366 63.125 C 350.402 63.095,349.600 63.071,347.583 63.071 C 345.567 63.071,344.719 63.095,345.699 63.124 M21.900 74.566 C 20.515 75.424,20.426 75.919,20.368 83.111 L 20.318 89.305 20.867 89.709 C 21.932 90.493,22.274 90.545,25.707 90.455 C 29.443 90.356,29.865 90.255,31.135 89.162 C 31.657 88.712,32.331 88.136,32.634 87.881 C 33.874 86.837,34.732 82.891,34.172 80.814 C 33.226 77.311,32.998 76.962,30.933 75.857 C 27.807 74.184,23.509 73.569,21.900 74.566 M55.359 74.587 C 53.723 75.964,52.889 77.637,52.261 80.800 C 51.966 82.288,51.649 83.293,51.103 84.467 C 48.658 89.730,50.537 92.454,54.239 89.011 C 55.714 87.638,55.760 87.621,57.167 87.917 C 57.820 88.054,58.380 88.167,58.410 88.167 C 58.440 88.167,58.712 88.551,59.014 89.021 C 59.771 90.201,60.316 90.499,61.719 90.499 C 64.364 90.501,64.809 89.263,63.266 86.198 C 62.612 84.900,62.318 83.943,61.841 81.566 C 61.452 79.627,59.347 74.929,58.647 74.439 C 57.981 73.972,55.983 74.062,55.359 74.587 M79.286 74.654 C 78.073 76.096,78.371 77.892,79.953 78.671 C 81.606 79.484,81.489 79.051,81.539 84.559 L 81.583 89.404 82.135 89.775 C 83.386 90.618,84.870 90.627,85.923 89.798 L 86.333 89.476 86.333 84.597 C 86.333 79.002,86.185 79.507,88.058 78.726 C 89.755 78.019,90.201 77.555,89.974 76.731 C 89.325 74.372,88.789 74.165,83.306 74.166 L 79.696 74.167 79.286 74.654 M110.318 74.415 C 108.919 75.175,107.595 77.750,107.007 80.853 C 106.747 82.227,106.441 83.195,105.898 84.364 C 103.853 88.764,104.358 91.095,107.159 90.192 C 108.072 89.898,108.429 89.686,108.777 89.229 C 109.023 88.907,109.553 88.417,109.955 88.140 L 110.686 87.637 111.930 87.914 C 113.131 88.181,113.197 88.222,113.834 89.084 C 115.059 90.743,117.150 91.130,118.451 89.939 L 119.063 89.378 118.848 88.397 C 118.730 87.858,118.305 86.742,117.904 85.917 C 117.356 84.788,117.074 83.901,116.765 82.333 C 116.268 79.810,116.373 80.111,114.988 77.226 C 113.570 74.271,113.463 74.165,111.927 74.173 C 111.243 74.177,110.569 74.278,110.318 74.415 M157.634 74.532 C 156.324 75.291,156.257 75.683,156.203 82.900 C 156.149 90.090,156.070 89.681,157.621 90.273 C 158.316 90.539,158.430 90.538,159.595 90.264 C 161.267 89.869,161.500 89.568,161.500 87.806 L 161.500 86.491 162.246 85.746 C 162.656 85.336,163.087 84.997,163.204 84.992 C 164.000 84.963,168.278 83.016,168.605 82.534 C 169.980 80.505,169.381 76.689,167.556 75.843 C 167.113 75.638,166.412 75.258,166.000 74.999 C 164.612 74.128,158.881 73.808,157.634 74.532 M188.123 74.564 C 186.798 75.010,186.961 74.859,186.523 76.048 C 186.183 76.968,186.167 77.294,186.167 83.166 C 186.167 91.039,185.581 90.351,192.375 90.457 L 196.667 90.525 197.189 90.004 C 197.803 89.389,197.783 88.496,197.123 87.167 L 196.750 86.417 195.333 86.333 C 194.241 86.269,193.703 86.145,192.985 85.792 C 191.361 84.995,191.429 85.206,191.333 80.608 C 191.237 75.948,191.057 75.208,189.861 74.536 L 189.242 74.188 188.123 74.564 M219.710 74.542 C 218.221 75.595,217.110 77.767,216.578 80.667 C 216.247 82.471,215.904 83.536,215.315 84.586 C 214.906 85.313,214.420 87.005,214.104 88.791 C 213.995 89.410,214.891 90.500,215.510 90.500 C 216.369 90.500,217.752 89.817,218.519 89.013 C 219.975 87.486,222.031 87.343,223.040 88.699 C 223.247 88.978,223.689 89.497,224.022 89.853 L 224.627 90.500 225.983 90.500 C 227.292 90.500,227.359 90.481,227.957 89.933 L 228.576 89.366 228.371 88.392 C 228.259 87.856,227.868 86.817,227.503 86.084 C 227.109 85.293,226.697 84.106,226.492 83.167 C 226.301 82.296,226.040 81.129,225.912 80.575 C 225.633 79.362,223.449 74.868,222.943 74.462 C 222.373 74.005,220.400 74.054,219.710 74.542 M243.622 74.651 C 243.220 75.128,242.833 76.392,242.833 77.227 C 242.833 77.740,243.346 78.251,244.382 78.770 C 245.950 79.555,245.833 79.095,245.833 84.497 C 245.833 90.050,245.742 89.767,247.687 90.277 C 248.908 90.597,249.441 90.485,250.245 89.740 L 250.667 89.349 250.667 84.534 C 250.667 79.012,250.511 79.534,252.413 78.677 C 254.409 77.778,254.548 77.534,253.994 75.894 C 253.493 74.410,252.979 74.267,247.899 74.198 L 244.048 74.145 243.622 74.651 M271.900 74.579 C 270.519 75.407,270.427 75.918,270.368 83.062 C 270.312 89.966,270.233 89.515,271.598 90.156 C 272.504 90.582,272.770 90.584,273.945 90.171 C 275.381 89.666,275.500 89.501,275.500 88.013 C 275.500 86.081,276.230 85.209,278.355 84.603 C 279.570 84.257,279.934 83.940,280.331 82.886 L 280.657 82.022 280.176 81.616 C 279.830 81.325,279.336 81.158,278.424 81.022 C 274.887 80.496,274.828 78.667,278.347 78.667 C 279.804 78.667,280.646 78.432,281.369 77.824 L 281.917 77.363 281.491 76.140 C 280.827 74.231,280.667 74.172,276.167 74.171 C 272.657 74.170,272.569 74.178,271.900 74.579 M302.066 74.858 C 298.331 76.760,297.338 78.409,297.335 82.717 C 297.333 84.966,297.987 87.667,298.534 87.667 C 298.605 87.667,299.210 88.220,299.879 88.895 C 301.338 90.368,302.109 90.594,305.253 90.464 C 307.802 90.359,308.230 90.170,309.882 88.411 C 311.853 86.313,312.041 85.767,312.034 82.138 C 312.030 79.559,311.810 78.782,310.707 77.459 C 308.110 74.341,304.950 73.390,302.066 74.858 M331.000 74.548 C 329.990 74.892,329.889 74.973,329.500 75.750 L 329.083 76.583 329.034 82.937 L 328.985 89.291 329.480 89.708 C 331.398 91.321,334.167 90.423,334.167 88.187 C 334.167 86.380,334.363 86.150,335.316 86.840 C 335.715 87.129,336.264 87.443,336.537 87.538 C 336.925 87.673,337.138 87.943,337.509 88.770 C 338.156 90.213,338.642 90.499,340.453 90.499 C 341.910 90.500,343.000 89.934,343.000 89.177 C 343.000 88.562,342.294 86.784,341.662 85.806 C 340.833 84.523,340.836 84.457,341.808 83.289 C 343.215 81.598,343.533 78.572,342.484 76.848 C 341.259 74.833,334.271 73.433,331.000 74.548 M362.417 74.549 C 361.887 74.849,361.664 75.131,361.333 75.922 L 360.917 76.917 360.917 83.159 L 360.917 89.401 361.583 89.865 C 363.359 91.104,364.402 90.412,364.589 87.871 C 364.706 86.279,365.215 84.167,365.482 84.167 C 365.676 84.167,366.279 86.346,366.520 87.917 C 366.749 89.409,367.294 90.165,368.143 90.168 C 368.385 90.169,368.966 90.216,369.433 90.272 C 370.828 90.439,371.245 89.930,371.670 87.545 C 372.026 85.545,372.568 83.905,372.732 84.333 C 373.194 85.541,373.370 86.309,373.503 87.704 C 373.738 90.168,374.193 90.615,376.266 90.420 C 377.337 90.320,377.570 90.238,378.002 89.806 L 378.500 89.308 378.500 83.356 C 378.500 74.334,378.498 74.330,374.529 74.298 C 372.048 74.278,371.727 74.614,370.923 78.084 C 370.425 80.228,370.360 80.251,369.328 78.643 C 366.575 74.350,364.716 73.249,362.417 74.549 M337.486 79.093 C 338.048 79.733,337.991 80.041,337.207 80.590 C 336.514 81.076,333.923 80.046,334.430 79.485 C 334.662 79.229,336.340 78.554,336.858 78.509 C 336.917 78.504,337.200 78.767,337.486 79.093 M163.849 79.184 L 164.332 79.700 163.990 80.180 C 163.463 80.920,163.180 81.014,162.506 80.669 C 161.298 80.053,161.202 79.764,162.010 79.179 C 162.899 78.535,163.244 78.535,163.849 79.184 M27.900 79.208 C 29.127 80.306,29.168 84.243,27.965 85.446 L 27.365 86.047 26.783 85.687 C 25.794 85.076,25.665 84.730,25.676 82.714 C 25.691 80.041,25.788 79.667,26.585 79.215 C 27.405 78.751,27.389 78.751,27.900 79.208 M306.205 79.480 C 306.896 80.134,307.087 83.996,306.478 85.000 C 305.815 86.094,303.711 86.273,303.057 85.291 C 302.333 84.203,302.423 80.400,303.195 79.418 C 303.577 78.933,305.673 78.976,306.205 79.480 M220.386 82.269 C 220.309 82.471,220.258 82.481,220.154 82.314 C 219.998 82.061,220.125 81.788,220.338 81.919 C 220.419 81.970,220.441 82.127,220.386 82.269 " stroke="none" fill="#f0f0f0" fill-rule="evenodd"></path><path id="path1" d="M0.000 51.167 L 0.000 102.333 200.000 102.333 L 400.000 102.333 400.000 51.167 L 400.000 0.000 200.000 0.000 L 0.000 0.000 0.000 51.167 M42.011 17.638 C 42.742 18.541,42.742 18.541,42.792 34.094 L 42.840 48.938 43.311 49.501 C 43.872 50.174,45.698 50.535,47.333 50.298 C 47.837 50.225,51.083 50.175,54.546 50.188 C 60.493 50.210,60.861 50.194,61.188 49.898 C 62.029 49.137,62.000 49.692,62.002 34.217 C 62.004 18.729,62.020 18.406,62.831 17.595 C 63.373 17.053,82.045 17.053,82.771 17.595 C 83.298 17.989,83.493 18.560,83.471 19.653 C 83.462 20.073,83.409 30.071,83.353 41.871 L 83.250 63.326 82.788 63.788 L 82.325 64.250 72.204 64.246 C 62.497 64.242,61.984 64.226,59.667 63.862 C 55.389 63.189,55.209 63.083,57.544 62.605 C 59.178 62.270,61.027 61.177,60.797 60.682 C 60.334 59.685,57.665 57.815,55.869 57.229 C 55.051 56.962,54.206 56.524,53.496 55.997 C 52.890 55.548,51.874 54.947,51.238 54.664 C 50.603 54.380,49.783 53.863,49.417 53.514 C 49.036 53.153,48.271 52.694,47.636 52.446 L 46.522 52.010 45.005 52.341 C 44.151 52.528,42.271 52.739,40.702 52.825 C 37.195 53.017,36.908 53.103,36.181 54.178 C 35.868 54.641,35.211 55.469,34.720 56.019 C 34.230 56.568,33.557 57.558,33.226 58.217 C 32.895 58.877,32.408 59.663,32.145 59.964 C 31.373 60.848,31.568 61.158,33.636 62.333 C 34.853 63.025,34.851 63.133,33.616 63.628 C 32.191 64.199,30.464 64.358,26.302 64.302 L 22.521 64.250 22.011 63.760 L 21.500 63.271 21.500 41.499 C 21.500 18.257,21.491 18.525,22.284 17.634 C 22.666 17.204,22.633 17.205,32.473 17.228 L 41.696 17.250 42.011 17.638 M104.676 17.644 C 106.328 18.709,106.683 19.394,107.168 22.448 C 107.559 24.909,107.843 25.985,108.498 27.500 C 108.991 28.640,109.306 29.971,109.751 32.793 C 110.270 36.078,110.478 36.427,112.021 36.587 L 113.126 36.701 113.394 35.976 C 113.730 35.067,113.927 34.152,114.254 31.970 C 114.565 29.900,114.921 28.476,115.327 27.677 C 115.881 26.584,116.172 25.482,116.591 22.885 C 117.153 19.401,117.455 18.780,119.116 17.680 L 119.890 17.167 128.654 17.180 C 138.679 17.194,138.984 17.228,139.186 18.347 L 139.289 18.917 139.311 18.393 C 139.362 17.197,138.330 17.255,160.333 17.206 C 180.723 17.159,180.466 17.151,181.111 17.863 C 181.612 18.417,181.473 29.513,180.955 30.276 C 180.212 31.372,180.564 31.333,171.298 31.333 C 160.445 31.333,160.639 31.286,160.465 33.995 L 160.417 34.739 161.417 35.161 L 162.417 35.583 169.333 35.673 C 178.808 35.796,178.000 35.343,178.000 40.539 L 178.000 44.359 177.528 44.831 C 176.491 45.868,175.503 46.000,168.753 46.000 C 161.484 46.000,161.244 46.063,160.531 48.141 C 159.910 49.950,160.604 50.067,172.583 50.167 L 182.583 50.250 183.115 50.629 C 183.730 51.068,183.750 51.121,184.014 52.980 C 184.529 56.622,183.041 60.292,181.779 58.490 C 181.395 57.942,180.494 57.349,179.490 56.983 C 178.979 56.797,178.361 56.480,178.116 56.280 L 177.672 55.917 178.488 54.708 L 179.303 53.500 178.908 53.190 C 177.728 52.262,176.977 52.360,176.170 53.550 C 175.935 53.894,175.397 54.381,174.974 54.630 C 173.449 55.528,173.190 55.853,173.134 56.938 C 173.061 58.352,172.712 58.339,171.773 56.886 C 171.036 55.747,170.669 54.786,170.668 53.990 C 170.666 53.099,170.346 52.924,169.281 53.234 L 168.337 53.508 168.841 53.962 C 170.579 55.529,169.759 56.853,166.903 57.091 C 164.463 57.293,162.794 57.853,162.600 58.535 C 162.048 60.475,162.016 60.720,162.160 61.870 C 162.448 64.160,161.969 64.393,157.154 64.310 L 153.571 64.247 152.462 63.701 L 151.353 63.155 151.771 62.043 C 152.002 61.431,152.227 60.871,152.272 60.798 C 152.317 60.724,152.601 59.709,152.902 58.541 C 153.203 57.372,153.499 56.304,153.560 56.166 C 153.672 55.913,151.312 54.338,150.807 54.329 C 148.948 54.296,146.233 51.619,145.341 48.941 C 144.731 47.108,144.242 46.591,142.636 46.084 C 139.222 45.005,139.504 46.191,139.480 32.808 C 139.459 20.960,139.404 19.624,139.029 22.010 C 138.727 23.933,138.471 24.420,137.581 24.760 C 136.671 25.107,136.350 25.792,135.739 28.685 C 135.501 29.816,135.173 31.005,135.011 31.329 C 134.849 31.652,134.524 32.292,134.289 32.750 C 134.049 33.220,133.670 34.529,133.422 35.750 C 133.082 37.425,132.818 38.241,132.257 39.345 C 131.779 40.284,131.410 41.333,131.176 42.413 C 130.460 45.718,130.165 45.833,122.435 45.833 C 114.601 45.833,114.452 45.989,115.055 53.547 C 115.213 55.530,115.209 56.132,115.036 56.630 C 114.917 56.971,114.741 58.035,114.644 58.994 L 114.468 60.738 115.134 61.328 C 115.500 61.652,116.124 62.186,116.520 62.516 L 117.240 63.115 116.248 63.487 C 114.049 64.309,113.792 64.333,107.204 64.333 C 102.919 64.333,100.865 64.275,100.614 64.146 C 99.365 63.503,98.194 61.175,97.510 57.975 C 97.144 56.260,96.862 55.395,96.365 54.456 C 95.995 53.758,95.578 52.636,95.415 51.898 C 94.836 49.275,94.472 48.067,94.017 47.250 C 93.403 46.146,93.228 45.606,92.745 43.335 C 92.459 41.991,92.118 40.973,91.599 39.919 C 91.054 38.810,90.747 37.871,90.427 36.333 C 90.107 34.792,89.796 33.843,89.233 32.685 C 88.667 31.520,88.350 30.546,87.991 28.874 C 87.629 27.191,87.320 26.245,86.758 25.105 C 85.809 23.180,85.266 20.662,85.433 18.961 C 85.619 17.058,84.989 17.173,95.259 17.169 L 103.935 17.167 104.676 17.644 M202.377 17.659 C 204.019 18.700,204.316 19.462,204.834 23.962 C 205.242 27.510,205.568 29.149,206.099 30.321 C 206.685 31.615,208.166 34.167,208.332 34.167 C 208.568 34.167,209.125 31.404,209.506 28.333 C 209.706 26.729,210.053 24.817,210.279 24.083 C 210.504 23.350,210.913 21.963,211.188 21.001 C 211.738 19.073,212.204 17.919,212.616 17.464 C 212.896 17.154,224.705 16.996,226.741 17.275 C 227.710 17.407,228.190 18.032,228.580 19.667 C 229.297 22.673,229.672 24.041,230.133 25.333 C 230.468 26.270,230.760 27.625,230.996 29.333 C 231.344 31.860,231.931 34.502,232.143 34.498 C 232.256 34.496,233.493 32.612,234.230 31.319 C 234.842 30.247,235.240 28.542,235.656 25.213 C 236.207 20.816,236.618 19.633,238.172 17.978 L 238.934 17.167 247.619 17.167 C 255.675 17.167,256.377 17.190,257.318 17.483 C 258.315 17.793,258.352 17.793,259.348 17.483 C 260.289 17.190,260.989 17.167,268.940 17.167 C 278.700 17.167,278.194 17.097,278.957 18.545 L 279.417 19.417 279.417 37.750 C 279.417 58.063,279.482 56.857,278.354 57.325 C 277.610 57.633,277.292 57.490,276.831 56.638 C 276.254 55.570,275.939 55.258,274.944 54.769 C 273.867 54.239,273.744 54.132,272.874 52.964 C 271.643 51.312,271.596 50.793,272.550 49.436 C 273.040 48.739,272.801 48.511,270.965 47.920 C 269.374 47.408,269.140 47.286,268.304 46.531 C 267.713 45.997,266.253 45.672,264.428 45.669 C 261.089 45.663,260.833 46.243,260.833 53.813 C 260.833 57.019,260.776 58.651,260.667 58.583 C 260.562 58.518,260.498 56.617,260.494 53.448 C 260.488 47.848,260.366 46.845,259.550 45.651 C 258.421 44.002,258.500 44.971,258.500 32.758 C 258.500 21.829,258.415 20.163,258.003 23.063 C 257.757 24.792,257.405 25.415,256.522 25.680 C 255.696 25.927,255.499 26.393,254.835 29.659 C 254.501 31.302,254.161 32.428,253.690 33.456 C 253.012 34.933,252.729 35.927,252.251 38.500 C 252.089 39.375,251.740 40.426,251.339 41.250 C 250.982 41.983,250.571 43.001,250.425 43.512 C 250.247 44.137,249.967 44.628,249.571 45.012 L 248.982 45.583 237.039 45.629 C 222.664 45.685,224.570 45.060,223.608 50.029 C 223.471 50.733,223.198 51.670,223.001 52.113 L 222.643 52.917 222.419 52.496 C 222.080 51.858,221.705 50.273,221.412 48.243 C 220.741 43.590,220.022 43.424,218.913 47.667 C 218.661 48.629,218.206 50.023,217.902 50.763 C 217.350 52.107,217.125 53.104,216.503 56.960 C 216.288 58.294,215.977 59.480,215.607 60.376 C 215.296 61.132,214.987 62.012,214.921 62.333 C 214.508 64.341,214.548 64.332,205.827 64.333 C 195.618 64.334,195.917 64.428,195.236 60.986 C 194.734 58.447,194.615 58.058,193.891 56.563 C 193.491 55.741,193.160 54.617,192.808 52.897 C 192.445 51.124,192.120 50.036,191.668 49.083 C 190.899 47.460,190.755 47.001,190.414 45.083 C 190.071 43.156,189.937 42.721,189.140 40.964 C 188.777 40.165,188.369 38.927,188.232 38.214 C 187.730 35.594,187.430 34.554,186.798 33.236 C 186.327 32.254,186.019 31.233,185.660 29.467 C 185.146 26.934,184.850 26.036,184.300 25.336 C 183.326 24.098,182.609 20.463,182.942 18.450 C 183.154 17.166,183.026 17.182,192.926 17.174 L 201.601 17.167 202.377 17.659 M316.667 17.543 C 317.171 17.696,318.783 18.090,320.250 18.418 C 323.026 19.038,323.909 19.380,324.750 20.159 C 325.025 20.414,325.813 20.998,326.500 21.457 C 327.886 22.383,328.087 22.676,330.231 26.917 C 331.395 29.217,331.147 36.057,329.846 37.546 C 329.588 37.842,329.143 38.548,328.858 39.115 C 328.475 39.875,328.129 40.290,327.544 40.690 C 327.107 40.988,326.444 41.545,326.069 41.927 C 325.695 42.310,325.095 42.717,324.736 42.831 C 323.788 43.135,322.483 43.864,322.546 44.055 C 322.576 44.146,323.255 44.588,324.053 45.039 C 325.290 45.736,325.595 45.999,326.108 46.804 C 326.439 47.324,326.971 48.041,327.291 48.396 C 328.060 49.253,328.410 50.088,328.839 52.088 C 329.034 53.002,329.455 54.398,329.773 55.190 C 330.091 55.982,330.563 57.646,330.822 58.889 C 331.561 62.441,331.966 62.866,333.353 61.543 C 334.201 60.735,334.205 60.725,333.957 60.239 C 333.355 59.061,333.333 58.314,333.333 39.030 C 333.333 18.499,333.336 18.425,334.239 17.523 C 334.709 17.052,373.138 17.110,374.083 17.583 C 375.465 18.274,375.576 18.783,375.632 24.691 L 375.680 29.799 375.298 30.222 C 374.408 31.209,374.082 31.242,364.463 31.333 C 354.246 31.430,355.143 31.244,354.821 33.330 L 354.629 34.578 355.259 35.122 L 355.889 35.667 363.157 35.667 C 372.539 35.667,371.654 35.151,371.661 40.622 L 371.667 44.494 370.945 45.247 L 370.224 46.000 362.949 46.000 L 355.674 46.000 355.433 46.375 C 354.891 47.216,354.617 48.833,354.949 49.225 C 355.713 50.126,355.101 50.077,366.621 50.167 L 377.326 50.250 377.742 50.667 C 378.355 51.282,378.493 52.672,378.497 58.279 L 378.500 63.141 378.002 63.639 C 377.321 64.320,376.568 64.372,368.500 64.295 C 362.667 64.240,361.812 64.198,361.000 63.927 C 360.496 63.759,359.671 63.494,359.167 63.338 L 358.250 63.055 359.417 62.673 C 361.341 62.042,361.762 61.450,361.580 59.634 C 361.387 57.714,360.443 57.204,357.026 57.175 C 355.818 57.165,355.175 56.822,354.722 55.945 C 354.317 55.161,351.796 52.707,351.235 52.551 C 350.968 52.477,348.350 52.419,345.417 52.422 C 338.781 52.429,339.018 52.369,338.083 54.276 C 337.717 55.023,337.107 56.036,336.727 56.526 C 336.306 57.071,335.847 57.967,335.545 58.833 C 335.274 59.612,334.992 60.389,334.918 60.560 C 334.811 60.808,335.021 61.094,335.975 61.998 C 337.331 63.284,337.327 63.315,335.699 63.768 C 334.785 64.022,334.494 64.033,333.369 63.855 C 332.192 63.668,332.003 63.680,331.129 63.992 C 329.748 64.486,325.214 64.492,323.627 64.001 C 322.611 63.688,322.502 63.684,321.658 63.935 C 320.516 64.274,319.895 64.269,318.826 63.914 C 317.988 63.636,317.932 63.638,316.705 64.003 C 315.604 64.330,315.200 64.365,313.514 64.284 C 310.063 64.118,309.911 63.985,309.336 60.618 C 309.129 59.407,308.784 57.892,308.569 57.250 C 306.785 51.927,306.506 51.574,304.730 52.400 C 303.295 53.069,303.333 52.905,303.333 58.356 L 303.333 63.137 302.826 63.564 C 301.912 64.333,301.610 64.354,292.473 64.301 L 283.862 64.250 283.139 63.742 L 282.417 63.234 282.374 41.708 L 282.332 20.183 282.693 19.216 C 282.891 18.685,283.299 18.004,283.599 17.703 L 284.145 17.155 299.947 17.210 C 314.148 17.258,315.843 17.292,316.667 17.543 M305.239 30.646 C 304.866 30.817,304.280 31.203,303.936 31.505 L 303.311 32.054 303.364 34.677 L 303.417 37.300 304.101 38.109 C 305.517 39.780,306.496 39.818,309.579 38.326 C 311.618 37.339,312.182 35.917,311.591 33.259 C 311.231 31.644,310.130 30.909,307.583 30.585 C 307.125 30.526,306.563 30.447,306.333 30.408 C 306.104 30.368,305.612 30.476,305.239 30.646 M319.942 51.031 C 319.806 51.243,319.466 52.301,319.185 53.381 C 318.905 54.462,318.613 55.459,318.536 55.596 C 318.449 55.753,318.539 56.267,318.777 56.965 C 318.987 57.580,319.160 58.286,319.162 58.533 C 319.172 59.571,319.528 60.688,319.891 60.823 C 320.658 61.108,320.989 60.609,321.412 58.526 C 321.568 57.761,321.791 56.861,321.909 56.526 C 322.097 55.992,322.085 55.840,321.813 55.301 C 321.643 54.963,321.310 53.862,321.073 52.854 C 320.599 50.830,320.339 50.410,319.942 51.031 M175.167 58.333 C 175.167 58.527,174.437 58.527,173.833 58.333 C 173.506 58.228,173.603 58.196,174.292 58.183 C 174.775 58.174,175.167 58.241,175.167 58.333 M278.308 60.254 C 278.660 60.551,278.860 60.921,278.987 61.512 C 279.291 62.930,279.247 63.098,278.497 63.399 C 277.037 63.983,276.552 63.569,276.831 61.975 C 277.223 59.733,277.418 59.506,278.308 60.254 M123.037 61.625 C 123.947 62.662,123.907 63.470,122.921 63.998 C 122.494 64.226,122.424 64.209,119.956 63.291 L 119.330 63.058 119.956 62.616 C 121.573 61.477,122.614 61.142,123.037 61.625 M147.267 62.067 C 148.748 63.548,146.877 64.443,144.083 63.589 C 142.433 63.085,142.651 62.513,144.750 61.840 C 146.215 61.369,146.605 61.405,147.267 62.067 M175.315 63.272 C 175.077 63.558,174.976 63.557,174.576 63.265 C 174.259 63.033,174.259 63.025,174.582 62.669 L 174.909 62.307 175.207 62.675 C 175.435 62.957,175.461 63.097,175.315 63.272 M261.010 62.686 C 261.289 63.206,260.800 63.705,260.402 63.307 C 260.177 63.082,260.171 62.989,260.359 62.688 C 260.637 62.242,260.773 62.242,261.010 62.686 M49.342 62.754 C 49.612 62.894,49.833 63.042,49.833 63.083 C 49.833 63.124,49.612 63.273,49.342 63.412 C 48.233 63.986,40.667 63.700,40.667 63.084 C 40.667 62.475,48.245 62.187,49.342 62.754 M349.366 63.125 C 348.329 63.154,346.679 63.154,345.699 63.124 C 344.719 63.095,345.567 63.071,347.583 63.071 C 349.600 63.071,350.402 63.095,349.366 63.125 M28.463 74.693 C 32.371 76.134,33.128 76.946,34.172 80.814 C 34.732 82.891,33.874 86.837,32.634 87.881 C 32.331 88.136,31.657 88.712,31.135 89.162 C 29.865 90.255,29.443 90.356,25.707 90.455 C 22.274 90.545,21.932 90.493,20.867 89.709 L 20.318 89.305 20.368 83.111 C 20.426 75.919,20.515 75.424,21.900 74.566 C 22.801 74.007,26.815 74.085,28.463 74.693 M58.647 74.439 C 59.347 74.929,61.452 79.627,61.841 81.566 C 62.318 83.943,62.612 84.900,63.266 86.198 C 64.809 89.263,64.364 90.501,61.719 90.499 C 60.316 90.499,59.771 90.201,59.014 89.021 C 58.712 88.551,58.440 88.167,58.410 88.167 C 58.380 88.167,57.820 88.054,57.167 87.917 C 55.760 87.621,55.714 87.638,54.239 89.011 C 50.537 92.454,48.658 89.730,51.103 84.467 C 51.649 83.293,51.966 82.288,52.261 80.800 C 52.889 77.637,53.723 75.964,55.359 74.587 C 55.983 74.062,57.981 73.972,58.647 74.439 M88.115 74.521 C 89.413 74.905,89.501 75.010,89.974 76.731 C 90.201 77.555,89.755 78.019,88.058 78.726 C 86.185 79.507,86.333 79.002,86.333 84.597 L 86.333 89.476 85.923 89.798 C 84.870 90.627,83.386 90.618,82.135 89.775 L 81.583 89.404 81.539 84.559 C 81.489 79.051,81.606 79.484,79.953 78.671 C 78.371 77.892,78.073 76.096,79.286 74.654 L 79.696 74.167 83.306 74.166 C 86.506 74.166,87.053 74.206,88.115 74.521 M113.480 74.517 C 113.798 74.813,115.866 78.863,116.238 79.917 C 116.302 80.100,116.540 81.188,116.765 82.333 C 117.074 83.901,117.356 84.788,117.904 85.917 C 118.305 86.742,118.730 87.858,118.848 88.397 L 119.063 89.378 118.451 89.939 C 117.150 91.130,115.059 90.743,113.834 89.084 C 113.197 88.222,113.131 88.181,111.930 87.914 L 110.686 87.637 109.955 88.140 C 109.553 88.417,109.023 88.907,108.777 89.229 C 108.429 89.686,108.072 89.898,107.159 90.192 C 104.358 91.095,103.853 88.764,105.898 84.364 C 106.441 83.195,106.747 82.227,107.007 80.853 C 107.595 77.750,108.919 75.175,110.318 74.415 C 111.033 74.026,113.022 74.091,113.480 74.517 M163.750 74.348 C 164.902 74.487,165.424 74.638,166.000 74.999 C 166.412 75.258,167.113 75.638,167.556 75.843 C 169.381 76.689,169.980 80.505,168.605 82.534 C 168.278 83.016,164.000 84.963,163.204 84.992 C 163.087 84.997,162.656 85.336,162.246 85.746 L 161.500 86.491 161.500 87.806 C 161.500 89.568,161.267 89.869,159.595 90.264 C 158.193 90.594,157.262 90.394,156.519 89.604 C 155.942 88.989,156.040 77.046,156.634 75.736 C 157.344 74.167,159.213 73.802,163.750 74.348 M190.865 75.734 C 191.224 76.525,191.256 76.859,191.333 80.608 C 191.429 85.206,191.361 84.995,192.985 85.792 C 193.703 86.145,194.241 86.269,195.333 86.333 L 196.750 86.417 197.123 87.167 C 197.783 88.496,197.803 89.389,197.189 90.004 L 196.667 90.525 192.375 90.457 C 185.581 90.351,186.167 91.039,186.167 83.166 C 186.167 77.294,186.183 76.968,186.523 76.048 C 186.961 74.859,186.798 75.010,188.123 74.564 L 189.242 74.188 189.861 74.536 C 190.301 74.783,190.592 75.130,190.865 75.734 M222.943 74.462 C 223.449 74.868,225.633 79.362,225.912 80.575 C 226.040 81.129,226.301 82.296,226.492 83.167 C 226.697 84.106,227.109 85.293,227.503 86.084 C 227.868 86.817,228.259 87.856,228.371 88.392 L 228.576 89.366 227.957 89.933 C 227.359 90.481,227.292 90.500,225.983 90.500 L 224.627 90.500 224.022 89.853 C 223.689 89.497,223.247 88.978,223.040 88.699 C 222.031 87.343,219.975 87.486,218.519 89.013 C 216.698 90.922,213.754 90.773,214.104 88.791 C 214.420 87.005,214.906 85.313,215.315 84.586 C 215.904 83.536,216.247 82.471,216.578 80.667 C 217.110 77.767,218.221 75.595,219.710 74.542 C 220.400 74.054,222.373 74.005,222.943 74.462 M252.703 74.570 C 253.646 74.888,253.659 74.900,253.994 75.894 C 254.548 77.534,254.409 77.778,252.413 78.677 C 250.511 79.534,250.667 79.012,250.667 84.534 L 250.667 89.349 250.245 89.740 C 249.441 90.485,248.908 90.597,247.687 90.277 C 245.742 89.767,245.833 90.050,245.833 84.497 C 245.833 79.095,245.950 79.555,244.382 78.770 C 243.346 78.251,242.833 77.740,242.833 77.227 C 242.833 76.392,243.220 75.128,243.622 74.651 L 244.048 74.145 247.899 74.198 C 251.161 74.242,251.896 74.299,252.703 74.570 M280.408 74.545 C 280.981 74.870,281.120 75.073,281.491 76.140 L 281.917 77.363 281.369 77.824 C 280.646 78.432,279.804 78.667,278.347 78.667 C 274.828 78.667,274.887 80.496,278.424 81.022 C 279.336 81.158,279.830 81.325,280.176 81.616 L 280.657 82.022 280.331 82.886 C 279.934 83.940,279.570 84.257,278.355 84.603 C 276.230 85.209,275.500 86.081,275.500 88.013 C 275.500 89.501,275.381 89.666,273.945 90.171 C 272.770 90.584,272.504 90.582,271.598 90.156 C 270.233 89.515,270.312 89.966,270.368 83.062 C 270.443 73.982,270.321 74.169,276.167 74.171 C 279.567 74.172,279.784 74.191,280.408 74.545 M307.231 74.766 C 310.830 76.586,312.028 78.425,312.034 82.138 C 312.041 85.767,311.853 86.313,309.882 88.411 C 308.230 90.170,307.802 90.359,305.253 90.464 C 302.109 90.594,301.338 90.368,299.879 88.895 C 299.210 88.220,298.605 87.667,298.534 87.667 C 297.673 87.667,297.038 82.916,297.511 80.004 C 298.177 75.901,303.646 72.954,307.231 74.766 M337.651 74.413 C 339.272 74.833,342.137 76.276,342.484 76.848 C 343.533 78.572,343.215 81.598,341.808 83.289 C 340.836 84.457,340.833 84.523,341.662 85.806 C 343.672 88.916,343.263 90.501,340.453 90.499 C 338.642 90.499,338.156 90.213,337.509 88.770 C 337.138 87.943,336.925 87.673,336.537 87.538 C 336.264 87.443,335.715 87.129,335.316 86.840 C 334.363 86.150,334.167 86.380,334.167 88.187 C 334.167 90.423,331.398 91.321,329.480 89.708 L 328.985 89.291 329.034 82.937 L 329.083 76.583 329.500 75.750 C 330.229 74.293,334.490 73.593,337.651 74.413 M365.931 74.481 C 366.571 74.872,368.150 76.806,369.328 78.643 C 370.360 80.251,370.425 80.228,370.923 78.084 C 371.727 74.614,372.048 74.278,374.529 74.298 C 378.498 74.330,378.500 74.334,378.500 83.356 L 378.500 89.308 378.002 89.806 C 377.570 90.238,377.337 90.320,376.266 90.420 C 374.193 90.615,373.738 90.168,373.503 87.704 C 373.370 86.309,373.194 85.541,372.732 84.333 C 372.568 83.905,372.026 85.545,371.670 87.545 C 371.245 89.930,370.828 90.439,369.433 90.272 C 368.966 90.216,368.385 90.169,368.143 90.168 C 367.294 90.165,366.749 89.409,366.520 87.917 C 366.279 86.346,365.676 84.167,365.482 84.167 C 365.215 84.167,364.706 86.279,364.589 87.871 C 364.402 90.412,363.359 91.104,361.583 89.865 L 360.917 89.401 360.917 83.159 L 360.917 76.917 361.333 75.922 C 362.023 74.274,364.380 73.536,365.931 74.481 M335.737 78.840 C 334.293 79.298,333.949 79.712,334.693 80.097 C 336.268 80.912,337.161 80.891,337.768 80.024 C 337.994 79.702,337.257 78.475,336.858 78.509 C 336.798 78.515,336.294 78.663,335.737 78.840 M162.010 79.179 C 161.202 79.764,161.298 80.053,162.506 80.669 C 163.180 81.014,163.463 80.920,163.990 80.180 L 164.332 79.700 163.849 79.184 C 163.244 78.535,162.899 78.535,162.010 79.179 M26.585 79.215 C 25.788 79.667,25.691 80.041,25.676 82.714 C 25.665 84.730,25.794 85.076,26.783 85.687 L 27.365 86.047 27.965 85.446 C 29.168 84.243,29.127 80.306,27.900 79.208 C 27.389 78.751,27.405 78.751,26.585 79.215 M303.195 79.418 C 302.423 80.400,302.333 84.203,303.057 85.291 C 303.711 86.273,305.815 86.094,306.478 85.000 C 307.087 83.996,306.896 80.134,306.205 79.480 C 305.673 78.976,303.577 78.933,303.195 79.418 M220.106 81.964 C 220.060 82.038,220.082 82.196,220.154 82.314 C 220.258 82.481,220.309 82.471,220.386 82.269 C 220.491 81.996,220.249 81.732,220.106 81.964 " stroke="none" fill="#242424" fill-rule="evenodd"></path></g></svg>