<svg id="svg" version="1.1" xmlns="http://www.w3.org/2000/svg" xmlns:xlink="http://www.w3.org/1999/xlink" width="400" height="400" viewBox="0, 0, 400,400"><g id="svgg"><path id="path0" d="M186.400 25.192 C 180.332 25.617,172.955 26.615,166.000 27.952 C 155.183 30.031,140.218 34.607,131.704 38.437 C 130.772 38.857,129.915 39.200,129.800 39.200 C 129.391 39.200,119.739 43.976,116.000 46.028 C 95.176 57.458,77.282 72.547,62.430 91.200 C 52.025 104.268,39.470 126.277,35.992 137.546 C 35.814 138.126,35.011 140.400,34.209 142.600 C 19.998 181.570,21.749 231.071,38.686 269.200 C 57.471 311.488,88.426 342.442,130.800 361.312 C 157.254 373.092,191.411 377.952,221.200 374.172 C 237.084 372.157,253.620 367.847,267.000 362.235 C 271.044 360.538,272.154 360.024,277.600 357.327 C 329.511 331.617,365.870 281.406,373.567 224.800 C 373.791 223.150,374.201 220.270,374.478 218.400 C 375.161 213.783,375.167 186.745,374.485 181.800 C 372.659 168.546,371.215 161.171,368.769 152.600 C 366.991 146.366,364.764 139.778,362.417 133.806 C 358.960 125.006,349.013 106.484,345.614 102.517 C 345.386 102.251,345.200 101.880,345.200 101.692 C 345.200 101.505,344.878 101.002,344.483 100.575 C 344.089 100.149,343.155 98.900,342.408 97.800 C 333.306 84.404,314.762 66.111,300.403 56.363 C 298.974 55.393,297.624 54.459,297.403 54.286 C 291.272 49.506,270.120 38.575,262.000 35.991 C 261.450 35.816,259.740 35.202,258.200 34.627 C 249.683 31.445,234.205 27.661,224.600 26.413 C 222.620 26.155,219.920 25.772,218.600 25.561 C 215.411 25.051,192.218 24.785,186.400 25.192 M173.322 87.153 C 178.223 89.509,181.836 94.117,182.809 99.250 C 183.301 101.841,183.320 152.863,182.830 156.244 C 182.338 159.648,180.682 162.900,178.156 165.427 C 175.903 167.679,174.071 168.654,159.149 175.541 C 157.747 176.188,153.630 178.105,150.000 179.800 C 146.370 181.496,142.410 183.338,141.200 183.894 C 139.990 184.449,136.953 185.870,134.450 187.052 C 131.948 188.233,129.843 189.200,129.774 189.200 C 129.704 189.200,127.792 190.078,125.524 191.152 C 111.431 197.822,111.549 197.782,106.673 197.526 C 93.238 196.821,86.320 181.699,94.382 170.657 C 95.783 168.739,98.878 166.358,101.600 165.105 C 107.140 162.557,109.808 161.318,112.600 160.000 C 114.360 159.169,117.150 157.864,118.800 157.100 C 124.186 154.607,139.304 147.544,143.524 145.549 C 145.792 144.477,147.795 143.600,147.975 143.600 C 149.326 143.600,149.397 142.557,149.600 120.030 L 149.800 97.781 151.081 95.180 C 155.191 86.835,165.170 83.233,173.322 87.153 M240.807 87.048 C 245.562 89.279,249.251 93.945,250.350 99.120 C 250.650 100.535,250.800 108.148,250.800 122.027 L 250.800 142.814 255.848 145.207 C 258.624 146.523,260.947 147.600,261.010 147.600 C 261.073 147.600,263.768 148.860,267.000 150.400 C 270.232 151.940,272.929 153.200,272.993 153.200 C 273.101 153.200,277.617 155.299,284.701 158.643 C 286.297 159.396,288.624 160.479,289.872 161.050 C 300.136 165.745,302.046 166.794,304.137 168.885 C 313.885 178.633,308.487 195.390,294.900 197.557 C 289.832 198.365,288.856 198.043,271.349 189.781 C 269.781 189.041,267.351 187.909,265.949 187.266 C 263.559 186.169,262.245 185.557,253.600 181.512 C 251.730 180.638,249.053 179.391,247.651 178.743 C 246.249 178.095,243.729 176.921,242.051 176.136 C 240.373 175.350,237.830 174.163,236.400 173.498 C 215.586 163.817,216.725 166.559,216.887 126.539 C 216.998 99.029,217.013 98.568,217.857 96.512 C 221.631 87.318,232.142 82.983,240.807 87.048 M170.827 204.634 C 177.199 206.494,181.988 211.903,182.832 218.190 C 183.009 219.515,183.056 238.870,182.935 261.200 L 182.714 301.800 181.413 304.600 C 175.465 317.401,157.306 317.538,151.087 304.829 L 149.800 302.200 149.686 275.206 C 149.624 260.360,149.429 248.069,149.252 247.892 C 148.912 247.552,147.759 248.006,141.400 250.990 C 135.454 253.780,132.895 254.974,129.900 256.355 C 126.220 258.052,122.582 259.746,117.629 262.068 C 100.719 269.998,85.139 256.608,92.729 240.669 C 94.182 237.620,98.971 232.800,100.548 232.800 C 100.661 232.800,102.608 231.923,104.876 230.851 C 107.144 229.779,112.960 227.054,117.800 224.796 C 122.640 222.538,128.130 219.974,130.000 219.098 C 135.539 216.503,139.243 214.777,141.900 213.552 C 148.210 210.644,149.724 209.937,154.600 207.616 C 162.372 203.917,166.052 203.240,170.827 204.634 M240.000 205.100 C 240.990 205.535,243.397 206.648,245.349 207.573 C 247.302 208.498,250.047 209.782,251.449 210.427 C 256.457 212.730,259.132 213.976,269.000 218.602 C 274.500 221.180,280.080 223.788,281.400 224.397 C 282.720 225.006,285.240 226.177,287.000 226.999 C 288.760 227.822,291.280 228.989,292.600 229.594 C 303.902 234.774,305.847 236.443,308.459 243.200 C 311.049 249.901,306.916 259.546,299.936 263.086 C 293.734 266.232,290.023 265.764,278.600 260.395 C 269.334 256.039,268.319 255.562,265.500 254.234 C 255.810 249.672,251.024 247.616,250.742 247.898 C 250.566 248.074,250.372 260.368,250.311 275.218 L 250.200 302.218 248.893 304.872 C 242.573 317.707,224.545 317.435,218.459 304.412 L 217.051 301.400 216.889 261.138 C 216.716 218.437,216.755 217.336,218.606 213.424 C 222.189 205.851,232.547 201.821,240.000 205.100 " stroke="none" fill="#30ad87" fill-rule="evenodd"></path><path id="path1" d="M0.000 200.000 L 0.000 400.000 200.000 400.000 L 400.000 400.000 400.000 200.000 L 400.000 0.000 200.000 0.000 L 0.000 0.000 0.000 200.000 M213.000 24.411 C 216.080 24.645,219.680 24.999,221.000 25.198 C 222.320 25.396,224.930 25.763,226.800 26.013 C 228.670 26.263,230.920 26.623,231.800 26.814 C 232.680 27.005,234.390 27.369,235.600 27.623 C 255.952 31.903,272.873 38.531,291.000 49.324 C 294.638 51.490,303.516 57.405,304.000 57.985 C 304.110 58.117,305.370 59.094,306.800 60.156 C 318.369 68.751,331.249 81.631,339.844 93.200 C 340.906 94.630,341.883 95.890,342.014 96.000 C 342.262 96.208,344.691 99.596,345.414 100.743 C 345.642 101.104,346.827 102.930,348.048 104.800 C 355.964 116.924,363.216 132.171,367.358 145.400 C 370.746 156.220,372.914 165.322,373.981 173.200 C 374.234 175.070,374.607 177.680,374.809 179.000 C 376.441 189.625,376.240 211.951,374.404 224.000 C 374.153 225.650,373.783 228.080,373.583 229.400 C 373.383 230.720,373.024 232.700,372.786 233.800 C 372.548 234.900,372.196 236.610,372.004 237.600 C 368.441 255.989,357.809 281.202,347.043 296.800 C 346.359 297.790,345.620 298.894,345.400 299.253 C 344.271 301.096,339.518 307.431,336.454 311.179 C 329.744 319.385,320.596 328.647,313.056 334.866 C 307.722 339.265,307.984 339.058,304.591 341.570 C 303.276 342.544,301.570 343.811,300.800 344.385 C 298.859 345.833,292.080 350.169,289.086 351.879 C 287.719 352.659,285.970 353.659,285.200 354.100 C 283.402 355.130,275.258 359.215,272.400 360.520 C 267.142 362.921,265.970 363.404,261.860 364.862 C 259.474 365.709,257.387 366.485,257.223 366.586 C 256.835 366.826,246.220 369.989,244.400 370.407 C 243.630 370.584,241.830 371.017,240.400 371.370 C 237.834 372.003,236.315 372.323,232.000 373.139 C 229.962 373.525,228.697 373.720,221.300 374.791 C 211.511 376.208,188.529 376.207,178.700 374.789 C 177.215 374.575,174.695 374.212,173.100 373.983 C 171.505 373.753,169.390 373.410,168.400 373.221 C 164.021 372.384,161.638 371.882,159.400 371.325 C 158.080 370.997,156.370 370.578,155.600 370.395 C 151.483 369.414,145.037 367.385,137.800 364.792 C 135.462 363.954,134.949 363.746,131.200 362.106 C 130.210 361.673,128.595 360.977,127.611 360.559 C 124.931 359.422,115.336 354.523,112.600 352.895 C 105.907 348.912,99.242 344.540,96.400 342.268 C 96.070 342.004,95.170 341.344,94.400 340.800 C 92.590 339.522,92.661 339.578,86.800 334.764 C 80.398 329.504,70.496 319.602,65.236 313.200 C 60.718 307.699,60.934 307.973,58.430 304.591 C 57.456 303.276,56.189 301.570,55.615 300.800 C 50.220 293.567,42.444 279.507,37.805 268.600 C 37.525 267.940,37.019 266.770,36.681 266.000 C 34.837 261.791,30.845 249.606,29.605 244.400 C 29.422 243.630,28.983 241.830,28.630 240.400 C 28.277 238.970,27.829 236.990,27.633 236.000 C 26.555 230.551,26.389 229.542,25.215 221.300 C 23.565 209.714,23.724 188.629,25.556 176.200 C 26.698 168.453,27.572 163.758,28.778 158.900 C 29.010 157.965,29.366 156.525,29.569 155.700 C 31.128 149.367,35.006 137.724,37.034 133.288 C 37.566 132.127,38.000 131.080,38.000 130.963 C 38.000 130.436,44.037 118.070,45.891 114.800 C 48.394 110.386,51.130 105.889,52.658 103.681 C 53.616 102.295,54.400 101.082,54.400 100.984 C 54.400 100.826,56.466 97.984,57.732 96.400 C 57.996 96.070,58.650 95.170,59.186 94.400 C 59.723 93.630,60.271 92.910,60.404 92.800 C 60.537 92.690,60.906 92.223,61.223 91.763 C 61.838 90.871,63.543 88.781,67.375 84.224 C 70.438 80.582,80.582 70.438,84.224 67.375 C 88.818 63.512,90.456 62.195,93.200 60.156 C 94.630 59.094,95.890 58.117,96.000 57.986 C 96.215 57.729,99.663 55.262,100.743 54.593 C 101.104 54.369,102.750 53.302,104.400 52.222 C 114.993 45.289,125.806 39.829,138.800 34.852 C 144.002 32.860,156.977 29.058,162.200 27.996 C 166.784 27.063,168.443 26.757,171.000 26.368 C 172.540 26.134,174.880 25.777,176.200 25.574 C 177.520 25.371,180.940 25.022,183.800 24.799 C 186.660 24.576,189.270 24.326,189.600 24.243 C 190.979 23.898,207.828 24.019,213.000 24.411 M164.400 86.253 C 157.089 87.597,151.948 92.240,150.416 98.883 C 150.181 99.898,150.016 109.304,150.010 121.896 L 150.000 143.192 146.500 144.843 C 144.575 145.751,141.290 147.303,139.200 148.293 C 137.110 149.283,134.230 150.629,132.800 151.285 C 131.370 151.941,129.030 153.018,127.600 153.679 C 126.170 154.339,124.280 155.211,123.400 155.616 C 122.520 156.021,119.730 157.330,117.200 158.525 C 114.670 159.720,111.700 161.101,110.600 161.594 C 97.073 167.656,94.417 169.745,92.221 176.049 C 91.532 178.030,91.369 184.610,92.000 185.000 C 92.220 185.136,92.400 185.580,92.400 185.986 C 92.400 191.820,102.502 197.916,110.335 196.809 C 112.891 196.448,112.812 196.481,126.800 189.908 C 128.670 189.029,132.720 187.138,135.800 185.705 C 138.880 184.272,142.750 182.472,144.400 181.703 C 147.541 180.241,150.606 178.825,155.049 176.782 C 176.688 166.834,178.255 165.842,180.924 160.400 L 182.200 157.800 182.200 128.000 L 182.200 98.200 180.924 95.600 C 177.862 89.359,170.416 85.147,164.400 86.253 M230.400 86.478 C 229.410 86.694,228.429 87.035,228.220 87.235 C 228.011 87.436,227.551 87.600,227.199 87.600 C 225.297 87.600,220.854 91.975,219.076 95.600 L 217.800 98.200 217.800 128.000 L 217.800 157.800 219.075 160.404 C 220.649 163.621,223.859 166.889,226.800 168.269 C 230.116 169.825,236.345 172.743,238.600 173.796 C 239.700 174.309,242.905 175.825,245.723 177.165 C 248.540 178.504,250.910 179.600,250.988 179.600 C 251.067 179.600,252.992 180.477,255.266 181.549 C 257.540 182.621,261.830 184.619,264.800 185.990 C 267.770 187.360,271.820 189.251,273.800 190.191 C 278.011 192.191,281.664 193.896,284.959 195.401 C 299.449 202.016,313.577 187.593,306.639 173.267 C 304.628 169.113,302.583 167.738,289.000 161.404 C 287.240 160.584,284.270 159.191,282.400 158.309 C 280.530 157.427,278.100 156.292,277.000 155.788 C 272.433 153.693,269.585 152.372,265.800 150.594 C 263.600 149.560,260.697 148.205,259.349 147.584 C 258.002 146.963,255.347 145.720,253.449 144.823 L 250.000 143.192 249.990 121.896 C 249.984 109.304,249.819 99.898,249.584 98.883 C 247.608 90.315,238.831 84.640,230.400 86.478 M161.104 205.406 C 159.651 205.940,157.649 206.852,151.000 210.010 C 147.453 211.695,136.842 216.638,132.800 218.487 C 128.596 220.411,125.214 221.982,121.800 223.597 C 118.070 225.361,113.896 227.317,109.400 229.407 C 97.761 234.820,96.418 235.690,94.144 239.286 C 86.631 251.170,96.478 266.273,110.288 264.049 C 112.690 263.662,113.846 263.225,119.500 260.565 C 124.299 258.306,128.029 256.560,131.300 255.040 C 134.492 253.557,137.031 252.371,144.559 248.843 C 146.956 247.719,149.156 246.800,149.446 246.800 C 149.877 246.800,149.994 251.817,150.087 274.100 L 150.200 301.400 151.455 304.049 C 154.145 309.725,158.237 312.685,164.926 313.793 C 170.552 314.725,178.005 310.376,180.890 304.479 L 182.200 301.800 182.200 259.200 L 182.200 216.600 180.913 214.000 C 177.249 206.602,168.355 202.743,161.104 205.406 M227.772 205.735 C 223.791 207.433,221.020 210.069,219.082 214.000 L 217.800 216.600 217.800 259.200 L 217.800 301.800 219.076 304.400 C 220.884 308.086,225.345 312.400,227.348 312.400 C 227.681 312.400,228.053 312.561,228.174 312.759 C 228.296 312.956,229.575 313.322,231.016 313.573 C 239.359 315.026,247.661 309.457,249.584 301.117 C 249.824 300.079,249.984 288.994,249.990 273.100 C 249.999 250.704,250.084 246.800,250.566 246.800 C 250.877 246.800,253.082 247.717,255.466 248.838 C 257.850 249.959,260.880 251.384,262.200 252.003 C 263.520 252.623,266.580 254.060,269.000 255.196 C 271.420 256.333,274.390 257.720,275.600 258.280 C 276.810 258.840,279.060 259.890,280.600 260.613 C 286.161 263.226,287.322 263.664,289.712 264.049 C 297.265 265.265,307.600 258.989,307.600 253.186 C 307.600 252.780,307.780 252.336,308.000 252.200 C 309.008 251.577,308.342 243.784,307.077 241.400 C 306.844 240.960,306.413 240.126,306.120 239.547 C 304.494 236.328,302.062 234.741,290.400 229.286 C 288.970 228.617,285.820 227.140,283.400 226.004 C 279.284 224.071,277.620 223.297,272.600 220.979 C 271.500 220.471,268.980 219.303,267.000 218.385 C 261.293 215.736,258.596 214.490,255.700 213.162 C 254.215 212.481,251.290 211.111,249.200 210.118 C 243.744 207.527,239.968 205.782,238.681 205.257 C 236.712 204.453,230.097 204.743,227.772 205.735 " stroke="none" fill="#fbfbfb" fill-rule="evenodd"></path><path id="path2" d="M189.600 24.243 C 189.270 24.326,186.660 24.576,183.800 24.799 C 180.940 25.022,177.520 25.371,176.200 25.574 C 174.880 25.777,172.540 26.134,171.000 26.368 C 168.443 26.757,166.784 27.063,162.200 27.996 C 156.977 29.058,144.002 32.860,138.800 34.852 C 125.806 39.829,114.993 45.289,104.400 52.222 C 102.750 53.302,101.104 54.369,100.743 54.593 C 99.663 55.262,96.215 57.729,96.000 57.986 C 95.890 58.117,94.630 59.094,93.200 60.156 C 90.456 62.195,88.818 63.512,84.224 67.375 C 80.582 70.438,70.438 80.582,67.375 84.224 C 63.543 88.781,61.838 90.871,61.223 91.763 C 60.906 92.223,60.537 92.690,60.404 92.800 C 60.271 92.910,59.723 93.630,59.186 94.400 C 58.650 95.170,57.996 96.070,57.732 96.400 C 56.466 97.984,54.400 100.826,54.400 100.984 C 54.400 101.082,53.616 102.295,52.658 103.681 C 51.130 105.889,48.394 110.386,45.891 114.800 C 44.037 118.070,38.000 130.436,38.000 130.963 C 38.000 131.080,37.566 132.127,37.034 133.288 C 35.006 137.724,31.128 149.367,29.569 155.700 C 29.366 156.525,29.010 157.965,28.778 158.900 C 27.572 163.758,26.698 168.453,25.556 176.200 C 23.724 188.629,23.565 209.714,25.215 221.300 C 26.389 229.542,26.555 230.551,27.633 236.000 C 27.829 236.990,28.277 238.970,28.630 240.400 C 28.983 241.830,29.422 243.630,29.605 244.400 C 30.845 249.606,34.837 261.791,36.681 266.000 C 37.019 266.770,37.525 267.940,37.805 268.600 C 42.444 279.507,50.220 293.567,55.615 300.800 C 56.189 301.570,57.456 303.276,58.430 304.591 C 60.934 307.973,60.718 307.699,65.236 313.200 C 70.496 319.602,80.398 329.504,86.800 334.764 C 92.661 339.578,92.590 339.522,94.400 340.800 C 95.170 341.344,96.070 342.004,96.400 342.268 C 99.242 344.540,105.907 348.912,112.600 352.895 C 115.336 354.523,124.931 359.422,127.611 360.559 C 128.595 360.977,130.210 361.673,131.200 362.106 C 134.949 363.746,135.462 363.954,137.800 364.792 C 145.037 367.385,151.483 369.414,155.600 370.395 C 156.370 370.578,158.080 370.997,159.400 371.325 C 161.638 371.882,164.021 372.384,168.400 373.221 C 169.390 373.410,171.505 373.753,173.100 373.983 C 174.695 374.212,177.215 374.575,178.700 374.789 C 188.529 376.207,211.511 376.208,221.300 374.791 C 228.697 373.720,229.962 373.525,232.000 373.139 C 236.315 372.323,237.834 372.003,240.400 371.370 C 241.830 371.017,243.630 370.584,244.400 370.407 C 246.220 369.989,256.835 366.826,257.223 366.586 C 257.387 366.485,259.474 365.709,261.860 364.862 C 265.970 363.404,267.142 362.921,272.400 360.520 C 275.258 359.215,283.402 355.130,285.200 354.100 C 285.970 353.659,287.719 352.659,289.086 351.879 C 292.080 350.169,298.859 345.833,300.800 344.385 C 301.570 343.811,303.276 342.544,304.591 341.570 C 307.984 339.058,307.722 339.265,313.056 334.866 C 320.596 328.647,329.744 319.385,336.454 311.179 C 339.518 307.431,344.271 301.096,345.400 299.253 C 345.620 298.894,346.359 297.790,347.043 296.800 C 357.809 281.202,368.441 255.989,372.004 237.600 C 372.196 236.610,372.548 234.900,372.786 233.800 C 373.024 232.700,373.383 230.720,373.583 229.400 C 373.783 228.080,374.153 225.650,374.404 224.000 C 376.240 211.951,376.441 189.625,374.809 179.000 C 374.607 177.680,374.234 175.070,373.981 173.200 C 370.950 150.804,361.069 124.743,348.048 104.800 C 346.827 102.930,345.642 101.104,345.414 100.743 C 344.691 99.596,342.262 96.208,342.014 96.000 C 341.883 95.890,340.906 94.630,339.844 93.200 C 331.249 81.631,318.369 68.751,306.800 60.156 C 305.370 59.094,304.110 58.117,304.000 57.985 C 303.516 57.405,294.638 51.490,291.000 49.324 C 272.873 38.531,255.952 31.903,235.600 27.623 C 234.390 27.369,232.680 27.005,231.800 26.814 C 230.920 26.623,228.670 26.263,226.800 26.013 C 224.930 25.763,222.320 25.396,221.000 25.198 C 214.595 24.233,192.342 23.557,189.600 24.243 M218.600 25.561 C 219.920 25.772,222.620 26.155,224.600 26.413 C 234.205 27.661,249.683 31.445,258.200 34.627 C 259.740 35.202,261.450 35.816,262.000 35.991 C 270.120 38.575,291.272 49.506,297.403 54.286 C 297.624 54.459,298.974 55.393,300.403 56.363 C 314.762 66.111,333.306 84.404,342.408 97.800 C 343.155 98.900,344.089 100.149,344.483 100.575 C 344.878 101.002,345.200 101.505,345.200 101.692 C 345.200 101.880,345.386 102.251,345.614 102.517 C 349.013 106.484,358.960 125.006,362.417 133.806 C 364.764 139.778,366.991 146.366,368.769 152.600 C 371.215 161.171,372.659 168.546,374.485 181.800 C 375.167 186.745,375.161 213.783,374.478 218.400 C 374.201 220.270,373.791 223.150,373.567 224.800 C 365.870 281.406,329.511 331.617,277.600 357.327 C 272.154 360.024,271.044 360.538,267.000 362.235 C 253.620 367.847,237.084 372.157,221.200 374.172 C 191.411 377.952,157.254 373.092,130.800 361.312 C 88.426 342.442,57.471 311.488,38.686 269.200 C 21.749 231.071,19.998 181.570,34.209 142.600 C 35.011 140.400,35.814 138.126,35.992 137.546 C 37.485 132.711,45.115 117.022,49.390 110.000 C 66.014 82.690,88.434 61.159,116.000 46.028 C 119.739 43.976,129.391 39.200,129.800 39.200 C 129.915 39.200,130.772 38.857,131.704 38.437 C 134.395 37.227,141.410 34.622,146.200 33.055 C 158.359 29.077,173.669 26.083,186.400 25.192 C 192.218 24.785,215.411 25.051,218.600 25.561 M162.113 85.966 C 157.707 87.088,153.220 90.836,151.081 95.180 L 149.800 97.781 149.600 120.030 C 149.397 142.557,149.326 143.600,147.975 143.600 C 147.795 143.600,145.792 144.477,143.524 145.549 C 139.304 147.544,124.186 154.607,118.800 157.100 C 117.150 157.864,114.360 159.169,112.600 160.000 C 109.808 161.318,107.140 162.557,101.600 165.105 C 95.490 167.916,91.676 172.932,90.984 179.067 C 89.920 188.500,97.168 197.027,106.673 197.526 C 111.549 197.782,111.431 197.822,125.524 191.152 C 127.792 190.078,129.704 189.200,129.774 189.200 C 129.843 189.200,131.948 188.233,134.450 187.052 C 136.953 185.870,139.990 184.449,141.200 183.894 C 142.410 183.338,146.370 181.496,150.000 179.800 C 153.630 178.105,157.747 176.188,159.149 175.541 C 174.071 168.654,175.903 167.679,178.156 165.427 C 180.682 162.900,182.338 159.648,182.830 156.244 C 183.320 152.863,183.301 101.841,182.809 99.250 C 181.066 90.058,171.116 83.672,162.113 85.966 M228.200 86.425 C 223.765 87.984,219.750 91.899,217.857 96.512 C 217.013 98.568,216.998 99.029,216.887 126.539 C 216.725 166.559,215.586 163.817,236.400 173.498 C 237.830 174.163,240.373 175.350,242.051 176.136 C 243.729 176.921,246.249 178.095,247.651 178.743 C 249.053 179.391,251.730 180.638,253.600 181.512 C 262.245 185.557,263.559 186.169,265.949 187.266 C 267.351 187.909,269.781 189.041,271.349 189.781 C 288.856 198.043,289.832 198.365,294.900 197.557 C 308.487 195.390,313.885 178.633,304.137 168.885 C 302.046 166.794,300.136 165.745,289.872 161.050 C 288.624 160.479,286.297 159.396,284.701 158.643 C 277.617 155.299,273.101 153.200,272.993 153.200 C 272.929 153.200,270.232 151.940,267.000 150.400 C 263.768 148.860,261.073 147.600,261.010 147.600 C 260.947 147.600,258.624 146.523,255.848 145.207 L 250.800 142.814 250.800 122.027 C 250.800 99.647,250.723 98.638,248.713 94.638 C 245.072 87.392,235.899 83.720,228.200 86.425 M171.200 87.071 C 175.483 88.376,178.813 91.296,180.924 95.600 L 182.200 98.200 182.200 128.000 L 182.200 157.800 180.924 160.400 C 178.255 165.842,176.688 166.834,155.049 176.782 C 150.606 178.825,147.541 180.241,144.400 181.703 C 142.750 182.472,138.880 184.272,135.800 185.705 C 132.720 187.138,128.670 189.029,126.800 189.908 C 112.812 196.481,112.891 196.448,110.335 196.809 C 102.502 197.916,92.400 191.820,92.400 185.986 C 92.400 185.580,92.220 185.136,92.000 185.000 C 91.369 184.610,91.532 178.030,92.221 176.049 C 94.417 169.745,97.073 167.656,110.600 161.594 C 111.700 161.101,114.670 159.720,117.200 158.525 C 119.730 157.330,122.520 156.021,123.400 155.616 C 124.280 155.211,126.170 154.339,127.600 153.679 C 129.030 153.018,131.370 151.941,132.800 151.285 C 134.230 150.629,137.110 149.283,139.200 148.293 C 141.290 147.303,144.575 145.751,146.500 144.843 L 150.000 143.192 150.010 121.896 C 150.016 109.304,150.181 99.898,150.416 98.883 C 151.689 93.362,156.022 88.624,161.200 87.089 C 165.317 85.869,167.242 85.865,171.200 87.071 M236.605 86.435 C 242.851 87.589,248.152 92.673,249.584 98.883 C 249.819 99.898,249.984 109.304,249.990 121.896 L 250.000 143.192 253.449 144.823 C 255.347 145.720,258.002 146.963,259.349 147.584 C 260.697 148.205,263.600 149.560,265.800 150.594 C 269.585 152.372,272.433 153.693,277.000 155.788 C 278.100 156.292,280.530 157.427,282.400 158.309 C 284.270 159.191,287.240 160.584,289.000 161.404 C 302.583 167.738,304.628 169.113,306.639 173.267 C 313.577 187.593,299.449 202.016,284.959 195.401 C 281.664 193.896,278.011 192.191,273.800 190.191 C 271.820 189.251,267.770 187.360,264.800 185.990 C 261.830 184.619,257.540 182.621,255.266 181.549 C 252.992 180.477,251.067 179.600,250.988 179.600 C 250.910 179.600,248.540 178.504,245.723 177.165 C 242.905 175.825,239.700 174.309,238.600 173.796 C 236.345 172.743,230.116 169.825,226.800 168.269 C 223.859 166.889,220.649 163.621,219.075 160.404 L 217.800 157.800 217.800 128.000 L 217.800 98.200 219.076 95.600 C 220.854 91.975,225.297 87.600,227.199 87.600 C 227.551 87.600,228.011 87.436,228.220 87.235 C 229.271 86.227,233.366 85.836,236.605 86.435 M161.800 204.597 C 160.700 204.896,157.460 206.255,154.600 207.616 C 149.724 209.937,148.210 210.644,141.900 213.552 C 139.243 214.777,135.539 216.503,130.000 219.098 C 128.130 219.974,122.640 222.538,117.800 224.796 C 112.960 227.054,107.144 229.779,104.876 230.851 C 102.608 231.923,100.661 232.800,100.548 232.800 C 98.971 232.800,94.182 237.620,92.729 240.669 C 85.139 256.608,100.719 269.998,117.629 262.068 C 122.582 259.746,126.220 258.052,129.900 256.355 C 132.895 254.974,135.454 253.780,141.400 250.990 C 147.759 248.006,148.912 247.552,149.252 247.892 C 149.429 248.069,149.624 260.360,149.686 275.206 L 149.800 302.200 151.087 304.829 C 157.306 317.538,175.465 317.401,181.413 304.600 L 182.714 301.800 182.935 261.200 C 183.056 238.870,183.009 219.515,182.832 218.190 C 181.533 208.509,171.428 201.977,161.800 204.597 M229.713 204.363 C 223.276 206.018,218.157 211.681,217.129 218.285 C 216.869 219.953,216.784 235.216,216.889 261.138 L 217.051 301.400 218.459 304.412 C 224.545 317.435,242.573 317.707,248.893 304.872 L 250.200 302.218 250.311 275.218 C 250.372 260.368,250.566 248.074,250.742 247.898 C 251.024 247.616,255.810 249.672,265.500 254.234 C 268.319 255.562,269.334 256.039,278.600 260.395 C 290.023 265.764,293.734 266.232,299.936 263.086 C 306.916 259.546,311.049 249.901,308.459 243.200 C 305.847 236.443,303.902 234.774,292.600 229.594 C 291.280 228.989,288.760 227.822,287.000 226.999 C 285.240 226.177,282.720 225.006,281.400 224.397 C 280.080 223.788,274.500 221.180,269.000 218.602 C 259.132 213.976,256.457 212.730,251.449 210.427 C 250.047 209.782,247.302 208.498,245.349 207.573 C 238.640 204.395,238.388 204.315,234.600 204.170 C 232.620 204.094,230.421 204.181,229.713 204.363 M172.047 205.667 C 176.035 207.272,178.927 209.991,180.913 214.000 L 182.200 216.600 182.200 259.200 L 182.200 301.800 180.890 304.479 C 174.742 317.047,157.494 316.795,151.455 304.049 L 150.200 301.400 150.087 274.100 C 149.994 251.817,149.877 246.800,149.446 246.800 C 149.156 246.800,146.956 247.719,144.559 248.843 C 137.031 252.371,134.492 253.557,131.300 255.040 C 128.029 256.560,124.299 258.306,119.500 260.565 C 113.846 263.225,112.690 263.662,110.288 264.049 C 96.478 266.273,86.631 251.170,94.144 239.286 C 96.418 235.690,97.761 234.820,109.400 229.407 C 113.896 227.317,118.070 225.361,121.800 223.597 C 125.214 221.982,128.596 220.411,132.800 218.487 C 136.842 216.638,147.453 211.695,151.000 210.010 C 161.933 204.817,161.799 204.863,166.247 204.828 C 169.105 204.806,170.359 204.987,172.047 205.667 M238.681 205.257 C 239.968 205.782,243.744 207.527,249.200 210.118 C 251.290 211.111,254.215 212.481,255.700 213.162 C 258.596 214.490,261.293 215.736,267.000 218.385 C 268.980 219.303,271.500 220.471,272.600 220.979 C 277.620 223.297,279.284 224.071,283.400 226.004 C 285.820 227.140,288.970 228.617,290.400 229.286 C 302.062 234.741,304.494 236.328,306.120 239.547 C 306.413 240.126,306.844 240.960,307.077 241.400 C 308.342 243.784,309.008 251.577,308.000 252.200 C 307.780 252.336,307.600 252.780,307.600 253.186 C 307.600 258.989,297.265 265.265,289.712 264.049 C 287.322 263.664,286.161 263.226,280.600 260.613 C 279.060 259.890,276.810 258.840,275.600 258.280 C 274.390 257.720,271.420 256.333,269.000 255.196 C 266.580 254.060,263.520 252.623,262.200 252.003 C 260.880 251.384,257.850 249.959,255.466 248.838 C 253.082 247.717,250.877 246.800,250.566 246.800 C 250.084 246.800,249.999 250.704,249.990 273.100 C 249.984 288.994,249.824 300.079,249.584 301.117 C 247.661 309.457,239.359 315.026,231.016 313.573 C 229.575 313.322,228.296 312.956,228.174 312.759 C 228.053 312.561,227.681 312.400,227.348 312.400 C 225.345 312.400,220.884 308.086,219.076 304.400 L 217.800 301.800 217.800 259.200 L 217.800 216.600 219.082 214.000 C 222.615 206.834,232.136 202.586,238.681 205.257 " stroke="none" fill="#a7e3d2" fill-rule="evenodd"></path></g></svg>