<svg id="svg" version="1.1" xmlns="http://www.w3.org/2000/svg" xmlns:xlink="http://www.w3.org/1999/xlink" width="400" height="400" viewBox="0, 0, 400,400"><g id="svgg"><path id="path0" d="M191.417 3.563 C 191.737 3.647,192.262 3.647,192.583 3.563 C 192.904 3.479,192.642 3.411,192.000 3.411 C 191.358 3.411,191.096 3.479,191.417 3.563 M208.750 3.563 C 209.071 3.647,209.596 3.647,209.917 3.563 C 210.237 3.479,209.975 3.411,209.333 3.411 C 208.692 3.411,208.429 3.479,208.750 3.563 M202.083 15.896 C 202.404 15.980,202.929 15.980,203.250 15.896 C 203.571 15.813,203.308 15.744,202.667 15.744 C 202.025 15.744,201.762 15.813,202.083 15.896 M210.750 16.230 C 211.071 16.314,211.596 16.314,211.917 16.230 C 212.237 16.146,211.975 16.077,211.333 16.077 C 210.692 16.077,210.429 16.146,210.750 16.230 M209.417 23.167 C 209.421 23.900,209.489 24.161,209.569 23.746 C 209.649 23.331,209.646 22.731,209.562 22.413 C 209.479 22.094,209.414 22.433,209.417 23.167 M205.077 25.000 C 205.077 25.642,205.146 25.904,205.230 25.583 C 205.314 25.262,205.314 24.738,205.230 24.417 C 205.146 24.096,205.077 24.358,205.077 25.000 M148.417 30.500 C 148.421 31.233,148.489 31.494,148.569 31.079 C 148.649 30.665,148.646 30.065,148.562 29.746 C 148.479 29.427,148.414 29.767,148.417 30.500 M209.077 32.000 C 209.077 32.642,209.146 32.904,209.230 32.583 C 209.314 32.262,209.314 31.738,209.230 31.417 C 209.146 31.096,209.077 31.358,209.077 32.000 M204.751 33.833 C 204.754 34.567,204.823 34.827,204.902 34.413 C 204.982 33.998,204.979 33.398,204.896 33.079 C 204.812 32.761,204.747 33.100,204.751 33.833 M64.479 57.750 L 63.500 58.833 64.583 57.854 C 65.593 56.942,65.820 56.667,65.562 56.667 C 65.505 56.667,65.017 57.154,64.479 57.750 M215.667 77.194 L 215.667 95.387 212.750 92.472 C 203.524 83.252,191.678 76.362,177.864 72.181 C 175.681 71.520,173.741 71.031,173.554 71.093 C 173.367 71.155,174.516 71.556,176.107 71.984 L 179.000 72.761 179.000 76.136 L 179.000 79.511 181.632 80.447 C 216.367 92.788,236.678 130.232,231.114 171.667 C 229.260 185.479,230.822 196.889,235.978 207.179 C 237.788 210.791,237.908 211.163,237.395 211.565 C 236.914 211.941,236.968 211.956,237.772 211.669 C 240.003 210.871,244.302 211.242,244.509 212.250 C 245.920 219.126,250.468 222.265,258.500 221.907 C 265.818 221.580,269.319 218.806,269.319 213.333 C 269.319 208.428,266.909 206.273,258.333 203.510 C 243.312 198.668,239.167 195.024,239.167 186.659 C 239.167 178.262,245.456 172.834,256.009 172.123 C 266.832 171.394,275.097 177.370,276.471 186.917 L 276.675 188.333 273.004 188.333 L 269.333 188.333 269.333 187.346 C 269.333 176.328,248.618 174.153,246.316 184.929 C 245.211 190.102,248.404 193.353,257.358 196.175 C 266.614 199.091,269.542 200.519,272.697 203.652 C 277.870 208.788,278.038 217.342,273.067 222.440 C 269.524 226.073,263.396 228.163,256.928 227.944 C 254.964 227.878,253.464 227.923,253.595 228.045 C 260.017 234.006,282.224 241.474,288.790 239.880 C 289.181 239.785,291.056 239.539,292.958 239.332 C 328.577 235.470,353.705 189.495,341.163 151.137 C 330.192 117.587,302.760 85.859,269.824 68.625 L 265.333 66.276 265.333 69.138 C 265.333 70.712,265.232 72.000,265.109 72.000 C 264.986 72.000,262.698 71.086,260.026 69.970 C 246.850 64.464,225.138 59.000,216.438 59.000 L 215.667 59.000 215.667 77.194 M74.241 65.592 C 73.008 66.834,72.000 67.941,72.000 68.052 C 72.000 68.163,73.044 67.185,74.319 65.877 L 76.639 63.500 78.569 65.333 L 80.500 67.167 78.678 65.250 C 76.464 62.921,76.927 62.885,74.241 65.592 M57.479 64.750 L 56.500 65.833 57.583 64.854 C 58.593 63.942,58.820 63.667,58.562 63.667 C 58.505 63.667,58.017 64.154,57.479 64.750 M150.198 67.717 C 150.294 67.873,151.226 67.988,152.270 67.974 C 154.463 67.943,154.256 67.782,151.761 67.576 C 150.805 67.498,150.101 67.561,150.198 67.717 M155.921 68.236 C 156.335 68.315,156.935 68.312,157.254 68.229 C 157.573 68.146,157.233 68.080,156.500 68.084 C 155.767 68.088,155.506 68.156,155.921 68.236 M158.750 68.563 C 159.071 68.647,159.596 68.647,159.917 68.563 C 160.237 68.479,159.975 68.411,159.333 68.411 C 158.692 68.411,158.429 68.479,158.750 68.563 M161.417 68.896 C 161.737 68.980,162.262 68.980,162.583 68.896 C 162.904 68.813,162.642 68.744,162.000 68.744 C 161.358 68.744,161.096 68.813,161.417 68.896 M167.833 70.000 C 169.243 70.359,170.454 70.359,169.333 70.000 C 168.875 69.853,168.125 69.736,167.667 69.739 C 166.918 69.745,166.935 69.771,167.833 70.000 M171.000 70.667 C 171.458 70.813,172.133 70.934,172.500 70.934 C 173.028 70.934,172.993 70.878,172.333 70.667 C 171.875 70.520,171.200 70.400,170.833 70.400 C 170.305 70.400,170.340 70.455,171.000 70.667 M319.479 73.417 L 318.500 74.500 319.583 73.521 C 320.179 72.983,320.667 72.495,320.667 72.438 C 320.667 72.180,320.392 72.407,319.479 73.417 M64.158 75.750 L 61.833 78.167 64.250 75.842 C 66.495 73.683,66.819 73.333,66.574 73.333 C 66.524 73.333,65.436 74.421,64.158 75.750 M135.417 74.230 C 135.737 74.314,136.262 74.314,136.583 74.230 C 136.904 74.146,136.642 74.077,136.000 74.077 C 135.358 74.077,135.096 74.146,135.417 74.230 M150.254 74.236 C 150.669 74.315,151.269 74.312,151.587 74.229 C 151.906 74.146,151.567 74.080,150.833 74.084 C 150.100 74.088,149.839 74.156,150.254 74.236 M91.321 77.765 C 91.878 78.502,89.574 81.162,88.675 80.821 C 88.264 80.664,88.248 80.709,88.589 81.053 C 88.932 81.398,89.310 81.181,90.581 79.910 C 92.115 78.376,92.136 78.328,91.510 77.754 C 90.898 77.192,90.889 77.193,91.321 77.765 M69.500 80.000 C 70.216 80.733,70.875 81.333,70.963 81.333 C 71.052 81.333,70.720 80.910,70.224 80.394 C 69.729 79.877,69.439 79.328,69.579 79.173 C 69.719 79.019,69.646 79.001,69.417 79.133 C 69.188 79.265,69.000 79.214,69.000 79.020 C 69.000 78.826,68.820 78.667,68.599 78.667 C 68.378 78.667,68.784 79.267,69.500 80.000 M135.263 80.337 C 113.678 82.282,95.263 92.399,82.551 109.297 C 61.803 136.876,51.560 167.149,51.548 200.923 C 51.545 212.170,51.408 211.746,54.472 209.968 C 57.163 208.407,57.172 208.413,57.493 211.963 C 58.672 225.037,66.370 252.993,70.106 257.773 C 70.443 258.203,72.764 256.967,86.183 249.207 L 101.866 240.137 100.955 243.382 C 97.754 254.783,97.497 271.772,100.358 282.762 C 100.702 284.084,100.923 284.715,100.850 284.163 C 100.720 283.196,104.589 280.333,106.025 280.333 C 106.253 280.333,106.330 280.033,106.218 279.583 C 102.110 263.205,105.674 241.613,115.046 226.090 C 119.541 218.644,132.951 203.667,135.122 203.667 C 135.234 203.667,135.364 208.954,135.412 215.417 L 135.500 227.167 138.833 227.184 L 142.167 227.202 138.957 227.090 L 135.747 226.978 135.513 203.239 C 135.385 190.182,135.329 178.000,135.390 176.167 L 135.500 172.833 139.113 172.833 L 142.726 172.833 147.401 180.000 C 149.972 183.942,152.189 187.242,152.327 187.333 C 152.466 187.425,153.057 188.280,153.641 189.233 L 154.703 190.967 157.268 189.792 C 158.679 189.145,160.733 188.235,161.833 187.769 C 162.933 187.303,165.183 186.235,166.833 185.396 C 168.483 184.556,169.957 183.902,170.108 183.943 C 170.259 183.983,170.280 183.850,170.155 183.647 C 170.029 183.444,170.035 180.886,170.168 177.962 L 170.410 172.645 173.955 172.739 L 177.500 172.833 177.597 175.606 C 177.713 178.901,177.573 178.912,181.196 175.333 C 203.530 153.275,203.469 113.908,181.071 93.604 C 170.419 83.948,152.566 78.777,135.263 80.337 M327.812 81.750 L 326.833 82.833 327.917 81.854 C 328.512 81.316,329.000 80.828,329.000 80.771 C 329.000 80.513,328.725 80.740,327.812 81.750 M84.293 85.750 C 83.446 86.621,82.852 87.333,82.974 87.333 C 83.271 87.333,86.164 84.372,85.979 84.257 C 85.899 84.207,85.140 84.879,84.293 85.750 M75.167 91.000 C 76.255 92.100,77.221 93.000,77.312 93.000 C 77.404 93.000,76.589 92.100,75.500 91.000 C 74.411 89.900,73.446 89.000,73.354 89.000 C 73.263 89.000,74.078 89.900,75.167 91.000 M35.583 125.902 C 35.996 125.981,36.671 125.981,37.083 125.902 C 37.496 125.822,37.158 125.757,36.333 125.757 C 35.508 125.757,35.171 125.822,35.583 125.902 M47.250 126.235 C 47.663 126.315,48.337 126.315,48.750 126.235 C 49.163 126.156,48.825 126.091,48.000 126.091 C 47.175 126.091,46.837 126.156,47.250 126.235 M360.826 129.083 L 357.833 132.167 360.917 129.174 C 363.780 126.394,364.152 126.000,363.910 126.000 C 363.860 126.000,362.473 127.388,360.826 129.083 M39.921 130.236 C 40.335 130.315,40.935 130.312,41.254 130.229 C 41.573 130.146,41.233 130.080,40.500 130.084 C 39.767 130.088,39.506 130.156,39.921 130.236 M353.322 136.583 L 351.500 138.500 353.417 136.678 C 354.471 135.676,355.333 134.813,355.333 134.761 C 355.333 134.514,355.015 134.803,353.322 136.583 M45.667 140.167 C 46.662 141.175,47.552 142.000,47.644 142.000 C 47.736 142.000,46.996 141.175,46.000 140.167 C 45.004 139.158,44.114 138.333,44.023 138.333 C 43.931 138.333,44.671 139.158,45.667 140.167 M373.083 168.563 C 373.404 168.647,373.929 168.647,374.250 168.563 C 374.571 168.479,374.308 168.411,373.667 168.411 C 373.025 168.411,372.762 168.479,373.083 168.563 M190.153 173.083 C 190.066 173.313,190.033 185.575,190.081 200.333 L 190.167 227.167 197.917 227.176 L 205.667 227.186 198.000 227.087 L 190.333 226.988 190.333 199.999 L 190.333 173.011 198.917 172.916 L 207.500 172.822 198.906 172.744 C 192.280 172.684,190.276 172.762,190.153 173.083 M199.735 178.580 C 200.965 178.644,203.065 178.645,204.402 178.581 C 205.739 178.518,204.733 178.465,202.167 178.465 C 199.600 178.464,198.506 178.516,199.735 178.580 M197.157 200.000 C 197.157 211.642,197.199 216.404,197.250 210.583 C 197.301 204.762,197.301 195.237,197.250 189.417 C 197.199 183.596,197.157 188.358,197.157 200.000 M216.333 182.104 C 216.333 182.162,216.821 182.649,217.417 183.188 L 218.500 184.167 217.521 183.083 C 216.608 182.074,216.333 181.847,216.333 182.104 M142.721 191.788 L 142.833 197.910 144.167 197.002 C 144.900 196.502,145.950 195.853,146.500 195.559 C 148.545 194.466,148.522 194.579,147.156 192.287 C 145.138 188.901,143.011 185.667,142.802 185.667 C 142.696 185.667,142.659 188.421,142.721 191.788 M375.909 189.241 C 376.501 189.314,377.551 189.315,378.243 189.243 C 378.934 189.171,378.450 189.111,377.167 189.109 C 375.883 189.108,375.317 189.167,375.909 189.241 M3.411 192.000 C 3.411 192.642,3.479 192.904,3.563 192.583 C 3.647 192.262,3.647 191.737,3.563 191.417 C 3.479 191.096,3.411 191.358,3.411 192.000 M397.744 192.000 C 397.744 192.642,397.813 192.904,397.896 192.583 C 397.980 192.262,397.980 191.737,397.896 191.417 C 397.813 191.096,397.744 191.358,397.744 192.000 M368.421 193.239 C 368.928 193.316,369.678 193.314,370.088 193.235 C 370.498 193.156,370.083 193.093,369.167 193.095 C 368.250 193.098,367.915 193.163,368.421 193.239 M37.411 196.000 C 37.411 196.642,37.479 196.904,37.563 196.583 C 37.647 196.262,37.647 195.737,37.563 195.417 C 37.479 195.096,37.411 195.358,37.411 196.000 M15.744 196.333 C 15.744 196.975,15.813 197.237,15.896 196.917 C 15.980 196.596,15.980 196.071,15.896 195.750 C 15.813 195.429,15.744 195.692,15.744 196.333 M222.462 200.000 C 222.462 202.292,222.515 203.229,222.580 202.083 C 222.645 200.938,222.645 199.063,222.580 197.917 C 222.515 196.771,222.462 197.708,222.462 200.000 M229.437 199.833 C 229.438 200.933,229.501 201.343,229.575 200.744 C 229.649 200.145,229.648 199.245,229.572 198.744 C 229.495 198.243,229.435 198.733,229.437 199.833 M378.421 202.239 C 378.928 202.316,379.678 202.314,380.088 202.235 C 380.498 202.156,380.083 202.093,379.167 202.095 C 378.250 202.098,377.915 202.163,378.421 202.239 M370.909 206.241 C 371.501 206.314,372.551 206.315,373.243 206.243 C 373.934 206.171,373.450 206.111,372.167 206.109 C 370.883 206.108,370.317 206.167,370.909 206.241 M3.411 209.333 C 3.411 209.975,3.479 210.237,3.563 209.917 C 3.647 209.596,3.647 209.071,3.563 208.750 C 3.479 208.429,3.411 208.692,3.411 209.333 M397.744 209.333 C 397.744 209.975,397.813 210.237,397.896 209.917 C 397.980 209.596,397.980 209.071,397.896 208.750 C 397.813 208.429,397.744 208.692,397.744 209.333 M216.982 216.917 L 215.833 218.167 217.083 217.018 C 218.247 215.949,218.487 215.667,218.232 215.667 C 218.176 215.667,217.614 216.229,216.982 216.917 M222.315 220.583 L 221.167 221.833 222.417 220.685 C 223.580 219.615,223.820 219.333,223.565 219.333 C 223.510 219.333,222.947 219.896,222.315 220.583 M339.391 225.398 C 338.415 226.868,337.742 227.993,337.896 227.898 C 338.315 227.639,341.441 222.996,341.294 222.851 C 341.224 222.782,340.368 223.928,339.391 225.398 M171.917 227.246 C 172.879 227.313,174.454 227.313,175.417 227.246 C 176.379 227.178,175.592 227.123,173.667 227.123 C 171.742 227.123,170.954 227.178,171.917 227.246 M168.923 228.037 C 137.833 231.036,114.092 257.100,116.956 285.088 C 120.271 317.494,146.941 344.093,180.333 348.296 C 216.212 352.813,251.426 344.961,280.798 325.893 L 284.096 323.752 281.700 322.353 L 279.304 320.954 280.902 319.709 C 281.781 319.025,283.850 317.424,285.500 316.153 C 295.786 308.228,311.141 292.141,315.437 284.789 C 315.577 284.549,310.002 281.147,300.162 275.467 C 285.547 267.031,283.916 266.000,285.185 266.000 C 286.057 266.000,291.653 264.346,295.000 263.099 C 310.339 257.385,325.979 244.811,337.002 229.331 C 338.683 226.970,337.210 228.650,334.311 232.400 C 332.581 234.637,329.136 238.560,326.655 241.117 L 322.143 245.767 319.394 244.181 C 316.978 242.788,316.696 242.529,317.072 242.051 C 317.307 241.751,316.525 242.345,315.333 243.370 C 287.059 267.700,247.294 267.479,212.500 242.799 C 194.050 229.712,184.634 226.522,168.923 228.037 M325.479 233.417 L 324.500 234.500 325.583 233.521 C 326.593 232.608,326.820 232.333,326.562 232.333 C 326.505 232.333,326.017 232.821,325.479 233.417 M320.660 238.583 L 317.500 241.833 320.750 238.673 C 323.769 235.738,324.152 235.333,323.910 235.333 C 323.861 235.333,322.398 236.796,320.660 238.583 M364.417 253.230 C 364.738 253.314,365.262 253.314,365.583 253.230 C 365.904 253.146,365.642 253.077,365.000 253.077 C 364.358 253.077,364.096 253.146,364.417 253.230 M101.717 288.333 C 101.717 288.608,101.920 289.358,102.167 290.000 C 102.414 290.642,102.616 290.942,102.616 290.667 C 102.616 290.392,102.414 289.642,102.167 289.000 C 101.920 288.358,101.717 288.058,101.717 288.333 M102.692 291.499 C 102.655 291.988,104.380 297.065,104.531 296.913 C 104.602 296.842,104.223 295.520,103.689 293.975 C 103.154 292.431,102.706 291.316,102.692 291.499 M334.649 295.583 L 333.500 296.833 334.750 295.685 C 335.913 294.615,336.153 294.333,335.899 294.333 C 335.843 294.333,335.281 294.896,334.649 295.583 M106.357 301.833 C 106.357 302.017,106.571 302.542,106.833 303.000 C 107.095 303.458,107.310 303.683,107.310 303.500 C 107.310 303.317,107.095 302.792,106.833 302.333 C 106.571 301.875,106.357 301.650,106.357 301.833 M107.690 304.833 C 107.690 305.017,107.905 305.542,108.167 306.000 C 108.429 306.458,108.643 306.683,108.643 306.500 C 108.643 306.317,108.429 305.792,108.167 305.333 C 107.905 304.875,107.690 304.650,107.690 304.833 M325.763 309.644 L 327.167 310.954 326.174 312.060 L 325.182 313.167 326.330 312.088 L 327.478 311.009 326.171 309.671 C 325.453 308.935,324.751 308.333,324.612 308.333 C 324.473 308.333,324.991 308.923,325.763 309.644 M331.095 316.308 L 332.497 317.616 331.675 318.558 L 330.852 319.500 331.831 318.587 L 332.810 317.675 331.504 316.337 C 330.786 315.602,330.084 315.000,329.945 315.000 C 329.806 315.000,330.324 315.589,331.095 316.308 M315.000 318.167 C 314.190 318.992,313.603 319.667,313.695 319.667 C 313.786 319.667,314.524 318.992,315.333 318.167 C 316.143 317.342,316.730 316.667,316.639 316.667 C 316.547 316.667,315.810 317.342,315.000 318.167 M319.333 319.287 C 319.333 319.418,320.085 320.265,321.003 321.170 L 322.673 322.814 323.753 321.665 L 324.833 320.515 323.729 321.507 L 322.624 322.499 320.979 320.774 C 320.074 319.826,319.333 319.157,319.333 319.287 M339.014 321.886 C 339.911 322.696,340.296 323.284,340.162 323.636 C 340.000 324.062,340.044 324.084,340.381 323.750 C 340.790 323.343,338.664 320.667,337.931 320.667 C 337.785 320.667,338.272 321.215,339.014 321.886 M330.649 328.250 L 329.500 329.500 330.750 328.351 C 331.913 327.282,332.153 327.000,331.899 327.000 C 331.843 327.000,331.281 327.563,330.649 328.250 M130.844 330.345 C 131.157 330.691,131.545 330.942,131.706 330.903 C 131.867 330.865,132.538 331.433,133.198 332.167 L 134.396 333.500 133.377 332.135 C 132.194 330.548,131.464 329.892,130.771 329.790 C 130.367 329.731,130.381 329.833,130.844 330.345 M326.916 332.666 L 328.999 334.826 330.583 333.168 L 332.167 331.510 330.582 332.993 L 328.996 334.476 326.915 332.491 L 324.833 330.507 326.916 332.666 M343.479 336.750 L 342.500 337.833 343.583 336.854 C 344.593 335.942,344.820 335.667,344.562 335.667 C 344.505 335.667,344.017 336.154,343.479 336.750 M63.667 342.771 C 63.667 342.828,64.154 343.316,64.750 343.854 L 65.833 344.833 64.854 343.750 C 63.942 342.740,63.667 342.513,63.667 342.771 M148.411 365.000 C 148.411 365.642,148.479 365.904,148.563 365.583 C 148.647 365.262,148.647 364.738,148.563 364.417 C 148.479 364.096,148.411 364.358,148.411 365.000 M191.417 397.896 C 191.737 397.980,192.262 397.980,192.583 397.896 C 192.904 397.813,192.642 397.744,192.000 397.744 C 191.358 397.744,191.096 397.813,191.417 397.896 M208.750 397.896 C 209.071 397.980,209.596 397.980,209.917 397.896 C 210.237 397.813,209.975 397.744,209.333 397.744 C 208.692 397.744,208.429 397.813,208.750 397.896 " stroke="none" fill="#557ba9" fill-rule="evenodd"></path><path id="path1" d="M185.833 0.351 C 86.307 8.374,8.473 85.688,0.506 184.443 C -7.965 289.453,65.879 382.979,170.023 399.143 L 175.546 400.000 200.627 400.000 C 225.577 400.000,225.737 399.996,231.104 399.181 C 317.694 386.038,385.668 318.132,399.143 231.310 L 400.000 225.787 400.000 200.667 L 400.000 175.546 399.143 170.023 C 384.975 78.736,312.348 10.320,219.333 0.638 C 214.847 0.171,190.639 -0.036,185.833 0.351 M219.667 4.150 C 322.428 15.463,397.993 98.736,397.993 200.667 C 397.993 321.920,289.951 414.262,169.864 395.644 C 84.218 382.365,16.042 312.590,5.032 226.945 C 3.654 216.229,3.504 213.643,3.504 200.667 C 3.504 125.196,45.155 57.773,112.628 24.022 C 136.794 11.933,160.248 5.682,189.500 3.532 C 193.845 3.212,215.108 3.648,219.667 4.150 M199.000 17.465 L 199.000 19.333 200.917 19.337 C 201.971 19.339,203.411 19.436,204.118 19.553 L 205.402 19.765 205.192 26.299 C 205.076 29.893,204.895 33.846,204.790 35.083 L 204.599 37.333 206.763 37.333 L 208.927 37.333 209.140 30.750 C 209.256 27.129,209.440 23.133,209.548 21.870 L 209.744 19.573 212.872 19.760 L 216.000 19.947 216.000 18.176 L 216.000 16.405 210.083 16.194 C 206.829 16.078,203.004 15.896,201.583 15.790 L 199.000 15.597 199.000 17.465 M178.833 16.901 C 174.983 17.356,171.815 17.752,171.793 17.781 C 171.771 17.810,172.327 22.333,173.029 27.833 C 173.730 33.333,174.311 38.094,174.319 38.412 C 174.331 38.886,178.077 38.997,178.537 38.537 C 178.557 38.517,178.355 36.577,178.087 34.227 C 177.507 29.124,177.042 29.699,182.231 29.102 C 187.254 28.523,186.630 28.873,186.421 26.754 C 186.267 25.188,186.176 25.024,185.541 25.157 C 182.929 25.705,177.565 26.042,177.337 25.672 C 177.028 25.172,176.604 21.285,176.834 21.055 C 176.926 20.963,179.137 20.602,181.746 20.254 C 184.355 19.906,186.514 19.594,186.542 19.560 C 186.695 19.381,186.216 16.006,186.041 16.037 C 185.927 16.057,182.683 16.446,178.833 16.901 M221.000 16.949 C 221.000 17.337,218.026 36.369,217.832 37.221 C 217.690 37.850,217.850 37.970,219.084 38.162 C 219.863 38.283,220.742 38.450,221.039 38.533 C 221.491 38.659,221.669 38.056,222.149 34.758 C 222.888 29.686,222.895 29.667,223.834 29.667 C 226.209 29.667,226.682 30.184,229.362 35.708 L 231.404 39.917 233.785 40.070 C 235.095 40.154,236.467 40.389,236.833 40.591 C 237.200 40.793,238.217 41.185,239.093 41.462 L 240.685 41.966 242.093 39.823 C 243.743 37.311,243.202 37.405,247.993 38.793 C 252.289 40.037,252.240 39.985,252.300 43.364 L 252.333 45.229 254.675 45.912 L 257.017 46.595 256.843 45.547 C 256.747 44.971,256.204 39.850,255.636 34.167 C 255.068 28.483,254.559 23.787,254.504 23.730 C 254.450 23.674,253.497 23.352,252.386 23.016 L 250.367 22.405 243.639 31.202 C 239.939 36.041,236.804 40.000,236.672 40.000 C 236.541 40.000,236.005 38.987,235.481 37.750 C 234.158 34.626,232.456 31.630,231.536 30.807 L 230.762 30.114 232.648 29.724 C 236.333 28.963,238.344 25.065,236.871 21.539 C 235.957 19.350,234.493 18.759,227.333 17.684 C 224.858 17.312,222.421 16.935,221.917 16.846 C 221.412 16.756,221.000 16.803,221.000 16.949 M156.500 20.448 C 144.662 23.519,146.673 42.488,158.833 42.454 C 166.700 42.432,170.676 37.066,168.863 28.917 C 167.355 22.140,162.582 18.870,156.500 20.448 M228.792 21.372 C 232.395 22.208,233.000 22.641,233.000 24.385 C 233.000 26.911,231.618 27.380,226.223 26.685 C 223.402 26.321,223.555 26.536,224.172 23.799 C 225.007 20.099,224.485 20.373,228.792 21.372 M160.800 24.465 C 165.345 26.364,166.498 35.529,162.502 37.999 C 157.668 40.986,152.667 36.914,152.667 29.990 C 152.667 25.676,156.868 22.822,160.800 24.465 M126.448 31.259 L 118.730 34.730 119.398 36.337 L 120.066 37.944 122.746 36.648 C 124.221 35.935,125.525 35.412,125.645 35.486 C 125.765 35.561,127.481 39.215,129.460 43.608 L 133.057 51.595 135.079 50.802 C 136.191 50.366,137.131 49.970,137.167 49.922 C 137.204 49.873,135.606 46.246,133.617 41.861 C 131.627 37.476,130.000 33.832,130.000 33.762 C 130.000 33.693,131.264 33.029,132.809 32.288 L 135.617 30.940 134.954 29.394 C 134.590 28.543,134.263 27.834,134.229 27.817 C 134.195 27.801,130.693 29.350,126.448 31.259 M251.476 32.762 L 251.713 36.358 250.814 36.132 C 248.267 35.493,246.171 34.764,246.205 34.530 C 246.227 34.386,247.277 32.873,248.539 31.169 C 251.189 27.590,251.135 27.561,251.476 32.762 M265.712 31.100 C 264.972 32.787,263.028 37.190,261.393 40.885 L 258.419 47.604 260.185 48.254 L 261.951 48.905 264.701 42.778 C 266.213 39.408,267.552 36.767,267.675 36.909 C 267.799 37.051,268.232 39.567,268.636 42.500 C 269.041 45.433,269.533 48.928,269.729 50.267 L 270.086 52.701 272.012 53.673 L 273.937 54.645 275.285 51.572 C 276.027 49.883,277.969 45.483,279.601 41.795 L 282.568 35.091 280.819 34.232 L 279.069 33.374 276.305 39.691 C 274.785 43.166,273.441 45.894,273.317 45.754 C 273.194 45.614,272.614 41.980,272.029 37.677 C 271.444 33.375,270.928 29.817,270.883 29.772 C 270.837 29.726,269.958 29.317,268.929 28.861 L 267.058 28.034 265.712 31.100 M112.253 38.098 C 110.636 39.052,110.492 38.577,114.379 45.133 C 116.238 48.268,117.828 50.956,117.913 51.106 C 118.098 51.432,116.688 50.721,108.969 46.592 L 103.104 43.455 101.385 44.296 C 100.440 44.759,99.667 45.282,99.667 45.458 C 99.667 45.964,110.136 63.650,110.441 63.659 C 110.591 63.663,111.363 63.287,112.155 62.822 L 113.596 61.978 110.433 56.572 C 108.694 53.599,107.125 50.897,106.948 50.567 C 106.560 49.845,107.121 50.118,115.569 54.762 L 121.305 57.916 122.986 56.882 C 123.910 56.314,124.667 55.708,124.667 55.537 C 124.667 54.962,114.171 37.344,113.833 37.354 C 113.650 37.359,112.939 37.694,112.253 38.098 M287.716 40.211 C 283.540 42.348,283.849 46.222,288.627 51.642 C 291.674 55.098,291.996 56.097,290.455 57.309 C 287.910 59.311,282.712 55.812,283.552 52.663 L 283.885 51.416 282.136 50.558 L 280.387 49.700 280.027 50.733 C 277.610 57.667,289.104 64.896,294.295 59.705 C 297.269 56.731,296.928 54.028,293.060 49.909 C 288.848 45.423,288.275 44.316,289.808 43.618 C 292.118 42.565,295.775 45.058,295.620 47.580 C 295.511 49.348,298.619 51.669,299.326 50.348 C 302.076 45.209,293.161 37.425,287.716 40.211 M88.000 54.209 C 84.792 56.686,82.120 58.842,82.063 59.000 C 81.951 59.313,94.190 75.433,94.671 75.605 C 95.008 75.726,107.777 66.799,107.941 66.328 C 108.076 65.942,106.366 63.667,105.941 63.667 C 105.768 63.667,103.526 65.272,100.958 67.234 C 98.248 69.305,96.194 70.659,96.061 70.462 C 95.936 70.275,95.100 69.179,94.204 68.026 C 93.283 66.842,92.718 65.836,92.905 65.715 C 94.388 64.751,101.000 59.462,101.000 59.239 C 101.000 58.802,99.294 56.667,98.944 56.667 C 98.774 56.667,96.804 58.089,94.567 59.827 C 92.330 61.565,90.425 62.983,90.333 62.978 C 89.876 62.952,87.255 59.253,87.556 59.056 C 89.327 57.898,96.333 52.456,96.333 52.238 C 96.333 51.745,94.604 49.666,94.210 49.686 C 94.003 49.696,91.208 51.732,88.000 54.209 M300.665 57.721 C 293.531 67.042,293.940 66.239,295.635 67.601 C 297.384 69.006,297.281 69.045,299.537 66.137 C 300.617 64.746,301.679 63.380,301.897 63.101 C 302.347 62.526,303.209 63.012,305.943 65.380 C 309.665 68.605,313.721 68.083,316.299 64.046 C 318.380 60.788,317.999 58.252,315.051 55.734 C 312.246 53.338,307.445 49.667,307.117 49.667 C 306.959 49.667,304.056 53.291,300.665 57.721 M309.644 55.655 C 313.544 57.645,314.527 61.021,311.641 62.513 C 310.275 63.220,309.263 62.835,304.899 59.951 C 304.643 59.783,307.862 55.057,308.263 55.011 C 308.316 55.005,308.938 55.295,309.644 55.655 M74.361 65.806 C 72.944 67.235,72.307 68.117,72.440 68.465 C 72.550 68.751,74.169 71.576,76.037 74.743 C 77.905 77.909,79.504 80.627,79.590 80.783 C 79.797 81.157,79.489 80.986,72.617 76.907 L 66.733 73.416 64.457 75.710 L 62.181 78.003 65.841 81.692 C 67.853 83.721,71.279 87.052,73.453 89.095 L 77.406 92.810 78.536 91.576 C 80.059 89.914,80.364 90.404,73.953 84.198 C 70.810 81.156,68.349 78.667,68.485 78.667 C 68.620 78.667,71.852 80.542,75.667 82.833 C 83.641 87.624,82.846 87.360,84.432 85.736 C 86.008 84.122,86.299 84.989,81.500 77.000 C 79.208 73.185,77.333 69.939,77.333 69.786 C 77.333 69.632,79.958 72.129,83.166 75.333 L 88.999 81.158 90.416 79.720 L 91.833 78.281 84.376 70.974 C 80.275 66.955,76.820 63.667,76.700 63.667 C 76.579 63.667,75.527 64.629,74.361 65.806 M321.998 66.767 C 315.555 68.575,311.452 76.006,313.910 81.417 C 318.002 90.426,329.611 90.088,333.987 80.833 C 337.349 73.724,329.602 64.634,321.998 66.767 M144.667 68.645 C 140.745 69.417,122.048 75.493,122.428 75.872 C 122.484 75.928,124.098 75.693,126.015 75.349 C 140.562 72.741,160.310 73.864,175.162 78.145 L 179.000 79.251 179.000 76.019 L 179.000 72.788 175.829 71.892 C 169.187 70.016,159.073 68.356,151.500 67.900 C 149.845 67.800,147.859 68.016,144.667 68.645 M328.227 71.628 C 332.038 74.389,331.264 79.563,326.531 82.963 C 323.609 85.062,320.076 84.699,318.090 82.096 C 313.964 76.686,322.724 67.641,328.227 71.628 M53.250 87.815 C 47.673 95.166,47.969 94.542,49.482 95.750 C 51.022 96.978,50.981 96.994,53.034 94.346 C 54.024 93.070,54.908 92.024,55.000 92.021 C 55.092 92.018,58.277 94.412,62.079 97.341 C 65.881 100.270,69.106 102.666,69.246 102.666 C 69.544 102.665,71.333 99.909,71.333 99.451 C 71.333 99.212,59.289 89.733,57.558 88.610 C 57.356 88.479,57.994 87.423,59.107 86.045 C 61.335 83.288,61.327 83.328,59.856 82.206 C 58.274 81.000,58.690 80.646,53.250 87.815 M333.893 88.160 C 329.526 91.520,325.860 94.362,325.747 94.475 C 325.517 94.705,328.311 97.667,328.758 97.667 C 328.916 97.667,330.505 96.542,332.291 95.167 C 336.067 92.259,335.755 92.357,336.639 93.789 C 337.646 95.419,337.510 97.248,336.034 101.908 L 334.743 105.982 335.955 107.606 C 336.621 108.500,337.296 109.291,337.455 109.365 C 338.000 109.621,340.630 101.966,340.649 100.068 L 340.667 98.302 342.035 99.401 C 346.893 103.303,353.052 97.011,349.682 91.589 C 348.111 89.061,342.564 81.996,342.174 82.025 C 341.986 82.040,338.260 84.800,333.893 88.160 M344.250 90.172 C 346.690 93.465,346.960 94.792,345.434 95.992 C 343.665 97.384,342.480 96.889,339.918 93.688 C 337.231 90.332,337.247 90.845,339.767 88.924 C 342.302 86.991,341.786 86.848,344.250 90.172 M353.754 100.771 C 352.387 101.695,352.378 101.612,354.209 104.551 C 355.058 105.912,355.695 107.069,355.626 107.122 C 355.557 107.175,352.096 109.209,347.936 111.641 L 340.372 116.064 341.255 117.865 C 342.375 120.147,341.569 120.378,350.238 115.292 C 354.339 112.885,357.739 110.973,357.793 111.042 C 357.847 111.110,358.553 112.253,359.362 113.580 C 360.171 114.908,360.948 115.996,361.088 115.997 C 361.531 116.002,363.658 114.513,363.663 114.195 C 363.670 113.632,355.504 100.014,355.167 100.028 C 354.983 100.035,354.348 100.370,353.754 100.771 M46.141 101.455 C 44.571 102.166,38.351 111.227,37.790 113.621 C 37.673 114.119,54.653 124.667,55.573 124.667 C 55.854 124.667,57.333 121.920,57.333 121.399 C 57.333 121.261,55.687 120.177,53.674 118.991 C 49.434 116.491,49.667 116.867,51.281 115.130 C 52.718 113.583,53.027 113.506,59.252 113.137 L 63.004 112.914 64.169 110.997 C 64.809 109.942,65.333 108.967,65.333 108.830 C 65.333 108.365,56.241 108.864,54.996 109.398 L 53.825 109.900 53.930 107.533 C 54.128 103.066,49.887 99.758,46.141 101.455 M49.654 106.063 C 51.041 107.552,50.476 109.457,47.117 114.619 C 47.059 114.709,43.427 112.660,42.727 112.143 C 42.380 111.887,46.074 105.825,46.740 105.557 C 47.744 105.154,49.012 105.374,49.654 106.063 M356.833 122.351 C 351.700 122.676,346.789 122.956,345.920 122.971 L 344.340 123.000 345.391 125.131 L 346.442 127.263 349.033 127.085 L 351.624 126.908 353.554 130.785 L 355.484 134.662 353.601 136.581 L 351.718 138.500 352.723 140.466 L 353.727 142.432 355.330 140.799 C 356.212 139.901,359.717 136.193,363.118 132.558 L 369.302 125.950 368.246 123.808 C 367.589 122.476,366.997 121.684,366.678 121.713 C 366.397 121.738,361.967 122.025,356.833 122.351 M30.586 127.716 L 29.754 129.833 37.784 137.910 C 42.201 142.352,45.921 145.877,46.052 145.743 C 46.182 145.609,46.577 144.750,46.928 143.833 L 47.567 142.167 45.729 140.269 L 43.891 138.371 45.546 134.435 L 47.201 130.500 49.887 130.533 L 52.573 130.566 53.598 128.488 L 54.622 126.410 46.561 126.200 C 42.128 126.084,36.906 125.901,34.959 125.794 L 31.417 125.599 30.586 127.716 M361.167 129.000 C 359.524 130.650,358.131 132.000,358.071 132.000 C 357.849 132.000,355.649 126.906,355.805 126.751 C 355.987 126.569,360.379 126.118,362.660 126.047 L 364.153 126.000 361.167 129.000 M43.516 130.405 C 43.612 130.501,43.160 131.741,42.513 133.162 L 41.335 135.746 39.918 134.481 C 39.138 133.785,37.677 132.471,36.671 131.560 L 34.841 129.904 39.092 130.068 C 41.430 130.158,43.421 130.310,43.516 130.405 M371.609 134.902 L 370.051 135.358 371.026 138.245 C 372.211 141.749,373.102 141.052,363.267 144.314 C 355.222 146.982,355.040 147.062,355.326 147.814 C 355.487 148.237,355.782 149.190,355.982 149.931 L 356.344 151.279 364.741 148.475 C 369.359 146.933,373.238 145.783,373.361 145.919 C 373.484 146.055,373.990 147.405,374.487 148.919 C 374.983 150.433,375.489 151.610,375.611 151.536 C 375.733 151.462,376.451 151.235,377.207 151.033 L 378.580 150.664 375.963 142.617 C 374.524 138.191,373.306 134.542,373.257 134.508 C 373.207 134.474,372.466 134.652,371.609 134.902 M28.793 140.340 C 26.856 140.613,25.713 141.479,24.914 143.278 C 24.222 144.837,21.310 154.333,21.524 154.333 C 21.670 154.333,38.711 159.541,40.562 160.152 L 41.957 160.612 42.619 158.653 L 43.280 156.695 41.473 156.014 C 40.480 155.640,38.804 155.015,37.750 154.626 C 35.132 153.659,35.153 153.703,36.020 150.943 C 38.252 143.837,35.250 139.433,28.793 140.340 M31.672 144.890 C 33.341 145.875,33.550 146.689,32.917 149.746 C 32.200 153.218,32.252 153.183,29.129 152.300 C 25.881 151.382,25.849 151.354,26.474 149.965 C 26.754 149.343,27.140 148.207,27.331 147.441 C 27.951 144.964,29.879 143.831,31.672 144.890 M374.333 155.346 C 371.492 156.030,366.821 157.147,363.954 157.828 L 358.741 159.065 359.216 161.100 C 359.477 162.219,359.723 163.163,359.762 163.198 C 359.801 163.232,361.558 162.843,363.667 162.334 C 365.775 161.824,370.447 160.705,374.048 159.847 L 380.597 158.286 380.120 156.242 C 379.858 155.118,379.611 154.177,379.571 154.151 C 379.532 154.124,377.175 154.662,374.333 155.346 M19.663 162.738 C 19.442 164.074,18.843 167.567,18.333 170.500 C 17.822 173.433,17.426 175.857,17.452 175.886 C 17.528 175.969,38.159 179.586,38.233 179.529 C 38.270 179.501,38.837 176.258,39.495 172.322 C 40.152 168.387,40.763 164.925,40.853 164.629 C 40.990 164.177,37.811 163.093,37.430 163.461 C 37.391 163.499,36.957 165.949,36.464 168.907 C 35.972 171.865,35.466 174.452,35.340 174.655 C 35.104 175.038,30.837 174.518,30.008 174.005 C 29.671 173.797,30.419 168.644,31.468 163.936 C 31.573 163.468,28.813 162.409,28.446 162.776 C 28.411 162.811,27.972 165.088,27.469 167.836 C 26.966 170.585,26.459 172.947,26.342 173.085 C 26.111 173.359,22.335 172.722,21.898 172.335 C 21.676 172.137,23.001 163.421,23.528 161.622 C 23.648 161.210,23.382 161.024,22.427 160.855 C 21.734 160.732,20.919 160.559,20.616 160.470 C 20.162 160.337,19.993 160.738,19.663 162.738 M371.333 164.393 C 358.789 165.715,359.369 184.606,371.957 184.725 C 379.909 184.800,384.396 180.711,383.909 173.833 C 383.425 167.005,378.886 163.598,371.333 164.393 M377.000 169.292 C 380.656 171.926,380.252 177.347,376.253 179.316 C 369.113 182.831,362.761 178.657,365.574 172.297 C 366.992 169.093,374.121 167.218,377.000 169.292 M253.290 172.357 C 237.677 174.651,233.674 191.662,247.000 199.087 C 249.379 200.413,252.487 201.625,258.333 203.510 C 266.909 206.273,269.319 208.428,269.319 213.333 C 269.319 218.806,265.818 221.580,258.500 221.907 C 250.468 222.265,245.920 219.126,244.509 212.250 C 244.322 211.339,244.304 211.333,241.577 211.338 C 236.914 211.346,236.706 211.593,237.965 215.636 C 242.506 230.228,269.193 232.497,275.567 218.833 C 277.827 213.987,276.607 207.534,272.697 203.652 C 269.542 200.519,266.614 199.091,257.358 196.175 C 248.404 193.353,245.211 190.102,246.316 184.929 C 247.298 180.334,251.017 178.000,257.359 178.000 C 264.297 178.000,269.333 181.931,269.333 187.346 L 269.333 188.333 273.004 188.333 L 276.675 188.333 276.471 186.917 C 274.977 176.538,265.472 170.567,253.290 172.357 M135.566 172.878 C 135.274 173.171,135.270 186.334,135.555 209.250 L 135.776 227.000 139.221 227.000 L 142.667 227.000 142.750 212.250 C 142.796 204.137,142.779 194.838,142.713 191.583 C 142.647 188.329,142.683 185.667,142.794 185.667 C 143.021 185.667,145.458 189.364,146.799 191.745 C 147.288 192.612,148.046 193.708,148.483 194.180 C 148.920 194.652,153.974 202.229,159.714 211.019 L 170.149 227.000 173.741 227.000 L 177.333 227.000 177.408 202.833 C 177.450 189.542,177.487 177.354,177.492 175.750 L 177.500 172.833 173.917 172.739 L 170.333 172.644 170.289 175.405 C 170.265 176.924,170.282 186.379,170.327 196.417 C 170.373 206.517,170.281 214.664,170.121 214.662 C 169.774 214.656,155.385 192.566,154.109 190.080 C 153.614 189.115,152.929 188.025,152.587 187.658 C 152.245 187.291,149.887 183.805,147.346 179.912 L 142.728 172.833 139.263 172.739 C 137.358 172.688,135.694 172.750,135.566 172.878 M190.333 199.975 L 190.333 227.000 199.083 226.996 C 213.636 226.988,219.926 224.724,224.710 217.770 C 231.326 208.154,230.920 189.541,223.910 181.118 C 218.461 174.571,214.607 173.242,200.583 173.073 L 190.333 172.949 190.333 199.975 M211.414 179.317 C 219.279 181.796,223.121 189.617,222.559 202.000 C 221.928 215.881,216.079 221.494,202.488 221.259 L 197.167 221.167 197.081 200.204 C 197.014 183.870,197.087 179.131,197.410 178.741 C 198.075 177.940,208.393 178.364,211.414 179.317 M22.667 182.624 C 17.542 184.317,16.404 186.271,15.984 194.104 C 15.826 197.058,15.727 199.501,15.765 199.533 C 15.803 199.566,19.733 199.761,24.500 199.966 C 29.267 200.171,34.083 200.422,35.202 200.524 L 37.238 200.710 37.470 195.771 C 37.847 187.752,36.685 185.199,31.814 183.340 C 29.682 182.526,24.250 182.101,22.667 182.624 M31.464 187.505 C 33.419 188.433,33.667 189.039,33.667 192.908 L 33.667 196.333 32.083 196.321 C 29.727 196.303,19.606 195.717,19.480 195.591 C 19.206 195.317,19.989 189.337,20.387 188.669 C 21.582 186.658,28.211 185.962,31.464 187.505 M371.583 189.250 L 363.667 189.345 363.667 191.321 L 363.667 193.298 370.750 193.110 L 377.833 192.922 370.750 197.495 L 363.667 202.068 363.667 204.252 L 363.667 206.437 368.417 206.220 C 371.029 206.100,375.829 206.002,379.083 206.001 L 385.000 206.000 385.000 204.012 L 385.000 202.024 377.750 202.216 L 370.500 202.409 377.750 197.837 L 385.000 193.266 385.000 191.133 L 385.000 189.000 382.250 189.077 C 380.738 189.119,375.938 189.197,371.583 189.250 M346.668 198.093 C 342.055 211.720,332.506 226.744,321.141 238.253 L 316.777 242.672 319.460 244.220 L 322.143 245.767 326.655 241.114 C 334.824 232.690,340.366 224.944,342.597 218.833 C 343.858 215.381,348.314 195.202,347.906 194.794 C 347.856 194.745,347.299 196.229,346.668 198.093 M33.833 240.378 C 22.494 243.764,21.013 245.565,23.191 253.326 C 25.070 260.018,27.013 260.236,42.221 255.459 L 45.942 254.290 45.288 252.355 L 44.635 250.420 40.234 251.717 C 37.814 252.430,34.647 253.386,33.196 253.840 C 30.003 254.841,29.161 254.864,27.730 253.991 C 25.596 252.690,25.046 249.123,26.725 247.467 C 27.329 246.872,40.671 242.333,41.817 242.333 C 41.893 242.333,41.652 241.433,41.281 240.333 C 40.909 239.233,40.582 238.346,40.553 238.360 C 40.524 238.375,37.500 239.283,33.833 240.378 M368.333 248.742 C 362.375 249.101,357.468 249.426,357.428 249.464 C 357.389 249.501,357.070 250.454,356.719 251.581 L 356.081 253.630 364.610 260.732 C 374.337 268.832,373.561 268.417,374.332 265.924 L 374.923 264.015 373.045 262.443 C 372.012 261.578,371.114 260.834,371.049 260.789 C 370.984 260.745,371.521 258.936,372.243 256.771 C 373.712 252.363,373.607 252.455,377.237 252.373 L 378.974 252.333 379.344 250.959 C 379.548 250.202,379.850 249.227,380.016 248.792 C 380.263 248.143,380.213 248.008,379.742 248.045 C 379.425 248.070,374.292 248.384,368.333 248.742 M369.541 253.583 C 369.448 253.904,369.121 255.067,368.815 256.167 C 368.052 258.915,368.214 258.921,364.568 255.995 L 361.302 253.373 362.734 253.245 C 367.088 252.855,369.716 252.985,369.541 253.583 M37.130 263.417 L 27.428 267.722 28.391 269.501 L 29.354 271.279 35.573 268.480 C 38.994 266.941,41.829 265.717,41.873 265.762 C 41.917 265.806,39.879 268.886,37.343 272.605 L 32.732 279.368 33.568 281.307 L 34.405 283.247 43.619 279.095 C 48.687 276.812,53.013 274.868,53.232 274.776 C 53.514 274.658,53.378 274.094,52.772 272.857 L 51.913 271.106 45.567 273.886 C 42.077 275.414,39.185 276.628,39.141 276.583 C 39.098 276.537,41.210 273.453,43.836 269.728 L 48.611 262.956 47.775 261.062 C 47.315 260.019,46.915 259.154,46.886 259.139 C 46.857 259.124,42.467 261.049,37.130 263.417 M353.253 265.808 C 346.932 268.064,345.453 277.082,350.640 281.746 C 356.181 286.728,363.933 286.812,367.258 281.927 C 370.042 277.837,369.955 273.258,367.042 270.521 L 366.000 269.542 364.971 270.521 C 363.197 272.210,363.147 272.546,364.451 273.989 C 366.647 276.420,366.719 278.332,364.692 280.359 C 360.555 284.496,350.108 278.733,351.665 273.172 C 352.324 270.820,355.289 268.649,356.674 269.505 C 356.853 269.615,357.005 269.585,357.012 269.436 C 357.018 269.288,357.230 268.304,357.482 267.250 L 357.940 265.333 356.220 265.348 C 355.274 265.356,353.939 265.563,353.253 265.808 M46.928 284.427 C 42.029 287.217,38.017 289.634,38.011 289.798 C 37.993 290.281,39.805 292.999,40.144 292.999 C 40.315 293.000,44.459 290.670,49.352 287.822 L 58.249 282.645 57.375 280.992 C 56.258 278.882,57.215 278.568,46.928 284.427 M103.167 281.730 C 101.883 282.483,100.800 283.123,100.759 283.152 C 99.938 283.727,106.506 302.433,109.835 309.003 C 111.569 312.424,117.177 318.350,125.333 325.378 C 132.086 331.196,132.865 331.785,130.981 329.647 C 119.753 316.907,110.229 298.580,106.784 283.083 C 106.076 279.899,106.204 279.947,103.167 281.730 M341.250 285.119 C 340.746 285.917,340.338 286.704,340.344 286.868 C 340.355 287.175,357.727 297.667,358.223 297.666 C 358.538 297.665,360.339 294.920,360.323 294.465 C 360.312 294.158,342.939 283.666,342.443 283.667 C 342.291 283.668,341.754 284.321,341.250 285.119 M58.421 287.100 C 57.042 288.038,57.026 287.947,59.060 290.889 C 60.217 292.562,60.660 293.465,60.403 293.623 C 58.064 295.069,46.333 303.226,46.333 303.407 C 46.333 303.822,48.447 306.667,48.756 306.667 C 48.918 306.667,52.152 304.549,55.942 301.961 C 59.732 299.373,62.983 297.199,63.167 297.129 C 63.350 297.059,64.175 298.050,65.000 299.331 C 66.701 301.971,66.610 301.926,68.167 300.917 C 69.694 299.928,69.944 300.513,64.812 293.063 C 59.906 285.940,59.999 286.027,58.421 287.100 M335.302 295.228 C 333.516 296.899,327.559 304.855,327.730 305.341 C 327.864 305.719,344.244 317.667,344.629 317.667 C 344.971 317.667,346.667 315.516,346.667 315.082 C 346.667 314.919,345.098 313.672,343.181 312.310 C 339.139 309.438,339.297 309.750,340.983 307.978 L 342.299 306.594 347.497 306.714 L 352.694 306.833 354.046 305.060 C 354.790 304.085,355.321 303.210,355.227 303.116 C 354.948 302.837,345.582 302.810,344.599 303.086 L 343.699 303.338 344.183 302.180 C 346.562 296.486,339.700 291.114,335.302 295.228 M340.081 297.992 C 341.122 298.811,341.409 300.173,340.831 301.556 C 340.322 302.775,337.265 307.004,336.967 306.902 C 336.857 306.864,335.823 305.975,334.670 304.926 L 332.573 303.018 334.019 301.092 C 336.872 297.291,338.277 296.573,340.081 297.992 M63.611 309.665 C 59.334 313.330,55.791 316.460,55.738 316.619 C 55.626 316.956,65.959 328.333,66.377 328.333 C 66.530 328.333,67.139 327.902,67.729 327.374 C 69.021 326.221,69.232 326.611,64.373 321.179 L 60.912 317.310 63.017 315.405 C 65.626 313.045,64.989 312.843,68.835 317.250 C 72.519 321.472,72.281 321.336,73.729 320.041 C 75.007 318.899,75.182 319.247,70.858 314.329 C 69.191 312.433,68.030 310.847,68.218 310.723 C 68.402 310.600,69.268 309.908,70.141 309.184 C 71.729 307.869,71.731 307.868,72.282 308.565 C 74.077 310.835,79.174 316.331,79.475 316.321 C 80.231 316.296,81.755 314.747,81.477 314.287 C 80.939 313.397,71.867 303.000,71.630 303.000 C 71.496 303.000,67.888 305.999,63.611 309.665 M319.197 314.054 C 316.339 317.016,314.000 319.553,314.000 319.690 C 314.000 320.002,328.687 334.333,329.007 334.333 C 329.135 334.333,331.774 331.870,334.870 328.860 L 340.500 323.387 339.222 322.110 L 337.945 320.833 333.812 325.138 L 329.679 329.442 327.756 327.663 C 326.699 326.684,325.698 325.767,325.532 325.624 C 325.366 325.481,326.829 323.697,328.782 321.658 C 332.864 317.399,332.686 317.802,331.133 316.315 L 329.933 315.167 326.289 318.985 L 322.645 322.804 320.911 321.070 L 319.177 319.336 322.180 316.251 C 323.831 314.555,325.620 312.678,326.155 312.082 L 327.128 310.997 325.998 309.832 C 324.515 308.301,325.092 307.943,319.197 314.054 M77.723 325.531 C 73.842 329.857,70.667 333.515,70.667 333.661 C 70.667 334.163,78.434 340.743,79.632 341.254 C 88.019 344.837,98.626 331.524,92.804 324.722 C 91.407 323.090,85.452 317.667,85.057 317.667 C 84.904 317.667,81.604 321.206,77.723 325.531 M87.912 324.833 C 91.767 328.322,91.706 330.471,87.631 334.724 C 83.957 338.559,82.281 338.714,78.500 335.572 C 76.005 333.498,75.737 334.286,81.000 328.214 C 86.262 322.144,85.404 322.564,87.912 324.833 M307.945 324.868 L 305.724 326.698 308.532 333.568 C 310.076 337.347,311.298 340.480,311.248 340.530 C 311.198 340.580,308.574 338.682,305.418 336.311 C 302.262 333.940,299.521 332.000,299.327 332.000 C 298.870 332.000,294.667 335.367,294.667 335.733 C 294.667 336.071,306.855 351.377,307.457 351.794 C 307.904 352.104,310.667 350.512,310.667 349.944 C 310.667 349.778,308.543 346.986,305.947 343.738 C 300.031 336.335,300.382 336.802,301.000 337.169 C 301.275 337.332,304.305 339.611,307.734 342.233 C 314.733 347.585,314.340 347.423,316.214 345.740 L 317.595 344.500 313.995 336.749 C 312.015 332.487,310.519 329.076,310.671 329.169 C 310.823 329.263,313.161 332.113,315.867 335.503 C 318.573 338.893,320.905 341.667,321.049 341.667 C 321.436 341.667,323.667 339.646,323.667 339.295 C 323.667 338.801,310.901 322.998,310.519 323.019 C 310.325 323.030,309.167 323.862,307.945 324.868 M108.383 339.544 C 104.207 341.681,104.515 345.555,109.294 350.975 C 112.340 354.431,112.663 355.430,111.122 356.642 C 108.577 358.644,103.379 355.146,104.219 351.996 L 104.552 350.749 102.786 349.883 L 101.021 349.018 100.659 350.361 C 98.800 357.266,109.962 364.038,114.961 359.039 C 117.935 356.065,117.594 353.361,113.727 349.242 C 109.514 344.757,108.942 343.649,110.474 342.951 C 112.820 341.882,116.424 344.228,116.291 346.736 L 116.203 348.381 117.938 349.330 C 119.915 350.411,120.120 350.288,120.521 347.774 C 121.285 342.997,112.834 337.266,108.383 339.544 M283.417 342.368 C 281.984 343.204,281.698 343.518,281.837 344.111 C 281.930 344.508,282.751 349.467,283.662 355.131 C 285.583 367.077,285.160 366.005,287.439 364.701 L 289.251 363.665 288.783 361.430 C 288.180 358.552,288.026 358.784,292.139 356.350 L 295.673 354.258 297.473 355.796 C 299.587 357.602,299.590 357.602,301.701 356.417 C 303.810 355.232,304.546 356.088,294.656 348.228 C 285.005 340.559,285.805 340.976,283.417 342.368 M124.733 348.326 L 124.077 349.904 126.736 351.200 C 128.198 351.914,129.453 352.591,129.524 352.706 C 129.625 352.869,123.104 367.689,122.503 368.662 C 122.423 368.791,123.315 369.277,124.486 369.742 L 126.614 370.586 130.209 362.604 C 134.437 353.215,133.680 353.997,136.948 355.640 L 139.591 356.969 140.267 355.343 C 140.747 354.186,140.830 353.668,140.555 353.551 C 140.341 353.460,136.842 351.892,132.778 350.067 L 125.389 346.748 124.733 348.326 M291.069 350.620 C 291.932 351.287,292.643 351.908,292.650 352.000 C 292.663 352.200,288.303 354.737,287.848 354.794 C 287.579 354.827,286.064 348.425,286.016 347.055 C 286.007 346.810,286.787 347.239,287.750 348.008 C 288.712 348.777,290.206 349.952,291.069 350.620 M258.132 354.582 L 251.430 357.053 255.046 366.913 C 259.281 378.464,258.388 377.030,260.887 376.278 L 262.941 375.660 261.306 371.428 C 260.406 369.101,259.782 367.093,259.919 366.967 C 260.055 366.841,261.742 366.177,263.667 365.491 C 265.592 364.806,267.341 364.179,267.555 364.098 C 267.829 363.994,267.749 363.485,267.281 362.358 L 266.619 360.766 262.583 362.223 C 260.364 363.025,258.443 363.565,258.315 363.424 C 257.812 362.868,256.653 359.214,256.902 358.970 C 257.048 358.828,259.030 358.019,261.307 357.173 C 266.737 355.157,266.385 355.451,265.543 353.639 L 264.833 352.111 258.132 354.582 M140.598 364.449 C 132.485 374.407,132.926 373.564,135.419 374.336 L 137.339 374.930 138.919 372.979 C 140.745 370.725,140.446 370.748,145.599 372.476 C 149.205 373.684,149.242 373.730,149.300 377.054 L 149.333 378.942 151.417 379.580 C 152.563 379.931,153.522 380.207,153.548 380.193 C 153.637 380.145,151.938 357.168,151.837 357.064 C 151.783 357.007,150.829 356.685,149.717 356.349 L 147.696 355.737 140.598 364.449 M238.333 359.552 C 231.318 360.963,228.086 367.351,230.545 374.948 C 233.598 384.381,247.832 383.540,250.240 373.785 C 252.241 365.675,245.853 358.039,238.333 359.552 M158.852 360.919 C 158.731 361.605,158.560 362.409,158.474 362.706 C 158.346 363.145,158.860 363.355,161.242 363.841 C 162.850 364.168,164.285 364.539,164.430 364.665 C 164.628 364.836,162.500 375.875,161.207 381.390 C 161.097 381.858,164.497 382.910,164.905 382.534 C 164.944 382.498,165.754 378.725,166.706 374.151 C 168.756 364.291,168.223 365.128,171.941 365.934 L 174.962 366.589 175.252 364.878 C 175.411 363.937,175.519 363.128,175.491 363.082 C 175.464 363.035,172.079 362.325,167.971 361.504 C 163.862 360.683,160.179 359.935,159.787 359.842 C 159.179 359.698,159.040 359.858,158.852 360.919 M148.642 367.256 L 148.667 370.013 147.791 369.793 C 142.563 368.481,142.659 368.717,145.762 364.795 L 148.167 361.757 148.392 363.129 C 148.516 363.883,148.628 365.740,148.642 367.256 M178.658 364.063 C 178.654 364.487,178.295 369.258,177.860 374.667 C 177.426 380.075,177.092 384.522,177.119 384.549 C 177.145 384.575,180.317 384.841,184.167 385.139 C 188.017 385.436,191.635 385.755,192.207 385.847 C 193.245 386.014,193.248 386.010,193.420 384.257 C 193.630 382.126,194.296 382.462,189.000 382.027 C 186.525 381.824,183.842 381.573,183.038 381.468 L 181.575 381.279 181.758 378.614 C 181.858 377.148,182.019 375.870,182.114 375.775 C 182.288 375.601,190.055 376.215,191.706 376.532 C 192.543 376.693,192.586 376.628,192.753 374.933 C 192.964 372.788,193.569 373.120,188.666 372.684 C 186.375 372.480,183.993 372.232,183.373 372.133 L 182.246 371.953 182.419 369.791 C 182.515 368.602,182.675 367.547,182.776 367.446 C 182.960 367.263,191.734 367.887,193.373 368.200 C 194.116 368.342,195.114 365.435,194.547 364.779 C 194.521 364.749,191.575 364.486,188.000 364.193 C 184.425 363.901,180.862 363.579,180.083 363.477 C 178.774 363.306,178.666 363.351,178.658 364.063 M242.657 364.162 C 246.839 366.324,247.608 375.334,243.811 377.681 C 239.422 380.393,234.000 376.117,234.000 369.942 C 234.000 365.515,238.920 362.229,242.657 364.162 M203.904 364.474 C 199.403 365.685,197.562 370.626,200.405 373.864 C 201.791 375.443,202.784 375.902,206.438 376.654 C 210.265 377.441,211.293 377.892,211.544 378.890 C 212.623 383.191,205.075 384.232,203.186 380.044 C 202.752 379.079,202.398 378.702,202.030 378.809 C 201.739 378.893,200.789 379.062,199.920 379.185 C 198.175 379.431,198.091 379.806,199.252 382.167 C 202.894 389.565,216.935 386.279,215.505 378.364 C 214.969 375.400,213.338 374.129,208.602 372.984 C 205.083 372.133,203.400 371.403,203.152 370.619 C 202.124 367.381,208.998 366.444,210.323 369.642 C 210.738 370.644,210.750 370.648,212.787 370.444 C 215.278 370.196,215.117 370.340,214.687 368.741 C 213.708 365.106,208.791 363.160,203.904 364.474 " stroke="none" fill="#050505" fill-rule="evenodd"></path><path id="path2" d="M193.667 3.535 C 98.126 8.075,21.179 75.959,6.002 169.098 C -13.522 288.918,79.138 397.763,200.667 397.763 C 332.087 397.763,426.664 271.680,389.997 145.360 C 365.018 59.303,282.007 -0.662,193.667 3.535 M214.750 16.209 L 216.000 16.392 216.000 18.236 L 216.000 20.080 212.872 19.943 L 209.743 19.806 209.528 26.986 C 209.410 30.935,209.228 34.879,209.125 35.750 L 208.937 37.333 206.761 37.333 L 204.585 37.333 204.803 30.083 C 204.923 26.096,205.105 22.121,205.208 21.250 L 205.396 19.667 203.240 19.667 C 199.237 19.667,199.000 19.541,199.000 17.418 L 199.000 15.585 206.250 15.805 C 210.237 15.926,214.063 16.108,214.750 16.209 M186.464 16.527 C 186.827 17.473,186.683 19.682,186.250 19.819 C 186.021 19.891,183.800 20.203,181.315 20.512 L 176.797 21.075 177.100 23.454 C 177.464 26.309,176.715 25.996,181.792 25.418 C 186.701 24.860,186.729 24.871,186.587 27.333 L 186.500 28.833 182.089 29.298 C 177.889 29.740,177.685 29.796,177.825 30.464 C 177.906 30.851,178.145 32.798,178.356 34.791 C 178.805 39.022,178.788 39.051,176.005 38.920 L 174.177 38.833 172.881 28.402 C 172.168 22.665,171.684 17.871,171.806 17.749 C 172.023 17.532,183.145 16.113,185.214 16.038 C 185.888 16.014,186.334 16.188,186.464 16.527 M227.500 17.509 C 233.957 18.520,234.598 18.717,235.912 20.090 C 239.326 23.655,236.791 30.000,231.953 30.000 L 230.949 30.000 231.917 30.969 C 232.805 31.857,234.841 35.629,236.136 38.787 L 236.663 40.073 238.424 37.787 C 241.596 33.667,249.828 22.881,250.051 22.553 C 250.583 21.769,254.655 23.425,254.829 24.496 C 255.224 26.927,257.068 46.376,256.918 46.526 C 256.826 46.618,255.818 46.433,254.677 46.116 C 252.274 45.448,252.000 45.028,252.000 42.015 L 252.000 40.073 249.320 39.350 C 247.846 38.952,245.983 38.429,245.181 38.188 L 243.721 37.748 242.444 39.589 C 241.741 40.601,241.066 41.585,240.943 41.775 C 240.704 42.145,236.782 41.123,236.464 40.609 C 236.371 40.457,235.572 40.333,234.689 40.333 C 231.345 40.333,231.358 40.344,229.333 35.952 C 227.188 31.298,226.323 30.197,224.548 29.864 C 222.937 29.562,223.153 29.123,222.427 34.170 L 221.805 38.500 219.986 38.399 C 218.985 38.344,218.039 38.171,217.883 38.016 C 217.656 37.789,220.374 18.599,220.849 17.083 C 221.024 16.524,221.342 16.544,227.500 17.509 M163.333 20.610 C 167.874 22.346,171.088 32.168,168.718 37.062 C 165.431 43.849,155.067 44.712,150.865 38.550 C 144.168 28.731,152.651 16.525,163.333 20.610 M224.438 23.461 L 223.821 26.167 227.438 26.604 C 231.587 27.105,232.427 26.851,232.840 24.971 C 233.260 23.057,232.303 22.299,228.416 21.471 L 225.055 20.755 224.438 23.461 M155.673 24.899 C 151.951 26.828,151.998 34.254,155.754 37.552 C 159.808 41.112,165.612 37.296,164.852 31.568 C 164.100 25.903,159.785 22.767,155.673 24.899 M135.140 29.350 C 135.473 30.275,135.690 31.074,135.623 31.125 C 135.555 31.176,134.337 31.761,132.917 32.426 C 129.778 33.894,129.667 32.741,133.833 41.968 C 135.758 46.232,137.333 49.822,137.333 49.946 C 137.333 50.194,133.017 51.815,132.874 51.620 C 132.825 51.554,131.248 48.050,129.369 43.833 C 125.253 34.594,125.922 35.313,122.819 36.787 C 121.414 37.454,120.159 38.000,120.031 38.000 C 119.777 38.000,118.511 34.689,118.711 34.546 C 119.103 34.266,133.895 27.714,134.184 27.693 C 134.377 27.678,134.807 28.424,135.140 29.350 M269.084 28.750 C 270.403 29.259,271.072 29.714,271.169 30.167 C 271.247 30.533,271.763 34.118,272.316 38.133 C 272.869 42.148,273.371 45.483,273.433 45.544 C 273.494 45.605,274.722 42.920,276.161 39.577 C 277.601 36.235,278.829 33.437,278.890 33.360 C 278.979 33.249,282.092 34.528,282.634 34.899 C 282.748 34.977,274.428 54.239,274.106 54.643 C 273.805 55.020,269.967 52.812,269.830 52.184 C 269.748 51.808,269.227 48.287,268.672 44.359 C 268.117 40.432,267.618 37.173,267.562 37.118 C 267.507 37.062,266.280 39.675,264.836 42.925 C 263.392 46.175,262.168 48.891,262.116 48.962 C 261.916 49.232,258.500 47.807,258.500 47.454 C 258.500 46.987,266.778 28.022,266.987 28.009 C 267.071 28.004,268.015 28.337,269.084 28.750 M248.557 31.351 C 247.306 33.024,246.349 34.460,246.431 34.542 C 246.513 34.624,247.698 35.036,249.063 35.458 L 251.546 36.224 251.410 34.362 C 251.335 33.338,251.175 31.557,251.054 30.405 L 250.833 28.310 248.557 31.351 M115.858 39.921 C 116.788 41.523,119.247 45.726,121.323 49.261 C 125.539 56.444,125.434 55.738,122.522 57.315 L 121.167 58.049 117.000 55.747 C 114.708 54.481,111.501 52.722,109.873 51.838 L 106.912 50.231 107.769 51.699 C 112.479 59.769,113.667 61.842,113.666 61.992 C 113.666 62.217,110.318 64.102,110.190 63.949 C 109.921 63.628,99.654 46.021,99.496 45.611 C 99.369 45.279,99.904 44.851,101.240 44.215 L 103.167 43.298 106.500 45.086 C 117.676 51.079,117.850 51.163,117.299 50.316 C 115.855 48.093,110.594 38.965,110.705 38.874 C 111.049 38.596,113.855 37.006,114.000 37.008 C 114.092 37.008,114.928 38.319,115.858 39.921 M294.291 40.715 C 298.846 42.932,300.865 46.420,299.634 49.950 C 299.191 51.221,299.265 51.217,297.069 50.083 L 295.293 49.167 295.504 47.728 C 295.848 45.374,292.049 42.570,290.001 43.666 C 288.655 44.386,289.215 45.575,292.517 49.000 C 297.111 53.765,297.599 56.765,294.290 59.896 C 289.326 64.594,278.202 58.402,279.604 51.721 C 280.092 49.391,280.003 49.439,282.123 50.371 L 283.932 51.167 283.760 52.845 C 283.392 56.439,288.591 59.396,290.658 56.769 C 291.651 55.507,291.580 55.339,288.623 51.945 C 283.995 46.633,283.464 43.815,286.554 40.958 C 288.589 39.076,290.782 39.008,294.291 40.715 M95.656 50.869 C 96.290 51.752,96.619 52.495,96.431 52.619 C 94.892 53.627,87.667 59.197,87.667 59.375 C 87.667 59.654,89.978 62.463,90.314 62.592 C 90.446 62.643,92.417 61.258,94.694 59.513 C 96.971 57.769,98.920 56.339,99.027 56.337 C 99.283 56.332,101.438 59.340,101.285 59.491 C 101.220 59.555,99.367 60.983,97.167 62.664 C 92.385 66.317,92.639 65.788,94.509 68.197 C 96.441 70.685,96.032 70.771,101.362 66.750 C 103.853 64.871,105.965 63.333,106.056 63.333 C 106.288 63.333,108.429 66.352,108.285 66.477 C 107.696 66.987,95.158 75.752,94.874 75.853 C 94.564 75.963,82.009 59.917,81.763 59.096 C 81.688 58.846,93.955 49.343,94.360 49.336 C 94.467 49.335,95.050 50.024,95.656 50.869 M308.970 50.728 C 318.204 57.637,319.441 59.847,316.455 64.096 C 313.275 68.621,309.894 68.837,304.994 64.829 C 303.765 63.823,302.624 63.000,302.459 63.000 C 302.213 63.000,299.600 66.140,297.817 68.578 C 297.398 69.152,293.853 66.941,294.084 66.249 C 294.209 65.872,306.800 49.354,306.970 49.342 C 307.045 49.337,307.945 49.961,308.970 50.728 M223.167 53.210 C 275.369 60.344,323.880 100.160,340.892 149.833 C 353.536 186.755,331.580 231.571,297.287 238.840 C 283.450 241.772,265.962 237.636,254.333 228.682 C 253.692 228.188,252.126 227.508,250.853 227.171 C 245.989 225.883,241.127 222.542,239.113 219.105 C 237.400 216.182,236.376 211.333,237.472 211.333 C 237.793 211.333,237.285 210.026,235.887 207.250 C 230.120 195.804,229.130 187.698,231.192 168.833 C 235.614 128.386,215.866 93.210,181.624 80.540 C 162.246 73.370,133.988 72.029,117.500 77.496 C 117.001 77.661,116.959 77.638,117.333 77.404 C 119.486 76.056,140.626 69.165,145.638 68.179 C 148.949 67.527,153.373 66.349,156.667 65.243 C 174.478 59.262,194.272 56.907,213.917 58.432 L 217.333 58.697 217.333 55.573 L 217.333 52.449 218.417 52.579 C 219.012 52.651,221.150 52.935,223.167 53.210 M306.744 57.144 C 304.727 59.726,304.719 59.659,307.229 61.250 C 310.318 63.209,311.913 63.088,312.859 60.822 C 313.597 59.057,312.795 57.714,310.000 56.036 C 308.401 55.076,308.344 55.095,306.744 57.144 M84.500 70.839 L 92.167 78.311 90.583 79.902 L 88.999 81.492 83.311 75.829 L 77.623 70.167 81.870 77.270 L 86.117 84.374 84.579 85.912 L 83.041 87.451 75.937 83.225 L 68.833 78.999 74.473 84.452 L 80.113 89.904 78.819 91.452 C 77.199 93.391,78.373 94.142,69.500 85.493 L 61.833 78.020 64.224 75.622 L 66.615 73.224 72.224 76.501 C 75.309 78.303,78.208 80.015,78.667 80.305 L 79.500 80.833 78.972 80.000 C 78.682 79.542,76.970 76.644,75.170 73.561 L 71.895 67.955 74.189 65.644 C 75.450 64.373,76.561 63.341,76.658 63.350 C 76.754 63.360,80.283 66.730,84.500 70.839 M328.500 67.328 C 335.759 70.855,337.077 78.923,331.333 84.667 C 325.453 90.547,317.254 89.064,313.788 81.494 C 309.996 73.211,320.263 63.326,328.500 67.328 M323.029 71.054 C 320.045 71.911,316.675 76.760,317.182 79.466 C 318.173 84.749,323.598 85.797,327.864 81.531 C 333.099 76.296,329.784 69.113,323.029 71.054 M149.263 80.353 C 172.536 82.888,188.746 95.451,195.277 116.015 C 202.108 137.526,195.397 163.600,179.543 177.145 L 177.671 178.744 177.586 202.955 L 177.500 227.167 173.692 227.167 L 169.884 227.167 159.476 211.218 C 153.752 202.446,148.910 195.110,148.717 194.917 C 148.470 194.670,147.566 195.051,145.686 196.196 L 143.007 197.828 142.920 212.497 L 142.833 227.167 139.088 227.261 L 135.342 227.355 135.254 215.494 L 135.167 203.632 133.333 205.177 C 105.697 228.454,97.637 261.673,111.221 296.319 C 116.727 310.363,123.888 321.859,133.333 331.821 C 137.278 335.982,137.192 335.916,125.834 326.096 C 119.087 320.262,115.761 317.135,113.833 314.812 C 112.367 313.045,109.217 309.907,106.833 307.839 C 91.741 294.745,80.455 280.068,71.649 262.083 C 70.370 259.471,69.228 257.333,69.112 257.333 C 68.995 257.333,67.841 257.944,66.546 258.690 C 63.683 260.341,64.048 260.681,61.365 253.859 C 43.960 209.597,49.399 158.985,75.911 118.500 C 82.475 108.477,88.772 101.031,94.637 96.360 C 109.866 84.228,130.183 78.274,149.263 80.353 M59.862 82.057 C 61.665 83.351,61.696 83.041,59.489 85.806 C 57.228 88.638,56.608 87.677,64.667 93.841 C 68.425 96.716,71.552 99.117,71.616 99.177 C 71.764 99.318,69.568 103.001,69.339 102.996 C 69.244 102.994,66.039 100.594,62.217 97.663 C 58.394 94.732,55.166 92.333,55.043 92.333 C 54.920 92.333,54.000 93.383,53.000 94.667 C 52.000 95.950,51.127 97.000,51.062 97.000 C 50.831 97.000,48.000 94.885,48.000 94.712 C 48.000 94.506,58.115 81.019,58.279 81.008 C 58.341 81.004,59.053 81.475,59.862 82.057 M346.188 86.500 C 349.995 91.479,350.981 93.202,350.993 94.895 C 351.024 99.387,345.625 102.255,342.066 99.638 L 340.667 98.609 340.667 100.438 C 340.667 101.721,340.315 103.196,339.489 105.383 C 337.477 110.706,337.870 110.399,336.104 108.023 L 334.569 105.956 335.951 101.540 C 337.527 96.504,337.604 95.683,336.639 94.123 C 335.732 92.655,335.893 92.605,332.003 95.563 L 328.633 98.125 326.919 96.411 L 325.205 94.697 326.176 93.932 C 331.456 89.772,342.215 81.693,342.393 81.755 C 342.518 81.798,344.226 83.933,346.188 86.500 M339.977 89.015 C 337.628 90.764,337.633 90.638,339.820 93.346 C 342.713 96.926,344.099 97.417,345.672 95.418 C 346.658 94.164,346.522 93.683,344.288 90.543 C 341.899 87.184,342.262 87.313,339.977 89.015 M359.579 106.636 C 361.822 110.460,363.736 113.795,363.831 114.045 C 364.097 114.745,361.034 116.587,360.634 115.968 C 360.468 115.710,359.770 114.565,359.082 113.422 C 357.529 110.839,358.481 110.618,350.216 115.480 C 346.339 117.761,342.934 119.716,342.650 119.824 C 341.981 120.078,339.965 116.095,340.578 115.730 C 340.790 115.604,344.191 113.625,348.136 111.333 C 352.080 109.042,355.313 107.058,355.320 106.926 C 355.328 106.793,354.635 105.554,353.782 104.171 C 352.929 102.789,352.292 101.608,352.366 101.547 C 352.861 101.139,355.187 99.668,355.327 99.674 C 355.422 99.679,357.336 102.811,359.579 106.636 M51.456 102.006 C 53.551 103.335,54.495 105.336,54.232 107.889 C 54.051 109.634,54.061 109.657,54.774 109.260 C 55.222 109.010,57.470 108.805,60.638 108.724 L 65.776 108.593 65.004 109.880 C 64.579 110.588,63.996 111.567,63.709 112.056 C 63.104 113.084,62.224 113.322,58.875 113.361 C 53.970 113.420,52.681 113.737,51.451 115.190 C 50.040 116.858,49.837 116.525,53.657 118.801 C 55.473 119.883,57.144 120.883,57.369 121.022 C 57.947 121.379,56.017 125.074,55.378 124.831 C 54.992 124.684,37.746 114.429,37.368 114.122 C 37.168 113.959,41.566 106.449,43.251 104.076 C 45.655 100.691,48.322 100.018,51.456 102.006 M46.578 106.059 C 45.681 106.877,42.993 111.210,43.009 111.812 C 43.019 112.168,46.352 114.335,46.883 114.331 C 47.462 114.327,50.320 109.034,50.327 107.954 C 50.341 105.914,48.022 104.742,46.578 106.059 M368.471 123.858 L 369.442 126.031 368.098 127.432 C 367.359 128.203,363.878 131.908,360.363 135.667 C 352.846 143.703,353.730 143.161,352.528 140.473 L 351.557 138.299 353.278 136.556 C 355.367 134.441,355.364 134.914,353.305 130.645 L 351.607 127.123 348.887 127.249 L 346.167 127.375 345.245 125.304 C 344.738 124.164,344.404 123.152,344.502 123.054 C 344.691 122.864,361.660 121.777,365.333 121.719 L 367.500 121.685 368.471 123.858 M46.734 125.956 C 55.520 126.228,54.927 126.002,53.755 128.637 L 52.833 130.708 50.105 130.582 L 47.377 130.455 45.853 134.144 C 43.997 138.634,43.981 138.123,46.041 140.208 L 47.749 141.938 46.961 144.136 C 46.527 145.344,46.095 146.333,46.000 146.333 C 45.906 146.333,42.172 142.675,37.704 138.204 L 29.580 130.075 30.370 127.871 L 31.161 125.667 35.164 125.694 C 37.365 125.709,42.572 125.827,46.734 125.956 M359.837 126.405 C 355.424 126.779,355.716 126.509,356.847 129.169 C 358.062 132.028,357.800 132.050,361.017 128.816 C 362.558 127.267,363.747 126.021,363.659 126.047 C 363.572 126.073,361.852 126.234,359.837 126.405 M37.000 131.647 C 38.008 132.581,39.396 133.805,40.084 134.368 L 41.335 135.391 42.334 133.164 C 43.656 130.219,43.727 130.334,40.583 130.330 C 39.071 130.328,37.233 130.241,36.500 130.138 L 35.167 129.949 37.000 131.647 M375.887 141.825 C 378.937 150.964,378.896 150.630,377.054 151.253 C 375.304 151.845,375.305 151.846,374.191 148.448 L 373.299 145.729 364.914 148.529 C 360.302 150.069,356.428 151.217,356.305 151.081 C 355.825 150.549,354.943 147.259,355.213 147.012 C 355.371 146.868,359.200 145.523,363.723 144.023 L 371.945 141.296 370.974 138.424 C 369.915 135.290,369.908 135.343,371.441 134.772 C 373.294 134.080,373.312 134.109,375.887 141.825 M33.769 140.815 C 36.450 142.108,37.707 145.715,36.681 149.167 C 36.463 149.900,36.089 151.196,35.849 152.047 L 35.413 153.595 39.290 155.017 C 41.422 155.799,43.219 156.481,43.284 156.531 C 43.441 156.655,42.316 160.095,42.007 160.435 C 41.768 160.699,22.097 154.831,21.557 154.335 C 21.058 153.876,24.613 142.945,25.608 141.876 C 27.437 139.913,30.950 139.456,33.769 140.815 M28.567 145.464 C 27.905 146.184,26.154 150.932,26.445 151.222 C 26.598 151.376,32.000 152.949,32.000 152.840 C 32.000 152.795,32.301 151.550,32.668 150.072 C 33.759 145.690,31.105 142.708,28.567 145.464 M380.277 156.110 C 380.889 158.617,381.689 158.236,370.078 160.981 C 358.715 163.667,359.586 163.653,359.027 161.156 C 358.488 158.750,357.561 159.192,368.938 156.436 C 380.550 153.624,379.677 153.649,380.277 156.110 M23.450 160.994 C 23.606 161.144,23.297 163.719,22.763 166.717 L 21.793 172.167 23.980 172.679 C 25.947 173.139,26.180 173.139,26.300 172.679 C 26.373 172.397,26.831 170.067,27.317 167.500 L 28.201 162.833 29.683 162.932 C 31.814 163.074,31.816 163.083,30.747 168.794 C 30.112 172.183,29.899 174.000,30.136 174.000 C 30.336 174.001,31.568 174.204,32.873 174.453 L 35.245 174.906 36.230 169.203 L 37.215 163.500 38.846 163.588 C 39.742 163.636,40.610 163.810,40.774 163.974 C 41.084 164.284,38.756 178.934,38.316 179.445 C 38.060 179.743,18.031 176.394,17.545 175.973 C 17.310 175.769,19.356 162.300,19.863 160.713 C 20.018 160.225,22.884 160.450,23.450 160.994 M377.746 164.663 C 385.631 167.613,386.427 179.696,378.987 183.500 C 370.026 188.081,360.547 181.677,362.295 172.223 C 363.500 165.705,370.880 162.094,377.746 164.663 M370.108 169.130 C 366.230 170.389,364.524 172.956,365.193 176.524 C 366.399 182.951,379.364 181.028,379.326 174.427 C 379.300 169.934,375.087 167.513,370.108 169.130 M211.913 173.330 C 223.732 176.163,229.469 184.879,229.469 200.000 C 229.469 213.211,225.878 220.225,216.833 224.680 C 212.165 226.979,211.366 227.102,200.083 227.251 L 190.000 227.385 190.000 200.026 L 190.000 172.667 199.583 172.669 C 207.973 172.671,209.509 172.753,211.913 173.330 M197.667 199.833 L 197.667 221.000 202.924 221.000 C 216.857 221.000,222.129 215.190,222.129 199.833 C 222.129 184.099,216.784 178.681,201.250 178.669 L 197.667 178.667 197.667 199.833 M31.594 183.067 C 33.926 183.935,35.948 185.526,36.804 187.167 C 37.517 188.532,37.902 199.878,37.257 200.521 C 37.021 200.757,20.979 200.170,17.366 199.794 L 15.566 199.606 15.787 194.471 C 16.103 187.157,16.954 185.182,20.578 183.366 C 23.560 181.871,28.055 181.750,31.594 183.067 M168.432 184.695 C 167.845 185.071,164.695 186.576,161.432 188.040 C 158.169 189.503,155.381 190.820,155.235 190.965 C 155.035 191.165,168.934 213.045,169.829 213.940 C 169.923 214.034,170.000 207.336,170.000 199.056 C 170.000 190.775,169.887 184.003,169.750 184.006 C 169.612 184.009,169.019 184.319,168.432 184.695 M23.563 187.014 C 20.736 187.721,20.083 188.707,19.723 192.811 L 19.479 195.592 25.323 195.808 C 28.537 195.927,31.743 196.110,32.448 196.214 L 33.729 196.403 33.615 192.838 C 33.505 189.423,33.461 189.241,32.578 188.482 C 31.023 187.145,26.186 186.358,23.563 187.014 M384.997 191.250 L 384.994 193.500 382.580 194.984 C 381.253 195.800,378.129 197.752,375.639 199.322 L 371.111 202.176 378.055 202.050 L 385.000 201.924 385.000 203.913 L 385.000 205.901 382.250 206.115 C 380.738 206.233,375.938 206.330,371.583 206.331 L 363.667 206.333 363.676 204.083 L 363.685 201.833 367.093 199.676 C 368.967 198.490,372.025 196.537,373.888 195.337 L 377.277 193.153 370.472 193.282 L 363.667 193.410 363.667 191.387 L 363.667 189.364 365.917 189.247 C 367.154 189.183,371.954 189.101,376.583 189.065 L 385.000 189.000 384.997 191.250 M349.142 190.250 C 349.071 190.571,347.959 196.233,346.670 202.833 C 344.723 212.809,344.050 215.604,342.678 219.403 C 341.622 222.326,340.609 226.050,339.867 229.736 C 336.191 247.993,329.058 265.118,318.531 280.959 C 316.779 283.595,315.420 285.870,315.509 286.015 C 315.599 286.160,316.646 286.824,317.836 287.489 C 320.469 288.962,320.465 288.762,317.927 292.096 C 286.936 332.808,233.638 355.066,182.333 348.722 C 150.560 344.794,125.928 323.875,118.488 294.500 C 110.256 261.998,132.978 231.890,168.707 227.959 C 184.122 226.263,194.048 229.611,212.667 242.786 C 243.922 264.902,279.743 267.425,307.000 249.429 C 325.253 237.379,341.682 215.038,347.688 194.099 C 348.256 192.120,348.779 190.313,348.850 190.083 C 349.047 189.448,349.289 189.587,349.142 190.250 M41.387 240.315 C 41.726 241.313,41.890 242.235,41.752 242.364 C 41.544 242.557,32.082 245.573,28.084 246.720 C 25.086 247.581,25.283 252.907,28.359 254.138 L 29.744 254.692 37.083 252.490 C 41.119 251.279,44.532 250.411,44.666 250.561 C 45.132 251.079,46.003 254.130,45.752 254.364 C 45.371 254.718,36.114 257.581,32.290 258.527 C 26.030 260.075,22.333 256.561,22.333 249.063 C 22.333 244.357,23.807 243.232,34.000 240.155 C 40.958 238.055,40.616 238.047,41.387 240.315 M380.333 248.221 C 380.333 251.127,378.720 252.667,375.674 252.667 L 373.725 252.667 372.390 256.657 L 371.056 260.648 373.027 262.240 C 375.185 263.985,375.214 264.078,374.362 266.500 C 373.612 268.631,374.560 269.156,365.323 261.500 C 360.898 257.833,356.962 254.586,356.576 254.284 C 355.836 253.705,356.512 250.008,357.466 249.418 C 358.198 248.966,380.333 247.807,380.333 248.221 M365.087 253.315 L 361.673 253.500 364.723 255.920 C 366.400 257.250,367.829 258.282,367.898 258.213 C 368.510 257.601,369.535 253.007,369.047 253.065 C 368.746 253.101,366.964 253.214,365.087 253.315 M47.949 261.008 L 48.727 263.015 47.180 265.258 C 46.330 266.491,44.218 269.487,42.487 271.917 C 40.757 274.346,39.384 276.333,39.438 276.333 C 39.492 276.333,42.285 275.133,45.646 273.667 C 49.007 272.200,51.849 271.003,51.961 271.006 C 52.209 271.013,53.813 274.646,53.629 274.783 C 53.360 274.985,35.143 283.097,34.667 283.228 C 34.314 283.324,33.935 282.763,33.382 281.330 L 32.598 279.295 33.763 277.564 C 34.404 276.612,36.443 273.621,38.294 270.917 C 40.145 268.212,41.609 266.000,41.548 266.000 C 41.486 266.000,38.774 267.200,35.521 268.667 C 32.267 270.133,29.501 271.333,29.372 271.333 C 29.133 271.333,27.222 267.639,27.401 267.523 C 27.841 267.238,46.577 259.046,46.835 259.026 C 47.019 259.012,47.520 259.903,47.949 261.008 M357.862 265.453 C 358.437 266.953,357.151 269.484,355.687 269.734 C 348.018 271.043,352.139 280.868,360.648 281.559 C 365.238 281.931,367.550 277.629,364.508 274.376 L 362.936 272.696 364.353 271.014 C 366.031 269.024,365.930 269.046,367.231 270.417 C 372.364 275.826,368.343 285.174,360.706 285.586 C 350.343 286.144,343.693 275.809,349.509 268.185 C 351.247 265.906,357.278 263.934,357.862 265.453 M57.463 280.844 C 57.992 281.857,58.367 282.735,58.296 282.796 C 57.983 283.061,40.762 292.984,40.320 293.154 C 39.882 293.322,37.359 289.810,37.718 289.530 C 38.083 289.246,56.196 279.002,56.333 279.002 C 56.425 279.002,56.933 279.831,57.463 280.844 M351.788 288.890 C 356.580 291.758,360.552 294.146,360.616 294.196 C 360.948 294.458,358.455 297.990,358.048 297.834 C 357.677 297.692,340.452 287.454,340.051 287.138 C 339.718 286.875,342.212 283.343,342.619 283.500 C 342.871 283.596,346.997 286.022,351.788 288.890 M64.815 292.786 C 67.371 296.508,69.508 299.692,69.564 299.860 C 69.716 300.319,66.643 302.164,66.384 301.770 C 66.265 301.588,65.567 300.516,64.833 299.389 C 63.173 296.836,64.144 296.543,56.165 302.009 C 52.411 304.581,49.151 306.751,48.920 306.831 C 48.537 306.964,46.516 304.580,46.166 303.584 C 46.079 303.335,48.914 301.210,53.168 298.333 C 57.099 295.675,60.320 293.376,60.325 293.225 C 60.329 293.073,59.557 291.837,58.608 290.478 C 57.659 289.119,56.946 287.953,57.024 287.888 C 57.509 287.484,59.851 286.001,59.994 286.009 C 60.089 286.013,62.258 289.063,64.815 292.786 M341.375 294.364 C 344.072 295.719,345.381 298.540,344.579 301.272 L 344.121 302.833 349.144 302.726 C 355.900 302.581,356.002 302.628,354.224 305.095 L 352.833 307.024 347.737 306.805 L 342.641 306.585 341.321 307.973 C 339.635 309.745,339.531 309.487,342.922 311.931 C 344.523 313.084,346.112 314.238,346.452 314.494 C 347.112 314.990,345.344 318.170,344.555 317.907 C 343.539 317.569,327.373 305.433,327.491 305.098 C 327.732 304.422,333.336 296.914,334.623 295.545 C 336.759 293.271,338.570 292.955,341.375 294.364 M337.285 297.842 C 336.122 298.470,332.886 302.555,333.103 303.121 C 333.196 303.364,334.125 304.292,335.168 305.182 L 337.062 306.801 337.703 305.984 C 341.010 301.768,341.691 299.749,340.250 298.430 C 339.196 297.465,338.308 297.289,337.285 297.842 M76.833 308.522 C 82.730 315.427,82.305 314.607,80.608 315.809 L 79.231 316.784 78.532 315.937 C 76.366 313.312,71.856 308.333,71.644 308.333 C 71.353 308.333,68.542 310.631,68.408 310.979 C 68.332 311.176,70.083 313.280,74.612 318.439 C 75.093 318.986,73.300 321.252,72.333 321.320 C 72.242 321.326,70.675 319.607,68.853 317.499 C 64.978 313.018,65.631 313.267,63.250 315.366 C 60.859 317.474,60.671 316.833,65.158 321.872 C 69.611 326.872,69.356 326.269,67.613 327.670 L 66.225 328.785 65.196 327.589 C 64.630 326.931,62.217 324.265,59.833 321.666 C 57.450 319.066,55.500 316.824,55.500 316.685 C 55.500 316.430,71.354 302.692,71.667 302.676 C 71.758 302.671,74.083 305.302,76.833 308.522 M326.145 309.644 L 327.425 310.955 323.629 314.993 C 319.075 319.837,319.332 319.203,321.195 321.010 L 322.731 322.500 326.360 318.667 L 329.990 314.833 331.379 316.222 L 332.767 317.610 329.300 321.321 C 325.224 325.683,325.316 325.307,327.793 327.462 L 329.753 329.167 333.872 324.833 L 337.991 320.500 339.412 321.925 L 340.833 323.350 335.000 328.991 C 331.792 332.094,329.092 334.633,329.000 334.633 C 328.908 334.633,325.393 331.282,321.188 327.187 L 313.542 319.742 319.003 314.038 C 325.263 307.498,324.505 307.965,326.145 309.644 M89.160 320.917 C 94.127 325.412,94.778 326.502,94.588 330.013 C 94.197 337.227,86.201 343.560,80.058 341.519 C 78.461 340.989,70.500 334.423,70.500 333.636 C 70.500 333.324,84.726 317.355,85.017 317.342 C 85.118 317.337,86.982 318.946,89.160 320.917 M317.471 331.000 C 321.062 335.492,323.999 339.247,324.000 339.346 C 324.001 339.778,320.920 342.050,320.687 341.789 C 320.545 341.630,318.366 338.912,315.846 335.750 C 313.325 332.587,311.215 330.000,311.156 330.000 C 311.097 330.000,312.538 333.242,314.358 337.204 C 318.252 345.682,318.049 344.571,315.992 346.140 L 314.317 347.418 307.614 342.326 L 300.910 337.235 305.955 343.532 C 308.730 346.996,311.000 349.906,310.999 349.998 C 310.998 350.425,307.623 352.420,307.373 352.141 C 307.140 351.882,295.596 337.399,294.548 336.052 C 294.290 335.720,294.383 335.460,294.904 335.052 C 295.292 334.748,296.447 333.844,297.471 333.043 L 299.334 331.585 305.167 335.963 C 308.375 338.370,311.000 340.295,311.000 340.239 C 311.000 340.184,309.799 337.148,308.331 333.494 C 306.863 329.839,305.700 326.745,305.747 326.618 C 305.890 326.234,310.483 322.664,310.722 322.752 C 310.844 322.797,313.881 326.508,317.471 331.000 M81.072 328.389 C 75.877 334.350,76.116 333.459,79.083 335.809 C 82.660 338.641,84.730 338.135,88.535 333.500 C 91.518 329.865,91.352 328.070,87.739 324.885 C 85.493 322.906,86.152 322.560,81.072 328.389 M114.958 340.048 C 119.513 342.265,121.531 345.754,120.301 349.284 C 119.858 350.554,119.930 350.551,117.740 349.417 L 115.969 348.500 116.176 346.962 C 116.492 344.621,112.714 341.904,110.668 342.999 C 109.322 343.720,109.882 344.908,113.184 348.333 C 117.877 353.202,118.296 356.186,114.738 359.398 C 109.743 363.905,99.758 357.984,100.421 350.909 C 100.618 348.811,100.683 348.778,102.790 349.704 L 104.599 350.500 104.427 352.178 C 104.058 355.772,109.258 358.730,111.325 356.102 C 112.317 354.840,112.246 354.672,109.289 351.278 C 104.662 345.967,104.131 343.148,107.220 340.292 C 109.255 338.410,111.449 338.341,114.958 340.048 M294.667 348.032 C 299.525 351.895,303.538 355.157,303.585 355.283 C 303.632 355.408,302.763 356.009,301.655 356.619 L 299.640 357.726 297.782 356.197 C 295.496 354.315,295.987 354.275,291.868 356.678 L 288.421 358.689 288.865 360.761 C 289.110 361.901,289.315 363.061,289.322 363.340 C 289.338 364.036,285.382 366.207,285.189 365.607 C 285.020 365.079,281.653 343.980,281.661 343.496 C 281.666 343.208,285.192 341.021,285.667 341.012 C 285.758 341.011,289.808 344.170,294.667 348.032 M133.222 350.063 C 137.408 351.930,140.889 353.498,140.956 353.546 C 141.177 353.704,139.876 357.000,139.592 357.000 C 139.441 357.000,138.254 356.465,136.956 355.811 C 133.882 354.263,134.342 353.782,130.356 362.710 C 128.443 366.995,126.836 370.558,126.783 370.628 C 126.649 370.809,122.685 369.300,122.498 368.996 C 122.412 368.858,123.916 365.248,125.838 360.974 C 129.998 351.725,129.883 352.926,126.750 351.416 C 125.329 350.731,124.111 350.140,124.044 350.102 C 123.835 349.984,125.117 346.667,125.372 346.667 C 125.503 346.667,129.036 348.195,133.222 350.063 M286.333 347.630 C 286.333 348.151,287.671 354.449,287.812 354.589 C 288.007 354.785,292.334 352.208,292.243 351.951 C 291.976 351.199,286.333 347.073,286.333 347.630 M265.807 353.683 C 266.140 354.609,266.357 355.408,266.289 355.459 C 266.222 355.511,264.053 356.339,261.470 357.298 L 256.774 359.044 257.579 361.302 L 258.384 363.561 262.369 362.114 C 264.560 361.318,266.469 360.667,266.611 360.667 C 266.883 360.667,268.166 363.966,267.956 364.126 C 267.889 364.177,266.183 364.791,264.167 365.491 C 259.434 367.133,259.651 366.662,261.461 371.373 C 262.321 373.611,262.907 375.549,262.762 375.680 C 262.216 376.176,258.929 377.062,258.657 376.787 C 258.113 376.235,251.316 357.218,251.573 356.968 C 251.865 356.685,264.303 352.049,264.851 352.019 C 265.044 352.009,265.474 352.757,265.807 353.683 M150.006 356.249 C 152.374 356.947,152.047 355.486,153.035 369.766 C 153.843 381.439,153.977 380.570,151.494 379.787 C 149.295 379.094,149.000 378.611,149.000 375.696 L 149.000 373.768 144.917 372.425 L 140.833 371.081 140.167 371.799 C 139.800 372.194,139.016 373.105,138.424 373.825 L 137.349 375.133 135.315 374.483 C 134.196 374.125,133.272 373.703,133.261 373.545 C 133.235 373.165,147.423 355.681,147.764 355.673 C 147.910 355.670,148.919 355.929,150.006 356.249 M244.043 359.843 C 252.297 362.655,253.025 376.670,245.118 380.539 C 237.549 384.242,230.552 379.864,229.509 370.772 C 228.646 363.249,236.564 357.294,244.043 359.843 M167.667 361.288 L 175.500 362.878 175.394 364.522 C 175.250 366.768,175.154 366.809,171.750 366.071 L 168.755 365.422 166.937 373.961 L 165.119 382.500 163.309 382.399 C 162.314 382.344,161.373 382.171,161.217 382.016 C 160.999 381.799,163.880 366.925,164.489 365.120 C 164.569 364.882,163.475 364.498,161.559 364.092 L 158.500 363.444 158.590 361.972 C 158.759 359.194,157.727 359.271,167.667 361.288 M145.747 365.057 C 144.416 366.734,143.384 368.162,143.454 368.232 C 143.524 368.301,144.706 368.706,146.081 369.130 L 148.582 369.901 148.431 366.201 C 148.348 364.165,148.254 362.390,148.223 362.255 C 148.192 362.120,147.078 363.381,145.747 365.057 M186.663 363.852 C 195.234 364.537,194.668 364.378,194.662 366.090 C 194.653 368.519,194.795 368.477,188.455 367.915 C 185.363 367.641,182.816 367.436,182.794 367.459 C 182.773 367.481,182.679 368.494,182.586 369.708 L 182.417 371.916 187.125 372.315 C 193.242 372.833,193.001 372.746,192.995 374.439 C 192.986 376.843,193.071 376.816,187.287 376.259 C 181.231 375.675,182.112 375.300,181.932 378.541 L 181.782 381.249 186.974 381.639 C 194.024 382.169,193.668 382.056,193.662 383.756 C 193.653 386.241,194.020 386.168,185.203 385.434 C 180.875 385.073,177.243 384.687,177.132 384.577 C 176.937 384.381,178.214 365.596,178.525 364.083 C 178.711 363.179,178.351 363.189,186.663 363.852 M238.271 364.194 C 230.923 366.455,234.312 379.452,241.927 378.216 C 245.744 377.597,247.332 372.871,245.359 368.000 C 243.824 364.210,241.782 363.113,238.271 364.194 M211.170 364.622 C 213.700 365.771,215.958 369.522,214.627 370.365 C 213.332 371.185,210.757 370.709,210.055 369.519 C 208.805 367.400,204.781 367.164,203.491 369.133 C 202.498 370.650,203.652 371.620,207.518 372.516 C 213.799 373.973,215.667 375.556,215.667 379.426 C 215.667 387.086,202.442 389.309,199.134 382.206 C 197.817 379.378,197.904 379.196,200.732 378.853 L 202.631 378.623 203.320 379.973 C 204.937 383.143,209.864 383.541,211.253 380.614 C 212.215 378.587,211.139 377.755,206.333 376.814 C 200.107 375.593,197.932 372.807,199.395 367.925 C 200.382 364.630,207.063 362.756,211.170 364.622 " stroke="none" fill="#fbfbfb" fill-rule="evenodd"></path><path id="path3" d="M193.755 3.573 C 194.261 3.649,195.011 3.647,195.421 3.568 C 195.831 3.489,195.417 3.426,194.500 3.429 C 193.583 3.431,193.248 3.496,193.755 3.573 M206.088 3.573 C 206.595 3.649,207.345 3.647,207.755 3.568 C 208.165 3.489,207.750 3.426,206.833 3.429 C 205.917 3.431,205.581 3.496,206.088 3.573 M204.250 15.902 C 204.662 15.981,205.338 15.981,205.750 15.902 C 206.162 15.822,205.825 15.757,205.000 15.757 C 204.175 15.757,203.838 15.822,204.250 15.902 M212.921 16.236 C 213.335 16.315,213.935 16.312,214.254 16.229 C 214.573 16.146,214.233 16.080,213.500 16.084 C 212.767 16.088,212.506 16.156,212.921 16.236 M200.750 19.563 C 201.071 19.647,201.596 19.647,201.917 19.563 C 202.237 19.479,201.975 19.411,201.333 19.411 C 200.692 19.411,200.429 19.479,200.750 19.563 M211.083 19.896 C 211.404 19.980,211.929 19.980,212.250 19.896 C 212.571 19.813,212.308 19.744,211.667 19.744 C 211.025 19.744,210.762 19.813,211.083 19.896 M205.091 22.667 C 205.091 23.492,205.156 23.829,205.235 23.417 C 205.315 23.004,205.315 22.329,205.235 21.917 C 205.156 21.504,205.091 21.842,205.091 22.667 M209.424 25.667 C 209.424 26.492,209.489 26.829,209.569 26.417 C 209.648 26.004,209.648 25.329,209.569 24.917 C 209.489 24.504,209.424 24.842,209.424 25.667 M152.751 30.167 C 152.754 30.900,152.823 31.161,152.902 30.746 C 152.982 30.331,152.979 29.731,152.896 29.413 C 152.812 29.094,152.747 29.433,152.751 30.167 M204.757 31.333 C 204.757 32.158,204.822 32.496,204.902 32.083 C 204.981 31.671,204.981 30.996,204.902 30.583 C 204.822 30.171,204.757 30.508,204.757 31.333 M169.411 33.000 C 169.411 33.642,169.479 33.904,169.563 33.583 C 169.647 33.262,169.647 32.737,169.563 32.417 C 169.479 32.096,169.411 32.358,169.411 33.000 M209.091 34.333 C 209.091 35.158,209.156 35.496,209.235 35.083 C 209.315 34.671,209.315 33.996,209.235 33.583 C 209.156 33.171,209.091 33.508,209.091 34.333 M293.333 50.167 C 293.955 50.808,294.539 51.333,294.631 51.333 C 294.722 51.333,294.289 50.808,293.667 50.167 C 293.045 49.525,292.461 49.000,292.369 49.000 C 292.278 49.000,292.711 49.525,293.333 50.167 M217.333 55.573 L 217.333 58.697 213.917 58.432 C 194.305 56.909,174.676 59.238,156.667 65.224 C 149.972 67.450,149.893 67.515,153.564 67.798 C 178.144 69.691,198.368 78.124,212.750 92.476 L 215.667 95.387 215.667 77.194 L 215.667 59.000 216.438 59.000 C 225.138 59.000,246.850 64.464,260.026 69.970 C 262.698 71.086,264.986 72.000,265.109 72.000 C 265.232 72.000,265.333 70.671,265.333 69.046 L 265.333 66.093 262.750 64.912 C 248.794 58.535,234.206 54.476,218.417 52.579 L 217.333 52.449 217.333 55.573 M339.833 61.000 C 341.476 62.650,342.894 64.000,342.986 64.000 C 343.078 64.000,341.809 62.650,340.167 61.000 C 338.524 59.350,337.106 58.000,337.014 58.000 C 336.922 58.000,338.191 59.350,339.833 61.000 M61.000 61.167 C 59.634 62.542,58.592 63.667,58.683 63.667 C 58.775 63.667,59.968 62.542,61.333 61.167 C 62.699 59.792,63.742 58.667,63.650 58.667 C 63.558 58.667,62.366 59.792,61.000 61.167 M316.315 70.250 L 315.167 71.500 316.417 70.351 C 317.580 69.282,317.820 69.000,317.565 69.000 C 317.510 69.000,316.947 69.563,316.315 70.250 M77.956 70.447 C 78.160 70.693,78.216 71.031,78.080 71.197 C 77.945 71.364,77.976 71.382,78.151 71.238 C 78.329 71.091,80.669 73.139,83.484 75.905 L 88.500 80.833 83.171 75.417 C 78.460 70.629,76.772 69.020,77.956 70.447 M86.000 72.425 C 86.000 72.475,87.162 73.638,88.583 75.008 L 91.167 77.500 88.675 74.917 C 86.361 72.517,86.000 72.181,86.000 72.425 M137.417 74.230 C 137.737 74.314,138.262 74.314,138.583 74.230 C 138.904 74.146,138.642 74.077,138.000 74.077 C 137.358 74.077,137.096 74.146,137.417 74.230 M147.921 74.236 C 148.335 74.315,148.935 74.312,149.254 74.229 C 149.573 74.146,149.233 74.080,148.500 74.084 C 147.767 74.088,147.506 74.156,147.921 74.236 M117.833 77.178 C 116.996 77.582,116.969 77.627,117.667 77.459 C 118.125 77.349,118.642 77.125,118.817 76.963 C 119.249 76.559,119.011 76.611,117.833 77.178 M64.833 81.000 C 66.476 82.650,67.894 84.000,67.986 84.000 C 68.078 84.000,66.809 82.650,65.167 81.000 C 63.524 79.350,62.106 78.000,62.014 78.000 C 61.922 78.000,63.191 79.350,64.833 81.000 M136.587 80.236 C 137.002 80.315,137.602 80.312,137.921 80.229 C 138.239 80.146,137.900 80.080,137.167 80.084 C 136.433 80.088,136.173 80.156,136.587 80.236 M145.750 80.230 C 146.071 80.314,146.596 80.314,146.917 80.230 C 147.237 80.146,146.975 80.077,146.333 80.077 C 145.692 80.077,145.429 80.146,145.750 80.230 M331.146 84.750 L 330.167 85.833 331.250 84.854 C 331.846 84.316,332.333 83.828,332.333 83.771 C 332.333 83.513,332.058 83.740,331.146 84.750 M77.167 87.333 C 78.255 88.433,79.221 89.333,79.312 89.333 C 79.404 89.333,78.589 88.433,77.500 87.333 C 76.411 86.233,75.446 85.333,75.354 85.333 C 75.263 85.333,76.078 86.233,77.167 87.333 M181.667 94.167 C 182.289 94.808,182.872 95.333,182.964 95.333 C 183.056 95.333,182.622 94.808,182.000 94.167 C 181.378 93.525,180.794 93.000,180.703 93.000 C 180.611 93.000,181.045 93.525,181.667 94.167 M38.589 125.908 C 39.188 125.982,40.088 125.981,40.589 125.905 C 41.090 125.829,40.600 125.768,39.500 125.770 C 38.400 125.772,37.990 125.834,38.589 125.908 M50.256 126.242 C 50.855 126.316,51.755 126.314,52.256 126.238 C 52.757 126.162,52.267 126.101,51.167 126.103 C 50.067 126.105,49.657 126.167,50.256 126.242 M365.146 130.417 L 364.167 131.500 365.250 130.521 C 366.260 129.608,366.487 129.333,366.229 129.333 C 366.172 129.333,365.684 129.821,365.146 130.417 M37.587 130.236 C 38.002 130.315,38.602 130.312,38.921 130.229 C 39.239 130.146,38.900 130.080,38.167 130.084 C 37.433 130.088,37.173 130.156,37.587 130.236 M32.500 133.000 C 33.773 134.283,34.890 135.333,34.982 135.333 C 35.074 135.333,34.107 134.283,32.833 133.000 C 31.560 131.717,30.443 130.667,30.351 130.667 C 30.260 130.667,31.227 131.717,32.500 133.000 M359.812 136.083 L 358.833 137.167 359.917 136.188 C 360.926 135.275,361.153 135.000,360.896 135.000 C 360.838 135.000,360.351 135.487,359.812 136.083 M40.333 140.833 C 43.171 143.675,45.567 146.000,45.659 146.000 C 45.750 146.000,43.504 143.675,40.667 140.833 C 37.829 137.992,35.433 135.667,35.341 135.667 C 35.250 135.667,37.496 137.992,40.333 140.833 M354.588 141.509 C 353.903 142.146,353.461 142.667,353.606 142.667 C 353.751 142.667,354.378 142.142,355.000 141.500 C 356.451 140.003,356.202 140.008,354.588 141.509 M231.077 147.333 C 231.077 147.975,231.146 148.237,231.230 147.917 C 231.314 147.596,231.314 147.071,231.230 146.750 C 231.146 146.429,231.077 146.692,231.077 147.333 M231.424 151.000 C 231.424 151.825,231.489 152.162,231.569 151.750 C 231.648 151.337,231.648 150.662,231.569 150.250 C 231.489 149.837,231.424 150.175,231.424 151.000 M231.800 159.500 C 231.800 162.250,231.852 163.331,231.915 161.901 C 231.977 160.472,231.977 158.222,231.914 156.901 C 231.851 155.581,231.800 156.750,231.800 159.500 M231.429 167.167 C 231.431 168.083,231.496 168.419,231.573 167.912 C 231.649 167.405,231.647 166.655,231.568 166.245 C 231.489 165.835,231.426 166.250,231.429 167.167 M344.458 172.167 C 344.459 174.183,344.514 174.965,344.580 173.904 C 344.646 172.844,344.646 171.194,344.579 170.238 C 344.512 169.282,344.457 170.150,344.458 172.167 M231.084 170.500 C 231.088 171.233,231.156 171.494,231.236 171.079 C 231.315 170.665,231.312 170.065,231.229 169.746 C 231.146 169.427,231.080 169.767,231.084 170.500 M230.744 173.333 C 230.744 173.975,230.813 174.237,230.896 173.917 C 230.980 173.596,230.980 173.071,230.896 172.750 C 230.813 172.429,230.744 172.692,230.744 173.333 M207.921 172.902 C 208.335 172.982,208.935 172.979,209.254 172.896 C 209.573 172.812,209.233 172.747,208.500 172.751 C 207.767 172.754,207.506 172.823,207.921 172.902 M362.084 174.167 C 362.088 174.900,362.156 175.161,362.236 174.746 C 362.315 174.331,362.312 173.731,362.229 173.413 C 362.146 173.094,362.080 173.433,362.084 174.167 M384.084 174.500 C 384.088 175.233,384.156 175.494,384.236 175.079 C 384.315 174.665,384.312 174.065,384.229 173.746 C 384.146 173.427,384.080 173.767,384.084 174.500 M180.315 176.250 L 179.167 177.500 180.417 176.351 C 181.580 175.282,181.820 175.000,181.565 175.000 C 181.510 175.000,180.947 175.563,180.315 176.250 M230.429 176.833 C 230.431 177.750,230.496 178.085,230.573 177.579 C 230.649 177.072,230.647 176.322,230.568 175.912 C 230.489 175.502,230.426 175.917,230.429 176.833 M222.333 179.167 C 222.955 179.808,223.539 180.333,223.631 180.333 C 223.722 180.333,223.289 179.808,222.667 179.167 C 222.045 178.525,221.461 178.000,221.369 178.000 C 221.278 178.000,221.711 178.525,222.333 179.167 M177.490 178.750 C 177.227 179.454,177.150 227.317,177.412 227.054 C 177.635 226.832,177.960 178.333,177.740 178.333 C 177.688 178.333,177.576 178.521,177.490 178.750 M197.414 199.917 L 197.333 221.333 202.583 221.259 L 207.833 221.185 202.752 221.084 L 197.672 220.983 197.583 199.741 L 197.495 178.500 197.414 199.917 M206.587 178.902 C 207.002 178.982,207.602 178.979,207.921 178.896 C 208.239 178.812,207.900 178.747,207.167 178.751 C 206.433 178.754,206.173 178.823,206.587 178.902 M230.122 183.500 C 230.123 185.333,230.179 186.041,230.246 185.072 C 230.314 184.104,230.313 182.604,230.245 181.739 C 230.176 180.874,230.121 181.667,230.122 183.500 M24.917 182.235 C 25.329 182.315,26.004 182.315,26.417 182.235 C 26.829 182.156,26.492 182.091,25.667 182.091 C 24.842 182.091,24.504 182.156,24.917 182.235 M169.923 198.889 C 169.992 210.430,169.920 213.990,169.622 213.806 C 169.375 213.653,169.319 213.708,169.472 213.954 C 169.604 214.169,169.852 214.258,170.023 214.152 C 170.394 213.923,170.454 184.114,170.083 183.885 C 169.946 183.800,169.874 190.552,169.923 198.889 M369.762 189.247 C 370.823 189.313,372.473 189.312,373.429 189.245 C 374.385 189.178,373.517 189.124,371.500 189.125 C 369.483 189.125,368.701 189.180,369.762 189.247 M348.899 189.917 C 348.544 190.550,348.352 192.000,348.624 192.000 C 348.791 192.000,348.988 191.475,349.063 190.833 C 349.200 189.665,349.161 189.449,348.899 189.917 M51.433 194.000 C 51.433 195.008,51.496 195.421,51.572 194.917 C 51.648 194.412,51.648 193.588,51.572 193.083 C 51.496 192.579,51.433 192.992,51.433 194.000 M3.424 194.333 C 3.424 195.158,3.489 195.496,3.569 195.083 C 3.648 194.671,3.648 193.996,3.569 193.583 C 3.489 193.171,3.424 193.508,3.424 194.333 M15.751 194.167 C 15.754 194.900,15.823 195.161,15.902 194.746 C 15.982 194.331,15.979 193.731,15.896 193.413 C 15.812 193.094,15.747 193.433,15.751 194.167 M371.750 193.243 C 372.438 193.315,373.563 193.315,374.250 193.243 C 374.938 193.171,374.375 193.112,373.000 193.112 C 371.625 193.112,371.063 193.171,371.750 193.243 M397.762 194.500 C 397.765 195.417,397.829 195.752,397.906 195.245 C 397.982 194.739,397.980 193.989,397.901 193.579 C 397.822 193.169,397.760 193.583,397.762 194.500 M229.437 196.167 C 229.438 197.267,229.501 197.676,229.575 197.077 C 229.649 196.478,229.648 195.578,229.572 195.077 C 229.495 194.576,229.435 195.067,229.437 196.167 M23.750 195.896 C 24.071 195.980,24.596 195.980,24.917 195.896 C 25.238 195.813,24.975 195.744,24.333 195.744 C 23.692 195.744,23.429 195.813,23.750 195.896 M30.750 196.230 C 31.071 196.314,31.596 196.314,31.917 196.230 C 32.237 196.146,31.975 196.077,31.333 196.077 C 30.692 196.077,30.429 196.146,30.750 196.230 M37.411 198.000 C 37.411 198.642,37.479 198.904,37.563 198.583 C 37.647 198.262,37.647 197.737,37.563 197.417 C 37.479 197.096,37.411 197.358,37.411 198.000 M142.667 212.567 C 142.575 220.670,142.614 227.186,142.754 227.047 C 142.893 226.907,142.968 220.277,142.920 212.313 L 142.833 197.833 142.667 212.567 M17.750 199.896 C 18.071 199.980,18.596 199.980,18.917 199.896 C 19.237 199.813,18.975 199.744,18.333 199.744 C 17.692 199.744,17.429 199.813,17.750 199.896 M25.083 200.230 C 25.404 200.314,25.929 200.314,26.250 200.230 C 26.571 200.146,26.308 200.077,25.667 200.077 C 25.025 200.077,24.762 200.146,25.083 200.230 M31.921 200.569 C 32.335 200.649,32.935 200.646,33.254 200.562 C 33.573 200.479,33.233 200.414,32.500 200.417 C 31.767 200.421,31.506 200.489,31.921 200.569 M229.440 203.667 C 229.440 204.858,229.501 205.346,229.574 204.750 C 229.648 204.154,229.648 203.179,229.574 202.583 C 229.501 201.987,229.440 202.475,229.440 203.667 M374.083 202.243 C 374.771 202.315,375.896 202.315,376.583 202.243 C 377.271 202.171,376.708 202.112,375.333 202.112 C 373.958 202.112,373.396 202.171,374.083 202.243 M51.443 206.833 C 51.444 208.117,51.504 208.601,51.577 207.909 C 51.649 207.218,51.648 206.168,51.574 205.576 C 51.500 204.984,51.441 205.550,51.443 206.833 M397.762 206.833 C 397.765 207.750,397.829 208.085,397.906 207.579 C 397.982 207.072,397.980 206.322,397.901 205.912 C 397.822 205.502,397.760 205.917,397.762 206.833 M3.424 207.000 C 3.424 207.825,3.489 208.162,3.569 207.750 C 3.648 207.338,3.648 206.662,3.569 206.250 C 3.489 205.838,3.424 206.175,3.424 207.000 M376.096 206.247 C 377.156 206.313,378.806 206.312,379.762 206.245 C 380.718 206.178,379.850 206.124,377.833 206.125 C 375.817 206.125,375.035 206.180,376.096 206.247 M128.487 209.417 L 126.833 211.167 128.583 209.513 C 129.546 208.603,130.333 207.815,130.333 207.763 C 130.333 207.514,130.025 207.791,128.487 209.417 M54.347 210.005 C 53.163 210.710,52.076 211.213,51.931 211.124 C 51.556 210.892,51.599 211.919,52.170 216.835 C 53.692 229.923,56.672 241.923,61.365 253.859 C 64.048 260.681,63.683 260.341,66.546 258.690 C 67.841 257.944,68.995 257.333,69.112 257.333 C 69.228 257.333,70.370 259.471,71.649 262.083 C 79.291 277.690,88.164 289.973,100.370 301.840 C 104.431 305.789,112.301 312.715,110.925 311.129 C 109.430 309.406,104.716 298.322,102.718 291.833 C 97.549 275.043,96.920 257.755,100.955 243.382 L 101.866 240.137 86.183 249.207 C 72.764 256.967,70.443 258.203,70.106 257.773 C 66.491 253.148,59.201 227.107,57.666 213.333 C 57.062 207.921,57.354 208.214,54.347 210.005 M125.315 212.583 L 124.167 213.833 125.417 212.685 C 126.580 211.615,126.820 211.333,126.565 211.333 C 126.510 211.333,125.947 211.896,125.315 212.583 M237.077 213.000 C 237.077 213.642,237.146 213.904,237.230 213.583 C 237.314 213.262,237.314 212.737,237.230 212.417 C 237.146 212.096,237.077 212.358,237.077 213.000 M338.572 227.076 C 324.866 246.735,307.760 259.808,288.768 265.139 C 287.082 265.613,285.470 266.000,285.185 266.000 C 283.916 266.000,285.547 267.031,300.162 275.467 C 310.002 281.147,315.577 284.549,315.437 284.789 C 311.141 292.141,295.786 308.228,285.500 316.153 C 283.850 317.424,281.785 319.021,280.912 319.701 L 279.324 320.938 281.789 322.420 L 284.254 323.902 287.765 321.367 C 298.675 313.493,310.029 302.476,317.922 292.103 C 320.466 288.761,320.469 288.962,317.836 287.489 C 316.646 286.824,315.599 286.160,315.509 286.015 C 315.420 285.870,316.779 283.595,318.531 280.959 C 326.975 268.253,332.948 255.380,337.179 240.771 C 338.592 235.895,341.137 224.360,340.862 224.084 C 340.796 224.018,339.765 225.364,338.572 227.076 M206.421 227.239 C 206.928 227.316,207.678 227.314,208.088 227.235 C 208.498 227.156,208.083 227.093,207.167 227.095 C 206.250 227.098,205.915 227.163,206.421 227.239 M323.151 235.750 L 321.833 237.167 323.250 235.849 C 324.567 234.624,324.820 234.333,324.568 234.333 C 324.513 234.333,323.876 234.971,323.151 235.750 M318.315 240.583 L 317.167 241.833 318.417 240.685 C 319.580 239.615,319.820 239.333,319.565 239.333 C 319.510 239.333,318.947 239.896,318.315 240.583 M284.417 239.896 C 284.737 239.980,285.262 239.980,285.583 239.896 C 285.904 239.813,285.642 239.744,285.000 239.744 C 284.358 239.744,284.096 239.813,284.417 239.896 M366.587 253.236 C 367.002 253.315,367.602 253.312,367.921 253.229 C 368.239 253.146,367.900 253.080,367.167 253.084 C 366.433 253.088,366.173 253.156,366.587 253.236 M263.923 261.575 C 264.522 261.649,265.422 261.648,265.923 261.572 C 266.424 261.495,265.933 261.435,264.833 261.437 C 263.733 261.438,263.324 261.501,263.923 261.575 M268.589 261.575 C 269.188 261.649,270.088 261.648,270.589 261.572 C 271.090 261.495,270.600 261.435,269.500 261.437 C 268.400 261.438,267.990 261.501,268.589 261.575 M355.921 265.236 C 356.335 265.315,356.935 265.312,357.254 265.229 C 357.573 265.146,357.233 265.080,356.500 265.084 C 355.767 265.088,355.506 265.156,355.921 265.236 M363.000 272.771 C 363.000 272.828,363.488 273.316,364.083 273.854 L 365.167 274.833 364.188 273.750 C 363.275 272.740,363.000 272.513,363.000 272.771 M369.411 275.667 C 369.411 276.308,369.479 276.571,369.563 276.250 C 369.647 275.929,369.647 275.404,369.563 275.083 C 369.479 274.762,369.411 275.025,369.411 275.667 M322.156 310.750 L 320.167 312.833 322.250 310.844 C 323.396 309.750,324.333 308.812,324.333 308.760 C 324.333 308.514,324.004 308.815,322.156 310.750 M328.315 316.583 L 327.167 317.833 328.417 316.685 C 329.104 316.053,329.667 315.490,329.667 315.435 C 329.667 315.180,329.385 315.420,328.315 316.583 M321.000 317.500 C 320.190 318.325,319.603 319.000,319.695 319.000 C 319.786 319.000,320.524 318.325,321.333 317.500 C 322.143 316.675,322.730 316.000,322.639 316.000 C 322.547 316.000,321.810 316.675,321.000 317.500 M117.000 318.500 C 117.622 319.142,118.206 319.667,118.297 319.667 C 118.389 319.667,117.955 319.142,117.333 318.500 C 116.711 317.858,116.128 317.333,116.036 317.333 C 115.944 317.333,116.378 317.858,117.000 318.500 M316.500 322.667 C 318.142 324.317,319.561 325.667,319.653 325.667 C 319.744 325.667,318.476 324.317,316.833 322.667 C 315.191 321.017,313.772 319.667,313.681 319.667 C 313.589 319.667,314.858 321.017,316.500 322.667 M336.151 322.417 L 334.833 323.833 336.250 322.516 C 337.567 321.290,337.820 321.000,337.568 321.000 C 337.513 321.000,336.876 321.637,336.151 322.417 M326.818 323.750 L 325.500 325.167 326.917 323.849 C 328.234 322.624,328.487 322.333,328.234 322.333 C 328.180 322.333,327.542 322.971,326.818 323.750 M91.333 323.104 C 91.333 323.162,91.821 323.649,92.417 324.188 L 93.500 325.167 92.521 324.083 C 91.608 323.074,91.333 322.847,91.333 323.104 M337.989 325.917 L 336.167 327.833 338.083 326.011 C 339.864 324.319,340.153 324.000,339.905 324.000 C 339.853 324.000,338.991 324.862,337.989 325.917 M134.020 332.922 C 134.673 333.833,136.333 335.260,136.333 334.910 C 136.333 334.853,135.637 334.137,134.787 333.319 C 133.487 332.071,133.364 332.007,134.020 332.922 M58.667 337.758 C 58.667 337.809,59.829 338.971,61.250 340.342 L 63.833 342.833 61.342 340.250 C 59.027 337.851,58.667 337.515,58.667 337.758 M339.826 340.417 L 337.167 343.167 339.917 340.508 C 342.471 338.038,342.819 337.667,342.576 337.667 C 342.525 337.667,341.288 338.904,339.826 340.417 M114.000 349.500 C 114.622 350.142,115.206 350.667,115.297 350.667 C 115.389 350.667,114.955 350.142,114.333 349.500 C 113.711 348.858,113.128 348.333,113.036 348.333 C 112.944 348.333,113.378 348.858,114.000 349.500 M191.917 349.569 C 192.329 349.648,193.004 349.648,193.417 349.569 C 193.829 349.489,193.492 349.424,192.667 349.424 C 191.842 349.424,191.504 349.489,191.917 349.569 M206.917 349.569 C 207.329 349.648,208.004 349.648,208.417 349.569 C 208.829 349.489,208.492 349.424,207.667 349.424 C 206.842 349.424,206.504 349.489,206.917 349.569 M148.417 367.167 C 148.421 367.900,148.489 368.161,148.569 367.746 C 148.649 367.331,148.646 366.731,148.562 366.413 C 148.479 366.094,148.414 366.433,148.417 367.167 M229.424 369.333 C 229.424 370.158,229.489 370.496,229.569 370.083 C 229.648 369.671,229.648 368.996,229.569 368.583 C 229.489 368.171,229.424 368.508,229.424 369.333 M193.750 397.905 C 194.254 397.982,195.079 397.982,195.583 397.905 C 196.088 397.829,195.675 397.767,194.667 397.767 C 193.658 397.767,193.246 397.829,193.750 397.905 M205.750 397.905 C 206.254 397.982,207.079 397.982,207.583 397.905 C 208.088 397.829,207.675 397.767,206.667 397.767 C 205.658 397.767,205.246 397.829,205.750 397.905 " stroke="none" fill="#98a4b7" fill-rule="evenodd"></path></g></svg>