<svg id="svg" version="1.1" xmlns="http://www.w3.org/2000/svg" xmlns:xlink="http://www.w3.org/1999/xlink" width="400" height="400" viewBox="0, 0, 400,400"><g id="svgg"><path id="path0" d="M37.860 37.933 C 37.249 38.609,37.205 42.232,37.298 83.833 L 37.400 129.000 38.243 129.120 C 38.879 129.211,39.210 128.917,39.591 127.920 C 40.680 125.069,45.214 116.180,48.221 111.000 C 48.732 110.120,49.523 108.729,49.979 107.908 C 50.435 107.088,51.314 106.155,51.933 105.834 L 53.059 105.252 62.017 114.217 L 70.975 123.182 72.125 122.091 C 72.757 121.491,73.573 120.429,73.937 119.731 C 80.504 107.152,101.084 86.028,116.385 76.160 C 118.483 74.807,120.798 73.139,121.530 72.454 L 122.860 71.208 122.073 70.104 C 121.639 69.497,117.981 65.762,113.943 61.803 C 103.866 51.927,103.982 52.164,108.101 49.877 C 108.970 49.395,110.517 48.519,111.540 47.931 C 115.273 45.787,116.298 45.236,121.651 42.503 C 124.649 40.972,127.484 39.619,127.951 39.497 C 128.541 39.343,128.800 38.958,128.800 38.237 L 128.800 37.200 83.662 37.200 C 40.398 37.200,38.496 37.230,37.860 37.933 M270.073 38.268 C 270.177 39.140,270.540 39.452,272.050 39.968 C 273.068 40.316,274.148 40.799,274.450 41.042 C 274.753 41.285,275.618 41.692,276.374 41.947 C 277.130 42.202,278.030 42.655,278.374 42.954 C 278.718 43.254,279.672 43.715,280.494 43.979 C 281.316 44.242,282.101 44.640,282.238 44.862 C 282.376 45.084,283.233 45.621,284.144 46.054 C 285.055 46.487,286.637 47.327,287.660 47.921 C 288.683 48.514,290.252 49.406,291.148 49.902 C 292.044 50.398,293.041 51.298,293.365 51.902 L 293.953 53.000 284.950 62.030 L 275.947 71.059 277.521 72.430 C 278.386 73.183,280.063 74.400,281.247 75.134 C 282.431 75.867,284.120 76.997,285.000 77.646 C 285.880 78.294,287.050 79.126,287.600 79.495 C 288.540 80.125,290.656 81.780,292.000 82.937 C 292.330 83.221,294.220 84.789,296.200 86.421 C 303.941 92.802,315.648 105.475,320.400 112.618 C 320.730 113.114,321.644 114.483,322.430 115.660 C 324.855 119.289,325.377 120.083,326.045 121.160 C 327.370 123.298,328.286 122.703,336.983 114.056 C 344.036 107.044,346.115 105.200,346.969 105.200 C 347.821 105.200,358.400 124.311,358.400 125.851 C 358.400 126.099,358.648 126.508,358.950 126.759 C 359.253 127.010,359.727 128.026,360.005 129.018 C 360.625 131.234,361.079 131.570,361.601 130.198 C 362.163 128.720,362.148 39.024,361.586 37.974 C 361.180 37.216,360.246 37.200,315.559 37.200 L 269.947 37.200 270.073 38.268 M188.200 38.385 C 186.000 38.562,183.120 38.902,181.800 39.141 C 180.480 39.379,177.560 39.758,175.310 39.982 C 171.217 40.390,165.402 41.648,163.689 42.496 C 162.791 42.941,162.782 43.017,163.030 48.173 C 163.382 55.484,162.893 55.230,172.612 53.155 C 174.598 52.730,177.118 52.298,178.212 52.194 C 179.305 52.090,182.990 51.696,186.400 51.318 C 197.247 50.116,214.053 50.730,223.600 52.679 C 225.250 53.016,227.680 53.472,229.000 53.693 C 230.320 53.914,232.243 54.320,233.273 54.596 C 235.120 55.090,235.152 55.082,235.586 54.035 C 236.278 52.363,235.961 42.769,235.200 42.374 C 234.206 41.859,229.183 40.713,226.200 40.321 C 224.660 40.118,220.700 39.585,217.400 39.135 C 210.703 38.222,195.167 37.823,188.200 38.385 M185.600 58.253 C 184.830 58.343,182.850 58.676,181.200 58.992 C 179.550 59.308,176.703 59.751,174.874 59.975 C 173.044 60.200,170.370 60.748,168.931 61.192 C 167.493 61.636,165.913 62.000,165.420 62.000 C 163.172 62.000,163.182 61.908,163.296 80.993 C 163.413 100.634,163.311 99.998,166.113 98.668 C 166.887 98.301,167.850 98.000,168.253 98.000 C 168.656 98.000,170.339 97.571,171.993 97.047 C 173.647 96.523,176.530 95.789,178.400 95.415 C 180.270 95.042,182.520 94.572,183.400 94.370 C 188.657 93.166,214.234 93.610,218.431 94.978 C 219.404 95.295,221.522 95.749,223.138 95.987 C 224.755 96.225,226.555 96.663,227.138 96.961 C 227.722 97.259,229.154 97.705,230.320 97.951 C 231.486 98.198,232.992 98.685,233.666 99.034 C 235.810 100.143,235.790 100.298,235.912 80.936 C 236.032 61.818,236.051 62.000,233.987 62.000 C 233.373 62.000,231.730 61.641,230.336 61.201 C 228.941 60.762,226.235 60.222,224.323 60.000 C 222.411 59.779,219.621 59.310,218.123 58.958 C 215.495 58.340,189.615 57.779,185.600 58.253 M127.692 77.592 C 126.973 77.763,125.713 78.347,124.892 78.891 C 124.071 79.435,122.500 80.438,121.400 81.119 C 120.300 81.801,118.410 83.097,117.200 84.001 C 115.990 84.904,113.650 86.650,112.000 87.880 C 106.290 92.137,90.008 108.336,88.227 111.531 C 88.022 111.899,87.027 113.280,86.015 114.600 C 83.059 118.458,79.076 124.406,78.249 126.200 C 76.829 129.281,76.052 128.212,89.462 141.641 C 102.740 154.938,102.980 155.116,104.149 152.500 C 104.517 151.675,105.376 150.010,106.056 148.800 C 106.737 147.590,107.640 145.970,108.062 145.200 C 108.484 144.430,109.318 143.066,109.915 142.170 C 110.512 141.273,111.423 139.878,111.940 139.070 C 112.456 138.261,113.012 137.600,113.175 137.600 C 113.338 137.600,113.660 137.186,113.891 136.679 C 115.392 133.386,127.283 120.994,133.400 116.349 C 135.380 114.845,137.360 113.341,137.800 113.007 C 140.645 110.844,141.844 110.021,142.162 110.011 C 142.361 110.005,143.081 109.589,143.762 109.086 C 144.443 108.584,145.450 107.944,146.000 107.663 C 146.550 107.383,147.900 106.637,149.000 106.004 C 150.100 105.372,151.675 104.552,152.500 104.184 C 154.169 103.437,154.247 103.230,153.434 101.680 C 152.917 100.695,129.527 77.146,129.159 77.241 C 129.072 77.263,128.411 77.421,127.692 77.592 M269.800 77.659 C 268.547 78.340,246.016 100.870,245.368 102.091 C 244.792 103.176,244.799 103.186,246.895 104.285 C 252.919 107.444,255.792 109.195,262.000 113.491 C 268.280 117.838,277.864 127.109,283.068 133.872 C 283.546 134.492,284.365 135.540,284.889 136.200 C 286.378 138.076,288.920 141.889,289.800 143.568 C 290.240 144.407,290.807 145.342,291.060 145.647 C 291.313 145.951,292.283 147.697,293.216 149.527 C 296.234 155.450,294.881 156.113,309.418 141.582 C 323.003 128.002,322.734 128.368,320.748 126.174 C 320.336 125.720,320.000 125.247,320.000 125.123 C 320.000 124.794,317.256 120.288,316.895 120.024 C 316.727 119.901,315.875 118.720,315.001 117.400 C 309.191 108.618,294.617 93.424,285.800 86.959 C 282.745 84.719,281.871 84.087,280.600 83.200 C 279.812 82.650,278.520 81.705,277.729 81.100 C 276.937 80.495,276.067 80.000,275.794 80.000 C 275.521 80.000,275.053 79.705,274.755 79.345 C 274.342 78.849,271.067 77.139,270.667 77.212 C 270.630 77.219,270.240 77.420,269.800 77.659 M42.493 163.700 C 41.819 164.534,40.377 170.946,39.978 174.889 C 39.771 176.930,39.288 180.490,38.904 182.800 C 37.919 188.730,37.922 212.027,38.909 217.400 C 39.272 219.380,39.758 222.879,39.988 225.176 C 40.372 229.007,40.904 231.459,42.161 235.200 L 42.632 236.600 48.016 236.715 C 55.494 236.874,55.328 237.171,53.156 227.526 C 52.725 225.616,52.199 222.016,51.987 219.526 C 51.774 217.037,51.379 213.200,51.109 211.000 C 50.477 205.858,50.477 194.141,51.109 189.000 C 51.379 186.800,51.778 182.924,51.994 180.388 C 52.211 177.851,52.728 174.431,53.144 172.788 C 54.212 168.571,54.590 164.511,53.985 163.782 C 53.337 163.002,43.117 162.929,42.493 163.700 M62.561 163.663 C 62.403 163.918,62.041 165.133,61.757 166.363 C 61.472 167.594,60.960 169.584,60.619 170.787 C 60.279 171.990,60.000 173.556,60.000 174.267 C 60.000 174.978,59.595 177.504,59.100 179.880 C 57.865 185.809,57.721 214.152,58.901 219.200 C 59.287 220.850,59.779 223.610,59.996 225.334 C 60.212 227.058,60.752 229.642,61.195 231.076 C 61.638 232.511,62.000 234.087,62.000 234.580 C 62.000 236.805,61.957 236.800,80.709 236.800 L 97.955 236.800 98.566 235.927 C 98.977 235.341,99.049 234.900,98.785 234.582 C 98.570 234.322,98.198 233.054,97.959 231.763 C 97.721 230.472,97.289 228.959,97.000 228.400 C 96.711 227.841,96.191 225.744,95.845 223.739 C 95.500 221.735,95.020 219.579,94.779 218.948 C 92.834 213.852,93.079 188.459,95.161 179.274 C 95.594 177.363,96.126 174.990,96.344 174.000 C 96.562 173.010,97.029 171.300,97.381 170.200 C 99.880 162.388,101.850 163.200,80.401 163.200 C 67.528 163.200,62.771 163.324,62.561 163.663 M300.322 164.211 C 299.943 165.044,300.014 165.588,300.727 167.311 C 301.203 168.460,301.791 170.480,302.034 171.800 C 302.277 173.120,302.727 174.804,303.035 175.541 C 303.342 176.279,303.791 178.529,304.031 180.541 C 304.272 182.554,304.733 185.460,305.056 187.000 C 306.746 195.049,305.925 212.307,303.342 223.000 C 303.023 224.320,302.513 226.570,302.208 228.000 C 301.903 229.430,301.285 231.410,300.835 232.400 C 298.577 237.371,298.001 237.224,318.385 236.887 L 335.769 236.600 336.665 235.271 C 337.157 234.540,337.664 233.100,337.792 232.071 C 337.919 231.042,338.385 228.633,338.827 226.718 C 339.269 224.803,339.810 221.113,340.028 218.518 C 340.247 215.923,340.600 212.365,340.813 210.610 C 341.312 206.497,341.312 193.903,340.813 189.790 C 340.600 188.035,340.240 184.404,340.014 181.720 C 339.788 179.036,339.257 175.346,338.834 173.520 C 338.411 171.694,337.879 169.160,337.651 167.888 C 337.424 166.616,336.857 165.041,336.391 164.388 L 335.546 163.200 318.164 163.200 L 300.783 163.200 300.322 164.211 M344.561 163.663 C 344.120 164.376,344.304 166.428,344.981 168.346 C 345.318 169.301,345.791 171.729,346.032 173.741 C 346.273 175.754,346.724 178.480,347.034 179.800 C 348.652 186.675,348.504 213.455,346.804 221.600 C 346.367 223.690,346.008 226.056,346.005 226.858 C 346.002 227.660,345.627 229.522,345.172 230.996 C 343.426 236.649,343.557 236.800,350.201 236.800 C 357.146 236.800,357.387 236.634,358.010 231.400 C 358.246 229.420,358.707 226.758,359.035 225.484 C 361.217 216.998,361.101 185.473,358.846 173.922 C 358.403 171.655,357.926 168.741,357.785 167.446 C 357.358 163.520,356.790 163.200,350.242 163.200 C 346.589 163.200,344.755 163.349,344.561 163.663 M131.617 170.483 C 130.096 171.293,130.082 171.523,130.040 197.038 C 129.992 225.876,128.987 222.540,137.784 222.735 C 159.803 223.221,168.200 216.007,168.200 196.600 C 168.200 182.526,163.742 175.140,153.000 171.413 C 149.183 170.089,133.629 169.412,131.617 170.483 M221.294 174.415 C 220.116 174.888,219.601 176.314,219.595 179.126 C 219.586 182.777,219.393 183.129,217.258 183.393 C 214.315 183.757,213.439 184.142,212.876 185.316 C 211.925 187.300,213.554 189.200,216.206 189.200 C 217.338 189.200,218.822 189.854,219.294 190.560 C 219.456 190.802,219.594 195.950,219.602 202.000 C 219.619 215.304,219.864 217.412,221.673 219.813 C 225.533 224.935,236.197 224.104,234.021 218.851 C 233.742 218.177,233.128 217.524,232.657 217.399 C 226.682 215.815,227.023 216.692,226.883 202.546 L 226.766 190.756 227.683 189.991 C 228.187 189.571,229.173 189.221,229.874 189.213 C 232.809 189.183,234.435 187.863,234.022 185.845 C 233.718 184.359,232.439 183.614,230.176 183.606 C 227.468 183.596,227.057 183.015,226.757 178.769 C 226.428 174.115,224.957 172.943,221.294 174.415 M151.756 177.931 C 163.700 183.569,164.638 207.239,153.192 214.202 C 149.789 216.273,140.506 217.182,138.634 215.628 C 137.787 214.925,137.659 178.583,138.500 177.522 C 139.799 175.885,147.955 176.136,151.756 177.931 M188.619 183.630 C 179.565 185.586,173.360 194.505,181.001 194.579 C 183.180 194.600,183.260 194.559,185.112 192.520 C 190.543 186.538,199.031 188.074,199.873 195.191 C 200.179 197.771,199.673 198.394,197.251 198.418 C 184.090 198.548,176.400 203.568,176.400 212.028 C 176.400 221.034,188.991 226.588,197.152 221.182 C 198.799 220.092,199.008 220.045,199.771 220.601 C 202.391 222.512,202.618 222.600,204.884 222.586 C 208.177 222.566,208.678 221.981,208.020 218.925 C 207.739 217.622,207.378 211.415,207.197 204.800 C 206.845 191.880,206.716 190.981,204.846 188.399 C 201.577 183.887,195.584 182.126,188.619 183.630 M250.619 183.630 C 241.565 185.586,235.360 194.505,243.001 194.579 C 245.180 194.600,245.260 194.559,247.112 192.520 C 252.543 186.538,261.031 188.074,261.873 195.191 C 262.179 197.771,261.673 198.394,259.251 198.418 C 246.090 198.548,238.400 203.568,238.400 212.028 C 238.400 221.034,250.991 226.588,259.152 221.182 C 260.799 220.092,261.008 220.045,261.771 220.601 C 264.391 222.512,264.618 222.600,266.884 222.586 C 270.177 222.566,270.678 221.981,270.020 218.925 C 269.739 217.622,269.378 211.415,269.197 204.800 C 268.845 191.880,268.716 190.981,266.846 188.399 C 263.577 183.887,257.584 182.126,250.619 183.630 M199.500 205.121 C 201.092 207.132,199.845 212.243,197.214 214.496 C 190.781 220.002,180.939 215.048,184.538 208.116 C 186.268 204.782,197.460 202.542,199.500 205.121 M261.500 205.121 C 263.092 207.132,261.845 212.243,259.214 214.496 C 252.781 220.002,242.939 215.048,246.538 208.116 C 248.268 204.782,259.460 202.542,261.500 205.121 M101.600 245.531 C 99.670 246.822,78.144 268.687,77.665 269.842 C 77.139 271.112,77.563 272.249,79.915 275.872 C 88.071 288.438,99.491 301.276,109.385 309.000 C 110.230 309.660,111.840 310.935,112.961 311.834 C 115.662 313.999,119.734 316.844,123.400 319.128 C 124.280 319.677,125.450 320.427,126.000 320.797 C 128.628 322.561,127.947 323.058,141.559 309.441 C 155.676 295.319,155.190 296.100,151.066 294.148 C 139.630 288.738,125.358 277.223,117.127 266.764 C 113.109 261.659,112.110 260.331,111.400 259.154 C 110.960 258.425,110.290 257.372,109.911 256.814 C 109.014 255.495,107.616 253.046,105.230 248.617 C 103.089 244.643,103.018 244.582,101.600 245.531 M295.940 245.624 C 295.356 246.056,294.125 247.884,293.204 249.686 C 292.283 251.489,291.185 253.401,290.765 253.936 C 290.344 254.470,290.000 255.045,290.000 255.214 C 290.000 255.489,289.070 256.898,285.684 261.754 C 285.088 262.608,284.306 263.747,283.947 264.284 C 280.897 268.846,268.211 281.274,263.005 284.800 C 262.193 285.350,260.936 286.295,260.212 286.900 C 259.487 287.505,258.771 288.000,258.621 288.000 C 258.470 288.000,257.757 288.450,257.036 289.000 C 256.314 289.550,255.625 290.000,255.503 290.000 C 255.381 290.000,254.069 290.737,252.586 291.638 C 251.103 292.539,249.150 293.597,248.245 293.990 C 247.340 294.382,246.158 295.182,245.617 295.766 L 244.634 296.829 256.817 309.046 C 270.179 322.445,270.183 322.448,272.343 321.109 C 273.144 320.612,274.279 319.934,274.865 319.603 C 276.197 318.849,280.730 315.856,281.800 315.023 C 282.240 314.681,283.950 313.382,285.600 312.137 C 294.349 305.536,305.536 294.349,312.137 285.600 C 313.382 283.950,314.685 282.240,315.032 281.800 C 315.612 281.065,316.790 279.276,317.816 277.575 C 318.044 277.196,318.466 276.602,318.754 276.256 C 320.708 273.901,322.022 271.019,321.603 270.007 C 321.366 269.435,315.734 263.538,309.086 256.903 L 297.000 244.838 295.940 245.624 M360.415 268.961 C 360.187 269.561,360.000 270.175,360.000 270.326 C 360.001 270.575,354.020 282.548,352.470 285.400 C 350.312 289.373,347.209 294.000,346.704 294.000 C 346.454 294.000,343.089 290.871,339.225 287.046 C 330.667 278.575,328.824 276.878,327.830 276.553 C 326.993 276.280,326.885 276.397,325.000 279.609 C 324.340 280.733,323.350 282.264,322.800 283.010 C 322.250 283.756,321.350 285.009,320.800 285.794 C 314.082 295.382,300.338 309.865,292.000 316.142 C 290.350 317.384,288.640 318.676,288.200 319.014 C 285.260 321.267,279.168 325.389,277.519 326.242 C 275.414 327.330,275.906 328.059,284.754 336.979 C 295.003 347.310,294.664 346.751,291.798 348.584 C 290.580 349.363,289.448 350.000,289.281 350.000 C 289.114 350.000,288.546 350.315,288.017 350.700 C 286.816 351.575,280.676 354.973,278.800 355.801 C 278.030 356.141,277.130 356.596,276.800 356.813 C 276.470 357.029,275.750 357.403,275.200 357.644 C 274.650 357.885,273.300 358.504,272.200 359.018 C 271.100 359.532,269.581 360.180,268.824 360.457 L 267.448 360.960 268.624 361.462 C 270.443 362.238,360.913 362.228,361.558 361.451 C 362.235 360.635,361.996 269.036,361.315 268.355 C 360.935 267.975,360.740 268.106,360.415 268.961 M37.200 315.586 C 37.200 360.246,37.216 361.180,37.974 361.586 C 39.024 362.148,128.720 362.163,130.198 361.601 C 131.430 361.132,131.245 360.599,129.718 360.215 C 128.624 359.941,123.921 357.864,122.800 357.160 C 122.470 356.953,121.660 356.544,121.000 356.251 C 118.983 355.355,118.668 355.194,116.600 353.998 C 115.500 353.362,113.880 352.464,113.000 352.004 C 110.073 350.471,105.200 347.330,105.200 346.975 C 105.200 346.013,107.404 343.536,114.207 336.851 C 122.822 328.385,123.427 327.446,121.160 326.043 C 120.587 325.690,119.597 325.054,118.960 324.630 C 114.911 321.943,113.381 320.908,112.410 320.200 C 111.806 319.760,110.792 319.045,110.156 318.611 C 104.687 314.879,89.877 301.027,86.583 296.562 C 85.949 295.703,85.153 294.706,84.815 294.346 C 84.477 293.987,83.750 293.112,83.200 292.403 C 82.650 291.693,81.660 290.423,81.000 289.580 C 80.340 288.737,79.350 287.395,78.800 286.596 C 78.250 285.798,77.395 284.636,76.900 284.015 C 76.405 283.393,76.000 282.763,76.000 282.616 C 76.000 282.468,75.550 281.757,75.000 281.036 C 74.450 280.314,73.998 279.561,73.997 279.362 C 73.995 279.163,73.345 278.316,72.553 277.481 L 71.113 275.961 68.675 278.281 C 67.335 279.556,63.249 283.595,59.597 287.256 C 51.605 295.264,51.827 295.254,47.983 287.800 C 47.530 286.920,46.646 285.300,46.019 284.200 C 45.393 283.100,44.132 280.670,43.217 278.800 C 42.302 276.930,41.382 275.130,41.174 274.800 C 40.700 274.052,40.214 272.977,39.588 271.300 C 39.227 270.334,38.859 270.000,38.151 270.000 L 37.200 270.000 37.200 315.586 M233.200 300.200 C 232.210 300.488,230.590 301.000,229.600 301.339 C 226.197 302.502,220.196 303.930,217.600 304.194 C 216.170 304.339,213.745 304.721,212.212 305.042 C 204.226 306.715,187.645 305.915,177.000 303.342 C 175.680 303.023,173.496 302.526,172.146 302.238 C 170.797 301.950,168.687 301.298,167.457 300.788 C 165.602 300.019,165.050 299.940,164.211 300.322 L 163.200 300.783 163.200 318.164 L 163.200 335.546 164.388 336.391 C 165.041 336.857,166.616 337.424,167.888 337.651 C 169.160 337.879,171.724 338.419,173.587 338.851 C 175.451 339.283,178.871 339.811,181.187 340.024 C 183.504 340.236,186.750 340.593,188.400 340.816 C 193.461 341.501,201.982 341.711,206.400 341.261 C 208.710 341.025,213.390 340.554,216.800 340.214 C 220.210 339.874,223.810 339.332,224.800 339.011 C 225.790 338.689,227.860 338.233,229.400 337.997 C 230.940 337.762,233.010 337.171,234.000 336.684 L 235.800 335.800 235.904 318.382 C 236.022 298.605,236.133 299.348,233.200 300.200 M164.082 344.448 C 163.232 344.762,163.200 344.972,163.200 350.205 C 163.200 356.794,163.515 357.357,167.446 357.786 C 168.741 357.927,171.150 358.312,172.800 358.642 C 185.935 361.268,214.987 361.365,225.611 358.818 C 227.475 358.371,229.486 358.004,230.080 358.003 C 235.309 357.989,236.000 357.058,236.000 350.030 C 236.000 343.539,235.965 343.497,231.721 344.746 C 230.057 345.235,227.235 345.816,225.448 346.038 C 223.662 346.259,221.030 346.714,219.600 347.048 C 213.598 348.453,185.663 348.451,179.800 347.045 C 178.480 346.729,175.738 346.271,173.707 346.028 C 171.675 345.784,169.538 345.404,168.956 345.183 C 166.957 344.423,164.962 344.122,164.082 344.448 " stroke="none" fill="#0970c1" fill-rule="evenodd"></path><path id="path1" d="M0.000 200.000 L 0.000 400.000 200.000 400.000 L 400.000 400.000 400.000 200.000 L 400.000 0.000 200.000 0.000 L 0.000 0.000 0.000 200.000 M128.800 38.237 C 128.800 38.958,128.541 39.343,127.951 39.497 C 127.484 39.619,124.649 40.972,121.651 42.503 C 116.298 45.236,115.273 45.787,111.540 47.931 C 110.517 48.519,108.970 49.395,108.101 49.877 C 103.982 52.164,103.866 51.927,113.943 61.803 C 117.981 65.762,121.639 69.497,122.073 70.104 L 122.860 71.208 121.530 72.454 C 120.798 73.139,118.483 74.807,116.385 76.160 C 104.074 84.099,91.133 96.354,80.384 110.252 C 78.149 113.141,74.828 118.025,73.937 119.731 C 73.573 120.429,72.757 121.491,72.125 122.091 L 70.975 123.182 62.017 114.217 L 53.059 105.252 51.933 105.834 C 51.314 106.155,50.435 107.088,49.979 107.908 C 49.523 108.729,48.732 110.120,48.221 111.000 C 45.214 116.180,40.680 125.069,39.591 127.920 C 39.210 128.917,38.879 129.211,38.243 129.120 L 37.400 129.000 37.298 83.833 C 37.205 42.232,37.249 38.609,37.860 37.933 C 38.496 37.230,40.398 37.200,83.662 37.200 L 128.800 37.200 128.800 38.237 M361.586 37.974 C 362.148 39.024,362.163 128.720,361.601 130.198 C 361.079 131.570,360.625 131.234,360.005 129.018 C 359.727 128.026,359.253 127.010,358.950 126.759 C 358.648 126.508,358.400 126.099,358.400 125.851 C 358.400 124.311,347.821 105.200,346.969 105.200 C 346.115 105.200,344.036 107.044,336.983 114.056 C 328.286 122.703,327.370 123.298,326.045 121.160 C 325.377 120.083,324.855 119.289,322.430 115.660 C 321.644 114.483,320.730 113.114,320.400 112.618 C 315.648 105.475,303.941 92.802,296.200 86.421 C 294.220 84.789,292.330 83.221,292.000 82.937 C 290.656 81.780,288.540 80.125,287.600 79.495 C 287.050 79.126,285.880 78.294,285.000 77.646 C 284.120 76.997,282.431 75.867,281.247 75.134 C 280.063 74.400,278.386 73.183,277.521 72.430 L 275.947 71.059 284.950 62.030 L 293.953 53.000 293.365 51.902 C 293.041 51.298,292.044 50.398,291.148 49.902 C 290.252 49.406,288.683 48.514,287.660 47.921 C 286.637 47.327,285.055 46.487,284.144 46.054 C 283.233 45.621,282.376 45.084,282.238 44.862 C 282.101 44.640,281.316 44.242,280.494 43.979 C 279.672 43.715,278.718 43.254,278.374 42.954 C 278.030 42.655,277.130 42.202,276.374 41.947 C 275.618 41.692,274.753 41.285,274.450 41.042 C 274.148 40.799,273.068 40.316,272.050 39.968 C 270.540 39.452,270.177 39.140,270.073 38.268 L 269.947 37.200 315.559 37.200 C 360.246 37.200,361.180 37.216,361.586 37.974 M217.400 39.135 C 220.700 39.585,224.660 40.118,226.200 40.321 C 229.183 40.713,234.206 41.859,235.200 42.374 C 235.961 42.769,236.278 52.363,235.586 54.035 C 235.152 55.082,235.120 55.090,233.273 54.596 C 232.243 54.320,230.320 53.914,229.000 53.693 C 227.680 53.472,225.250 53.016,223.600 52.679 C 214.053 50.730,197.247 50.116,186.400 51.318 C 182.990 51.696,179.305 52.090,178.212 52.194 C 177.118 52.298,174.598 52.730,172.612 53.155 C 162.893 55.230,163.382 55.484,163.030 48.173 C 162.782 43.017,162.791 42.941,163.689 42.496 C 165.402 41.648,171.217 40.390,175.310 39.982 C 177.560 39.758,180.480 39.379,181.800 39.141 C 189.231 37.799,207.574 37.796,217.400 39.135 M218.123 58.958 C 219.621 59.310,222.411 59.779,224.323 60.000 C 226.235 60.222,228.941 60.762,230.336 61.201 C 231.730 61.641,233.373 62.000,233.987 62.000 C 236.051 62.000,236.032 61.818,235.912 80.936 C 235.790 100.298,235.810 100.143,233.666 99.034 C 232.992 98.685,231.486 98.198,230.320 97.951 C 229.154 97.705,227.722 97.259,227.138 96.961 C 226.555 96.663,224.755 96.225,223.138 95.987 C 221.522 95.749,219.404 95.295,218.431 94.978 C 214.234 93.610,188.657 93.166,183.400 94.370 C 182.520 94.572,180.270 95.042,178.400 95.415 C 176.530 95.789,173.647 96.523,171.993 97.047 C 170.339 97.571,168.656 98.000,168.253 98.000 C 167.850 98.000,166.887 98.301,166.113 98.668 C 163.311 99.998,163.413 100.634,163.296 80.993 C 163.182 61.908,163.172 62.000,165.420 62.000 C 165.913 62.000,167.493 61.636,168.931 61.192 C 170.370 60.748,173.044 60.200,174.874 59.975 C 176.703 59.751,179.550 59.308,181.200 58.992 C 185.899 58.092,186.188 58.081,201.200 58.203 C 212.500 58.295,215.956 58.449,218.123 58.958 M141.093 88.900 C 154.923 102.642,155.179 102.986,152.500 104.184 C 151.675 104.552,150.100 105.372,149.000 106.004 C 147.900 106.637,146.550 107.383,146.000 107.663 C 145.450 107.944,144.443 108.584,143.762 109.086 C 143.081 109.589,142.361 110.005,142.162 110.011 C 141.844 110.021,140.645 110.844,137.800 113.007 C 137.360 113.341,135.380 114.845,133.400 116.349 C 127.283 120.994,115.392 133.386,113.891 136.679 C 113.660 137.186,113.338 137.600,113.175 137.600 C 113.012 137.600,112.456 138.261,111.940 139.070 C 111.423 139.878,110.512 141.273,109.915 142.170 C 109.318 143.066,108.484 144.430,108.062 145.200 C 107.640 145.970,106.737 147.590,106.056 148.800 C 105.376 150.010,104.517 151.675,104.149 152.500 C 102.980 155.116,102.740 154.938,89.462 141.641 C 76.052 128.212,76.829 129.281,78.249 126.200 C 79.076 124.406,83.059 118.458,86.015 114.600 C 87.027 113.280,88.022 111.899,88.227 111.531 C 90.008 108.336,106.290 92.137,112.000 87.880 C 113.650 86.650,115.990 84.904,117.200 84.001 C 118.410 83.097,120.300 81.801,121.400 81.119 C 122.500 80.438,124.071 79.435,124.892 78.891 C 125.713 78.347,126.973 77.763,127.692 77.592 C 128.411 77.421,129.072 77.263,129.159 77.241 C 129.246 77.218,134.617 82.465,141.093 88.900 M272.473 77.945 C 273.429 78.355,274.456 78.985,274.755 79.345 C 275.053 79.705,275.521 80.000,275.794 80.000 C 276.067 80.000,276.937 80.495,277.729 81.100 C 278.520 81.705,279.812 82.650,280.600 83.200 C 281.871 84.087,282.745 84.719,285.800 86.959 C 294.617 93.424,309.191 108.618,315.001 117.400 C 315.875 118.720,316.727 119.901,316.895 120.024 C 317.256 120.288,320.000 124.794,320.000 125.123 C 320.000 125.247,320.336 125.720,320.748 126.174 C 322.734 128.368,323.003 128.002,309.418 141.582 C 294.881 156.113,296.234 155.450,293.216 149.527 C 292.283 147.697,291.313 145.951,291.060 145.647 C 290.807 145.342,290.240 144.407,289.800 143.568 C 288.920 141.889,286.378 138.076,284.889 136.200 C 284.365 135.540,283.546 134.492,283.068 133.872 C 277.864 127.109,268.280 117.838,262.000 113.491 C 255.792 109.195,252.919 107.444,246.895 104.285 C 244.799 103.186,244.792 103.176,245.368 102.091 C 246.367 100.209,269.545 77.416,270.667 77.212 C 270.704 77.205,271.516 77.535,272.473 77.945 M53.985 163.782 C 54.590 164.511,54.212 168.571,53.144 172.788 C 52.728 174.431,52.211 177.851,51.994 180.388 C 51.778 182.924,51.379 186.800,51.109 189.000 C 50.477 194.141,50.477 205.858,51.109 211.000 C 51.379 213.200,51.774 217.037,51.987 219.526 C 52.199 222.016,52.725 225.616,53.156 227.526 C 55.328 237.171,55.494 236.874,48.016 236.715 L 42.632 236.600 42.161 235.200 C 40.904 231.459,40.372 229.007,39.988 225.176 C 39.758 222.879,39.272 219.380,38.909 217.400 C 37.922 212.027,37.919 188.730,38.904 182.800 C 39.288 180.490,39.771 176.930,39.978 174.889 C 40.377 170.946,41.819 164.534,42.493 163.700 C 43.117 162.929,53.337 163.002,53.985 163.782 M98.523 164.012 C 99.129 164.877,99.190 164.544,97.381 170.200 C 97.029 171.300,96.562 173.010,96.344 174.000 C 96.126 174.990,95.594 177.363,95.161 179.274 C 93.079 188.459,92.834 213.852,94.779 218.948 C 95.020 219.579,95.500 221.735,95.845 223.739 C 96.191 225.744,96.711 227.841,97.000 228.400 C 97.289 228.959,97.721 230.472,97.959 231.763 C 98.198 233.054,98.570 234.322,98.785 234.582 C 99.049 234.900,98.977 235.341,98.566 235.927 L 97.955 236.800 80.709 236.800 C 61.957 236.800,62.000 236.805,62.000 234.580 C 62.000 234.087,61.638 232.511,61.195 231.076 C 60.752 229.642,60.212 227.058,59.996 225.334 C 59.779 223.610,59.287 220.850,58.901 219.200 C 57.721 214.152,57.865 185.809,59.100 179.880 C 59.595 177.504,60.000 174.978,60.000 174.267 C 60.000 173.556,60.279 171.990,60.619 170.787 C 60.960 169.584,61.472 167.594,61.757 166.363 C 62.041 165.133,62.403 163.918,62.561 163.663 C 63.155 162.702,97.841 163.038,98.523 164.012 M336.391 164.388 C 336.857 165.041,337.424 166.616,337.651 167.888 C 337.879 169.160,338.411 171.694,338.834 173.520 C 339.257 175.346,339.788 179.036,340.014 181.720 C 340.240 184.404,340.600 188.035,340.813 189.790 C 341.312 193.903,341.312 206.497,340.813 210.610 C 340.600 212.365,340.247 215.923,340.028 218.518 C 339.810 221.113,339.269 224.803,338.827 226.718 C 338.385 228.633,337.919 231.042,337.792 232.071 C 337.664 233.100,337.157 234.540,336.665 235.271 L 335.769 236.600 318.385 236.887 C 298.001 237.224,298.577 237.371,300.835 232.400 C 301.285 231.410,301.903 229.430,302.208 228.000 C 302.513 226.570,303.023 224.320,303.342 223.000 C 305.925 212.307,306.746 195.049,305.056 187.000 C 304.733 185.460,304.272 182.554,304.031 180.541 C 303.791 178.529,303.342 176.279,303.035 175.541 C 302.727 174.804,302.277 173.120,302.034 171.800 C 301.791 170.480,301.203 168.460,300.727 167.311 C 300.014 165.588,299.943 165.044,300.322 164.211 L 300.783 163.200 318.164 163.200 L 335.546 163.200 336.391 164.388 M356.583 164.146 C 357.272 164.836,357.598 165.731,357.785 167.446 C 357.926 168.741,358.403 171.655,358.846 173.922 C 361.101 185.473,361.217 216.998,359.035 225.484 C 358.707 226.758,358.246 229.420,358.010 231.400 C 357.387 236.634,357.146 236.800,350.201 236.800 C 343.557 236.800,343.426 236.649,345.172 230.996 C 345.627 229.522,346.002 227.660,346.005 226.858 C 346.008 226.056,346.367 223.690,346.804 221.600 C 348.504 213.455,348.652 186.675,347.034 179.800 C 346.724 178.480,346.273 175.754,346.032 173.741 C 345.791 171.729,345.318 169.301,344.981 168.346 C 344.304 166.428,344.120 164.376,344.561 163.663 C 345.187 162.650,355.501 163.065,356.583 164.146 M153.000 171.413 C 163.742 175.140,168.200 182.526,168.200 196.600 C 168.200 216.007,159.803 223.221,137.784 222.735 C 128.987 222.540,129.992 225.876,130.040 197.038 C 130.082 171.523,130.096 171.293,131.617 170.483 C 133.629 169.412,149.183 170.089,153.000 171.413 M225.771 174.529 C 226.340 174.945,226.551 175.852,226.757 178.769 C 227.057 183.015,227.468 183.596,230.176 183.606 C 232.439 183.614,233.718 184.359,234.022 185.845 C 234.435 187.863,232.809 189.183,229.874 189.213 C 229.173 189.221,228.187 189.571,227.683 189.991 L 226.766 190.756 226.883 202.546 C 227.023 216.692,226.682 215.815,232.657 217.399 C 233.128 217.524,233.742 218.177,234.021 218.851 C 236.197 224.104,225.533 224.935,221.673 219.813 C 219.864 217.412,219.619 215.304,219.602 202.000 C 219.594 195.950,219.456 190.802,219.294 190.560 C 218.822 189.854,217.338 189.200,216.206 189.200 C 213.554 189.200,211.925 187.300,212.876 185.316 C 213.439 184.142,214.315 183.757,217.258 183.393 C 219.393 183.129,219.586 182.777,219.595 179.126 C 219.604 175.177,220.469 174.082,223.624 174.025 C 224.406 174.011,225.373 174.238,225.771 174.529 M139.600 176.648 C 138.020 177.290,138.000 177.542,138.000 196.627 C 138.000 217.638,137.709 216.041,141.582 216.321 C 152.909 217.141,159.063 212.220,160.617 201.100 C 162.215 189.668,159.041 181.370,151.756 177.931 C 149.314 176.778,141.349 175.938,139.600 176.648 M198.200 183.818 C 205.595 185.907,206.755 188.614,207.197 204.800 C 207.378 211.415,207.739 217.622,208.020 218.925 C 208.678 221.981,208.177 222.566,204.884 222.586 C 202.618 222.600,202.391 222.512,199.771 220.601 C 199.008 220.045,198.799 220.092,197.152 221.182 C 188.991 226.588,176.400 221.034,176.400 212.028 C 176.400 203.568,184.090 198.548,197.251 198.418 C 199.673 198.394,200.179 197.771,199.873 195.191 C 199.031 188.074,190.543 186.538,185.112 192.520 C 181.867 196.094,176.475 195.267,177.806 191.400 C 179.876 185.386,190.183 181.554,198.200 183.818 M260.200 183.818 C 267.595 185.907,268.755 188.614,269.197 204.800 C 269.378 211.415,269.739 217.622,270.020 218.925 C 270.678 221.981,270.177 222.566,266.884 222.586 C 264.618 222.600,264.391 222.512,261.771 220.601 C 261.008 220.045,260.799 220.092,259.152 221.182 C 250.991 226.588,238.400 221.034,238.400 212.028 C 238.400 203.568,246.090 198.548,259.251 198.418 C 261.673 198.394,262.179 197.771,261.873 195.191 C 261.031 188.074,252.543 186.538,247.112 192.520 C 243.867 196.094,238.475 195.267,239.806 191.400 C 241.876 185.386,252.183 181.554,260.200 183.818 M192.553 204.393 C 185.488 204.914,182.026 209.047,184.562 213.931 C 187.922 220.405,200.000 215.997,200.000 208.296 C 200.000 204.289,199.254 203.898,192.553 204.393 M254.553 204.393 C 247.488 204.914,244.026 209.047,246.562 213.931 C 249.922 220.405,262.000 215.997,262.000 208.296 C 262.000 204.289,261.254 203.898,254.553 204.393 M105.230 248.617 C 107.616 253.046,109.014 255.495,109.911 256.814 C 110.290 257.372,110.960 258.425,111.400 259.154 C 112.110 260.331,113.109 261.659,117.127 266.764 C 125.358 277.223,139.630 288.738,151.066 294.148 C 155.190 296.100,155.676 295.319,141.559 309.441 C 127.947 323.058,128.628 322.561,126.000 320.797 C 125.450 320.427,124.280 319.677,123.400 319.128 C 119.734 316.844,115.662 313.999,112.961 311.834 C 111.840 310.935,110.230 309.660,109.385 309.000 C 98.534 300.528,83.317 282.879,78.006 272.605 C 76.751 270.179,77.066 269.759,89.375 257.437 C 104.050 242.747,102.525 243.595,105.230 248.617 M321.603 270.007 C 322.022 271.019,320.708 273.901,318.754 276.256 C 318.466 276.602,318.044 277.196,317.816 277.575 C 316.790 279.276,315.612 281.065,315.032 281.800 C 314.685 282.240,313.382 283.950,312.137 285.600 C 305.536 294.349,294.349 305.536,285.600 312.137 C 283.950 313.382,282.240 314.681,281.800 315.023 C 280.730 315.856,276.197 318.849,274.865 319.603 C 274.279 319.934,273.144 320.612,272.343 321.109 C 270.183 322.448,270.179 322.445,256.817 309.046 L 244.634 296.829 245.617 295.766 C 246.158 295.182,247.340 294.382,248.245 293.990 C 249.150 293.597,251.103 292.539,252.586 291.638 C 254.069 290.737,255.381 290.000,255.503 290.000 C 255.625 290.000,256.314 289.550,257.036 289.000 C 257.757 288.450,258.470 288.000,258.621 288.000 C 258.771 288.000,259.487 287.505,260.212 286.900 C 260.936 286.295,262.193 285.350,263.005 284.800 C 268.211 281.274,280.897 268.846,283.947 264.284 C 284.306 263.747,285.088 262.608,285.684 261.754 C 289.070 256.898,290.000 255.489,290.000 255.214 C 290.000 255.045,290.344 254.470,290.765 253.936 C 291.185 253.401,292.283 251.489,293.204 249.686 C 294.125 247.884,295.356 246.056,295.940 245.624 L 297.000 244.838 309.086 256.903 C 315.734 263.538,321.366 269.435,321.603 270.007 M361.907 314.871 C 361.985 348.854,361.894 361.046,361.558 361.451 C 360.913 362.228,270.443 362.238,268.624 361.462 L 267.448 360.960 268.824 360.457 C 269.581 360.180,271.100 359.532,272.200 359.018 C 273.300 358.504,274.650 357.885,275.200 357.644 C 275.750 357.403,276.470 357.029,276.800 356.813 C 277.130 356.596,278.030 356.141,278.800 355.801 C 280.676 354.973,286.816 351.575,288.017 350.700 C 288.546 350.315,289.114 350.000,289.281 350.000 C 289.448 350.000,290.580 349.363,291.798 348.584 C 294.664 346.751,295.003 347.310,284.754 336.979 C 275.906 328.059,275.414 327.330,277.519 326.242 C 279.168 325.389,285.260 321.267,288.200 319.014 C 288.640 318.676,290.350 317.384,292.000 316.142 C 300.338 309.865,314.082 295.382,320.800 285.794 C 321.350 285.009,322.250 283.756,322.800 283.010 C 323.350 282.264,324.340 280.733,325.000 279.609 C 327.665 275.068,326.518 274.468,339.225 287.046 C 343.089 290.871,346.454 294.000,346.704 294.000 C 347.209 294.000,350.312 289.373,352.470 285.400 C 354.020 282.548,360.001 270.575,360.000 270.326 C 360.000 270.175,360.187 269.561,360.415 268.961 C 361.715 265.542,361.798 268.112,361.907 314.871 M39.588 271.300 C 40.214 272.977,40.700 274.052,41.174 274.800 C 41.382 275.130,42.302 276.930,43.217 278.800 C 44.132 280.670,45.393 283.100,46.019 284.200 C 46.646 285.300,47.530 286.920,47.983 287.800 C 51.827 295.254,51.605 295.264,59.597 287.256 C 63.249 283.595,67.335 279.556,68.675 278.281 L 71.113 275.961 72.553 277.481 C 73.345 278.316,73.995 279.163,73.997 279.362 C 73.998 279.561,74.450 280.314,75.000 281.036 C 75.550 281.757,76.000 282.468,76.000 282.616 C 76.000 282.763,76.405 283.393,76.900 284.015 C 77.395 284.636,78.250 285.798,78.800 286.596 C 79.350 287.395,80.340 288.737,81.000 289.580 C 81.660 290.423,82.650 291.693,83.200 292.403 C 83.750 293.112,84.477 293.987,84.815 294.346 C 85.153 294.706,85.949 295.703,86.583 296.562 C 89.877 301.027,104.687 314.879,110.156 318.611 C 110.792 319.045,111.806 319.760,112.410 320.200 C 113.381 320.908,114.911 321.943,118.960 324.630 C 119.597 325.054,120.587 325.690,121.160 326.043 C 123.427 327.446,122.822 328.385,114.207 336.851 C 107.404 343.536,105.200 346.013,105.200 346.975 C 105.200 347.330,110.073 350.471,113.000 352.004 C 113.880 352.464,115.500 353.362,116.600 353.998 C 118.668 355.194,118.983 355.355,121.000 356.251 C 121.660 356.544,122.470 356.953,122.800 357.160 C 123.921 357.864,128.624 359.941,129.718 360.215 C 131.245 360.599,131.430 361.132,130.198 361.601 C 128.720 362.163,39.024 362.148,37.974 361.586 C 37.216 361.180,37.200 360.246,37.200 315.586 L 37.200 270.000 38.151 270.000 C 38.859 270.000,39.227 270.334,39.588 271.300 M235.904 318.382 L 235.800 335.800 234.000 336.684 C 233.010 337.171,230.940 337.762,229.400 337.997 C 227.860 338.233,225.790 338.689,224.800 339.011 C 223.810 339.332,220.210 339.874,216.800 340.214 C 213.390 340.554,208.710 341.025,206.400 341.261 C 201.982 341.711,193.461 341.501,188.400 340.816 C 186.750 340.593,183.504 340.236,181.187 340.024 C 178.871 339.811,175.451 339.283,173.587 338.851 C 171.724 338.419,169.160 337.879,167.888 337.651 C 166.616 337.424,165.041 336.857,164.388 336.391 L 163.200 335.546 163.200 318.164 L 163.200 300.783 164.211 300.322 C 165.050 299.940,165.602 300.019,167.457 300.788 C 168.687 301.298,170.797 301.950,172.146 302.238 C 173.496 302.526,175.680 303.023,177.000 303.342 C 187.645 305.915,204.226 306.715,212.212 305.042 C 213.745 304.721,216.170 304.339,217.600 304.194 C 220.196 303.930,226.197 302.502,229.600 301.339 C 236.668 298.923,236.031 297.199,235.904 318.382 M168.956 345.183 C 169.538 345.404,171.675 345.784,173.707 346.028 C 175.738 346.271,178.480 346.729,179.800 347.045 C 185.663 348.451,213.598 348.453,219.600 347.048 C 221.030 346.714,223.662 346.259,225.448 346.038 C 227.235 345.816,230.057 345.235,231.721 344.746 C 235.965 343.497,236.000 343.539,236.000 350.030 C 236.000 357.058,235.309 357.989,230.080 358.003 C 229.486 358.004,227.475 358.371,225.611 358.818 C 214.987 361.365,185.935 361.268,172.800 358.642 C 171.150 358.312,168.741 357.927,167.446 357.786 C 163.515 357.357,163.200 356.794,163.200 350.205 C 163.200 343.593,163.678 343.177,168.956 345.183 " stroke="none" fill="#fbfbfb" fill-rule="evenodd"></path></g></svg>