<?xml version="1.0" standalone="no"?>
<!DOCTYPE svg PUBLIC "-//W3C//DTD SVG 20010904//EN"
 "http://www.w3.org/TR/2001/REC-SVG-20010904/DTD/svg10.dtd">
<svg version="1.0" xmlns="http://www.w3.org/2000/svg"
 width="2400.000000pt" height="2379.000000pt" viewBox="0 0 2400.000000 2379.000000"
 preserveAspectRatio="xMidYMid meet">

<g transform="translate(0.000000,2379.000000) scale(0.100000,-0.100000)"
fill="#000000" stroke="none">
<path d="M22320 23780 c-310 -43 -590 -167 -864 -383 -70 -55 -1012 -990
-3041 -3018 l-2940 -2938 -6630 1754 -6630 1753 -1107 -1106 -1108 -1107 28
-14 c15 -8 1496 -788 3292 -1734 1796 -945 3657 -1925 4135 -2177 479 -252
1455 -767 2170 -1143 714 -377 1300 -689 1302 -693 2 -5 -993 -1001 -2210
-2215 l-2212 -2205 -1685 207 c-927 115 -1701 208 -1720 209 -33 0 -78 -43
-905 -870 -690 -690 -867 -872 -855 -880 8 -5 881 -465 1940 -1021 1059 -557
1932 -1019 1941 -1028 9 -9 475 -888 1035 -1953 559 -1066 1020 -1938 1023
-1938 3 0 398 393 877 873 l871 872 -201 1707 -202 1707 2212 2212 2211 2211
60 -113 c33 -63 1301 -2507 2818 -5432 l2758 -5319 1104 1104 c607 606 1103
1109 1103 1116 0 7 -754 2931 -1675 6499 -922 3567 -1674 6489 -1673 6494 2 4
1353 1361 3004 3016 1650 1654 3029 3044 3064 3088 190 240 305 474 362 739
29 135 31 397 5 529 -58 287 -199 549 -412 762 -124 124 -244 209 -400 286
-220 107 -384 148 -625 154 -85 2 -184 0 -220 -5z"/>
</g>
</svg>
