<svg id="svg" version="1.1" xmlns="http://www.w3.org/2000/svg" xmlns:xlink="http://www.w3.org/1999/xlink" width="400" height="400" viewBox="0, 0, 400,400"><g id="svgg"><path id="path0" d="M98.599 52.391 C 96.838 52.548,94.768 52.883,93.999 53.135 C 93.229 53.388,91.610 53.854,90.400 54.172 C 84.693 55.671,80.494 57.639,74.189 61.769 C 69.882 64.590,62.761 72.138,60.353 76.436 C 59.997 77.071,59.493 77.847,59.232 78.161 C 58.541 78.994,56.002 84.240,55.987 84.866 C 55.981 85.160,55.532 86.300,54.991 87.400 C 54.450 88.500,54.006 89.749,54.004 90.174 C 54.002 90.600,53.595 92.310,53.100 93.974 L 52.200 97.000 52.200 200.200 L 52.200 303.400 53.480 307.800 C 55.117 313.426,56.478 317.333,57.049 318.042 C 57.296 318.349,57.877 319.410,58.339 320.400 C 58.802 321.390,59.410 322.553,59.690 322.984 C 61.372 325.569,62.727 327.571,63.227 328.210 C 64.697 330.091,71.676 336.845,73.200 337.861 C 77.264 340.572,78.332 341.220,80.600 342.348 C 90.356 347.200,90.171 347.281,89.810 338.315 C 89.500 330.630,90.087 317.685,90.977 312.600 C 91.324 310.620,91.865 307.110,92.179 304.800 C 92.719 300.839,93.165 298.696,94.634 293.000 C 94.975 291.680,95.504 289.308,95.810 287.728 C 96.116 286.148,96.627 284.230,96.947 283.466 C 97.266 282.701,97.739 281.057,97.997 279.813 C 98.256 278.568,98.794 276.796,99.194 275.875 C 99.593 274.954,100.032 273.480,100.168 272.600 C 100.428 270.929,100.456 270.994,97.800 267.188 C 95.601 264.037,92.000 257.799,92.000 257.141 C 92.000 256.903,91.644 256.054,91.210 255.254 C 89.212 251.578,85.281 238.391,84.338 232.200 C 84.137 230.880,83.582 227.550,83.105 224.800 C 81.975 218.292,81.904 206.890,82.959 201.400 C 83.339 199.420,83.832 196.630,84.054 195.200 C 84.276 193.770,84.805 191.648,85.229 190.485 C 85.653 189.322,86.006 188.062,86.013 187.685 C 86.019 187.308,86.468 186.100,87.009 185.000 C 87.550 183.900,88.000 182.640,88.009 182.200 C 88.018 181.760,88.468 180.500,89.009 179.400 C 89.550 178.300,89.994 177.167,89.996 176.882 C 89.998 176.597,90.450 175.518,91.000 174.485 C 91.550 173.452,92.000 172.359,92.000 172.058 C 92.000 171.756,92.340 170.854,92.756 170.054 C 93.172 169.255,94.097 167.340,94.813 165.800 C 95.528 164.260,96.750 161.740,97.528 160.200 C 98.306 158.660,99.285 156.680,99.703 155.800 C 100.121 154.920,100.624 153.930,100.820 153.600 C 101.015 153.270,102.447 150.480,104.000 147.400 C 105.553 144.320,106.988 141.530,107.189 141.200 C 107.389 140.870,108.290 139.070,109.191 137.200 C 110.092 135.330,110.992 133.530,111.191 133.200 C 111.390 132.870,112.297 131.070,113.206 129.200 C 114.115 127.330,115.141 125.260,115.486 124.600 C 115.830 123.940,116.334 122.950,116.606 122.400 C 116.878 121.850,117.766 120.050,118.581 118.400 C 119.396 116.750,120.307 114.950,120.604 114.400 C 120.902 113.850,122.427 110.880,123.992 107.800 C 125.558 104.720,126.999 101.930,127.196 101.600 C 127.392 101.270,128.302 99.470,129.217 97.600 C 130.132 95.730,131.357 93.362,131.940 92.338 C 132.523 91.314,133.334 89.891,133.743 89.176 C 134.151 88.461,134.826 87.509,135.243 87.062 C 135.659 86.615,136.000 86.098,136.000 85.913 C 136.000 84.621,143.721 78.154,147.172 76.557 C 148.397 75.990,149.850 75.291,150.400 75.004 C 155.011 72.595,177.664 70.874,185.217 72.358 C 190.879 73.470,196.786 74.779,198.600 75.324 C 199.700 75.654,201.498 76.048,202.595 76.201 C 203.692 76.353,205.042 76.709,205.595 76.993 C 206.148 77.277,207.680 77.729,209.000 77.998 C 210.320 78.267,211.580 78.632,211.801 78.810 C 212.021 78.988,213.551 79.493,215.201 79.932 C 216.850 80.371,219.730 81.300,221.600 81.997 C 223.470 82.694,225.810 83.534,226.800 83.864 C 227.790 84.194,229.050 84.696,229.600 84.980 C 230.150 85.264,231.320 85.727,232.200 86.007 C 233.080 86.288,234.427 86.851,235.194 87.259 C 235.961 87.666,236.805 88.000,237.070 88.000 C 237.335 88.000,239.446 88.900,241.761 90.000 C 244.076 91.100,246.070 92.000,246.193 92.000 C 246.426 92.000,259.328 98.384,261.400 99.525 C 262.060 99.889,264.220 101.068,266.200 102.146 C 268.180 103.224,270.475 104.532,271.300 105.053 C 272.125 105.574,273.475 106.421,274.300 106.936 C 275.975 107.981,277.684 109.098,278.986 110.000 C 279.462 110.330,280.470 110.990,281.226 111.467 C 292.225 118.408,311.279 136.821,316.600 145.651 C 317.040 146.381,317.799 147.613,318.286 148.389 C 318.773 149.165,319.459 150.430,319.809 151.200 C 320.160 151.970,320.774 153.320,321.175 154.200 C 323.784 159.936,324.823 170.431,323.115 173.801 C 322.781 174.461,322.287 175.936,322.019 177.080 C 321.750 178.224,321.276 179.371,320.965 179.629 C 320.654 179.887,320.400 180.281,320.400 180.504 C 320.400 180.858,318.160 185.513,316.600 188.400 C 316.303 188.950,314.682 192.280,312.997 195.800 C 311.312 199.320,309.684 202.650,309.379 203.200 C 309.074 203.750,308.614 204.650,308.356 205.200 C 307.346 207.354,305.144 211.831,304.816 212.400 C 304.497 212.951,303.413 215.284,301.842 218.800 C 301.498 219.570,301.050 220.470,300.847 220.800 C 300.643 221.130,299.400 223.650,298.083 226.400 C 295.803 231.163,289.903 243.074,288.200 246.353 C 287.760 247.200,287.197 248.142,286.949 248.447 C 286.701 248.751,286.365 249.450,286.203 250.000 C 286.041 250.550,285.586 251.360,285.192 251.800 C 284.799 252.240,284.180 253.230,283.817 254.000 C 282.907 255.930,281.961 257.572,280.899 259.062 C 280.405 259.756,280.000 260.466,280.000 260.640 C 280.000 260.814,279.579 261.597,279.064 262.378 C 278.549 263.160,277.784 264.322,277.364 264.960 C 276.944 265.597,276.330 266.509,276.000 266.986 C 275.670 267.462,275.007 268.470,274.528 269.226 C 273.431 270.953,272.493 272.295,269.989 275.718 C 268.895 277.213,268.000 278.586,268.000 278.769 C 268.000 278.952,267.734 279.323,267.409 279.592 C 267.085 279.862,265.510 281.812,263.909 283.927 C 259.757 289.414,251.534 297.578,247.200 300.516 C 239.420 305.790,237.764 306.754,231.975 309.375 C 227.779 311.275,221.007 313.681,218.400 314.196 C 217.630 314.348,216.280 314.708,215.400 314.996 C 212.034 316.095,200.644 316.912,191.476 316.710 L 182.751 316.519 181.573 318.854 C 180.924 320.139,180.193 322.137,179.948 323.295 C 179.703 324.453,179.266 325.864,178.977 326.431 C 178.464 327.436,177.519 331.961,176.727 337.200 C 176.286 340.123,176.423 346.958,176.933 347.467 C 177.117 347.650,205.917 347.800,240.933 347.800 L 304.600 347.800 307.800 346.863 C 309.560 346.348,312.386 345.403,314.080 344.763 C 315.774 344.123,317.235 343.600,317.328 343.600 C 318.916 343.600,329.192 336.494,332.615 333.029 C 334.550 331.070,339.727 324.650,340.572 323.161 C 342.104 320.461,344.000 316.637,344.013 316.223 C 344.019 315.990,344.468 314.900,345.009 313.800 C 345.550 312.700,345.994 311.508,345.996 311.152 C 345.998 310.796,346.405 309.356,346.900 307.952 L 347.800 305.400 347.800 200.200 L 347.800 95.000 346.900 92.448 C 346.405 91.044,345.998 89.604,345.996 89.248 C 345.994 88.892,345.550 87.700,345.009 86.600 C 344.468 85.500,344.008 84.330,343.987 84.000 C 343.967 83.670,343.250 82.140,342.396 80.600 C 341.541 79.060,340.485 77.158,340.050 76.373 C 339.615 75.589,338.975 74.711,338.629 74.424 C 338.283 74.137,338.000 73.672,338.000 73.390 C 338.000 71.956,326.777 61.769,322.910 59.693 C 316.559 56.283,313.241 54.938,307.200 53.323 L 303.000 52.200 202.400 52.153 C 147.070 52.127,100.359 52.234,98.599 52.391 M162.600 86.997 C 161.500 87.296,159.700 87.659,158.600 87.804 C 153.184 88.517,148.613 92.303,145.322 98.800 L 143.803 101.800 143.802 108.000 C 143.800 113.598,143.882 114.339,144.647 115.633 C 145.112 116.420,145.704 117.704,145.962 118.484 C 146.219 119.265,146.783 120.223,147.215 120.614 C 147.647 121.004,148.000 121.541,148.000 121.807 C 148.000 122.073,148.495 122.937,149.100 123.729 C 149.705 124.520,150.650 125.817,151.200 126.611 C 157.786 136.117,167.627 145.029,180.200 152.872 C 181.300 153.559,182.830 154.523,183.600 155.016 C 188.240 157.986,207.695 168.000,208.824 168.000 C 209.076 168.000,210.119 168.429,211.141 168.953 C 214.612 170.733,217.478 172.000,218.040 172.002 C 218.348 172.004,219.140 172.293,219.800 172.645 C 220.460 172.998,221.900 173.615,223.000 174.016 C 224.100 174.418,226.440 175.307,228.200 175.993 C 232.918 177.830,238.301 179.636,240.800 180.221 C 242.010 180.504,243.990 181.010,245.200 181.345 C 268.728 187.866,294.318 187.309,303.082 180.085 C 308.659 175.488,310.435 165.286,306.829 158.559 C 306.373 157.708,306.000 156.839,306.000 156.627 C 306.000 156.261,305.382 155.256,302.665 151.200 C 298.010 144.253,288.228 134.656,279.098 128.079 C 278.395 127.573,276.916 126.492,275.810 125.678 C 274.705 124.864,273.503 124.019,273.141 123.799 C 272.778 123.580,271.608 122.790,270.541 122.044 C 268.568 120.665,259.752 115.285,257.200 113.901 C 256.430 113.484,254.900 112.654,253.800 112.056 C 248.653 109.259,239.817 104.955,235.200 102.995 C 233.770 102.389,231.697 101.466,230.594 100.946 C 229.491 100.426,228.321 99.998,227.994 99.996 C 227.667 99.994,226.500 99.550,225.400 99.009 C 224.300 98.468,223.168 98.019,222.884 98.013 C 222.600 98.006,221.693 97.655,220.867 97.234 C 220.041 96.813,218.383 96.190,217.183 95.850 C 215.982 95.510,212.750 94.495,210.000 93.595 C 199.135 90.039,193.018 88.416,188.000 87.760 C 185.690 87.457,182.900 87.039,181.800 86.829 C 178.681 86.234,164.967 86.354,162.600 86.997 M190.268 99.384 C 190.890 99.706,195.360 101.887,200.200 104.232 C 205.040 106.577,212.600 110.257,217.000 112.412 C 221.400 114.566,227.880 117.729,231.400 119.441 C 242.086 124.639,242.831 125.309,240.800 127.891 C 240.360 128.450,240.000 129.201,240.000 129.559 C 240.000 129.916,239.407 131.107,238.682 132.205 C 236.906 134.893,236.218 134.816,228.656 131.083 C 225.325 129.439,218.640 126.160,213.800 123.796 C 208.960 121.433,201.400 117.741,197.000 115.592 C 192.600 113.443,188.730 111.577,188.400 111.445 C 188.070 111.313,187.530 111.024,187.200 110.802 C 186.870 110.581,186.105 110.224,185.500 110.010 C 183.480 109.294,182.764 107.495,183.614 105.274 C 185.773 99.637,187.608 98.012,190.268 99.384 M184.000 122.241 C 186.530 123.475,188.870 124.633,189.200 124.813 C 190.056 125.281,194.208 127.306,200.000 130.081 C 202.750 131.399,205.270 132.627,205.600 132.809 C 207.687 133.964,228.240 143.920,229.028 144.158 C 229.483 144.295,230.256 144.949,230.745 145.611 L 231.634 146.814 230.317 149.445 C 227.793 154.487,227.576 154.828,226.599 155.273 C 225.761 155.655,225.250 155.525,223.109 154.384 C 219.986 152.720,219.679 152.568,213.800 149.786 C 211.160 148.537,208.730 147.367,208.400 147.187 C 207.544 146.719,203.392 144.694,197.600 141.919 C 194.850 140.601,192.330 139.374,192.000 139.192 C 191.076 138.683,185.517 135.941,180.200 133.372 C 171.332 129.087,171.676 129.643,174.451 124.100 C 177.022 118.962,177.204 118.927,184.000 122.241 M271.400 142.373 C 277.761 145.611,280.501 148.089,282.439 152.355 C 287.406 163.291,274.917 173.556,262.600 168.661 C 251.293 164.168,250.058 162.868,252.466 158.000 C 253.283 156.350,254.516 153.740,255.207 152.200 C 255.898 150.660,256.630 149.130,256.834 148.800 C 257.039 148.470,257.401 147.750,257.639 147.200 C 257.877 146.650,258.505 145.363,259.036 144.341 C 259.566 143.319,260.000 142.184,260.000 141.821 C 260.000 141.457,260.653 140.561,261.452 139.829 L 262.904 138.498 265.152 139.418 C 266.388 139.924,269.200 141.254,271.400 142.373 " stroke="none" fill="#fafafb" fill-rule="evenodd"></path><path id="path1" d="M77.200 0.600 C 77.200 1.093,76.489 1.200,73.200 1.200 C 69.216 1.200,69.200 1.204,69.200 2.185 C 69.200 3.152,69.134 3.172,65.500 3.285 C 62.102 3.391,61.768 3.473,61.405 4.300 C 61.075 5.052,60.697 5.200,59.105 5.200 C 57.340 5.200,57.200 5.273,57.200 6.200 C 57.200 7.133,57.067 7.200,55.200 7.200 C 53.333 7.200,53.200 7.267,53.200 8.200 C 53.200 9.133,53.067 9.200,51.200 9.200 C 49.333 9.200,49.200 9.267,49.200 10.200 C 49.200 11.133,49.067 11.200,47.200 11.200 C 45.345 11.200,45.200 11.271,45.200 12.178 C 45.200 13.061,45.015 13.168,43.300 13.278 C 41.679 13.382,41.381 13.532,41.272 14.300 C 41.180 14.951,40.876 15.200,40.172 15.200 C 39.402 15.200,39.200 15.408,39.200 16.200 C 39.200 17.000,39.000 17.200,38.200 17.200 C 37.400 17.200,37.200 17.400,37.200 18.200 C 37.200 19.133,37.067 19.200,35.200 19.200 C 33.333 19.200,33.200 19.267,33.200 20.200 C 33.200 21.000,33.000 21.200,32.200 21.200 C 31.400 21.200,31.200 21.400,31.200 22.200 C 31.200 23.000,31.000 23.200,30.200 23.200 C 29.400 23.200,29.200 23.400,29.200 24.200 C 29.200 25.000,29.000 25.200,28.200 25.200 C 27.400 25.200,27.200 25.400,27.200 26.200 C 27.200 27.000,27.000 27.200,26.200 27.200 C 25.400 27.200,25.200 27.400,25.200 28.200 C 25.200 29.000,25.000 29.200,24.200 29.200 C 23.400 29.200,23.200 29.400,23.200 30.200 C 23.200 31.000,23.000 31.200,22.200 31.200 C 21.400 31.200,21.200 31.400,21.200 32.200 C 21.200 33.000,21.000 33.200,20.200 33.200 C 19.267 33.200,19.200 33.333,19.200 35.200 C 19.200 37.067,19.133 37.200,18.200 37.200 C 17.400 37.200,17.200 37.400,17.200 38.200 C 17.200 39.000,17.000 39.200,16.200 39.200 C 15.267 39.200,15.200 39.333,15.200 41.200 C 15.200 43.067,15.133 43.200,14.200 43.200 C 13.400 43.200,13.200 43.400,13.200 44.200 C 13.200 45.000,13.000 45.200,12.200 45.200 C 11.267 45.200,11.200 45.333,11.200 47.200 C 11.200 49.067,11.133 49.200,10.200 49.200 C 9.267 49.200,9.200 49.333,9.200 51.200 C 9.200 53.067,9.133 53.200,8.200 53.200 C 7.267 53.200,7.200 53.333,7.200 55.200 C 7.200 57.067,7.133 57.200,6.200 57.200 C 5.246 57.200,5.200 57.309,5.200 59.571 C 5.200 61.624,5.066 62.048,4.200 62.729 C 3.301 63.436,3.200 63.802,3.200 66.358 C 3.200 69.123,3.173 69.200,2.200 69.200 L 1.200 69.200 1.200 73.200 C 1.200 76.489,1.093 77.200,0.600 77.200 C 0.068 77.200,0.000 91.111,0.000 200.000 C 0.000 308.889,0.068 322.800,0.600 322.800 C 1.093 322.800,1.200 323.511,1.200 326.800 C 1.200 330.784,1.204 330.800,2.185 330.800 C 3.152 330.800,3.172 330.866,3.285 334.500 C 3.391 337.898,3.473 338.232,4.300 338.595 C 5.052 338.925,5.200 339.303,5.200 340.895 C 5.200 342.660,5.273 342.800,6.200 342.800 C 7.133 342.800,7.200 342.933,7.200 344.800 C 7.200 346.667,7.267 346.800,8.200 346.800 C 9.133 346.800,9.200 346.933,9.200 348.800 C 9.200 350.667,9.267 350.800,10.200 350.800 C 11.133 350.800,11.200 350.933,11.200 352.800 C 11.200 354.667,11.267 354.800,12.200 354.800 C 13.133 354.800,13.200 354.933,13.200 356.800 C 13.200 358.667,13.267 358.800,14.200 358.800 C 15.000 358.800,15.200 359.000,15.200 359.800 C 15.200 360.600,15.400 360.800,16.200 360.800 C 17.048 360.800,17.200 360.985,17.200 362.019 C 17.200 362.806,17.555 363.567,18.200 364.165 C 18.750 364.675,19.200 365.476,19.200 365.946 C 19.200 366.590,19.446 366.800,20.200 366.800 C 21.000 366.800,21.200 367.000,21.200 367.800 C 21.200 368.600,21.400 368.800,22.200 368.800 C 23.000 368.800,23.200 369.000,23.200 369.800 C 23.200 370.600,23.400 370.800,24.200 370.800 C 25.000 370.800,25.200 371.000,25.200 371.800 C 25.200 372.600,25.400 372.800,26.200 372.800 C 27.000 372.800,27.200 373.000,27.200 373.800 C 27.200 374.600,27.400 374.800,28.200 374.800 C 29.000 374.800,29.200 375.000,29.200 375.800 C 29.200 376.600,29.400 376.800,30.200 376.800 C 31.000 376.800,31.200 377.000,31.200 377.800 C 31.200 378.600,31.400 378.800,32.200 378.800 C 33.000 378.800,33.200 379.000,33.200 379.800 C 33.200 380.600,33.400 380.800,34.200 380.800 C 35.000 380.800,35.200 381.000,35.200 381.800 C 35.200 382.733,35.333 382.800,37.200 382.800 C 39.067 382.800,39.200 382.867,39.200 383.800 C 39.200 384.600,39.400 384.800,40.200 384.800 C 41.000 384.800,41.200 385.000,41.200 385.800 C 41.200 386.733,41.333 386.800,43.200 386.800 C 45.067 386.800,45.200 386.867,45.200 387.800 C 45.200 388.572,45.406 388.800,46.105 388.800 C 46.660 388.800,47.163 389.148,47.405 389.700 C 47.710 390.395,48.187 390.628,49.500 390.723 C 51.002 390.832,51.200 390.960,51.200 391.823 C 51.200 392.772,51.285 392.800,54.200 392.800 C 57.133 392.800,57.200 392.822,57.200 393.800 C 57.200 394.733,57.333 394.800,59.200 394.800 C 61.067 394.800,61.200 394.867,61.200 395.800 C 61.200 396.778,61.267 396.800,64.200 396.800 C 67.133 396.800,67.200 396.822,67.200 397.800 L 67.200 398.800 71.200 398.800 C 74.489 398.800,75.200 398.907,75.200 399.400 C 75.200 399.932,89.333 400.000,200.000 400.000 C 310.667 400.000,324.800 399.932,324.800 399.400 C 324.800 398.907,325.511 398.800,328.800 398.800 L 332.800 398.800 332.800 397.800 C 332.800 396.822,332.867 396.800,335.800 396.800 C 338.719 396.800,338.800 396.773,338.800 395.818 C 338.800 394.875,338.919 394.830,341.700 394.718 C 344.361 394.610,344.611 394.526,344.728 393.700 C 344.841 392.906,345.087 392.800,346.828 392.800 C 348.665 392.800,348.800 392.731,348.800 391.800 C 348.800 390.867,348.933 390.800,350.800 390.800 C 352.667 390.800,352.800 390.733,352.800 389.800 C 352.800 389.000,353.000 388.800,353.800 388.800 C 354.600 388.800,354.800 388.600,354.800 387.800 C 354.800 386.867,354.933 386.800,356.800 386.800 C 358.667 386.800,358.800 386.733,358.800 385.800 C 358.800 385.000,359.000 384.800,359.800 384.800 C 360.600 384.800,360.800 384.600,360.800 383.800 C 360.800 382.867,360.933 382.800,362.800 382.800 C 364.667 382.800,364.800 382.733,364.800 381.800 C 364.800 381.000,365.000 380.800,365.800 380.800 C 366.600 380.800,366.800 380.600,366.800 379.800 C 366.800 379.000,367.000 378.800,367.800 378.800 C 368.600 378.800,368.800 378.600,368.800 377.800 C 368.800 377.000,369.000 376.800,369.800 376.800 C 370.600 376.800,370.800 376.600,370.800 375.800 C 370.800 375.000,371.000 374.800,371.800 374.800 C 372.600 374.800,372.800 374.600,372.800 373.800 C 372.800 373.000,373.000 372.800,373.800 372.800 C 374.600 372.800,374.800 372.600,374.800 371.800 C 374.800 371.000,375.000 370.800,375.800 370.800 C 376.600 370.800,376.800 370.600,376.800 369.800 C 376.800 369.000,377.000 368.800,377.800 368.800 C 378.600 368.800,378.800 368.600,378.800 367.800 C 378.800 367.000,379.000 366.800,379.800 366.800 C 380.600 366.800,380.800 366.600,380.800 365.800 C 380.800 365.000,381.000 364.800,381.800 364.800 C 382.733 364.800,382.800 364.667,382.800 362.800 C 382.800 360.933,382.867 360.800,383.800 360.800 C 384.600 360.800,384.800 360.600,384.800 359.800 C 384.800 359.000,385.000 358.800,385.800 358.800 C 386.733 358.800,386.800 358.667,386.800 356.800 C 386.800 354.933,386.867 354.800,387.800 354.800 C 388.592 354.800,388.800 354.598,388.800 353.828 C 388.800 353.124,389.049 352.820,389.700 352.728 C 390.468 352.619,390.618 352.321,390.722 350.700 C 390.832 348.985,390.939 348.800,391.822 348.800 C 392.719 348.800,392.800 348.646,392.800 346.946 C 392.800 345.482,393.010 344.897,393.800 344.165 C 394.635 343.391,394.800 342.872,394.800 341.019 C 394.800 338.919,394.854 338.800,395.800 338.800 C 396.778 338.800,396.800 338.733,396.800 335.800 C 396.800 332.867,396.822 332.800,397.800 332.800 L 398.800 332.800 398.800 328.800 C 398.800 325.511,398.907 324.800,399.400 324.800 C 399.932 324.800,400.000 310.667,400.000 200.000 C 400.000 89.333,399.932 75.200,399.400 75.200 C 398.907 75.200,398.800 74.489,398.800 71.200 L 398.800 67.200 397.800 67.200 C 396.822 67.200,396.800 67.133,396.800 64.200 C 396.800 61.267,396.778 61.200,395.800 61.200 C 394.867 61.200,394.800 61.067,394.800 59.200 C 394.800 57.333,394.733 57.200,393.800 57.200 C 392.822 57.200,392.800 57.133,392.800 54.200 C 392.800 51.267,392.778 51.200,391.800 51.200 C 391.000 51.200,390.800 51.000,390.800 50.200 C 390.800 49.400,390.600 49.200,389.800 49.200 C 388.867 49.200,388.800 49.067,388.800 47.200 C 388.800 45.333,388.733 45.200,387.800 45.200 C 386.867 45.200,386.800 45.067,386.800 43.200 C 386.800 41.333,386.733 41.200,385.800 41.200 C 385.000 41.200,384.800 41.000,384.800 40.200 C 384.800 39.406,384.599 39.200,383.822 39.200 C 382.939 39.200,382.832 39.015,382.722 37.300 C 382.618 35.679,382.468 35.381,381.700 35.272 C 381.049 35.180,380.800 34.876,380.800 34.172 C 380.800 33.402,380.592 33.200,379.800 33.200 C 379.000 33.200,378.800 33.000,378.800 32.200 C 378.800 31.400,378.600 31.200,377.800 31.200 C 377.000 31.200,376.800 31.000,376.800 30.200 C 376.800 29.400,376.600 29.200,375.800 29.200 C 375.000 29.200,374.800 29.000,374.800 28.200 C 374.800 27.400,374.600 27.200,373.800 27.200 C 373.000 27.200,372.800 27.000,372.800 26.200 C 372.800 25.400,372.600 25.200,371.800 25.200 C 371.000 25.200,370.800 25.000,370.800 24.200 C 370.800 23.400,370.600 23.200,369.800 23.200 C 369.000 23.200,368.800 23.000,368.800 22.200 C 368.800 21.400,368.600 21.200,367.800 21.200 C 367.000 21.200,366.800 21.000,366.800 20.200 C 366.800 19.408,366.598 19.200,365.828 19.200 C 365.124 19.200,364.820 18.951,364.728 18.300 C 364.619 17.532,364.321 17.382,362.700 17.278 C 360.985 17.168,360.800 17.061,360.800 16.178 C 360.800 15.401,360.594 15.200,359.800 15.200 C 359.000 15.200,358.800 15.000,358.800 14.200 C 358.800 13.267,358.667 13.200,356.800 13.200 C 354.933 13.200,354.800 13.133,354.800 12.200 C 354.800 11.267,354.667 11.200,352.800 11.200 C 350.933 11.200,350.800 11.133,350.800 10.200 C 350.800 9.446,350.590 9.200,349.946 9.200 C 349.476 9.200,348.675 8.750,348.165 8.200 C 347.391 7.365,346.872 7.200,345.019 7.200 C 342.919 7.200,342.800 7.146,342.800 6.200 C 342.800 5.267,342.667 5.200,340.800 5.200 C 338.933 5.200,338.800 5.133,338.800 4.200 L 338.800 3.200 334.800 3.200 L 330.800 3.200 330.800 2.200 L 330.800 1.200 326.800 1.200 C 323.511 1.200,322.800 1.093,322.800 0.600 C 322.800 0.068,308.889 0.000,200.000 0.000 C 91.111 0.000,77.200 0.068,77.200 0.600 M307.200 53.323 C 313.241 54.938,316.559 56.283,322.910 59.693 C 326.777 61.769,338.000 71.956,338.000 73.390 C 338.000 73.672,338.283 74.137,338.629 74.424 C 338.975 74.711,339.615 75.589,340.050 76.373 C 340.485 77.158,341.541 79.060,342.396 80.600 C 343.250 82.140,343.967 83.670,343.987 84.000 C 344.008 84.330,344.468 85.500,345.009 86.600 C 345.550 87.700,345.994 88.892,345.996 89.248 C 345.998 89.604,346.405 91.044,346.900 92.448 L 347.800 95.000 347.800 200.200 L 347.800 305.400 346.900 307.952 C 346.405 309.356,345.998 310.796,345.996 311.152 C 345.994 311.508,345.550 312.700,345.009 313.800 C 344.468 314.900,344.019 315.990,344.013 316.223 C 344.000 316.637,342.104 320.461,340.572 323.161 C 339.727 324.650,334.550 331.070,332.615 333.029 C 329.192 336.494,318.916 343.600,317.328 343.600 C 317.235 343.600,315.774 344.123,314.080 344.763 C 312.386 345.403,309.560 346.348,307.800 346.863 L 304.600 347.800 240.933 347.800 C 205.917 347.800,177.117 347.650,176.933 347.467 C 176.423 346.958,176.286 340.123,176.727 337.200 C 177.519 331.961,178.464 327.436,178.977 326.431 C 179.266 325.864,179.703 324.453,179.948 323.295 C 180.193 322.137,180.924 320.139,181.573 318.854 L 182.751 316.519 191.476 316.710 C 200.644 316.912,212.034 316.095,215.400 314.996 C 216.280 314.708,217.630 314.348,218.400 314.196 C 221.007 313.681,227.779 311.275,231.975 309.375 C 237.764 306.754,239.420 305.790,247.200 300.516 C 251.534 297.578,259.757 289.414,263.909 283.927 C 265.510 281.812,267.085 279.862,267.409 279.592 C 267.734 279.323,268.000 278.952,268.000 278.769 C 268.000 278.586,268.895 277.213,269.989 275.718 C 272.493 272.295,273.431 270.953,274.528 269.226 C 275.007 268.470,275.670 267.462,276.000 266.986 C 276.330 266.509,276.944 265.597,277.364 264.960 C 277.784 264.322,278.549 263.160,279.064 262.378 C 279.579 261.597,280.000 260.814,280.000 260.640 C 280.000 260.466,280.405 259.756,280.899 259.062 C 281.961 257.572,282.907 255.930,283.817 254.000 C 284.180 253.230,284.799 252.240,285.192 251.800 C 285.586 251.360,286.041 250.550,286.203 250.000 C 286.365 249.450,286.701 248.751,286.949 248.447 C 287.197 248.142,287.760 247.200,288.200 246.353 C 289.903 243.074,295.803 231.163,298.083 226.400 C 299.400 223.650,300.643 221.130,300.847 220.800 C 301.050 220.470,301.498 219.570,301.842 218.800 C 303.413 215.284,304.497 212.951,304.816 212.400 C 305.144 211.831,307.346 207.354,308.356 205.200 C 308.614 204.650,309.074 203.750,309.379 203.200 C 309.684 202.650,311.312 199.320,312.997 195.800 C 314.682 192.280,316.303 188.950,316.600 188.400 C 318.160 185.513,320.400 180.858,320.400 180.504 C 320.400 180.281,320.654 179.887,320.965 179.629 C 321.276 179.371,321.750 178.224,322.019 177.080 C 322.287 175.936,322.781 174.461,323.115 173.801 C 324.823 170.431,323.784 159.936,321.175 154.200 C 320.774 153.320,320.160 151.970,319.809 151.200 C 319.459 150.430,318.773 149.165,318.286 148.389 C 317.799 147.613,317.040 146.381,316.600 145.651 C 311.279 136.821,292.225 118.408,281.226 111.467 C 280.470 110.990,279.462 110.330,278.986 110.000 C 277.684 109.098,275.975 107.981,274.300 106.936 C 273.475 106.421,272.125 105.574,271.300 105.053 C 270.475 104.532,268.180 103.224,266.200 102.146 C 264.220 101.068,262.060 99.889,261.400 99.525 C 259.328 98.384,246.426 92.000,246.193 92.000 C 246.070 92.000,244.076 91.100,241.761 90.000 C 239.446 88.900,237.335 88.000,237.070 88.000 C 236.805 88.000,235.961 87.666,235.194 87.259 C 234.427 86.851,233.080 86.288,232.200 86.007 C 231.320 85.727,230.150 85.264,229.600 84.980 C 229.050 84.696,227.790 84.194,226.800 83.864 C 225.810 83.534,223.470 82.694,221.600 81.997 C 219.730 81.300,216.850 80.371,215.201 79.932 C 213.551 79.493,212.021 78.988,211.801 78.810 C 211.580 78.632,210.320 78.267,209.000 77.998 C 207.680 77.729,206.148 77.277,205.595 76.993 C 205.042 76.709,203.692 76.353,202.595 76.201 C 201.498 76.048,199.700 75.654,198.600 75.324 C 196.786 74.779,190.879 73.470,185.217 72.358 C 177.664 70.874,155.011 72.595,150.400 75.004 C 149.850 75.291,148.397 75.990,147.172 76.557 C 143.721 78.154,136.000 84.621,136.000 85.913 C 136.000 86.098,135.659 86.615,135.243 87.062 C 134.826 87.509,134.151 88.461,133.743 89.176 C 133.334 89.891,132.523 91.314,131.940 92.338 C 131.357 93.362,130.132 95.730,129.217 97.600 C 128.302 99.470,127.392 101.270,127.196 101.600 C 126.999 101.930,125.558 104.720,123.992 107.800 C 122.427 110.880,120.902 113.850,120.604 114.400 C 120.307 114.950,119.396 116.750,118.581 118.400 C 117.766 120.050,116.878 121.850,116.606 122.400 C 116.334 122.950,115.830 123.940,115.486 124.600 C 115.141 125.260,114.115 127.330,113.206 129.200 C 112.297 131.070,111.390 132.870,111.191 133.200 C 110.992 133.530,110.092 135.330,109.191 137.200 C 108.290 139.070,107.389 140.870,107.189 141.200 C 106.988 141.530,105.553 144.320,104.000 147.400 C 102.447 150.480,101.015 153.270,100.820 153.600 C 100.624 153.930,100.121 154.920,99.703 155.800 C 99.285 156.680,98.306 158.660,97.528 160.200 C 96.750 161.740,95.528 164.260,94.813 165.800 C 94.097 167.340,93.172 169.255,92.756 170.054 C 92.340 170.854,92.000 171.756,92.000 172.058 C 92.000 172.359,91.550 173.452,91.000 174.485 C 90.450 175.518,89.998 176.597,89.996 176.882 C 89.994 177.167,89.550 178.300,89.009 179.400 C 88.468 180.500,88.018 181.760,88.009 182.200 C 88.000 182.640,87.550 183.900,87.009 185.000 C 86.468 186.100,86.019 187.308,86.013 187.685 C 86.006 188.062,85.653 189.322,85.229 190.485 C 84.805 191.648,84.276 193.770,84.054 195.200 C 83.832 196.630,83.339 199.420,82.959 201.400 C 81.904 206.890,81.975 218.292,83.105 224.800 C 83.582 227.550,84.137 230.880,84.338 232.200 C 85.281 238.391,89.212 251.578,91.210 255.254 C 91.644 256.054,92.000 256.903,92.000 257.141 C 92.000 257.799,95.601 264.037,97.800 267.188 C 100.456 270.994,100.428 270.929,100.168 272.600 C 100.032 273.480,99.593 274.954,99.194 275.875 C 98.794 276.796,98.256 278.568,97.997 279.813 C 97.739 281.057,97.266 282.701,96.947 283.466 C 96.627 284.230,96.116 286.148,95.810 287.728 C 95.504 289.308,94.975 291.680,94.634 293.000 C 93.165 298.696,92.719 300.839,92.179 304.800 C 91.865 307.110,91.324 310.620,90.977 312.600 C 90.087 317.685,89.500 330.630,89.810 338.315 C 90.171 347.281,90.356 347.200,80.600 342.348 C 78.332 341.220,77.264 340.572,73.200 337.861 C 71.676 336.845,64.697 330.091,63.227 328.210 C 62.727 327.571,61.372 325.569,59.690 322.984 C 59.410 322.553,58.802 321.390,58.339 320.400 C 57.877 319.410,57.296 318.349,57.049 318.042 C 56.478 317.333,55.117 313.426,53.480 307.800 L 52.200 303.400 52.200 200.200 L 52.200 97.000 53.100 93.974 C 53.595 92.310,54.002 90.600,54.004 90.174 C 54.006 89.749,54.450 88.500,54.991 87.400 C 55.532 86.300,55.981 85.160,55.987 84.866 C 56.002 84.240,58.541 78.994,59.232 78.161 C 59.493 77.847,59.997 77.071,60.353 76.436 C 65.850 66.626,78.406 57.323,90.400 54.172 C 91.610 53.854,93.229 53.388,93.999 53.135 C 96.927 52.175,104.464 52.107,202.400 52.153 L 303.000 52.200 307.200 53.323 M181.800 86.829 C 182.900 87.039,185.690 87.457,188.000 87.760 C 193.018 88.416,199.135 90.039,210.000 93.595 C 212.750 94.495,215.982 95.510,217.183 95.850 C 218.383 96.190,220.041 96.813,220.867 97.234 C 221.693 97.655,222.600 98.006,222.884 98.013 C 223.168 98.019,224.300 98.468,225.400 99.009 C 226.500 99.550,227.667 99.994,227.994 99.996 C 228.321 99.998,229.491 100.426,230.594 100.946 C 231.697 101.466,233.770 102.389,235.200 102.995 C 239.817 104.955,248.653 109.259,253.800 112.056 C 254.900 112.654,256.430 113.484,257.200 113.901 C 259.752 115.285,268.568 120.665,270.541 122.044 C 271.608 122.790,272.778 123.580,273.141 123.799 C 273.503 124.019,274.705 124.864,275.810 125.678 C 276.916 126.492,278.395 127.573,279.098 128.079 C 288.228 134.656,298.010 144.253,302.665 151.200 C 305.382 155.256,306.000 156.261,306.000 156.627 C 306.000 156.839,306.373 157.708,306.829 158.559 C 311.373 167.038,307.766 178.449,299.200 182.693 C 289.845 187.328,264.503 186.695,245.200 181.345 C 243.990 181.010,242.010 180.504,240.800 180.221 C 238.301 179.636,232.918 177.830,228.200 175.993 C 226.440 175.307,224.100 174.418,223.000 174.016 C 221.900 173.615,220.460 172.998,219.800 172.645 C 219.140 172.293,218.348 172.004,218.040 172.002 C 217.478 172.000,214.612 170.733,211.141 168.953 C 210.119 168.429,209.076 168.000,208.824 168.000 C 207.695 168.000,188.240 157.986,183.600 155.016 C 182.830 154.523,181.300 153.559,180.200 152.872 C 167.627 145.029,157.786 136.117,151.200 126.611 C 150.650 125.817,149.705 124.520,149.100 123.729 C 148.495 122.937,148.000 122.073,148.000 121.807 C 148.000 121.541,147.647 121.004,147.215 120.614 C 146.783 120.223,146.219 119.265,145.962 118.484 C 145.704 117.704,145.112 116.420,144.647 115.633 C 143.882 114.339,143.800 113.598,143.802 108.000 L 143.803 101.800 145.322 98.800 C 148.613 92.303,153.184 88.517,158.600 87.804 C 159.700 87.659,161.500 87.296,162.600 86.997 C 164.967 86.354,178.681 86.234,181.800 86.829 M187.352 99.193 C 186.433 99.565,184.756 102.292,183.614 105.274 C 182.764 107.495,183.480 109.294,185.500 110.010 C 186.105 110.224,186.870 110.581,187.200 110.802 C 187.530 111.024,188.070 111.313,188.400 111.445 C 188.730 111.577,192.600 113.443,197.000 115.592 C 201.400 117.741,208.960 121.433,213.800 123.796 C 218.640 126.160,225.325 129.439,228.656 131.083 C 236.218 134.816,236.906 134.893,238.682 132.205 C 239.407 131.107,240.000 129.916,240.000 129.559 C 240.000 129.201,240.360 128.450,240.800 127.891 C 242.831 125.309,242.086 124.639,231.400 119.441 C 227.880 117.729,221.400 114.566,217.000 112.412 C 212.600 110.257,205.040 106.577,200.200 104.232 C 195.360 101.887,190.890 99.706,190.268 99.384 C 188.997 98.729,188.571 98.701,187.352 99.193 M174.451 124.100 C 171.676 129.643,171.332 129.087,180.200 133.372 C 185.517 135.941,191.076 138.683,192.000 139.192 C 192.330 139.374,194.850 140.601,197.600 141.919 C 203.392 144.694,207.544 146.719,208.400 147.187 C 208.730 147.367,211.160 148.537,213.800 149.786 C 219.679 152.568,219.986 152.720,223.109 154.384 C 225.250 155.525,225.761 155.655,226.599 155.273 C 227.576 154.828,227.793 154.487,230.317 149.445 L 231.634 146.814 230.745 145.611 C 230.256 144.949,229.483 144.295,229.028 144.158 C 228.240 143.920,207.687 133.964,205.600 132.809 C 205.270 132.627,202.750 131.399,200.000 130.081 C 194.208 127.306,190.056 125.281,189.200 124.813 C 178.220 118.811,177.124 118.758,174.451 124.100 M261.452 139.829 C 260.653 140.561,260.000 141.457,260.000 141.821 C 260.000 142.184,259.566 143.319,259.036 144.341 C 258.505 145.363,257.877 146.650,257.639 147.200 C 257.401 147.750,257.039 148.470,256.834 148.800 C 256.630 149.130,255.898 150.660,255.207 152.200 C 254.516 153.740,253.283 156.350,252.466 158.000 C 250.058 162.868,251.293 164.168,262.600 168.661 C 274.917 173.556,287.406 163.291,282.439 152.355 C 280.132 147.275,275.036 143.461,265.152 139.418 L 262.904 138.498 261.452 139.829 " stroke="none" fill="#043ba3" fill-rule="evenodd"></path></g></svg>
