<svg id="svg" version="1.1" xmlns="http://www.w3.org/2000/svg" xmlns:xlink="http://www.w3.org/1999/xlink" width="400" height="380.2247191011236" viewBox="0, 0, 400,380.2247191011236"><g id="svgg"><path id="path0" d="M134.411 235.530 C 132.067 235.895,116.729 235.995,67.590 235.967 C 3.972 235.932,3.812 235.933,4.066 236.692 C 4.206 237.110,4.327 237.752,4.333 238.118 C 4.340 238.484,4.524 238.783,4.743 238.783 C 4.961 238.783,5.354 239.125,5.615 239.544 C 5.876 239.962,6.383 240.304,6.742 240.304 C 7.256 240.304,7.202 240.438,6.488 240.939 L 5.582 241.573 6.427 241.886 C 6.893 242.058,7.167 242.371,7.037 242.581 C 6.907 242.791,7.259 243.387,7.819 243.906 C 8.537 244.571,8.786 245.117,8.664 245.757 C 8.521 246.503,8.621 246.630,9.226 246.472 C 9.787 246.325,9.930 246.448,9.827 246.984 C 9.752 247.372,10.077 248.106,10.549 248.615 C 11.083 249.191,11.407 250.020,11.407 250.809 C 11.407 251.856,11.578 252.120,12.392 252.324 C 13.166 252.518,13.342 252.757,13.212 253.437 C 13.106 253.991,13.206 254.242,13.489 254.133 C 13.733 254.040,14.262 254.652,14.666 255.494 C 15.069 256.337,15.546 257.027,15.726 257.030 C 15.905 257.032,15.950 257.442,15.824 257.941 C 15.646 258.650,15.773 258.895,16.403 259.059 C 16.941 259.200,17.133 259.468,16.981 259.863 C 16.839 260.235,16.963 260.456,17.312 260.456 C 17.619 260.456,17.871 260.798,17.871 261.217 C 17.871 261.635,18.045 261.977,18.258 261.977 C 18.472 261.977,18.572 262.383,18.482 262.880 C 18.362 263.545,18.485 263.770,18.950 263.735 C 19.298 263.709,19.537 263.908,19.482 264.177 C 19.427 264.446,19.812 265.065,20.338 265.552 C 21.018 266.183,21.293 266.832,21.293 267.812 C 21.293 268.975,21.445 269.225,22.278 269.434 C 23.065 269.632,23.229 269.863,23.091 270.582 C 22.978 271.173,23.097 271.483,23.437 271.483 C 23.739 271.483,23.954 271.889,23.954 272.461 C 23.954 273.561,24.741 274.525,25.638 274.525 C 26.336 274.525,26.411 274.958,25.815 275.554 C 25.507 275.861,25.584 275.959,26.100 275.915 C 26.627 275.871,26.776 276.073,26.687 276.711 C 26.607 277.284,26.764 277.567,27.162 277.567 C 27.489 277.567,27.757 277.823,27.757 278.137 C 27.757 278.451,27.938 278.707,28.160 278.707 C 28.392 278.707,28.488 279.180,28.387 279.822 C 28.254 280.666,28.341 280.887,28.745 280.732 C 29.118 280.588,29.278 280.824,29.278 281.518 C 29.278 282.322,29.457 282.510,30.228 282.510 C 31.206 282.510,31.182 282.447,31.330 285.361 C 31.351 285.779,31.765 286.293,32.248 286.502 C 32.886 286.777,33.084 287.118,32.967 287.738 C 32.863 288.285,32.992 288.593,33.323 288.593 C 33.640 288.593,33.840 289.019,33.840 289.697 C 33.840 290.595,34.065 290.879,35.052 291.223 C 35.987 291.548,36.161 291.748,35.812 292.096 C 35.165 292.744,35.252 293.039,36.160 293.276 C 36.632 293.399,36.850 293.662,36.692 293.916 C 36.546 294.153,36.727 294.568,37.096 294.837 C 37.509 295.139,37.672 295.573,37.521 295.967 C 37.370 296.359,37.493 296.690,37.837 296.822 C 38.146 296.941,38.301 297.195,38.182 297.388 C 38.064 297.580,38.107 297.713,38.280 297.683 C 39.843 297.411,40.416 297.725,39.734 298.479 C 39.115 299.163,39.109 299.240,39.675 299.240 C 40.021 299.240,40.304 299.496,40.304 299.810 C 40.304 300.124,40.475 300.380,40.684 300.380 C 40.894 300.380,41.065 301.093,41.065 301.965 C 41.065 302.836,41.168 303.445,41.295 303.318 C 41.725 302.888,42.994 304.427,42.745 305.076 C 42.583 305.499,42.703 305.703,43.115 305.703 C 43.540 305.703,43.726 306.049,43.726 306.837 C 43.726 307.734,43.928 308.021,44.693 308.213 C 45.310 308.368,45.621 308.682,45.554 309.081 C 45.496 309.425,45.831 310.089,46.298 310.557 C 47.007 311.266,47.232 312.058,47.135 313.512 C 47.127 313.624,47.384 313.978,47.705 314.299 C 48.026 314.620,48.289 315.124,48.289 315.419 C 48.289 315.714,48.734 316.067,49.277 316.203 C 50.127 316.417,50.235 316.603,50.047 317.541 C 49.901 318.269,49.985 318.631,50.297 318.631 C 50.554 318.631,50.992 319.144,51.270 319.772 C 51.548 320.399,52.036 320.913,52.354 320.913 C 52.781 320.913,52.872 321.161,52.698 321.853 C 52.514 322.587,52.587 322.745,53.032 322.575 C 53.811 322.276,54.629 324.318,53.912 324.773 C 53.643 324.944,53.594 325.086,53.805 325.089 C 54.015 325.092,54.414 325.608,54.692 326.236 C 55.013 326.961,55.477 327.376,55.967 327.376 C 56.591 327.376,56.693 327.550,56.506 328.296 C 56.378 328.803,56.453 329.274,56.672 329.347 C 56.890 329.419,57.096 329.857,57.131 330.319 C 57.166 330.781,57.415 331.244,57.685 331.347 C 57.954 331.450,58.175 331.793,58.175 332.109 C 58.175 332.424,58.603 332.962,59.125 333.305 C 60.234 334.031,60.357 334.594,59.411 334.616 C 58.936 334.627,59.045 334.794,59.791 335.198 C 60.506 335.586,60.837 336.069,60.837 336.727 C 60.837 337.270,61.002 337.585,61.217 337.452 C 61.426 337.323,61.597 337.399,61.597 337.620 C 61.597 337.842,61.872 338.023,62.209 338.023 C 62.669 338.023,62.762 338.255,62.585 338.961 C 62.393 339.725,62.548 340.003,63.421 340.454 C 64.342 340.931,64.471 341.193,64.340 342.320 C 64.204 343.480,64.320 343.690,65.349 344.145 C 66.285 344.559,66.469 344.828,66.294 345.524 C 66.166 346.033,66.250 346.388,66.499 346.388 C 66.731 346.388,66.920 346.644,66.920 346.958 C 66.920 347.272,67.153 347.529,67.438 347.529 C 67.761 347.529,67.918 347.877,67.855 348.453 C 67.787 349.074,67.913 349.317,68.238 349.192 C 68.505 349.089,68.825 349.272,68.950 349.598 C 69.263 350.413,332.700 350.517,332.700 349.702 C 332.700 349.433,333.190 348.924,333.789 348.570 C 334.646 348.063,334.840 347.721,334.695 346.967 C 334.558 346.249,334.673 346.008,335.152 346.008 C 335.620 346.008,335.727 345.802,335.551 345.247 C 335.380 344.707,335.483 344.487,335.906 344.487 C 336.234 344.487,336.502 344.316,336.502 344.106 C 336.502 343.897,336.759 343.726,337.072 343.726 C 337.389 343.726,337.643 343.388,337.643 342.966 C 337.643 342.459,337.389 342.205,336.882 342.205 C 336.375 342.205,336.122 342.459,336.122 342.966 C 336.122 343.384,335.987 343.726,335.822 343.726 C 335.657 343.726,335.016 344.710,334.398 345.913 C 332.808 349.005,332.315 349.292,331.458 347.624 C 330.596 345.944,328.821 342.809,328.499 342.395 C 328.177 341.982,325.761 337.784,322.772 332.439 C 322.399 331.773,321.684 330.576,321.184 329.778 C 320.306 328.379,319.374 326.750,317.254 322.909 C 316.706 321.915,314.829 318.691,313.082 315.743 C 311.336 312.795,309.791 310.057,309.649 309.659 C 309.506 309.261,309.175 308.679,308.912 308.365 C 308.649 308.051,307.881 306.768,307.206 305.513 C 306.531 304.259,305.259 302.034,304.381 300.570 C 300.880 294.738,299.620 292.525,299.620 292.212 C 299.620 292.032,299.377 291.615,299.080 291.285 C 298.783 290.955,297.952 289.658,297.234 288.403 C 292.866 280.775,291.635 278.599,291.635 278.507 C 291.635 278.450,290.352 276.236,288.783 273.587 C 287.215 270.937,285.932 268.709,285.932 268.636 C 285.932 268.563,284.883 266.735,283.601 264.575 C 281.281 260.665,280.216 258.810,278.836 256.274 C 278.438 255.542,277.647 254.219,277.079 253.335 C 276.511 252.450,276.046 251.641,276.046 251.536 C 276.046 251.431,275.431 250.386,274.681 249.212 C 273.930 248.039,273.072 246.538,272.774 245.878 C 272.476 245.217,272.021 244.345,271.762 243.939 C 269.879 240.978,268.821 239.150,268.821 238.855 C 268.821 238.665,268.126 237.720,267.276 236.754 L 265.730 234.998 201.591 235.028 C 152.436 235.050,136.742 235.167,134.411 235.530 M396.857 237.548 C 395.914 239.384,394.207 242.380,393.833 242.854 C 393.634 243.106,393.581 243.491,393.716 243.710 C 393.851 243.928,393.694 244.106,393.368 244.106 C 393.042 244.106,392.776 244.392,392.776 244.742 C 392.776 245.091,392.536 245.648,392.244 245.978 C 391.427 246.900,390.114 249.386,390.114 250.012 C 390.114 250.319,389.963 250.570,389.778 250.570 C 389.336 250.570,388.091 252.477,388.358 252.744 C 388.472 252.857,388.757 252.528,388.992 252.013 C 389.226 251.498,389.933 250.773,390.561 250.401 C 391.332 249.946,391.578 249.601,391.319 249.342 C 390.835 248.857,391.173 247.909,391.830 247.909 C 392.136 247.909,392.249 247.621,392.127 247.153 C 392.001 246.673,392.153 246.311,392.542 246.162 C 392.880 246.032,393.156 245.688,393.156 245.397 C 393.156 245.105,393.413 244.867,393.726 244.867 C 394.043 244.867,394.297 244.529,394.297 244.106 C 394.297 243.638,394.552 243.344,394.962 243.340 C 395.522 243.335,395.538 243.278,395.066 242.979 C 394.586 242.676,394.629 242.417,395.368 241.179 C 395.843 240.384,396.512 239.178,396.855 238.498 C 397.199 237.818,397.704 237.262,397.979 237.262 C 398.254 237.262,398.479 237.091,398.479 236.882 C 398.479 236.091,397.372 236.545,396.857 237.548 M387.706 253.485 C 387.137 254.055,387.427 254.867,388.023 254.373 C 388.337 254.112,388.593 253.749,388.593 253.566 C 388.593 253.172,388.067 253.124,387.706 253.485 M386.486 255.539 C 386.348 255.762,386.320 256.029,386.424 256.132 C 386.527 256.236,386.203 256.763,385.702 257.303 C 384.574 258.520,383.593 260.436,383.869 260.883 C 383.982 261.066,383.909 261.217,383.705 261.217 C 383.196 261.217,380.980 264.883,381.297 265.201 C 381.438 265.341,381.255 265.623,380.890 265.827 C 380.236 266.193,379.957 267.300,380.519 267.300 C 380.816 267.300,382.129 264.533,382.129 263.908 C 382.129 263.717,382.643 263.335,383.270 263.057 C 383.913 262.772,384.411 262.260,384.411 261.884 C 384.411 261.517,384.602 261.217,384.835 261.217 C 385.080 261.217,385.171 260.877,385.051 260.416 C 384.804 259.472,385.902 256.961,386.477 257.153 C 387.013 257.331,387.833 256.471,387.833 255.731 C 387.833 255.056,386.869 254.919,386.486 255.539 M378.911 268.664 C 378.556 269.205,378.346 269.728,378.444 269.826 C 378.645 270.026,380.608 268.298,380.608 267.922 C 380.608 267.296,379.486 267.786,378.911 268.664 M377.678 271.008 C 377.543 271.374,377.035 272.202,376.549 272.850 C 376.063 273.497,375.665 274.142,375.665 274.283 C 375.665 274.424,375.231 275.227,374.701 276.067 C 374.171 276.907,373.828 277.742,373.938 277.921 C 374.049 278.101,373.884 278.345,373.572 278.465 C 373.259 278.585,373.004 278.924,373.004 279.219 C 373.004 279.514,372.775 279.944,372.496 280.176 C 372.217 280.408,371.584 281.413,371.090 282.409 C 370.596 283.405,369.989 284.477,369.742 284.791 C 368.912 285.842,368.710 287.072,369.366 287.072 C 369.733 287.072,369.962 286.739,369.962 286.206 C 369.962 285.729,370.304 285.092,370.722 284.791 C 371.156 284.478,371.483 283.807,371.483 283.227 C 371.483 282.635,371.744 282.111,372.108 281.971 C 372.451 281.839,372.622 281.621,372.487 281.486 C 372.170 281.168,373.360 279.848,373.964 279.848 C 374.232 279.848,374.510 279.100,374.627 278.065 C 374.737 277.084,375.059 276.100,375.342 275.879 C 375.624 275.657,376.109 274.962,376.418 274.335 C 376.728 273.707,377.369 272.664,377.844 272.017 C 378.797 270.718,378.903 270.342,378.315 270.342 C 378.099 270.342,377.813 270.642,377.678 271.008 M167.762 286.856 C 176.311 290.913,176.125 308.235,167.490 312.211 C 158.683 316.266,150.653 307.194,152.813 295.627 C 154.254 287.909,161.286 283.783,167.762 286.856 M267.734 286.373 C 271.907 287.623,275.324 293.433,272.248 294.049 C 270.636 294.371,270.101 294.058,269.442 292.410 C 268.507 290.073,267.268 289.354,264.178 289.354 C 259.985 289.354,257.868 292.353,260.078 295.163 C 260.778 296.053,261.795 296.515,267.718 298.633 C 277.282 302.054,274.783 312.962,264.449 312.903 C 258.889 312.871,253.529 308.962,254.565 305.695 C 255.079 304.075,257.897 304.542,258.588 306.361 C 260.505 311.402,269.582 310.989,269.582 305.861 C 269.582 303.935,268.478 302.811,265.553 301.759 C 258.697 299.293,256.357 297.723,255.555 295.048 C 253.796 289.175,260.692 284.263,267.734 286.373 M145.057 287.414 C 147.221 288.666,147.399 288.847,148.292 290.690 C 151.520 297.358,147.510 302.016,138.036 302.603 L 134.030 302.852 133.924 307.672 L 133.818 312.492 132.711 312.735 C 129.983 313.334,130.038 313.609,130.038 299.448 C 130.038 289.660,130.147 286.707,130.513 286.544 C 132.052 285.861,143.563 286.550,145.057 287.414 M182.028 286.622 C 182.380 286.845,182.523 289.740,182.599 298.118 L 182.700 309.316 188.513 309.506 C 195.027 309.719,196.413 310.377,194.460 312.330 C 193.844 312.946,181.621 313.240,179.563 312.688 L 178.707 312.459 178.707 299.639 C 178.707 292.588,178.821 286.705,178.961 286.565 C 179.309 286.217,181.453 286.256,182.028 286.622 M210.186 286.787 C 210.402 287.048,211.974 290.941,213.681 295.437 C 215.387 299.933,217.455 305.374,218.277 307.528 C 220.042 312.151,220.072 312.458,218.793 312.779 C 217.002 313.228,216.151 312.452,215.014 309.335 C 213.722 305.794,214.344 306.113,208.607 306.046 C 203.001 305.980,203.013 305.973,201.887 309.359 C 200.940 312.205,199.903 313.134,198.114 312.741 C 196.597 312.408,196.359 313.330,201.288 300.460 C 207.302 284.757,206.531 286.312,208.299 286.312 C 209.121 286.312,209.970 286.526,210.186 286.787 M236.765 287.359 C 241.430 289.837,242.222 295.900,238.369 299.653 C 236.089 301.874,236.071 301.384,238.596 305.989 C 239.748 308.090,240.945 310.417,241.256 311.161 L 241.821 312.514 240.430 312.775 C 238.437 313.149,238.129 312.834,235.137 307.383 L 232.441 302.471 229.529 302.360 L 226.616 302.249 226.616 306.991 C 226.616 312.625,225.309 314.608,223.071 312.370 C 222.340 311.640,222.182 287.643,222.902 286.776 C 223.694 285.822,234.746 286.287,236.765 287.359 M249.959 286.913 C 250.690 288.817,250.188 312.142,249.407 312.559 C 248.359 313.121,246.396 312.665,246.359 311.852 C 246.201 308.336,246.375 287.020,246.564 286.715 C 246.969 286.060,249.693 286.219,249.959 286.913 M367.871 287.833 C 367.741 288.042,367.736 288.375,367.859 288.574 C 367.982 288.773,367.722 289.128,367.282 289.364 C 366.821 289.610,366.569 290.022,366.689 290.333 C 366.810 290.650,366.665 290.875,366.338 290.875 C 366.031 290.875,365.779 291.049,365.779 291.262 C 365.779 291.476,365.361 292.312,364.850 293.122 C 364.340 293.931,364.039 294.710,364.182 294.854 C 364.325 294.997,364.144 295.281,363.780 295.485 C 363.416 295.689,363.118 296.171,363.118 296.556 C 363.118 296.942,362.889 297.345,362.610 297.452 C 362.171 297.620,361.653 298.496,359.511 302.688 C 359.304 303.092,359.005 303.422,358.845 303.422 C 358.686 303.422,358.555 303.597,358.555 303.810 C 358.555 304.023,358.121 304.885,357.591 305.725 C 357.061 306.565,356.728 307.417,356.853 307.619 C 356.977 307.820,356.831 307.985,356.529 307.985 C 356.204 307.985,355.879 308.515,355.735 309.279 C 355.602 309.991,355.241 310.670,354.933 310.788 C 354.625 310.906,354.373 311.257,354.373 311.568 C 354.373 311.965,354.655 311.850,355.323 311.182 C 355.846 310.659,356.274 309.883,356.274 309.457 C 356.274 309.012,356.473 308.748,356.743 308.838 C 357.371 309.048,358.163 307.452,357.910 306.485 C 357.780 305.988,357.927 305.629,358.322 305.477 C 358.659 305.348,358.935 304.936,358.935 304.563 C 358.935 304.167,359.310 303.791,359.837 303.659 C 360.535 303.483,360.792 303.092,360.980 301.916 C 361.284 300.018,362.394 297.740,363.023 297.728 C 363.284 297.723,363.498 297.548,363.498 297.338 C 363.498 297.129,363.755 296.958,364.068 296.958 C 364.385 296.958,364.639 296.620,364.639 296.198 C 364.639 295.779,364.831 295.437,365.067 295.437 C 365.340 295.437,365.411 295.021,365.263 294.282 C 365.098 293.454,365.192 293.066,365.596 292.911 C 365.906 292.792,366.160 292.370,366.160 291.975 C 366.160 291.579,366.416 291.255,366.730 291.255 C 367.044 291.255,367.300 290.933,367.300 290.541 C 367.300 290.148,367.539 289.629,367.830 289.388 C 368.454 288.869,368.892 287.452,368.428 287.452 C 368.251 287.452,368.000 287.624,367.871 287.833 M134.125 289.570 C 133.786 289.916,133.739 297.772,134.071 298.638 C 134.400 299.495,140.439 299.484,142.592 298.622 C 146.043 297.241,146.213 292.009,142.864 290.237 C 141.559 289.546,134.664 289.020,134.125 289.570 M160.600 289.879 C 154.235 292.762,155.233 307.690,161.911 309.488 C 166.891 310.829,169.772 307.142,169.772 299.430 C 169.772 291.311,166.033 287.418,160.600 289.879 M226.901 289.565 C 226.744 289.728,226.616 291.885,226.616 294.360 L 226.616 298.859 229.891 298.859 C 236.364 298.859,239.501 293.961,235.152 290.644 C 233.804 289.616,227.631 288.809,226.901 289.565 M207.679 293.424 C 204.005 303.377,203.935 302.662,208.587 302.662 C 212.876 302.662,212.751 303.027,210.531 296.988 C 208.837 292.376,208.309 291.717,207.679 293.424 M352.528 314.474 C 351.130 316.723,351.087 316.889,352.053 316.285 C 352.451 316.037,352.689 315.608,352.583 315.331 C 352.477 315.055,352.560 314.829,352.767 314.829 C 352.974 314.829,353.233 314.487,353.342 314.068 C 353.451 313.650,353.814 313.308,354.147 313.308 C 354.480 313.308,354.753 313.137,354.753 312.928 C 354.753 311.941,353.608 312.737,352.528 314.474 M350.410 318.156 C 350.091 318.731,349.719 319.501,349.585 319.867 C 349.451 320.233,349.190 320.532,349.005 320.532 C 348.820 320.532,348.669 320.707,348.669 320.920 C 348.669 321.133,348.212 322.032,347.654 322.916 C 345.922 325.659,344.486 328.421,344.512 328.956 C 344.527 329.238,344.737 329.040,344.980 328.517 C 345.223 327.994,345.989 327.006,346.682 326.321 C 347.375 325.637,347.838 324.908,347.710 324.702 C 347.299 324.035,349.132 320.906,350.073 320.670 C 350.669 320.520,350.951 320.171,350.951 319.581 C 350.951 319.103,351.204 318.615,351.515 318.496 C 351.835 318.373,351.982 318.028,351.854 317.695 C 351.523 316.833,351.065 316.979,350.410 318.156 M343.346 330.293 C 343.346 330.643,343.107 331.199,342.814 331.529 C 341.875 332.589,340.663 335.019,340.890 335.386 C 341.333 336.103,341.825 335.712,341.825 334.641 C 341.825 334.014,342.070 333.447,342.395 333.323 C 342.709 333.202,342.966 332.915,342.966 332.684 C 342.966 332.148,343.928 331.179,344.460 331.179 C 344.684 331.179,344.867 330.837,344.867 330.418 C 344.867 329.911,344.613 329.658,344.106 329.658 C 343.649 329.658,343.346 329.911,343.346 330.293 M339.397 337.059 C 339.060 337.574,338.783 338.091,338.783 338.207 C 338.783 338.323,338.339 339.122,337.796 339.982 C 337.031 341.194,336.920 341.614,337.303 341.850 C 338.012 342.289,338.501 341.861,338.276 340.998 C 338.162 340.563,338.304 340.172,338.623 340.050 C 338.920 339.936,339.163 339.519,339.163 339.123 C 339.163 338.727,339.347 338.403,339.571 338.403 C 340.177 338.403,341.065 337.402,341.065 336.719 C 341.065 335.808,340.087 336.007,339.397 337.059 " stroke="none" fill="#21a6b8" fill-rule="evenodd"></path><path id="path1" d="M133.175 7.413 C 132.913 7.710,132.700 8.302,132.700 8.729 C 132.700 9.156,132.516 9.506,132.292 9.506 C 131.621 9.506,130.798 10.538,130.798 11.380 C 130.798 11.813,130.627 12.167,130.418 12.167 C 130.209 12.167,130.038 12.595,130.038 13.118 C 130.038 13.709,129.823 14.068,129.468 14.068 C 129.151 14.068,128.897 14.406,128.897 14.829 C 128.897 15.247,128.726 15.589,128.517 15.589 C 128.308 15.589,128.137 15.846,128.137 16.160 C 128.137 16.473,127.966 16.730,127.757 16.730 C 127.548 16.730,127.376 17.072,127.376 17.490 C 127.376 17.913,127.123 18.251,126.806 18.251 C 126.451 18.251,126.236 18.610,126.236 19.202 C 126.236 19.724,126.065 20.152,125.856 20.152 C 125.646 20.152,125.475 20.580,125.475 21.103 C 125.475 21.625,125.292 22.053,125.068 22.053 C 124.397 22.053,123.574 23.085,123.574 23.927 C 123.574 24.360,123.403 24.715,123.194 24.715 C 122.985 24.715,122.814 25.143,122.814 25.665 C 122.814 26.257,122.598 26.616,122.243 26.616 C 121.926 26.616,121.673 26.954,121.673 27.376 C 121.673 27.795,121.502 28.137,121.293 28.137 C 121.084 28.137,120.913 28.394,120.913 28.707 C 120.913 29.021,120.741 29.278,120.532 29.278 C 120.323 29.278,120.152 29.705,120.152 30.228 C 120.152 30.820,119.937 31.179,119.582 31.179 C 119.265 31.179,119.011 31.517,119.011 31.939 C 119.011 32.357,118.840 32.700,118.631 32.700 C 118.422 32.700,118.251 33.054,118.251 33.487 C 118.251 34.329,117.428 35.361,116.757 35.361 C 116.533 35.361,116.350 35.789,116.350 36.312 C 116.350 36.835,116.179 37.262,115.970 37.262 C 115.760 37.262,115.589 37.690,115.589 38.213 C 115.589 38.804,115.374 39.163,115.019 39.163 C 114.679 39.163,114.449 39.513,114.449 40.030 C 114.449 40.507,114.106 41.143,113.688 41.445 C 113.270 41.746,112.928 42.383,112.928 42.860 C 112.928 43.376,112.698 43.726,112.357 43.726 C 112.041 43.726,111.787 44.064,111.787 44.487 C 111.787 44.905,111.616 45.247,111.407 45.247 C 111.198 45.247,111.027 45.504,111.027 45.817 C 111.027 46.131,110.856 46.388,110.646 46.388 C 110.437 46.388,110.266 46.712,110.266 47.108 C 110.266 47.503,110.010 47.926,109.696 48.046 C 109.382 48.167,109.125 48.613,109.125 49.037 C 109.125 49.462,108.954 49.810,108.745 49.810 C 108.536 49.810,108.365 50.164,108.365 50.598 C 108.365 51.439,107.542 52.471,106.871 52.471 C 106.647 52.471,106.464 52.899,106.464 53.422 C 106.464 53.945,106.293 54.373,106.084 54.373 C 105.875 54.373,105.703 54.800,105.703 55.323 C 105.703 55.915,105.488 56.274,105.133 56.274 C 104.819 56.274,104.563 56.584,104.563 56.963 C 104.563 57.341,104.221 58.019,103.802 58.468 C 103.384 58.916,103.042 59.633,103.042 60.060 C 103.042 60.497,102.792 60.837,102.471 60.837 C 102.155 60.837,101.901 61.174,101.901 61.597 C 101.901 62.015,101.730 62.357,101.521 62.357 C 101.312 62.357,101.141 62.712,101.141 63.145 C 101.141 63.987,100.318 65.019,99.647 65.019 C 99.423 65.019,99.240 65.447,99.240 65.970 C 99.240 66.492,99.068 66.920,98.859 66.920 C 98.650 66.920,98.479 67.348,98.479 67.871 C 98.479 68.394,98.308 68.821,98.099 68.821 C 97.890 68.821,97.719 69.249,97.719 69.772 C 97.719 70.295,97.535 70.722,97.311 70.722 C 96.640 70.722,95.817 71.755,95.817 72.596 C 95.817 73.043,95.571 73.384,95.247 73.384 C 94.930 73.384,94.677 73.722,94.677 74.144 C 94.677 74.563,94.506 74.905,94.297 74.905 C 94.087 74.905,93.916 75.270,93.916 75.717 C 93.916 76.163,93.489 76.925,92.966 77.410 C 92.443 77.894,92.015 78.556,92.015 78.879 C 92.015 79.203,91.844 79.468,91.635 79.468 C 91.426 79.468,91.255 79.895,91.255 80.418 C 91.255 80.941,91.084 81.369,90.875 81.369 C 90.665 81.369,90.494 81.797,90.494 82.319 C 90.494 82.842,90.311 83.270,90.087 83.270 C 89.429 83.270,88.593 84.296,88.593 85.103 C 88.593 85.514,88.337 85.949,88.023 86.069 C 87.709 86.189,87.452 86.598,87.452 86.976 C 87.452 87.355,87.110 87.911,86.692 88.213 C 86.274 88.514,85.932 89.151,85.932 89.628 C 85.932 90.145,85.701 90.494,85.361 90.494 C 85.044 90.494,84.791 90.832,84.791 91.255 C 84.791 91.673,84.620 92.015,84.411 92.015 C 84.202 92.015,84.030 92.370,84.030 92.803 C 84.030 93.645,83.208 94.677,82.537 94.677 C 82.313 94.677,82.129 95.105,82.129 95.627 C 82.129 96.150,81.958 96.578,81.749 96.578 C 81.540 96.578,81.369 97.006,81.369 97.529 C 81.369 98.051,81.198 98.479,80.989 98.479 C 80.779 98.479,80.608 98.907,80.608 99.430 C 80.608 99.952,80.425 100.380,80.201 100.380 C 79.543 100.380,78.707 101.406,78.707 102.214 C 78.707 102.624,78.451 103.059,78.137 103.179 C 77.823 103.300,77.567 103.660,77.567 103.980 C 77.567 104.301,77.395 104.563,77.186 104.563 C 76.977 104.563,76.806 104.990,76.806 105.513 C 76.806 106.036,76.635 106.464,76.426 106.464 C 76.217 106.464,76.046 106.721,76.046 107.034 C 76.046 107.348,75.789 107.605,75.475 107.605 C 75.158 107.605,74.905 107.943,74.905 108.365 C 74.905 108.783,74.734 109.125,74.525 109.125 C 74.316 109.125,74.144 109.553,74.144 110.076 C 74.144 110.599,73.973 111.027,73.764 111.027 C 73.555 111.027,73.384 111.454,73.384 111.977 C 73.384 112.500,73.201 112.928,72.977 112.928 C 72.306 112.928,71.483 113.960,71.483 114.802 C 71.483 115.235,71.312 115.589,71.103 115.589 C 70.894 115.589,70.722 116.017,70.722 116.540 C 70.722 117.131,70.507 117.490,70.152 117.490 C 69.835 117.490,69.582 117.828,69.582 118.251 C 69.582 118.669,69.411 119.011,69.202 119.011 C 68.992 119.011,68.821 119.268,68.821 119.582 C 68.821 119.895,68.565 120.152,68.251 120.152 C 67.934 120.152,67.681 120.490,67.681 120.913 C 67.681 121.331,67.510 121.673,67.300 121.673 C 67.091 121.673,66.920 122.060,66.920 122.533 C 66.920 123.007,66.493 123.714,65.970 124.107 C 65.447 124.500,65.019 125.140,65.019 125.529 C 65.019 125.918,64.848 126.236,64.639 126.236 C 64.430 126.236,64.259 126.663,64.259 127.186 C 64.259 127.709,64.087 128.137,63.878 128.137 C 63.669 128.137,63.498 128.565,63.498 129.087 C 63.498 129.610,63.315 130.038,63.091 130.038 C 62.420 130.038,61.597 131.070,61.597 131.912 C 61.597 132.345,61.426 132.700,61.217 132.700 C 61.008 132.700,60.837 133.042,60.837 133.460 C 60.837 133.883,60.583 134.221,60.266 134.221 C 59.911 134.221,59.696 134.580,59.696 135.171 C 59.696 135.694,59.525 136.122,59.316 136.122 C 59.106 136.122,58.935 136.378,58.935 136.692 C 58.935 137.006,58.679 137.262,58.365 137.262 C 58.048 137.262,57.795 137.600,57.795 138.023 C 57.795 138.441,57.624 138.783,57.414 138.783 C 57.205 138.783,57.034 139.211,57.034 139.734 C 57.034 140.257,56.863 140.684,56.654 140.684 C 56.445 140.684,56.274 141.112,56.274 141.635 C 56.274 142.158,56.090 142.586,55.866 142.586 C 55.195 142.586,54.373 143.618,54.373 144.460 C 54.373 144.893,54.202 145.247,53.992 145.247 C 53.783 145.247,53.612 145.675,53.612 146.198 C 53.612 146.789,53.397 147.148,53.042 147.148 C 52.725 147.148,52.471 147.486,52.471 147.909 C 52.471 148.327,52.300 148.669,52.091 148.669 C 51.882 148.669,51.711 148.926,51.711 149.240 C 51.711 149.553,51.540 149.810,51.331 149.810 C 51.122 149.810,50.951 150.152,50.951 150.570 C 50.951 150.993,50.697 151.331,50.380 151.331 C 50.025 151.331,49.810 151.690,49.810 152.281 C 49.810 152.804,49.639 153.232,49.430 153.232 C 49.221 153.232,49.049 153.660,49.049 154.183 C 49.049 154.705,48.866 155.133,48.642 155.133 C 47.971 155.133,47.148 156.165,47.148 157.007 C 47.148 157.440,46.977 157.795,46.768 157.795 C 46.559 157.795,46.388 158.222,46.388 158.745 C 46.388 159.337,46.172 159.696,45.817 159.696 C 45.501 159.696,45.247 160.034,45.247 160.456 C 45.247 160.875,45.076 161.217,44.867 161.217 C 44.658 161.217,44.487 161.473,44.487 161.787 C 44.487 162.101,44.316 162.357,44.106 162.357 C 43.897 162.357,43.726 162.681,43.726 163.077 C 43.726 163.473,43.470 163.895,43.156 164.016 C 42.842 164.136,42.586 164.582,42.586 165.007 C 42.586 165.432,42.414 165.779,42.205 165.779 C 41.996 165.779,41.825 166.036,41.825 166.350 C 41.825 166.663,41.654 166.920,41.445 166.920 C 41.236 166.920,41.065 167.262,41.065 167.681 C 41.065 168.103,40.811 168.441,40.494 168.441 C 40.139 168.441,39.924 168.800,39.924 169.392 C 39.924 169.914,39.753 170.342,39.544 170.342 C 39.335 170.342,39.163 170.770,39.163 171.293 C 39.163 171.816,38.980 172.243,38.756 172.243 C 38.085 172.243,37.262 173.276,37.262 174.117 C 37.262 174.551,37.091 174.905,36.882 174.905 C 36.673 174.905,36.502 175.333,36.502 175.856 C 36.502 176.447,36.286 176.806,35.932 176.806 C 35.615 176.806,35.361 177.144,35.361 177.567 C 35.361 177.985,35.190 178.327,34.981 178.327 C 34.772 178.327,34.601 178.584,34.601 178.897 C 34.601 179.211,34.430 179.468,34.221 179.468 C 34.011 179.468,33.840 179.810,33.840 180.228 C 33.840 180.651,33.587 180.989,33.270 180.989 C 32.915 180.989,32.700 181.348,32.700 181.939 C 32.700 182.462,32.529 182.890,32.319 182.890 C 32.110 182.890,31.939 183.244,31.939 183.677 C 31.939 184.519,31.116 185.551,30.445 185.551 C 30.221 185.551,30.038 185.979,30.038 186.502 C 30.038 187.025,29.867 187.452,29.658 187.452 C 29.449 187.452,29.278 187.880,29.278 188.403 C 29.278 188.995,29.062 189.354,28.707 189.354 C 28.390 189.354,28.137 189.692,28.137 190.114 C 28.137 190.532,27.966 190.875,27.757 190.875 C 27.548 190.875,27.376 191.131,27.376 191.445 C 27.376 191.759,27.205 192.015,26.996 192.015 C 26.787 192.015,26.616 192.339,26.616 192.735 C 26.616 193.131,26.359 193.553,26.046 193.674 C 25.732 193.794,25.475 194.240,25.475 194.665 C 25.475 195.090,25.304 195.437,25.095 195.437 C 24.886 195.437,24.715 195.792,24.715 196.225 C 24.715 197.067,23.892 198.099,23.221 198.099 C 22.997 198.099,22.814 198.527,22.814 199.049 C 22.814 199.572,22.643 200.000,22.433 200.000 C 22.224 200.000,22.053 200.428,22.053 200.951 C 22.053 201.473,21.882 201.901,21.673 201.901 C 21.464 201.901,21.293 202.166,21.293 202.490 C 21.293 202.813,20.865 203.475,20.342 203.959 C 19.819 204.444,19.392 205.205,19.392 205.652 C 19.392 206.120,19.150 206.464,18.821 206.464 C 18.504 206.464,18.251 206.802,18.251 207.224 C 18.251 207.643,18.080 207.985,17.871 207.985 C 17.662 207.985,17.490 208.241,17.490 208.555 C 17.490 208.869,17.319 209.125,17.110 209.125 C 16.901 209.125,16.730 209.468,16.730 209.886 C 16.730 210.308,16.477 210.646,16.160 210.646 C 15.805 210.646,15.589 211.005,15.589 211.597 C 15.589 212.120,15.418 212.548,15.209 212.548 C 15.000 212.548,14.829 212.902,14.829 213.335 C 14.829 214.177,14.006 215.209,13.335 215.209 C 13.111 215.209,12.928 215.637,12.928 216.160 C 12.928 216.683,12.757 217.110,12.548 217.110 C 12.338 217.110,12.167 217.538,12.167 218.061 C 12.167 218.584,11.996 219.011,11.787 219.011 C 11.578 219.011,11.407 219.354,11.407 219.772 C 11.407 220.194,11.153 220.532,10.837 220.532 C 10.523 220.532,10.266 220.789,10.266 221.103 C 10.266 221.416,10.095 221.673,9.886 221.673 C 9.677 221.673,9.506 221.997,9.506 222.393 C 9.506 222.789,9.249 223.211,8.935 223.331 C 8.622 223.452,8.365 223.898,8.365 224.323 C 8.365 224.842,8.115 225.095,7.605 225.095 C 7.047 225.095,6.844 225.349,6.844 226.046 C 6.844 226.568,6.661 226.996,6.437 226.996 C 5.766 226.996,4.943 228.028,4.943 228.870 C 4.943 229.303,4.772 229.658,4.563 229.658 C 4.354 229.658,4.183 230.086,4.183 230.608 C 4.183 231.200,3.967 231.559,3.612 231.559 C 3.295 231.559,3.042 231.897,3.042 232.319 C 3.042 232.738,2.871 233.080,2.662 233.080 C 2.450 233.080,2.281 234.094,2.281 235.361 C 2.281 236.629,2.450 237.643,2.662 237.643 C 2.871 237.643,3.042 237.912,3.042 238.241 C 3.042 238.609,3.297 238.786,3.707 238.702 C 4.389 238.561,4.481 238.030,4.054 236.692 C 3.812 235.934,3.975 235.932,67.590 235.970 C 128.851 236.007,133.617 235.942,137.928 235.002 C 137.980 234.990,138.023 234.211,138.023 233.270 C 138.023 232.329,138.194 231.559,138.403 231.559 C 138.612 231.559,138.783 231.131,138.783 230.608 C 138.783 230.086,138.967 229.658,139.191 229.658 C 139.862 229.658,140.684 228.626,140.684 227.784 C 140.684 227.351,140.856 226.996,141.065 226.996 C 141.274 226.996,141.445 226.568,141.445 226.046 C 141.445 225.454,141.660 225.095,142.015 225.095 C 142.355 225.095,142.586 224.745,142.586 224.228 C 142.586 223.752,142.928 223.115,143.346 222.814 C 143.764 222.512,144.106 221.876,144.106 221.399 C 144.106 220.882,144.337 220.532,144.677 220.532 C 144.994 220.532,145.247 220.194,145.247 219.772 C 145.247 219.354,145.418 219.011,145.627 219.011 C 145.837 219.011,146.008 218.755,146.008 218.441 C 146.008 218.127,146.264 217.871,146.578 217.871 C 146.895 217.871,147.148 217.533,147.148 217.110 C 147.148 216.692,147.319 216.350,147.529 216.350 C 147.738 216.350,147.909 215.922,147.909 215.399 C 147.909 214.876,148.080 214.449,148.289 214.449 C 148.498 214.449,148.669 214.021,148.669 213.498 C 148.669 212.975,148.853 212.548,149.077 212.548 C 149.748 212.548,150.570 211.515,150.570 210.674 C 150.570 210.240,150.741 209.886,150.951 209.886 C 151.160 209.886,151.331 209.458,151.331 208.935 C 151.331 208.344,151.546 207.985,151.901 207.985 C 152.218 207.985,152.471 207.647,152.471 207.224 C 152.471 206.806,152.643 206.464,152.852 206.464 C 153.061 206.464,153.232 206.207,153.232 205.894 C 153.232 205.580,153.403 205.323,153.612 205.323 C 153.821 205.323,153.992 204.895,153.992 204.373 C 153.992 203.781,154.208 203.422,154.563 203.422 C 154.880 203.422,155.133 203.084,155.133 202.662 C 155.133 202.243,155.304 201.901,155.513 201.901 C 155.722 201.901,155.894 201.473,155.894 200.951 C 155.894 200.428,156.077 200.000,156.301 200.000 C 156.972 200.000,157.795 198.968,157.795 198.126 C 157.795 197.693,157.966 197.338,158.175 197.338 C 158.384 197.338,158.555 196.911,158.555 196.388 C 158.555 195.796,158.771 195.437,159.125 195.437 C 159.466 195.437,159.696 195.087,159.696 194.571 C 159.696 194.094,160.038 193.457,160.456 193.156 C 160.875 192.854,161.217 192.218,161.217 191.741 C 161.217 191.224,161.447 190.875,161.787 190.875 C 162.104 190.875,162.357 190.537,162.357 190.114 C 162.357 189.696,162.529 189.354,162.738 189.354 C 162.947 189.354,163.118 189.097,163.118 188.783 C 163.118 188.470,163.289 188.213,163.498 188.213 C 163.707 188.213,163.878 187.871,163.878 187.452 C 163.878 187.030,164.132 186.692,164.449 186.692 C 164.804 186.692,165.019 186.333,165.019 185.741 C 165.019 185.219,165.190 184.791,165.399 184.791 C 165.608 184.791,165.779 184.363,165.779 183.840 C 165.779 183.317,165.963 182.890,166.187 182.890 C 166.858 182.890,167.681 181.858,167.681 181.016 C 167.681 180.583,167.852 180.228,168.061 180.228 C 168.270 180.228,168.441 179.800,168.441 179.278 C 168.441 178.686,168.657 178.327,169.011 178.327 C 169.328 178.327,169.582 177.989,169.582 177.567 C 169.582 177.148,169.753 176.806,169.962 176.806 C 170.171 176.806,170.342 176.549,170.342 176.236 C 170.342 175.922,170.513 175.665,170.722 175.665 C 170.932 175.665,171.103 175.238,171.103 174.715 C 171.103 174.123,171.318 173.764,171.673 173.764 C 171.990 173.764,172.243 173.426,172.243 173.004 C 172.243 172.586,172.414 172.243,172.624 172.243 C 172.833 172.243,173.004 171.889,173.004 171.456 C 173.004 170.614,173.827 169.582,174.498 169.582 C 174.722 169.582,174.905 169.154,174.905 168.631 C 174.905 168.108,175.076 167.681,175.285 167.681 C 175.494 167.681,175.665 167.253,175.665 166.730 C 175.665 166.207,175.849 165.779,176.073 165.779 C 176.744 165.779,177.567 164.747,177.567 163.905 C 177.567 163.472,177.738 163.118,177.947 163.118 C 178.156 163.118,178.327 162.690,178.327 162.167 C 178.327 161.576,178.542 161.217,178.897 161.217 C 179.214 161.217,179.468 160.879,179.468 160.456 C 179.468 160.038,179.639 159.696,179.848 159.696 C 180.057 159.696,180.228 159.439,180.228 159.125 C 180.228 158.812,180.399 158.555,180.608 158.555 C 180.817 158.555,180.989 158.231,180.989 157.835 C 180.989 157.439,181.245 157.017,181.559 156.897 C 181.873 156.776,182.129 156.330,182.129 155.905 C 182.129 155.481,182.300 155.133,182.510 155.133 C 182.719 155.133,182.890 154.779,182.890 154.345 C 182.890 153.504,183.712 152.471,184.383 152.471 C 184.608 152.471,184.791 152.044,184.791 151.521 C 184.791 150.998,184.962 150.570,185.171 150.570 C 185.380 150.570,185.551 150.143,185.551 149.620 C 185.551 149.028,185.767 148.669,186.122 148.669 C 186.435 148.669,186.692 148.359,186.692 147.980 C 186.692 147.602,187.034 146.924,187.452 146.475 C 187.871 146.026,188.213 145.310,188.213 144.883 C 188.213 144.446,188.463 144.106,188.783 144.106 C 189.100 144.106,189.354 143.768,189.354 143.346 C 189.354 142.928,189.525 142.586,189.734 142.586 C 189.943 142.586,190.114 142.231,190.114 141.798 C 190.114 140.956,190.937 139.924,191.608 139.924 C 191.832 139.924,192.015 139.496,192.015 138.973 C 192.015 138.451,192.186 138.023,192.395 138.023 C 192.605 138.023,192.776 137.668,192.776 137.235 C 192.776 136.393,193.598 135.361,194.269 135.361 C 194.493 135.361,194.677 134.933,194.677 134.411 C 194.677 133.888,194.848 133.460,195.057 133.460 C 195.266 133.460,195.437 133.032,195.437 132.510 C 195.437 131.918,195.653 131.559,196.008 131.559 C 196.324 131.559,196.578 131.221,196.578 130.798 C 196.578 130.380,196.749 130.038,196.958 130.038 C 197.167 130.038,197.338 129.781,197.338 129.468 C 197.338 129.154,197.510 128.897,197.719 128.897 C 197.928 128.897,198.099 128.573,198.099 128.178 C 198.099 127.782,198.356 127.359,198.669 127.239 C 198.983 127.119,199.240 126.672,199.240 126.248 C 199.240 125.639,199.487 125.475,200.407 125.475 C 201.689 125.475,202.662 126.214,202.662 127.186 C 202.662 127.892,203.539 128.897,204.155 128.897 C 204.379 128.897,204.563 128.734,204.563 128.535 C 204.563 127.901,203.693 126.236,203.361 126.236 C 203.185 126.236,203.042 125.963,203.042 125.629 C 203.042 125.295,202.729 124.568,202.348 124.013 C 201.966 123.458,201.421 122.405,201.137 121.673 C 200.668 120.464,197.720 115.137,196.124 112.615 C 195.453 111.555,195.178 111.071,193.269 107.605 C 192.636 106.454,191.557 104.572,190.872 103.422 C 190.187 102.272,189.197 100.561,188.672 99.620 C 188.147 98.679,187.102 96.832,186.349 95.516 C 185.597 94.201,184.709 92.630,184.377 92.026 C 184.044 91.422,183.456 90.445,183.068 89.856 C 181.951 88.155,177.186 79.748,177.186 79.476 C 177.186 79.341,176.887 78.894,176.521 78.483 C 176.155 78.072,175.513 77.057,175.095 76.226 C 174.677 75.396,173.706 73.690,172.938 72.434 C 172.171 71.179,170.908 68.954,170.133 67.490 C 169.357 66.027,168.426 64.401,168.063 63.878 C 167.699 63.356,166.749 61.730,165.951 60.266 C 165.152 58.802,164.027 56.835,163.450 55.894 C 161.990 53.511,160.298 50.558,157.295 45.148 C 156.220 43.210,150.190 32.870,148.635 30.298 C 148.027 29.291,147.529 28.389,147.529 28.294 C 147.529 28.199,147.061 27.398,146.491 26.513 C 144.944 24.116,144.759 23.800,143.738 21.800 C 143.221 20.789,142.350 19.278,141.802 18.441 C 141.254 17.605,140.251 15.900,139.573 14.654 C 138.895 13.408,138.043 11.953,137.679 11.422 C 136.861 10.229,135.741 7.825,135.741 7.262 C 135.741 6.658,133.736 6.776,133.175 7.413 M266.992 7.505 C 267.183 8.496,268.441 8.607,268.441 7.632 C 268.441 7.088,268.197 6.844,267.653 6.844 C 267.109 6.844,266.904 7.049,266.992 7.505 M268.218 8.883 C 268.051 9.319,269.294 11.884,270.732 14.068 C 270.939 14.382,271.227 14.895,271.372 15.209 C 271.518 15.523,273.228 18.500,275.172 21.824 C 277.116 25.149,278.707 27.912,278.707 27.965 C 278.707 28.017,279.386 29.147,280.216 30.475 C 281.047 31.803,282.077 33.574,282.506 34.411 C 282.936 35.247,283.500 36.274,283.760 36.692 C 284.020 37.110,285.666 39.976,287.418 43.061 C 290.587 48.640,291.635 49.750,291.635 47.529 C 291.635 46.901,291.464 46.388,291.255 46.388 C 291.046 46.388,290.875 45.960,290.875 45.437 C 290.875 44.914,290.691 44.487,290.467 44.487 C 289.796 44.487,288.973 43.455,288.973 42.613 C 288.973 42.180,288.802 41.825,288.593 41.825 C 288.384 41.825,288.213 41.397,288.213 40.875 C 288.213 40.283,287.997 39.924,287.643 39.924 C 287.302 39.924,287.072 39.574,287.072 39.057 C 287.072 38.581,286.730 37.944,286.312 37.643 C 285.894 37.341,285.551 36.785,285.551 36.406 C 285.551 36.027,285.295 35.619,284.981 35.499 C 284.667 35.378,284.411 34.956,284.411 34.560 C 284.411 34.164,284.240 33.840,284.030 33.840 C 283.821 33.840,283.650 33.584,283.650 33.270 C 283.650 32.956,283.394 32.700,283.080 32.700 C 282.763 32.700,282.510 32.362,282.510 31.939 C 282.510 31.521,282.338 31.179,282.129 31.179 C 281.920 31.179,281.749 30.751,281.749 30.228 C 281.749 29.705,281.578 29.278,281.369 29.278 C 281.160 29.278,280.989 28.850,280.989 28.327 C 280.989 27.804,280.805 27.376,280.581 27.376 C 279.910 27.376,279.087 26.344,279.087 25.502 C 279.087 25.069,278.916 24.715,278.707 24.715 C 278.498 24.715,278.327 24.367,278.327 23.942 C 278.327 23.518,278.070 23.072,277.757 22.951 C 277.443 22.831,277.186 22.408,277.186 22.013 C 277.186 21.617,277.015 21.293,276.806 21.293 C 276.597 21.293,276.426 20.927,276.426 20.481 C 276.426 20.034,275.998 19.273,275.475 18.788 C 274.952 18.303,274.525 17.642,274.525 17.319 C 274.525 16.995,274.354 16.730,274.144 16.730 C 273.935 16.730,273.764 16.302,273.764 15.779 C 273.764 15.188,273.549 14.829,273.194 14.829 C 272.854 14.829,272.624 14.479,272.624 13.962 C 272.624 13.486,272.281 12.849,271.863 12.548 C 271.445 12.246,271.103 11.609,271.103 11.133 C 271.103 10.616,270.872 10.266,270.532 10.266 C 270.177 10.266,269.962 9.907,269.962 9.316 C 269.962 8.265,268.586 7.924,268.218 8.883 M291.255 49.466 C 291.255 49.695,291.568 50.337,291.952 50.892 C 292.582 51.805,298.363 61.759,300.791 66.111 C 301.331 67.079,302.428 68.983,303.228 70.342 C 304.029 71.702,305.183 73.712,305.793 74.810 C 306.402 75.908,307.059 76.806,307.253 76.806 C 307.446 76.806,307.605 77.102,307.605 77.464 C 307.605 77.826,308.176 79.066,308.875 80.221 C 309.574 81.375,311.652 84.929,313.492 88.118 C 315.332 91.307,317.013 93.916,317.228 93.916 C 317.442 93.916,317.510 94.024,317.379 94.155 C 317.096 94.438,318.774 97.572,319.808 98.694 C 320.206 99.125,320.532 99.767,320.532 100.120 C 320.532 100.472,320.875 101.103,321.293 101.521 C 321.711 101.939,322.053 102.445,322.053 102.645 C 322.053 102.845,322.567 103.879,323.194 104.943 C 323.821 106.007,324.335 106.940,324.335 107.017 C 324.335 107.094,325.550 109.173,327.037 111.637 C 328.523 114.101,329.835 116.384,329.952 116.709 C 330.070 117.034,330.622 117.985,331.179 118.821 C 331.736 119.658,332.910 121.625,333.789 123.194 C 334.667 124.762,335.536 126.302,335.720 126.616 C 337.682 129.975,339.466 133.088,339.963 134.024 C 340.298 134.655,341.822 137.310,343.350 139.924 C 344.879 142.538,346.722 145.703,347.446 146.958 C 348.170 148.213,349.077 149.753,349.460 150.380 C 349.843 151.008,350.510 152.205,350.942 153.042 C 351.374 153.878,351.940 154.905,352.200 155.323 C 352.809 156.307,353.631 157.721,359.708 168.251 C 362.484 173.061,365.413 178.061,366.218 179.363 C 367.022 180.665,367.681 181.802,367.681 181.889 C 367.681 181.977,368.906 184.162,370.404 186.746 C 371.902 189.331,373.369 191.915,373.664 192.490 C 373.959 193.066,374.428 193.536,374.707 193.536 C 375.027 193.536,375.141 193.817,375.015 194.297 C 374.877 194.825,375.003 195.057,375.431 195.057 C 376.105 195.057,376.273 194.102,375.665 193.726 C 375.456 193.597,375.285 192.976,375.285 192.346 C 375.285 191.200,374.558 190.114,373.791 190.114 C 373.567 190.114,373.384 189.686,373.384 189.163 C 373.384 188.641,373.213 188.213,373.004 188.213 C 372.795 188.213,372.624 187.871,372.624 187.452 C 372.624 187.034,372.452 186.692,372.243 186.692 C 372.034 186.692,371.863 186.264,371.863 185.741 C 371.863 185.150,371.648 184.791,371.293 184.791 C 370.979 184.791,370.722 184.534,370.722 184.221 C 370.722 183.907,370.551 183.650,370.342 183.650 C 370.133 183.650,369.962 183.308,369.962 182.890 C 369.962 182.467,369.708 182.129,369.392 182.129 C 369.078 182.129,368.821 181.873,368.821 181.559 C 368.821 181.245,368.650 180.989,368.441 180.989 C 368.232 180.989,368.061 180.646,368.061 180.228 C 368.061 179.810,367.890 179.468,367.681 179.468 C 367.471 179.468,367.300 179.040,367.300 178.517 C 367.300 177.926,367.085 177.567,366.730 177.567 C 366.375 177.567,366.160 177.207,366.160 176.616 C 366.160 176.093,365.989 175.665,365.779 175.665 C 365.570 175.665,365.399 175.238,365.399 174.715 C 365.399 174.192,365.228 173.764,365.019 173.764 C 364.810 173.764,364.639 173.422,364.639 173.004 C 364.639 172.581,364.385 172.243,364.068 172.243 C 363.755 172.243,363.498 171.987,363.498 171.673 C 363.498 171.359,363.327 171.103,363.118 171.103 C 362.909 171.103,362.738 170.760,362.738 170.342 C 362.738 169.924,362.567 169.582,362.357 169.582 C 362.148 169.582,361.977 169.154,361.977 168.631 C 361.977 168.108,361.794 167.681,361.570 167.681 C 360.899 167.681,360.076 166.648,360.076 165.807 C 360.076 165.360,359.829 165.019,359.506 165.019 C 359.151 165.019,358.935 164.660,358.935 164.068 C 358.935 163.546,358.764 163.118,358.555 163.118 C 358.346 163.118,358.175 162.763,358.175 162.330 C 358.175 161.488,357.352 160.456,356.681 160.456 C 356.457 160.456,356.274 160.029,356.274 159.506 C 356.274 158.983,356.103 158.555,355.894 158.555 C 355.684 158.555,355.513 158.213,355.513 157.795 C 355.513 157.376,355.342 157.034,355.133 157.034 C 354.924 157.034,354.753 156.606,354.753 156.084 C 354.753 155.492,354.537 155.133,354.183 155.133 C 353.869 155.133,353.612 154.876,353.612 154.563 C 353.612 154.249,353.441 153.992,353.232 153.992 C 353.023 153.992,352.852 153.713,352.852 153.371 C 352.852 153.029,352.424 152.352,351.901 151.868 C 351.378 151.383,350.951 150.722,350.951 150.398 C 350.951 150.075,350.779 149.810,350.570 149.810 C 350.361 149.810,350.190 149.382,350.190 148.859 C 350.190 148.268,349.975 147.909,349.620 147.909 C 349.280 147.909,349.049 147.559,349.049 147.042 C 349.049 146.565,348.707 145.929,348.289 145.627 C 347.795 145.271,347.529 144.643,347.529 143.832 C 347.529 142.978,347.349 142.586,346.958 142.586 C 346.644 142.586,346.388 142.329,346.388 142.015 C 346.388 141.702,346.217 141.445,346.008 141.445 C 345.798 141.445,345.627 141.103,345.627 140.684 C 345.627 140.266,345.456 139.924,345.247 139.924 C 345.038 139.924,344.867 139.496,344.867 138.973 C 344.867 138.451,344.684 138.023,344.460 138.023 C 343.789 138.023,342.966 136.991,342.966 136.149 C 342.966 135.716,342.795 135.361,342.586 135.361 C 342.376 135.361,342.205 135.043,342.205 134.654 C 342.205 134.265,341.778 133.626,341.255 133.233 C 340.731 132.840,340.304 132.133,340.304 131.659 C 340.304 131.148,340.073 130.798,339.734 130.798 C 339.379 130.798,339.163 130.439,339.163 129.848 C 339.163 129.325,338.992 128.897,338.783 128.897 C 338.574 128.897,338.403 128.555,338.403 128.137 C 338.403 127.719,338.232 127.376,338.023 127.376 C 337.814 127.376,337.643 127.120,337.643 126.806 C 337.643 126.492,337.386 126.236,337.072 126.236 C 336.717 126.236,336.502 125.877,336.502 125.285 C 336.502 124.762,336.331 124.335,336.122 124.335 C 335.913 124.335,335.741 123.992,335.741 123.574 C 335.741 123.156,335.570 122.814,335.361 122.814 C 335.152 122.814,334.981 122.386,334.981 121.863 C 334.981 121.272,334.766 120.913,334.411 120.913 C 334.070 120.913,333.840 120.563,333.840 120.046 C 333.840 119.569,333.498 118.933,333.080 118.631 C 332.662 118.330,332.319 117.773,332.319 117.395 C 332.319 117.016,332.063 116.608,331.749 116.487 C 331.435 116.367,331.179 115.932,331.179 115.522 C 331.179 114.714,330.343 113.688,329.685 113.688 C 329.461 113.688,329.278 113.260,329.278 112.738 C 329.278 112.215,329.106 111.787,328.897 111.787 C 328.688 111.787,328.517 111.445,328.517 111.027 C 328.517 110.608,328.346 110.266,328.137 110.266 C 327.928 110.266,327.757 109.838,327.757 109.316 C 327.757 108.793,327.573 108.365,327.349 108.365 C 326.678 108.365,325.856 107.333,325.856 106.491 C 325.856 106.058,325.684 105.703,325.475 105.703 C 325.266 105.703,325.095 105.276,325.095 104.753 C 325.095 104.161,324.880 103.802,324.525 103.802 C 324.170 103.802,323.954 103.443,323.954 102.852 C 323.954 102.155,323.752 101.901,323.194 101.901 C 322.642 101.901,322.433 101.648,322.433 100.978 C 322.433 100.470,322.177 99.798,321.863 99.484 C 321.549 99.170,321.293 98.645,321.293 98.316 C 321.293 97.988,321.122 97.719,320.913 97.719 C 320.703 97.719,320.532 97.291,320.532 96.768 C 320.532 96.177,320.317 95.817,319.962 95.817 C 319.648 95.817,319.392 95.599,319.392 95.331 C 319.392 95.064,319.049 94.598,318.631 94.297 C 318.137 93.940,317.871 93.312,317.871 92.502 C 317.871 91.647,317.691 91.255,317.300 91.255 C 316.960 91.255,316.730 90.905,316.730 90.388 C 316.730 89.911,316.388 89.275,315.970 88.973 C 315.551 88.672,315.209 88.035,315.209 87.559 C 315.209 87.042,314.979 86.692,314.639 86.692 C 314.284 86.692,314.068 86.333,314.068 85.741 C 314.068 85.219,313.897 84.791,313.688 84.791 C 313.479 84.791,313.308 84.526,313.308 84.202 C 313.308 83.879,312.880 83.217,312.357 82.733 C 311.835 82.248,311.407 81.572,311.407 81.230 C 311.407 80.888,311.236 80.608,311.027 80.608 C 310.817 80.608,310.646 80.181,310.646 79.658 C 310.646 79.120,310.427 78.707,310.140 78.707 C 309.862 78.707,309.405 78.279,309.125 77.757 C 308.846 77.234,308.475 76.806,308.301 76.806 C 308.127 76.806,307.985 76.207,307.985 75.475 C 307.985 74.743,307.801 74.144,307.577 74.144 C 306.906 74.144,306.084 73.112,306.084 72.271 C 306.084 71.837,305.913 71.483,305.703 71.483 C 305.494 71.483,305.323 71.055,305.323 70.532 C 305.323 69.941,305.108 69.582,304.753 69.582 C 304.439 69.582,304.183 69.250,304.183 68.844 C 304.183 68.438,304.011 68.000,303.802 67.871 C 303.593 67.741,303.422 67.304,303.422 66.898 C 303.422 66.492,303.165 66.160,302.852 66.160 C 302.538 66.160,302.281 65.941,302.281 65.673 C 302.281 65.406,301.939 64.940,301.521 64.639 C 301.103 64.337,300.760 63.701,300.760 63.224 C 300.760 62.707,300.530 62.357,300.190 62.357 C 299.873 62.357,299.620 62.019,299.620 61.597 C 299.620 61.179,299.449 60.837,299.240 60.837 C 299.030 60.837,298.859 60.409,298.859 59.886 C 298.859 59.363,298.688 58.935,298.479 58.935 C 298.270 58.935,298.099 58.508,298.099 57.985 C 298.099 57.462,297.916 57.034,297.691 57.034 C 297.020 57.034,296.198 56.002,296.198 55.160 C 296.198 54.727,296.027 54.373,295.817 54.373 C 295.608 54.373,295.437 53.945,295.437 53.422 C 295.437 52.831,295.222 52.471,294.867 52.471 C 294.550 52.471,294.297 52.134,294.297 51.711 C 294.297 51.293,294.125 50.951,293.916 50.951 C 293.707 50.951,293.536 50.523,293.536 50.000 C 293.536 49.197,293.359 49.049,292.395 49.049 C 291.768 49.049,291.255 49.237,291.255 49.466 M204.563 130.038 C 204.563 130.456,204.734 130.798,204.943 130.798 C 205.152 130.798,205.323 131.226,205.323 131.749 C 205.323 132.341,205.539 132.700,205.894 132.700 C 206.210 132.700,206.464 133.038,206.464 133.460 C 206.464 133.878,206.635 134.221,206.844 134.221 C 207.053 134.221,207.224 134.477,207.224 134.791 C 207.224 135.105,207.384 135.361,207.578 135.361 C 207.773 135.361,207.987 135.710,208.053 136.137 C 208.120 136.563,208.346 136.912,208.555 136.912 C 208.764 136.912,208.990 136.563,209.057 136.137 C 209.124 135.710,209.027 135.361,208.843 135.361 C 208.658 135.361,208.272 134.762,207.985 134.030 C 207.698 133.298,207.342 132.700,207.195 132.700 C 207.047 132.700,206.819 132.272,206.688 131.749 C 206.557 131.226,206.282 130.798,206.076 130.798 C 205.871 130.798,205.703 130.456,205.703 130.038 C 205.703 129.616,205.450 129.278,205.133 129.278 C 204.816 129.278,204.563 129.616,204.563 130.038 M209.125 138.023 C 209.125 138.441,209.297 138.783,209.506 138.783 C 209.715 138.783,209.886 139.138,209.886 139.571 C 209.886 140.580,210.881 141.582,211.606 141.304 C 212.078 141.123,212.046 140.894,211.401 139.841 C 210.980 139.155,210.533 138.294,210.407 137.928 C 210.092 137.015,209.125 137.086,209.125 138.023 M211.787 142.586 C 211.787 143.004,211.958 143.346,212.167 143.346 C 212.376 143.346,212.548 143.774,212.548 144.297 C 212.548 144.819,212.719 145.247,212.928 145.247 C 213.137 145.247,213.308 145.565,213.308 145.954 C 213.308 146.343,213.736 146.983,214.259 147.375 C 214.781 147.768,215.209 148.396,215.209 148.771 C 215.209 149.147,215.466 149.552,215.779 149.672 C 216.093 149.793,216.350 150.215,216.350 150.611 C 216.350 151.007,216.521 151.331,216.730 151.331 C 216.939 151.331,217.110 151.587,217.110 151.901 C 217.110 152.518,217.700 152.675,218.028 152.145 C 218.268 151.756,217.426 149.817,217.015 149.813 C 216.858 149.811,216.730 149.476,216.730 149.068 C 216.730 148.660,216.516 148.190,216.255 148.023 C 215.993 147.855,215.296 146.735,214.705 145.532 C 214.114 144.330,213.492 143.346,213.323 143.346 C 213.155 143.346,212.927 143.004,212.818 142.586 C 212.708 142.167,212.432 141.825,212.203 141.825 C 211.974 141.825,211.787 142.167,211.787 142.586 M217.871 153.394 C 217.871 153.747,218.196 153.992,218.663 153.992 C 219.589 153.992,219.459 153.104,218.505 152.919 C 218.129 152.846,217.871 153.040,217.871 153.394 M219.011 155.133 C 219.011 155.551,219.183 155.894,219.392 155.894 C 219.601 155.894,219.772 156.248,219.772 156.681 C 219.772 157.544,220.600 158.555,221.307 158.555 C 221.876 158.555,221.454 156.709,220.693 155.864 C 220.395 155.533,220.152 155.063,220.152 154.818 C 220.152 154.573,219.895 154.373,219.582 154.373 C 219.265 154.373,219.011 154.711,219.011 155.133 M221.673 159.696 C 221.673 160.114,221.844 160.456,222.053 160.456 C 222.262 160.456,222.433 160.884,222.433 161.407 C 222.433 161.930,222.605 162.357,222.814 162.357 C 223.023 162.357,223.194 162.619,223.194 162.940 C 223.194 163.260,223.451 163.620,223.764 163.741 C 224.078 163.861,224.335 164.198,224.335 164.489 C 224.335 165.102,224.940 165.197,225.285 164.639 C 225.539 164.228,223.568 160.457,223.099 160.457 C 222.942 160.456,222.814 160.114,222.814 159.696 C 222.814 159.273,222.560 158.935,222.243 158.935 C 221.926 158.935,221.673 159.273,221.673 159.696 M225.095 165.982 C 225.095 166.302,225.352 166.662,225.665 166.783 C 225.979 166.903,226.236 167.325,226.236 167.721 C 226.236 168.117,226.407 168.441,226.616 168.441 C 226.825 168.441,226.996 168.795,226.996 169.229 C 226.996 170.238,227.991 171.240,228.717 170.961 C 229.301 170.737,229.028 170.078,226.928 166.635 C 226.142 165.348,225.095 164.974,225.095 165.982 M228.897 172.243 C 228.897 172.662,229.068 173.004,229.278 173.004 C 229.487 173.004,229.658 173.432,229.658 173.954 C 229.658 174.477,229.829 174.905,230.038 174.905 C 230.247 174.905,230.418 175.223,230.418 175.612 C 230.418 176.001,230.846 176.641,231.369 177.033 C 231.892 177.426,232.319 178.134,232.319 178.607 C 232.319 179.081,232.490 179.468,232.700 179.468 C 232.909 179.468,233.080 179.810,233.080 180.228 C 233.080 180.651,233.333 180.989,233.650 180.989 C 233.964 180.989,234.221 181.245,234.221 181.559 C 234.221 182.210,234.817 182.322,235.178 181.738 C 235.385 181.402,233.766 178.130,233.113 177.563 C 232.894 177.374,231.059 174.021,230.256 172.341 C 229.749 171.282,228.897 171.221,228.897 172.243 M234.981 182.890 C 234.981 183.312,235.234 183.650,235.551 183.650 C 235.906 183.650,236.122 184.009,236.122 184.601 C 236.122 185.124,236.293 185.551,236.502 185.551 C 236.711 185.551,236.882 185.979,236.882 186.502 C 236.882 187.025,237.053 187.452,237.262 187.452 C 237.471 187.452,237.643 187.880,237.643 188.403 C 237.643 188.926,237.826 189.354,238.050 189.354 C 238.721 189.354,239.544 190.386,239.544 191.228 C 239.544 191.661,239.715 192.015,239.924 192.015 C 240.133 192.015,240.304 192.357,240.304 192.776 C 240.304 193.198,240.558 193.536,240.875 193.536 C 241.188 193.536,241.445 193.793,241.445 194.106 C 241.445 194.420,241.616 194.677,241.825 194.677 C 242.034 194.677,242.205 195.105,242.205 195.627 C 242.205 196.150,242.376 196.578,242.586 196.578 C 242.795 196.578,242.966 196.920,242.966 197.338 C 242.966 197.761,243.219 198.099,243.536 198.099 C 243.891 198.099,244.106 198.458,244.106 199.049 C 244.106 199.572,244.278 200.000,244.487 200.000 C 244.696 200.000,244.867 200.428,244.867 200.951 C 244.867 201.473,245.050 201.901,245.274 201.901 C 245.890 201.901,246.768 202.907,246.768 203.612 C 246.768 204.318,247.646 205.323,248.262 205.323 C 248.486 205.323,248.669 205.127,248.669 204.886 C 248.669 204.346,243.561 195.140,243.004 194.677 C 242.879 194.572,242.268 193.503,241.648 192.300 C 241.028 191.098,240.387 190.114,240.222 190.114 C 240.058 190.114,239.924 189.849,239.924 189.525 C 239.924 189.202,239.365 188.047,238.682 186.959 C 238.000 185.871,237.105 184.339,236.695 183.555 C 235.889 182.015,234.981 181.662,234.981 182.890 M376.208 196.414 C 376.343 196.951,377.270 198.705,378.267 200.311 C 379.265 201.918,380.379 203.874,380.743 204.658 C 381.450 206.181,382.510 206.580,382.510 205.323 C 382.510 204.905,382.277 204.563,381.992 204.563 C 381.645 204.563,381.534 204.250,381.656 203.612 C 381.789 202.915,381.674 202.662,381.223 202.662 C 380.821 202.662,380.608 202.333,380.608 201.711 C 380.608 201.188,380.437 200.760,380.228 200.760 C 380.019 200.760,379.848 200.418,379.848 200.000 C 379.848 199.578,379.594 199.240,379.278 199.240 C 378.937 199.240,378.707 198.890,378.707 198.373 C 378.707 197.896,378.365 197.260,377.947 196.958 C 377.529 196.657,377.186 196.191,377.186 195.924 C 377.186 195.656,376.911 195.437,376.575 195.437 C 376.108 195.437,376.021 195.668,376.208 196.414 M248.669 206.464 C 248.669 206.882,248.840 207.224,249.049 207.224 C 249.259 207.224,249.430 207.611,249.430 208.083 C 249.430 208.869,250.794 210.170,251.196 209.767 C 251.525 209.438,250.849 207.542,250.331 207.343 C 250.045 207.233,249.810 206.819,249.810 206.423 C 249.810 206.027,249.553 205.703,249.240 205.703 C 248.923 205.703,248.669 206.041,248.669 206.464 M382.216 206.915 C 382.451 207.620,383.270 207.737,383.270 207.066 C 383.270 206.735,382.999 206.464,382.668 206.464 C 382.337 206.464,382.134 206.667,382.216 206.915 M383.440 209.030 C 383.578 209.606,383.939 210.266,384.241 210.498 C 384.544 210.730,384.791 211.167,384.791 211.468 C 384.791 211.769,384.946 212.178,385.135 212.376 C 385.325 212.575,385.812 213.337,386.218 214.068 C 386.837 215.185,388.225 217.596,389.722 220.152 C 389.905 220.466,390.951 222.262,392.046 224.144 C 393.141 226.027,394.181 227.624,394.357 227.693 C 394.533 227.763,394.677 228.148,394.677 228.549 C 394.677 228.950,394.933 229.278,395.247 229.278 C 395.564 229.278,395.817 228.940,395.817 228.517 C 395.817 228.099,395.646 227.757,395.437 227.757 C 395.228 227.757,395.057 227.414,395.057 226.996 C 395.057 226.578,394.886 226.236,394.677 226.236 C 394.468 226.236,394.297 225.808,394.297 225.285 C 394.297 224.694,394.081 224.335,393.726 224.335 C 393.371 224.335,393.156 223.975,393.156 223.384 C 393.156 222.861,392.985 222.433,392.776 222.433 C 392.567 222.433,392.395 222.079,392.395 221.646 C 392.395 220.804,391.573 219.772,390.902 219.772 C 390.678 219.772,390.494 219.344,390.494 218.821 C 390.494 218.298,390.323 217.871,390.114 217.871 C 389.905 217.871,389.734 217.529,389.734 217.110 C 389.734 216.688,389.480 216.350,389.163 216.350 C 388.809 216.350,388.593 215.991,388.593 215.399 C 388.593 214.876,388.422 214.449,388.213 214.449 C 388.004 214.449,387.833 214.192,387.833 213.878 C 387.833 213.565,387.662 213.308,387.452 213.308 C 387.243 213.308,387.072 212.966,387.072 212.548 C 387.072 212.125,386.819 211.787,386.502 211.787 C 386.188 211.787,385.932 211.530,385.932 211.217 C 385.932 210.903,385.760 210.646,385.551 210.646 C 385.342 210.646,385.171 210.048,385.171 209.316 C 385.171 208.135,385.059 207.985,384.179 207.985 C 383.290 207.985,383.214 208.093,383.440 209.030 M251.331 211.244 C 251.331 212.261,252.102 213.308,252.850 213.308 C 253.111 213.308,253.187 213.612,253.041 214.070 C 252.880 214.577,252.999 214.909,253.396 215.062 C 253.724 215.187,253.992 215.627,253.992 216.037 C 253.992 216.845,254.828 217.871,255.486 217.871 C 255.710 217.871,255.894 218.298,255.894 218.821 C 255.894 219.344,256.065 219.772,256.274 219.772 C 256.483 219.772,256.654 220.200,256.654 220.722 C 256.654 221.245,256.825 221.673,257.034 221.673 C 257.243 221.673,257.414 222.015,257.414 222.433 C 257.414 222.856,257.668 223.194,257.985 223.194 C 258.340 223.194,258.555 223.553,258.555 224.144 C 258.555 224.667,258.726 225.095,258.935 225.095 C 259.144 225.095,259.316 225.352,259.316 225.665 C 259.316 225.979,259.487 226.236,259.696 226.236 C 259.905 226.236,260.076 226.578,260.076 226.996 C 260.076 227.419,260.330 227.757,260.646 227.757 C 261.045 227.757,261.217 228.158,261.217 229.087 C 261.217 229.819,261.388 230.418,261.597 230.418 C 261.806 230.418,261.977 230.646,261.977 230.924 C 261.977 231.203,262.396 231.655,262.908 231.929 C 263.585 232.291,263.870 232.801,263.954 233.799 C 264.044 234.874,264.233 235.174,264.829 235.185 C 265.248 235.193,265.804 235.331,266.065 235.493 C 266.774 235.931,266.633 235.348,265.618 233.650 C 265.118 232.814,264.157 231.103,263.483 229.848 C 262.809 228.593,261.937 227.112,261.547 226.557 C 261.156 226.002,260.837 225.442,260.837 225.312 C 260.837 224.937,257.662 219.976,257.332 219.835 C 257.168 219.766,257.034 219.415,257.034 219.056 C 257.034 218.697,256.878 218.240,256.687 218.042 C 256.314 217.654,254.522 214.517,253.167 211.882 C 252.235 210.067,251.331 209.753,251.331 211.244 M395.817 230.255 C 395.817 231.027,397.684 234.221,398.135 234.221 C 398.324 234.221,398.479 233.622,398.479 232.890 C 398.479 232.158,398.308 231.559,398.099 231.559 C 397.890 231.559,397.719 231.376,397.719 231.152 C 397.719 230.625,396.751 229.658,396.225 229.658 C 396.001 229.658,395.817 229.927,395.817 230.255 M396.855 238.498 C 396.512 239.178,395.843 240.384,395.368 241.179 C 394.629 242.417,394.586 242.676,395.066 242.979 C 395.538 243.278,395.522 243.335,394.962 243.340 C 394.552 243.344,394.297 243.638,394.297 244.106 C 394.297 244.529,394.043 244.867,393.726 244.867 C 393.413 244.867,393.156 245.105,393.156 245.397 C 393.156 245.688,392.899 246.025,392.586 246.145 C 391.529 246.551,391.932 247.529,393.156 247.529 C 394.043 247.529,394.297 247.360,394.297 246.768 C 394.297 246.350,394.105 246.008,393.870 246.008 C 393.575 246.008,393.589 245.831,393.916 245.437 C 394.177 245.124,394.711 244.867,395.104 244.867 C 395.666 244.867,395.817 244.585,395.817 243.536 C 395.817 242.804,396.001 242.205,396.225 242.205 C 396.896 242.205,397.719 241.173,397.719 240.331 C 397.719 239.898,397.890 239.544,398.099 239.544 C 398.308 239.544,398.479 239.030,398.479 238.403 C 398.479 236.882,397.647 236.931,396.855 238.498 M4.183 239.544 C 4.183 239.962,4.354 240.304,4.563 240.304 C 4.772 240.304,4.943 240.561,4.943 240.875 C 4.943 241.537,5.747 241.630,6.341 241.035 C 6.634 240.743,6.488 240.363,5.830 239.704 C 4.709 238.584,4.183 238.533,4.183 239.544 M5.703 242.395 C 5.703 242.787,5.953 242.974,6.369 242.893 C 7.170 242.739,7.120 242.064,6.294 241.892 C 5.949 241.821,5.703 242.030,5.703 242.395 M6.844 244.106 C 6.844 244.525,7.015 244.867,7.224 244.867 C 7.433 244.867,7.605 245.134,7.605 245.460 C 7.605 245.786,7.776 245.947,7.985 245.817 C 8.354 245.589,8.519 246.086,8.393 247.053 C 8.359 247.315,8.681 247.529,9.109 247.529 C 9.546 247.529,9.886 247.279,9.886 246.958 C 9.886 246.644,9.629 246.388,9.316 246.388 C 9.000 246.388,8.745 246.050,8.745 245.632 C 8.745 244.864,7.679 243.346,7.140 243.346 C 6.977 243.346,6.844 243.688,6.844 244.106 M9.506 248.669 C 9.506 249.087,9.677 249.430,9.886 249.430 C 10.095 249.430,10.266 249.857,10.266 250.380 C 10.266 250.972,10.482 251.331,10.837 251.331 C 11.589 251.331,11.566 250.026,10.793 248.846 C 10.050 247.712,9.506 247.638,9.506 248.669 M391.132 248.442 C 390.893 249.064,391.173 249.430,391.888 249.430 C 392.167 249.430,392.395 249.087,392.395 248.669 C 392.395 247.805,391.442 247.633,391.132 248.442 M390.428 250.461 C 389.389 251.106,388.401 252.687,388.537 253.488 C 388.579 253.734,388.438 254.044,388.223 254.176 C 387.403 254.683,387.797 255.894,388.783 255.894 C 389.620 255.894,389.734 255.731,389.734 254.536 C 389.734 253.203,390.416 252.091,391.234 252.091 C 391.461 252.091,391.608 251.578,391.560 250.951 C 391.512 250.323,391.467 249.814,391.459 249.820 C 391.451 249.826,390.987 250.114,390.428 250.461 M12.167 253.232 C 12.167 253.654,12.421 253.992,12.738 253.992 C 13.054 253.992,13.308 253.654,13.308 253.232 C 13.308 252.809,13.054 252.471,12.738 252.471 C 12.421 252.471,12.167 252.809,12.167 253.232 M13.181 254.246 C 12.747 254.680,12.904 255.899,13.380 255.798 C 13.629 255.746,13.904 256.029,13.990 256.427 C 14.273 257.736,15.517 258.807,15.824 258.006 C 15.965 257.639,15.925 257.227,15.736 257.091 C 15.547 256.955,15.055 256.202,14.644 255.418 C 13.889 253.980,13.644 253.783,13.181 254.246 M385.435 258.371 C 384.650 260.017,384.647 260.076,385.361 260.076 C 385.675 260.076,385.932 259.905,385.932 259.696 C 385.932 259.487,386.200 259.316,386.527 259.316 C 386.949 259.316,387.088 259.020,387.002 258.299 C 386.825 256.805,386.168 256.835,385.435 258.371 M15.589 259.478 C 15.589 259.831,15.914 260.076,16.381 260.076 C 17.308 260.076,17.177 259.188,16.223 259.003 C 15.848 258.930,15.589 259.124,15.589 259.478 M16.730 261.054 C 16.730 261.737,17.618 262.738,18.224 262.738 C 18.448 262.738,18.631 262.567,18.631 262.357 C 18.631 262.148,18.460 261.977,18.251 261.977 C 18.042 261.977,17.871 261.635,17.871 261.217 C 17.871 260.794,17.617 260.456,17.300 260.456 C 16.987 260.456,16.730 260.725,16.730 261.054 M382.804 263.279 C 382.461 263.530,382.064 264.197,381.922 264.761 C 381.781 265.325,381.513 265.881,381.327 265.996 C 380.760 266.346,380.950 267.300,381.586 267.300 C 382.425 267.300,383.270 266.360,383.270 265.426 C 383.270 264.980,383.517 264.639,383.840 264.639 C 384.537 264.639,384.604 263.273,383.919 263.011 C 383.649 262.907,383.147 263.028,382.804 263.279 M18.353 263.907 C 18.323 264.310,18.534 264.639,18.822 264.639 C 19.673 264.639,19.850 263.947,19.101 263.546 C 18.547 263.249,18.397 263.322,18.353 263.907 M19.392 265.779 C 19.392 266.198,19.563 266.540,19.772 266.540 C 19.981 266.540,20.152 266.968,20.152 267.490 C 20.152 268.082,20.368 268.441,20.722 268.441 C 21.511 268.441,21.457 266.740,20.638 265.784 C 19.807 264.813,19.392 264.812,19.392 265.779 M379.278 269.328 C 378.859 269.781,378.566 270.299,378.626 270.478 C 378.686 270.658,378.340 271.342,377.858 271.999 C 377.375 272.656,376.728 273.707,376.418 274.335 C 376.109 274.962,375.651 275.646,375.401 275.856 C 374.468 276.636,374.361 278.327,375.244 278.327 C 375.907 278.327,376.046 278.096,376.046 276.996 C 376.046 276.067,376.218 275.665,376.616 275.665 C 376.930 275.665,377.186 275.447,377.186 275.179 C 377.186 274.911,377.529 274.446,377.947 274.144 C 378.365 273.843,378.707 273.377,378.707 273.110 C 378.707 272.842,378.964 272.624,379.278 272.624 C 379.594 272.624,379.848 272.286,379.848 271.863 C 379.848 271.445,380.024 271.103,380.240 271.103 C 380.456 271.103,380.592 270.504,380.543 269.772 C 380.440 268.243,380.319 268.200,379.278 269.328 M22.053 270.342 C 22.053 270.765,22.307 271.103,22.624 271.103 C 22.940 271.103,23.194 270.765,23.194 270.342 C 23.194 269.920,22.940 269.582,22.624 269.582 C 22.307 269.582,22.053 269.920,22.053 270.342 M22.814 272.053 C 22.814 272.367,23.070 272.624,23.384 272.624 C 23.698 272.624,23.954 272.367,23.954 272.053 C 23.954 271.740,23.698 271.483,23.384 271.483 C 23.070 271.483,22.814 271.740,22.814 272.053 M24.715 275.123 C 24.715 275.477,24.974 275.671,25.349 275.598 C 26.303 275.413,26.434 274.525,25.507 274.525 C 25.040 274.525,24.715 274.770,24.715 275.123 M25.645 276.079 C 25.504 276.306,25.587 276.690,25.828 276.931 C 26.305 277.408,27.124 276.561,26.759 275.969 C 26.493 275.539,25.945 275.593,25.645 276.079 M26.616 278.164 C 26.616 278.847,27.504 279.848,28.110 279.848 C 28.334 279.848,28.517 279.591,28.517 279.278 C 28.517 278.964,28.346 278.707,28.137 278.707 C 27.928 278.707,27.757 278.451,27.757 278.137 C 27.757 277.823,27.500 277.567,27.186 277.567 C 26.873 277.567,26.616 277.835,26.616 278.164 M372.872 280.544 C 372.525 280.927,372.352 281.351,372.487 281.486 C 372.622 281.621,372.451 281.839,372.108 281.971 C 371.701 282.127,371.493 282.628,371.513 283.406 C 371.529 284.063,371.629 284.387,371.735 284.125 C 371.840 283.864,372.254 283.650,372.655 283.650 C 373.179 283.650,373.384 283.383,373.384 282.700 C 373.384 282.108,373.599 281.749,373.954 281.749 C 374.309 281.749,374.525 281.390,374.525 280.798 C 374.525 279.674,373.765 279.557,372.872 280.544 M28.238 281.030 C 28.208 281.427,28.429 281.749,28.731 281.749 C 29.412 281.749,29.455 280.758,28.785 280.501 C 28.497 280.390,28.270 280.610,28.238 281.030 M29.278 283.080 C 29.278 283.394,29.449 283.650,29.658 283.650 C 29.867 283.650,30.038 284.090,30.038 284.629 C 30.038 285.356,30.209 285.574,30.703 285.479 C 31.069 285.408,31.352 285.139,31.331 284.881 C 31.310 284.622,31.267 283.983,31.236 283.460 C 31.171 282.373,29.278 282.005,29.278 283.080 M32.006 287.326 C 32.191 288.280,33.080 288.411,33.080 287.484 C 33.080 287.017,32.834 286.692,32.482 286.692 C 32.128 286.692,31.934 286.951,32.006 287.326 M368.601 288.007 C 368.472 288.521,368.127 289.141,367.833 289.385 C 367.054 290.031,367.183 290.875,368.061 290.875 C 368.619 290.875,368.821 290.621,368.821 289.924 C 368.821 289.332,369.037 288.973,369.392 288.973 C 369.747 288.973,369.962 288.614,369.962 288.023 C 369.962 286.776,368.913 286.764,368.601 288.007 M32.700 289.163 C 32.700 289.477,32.956 289.734,33.270 289.734 C 33.584 289.734,33.840 289.477,33.840 289.163 C 33.840 288.850,33.584 288.593,33.270 288.593 C 32.956 288.593,32.700 288.850,32.700 289.163 M34.601 291.825 C 34.601 292.217,34.850 292.403,35.266 292.323 C 36.068 292.169,36.017 291.494,35.191 291.322 C 34.847 291.250,34.601 291.460,34.601 291.825 M366.160 291.825 C 366.160 292.139,366.416 292.395,366.730 292.395 C 367.044 292.395,367.300 292.139,367.300 291.825 C 367.300 291.511,367.044 291.255,366.730 291.255 C 366.416 291.255,366.160 291.511,366.160 291.825 M365.209 293.156 C 364.932 293.605,365.292 294.297,365.802 294.297 C 365.999 294.297,366.160 293.954,366.160 293.536 C 366.160 292.734,365.607 292.513,365.209 293.156 M35.361 293.726 C 35.361 294.118,35.610 294.304,36.027 294.224 C 36.828 294.070,36.778 293.395,35.952 293.223 C 35.607 293.151,35.361 293.361,35.361 293.726 M36.502 295.406 C 36.502 295.873,36.747 296.198,37.100 296.198 C 37.454 296.198,37.648 295.939,37.575 295.564 C 37.390 294.610,36.502 294.479,36.502 295.406 M38.233 297.821 C 38.426 298.827,38.634 298.998,39.337 298.728 C 40.175 298.407,40.058 297.974,39.002 297.484 C 38.185 297.105,38.102 297.142,38.233 297.821 M361.882 299.074 C 361.014 300.819,361.041 301.521,361.977 301.521 C 362.535 301.521,362.738 301.267,362.738 300.570 C 362.738 300.048,362.909 299.620,363.118 299.620 C 363.327 299.620,363.498 299.192,363.498 298.669 C 363.498 297.304,362.658 297.515,361.882 299.074 M39.163 299.837 C 39.163 300.520,40.051 301.521,40.657 301.521 C 40.881 301.521,41.065 301.264,41.065 300.951 C 41.065 300.637,40.894 300.380,40.684 300.380 C 40.475 300.380,40.304 300.124,40.304 299.810 C 40.304 299.496,40.048 299.240,39.734 299.240 C 39.420 299.240,39.163 299.508,39.163 299.837 M41.825 304.563 C 41.825 305.053,42.018 305.322,42.300 305.228 C 42.562 305.141,42.776 304.842,42.776 304.563 C 42.776 304.284,42.562 303.984,42.300 303.897 C 42.018 303.803,41.825 304.073,41.825 304.563 M358.935 304.522 C 358.935 304.918,358.679 305.340,358.365 305.461 C 358.051 305.581,357.795 305.942,357.795 306.262 C 357.795 306.582,358.051 306.844,358.365 306.844 C 358.682 306.844,358.935 306.506,358.935 306.084 C 358.935 305.661,359.189 305.323,359.506 305.323 C 359.823 305.323,360.076 304.985,360.076 304.563 C 360.076 304.140,359.823 303.802,359.506 303.802 C 359.192 303.802,358.935 304.126,358.935 304.522 M42.586 306.274 C 42.586 306.587,42.842 306.844,43.156 306.844 C 43.470 306.844,43.726 306.587,43.726 306.274 C 43.726 305.960,43.470 305.703,43.156 305.703 C 42.842 305.703,42.586 305.960,42.586 306.274 M44.487 308.935 C 44.487 309.249,44.743 309.506,45.057 309.506 C 45.371 309.506,45.627 309.249,45.627 308.935 C 45.627 308.622,45.371 308.365,45.057 308.365 C 44.743 308.365,44.487 308.622,44.487 308.935 M45.254 310.373 C 45.257 310.628,45.685 311.239,46.204 311.732 C 47.164 312.642,47.450 312.300,46.779 311.046 C 46.329 310.206,45.245 309.727,45.254 310.373 M355.209 311.103 C 354.528 311.784,354.656 312.622,355.418 312.476 C 355.784 312.407,356.138 311.966,356.205 311.498 C 356.339 310.562,355.917 310.395,355.209 311.103 M353.342 314.068 C 353.233 314.487,352.974 314.829,352.767 314.829 C 352.560 314.829,352.477 315.055,352.583 315.331 C 352.689 315.608,352.455 316.034,352.064 316.279 C 351.128 316.863,351.532 317.871,352.702 317.871 C 353.489 317.871,353.612 317.690,353.612 316.540 C 353.612 315.610,353.784 315.209,354.183 315.209 C 354.537 315.209,354.753 314.850,354.753 314.259 C 354.753 313.097,353.635 312.947,353.342 314.068 M49.049 317.110 C 49.049 317.533,49.303 317.871,49.620 317.871 C 49.937 317.871,50.190 317.533,50.190 317.110 C 50.190 316.688,49.937 316.350,49.620 316.350 C 49.303 316.350,49.049 316.688,49.049 317.110 M349.566 320.823 C 348.877 321.267,347.441 324.266,347.710 324.701 C 348.184 325.468,349.049 325.108,349.049 324.144 C 349.049 323.622,349.233 323.194,349.457 323.194 C 350.128 323.194,350.951 322.162,350.951 321.320 C 350.951 320.523,350.361 320.312,349.566 320.823 M51.778 321.503 C 51.950 322.329,52.625 322.379,52.779 321.578 C 52.859 321.162,52.673 320.913,52.281 320.913 C 51.916 320.913,51.706 321.158,51.778 321.503 M52.725 322.687 C 52.273 323.139,52.457 323.954,53.010 323.954 C 53.306 323.954,53.625 324.168,53.719 324.430 C 53.812 324.691,54.002 324.800,54.141 324.673 C 54.464 324.376,53.738 322.433,53.305 322.433 C 53.125 322.433,52.864 322.548,52.725 322.687 M346.270 326.711 C 344.933 327.959,344.589 329.278,345.602 329.278 C 346.134 329.278,346.388 329.032,346.388 328.517 C 346.388 328.095,346.641 327.757,346.958 327.757 C 347.313 327.757,347.529 327.398,347.529 326.806 C 347.529 325.641,347.426 325.633,346.270 326.711 M55.133 327.947 C 55.133 328.264,55.471 328.517,55.894 328.517 C 56.316 328.517,56.654 328.264,56.654 327.947 C 56.654 327.630,56.316 327.376,55.894 327.376 C 55.471 327.376,55.133 327.630,55.133 327.947 M342.966 332.521 C 342.966 332.842,342.709 333.202,342.395 333.323 C 342.082 333.443,341.825 333.946,341.825 334.439 C 341.825 335.081,341.988 335.275,342.395 335.118 C 342.709 334.998,342.966 334.490,342.966 333.990 C 342.966 333.489,343.137 333.080,343.346 333.080 C 343.555 333.080,343.726 332.823,343.726 332.510 C 343.726 332.196,343.555 331.939,343.346 331.939 C 343.137 331.939,342.966 332.201,342.966 332.521 M58.935 333.999 C 58.935 334.330,59.206 334.601,59.537 334.601 C 60.209 334.601,60.092 333.782,59.387 333.547 C 59.139 333.464,58.935 333.668,58.935 333.999 M61.597 338.593 C 61.597 338.907,61.854 339.163,62.167 339.163 C 62.481 339.163,62.738 338.907,62.738 338.593 C 62.738 338.279,62.481 338.023,62.167 338.023 C 61.854 338.023,61.597 338.279,61.597 338.593 M339.163 338.783 C 339.163 338.992,339.420 339.163,339.734 339.163 C 340.048 339.163,340.304 338.992,340.304 338.783 C 340.304 338.574,340.048 338.403,339.734 338.403 C 339.420 338.403,339.163 338.574,339.163 338.783 M338.287 340.167 C 337.983 340.471,338.326 341.065,338.806 341.065 C 339.002 341.065,339.163 340.808,339.163 340.494 C 339.163 339.906,338.715 339.739,338.287 340.167 M63.498 341.232 C 63.498 341.534,63.651 341.875,63.838 341.991 C 64.230 342.232,64.702 341.254,64.359 340.912 C 63.951 340.504,63.498 340.672,63.498 341.232 M65.019 344.930 C 65.019 345.429,65.233 345.642,65.653 345.560 C 66.594 345.378,66.686 344.614,65.795 344.381 C 65.207 344.227,65.019 344.360,65.019 344.930 M335.448 344.938 C 335.683 345.643,336.502 345.760,336.502 345.089 C 336.502 344.758,336.231 344.487,335.900 344.487 C 335.569 344.487,335.366 344.690,335.448 344.938 M334.601 346.768 C 334.601 347.191,334.854 347.529,335.171 347.529 C 335.488 347.529,335.741 347.191,335.741 346.768 C 335.741 346.346,335.488 346.008,335.171 346.008 C 334.854 346.008,334.601 346.346,334.601 346.768 M333.745 348.577 C 332.359 349.437,332.403 350.190,333.840 350.190 C 334.854 350.190,334.981 350.063,334.981 349.049 C 334.981 348.422,334.938 347.913,334.886 347.919 C 334.834 347.924,334.320 348.221,333.745 348.577 M67.849 349.361 C 67.901 349.712,68.225 350.055,68.571 350.123 C 68.996 350.206,69.128 350.062,68.981 349.677 C 68.661 348.844,67.736 348.586,67.849 349.361 " stroke="none" fill="#8cc345" fill-rule="evenodd"></path><path id="path2" d="M135.741 7.262 C 135.741 7.825,136.861 10.229,137.679 11.422 C 138.043 11.953,138.895 13.408,139.573 14.654 C 140.251 15.900,141.254 17.605,141.802 18.441 C 142.350 19.278,143.221 20.789,143.738 21.800 C 144.759 23.800,144.944 24.116,146.491 26.513 C 147.061 27.398,147.529 28.199,147.529 28.294 C 147.529 28.389,148.027 29.291,148.635 30.298 C 150.190 32.870,156.220 43.210,157.295 45.148 C 160.298 50.558,161.990 53.511,163.450 55.894 C 164.027 56.835,165.152 58.802,165.951 60.266 C 166.749 61.730,167.699 63.356,168.063 63.878 C 168.426 64.401,169.357 66.027,170.133 67.490 C 170.908 68.954,172.171 71.179,172.938 72.434 C 173.706 73.690,174.677 75.396,175.095 76.226 C 175.513 77.057,176.155 78.072,176.521 78.483 C 176.887 78.894,177.186 79.341,177.186 79.476 C 177.186 79.748,181.951 88.155,183.068 89.856 C 183.456 90.445,184.044 91.422,184.377 92.026 C 184.709 92.630,185.597 94.201,186.349 95.516 C 187.102 96.832,188.147 98.679,188.672 99.620 C 189.197 100.561,190.187 102.272,190.872 103.422 C 191.557 104.572,192.636 106.454,193.269 107.605 C 195.178 111.071,195.453 111.555,196.124 112.615 C 197.720 115.137,200.668 120.464,201.137 121.673 C 201.421 122.405,201.966 123.458,202.348 124.013 C 202.729 124.568,203.042 125.222,203.042 125.466 C 203.042 125.710,203.307 126.175,203.631 126.499 C 203.955 126.823,204.318 127.581,204.439 128.183 C 204.559 128.785,204.893 129.278,205.181 129.278 C 205.468 129.278,205.703 129.620,205.703 130.038 C 205.703 130.456,205.871 130.798,206.076 130.798 C 206.282 130.798,206.557 131.226,206.688 131.749 C 206.819 132.272,207.047 132.700,207.195 132.700 C 207.342 132.700,207.698 133.298,207.985 134.030 C 208.272 134.762,208.666 135.361,208.861 135.361 C 209.055 135.361,209.132 135.789,209.032 136.312 C 208.895 137.032,209.012 137.262,209.514 137.262 C 209.879 137.262,210.281 137.562,210.407 137.928 C 210.534 138.294,210.957 139.106,211.347 139.734 C 211.737 140.361,211.986 141.066,211.900 141.301 C 211.814 141.535,212.010 141.829,212.336 141.954 C 212.661 142.079,212.928 142.443,212.928 142.764 C 212.928 143.084,213.086 143.346,213.279 143.346 C 213.472 143.346,214.114 144.330,214.705 145.532 C 215.296 146.735,215.993 147.855,216.255 148.023 C 216.516 148.190,216.730 148.660,216.730 149.068 C 216.730 149.476,216.858 149.811,217.015 149.813 C 217.456 149.817,218.229 151.706,218.017 152.259 C 217.909 152.541,218.183 152.845,218.659 152.969 C 219.218 153.115,219.416 153.381,219.263 153.780 C 219.120 154.151,219.244 154.373,219.594 154.373 C 219.901 154.373,220.152 154.608,220.152 154.896 C 220.152 155.184,220.404 155.629,220.712 155.885 C 221.021 156.141,221.382 156.932,221.515 157.643 C 221.653 158.376,221.986 158.935,222.286 158.935 C 222.576 158.935,222.814 159.278,222.814 159.696 C 222.814 160.114,222.942 160.456,223.099 160.457 C 223.635 160.457,225.480 164.184,225.246 164.793 C 225.096 165.184,225.219 165.399,225.592 165.399 C 226.433 165.399,229.119 169.899,228.941 171.008 C 228.898 171.269,229.085 171.484,229.356 171.486 C 229.627 171.487,230.032 171.872,230.256 172.341 C 231.059 174.021,232.894 177.374,233.113 177.563 C 233.766 178.130,235.385 181.402,235.178 181.738 C 235.045 181.953,235.164 182.129,235.442 182.129 C 235.721 182.129,236.284 182.771,236.695 183.555 C 237.105 184.339,238.000 185.871,238.682 186.959 C 239.365 188.047,239.924 189.202,239.924 189.525 C 239.924 189.849,240.058 190.114,240.222 190.114 C 240.387 190.114,241.028 191.098,241.648 192.300 C 242.268 193.503,242.879 194.572,243.004 194.677 C 243.687 195.245,248.669 204.391,248.669 205.077 C 248.669 205.421,248.926 205.703,249.240 205.703 C 249.553 205.703,249.810 206.027,249.810 206.423 C 249.810 206.819,250.057 207.238,250.359 207.354 C 250.661 207.470,251.023 208.172,251.162 208.915 C 251.301 209.658,251.623 210.266,251.876 210.266 C 252.129 210.266,252.710 210.993,253.167 211.882 C 254.522 214.517,256.314 217.654,256.687 218.042 C 256.878 218.240,257.034 218.697,257.034 219.056 C 257.034 219.415,257.166 219.766,257.326 219.835 C 257.487 219.905,258.156 220.817,258.813 221.863 C 260.013 223.774,260.349 224.354,262.882 228.897 C 263.640 230.257,264.429 231.625,264.636 231.939 C 264.842 232.253,265.345 233.126,265.754 233.878 C 266.781 235.769,262.748 235.664,334.886 235.683 C 397.624 235.699,398.479 235.689,398.479 234.960 C 398.479 234.553,398.324 234.221,398.135 234.221 C 397.626 234.221,395.817 230.979,395.817 230.065 C 395.817 229.619,395.571 229.278,395.247 229.278 C 394.933 229.278,394.677 228.950,394.677 228.549 C 394.677 228.148,394.533 227.763,394.357 227.693 C 394.181 227.624,393.141 226.027,392.046 224.144 C 390.951 222.262,389.905 220.466,389.722 220.152 C 388.225 217.596,386.837 215.185,386.218 214.068 C 385.812 213.337,385.325 212.575,385.135 212.376 C 384.946 212.178,384.791 211.726,384.791 211.371 C 384.791 211.017,384.544 210.633,384.242 210.517 C 383.939 210.401,383.580 209.710,383.444 208.982 C 383.307 208.253,382.938 207.558,382.623 207.438 C 382.304 207.315,382.147 206.966,382.268 206.651 C 382.398 206.312,382.268 206.084,381.945 206.084 C 381.648 206.084,381.107 205.442,380.743 204.658 C 380.379 203.874,379.253 201.899,378.241 200.269 C 377.228 198.639,376.299 196.800,376.175 196.182 C 376.047 195.539,375.708 195.057,375.383 195.057 C 375.003 195.057,374.882 194.806,375.015 194.297 C 375.141 193.817,375.027 193.536,374.707 193.536 C 374.428 193.536,373.959 193.066,373.664 192.490 C 373.369 191.915,371.902 189.331,370.404 186.746 C 368.906 184.162,367.681 181.977,367.681 181.889 C 367.681 181.802,367.022 180.665,366.218 179.363 C 365.413 178.061,362.484 173.061,359.708 168.251 C 353.631 157.721,352.809 156.307,352.200 155.323 C 351.940 154.905,351.374 153.878,350.942 153.042 C 350.510 152.205,349.843 151.008,349.460 150.380 C 349.077 149.753,348.170 148.213,347.446 146.958 C 346.722 145.703,344.879 142.538,343.350 139.924 C 341.822 137.310,340.298 134.655,339.963 134.024 C 339.466 133.088,337.682 129.975,335.720 126.616 C 335.536 126.302,334.667 124.762,333.789 123.194 C 332.910 121.625,331.736 119.658,331.179 118.821 C 330.622 117.985,330.070 117.034,329.952 116.709 C 329.835 116.384,328.523 114.101,327.037 111.637 C 325.550 109.173,324.335 107.094,324.335 107.017 C 324.335 106.940,323.821 106.007,323.194 104.943 C 322.567 103.879,322.053 102.845,322.053 102.645 C 322.053 102.445,321.711 101.939,321.293 101.521 C 320.875 101.103,320.532 100.472,320.532 100.120 C 320.532 99.767,320.206 99.125,319.808 98.694 C 318.774 97.572,317.096 94.438,317.379 94.155 C 317.510 94.024,317.442 93.916,317.228 93.916 C 317.013 93.916,315.332 91.307,313.492 88.118 C 311.652 84.929,309.574 81.375,308.875 80.221 C 308.176 79.066,307.605 77.826,307.605 77.464 C 307.605 77.102,307.446 76.806,307.253 76.806 C 307.059 76.806,306.402 75.908,305.793 74.810 C 305.183 73.712,304.029 71.702,303.228 70.342 C 302.428 68.983,301.331 67.079,300.791 66.111 C 298.295 61.637,292.574 51.793,291.916 50.842 C 291.513 50.259,291.280 49.532,291.397 49.226 C 291.519 48.910,291.394 48.669,291.108 48.669 C 290.831 48.669,289.170 46.145,287.418 43.061 C 285.666 39.976,284.020 37.110,283.760 36.692 C 283.500 36.274,282.936 35.247,282.506 34.411 C 282.077 33.574,281.047 31.803,280.216 30.475 C 279.386 29.147,278.707 28.017,278.707 27.965 C 278.707 27.845,271.618 15.605,271.099 14.829 C 270.889 14.515,270.601 14.002,270.458 13.688 C 270.315 13.375,269.708 12.282,269.109 11.260 C 268.510 10.238,268.102 9.185,268.204 8.921 C 268.305 8.656,268.058 8.354,267.654 8.248 C 267.251 8.142,266.920 7.783,266.920 7.450 C 266.920 6.898,261.091 6.844,201.331 6.844 C 153.924 6.844,135.741 6.960,135.741 7.262 " stroke="none" fill="#d9262c" fill-rule="evenodd"></path><path id="path3" d="M266.555 235.741 C 266.564 235.846,267.077 236.524,267.696 237.248 C 268.315 237.972,268.821 238.707,268.821 238.882 C 268.821 239.154,269.918 241.039,271.762 243.939 C 272.021 244.345,272.476 245.217,272.774 245.878 C 273.072 246.538,273.930 248.039,274.681 249.212 C 275.431 250.386,276.046 251.431,276.046 251.536 C 276.046 251.641,276.511 252.450,277.079 253.335 C 277.647 254.219,278.438 255.542,278.836 256.274 C 280.216 258.810,281.281 260.665,283.601 264.575 C 284.883 266.735,285.932 268.563,285.932 268.636 C 285.932 268.709,287.215 270.937,288.783 273.587 C 290.352 276.236,291.635 278.450,291.635 278.507 C 291.635 278.599,292.866 280.775,297.234 288.403 C 297.952 289.658,298.783 290.955,299.080 291.285 C 299.377 291.615,299.620 292.032,299.620 292.212 C 299.620 292.525,300.880 294.738,304.381 300.570 C 305.259 302.034,306.531 304.259,307.206 305.513 C 307.881 306.768,308.649 308.051,308.912 308.365 C 309.175 308.679,309.506 309.261,309.649 309.659 C 309.791 310.057,311.336 312.795,313.082 315.743 C 314.829 318.691,316.706 321.915,317.254 322.909 C 319.374 326.750,320.306 328.379,321.184 329.778 C 321.684 330.576,322.399 331.773,322.772 332.439 C 325.761 337.784,328.177 341.982,328.499 342.395 C 328.821 342.809,330.596 345.944,331.458 347.624 C 332.315 349.292,332.808 349.005,334.398 345.913 C 335.016 344.710,335.657 343.726,335.822 343.726 C 335.987 343.726,336.122 343.384,336.122 342.966 C 336.122 342.432,336.377 342.204,336.977 342.200 C 337.597 342.195,337.692 342.104,337.321 341.869 C 336.910 341.609,336.986 341.255,337.710 340.069 C 338.205 339.257,338.863 338.096,339.172 337.488 C 339.481 336.880,340.043 336.301,340.421 336.202 C 340.815 336.098,341.022 335.798,340.906 335.496 C 340.703 334.968,341.816 332.656,342.814 331.529 C 343.107 331.199,343.346 330.643,343.346 330.293 C 343.346 329.915,343.649 329.658,344.095 329.658 C 344.590 329.658,344.772 329.473,344.633 329.110 C 344.428 328.575,345.606 326.160,347.654 322.916 C 348.212 322.032,348.669 321.133,348.669 320.920 C 348.669 320.707,348.820 320.532,349.005 320.532 C 349.190 320.532,349.451 320.233,349.584 319.867 C 349.718 319.501,350.212 318.517,350.681 317.681 C 352.823 313.863,353.721 312.548,354.183 312.548 C 354.493 312.548,354.607 312.262,354.484 311.792 C 354.360 311.316,354.510 310.950,354.889 310.804 C 355.221 310.677,355.602 309.991,355.735 309.279 C 355.879 308.515,356.204 307.985,356.529 307.985 C 356.831 307.985,356.977 307.820,356.853 307.619 C 356.728 307.417,357.061 306.565,357.591 305.725 C 358.121 304.885,358.555 304.023,358.555 303.810 C 358.555 303.597,358.686 303.422,358.845 303.422 C 359.005 303.422,359.304 303.092,359.511 302.688 C 361.653 298.496,362.171 297.620,362.610 297.452 C 362.889 297.345,363.118 296.942,363.118 296.556 C 363.118 296.171,363.416 295.689,363.780 295.485 C 364.144 295.281,364.325 294.997,364.182 294.854 C 364.039 294.710,364.340 293.931,364.850 293.122 C 365.361 292.312,365.779 291.476,365.779 291.262 C 365.779 291.049,366.031 290.875,366.338 290.875 C 366.665 290.875,366.810 290.650,366.689 290.333 C 366.570 290.025,366.815 289.614,367.257 289.377 C 367.715 289.132,367.944 288.732,367.817 288.400 C 367.697 288.088,367.862 287.739,368.188 287.614 C 368.511 287.490,368.884 286.892,369.017 286.284 C 369.151 285.677,369.407 285.089,369.587 284.978 C 369.766 284.867,370.369 283.846,370.925 282.708 C 371.481 281.571,372.177 280.441,372.470 280.198 C 372.764 279.954,373.004 279.514,373.004 279.219 C 373.004 278.924,373.259 278.585,373.572 278.465 C 373.884 278.345,374.049 278.101,373.938 277.921 C 373.828 277.742,374.171 276.907,374.701 276.067 C 375.231 275.227,375.665 274.424,375.665 274.283 C 375.665 274.142,376.055 273.497,376.532 272.850 C 377.009 272.202,377.819 270.834,378.333 269.808 C 378.847 268.782,379.558 267.867,379.912 267.774 C 380.310 267.670,380.470 267.381,380.330 267.018 C 380.200 266.679,380.401 266.213,380.804 265.919 C 381.189 265.637,381.399 265.303,381.272 265.176 C 380.972 264.876,383.220 261.217,383.705 261.217 C 383.909 261.217,383.982 261.066,383.869 260.883 C 383.596 260.442,384.569 258.525,385.667 257.341 C 386.149 256.821,386.473 256.186,386.387 255.929 C 386.302 255.673,386.590 255.369,387.028 255.255 C 387.466 255.140,387.721 254.880,387.595 254.677 C 387.306 254.209,388.972 250.927,389.626 250.676 C 389.894 250.573,390.114 250.256,390.114 249.971 C 390.114 249.379,391.450 246.873,392.244 245.978 C 392.536 245.648,392.776 245.091,392.776 244.742 C 392.776 244.392,393.042 244.106,393.368 244.106 C 393.694 244.106,393.851 243.928,393.716 243.710 C 393.581 243.491,393.634 243.106,393.833 242.854 C 394.207 242.380,395.914 239.384,396.857 237.548 C 397.153 236.972,397.638 236.502,397.937 236.502 C 398.235 236.502,398.479 236.331,398.479 236.122 C 398.479 235.892,396.856 235.737,394.392 235.730 C 344.450 235.591,266.544 235.598,266.555 235.741 M159.997 286.413 C 150.583 289.545,149.623 307.455,158.629 311.943 C 165.621 315.427,172.793 310.892,173.753 302.380 C 175.030 291.058,168.572 283.561,159.997 286.413 M260.901 286.381 C 258.552 286.906,255.690 289.736,255.338 291.881 C 254.600 296.381,256.970 298.672,265.553 301.759 C 268.478 302.811,269.582 303.935,269.582 305.861 C 269.582 310.989,260.505 311.402,258.588 306.361 C 257.897 304.542,255.079 304.075,254.565 305.695 C 253.529 308.962,258.889 312.871,264.449 312.903 C 274.783 312.962,277.282 302.054,267.718 298.633 C 261.795 296.515,260.778 296.053,260.078 295.163 C 257.868 292.353,259.985 289.354,264.178 289.354 C 267.268 289.354,268.507 290.073,269.442 292.410 C 270.370 294.730,273.384 294.959,273.384 292.709 C 273.384 288.045,267.287 284.954,260.901 286.381 M130.513 286.544 C 130.147 286.707,130.038 289.660,130.038 299.448 C 130.038 313.609,129.983 313.334,132.711 312.735 L 133.818 312.492 133.924 307.672 L 134.030 302.852 138.036 302.603 C 147.510 302.016,151.520 297.358,148.292 290.690 C 147.399 288.847,147.221 288.666,145.057 287.414 C 143.563 286.550,132.052 285.861,130.513 286.544 M178.961 286.565 C 178.821 286.705,178.707 292.588,178.707 299.639 L 178.707 312.459 179.563 312.688 C 181.621 313.240,193.844 312.946,194.460 312.330 C 196.413 310.377,195.027 309.719,188.513 309.506 L 182.700 309.316 182.599 298.118 C 182.523 289.740,182.380 286.845,182.028 286.622 C 181.453 286.256,179.309 286.217,178.961 286.565 M206.211 287.734 C 204.845 291.003,196.958 311.794,196.958 312.126 C 196.958 312.325,197.478 312.601,198.114 312.741 C 199.903 313.134,200.940 312.205,201.887 309.359 C 203.013 305.973,203.001 305.980,208.607 306.046 C 214.344 306.113,213.722 305.794,215.014 309.335 C 216.151 312.452,217.002 313.228,218.793 312.779 C 220.072 312.458,220.042 312.151,218.277 307.528 C 217.455 305.374,215.387 299.933,213.681 295.437 C 210.120 286.054,210.272 286.312,208.299 286.312 C 206.933 286.312,206.754 286.433,206.211 287.734 M222.902 286.776 C 222.182 287.643,222.340 311.640,223.071 312.370 C 225.309 314.608,226.616 312.625,226.616 306.991 L 226.616 302.249 229.529 302.360 L 232.441 302.471 235.137 307.383 C 238.129 312.834,238.437 313.149,240.430 312.775 L 241.821 312.514 241.256 311.161 C 240.945 310.417,239.748 308.090,238.596 305.989 C 236.071 301.384,236.089 301.874,238.369 299.653 C 242.222 295.900,241.430 289.837,236.765 287.359 C 234.746 286.287,223.694 285.822,222.902 286.776 M246.564 286.715 C 246.375 287.020,246.201 308.336,246.359 311.852 C 246.396 312.665,248.359 313.121,249.407 312.559 C 250.188 312.142,250.690 288.817,249.959 286.913 C 249.693 286.219,246.969 286.060,246.564 286.715 M142.864 290.237 C 146.213 292.009,146.043 297.241,142.592 298.622 C 140.439 299.484,134.400 299.495,134.071 298.638 C 133.739 297.772,133.786 289.916,134.125 289.570 C 134.664 289.020,141.559 289.546,142.864 290.237 M166.869 290.458 C 170.957 293.369,171.095 305.163,167.077 308.323 C 161.972 312.338,156.603 308.006,156.529 299.813 C 156.452 291.276,161.546 286.667,166.869 290.458 M235.152 290.644 C 239.501 293.961,236.364 298.859,229.891 298.859 L 226.616 298.859 226.616 294.360 C 226.616 291.885,226.744 289.728,226.901 289.565 C 227.631 288.809,233.804 289.616,235.152 290.644 M210.531 296.988 C 212.751 303.027,212.876 302.662,208.587 302.662 C 203.935 302.662,204.005 303.377,207.679 293.424 C 208.309 291.717,208.837 292.376,210.531 296.988 " stroke="none" fill="#2a337d" fill-rule="evenodd"></path></g></svg>