<svg id="svg" version="1.1" xmlns="http://www.w3.org/2000/svg" xmlns:xlink="http://www.w3.org/1999/xlink" width="400" height="400" viewBox="0, 0, 400,400"><g id="svgg"><path id="path0" d="M126.982 105.571 C 126.997 137.015,127.142 162.875,127.304 163.037 C 127.466 163.199,127.595 137.766,127.592 106.518 C 127.588 75.270,127.698 49.411,127.835 49.052 C 127.994 48.639,127.879 48.400,127.520 48.400 C 127.036 48.400,126.959 56.562,126.982 105.571 M201.805 81.879 C 201.347 155.340,201.189 202.251,201.398 203.106 L 201.618 204.013 212.680 203.906 L 223.742 203.800 225.003 200.571 C 231.379 184.242,249.954 179.400,263.200 190.613 C 268.411 195.024,271.106 198.247,272.388 201.600 C 273.370 204.168,270.844 204.010,310.582 203.991 L 347.000 203.973 347.980 205.487 C 349.242 207.437,349.495 210.850,348.671 214.833 C 348.333 216.465,347.837 219.240,347.569 221.000 C 346.442 228.399,344.167 231.919,338.912 234.392 C 335.822 235.846,335.814 235.875,336.351 243.464 C 336.929 251.625,337.269 251.395,326.747 249.943 C 322.984 249.424,322.565 249.620,321.000 252.643 C 318.931 256.640,317.389 257.944,315.000 257.720 C 313.190 257.549,312.768 257.682,310.554 259.122 C 309.209 259.997,307.499 260.843,306.754 261.003 C 306.009 261.162,304.950 261.535,304.400 261.831 C 303.850 262.128,302.590 262.637,301.600 262.963 C 296.279 264.716,293.537 265.824,289.036 268.037 C 287.736 268.677,286.431 269.200,286.136 269.200 C 285.841 269.200,285.600 269.380,285.600 269.600 C 285.600 269.820,286.219 270.000,286.976 270.000 C 287.733 270.000,288.464 269.820,288.600 269.600 C 288.736 269.380,289.829 269.200,291.029 269.200 C 292.229 269.200,293.568 269.020,294.005 268.800 C 294.442 268.580,295.158 268.220,295.595 268.000 C 296.032 267.780,296.932 267.600,297.595 267.600 C 298.258 267.600,298.800 267.420,298.800 267.200 C 298.800 266.980,299.419 266.800,300.176 266.800 C 300.933 266.800,301.664 266.620,301.800 266.400 C 301.936 266.180,302.460 266.000,302.964 266.000 C 303.469 266.000,304.446 265.460,305.137 264.800 C 305.828 264.140,306.744 263.600,307.173 263.600 C 307.602 263.600,308.064 263.420,308.200 263.200 C 308.336 262.980,309.517 262.800,310.824 262.800 C 312.141 262.800,313.200 262.622,313.200 262.400 C 313.200 262.180,313.543 262.000,313.962 262.000 C 314.869 262.000,318.000 260.392,318.000 259.926 C 318.000 259.747,318.360 259.600,318.800 259.600 C 319.240 259.600,319.600 259.420,319.600 259.200 C 319.600 258.980,319.920 258.800,320.312 258.800 C 320.703 258.800,321.283 258.440,321.600 258.000 C 321.917 257.560,322.497 257.200,322.888 257.200 C 323.280 257.200,323.600 257.020,323.600 256.800 C 323.600 256.580,323.960 256.400,324.400 256.400 C 324.840 256.400,325.200 256.220,325.200 256.000 C 325.200 255.780,325.740 255.600,326.400 255.600 C 327.060 255.600,327.600 255.420,327.600 255.200 C 327.600 254.980,328.140 254.800,328.800 254.800 C 329.460 254.800,330.000 254.620,330.000 254.400 C 330.000 254.178,331.059 254.000,332.376 254.000 C 333.683 254.000,334.864 253.820,335.000 253.600 C 335.136 253.380,335.801 253.200,336.477 253.200 C 339.128 253.200,340.898 247.267,339.104 244.395 C 338.709 243.762,338.709 243.438,339.104 242.805 C 339.377 242.368,339.604 241.603,339.609 241.105 C 339.614 240.607,339.970 239.750,340.400 239.200 C 340.830 238.650,341.186 238.060,341.191 237.889 C 341.196 237.717,342.640 236.126,344.400 234.351 C 346.160 232.577,347.600 230.872,347.600 230.563 C 347.600 230.253,347.780 230.000,348.000 230.000 C 348.220 230.000,348.400 229.645,348.400 229.212 C 348.400 228.779,348.760 227.783,349.200 227.000 C 349.640 226.217,350.000 225.311,350.000 224.988 C 350.000 224.665,350.180 224.400,350.400 224.400 C 350.622 224.400,350.800 223.341,350.800 222.024 C 350.800 220.717,350.980 219.536,351.200 219.400 C 352.013 218.897,351.682 213.436,350.800 212.800 C 350.330 212.461,350.000 211.765,350.000 211.112 C 350.000 210.267,350.192 210.000,350.800 210.000 C 351.688 210.000,352.057 203.530,351.200 203.000 C 350.980 202.864,350.800 202.487,350.800 202.163 C 350.800 201.473,348.236 198.800,347.574 198.800 C 347.325 198.800,346.617 198.260,346.000 197.600 C 345.383 196.940,344.703 196.400,344.488 196.400 C 344.029 196.400,341.640 194.034,339.472 191.433 L 337.944 189.600 337.775 178.500 C 337.143 137.109,337.393 140.449,334.924 140.413 C 334.442 140.406,333.936 140.220,333.800 140.000 C 333.664 139.780,332.933 139.600,332.176 139.600 C 331.419 139.600,330.800 139.420,330.800 139.200 C 330.800 138.980,330.548 138.800,330.241 138.800 C 329.933 138.800,328.655 138.260,327.400 137.600 C 326.145 136.940,324.901 136.400,324.635 136.400 C 324.369 136.400,323.764 136.040,323.292 135.600 C 322.820 135.160,322.228 134.800,321.977 134.800 C 321.726 134.800,321.017 134.260,320.400 133.600 C 319.783 132.940,319.126 132.399,318.940 132.398 C 318.753 132.397,318.025 131.857,317.322 131.198 C 316.608 130.529,315.603 130.000,315.045 130.000 C 314.496 130.000,313.936 129.820,313.800 129.600 C 313.647 129.353,310.137 129.200,304.600 129.200 C 299.063 129.200,295.553 129.047,295.400 128.800 C 295.264 128.580,293.993 128.400,292.576 128.400 C 291.125 128.400,290.000 128.575,290.000 128.800 C 290.000 129.036,288.566 129.200,286.497 129.200 C 282.966 129.200,280.400 127.825,280.400 125.933 C 280.400 125.692,280.070 125.203,279.667 124.847 C 279.264 124.491,278.613 123.705,278.221 123.100 L 277.508 122.000 272.154 122.000 C 268.851 122.000,266.800 122.153,266.800 122.400 C 266.800 122.620,266.451 122.800,266.024 122.800 C 265.597 122.800,265.136 122.980,265.000 123.200 C 264.864 123.420,264.328 123.600,263.810 123.600 C 263.291 123.600,262.799 123.802,262.717 124.049 C 262.514 124.658,255.886 124.657,255.682 124.047 C 255.600 123.801,254.929 123.600,254.190 123.600 C 253.452 123.600,252.736 123.420,252.600 123.200 C 252.464 122.980,251.643 122.800,250.776 122.800 C 249.909 122.800,249.200 122.650,249.200 122.468 C 249.200 122.285,248.705 121.880,248.100 121.568 C 247.495 121.255,246.523 120.505,245.940 119.900 C 245.356 119.295,244.726 118.800,244.540 118.799 C 244.353 118.799,243.570 118.259,242.800 117.600 C 242.030 116.941,241.175 116.401,240.900 116.401 C 240.625 116.400,240.400 116.220,240.400 116.000 C 240.400 115.780,240.040 115.600,239.600 115.600 C 239.160 115.600,238.800 115.420,238.800 115.200 C 238.800 114.980,238.468 114.800,238.062 114.800 C 237.656 114.800,236.998 114.440,236.600 114.000 C 236.202 113.560,235.674 113.200,235.426 113.200 C 235.179 113.200,234.717 112.840,234.400 112.400 C 234.083 111.960,233.514 111.600,233.135 111.600 C 232.757 111.600,232.356 111.453,232.245 111.272 C 231.940 110.779,228.108 110.701,227.811 111.182 C 227.669 111.412,227.234 111.600,226.844 111.600 C 226.454 111.600,225.880 112.095,225.568 112.700 C 224.057 115.627,218.919 117.810,217.800 116.000 C 217.664 115.780,217.202 115.600,216.773 115.600 C 216.344 115.600,215.428 115.060,214.737 114.400 C 214.046 113.740,213.238 113.200,212.941 113.200 C 212.643 113.200,212.400 113.020,212.400 112.800 C 212.400 112.580,212.055 112.400,211.633 112.400 C 211.212 112.400,210.807 112.231,210.733 112.024 C 210.660 111.817,208.802 111.592,206.604 111.524 L 202.609 111.400 202.661 80.497 C 202.690 63.080,202.559 49.499,202.361 49.376 C 202.160 49.252,201.922 63.210,201.805 81.879 M126.861 166.580 C 126.964 169.318,127.587 169.759,127.594 167.100 C 127.597 165.817,127.422 164.800,127.197 164.800 C 126.975 164.800,126.824 165.601,126.861 166.580 M36.584 169.627 C 36.439 169.861,36.383 170.086,36.460 170.127 C 37.068 170.445,126.800 169.919,126.800 169.597 C 126.800 169.022,36.939 169.052,36.584 169.627 M36.400 173.576 C 36.400 174.223,36.580 174.864,36.800 175.000 C 37.038 175.147,37.200 174.671,37.200 173.824 C 37.200 173.041,37.020 172.400,36.800 172.400 C 36.580 172.400,36.400 172.929,36.400 173.576 M42.000 185.418 C 42.000 185.832,44.049 187.684,44.267 187.467 C 44.387 187.347,44.024 186.788,43.461 186.224 C 42.465 185.228,42.000 184.972,42.000 185.418 M45.200 188.000 C 45.200 188.220,45.470 188.400,45.800 188.400 C 46.130 188.400,46.400 188.220,46.400 188.000 C 46.400 187.780,46.130 187.600,45.800 187.600 C 45.470 187.600,45.200 187.780,45.200 188.000 M50.000 189.429 C 50.000 189.853,51.236 190.897,51.467 190.667 C 51.592 190.541,51.417 190.160,51.076 189.819 C 50.441 189.184,50.000 189.024,50.000 189.429 M53.200 192.704 C 53.200 192.871,53.560 193.232,54.000 193.507 C 54.930 194.088,55.054 193.797,54.229 192.971 C 53.598 192.341,53.200 192.237,53.200 192.704 M59.600 194.400 C 59.600 194.620,59.870 194.800,60.200 194.800 C 60.530 194.800,60.800 194.620,60.800 194.400 C 60.800 194.180,60.530 194.000,60.200 194.000 C 59.870 194.000,59.600 194.180,59.600 194.400 M245.341 194.402 C 234.496 195.984,229.392 210.205,237.083 217.411 C 243.472 223.397,251.135 223.301,257.662 217.154 C 266.771 208.575,258.090 192.543,245.341 194.402 M65.509 202.624 C 65.202 203.120,66.298 204.635,66.684 204.249 C 66.845 204.088,66.784 203.831,66.548 203.678 C 66.313 203.525,66.036 203.139,65.933 202.820 C 65.831 202.501,65.639 202.413,65.509 202.624 M69.200 207.200 C 69.200 207.420,69.470 207.600,69.800 207.600 C 70.130 207.600,70.400 207.420,70.400 207.200 C 70.400 206.980,70.130 206.800,69.800 206.800 C 69.470 206.800,69.200 206.980,69.200 207.200 M74.800 208.000 C 74.800 208.220,75.430 208.400,76.200 208.400 C 76.970 208.400,77.600 208.220,77.600 208.000 C 77.600 207.780,76.970 207.600,76.200 207.600 C 75.430 207.600,74.800 207.780,74.800 208.000 M81.802 210.802 C 82.202 211.244,82.611 211.522,82.712 211.421 C 82.928 211.205,81.788 210.000,81.367 210.000 C 81.207 210.000,81.403 210.361,81.802 210.802 M89.200 227.800 C 89.200 228.130,89.380 228.400,89.600 228.400 C 89.820 228.400,90.000 228.130,90.000 227.800 C 90.000 227.470,89.820 227.200,89.600 227.200 C 89.380 227.200,89.200 227.470,89.200 227.800 M91.600 232.504 C 91.600 232.781,91.960 233.232,92.400 233.507 C 92.874 233.803,93.200 233.843,93.200 233.603 C 93.200 233.382,93.020 233.200,92.800 233.200 C 92.580 233.200,92.400 232.930,92.400 232.600 C 92.400 232.270,92.220 232.000,92.000 232.000 C 91.780 232.000,91.600 232.227,91.600 232.504 M94.000 236.640 C 94.000 236.771,94.540 237.383,95.200 238.000 C 95.860 238.617,96.400 239.409,96.400 239.760 C 96.400 240.112,96.580 240.400,96.800 240.400 C 97.631 240.400,97.149 239.122,95.813 237.787 C 94.467 236.440,94.000 236.145,94.000 236.640 M137.600 240.800 C 137.600 241.020,138.050 241.200,138.600 241.200 C 139.150 241.200,139.600 241.020,139.600 240.800 C 139.600 240.580,139.150 240.400,138.600 240.400 C 138.050 240.400,137.600 240.580,137.600 240.800 M142.000 240.800 C 142.000 241.020,142.461 241.200,143.024 241.200 C 143.604 241.200,143.940 241.027,143.800 240.800 C 143.664 240.580,143.203 240.400,142.776 240.400 C 142.349 240.400,142.000 240.580,142.000 240.800 M97.200 241.504 C 97.200 241.671,97.560 242.032,98.000 242.307 C 98.930 242.888,99.054 242.597,98.229 241.771 C 97.598 241.141,97.200 241.037,97.200 241.504 M134.800 241.600 C 134.800 241.820,135.160 242.000,135.600 242.000 C 136.040 242.000,136.400 241.820,136.400 241.600 C 136.400 241.380,136.040 241.200,135.600 241.200 C 135.160 241.200,134.800 241.380,134.800 241.600 M129.600 243.200 C 129.600 243.420,129.870 243.600,130.200 243.600 C 130.530 243.600,130.800 243.420,130.800 243.200 C 130.800 242.980,130.530 242.800,130.200 242.800 C 129.870 242.800,129.600 242.980,129.600 243.200 M148.400 243.029 C 148.400 243.453,149.636 244.497,149.867 244.267 C 149.992 244.141,149.817 243.760,149.476 243.419 C 148.841 242.784,148.400 242.624,148.400 243.029 M150.800 244.800 C 150.800 245.020,151.160 245.200,151.600 245.200 C 152.040 245.200,152.400 245.020,152.400 244.800 C 152.400 244.580,152.040 244.400,151.600 244.400 C 151.160 244.400,150.800 244.580,150.800 244.800 M154.600 245.600 C 154.736 245.820,155.107 246.000,155.424 246.000 C 155.741 246.000,156.000 245.820,156.000 245.600 C 156.000 245.380,155.629 245.200,155.176 245.200 C 154.723 245.200,154.464 245.380,154.600 245.600 M158.000 246.400 C 158.000 246.620,158.450 246.800,159.000 246.800 C 159.550 246.800,160.000 246.620,160.000 246.400 C 160.000 246.180,159.550 246.000,159.000 246.000 C 158.450 246.000,158.000 246.180,158.000 246.400 M162.000 247.200 C 162.000 247.420,162.360 247.600,162.800 247.600 C 163.240 247.600,163.600 247.420,163.600 247.200 C 163.600 246.980,163.240 246.800,162.800 246.800 C 162.360 246.800,162.000 246.980,162.000 247.200 M164.600 248.000 C 164.736 248.220,165.197 248.400,165.624 248.400 C 166.051 248.400,166.400 248.220,166.400 248.000 C 166.400 247.780,165.939 247.600,165.376 247.600 C 164.796 247.600,164.460 247.773,164.600 248.000 M167.600 248.800 C 167.600 249.020,167.870 249.200,168.200 249.200 C 168.530 249.200,168.800 249.020,168.800 248.800 C 168.800 248.580,168.530 248.400,168.200 248.400 C 167.870 248.400,167.600 248.580,167.600 248.800 M104.166 249.499 C 104.594 249.928,107.200 249.973,107.200 249.552 C 107.200 249.359,106.450 249.200,105.533 249.200 C 104.617 249.200,104.001 249.335,104.166 249.499 M125.200 249.600 C 125.200 249.820,124.840 250.000,124.400 250.000 C 123.960 250.000,123.600 250.180,123.600 250.400 C 123.600 250.994,124.773 250.884,125.429 250.229 C 126.099 249.558,126.158 249.200,125.600 249.200 C 125.380 249.200,125.200 249.380,125.200 249.600 M170.000 249.600 C 170.000 249.820,170.270 250.000,170.600 250.000 C 170.930 250.000,171.200 249.820,171.200 249.600 C 171.200 249.380,170.930 249.200,170.600 249.200 C 170.270 249.200,170.000 249.380,170.000 249.600 M172.400 250.400 C 172.400 250.620,172.670 250.800,173.000 250.800 C 173.330 250.800,173.600 250.620,173.600 250.400 C 173.600 250.180,173.330 250.000,173.000 250.000 C 172.670 250.000,172.400 250.180,172.400 250.400 M121.660 251.442 C 120.931 252.266,121.400 252.657,122.181 251.876 C 122.521 251.536,122.800 251.154,122.800 251.029 C 122.800 250.609,122.206 250.824,121.660 251.442 M108.893 252.400 C 109.362 253.151,110.000 253.480,110.000 252.971 C 110.000 252.673,108.925 251.600,108.625 251.600 C 108.498 251.600,108.618 251.960,108.893 252.400 M174.800 253.200 C 174.800 253.640,174.980 254.000,175.200 254.000 C 175.420 254.000,175.600 253.640,175.600 253.200 C 175.600 252.760,175.420 252.400,175.200 252.400 C 174.980 252.400,174.800 252.760,174.800 253.200 M175.600 255.800 C 175.600 256.130,175.780 256.400,176.000 256.400 C 176.220 256.400,176.400 256.130,176.400 255.800 C 176.400 255.470,176.220 255.200,176.000 255.200 C 175.780 255.200,175.600 255.470,175.600 255.800 M110.800 255.904 C 110.800 256.071,111.160 256.432,111.600 256.707 C 112.530 257.288,112.654 256.997,111.829 256.171 C 111.198 255.541,110.800 255.437,110.800 255.904 M112.400 258.304 C 112.400 258.471,112.760 258.832,113.200 259.107 C 114.130 259.688,114.254 259.397,113.429 258.571 C 112.798 257.941,112.400 257.837,112.400 258.304 M117.700 258.598 C 117.131 259.245,117.061 259.600,117.504 259.600 C 117.671 259.600,118.032 259.240,118.307 258.800 C 118.878 257.887,118.451 257.745,117.700 258.598 M176.400 258.753 C 176.400 259.193,176.580 259.664,176.800 259.800 C 177.020 259.936,177.200 259.687,177.200 259.247 C 177.200 258.807,177.020 258.336,176.800 258.200 C 176.580 258.064,176.400 258.313,176.400 258.753 M178.000 263.753 C 178.000 264.303,178.180 264.864,178.400 265.000 C 178.626 265.140,178.800 264.812,178.800 264.247 C 178.800 263.697,178.620 263.136,178.400 263.000 C 178.174 262.860,178.000 263.188,178.000 263.753 M275.892 270.452 C 275.523 270.659,274.395 271.857,273.386 273.114 C 272.376 274.371,270.980 275.806,270.283 276.302 C 269.587 276.798,267.547 278.643,265.750 280.402 C 263.954 282.161,262.195 283.600,261.842 283.600 C 261.489 283.600,261.200 283.780,261.200 284.000 C 261.200 284.220,261.549 284.400,261.976 284.400 C 262.403 284.400,262.864 284.220,263.000 284.000 C 263.136 283.780,263.867 283.600,264.624 283.600 C 265.381 283.600,266.000 283.420,266.000 283.200 C 266.000 282.980,266.320 282.800,266.712 282.800 C 267.103 282.800,267.683 282.440,268.000 282.000 C 268.317 281.560,268.819 281.200,269.114 281.200 C 269.410 281.200,270.495 280.340,271.526 279.289 C 272.557 278.238,274.030 276.940,274.800 276.404 C 275.570 275.869,276.677 274.929,277.260 274.315 C 277.890 273.653,278.743 273.200,279.360 273.200 C 279.932 273.200,280.400 273.020,280.400 272.800 C 280.400 272.580,280.683 272.400,281.029 272.400 C 281.619 272.400,282.800 271.502,282.800 271.053 C 282.800 270.870,282.123 270.758,277.782 270.226 C 277.112 270.144,276.261 270.246,275.892 270.452 M283.200 270.400 C 283.200 270.620,283.650 270.800,284.200 270.800 C 284.750 270.800,285.200 270.620,285.200 270.400 C 285.200 270.180,284.750 270.000,284.200 270.000 C 283.650 270.000,283.200 270.180,283.200 270.400 M182.000 273.400 C 182.000 273.730,182.180 274.000,182.400 274.000 C 182.620 274.000,182.800 273.730,182.800 273.400 C 182.800 273.070,182.620 272.800,182.400 272.800 C 182.180 272.800,182.000 273.070,182.000 273.400 M182.800 277.400 C 182.800 277.730,182.980 278.000,183.200 278.000 C 183.420 278.000,183.600 277.730,183.600 277.400 C 183.600 277.070,183.420 276.800,183.200 276.800 C 182.980 276.800,182.800 277.070,182.800 277.400 M184.051 279.487 C 184.832 280.464,186.574 281.958,186.740 281.793 C 186.917 281.616,184.117 278.800,183.764 278.800 C 183.620 278.800,183.749 279.109,184.051 279.487 M188.200 282.800 C 188.982 283.664,189.600 283.841,189.600 283.200 C 189.600 282.980,189.330 282.800,189.000 282.800 C 188.670 282.800,188.400 282.620,188.400 282.400 C 188.400 282.180,188.192 282.000,187.938 282.000 C 187.676 282.000,187.789 282.346,188.200 282.800 M190.000 284.000 C 190.000 284.220,190.360 284.400,190.800 284.400 C 191.240 284.400,191.600 284.220,191.600 284.000 C 191.600 283.780,191.240 283.600,190.800 283.600 C 190.360 283.600,190.000 283.780,190.000 284.000 M194.828 287.200 C 197.666 289.927,198.400 290.421,198.400 289.600 C 198.400 289.380,198.202 289.200,197.961 289.200 C 197.720 289.200,196.491 288.120,195.231 286.800 C 193.971 285.480,192.710 284.400,192.428 284.400 C 192.146 284.400,193.226 285.660,194.828 287.200 M257.260 286.251 C 256.743 286.802,256.417 287.350,256.536 287.469 C 256.752 287.685,258.800 285.830,258.800 285.418 C 258.800 284.947,258.156 285.295,257.260 286.251 M255.300 288.998 C 254.557 289.842,254.694 290.073,255.600 289.507 C 256.040 289.232,256.400 288.871,256.400 288.704 C 256.400 288.227,255.849 288.375,255.300 288.998 M200.267 289.795 C 199.560 290.317,199.563 290.352,200.327 290.761 C 200.955 291.097,201.173 291.048,201.373 290.526 C 201.739 289.573,201.121 289.165,200.267 289.795 M252.930 292.711 C 251.565 293.579,251.458 317.956,252.784 325.800 C 253.473 329.875,253.745 336.999,253.282 338.872 C 251.717 345.213,252.823 354.109,254.905 351.928 C 256.291 350.476,257.133 341.700,255.956 340.973 C 255.755 340.849,255.600 331.365,255.600 319.200 C 255.600 305.263,255.459 297.560,255.200 297.400 C 254.980 297.264,254.800 296.443,254.800 295.576 C 254.800 294.709,254.620 294.000,254.400 294.000 C 254.180 294.000,254.000 293.640,254.000 293.200 C 254.000 292.355,253.703 292.220,252.930 292.711 M201.200 330.400 C 201.200 331.500,201.380 332.400,201.600 332.400 C 201.820 332.400,202.000 331.500,202.000 330.400 C 202.000 329.300,201.820 328.400,201.600 328.400 C 201.380 328.400,201.200 329.300,201.200 330.400 M202.000 334.800 C 202.000 335.240,202.180 335.600,202.400 335.600 C 202.620 335.600,202.800 335.960,202.800 336.400 C 202.800 336.840,202.950 337.200,203.132 337.200 C 203.315 337.200,203.720 337.695,204.032 338.300 C 204.978 340.132,206.400 341.153,206.400 340.000 C 206.400 339.780,206.160 339.600,205.868 339.600 C 205.575 339.600,205.080 339.105,204.768 338.500 C 204.456 337.895,204.111 337.310,204.001 337.200 C 203.523 336.724,202.800 335.161,202.800 334.605 C 202.800 334.272,202.620 334.000,202.400 334.000 C 202.180 334.000,202.000 334.360,202.000 334.800 M207.200 340.000 C 207.200 340.220,207.639 340.400,208.176 340.400 C 208.713 340.400,209.264 340.220,209.400 340.000 C 209.544 339.767,209.137 339.600,208.424 339.600 C 207.751 339.600,207.200 339.780,207.200 340.000 M216.400 341.600 C 216.400 341.820,216.760 342.000,217.200 342.000 C 217.640 342.000,218.000 341.820,218.000 341.600 C 218.000 341.380,217.640 341.200,217.200 341.200 C 216.760 341.200,216.400 341.380,216.400 341.600 M223.600 342.400 C 224.383 342.906,225.200 342.906,225.200 342.400 C 225.200 342.180,224.705 342.003,224.100 342.006 C 223.243 342.011,223.132 342.098,223.600 342.400 M229.400 344.800 C 229.536 345.020,230.087 345.200,230.624 345.200 C 231.161 345.200,231.600 345.020,231.600 344.800 C 231.600 344.580,231.049 344.400,230.376 344.400 C 229.663 344.400,229.256 344.567,229.400 344.800 M236.400 344.800 C 236.400 345.023,237.475 345.200,238.824 345.200 C 240.337 345.200,241.154 345.050,241.000 344.800 C 240.864 344.580,239.773 344.400,238.576 344.400 C 237.379 344.400,236.400 344.580,236.400 344.800 M243.293 346.800 C 243.762 347.551,244.400 347.880,244.400 347.371 C 244.400 347.073,243.325 346.000,243.025 346.000 C 242.898 346.000,243.018 346.360,243.293 346.800 M245.200 347.829 C 245.200 348.253,246.436 349.297,246.667 349.067 C 246.792 348.941,246.617 348.560,246.276 348.219 C 245.641 347.584,245.200 347.424,245.200 347.829 " stroke="none" fill="#f8f7f7" fill-rule="evenodd"></path><path id="path1" d="M202.554 75.600 C 202.554 78.350,202.618 79.475,202.696 78.100 C 202.774 76.725,202.774 74.475,202.696 73.100 C 202.618 71.725,202.554 72.850,202.554 75.600 M202.540 89.200 C 202.540 91.070,202.609 91.835,202.693 90.900 C 202.777 89.965,202.777 88.435,202.693 87.500 C 202.609 86.565,202.540 87.330,202.540 89.200 M202.509 108.400 C 202.509 109.390,202.587 109.795,202.682 109.300 C 202.778 108.805,202.778 107.995,202.682 107.500 C 202.587 107.005,202.509 107.410,202.509 108.400 M212.700 203.906 L 201.600 204.013 201.599 236.906 C 201.598 254.998,201.479 282.985,201.334 299.100 C 201.134 321.264,201.182 328.400,201.535 328.400 C 201.844 328.400,202.000 329.338,202.000 331.200 C 202.000 332.800,202.171 334.000,202.400 334.000 C 202.620 334.000,202.800 334.234,202.800 334.520 C 202.800 335.256,203.741 337.193,204.100 337.197 C 204.265 337.199,204.400 337.481,204.400 337.824 C 204.400 338.193,204.212 338.331,203.938 338.162 C 203.650 337.984,203.585 338.052,203.766 338.345 C 203.925 338.602,204.224 338.709,204.430 338.581 C 204.637 338.454,204.914 338.631,205.046 338.975 C 205.178 339.319,205.521 339.600,205.809 339.600 C 206.098 339.600,206.438 339.825,206.567 340.100 C 206.753 340.500,206.847 340.500,207.033 340.100 C 207.162 339.825,207.802 339.600,208.457 339.600 C 209.149 339.600,209.544 339.768,209.400 340.000 C 209.264 340.220,209.343 340.400,209.576 340.400 C 209.809 340.400,210.000 340.220,210.000 340.000 C 210.000 339.780,211.001 339.600,212.224 339.600 C 213.604 339.600,214.353 339.752,214.200 340.000 C 214.064 340.220,214.323 340.400,214.776 340.400 C 215.229 340.400,215.600 340.580,215.600 340.800 C 215.600 341.020,216.140 341.200,216.800 341.200 C 217.460 341.200,218.000 341.380,218.000 341.600 C 218.000 341.837,219.467 342.000,221.600 342.000 C 223.733 342.000,225.200 342.163,225.200 342.400 C 225.200 342.620,225.560 342.800,226.000 342.800 C 226.440 342.800,226.800 342.980,226.800 343.200 C 226.800 343.420,227.160 343.600,227.600 343.600 C 228.040 343.600,228.400 343.780,228.400 344.000 C 228.400 344.220,229.120 344.400,230.000 344.400 C 230.880 344.400,231.600 344.580,231.600 344.800 C 231.600 345.022,232.667 345.200,234.000 345.200 C 235.333 345.200,236.400 345.022,236.400 344.800 C 236.400 344.013,240.585 344.341,241.508 345.200 C 241.980 345.640,242.604 346.000,242.895 346.000 C 243.186 346.000,243.683 346.360,244.000 346.800 C 244.317 347.240,244.825 347.600,245.128 347.600 C 245.431 347.600,246.183 348.140,246.800 348.800 C 247.417 349.460,248.209 350.000,248.560 350.000 C 248.912 350.000,249.200 350.180,249.200 350.400 C 249.200 350.620,249.560 350.800,250.000 350.800 C 250.440 350.800,250.800 350.980,250.800 351.200 C 250.800 352.038,252.386 351.592,252.580 350.700 C 253.289 347.428,253.494 330.165,252.869 326.400 C 252.595 324.750,252.193 317.370,251.976 310.000 C 251.553 295.643,251.739 293.064,253.236 292.589 C 253.656 292.455,254.000 291.998,254.000 291.573 C 254.000 291.148,254.180 290.800,254.400 290.800 C 254.620 290.800,254.800 290.480,254.800 290.088 C 254.800 289.697,255.160 289.117,255.600 288.800 C 256.040 288.483,256.400 287.985,256.400 287.694 C 256.400 286.963,258.226 285.200,258.982 285.200 C 259.322 285.200,259.600 285.020,259.600 284.800 C 259.600 284.580,259.960 284.400,260.400 284.400 C 260.840 284.400,261.200 284.220,261.200 284.000 C 261.200 283.780,261.489 283.600,261.842 283.600 C 262.195 283.600,263.954 282.161,265.750 280.402 C 267.547 278.643,269.587 276.798,270.283 276.302 C 270.980 275.806,272.379 274.367,273.394 273.104 C 275.784 270.128,275.994 270.041,279.797 270.462 C 281.926 270.698,283.040 270.680,283.131 270.408 C 283.205 270.184,283.792 270.000,284.433 270.000 C 285.075 270.000,285.600 269.820,285.600 269.600 C 285.600 269.380,285.841 269.200,286.136 269.200 C 286.431 269.200,287.736 268.677,289.036 268.037 C 293.537 265.824,296.279 264.716,301.600 262.963 C 302.590 262.637,303.850 262.128,304.400 261.831 C 304.950 261.535,306.009 261.162,306.754 261.003 C 307.499 260.843,309.209 259.997,310.554 259.122 C 312.768 257.682,313.190 257.549,315.000 257.720 C 317.389 257.944,318.931 256.640,321.000 252.643 C 322.565 249.620,322.984 249.424,326.747 249.943 C 337.269 251.395,336.929 251.625,336.351 243.464 C 335.814 235.875,335.822 235.846,338.912 234.392 C 344.167 231.919,346.442 228.399,347.569 221.000 C 347.837 219.240,348.333 216.465,348.671 214.833 C 349.495 210.848,349.243 207.436,347.980 205.491 L 347.000 203.983 310.117 203.891 L 273.235 203.800 273.456 204.800 C 273.578 205.350,273.839 206.430,274.037 207.200 C 274.555 209.223,274.471 212.749,273.859 214.600 C 271.879 220.594,266.985 229.605,262.020 236.400 C 260.975 237.830,259.344 240.170,258.394 241.600 C 256.157 244.970,253.927 247.741,251.576 250.073 L 249.688 251.945 248.774 250.973 C 248.272 250.438,247.613 250.000,247.311 250.000 C 246.529 250.000,245.267 248.535,241.675 243.456 C 236.423 236.030,234.190 232.602,231.083 227.200 C 229.105 223.760,224.826 214.852,224.456 213.400 C 223.118 208.163,223.109 208.088,223.586 206.641 C 224.574 203.650,225.122 203.787,212.700 203.906 " stroke="none" fill="#f84352" fill-rule="evenodd"></path><path id="path2" d="M127.843 49.033 C 127.709 49.381,127.572 50.776,127.537 52.133 L 127.474 54.600 127.200 52.600 L 126.926 50.600 126.863 52.476 C 126.828 53.508,126.980 54.464,127.200 54.600 C 127.420 54.736,127.597 55.962,127.594 57.324 C 127.590 59.027,127.470 59.614,127.212 59.205 C 126.914 58.734,126.849 58.790,126.901 59.477 C 126.937 59.954,127.109 60.256,127.283 60.149 C 127.457 60.041,127.573 81.608,127.540 108.076 C 127.507 134.544,127.354 155.390,127.200 154.400 L 126.920 152.600 126.860 154.276 C 126.827 155.198,126.980 156.064,127.200 156.200 C 127.423 156.338,127.579 157.983,127.553 159.924 C 127.519 162.379,127.416 163.048,127.200 162.200 L 126.895 161.000 126.847 162.267 C 126.821 162.963,127.025 163.625,127.300 163.736 C 127.676 163.889,127.652 164.044,127.200 164.363 C 126.793 164.651,126.761 164.790,127.100 164.794 C 127.442 164.798,127.598 165.527,127.594 167.100 C 127.590 168.733,127.475 169.226,127.200 168.800 C 126.886 168.315,126.811 168.372,126.806 169.100 L 126.800 170.000 82.233 170.000 C 57.721 170.000,37.381 170.109,37.033 170.243 C 36.348 170.506,36.143 172.400,36.800 172.400 C 37.020 172.400,37.200 173.300,37.200 174.400 C 37.200 175.500,37.380 176.400,37.600 176.400 C 37.820 176.400,38.000 176.940,38.000 177.600 C 38.000 178.260,38.180 178.800,38.400 178.800 C 38.620 178.800,38.800 179.160,38.800 179.600 C 38.800 180.040,38.980 180.400,39.200 180.400 C 39.420 180.400,39.600 180.760,39.600 181.200 C 39.600 181.640,39.780 182.000,40.000 182.000 C 40.220 182.000,40.400 182.274,40.400 182.609 C 40.400 183.511,44.652 187.600,45.591 187.600 C 46.036 187.600,46.400 187.780,46.400 188.000 C 46.400 188.220,47.030 188.400,47.800 188.400 C 48.570 188.400,49.200 188.580,49.200 188.800 C 49.200 189.020,49.480 189.200,49.822 189.200 C 50.164 189.200,51.504 190.280,52.800 191.600 L 55.156 194.000 57.978 194.000 C 59.530 194.000,60.800 194.172,60.800 194.382 C 60.800 194.592,61.250 195.214,61.800 195.764 C 62.350 196.314,62.800 197.042,62.800 197.382 C 62.800 197.722,62.935 198.001,63.100 198.003 C 63.459 198.007,64.400 199.944,64.400 200.680 C 64.400 200.966,64.580 201.200,64.800 201.200 C 65.020 201.200,65.200 201.571,65.200 202.024 C 65.200 202.477,65.380 202.736,65.600 202.600 C 65.820 202.464,66.000 202.633,66.000 202.976 C 66.000 203.319,66.180 203.600,66.400 203.600 C 66.620 203.600,66.800 203.878,66.800 204.218 C 66.800 205.110,68.621 206.800,69.582 206.800 C 70.032 206.800,70.400 206.980,70.400 207.200 C 70.400 207.437,71.867 207.600,74.000 207.600 C 76.133 207.600,77.600 207.763,77.600 208.000 C 77.600 208.220,77.870 208.400,78.200 208.400 C 78.530 208.400,78.800 208.580,78.800 208.800 C 78.800 209.020,79.160 209.200,79.600 209.200 C 80.040 209.200,80.400 209.380,80.400 209.600 C 80.400 209.820,80.683 210.000,81.029 210.000 C 82.298 210.000,82.800 211.069,82.800 213.771 C 82.800 215.257,82.974 216.400,83.200 216.400 C 83.420 216.400,83.600 216.760,83.600 217.200 C 83.600 217.640,83.780 218.000,84.000 218.000 C 84.220 218.000,84.400 218.360,84.400 218.800 C 84.400 219.240,84.580 219.600,84.800 219.600 C 85.020 219.600,85.200 219.971,85.200 220.424 C 85.200 220.877,85.380 221.136,85.600 221.000 C 85.820 220.864,86.000 221.136,86.000 221.605 C 86.000 222.608,86.881 223.600,87.771 223.600 C 88.133 223.600,88.400 223.939,88.400 224.400 C 88.400 224.840,88.580 225.200,88.800 225.200 C 89.020 225.200,89.200 225.650,89.200 226.200 C 89.200 226.750,89.380 227.200,89.600 227.200 C 89.820 227.200,90.000 227.650,90.000 228.200 C 90.000 228.750,90.180 229.200,90.400 229.200 C 90.620 229.200,90.800 229.560,90.800 230.000 C 90.800 230.440,90.980 230.800,91.200 230.800 C 91.420 230.800,91.600 231.070,91.600 231.400 C 91.600 231.730,91.780 232.000,92.000 232.000 C 92.220 232.000,92.400 232.270,92.400 232.600 C 92.400 232.930,92.580 233.200,92.800 233.200 C 93.020 233.200,93.200 233.560,93.200 234.000 C 93.200 234.440,93.380 234.800,93.600 234.800 C 93.820 234.800,94.000 235.084,94.000 235.431 C 94.000 235.779,94.720 236.754,95.600 237.600 C 96.580 238.541,97.200 239.503,97.200 240.080 C 97.200 240.599,97.560 241.283,98.000 241.600 C 98.440 241.917,98.800 242.497,98.800 242.888 C 98.800 243.280,98.980 243.600,99.200 243.600 C 99.420 243.600,99.600 243.920,99.600 244.312 C 99.600 244.703,99.960 245.283,100.400 245.600 C 100.840 245.917,101.200 246.415,101.200 246.706 C 101.200 248.002,103.113 249.200,105.182 249.200 C 106.292 249.200,107.200 249.374,107.200 249.587 C 107.200 249.799,107.830 250.603,108.600 251.373 C 109.370 252.143,110.000 253.049,110.000 253.387 C 110.000 253.724,110.180 254.000,110.400 254.000 C 110.620 254.000,110.800 254.320,110.800 254.712 C 110.800 255.103,111.160 255.683,111.600 256.000 C 112.040 256.317,112.400 256.828,112.400 257.134 C 112.400 258.853,116.555 261.128,117.085 259.700 C 117.228 259.315,117.672 258.709,118.072 258.353 C 118.473 257.997,118.800 257.322,118.800 256.853 C 118.800 256.384,118.980 256.000,119.200 256.000 C 119.420 256.000,119.600 255.640,119.600 255.200 C 119.600 254.760,119.780 254.400,120.000 254.400 C 120.220 254.400,120.400 254.130,120.400 253.800 C 120.400 253.470,120.580 253.200,120.800 253.200 C 121.020 253.200,121.200 252.917,121.200 252.571 C 121.200 251.763,122.163 250.800,122.971 250.800 C 123.317 250.800,123.600 250.620,123.600 250.400 C 123.600 250.180,123.878 250.000,124.218 250.000 C 125.018 250.000,126.800 248.218,126.800 247.418 C 126.800 247.078,126.980 246.800,127.200 246.800 C 127.420 246.800,127.600 246.522,127.600 246.182 C 127.600 245.842,128.050 245.114,128.600 244.564 C 129.150 244.014,129.600 243.392,129.600 243.182 C 129.600 242.972,130.230 242.800,131.000 242.800 C 131.770 242.800,132.400 242.620,132.400 242.400 C 132.400 242.180,132.940 242.000,133.600 242.000 C 134.260 242.000,134.800 241.820,134.800 241.600 C 134.800 241.380,135.430 241.200,136.200 241.200 C 136.970 241.200,137.600 241.020,137.600 240.800 C 137.600 240.569,138.859 240.400,140.576 240.400 C 142.213 240.400,143.664 240.580,143.800 240.800 C 143.936 241.020,144.487 241.200,145.024 241.200 C 145.561 241.200,146.000 241.380,146.000 241.600 C 146.000 241.820,146.450 242.000,147.000 242.000 C 147.550 242.000,148.000 242.180,148.000 242.400 C 148.000 242.620,148.230 242.800,148.512 242.800 C 148.793 242.800,149.283 243.160,149.600 243.600 C 149.939 244.070,150.635 244.400,151.288 244.400 C 151.900 244.400,152.400 244.580,152.400 244.800 C 152.400 245.020,152.724 245.200,153.120 245.200 C 153.516 245.200,154.082 245.425,154.379 245.700 C 154.810 246.100,154.861 246.100,154.635 245.700 C 154.449 245.370,154.634 245.200,155.176 245.200 C 155.629 245.200,156.000 245.380,156.000 245.600 C 156.000 245.820,156.900 246.000,158.000 246.000 C 159.100 246.000,160.000 246.180,160.000 246.400 C 160.000 246.620,160.810 246.800,161.800 246.800 C 162.790 246.800,163.600 246.980,163.600 247.200 C 163.600 247.420,164.230 247.600,165.000 247.600 C 165.770 247.600,166.400 247.780,166.400 248.000 C 166.400 248.220,166.940 248.400,167.600 248.400 C 168.260 248.400,168.800 248.580,168.800 248.800 C 168.800 249.020,169.340 249.200,170.000 249.200 C 170.660 249.200,171.200 249.380,171.200 249.600 C 171.200 249.820,171.740 250.000,172.400 250.000 C 173.060 250.000,173.600 250.180,173.600 250.400 C 173.600 250.620,173.870 250.800,174.200 250.800 C 174.533 250.800,174.800 251.156,174.800 251.600 C 174.800 252.040,174.980 252.400,175.200 252.400 C 175.420 252.400,175.600 253.030,175.600 253.800 C 175.600 254.570,175.780 255.200,176.000 255.200 C 176.220 255.200,176.400 255.819,176.400 256.576 C 176.400 257.333,176.580 258.064,176.800 258.200 C 177.020 258.336,177.200 259.067,177.200 259.824 C 177.200 260.581,177.380 261.200,177.600 261.200 C 177.820 261.200,178.000 261.549,178.000 261.976 C 178.000 262.403,178.180 262.864,178.400 263.000 C 178.620 263.136,178.800 263.867,178.800 264.624 C 178.800 265.381,178.980 266.000,179.200 266.000 C 179.420 266.000,179.600 266.320,179.600 266.712 C 179.600 267.103,179.960 267.683,180.400 268.000 C 180.840 268.317,181.200 268.897,181.200 269.288 C 181.200 269.680,181.380 270.000,181.600 270.000 C 181.820 270.000,182.000 270.630,182.000 271.400 C 182.000 272.170,182.180 272.800,182.400 272.800 C 182.620 272.800,182.800 273.700,182.800 274.800 C 182.800 275.900,182.980 276.800,183.200 276.800 C 183.420 276.800,183.600 277.165,183.600 277.611 C 183.600 278.553,186.890 282.000,187.789 282.000 C 188.125 282.000,188.400 282.180,188.400 282.400 C 188.400 282.620,188.670 282.800,189.000 282.800 C 189.330 282.800,189.600 282.980,189.600 283.200 C 189.600 283.420,190.050 283.600,190.600 283.600 C 191.150 283.600,191.600 283.780,191.600 284.000 C 191.600 284.220,191.902 284.400,192.270 284.400 C 192.639 284.400,193.971 285.480,195.231 286.800 C 196.491 288.120,197.720 289.200,197.961 289.200 C 198.202 289.200,198.400 289.380,198.400 289.600 C 198.400 290.441,200.389 289.989,201.036 289.001 C 201.638 288.082,201.685 281.008,201.615 201.501 C 201.573 153.925,201.646 100.015,201.776 81.700 L 202.014 48.400 165.050 48.400 C 131.712 48.400,128.062 48.462,127.843 49.033 M126.975 93.200 C 126.975 99.030,127.031 101.415,127.099 98.500 C 127.167 95.585,127.167 90.815,127.099 87.900 C 127.031 84.985,126.975 87.370,126.975 93.200 M126.920 117.600 C 126.920 118.810,126.995 119.305,127.087 118.700 C 127.178 118.095,127.178 117.105,127.087 116.500 C 126.995 115.895,126.920 116.390,126.920 117.600 M126.969 131.600 C 126.969 136.110,127.027 137.955,127.098 135.700 C 127.170 133.445,127.170 129.755,127.098 127.500 C 127.027 125.245,126.969 127.090,126.969 131.600 M244.600 184.643 C 235.412 185.956,227.566 192.486,224.914 201.027 C 223.703 204.924,223.183 208.205,223.571 209.501 C 223.752 210.105,224.129 211.590,224.409 212.800 C 225.809 218.855,240.110 242.877,245.829 248.780 L 246.778 249.760 247.767 248.831 C 248.310 248.321,249.043 247.295,249.396 246.553 C 249.748 245.810,251.885 242.727,254.145 239.701 C 261.106 230.382,263.973 225.887,268.120 217.799 C 271.725 210.766,271.691 203.165,268.026 196.955 C 266.831 194.929,267.011 194.476,268.474 195.825 L 269.749 197.000 268.779 195.783 C 262.911 188.413,252.329 183.537,244.600 184.643 M251.600 194.895 C 261.121 197.804,264.609 210.612,257.662 217.154 C 251.135 223.301,243.472 223.397,237.083 217.411 C 227.088 208.046,238.206 190.803,251.600 194.895 M270.986 199.500 C 271.335 200.215,271.706 200.800,271.810 200.800 C 272.208 200.800,271.952 200.163,271.167 199.200 L 270.352 198.200 270.986 199.500 " stroke="none" fill="#0464c1" fill-rule="evenodd"></path><path id="path3" d="M267.216 195.077 C 267.207 195.340,267.572 196.184,268.026 196.955 C 271.691 203.165,271.725 210.766,268.120 217.799 C 263.964 225.905,261.109 230.377,254.087 239.779 C 251.795 242.847,249.770 245.752,249.587 246.234 C 249.404 246.717,248.683 247.761,247.985 248.556 C 247.171 249.483,246.922 250.000,247.289 250.000 C 247.603 250.000,248.272 250.438,248.774 250.973 L 249.688 251.945 251.576 250.073 C 253.927 247.741,256.157 244.970,258.394 241.600 C 259.344 240.170,260.975 237.830,262.020 236.400 C 266.827 229.821,272.085 220.147,273.954 214.440 C 275.048 211.103,274.214 206.016,271.759 201.042 C 270.275 198.035,267.251 194.065,267.216 195.077 " stroke="none" fill="#082d46" fill-rule="evenodd"></path></g></svg>