<svg id="svg" version="1.1" xmlns="http://www.w3.org/2000/svg" xmlns:xlink="http://www.w3.org/1999/xlink" width="400" height="400" viewBox="0, 0, 400,400"><g id="svgg"><path id="path0" d="M92.470 158.850 C 70.440 180.877,52.200 199.159,51.938 199.475 C 51.347 200.187,131.656 280.800,132.955 280.800 C 133.973 280.800,150.800 263.974,150.800 262.956 C 150.800 262.485,139.142 250.541,120.000 231.400 C 103.060 214.461,89.200 200.331,89.200 200.000 C 89.200 199.669,103.060 185.539,120.000 168.600 C 138.271 150.330,150.800 137.505,150.800 137.073 C 150.800 136.360,133.570 118.800,132.870 118.800 C 132.680 118.800,114.500 136.822,92.470 158.850 M257.700 127.844 C 253.025 132.567,249.200 136.740,249.200 137.117 C 249.200 137.494,263.060 151.661,280.000 168.600 C 296.940 185.539,310.800 199.699,310.800 200.068 C 310.800 200.436,296.940 214.601,280.000 231.546 C 263.060 248.490,249.200 262.639,249.200 262.988 C 249.200 263.842,266.268 280.800,267.128 280.800 C 268.550 280.800,348.607 200.134,347.970 199.342 C 345.386 196.132,267.805 119.387,267.084 119.328 C 266.420 119.274,264.086 121.392,257.700 127.844 M162.100 161.354 C 141.585 181.885,124.800 198.917,124.800 199.204 C 124.800 199.772,142.344 217.600,142.903 217.600 C 143.091 217.600,152.702 208.140,164.262 196.578 C 177.877 182.960,185.511 175.601,185.939 175.684 C 186.548 175.801,186.608 179.308,186.702 220.305 L 186.803 264.800 199.802 264.800 L 212.800 264.800 212.800 220.024 C 212.800 187.776,212.924 175.171,213.242 174.974 C 213.500 174.815,222.570 183.576,235.061 196.051 C 246.819 207.793,256.526 217.482,256.634 217.582 C 256.940 217.865,274.800 199.873,274.800 199.282 C 274.800 198.722,200.255 123.991,199.718 124.013 C 199.543 124.020,182.615 140.823,162.100 161.354 " stroke="none" fill="#2cace4" fill-rule="evenodd"></path><path id="path1" d="M166.399 84.632 C 148.250 102.800,133.040 117.818,132.600 118.007 C 131.866 118.321,131.883 118.351,132.797 118.375 C 133.929 118.403,151.600 135.717,151.600 136.798 C 151.600 137.130,137.650 151.351,120.600 168.400 C 103.550 185.449,89.600 199.669,89.600 200.000 C 89.600 200.331,103.550 214.551,120.600 231.600 C 137.650 248.649,151.600 262.867,151.600 263.196 C 151.600 263.980,133.988 281.600,133.204 281.600 C 132.873 281.600,114.331 263.375,92.000 241.100 L 51.398 200.600 92.399 241.551 C 114.949 264.074,148.379 297.464,166.686 315.751 L 199.972 349.000 233.886 315.222 C 308.136 241.270,348.001 201.477,348.461 200.854 C 348.727 200.494,330.596 218.515,308.171 240.900 C 285.746 263.285,267.127 281.600,266.796 281.600 C 266.012 281.600,248.400 263.980,248.400 263.196 C 248.400 262.867,262.350 248.649,279.400 231.600 C 296.450 214.551,310.400 200.331,310.400 200.000 C 310.400 199.669,296.450 185.449,279.400 168.400 C 262.350 151.351,248.400 137.130,248.400 136.798 C 248.400 136.014,266.018 118.400,266.802 118.400 C 267.129 118.400,276.579 127.535,287.801 138.700 L 308.205 159.000 287.571 138.400 C 231.675 82.595,200.372 51.600,199.909 51.600 C 199.628 51.600,184.549 66.464,166.399 84.632 M223.921 112.900 C 236.882 125.935,261.551 150.732,278.743 168.003 C 295.934 185.275,310.000 199.674,310.000 200.000 C 310.000 200.326,296.005 214.680,278.900 231.896 C 261.795 249.113,237.182 273.910,224.204 287.000 C 211.226 300.090,200.389 310.800,200.122 310.800 C 199.854 310.800,189.034 300.135,176.077 287.100 C 163.120 274.065,138.452 249.268,121.259 231.997 C 104.067 214.725,90.000 200.343,90.000 200.037 C 90.000 199.731,103.825 185.602,120.723 168.640 C 137.620 151.678,162.323 126.865,175.618 113.500 C 188.913 100.135,199.918 89.200,200.074 89.200 C 200.229 89.200,210.961 99.865,223.921 112.900 M161.699 160.901 C 140.965 181.636,124.000 198.693,124.000 198.805 C 124.000 198.917,140.984 182.022,161.743 161.260 C 197.838 125.159,199.527 123.531,200.443 123.977 C 201.351 124.420,201.360 124.412,200.624 123.822 C 200.196 123.480,199.746 123.200,199.623 123.200 C 199.499 123.200,182.434 140.165,161.699 160.901 M213.200 176.024 C 213.200 176.257,213.359 176.349,213.553 176.229 C 213.747 176.109,214.422 176.386,215.053 176.845 L 216.200 177.678 215.078 176.639 C 213.896 175.545,213.200 175.317,213.200 176.024 M164.399 197.100 L 143.400 218.200 164.401 197.300 C 175.952 185.805,185.536 176.400,185.700 176.400 C 185.863 176.400,186.042 196.335,186.098 220.700 L 186.200 265.000 199.400 265.008 L 212.600 265.016 199.502 264.903 L 186.403 264.789 186.302 220.528 C 186.235 191.388,186.063 176.221,185.799 176.133 C 185.578 176.059,175.948 185.494,164.399 197.100 M275.315 199.018 C 275.488 199.208,271.440 203.557,266.318 208.682 C 261.197 213.807,257.115 218.000,257.248 218.000 C 257.454 218.000,271.602 203.983,274.933 200.479 C 275.799 199.569,275.940 199.215,275.533 198.980 C 275.239 198.810,275.141 198.827,275.315 199.018 M126.200 202.000 C 127.059 202.880,127.852 203.600,127.962 203.600 C 128.072 203.600,127.459 202.880,126.600 202.000 C 125.741 201.120,124.948 200.400,124.838 200.400 C 124.728 200.400,125.341 201.120,126.200 202.000 M140.400 216.125 C 140.400 216.194,140.985 216.779,141.700 217.425 L 143.000 218.600 141.825 217.300 C 140.730 216.088,140.400 215.816,140.400 216.125 M254.400 216.125 C 254.400 216.194,254.985 216.779,255.700 217.425 L 257.000 218.600 255.825 217.300 C 254.730 216.088,254.400 215.816,254.400 216.125 " stroke="none" fill="#95d4f4" fill-rule="evenodd"></path><path id="path2" d="M0.000 200.000 L 0.000 400.000 200.000 400.000 L 400.000 400.000 400.000 200.000 L 400.000 0.000 200.000 0.000 L 0.000 0.000 0.000 200.000 M274.967 125.000 C 332.146 182.004,349.194 199.219,349.197 199.955 C 349.201 201.063,201.085 349.179,199.960 349.192 C 198.927 349.205,50.800 201.033,50.800 199.987 C 50.800 198.699,198.655 50.874,199.870 50.947 C 200.459 50.983,224.801 74.986,274.967 125.000 M145.080 144.855 C 115.006 175.026,90.400 199.841,90.400 200.000 C 90.400 200.382,199.715 310.014,200.087 310.006 C 200.244 310.003,211.224 299.099,224.487 285.775 C 237.749 272.451,262.325 247.783,279.100 230.956 C 295.875 214.129,309.600 200.215,309.600 200.036 C 309.600 199.675,200.330 89.984,199.980 89.994 C 199.859 89.997,175.154 114.685,145.080 144.855 M238.299 160.899 C 259.255 181.854,276.400 199.144,276.400 199.322 C 276.400 199.843,257.878 218.211,257.025 218.537 C 256.382 218.782,252.697 215.281,235.420 198.016 C 223.963 186.567,214.457 177.200,214.295 177.200 C 214.133 177.200,214.000 196.904,214.000 220.986 C 214.000 263.866,213.984 264.780,213.226 265.186 C 212.175 265.749,187.425 265.749,186.374 265.186 C 185.616 264.780,185.600 263.863,185.600 220.723 L 185.600 176.674 164.787 197.494 C 153.341 208.945,143.576 218.418,143.087 218.546 C 142.342 218.741,140.859 217.421,133.800 210.275 C 124.059 200.415,123.600 199.909,123.600 199.023 C 123.600 198.213,198.754 122.864,199.599 122.827 C 199.929 122.812,217.344 139.945,238.299 160.899 " stroke="none" fill="#fcfcfc" fill-rule="evenodd"></path><path id="path3" d="M91.700 159.006 C 69.425 181.310,51.200 199.703,51.200 199.879 C 51.200 200.477,132.595 281.600,133.196 281.600 C 133.981 281.600,151.600 263.987,151.600 263.202 C 151.600 262.870,137.650 248.649,120.600 231.600 C 103.550 214.551,89.600 200.331,89.600 200.000 C 89.600 199.669,103.550 185.449,120.600 168.400 C 137.650 151.351,151.600 137.130,151.600 136.798 C 151.600 135.841,133.933 118.395,132.997 118.427 C 132.491 118.444,117.382 133.290,91.700 159.006 M257.300 127.292 C 252.405 132.195,248.400 136.475,248.400 136.804 C 248.400 137.133,262.350 151.351,279.400 168.400 C 296.450 185.449,310.400 199.669,310.400 200.000 C 310.400 200.331,296.450 214.551,279.400 231.600 C 262.350 248.649,248.400 262.870,248.400 263.202 C 248.400 263.987,266.019 281.600,266.804 281.600 C 267.481 281.600,348.800 200.437,348.800 199.761 C 348.800 199.245,347.498 197.997,346.969 198.006 C 346.766 198.009,346.780 198.144,347.000 198.306 C 349.005 199.779,351.296 197.295,308.173 240.425 C 285.971 262.631,267.501 280.800,267.128 280.800 C 266.268 280.800,249.200 263.842,249.200 262.988 C 249.200 262.639,263.060 248.490,280.000 231.546 C 296.940 214.601,310.800 200.436,310.800 200.068 C 310.800 199.699,296.940 185.539,280.000 168.600 C 263.060 151.661,249.200 137.494,249.200 137.117 C 249.200 136.223,266.223 119.200,267.116 119.201 C 267.492 119.201,277.340 128.740,289.000 140.399 C 300.660 152.057,310.307 161.597,310.437 161.598 C 310.971 161.602,267.521 118.591,266.888 118.489 C 266.445 118.418,263.036 121.548,257.300 127.292 M142.008 127.572 C 147.040 132.593,150.800 136.656,150.800 137.073 C 150.800 137.505,138.271 150.330,120.000 168.600 C 103.060 185.539,89.200 199.669,89.200 200.000 C 89.200 200.331,103.060 214.461,120.000 231.400 C 139.142 250.541,150.800 262.485,150.800 262.956 C 150.800 263.974,133.973 280.800,132.955 280.800 C 131.656 280.800,51.347 200.187,51.938 199.475 C 53.334 197.793,132.579 118.800,132.870 118.800 C 133.060 118.800,137.172 122.747,142.008 127.572 M161.606 161.396 L 123.819 199.191 126.009 201.430 C 133.748 209.340,142.617 218.000,142.977 218.000 C 143.211 218.000,152.852 208.550,164.400 197.000 C 175.949 185.449,185.578 176.059,185.799 176.133 C 186.062 176.221,186.270 191.513,186.403 220.633 L 186.607 265.000 186.603 220.405 C 186.600 179.267,186.549 175.801,185.939 175.684 C 185.511 175.601,177.877 182.960,164.262 196.578 C 152.702 208.140,143.091 217.600,142.903 217.600 C 142.343 217.600,124.800 199.772,124.800 199.204 C 124.800 198.917,141.606 181.875,162.146 161.333 C 198.095 125.382,200.800 122.825,200.800 124.800 C 200.800 124.973,201.115 125.224,201.500 125.359 C 201.917 125.505,201.747 125.199,201.078 124.602 C 200.460 124.051,199.829 123.600,199.675 123.600 C 199.520 123.600,182.390 140.608,161.606 161.396 M202.800 126.800 C 203.307 127.240,203.813 127.600,203.923 127.600 C 204.034 127.600,203.798 127.240,203.400 126.800 C 203.002 126.360,202.496 126.000,202.277 126.000 C 202.057 126.000,202.293 126.360,202.800 126.800 M204.800 128.800 C 205.307 129.240,205.813 129.600,205.923 129.600 C 206.034 129.600,205.798 129.240,205.400 128.800 C 205.002 128.360,204.496 128.000,204.277 128.000 C 204.057 128.000,204.293 128.360,204.800 128.800 M206.800 130.800 C 207.307 131.240,207.813 131.600,207.923 131.600 C 208.034 131.600,207.798 131.240,207.400 130.800 C 207.002 130.360,206.496 130.000,206.277 130.000 C 206.057 130.000,206.293 130.360,206.800 130.800 M208.800 132.800 C 209.307 133.240,209.813 133.600,209.923 133.600 C 210.034 133.600,209.798 133.240,209.400 132.800 C 209.002 132.360,208.496 132.000,208.277 132.000 C 208.057 132.000,208.293 132.360,208.800 132.800 M210.800 134.800 C 211.307 135.240,211.813 135.600,211.923 135.600 C 212.034 135.600,211.798 135.240,211.400 134.800 C 211.002 134.360,210.496 134.000,210.277 134.000 C 210.057 134.000,210.293 134.360,210.800 134.800 M212.800 136.800 C 213.307 137.240,213.813 137.600,213.923 137.600 C 214.034 137.600,213.798 137.240,213.400 136.800 C 213.002 136.360,212.496 136.000,212.277 136.000 C 212.057 136.000,212.293 136.360,212.800 136.800 M214.800 138.800 C 215.307 139.240,215.813 139.600,215.923 139.600 C 216.034 139.600,215.798 139.240,215.400 138.800 C 215.002 138.360,214.496 138.000,214.277 138.000 C 214.057 138.000,214.293 138.360,214.800 138.800 M216.800 140.800 C 217.307 141.240,217.813 141.600,217.923 141.600 C 218.034 141.600,217.798 141.240,217.400 140.800 C 217.002 140.360,216.496 140.000,216.277 140.000 C 216.057 140.000,216.293 140.360,216.800 140.800 M218.800 142.800 C 219.307 143.240,219.813 143.600,219.923 143.600 C 220.034 143.600,219.798 143.240,219.400 142.800 C 219.002 142.360,218.496 142.000,218.277 142.000 C 218.057 142.000,218.293 142.360,218.800 142.800 M220.800 144.800 C 221.307 145.240,221.813 145.600,221.923 145.600 C 222.034 145.600,221.798 145.240,221.400 144.800 C 221.002 144.360,220.496 144.000,220.277 144.000 C 220.057 144.000,220.293 144.360,220.800 144.800 M222.800 146.800 C 223.307 147.240,223.813 147.600,223.923 147.600 C 224.034 147.600,223.798 147.240,223.400 146.800 C 223.002 146.360,222.496 146.000,222.277 146.000 C 222.057 146.000,222.293 146.360,222.800 146.800 M224.800 148.800 C 225.307 149.240,225.813 149.600,225.923 149.600 C 226.034 149.600,225.798 149.240,225.400 148.800 C 225.002 148.360,224.496 148.000,224.277 148.000 C 224.057 148.000,224.293 148.360,224.800 148.800 M226.800 150.800 C 227.307 151.240,227.813 151.600,227.923 151.600 C 228.034 151.600,227.798 151.240,227.400 150.800 C 227.002 150.360,226.496 150.000,226.277 150.000 C 226.057 150.000,226.293 150.360,226.800 150.800 M228.800 152.800 C 229.307 153.240,229.813 153.600,229.923 153.600 C 230.034 153.600,229.798 153.240,229.400 152.800 C 229.002 152.360,228.496 152.000,228.277 152.000 C 228.057 152.000,228.293 152.360,228.800 152.800 M230.800 154.800 C 231.307 155.240,231.813 155.600,231.923 155.600 C 232.034 155.600,231.798 155.240,231.400 154.800 C 231.002 154.360,230.496 154.000,230.277 154.000 C 230.057 154.000,230.293 154.360,230.800 154.800 M232.800 156.800 C 233.307 157.240,233.813 157.600,233.923 157.600 C 234.034 157.600,233.798 157.240,233.400 156.800 C 233.002 156.360,232.496 156.000,232.277 156.000 C 232.057 156.000,232.293 156.360,232.800 156.800 M234.800 158.800 C 235.307 159.240,235.813 159.600,235.923 159.600 C 236.034 159.600,235.798 159.240,235.400 158.800 C 235.002 158.360,234.496 158.000,234.277 158.000 C 234.057 158.000,234.293 158.360,234.800 158.800 M236.800 160.800 C 237.307 161.240,237.813 161.600,237.923 161.600 C 238.034 161.600,237.798 161.240,237.400 160.800 C 237.002 160.360,236.496 160.000,236.277 160.000 C 236.057 160.000,236.293 160.360,236.800 160.800 M238.800 162.800 C 239.307 163.240,239.813 163.600,239.923 163.600 C 240.034 163.600,239.798 163.240,239.400 162.800 C 239.002 162.360,238.496 162.000,238.277 162.000 C 238.057 162.000,238.293 162.360,238.800 162.800 M311.493 162.800 C 311.870 163.240,312.346 163.600,312.551 163.600 C 312.756 163.600,312.598 163.240,312.200 162.800 C 311.802 162.360,311.326 162.000,311.142 162.000 C 310.958 162.000,311.116 162.360,311.493 162.800 M240.800 164.800 C 241.307 165.240,241.813 165.600,241.923 165.600 C 242.034 165.600,241.798 165.240,241.400 164.800 C 241.002 164.360,240.496 164.000,240.277 164.000 C 240.057 164.000,240.293 164.360,240.800 164.800 M313.493 164.800 C 313.870 165.240,314.346 165.600,314.551 165.600 C 314.756 165.600,314.598 165.240,314.200 164.800 C 313.802 164.360,313.326 164.000,313.142 164.000 C 312.958 164.000,313.116 164.360,313.493 164.800 M242.800 166.800 C 243.307 167.240,243.813 167.600,243.923 167.600 C 244.034 167.600,243.798 167.240,243.400 166.800 C 243.002 166.360,242.496 166.000,242.277 166.000 C 242.057 166.000,242.293 166.360,242.800 166.800 M315.493 166.800 C 315.870 167.240,316.346 167.600,316.551 167.600 C 316.756 167.600,316.598 167.240,316.200 166.800 C 315.802 166.360,315.326 166.000,315.142 166.000 C 314.958 166.000,315.116 166.360,315.493 166.800 M244.800 168.800 C 245.307 169.240,245.813 169.600,245.923 169.600 C 246.034 169.600,245.798 169.240,245.400 168.800 C 245.002 168.360,244.496 168.000,244.277 168.000 C 244.057 168.000,244.293 168.360,244.800 168.800 M317.493 168.800 C 317.870 169.240,318.346 169.600,318.551 169.600 C 318.756 169.600,318.598 169.240,318.200 168.800 C 317.802 168.360,317.326 168.000,317.142 168.000 C 316.958 168.000,317.116 168.360,317.493 168.800 M246.800 170.800 C 247.307 171.240,247.813 171.600,247.923 171.600 C 248.034 171.600,247.798 171.240,247.400 170.800 C 247.002 170.360,246.496 170.000,246.277 170.000 C 246.057 170.000,246.293 170.360,246.800 170.800 M319.493 170.800 C 319.870 171.240,320.346 171.600,320.551 171.600 C 320.756 171.600,320.598 171.240,320.200 170.800 C 319.802 170.360,319.326 170.000,319.142 170.000 C 318.958 170.000,319.116 170.360,319.493 170.800 M248.800 172.800 C 249.307 173.240,249.813 173.600,249.923 173.600 C 250.034 173.600,249.798 173.240,249.400 172.800 C 249.002 172.360,248.496 172.000,248.277 172.000 C 248.057 172.000,248.293 172.360,248.800 172.800 M321.493 172.800 C 321.870 173.240,322.346 173.600,322.551 173.600 C 322.756 173.600,322.598 173.240,322.200 172.800 C 321.802 172.360,321.326 172.000,321.142 172.000 C 320.958 172.000,321.116 172.360,321.493 172.800 M250.800 174.800 C 251.307 175.240,251.813 175.600,251.923 175.600 C 252.034 175.600,251.798 175.240,251.400 174.800 C 251.002 174.360,250.496 174.000,250.277 174.000 C 250.057 174.000,250.293 174.360,250.800 174.800 M323.493 174.800 C 323.870 175.240,324.346 175.600,324.551 175.600 C 324.756 175.600,324.598 175.240,324.200 174.800 C 323.802 174.360,323.326 174.000,323.142 174.000 C 322.958 174.000,323.116 174.360,323.493 174.800 M212.984 175.300 C 212.880 175.575,212.841 195.870,212.899 220.400 L 213.004 265.000 213.102 220.300 C 213.175 187.043,213.317 175.600,213.658 175.600 C 213.910 175.600,223.165 184.645,234.224 195.700 C 245.283 206.755,254.892 216.334,255.577 216.986 L 256.822 218.171 266.187 208.813 C 275.500 199.506,276.727 197.873,274.286 198.032 C 273.920 198.055,273.923 198.113,274.300 198.265 C 275.535 198.763,274.245 200.361,265.799 208.801 L 256.798 217.795 235.513 196.598 C 223.806 184.939,214.161 175.265,214.080 175.100 C 213.850 174.629,213.194 174.749,212.984 175.300 M252.800 176.800 C 253.307 177.240,253.813 177.600,253.923 177.600 C 254.034 177.600,253.798 177.240,253.400 176.800 C 253.002 176.360,252.496 176.000,252.277 176.000 C 252.057 176.000,252.293 176.360,252.800 176.800 M325.493 176.800 C 325.870 177.240,326.346 177.600,326.551 177.600 C 326.756 177.600,326.598 177.240,326.200 176.800 C 325.802 176.360,325.326 176.000,325.142 176.000 C 324.958 176.000,325.116 176.360,325.493 176.800 M254.800 178.800 C 255.307 179.240,255.813 179.600,255.923 179.600 C 256.034 179.600,255.798 179.240,255.400 178.800 C 255.002 178.360,254.496 178.000,254.277 178.000 C 254.057 178.000,254.293 178.360,254.800 178.800 M327.493 178.800 C 327.870 179.240,328.346 179.600,328.551 179.600 C 328.756 179.600,328.598 179.240,328.200 178.800 C 327.802 178.360,327.326 178.000,327.142 178.000 C 326.958 178.000,327.116 178.360,327.493 178.800 M256.800 180.800 C 257.307 181.240,257.813 181.600,257.923 181.600 C 258.034 181.600,257.798 181.240,257.400 180.800 C 257.002 180.360,256.496 180.000,256.277 180.000 C 256.057 180.000,256.293 180.360,256.800 180.800 M329.493 180.800 C 329.870 181.240,330.346 181.600,330.551 181.600 C 330.756 181.600,330.598 181.240,330.200 180.800 C 329.802 180.360,329.326 180.000,329.142 180.000 C 328.958 180.000,329.116 180.360,329.493 180.800 M258.800 182.800 C 259.307 183.240,259.813 183.600,259.923 183.600 C 260.034 183.600,259.798 183.240,259.400 182.800 C 259.002 182.360,258.496 182.000,258.277 182.000 C 258.057 182.000,258.293 182.360,258.800 182.800 M331.493 182.800 C 331.870 183.240,332.346 183.600,332.551 183.600 C 332.756 183.600,332.598 183.240,332.200 182.800 C 331.802 182.360,331.326 182.000,331.142 182.000 C 330.958 182.000,331.116 182.360,331.493 182.800 M260.800 184.800 C 261.307 185.240,261.813 185.600,261.923 185.600 C 262.034 185.600,261.798 185.240,261.400 184.800 C 261.002 184.360,260.496 184.000,260.277 184.000 C 260.057 184.000,260.293 184.360,260.800 184.800 M333.493 184.800 C 333.870 185.240,334.346 185.600,334.551 185.600 C 334.756 185.600,334.598 185.240,334.200 184.800 C 333.802 184.360,333.326 184.000,333.142 184.000 C 332.958 184.000,333.116 184.360,333.493 184.800 M262.800 186.800 C 263.307 187.240,263.813 187.600,263.923 187.600 C 264.034 187.600,263.798 187.240,263.400 186.800 C 263.002 186.360,262.496 186.000,262.277 186.000 C 262.057 186.000,262.293 186.360,262.800 186.800 M335.493 186.800 C 335.870 187.240,336.346 187.600,336.551 187.600 C 336.756 187.600,336.598 187.240,336.200 186.800 C 335.802 186.360,335.326 186.000,335.142 186.000 C 334.958 186.000,335.116 186.360,335.493 186.800 M264.800 188.800 C 265.307 189.240,265.813 189.600,265.923 189.600 C 266.034 189.600,265.798 189.240,265.400 188.800 C 265.002 188.360,264.496 188.000,264.277 188.000 C 264.057 188.000,264.293 188.360,264.800 188.800 M337.493 188.800 C 337.870 189.240,338.346 189.600,338.551 189.600 C 338.756 189.600,338.598 189.240,338.200 188.800 C 337.802 188.360,337.326 188.000,337.142 188.000 C 336.958 188.000,337.116 188.360,337.493 188.800 M266.800 190.800 C 267.307 191.240,267.813 191.600,267.923 191.600 C 268.034 191.600,267.798 191.240,267.400 190.800 C 267.002 190.360,266.496 190.000,266.277 190.000 C 266.057 190.000,266.293 190.360,266.800 190.800 M339.493 190.800 C 339.870 191.240,340.346 191.600,340.551 191.600 C 340.756 191.600,340.598 191.240,340.200 190.800 C 339.802 190.360,339.326 190.000,339.142 190.000 C 338.958 190.000,339.116 190.360,339.493 190.800 M268.800 192.800 C 269.307 193.240,269.813 193.600,269.923 193.600 C 270.034 193.600,269.798 193.240,269.400 192.800 C 269.002 192.360,268.496 192.000,268.277 192.000 C 268.057 192.000,268.293 192.360,268.800 192.800 M341.493 192.800 C 341.870 193.240,342.346 193.600,342.551 193.600 C 342.756 193.600,342.598 193.240,342.200 192.800 C 341.802 192.360,341.326 192.000,341.142 192.000 C 340.958 192.000,341.116 192.360,341.493 192.800 M270.800 194.800 C 271.307 195.240,271.813 195.600,271.923 195.600 C 272.034 195.600,271.798 195.240,271.400 194.800 C 271.002 194.360,270.496 194.000,270.277 194.000 C 270.057 194.000,270.293 194.360,270.800 194.800 M343.493 194.800 C 343.870 195.240,344.346 195.600,344.551 195.600 C 344.756 195.600,344.598 195.240,344.200 194.800 C 343.802 194.360,343.326 194.000,343.142 194.000 C 342.958 194.000,343.116 194.360,343.493 194.800 M272.800 196.800 C 273.307 197.240,273.813 197.600,273.923 197.600 C 274.034 197.600,273.798 197.240,273.400 196.800 C 273.002 196.360,272.496 196.000,272.277 196.000 C 272.057 196.000,272.293 196.360,272.800 196.800 M345.493 196.800 C 345.870 197.240,346.346 197.600,346.551 197.600 C 346.756 197.600,346.598 197.240,346.200 196.800 C 345.802 196.360,345.326 196.000,345.142 196.000 C 344.958 196.000,345.116 196.360,345.493 196.800 " stroke="none" fill="#7cccec" fill-rule="evenodd"></path><path id="path4" d="M165.293 84.703 C 146.754 103.301,131.679 118.612,131.793 118.726 C 131.907 118.840,132.000 118.723,132.000 118.467 C 132.000 118.210,132.225 118.000,132.501 118.000 C 132.776 118.000,147.941 103.060,166.200 84.800 C 184.459 66.540,199.629 51.600,199.910 51.600 C 200.192 51.600,215.291 66.454,233.464 84.610 C 251.637 102.765,266.763 117.764,267.078 117.940 C 267.392 118.116,277.269 127.872,289.025 139.621 C 300.781 151.370,310.400 160.835,310.400 160.654 C 310.400 159.882,200.698 50.998,199.865 50.943 C 199.217 50.901,190.531 59.383,165.293 84.703 M175.618 113.500 C 162.323 126.865,137.620 151.678,120.723 168.640 C 103.825 185.602,90.000 199.731,90.000 200.037 C 90.000 200.343,104.067 214.725,121.259 231.997 C 138.452 249.268,163.120 274.065,176.077 287.100 C 189.034 300.135,199.854 310.800,200.122 310.800 C 200.389 310.800,211.226 300.090,224.204 287.000 C 237.182 273.910,261.795 249.113,278.900 231.896 C 296.005 214.680,310.000 200.326,310.000 200.000 C 310.000 199.674,295.934 185.275,278.743 168.003 C 261.551 150.732,236.882 125.935,223.921 112.900 C 210.961 99.865,200.229 89.200,200.074 89.200 C 199.918 89.200,188.913 100.135,175.618 113.500 M254.900 144.849 C 284.985 175.022,309.600 199.857,309.600 200.036 C 309.600 200.215,295.875 214.129,279.100 230.956 C 262.325 247.783,237.749 272.451,224.487 285.775 C 211.224 299.099,200.244 310.003,200.087 310.006 C 199.715 310.014,90.400 200.382,90.400 200.000 C 90.400 199.671,199.643 90.003,199.980 89.994 C 200.101 89.990,224.815 114.675,254.900 144.849 M161.273 160.633 C 123.272 198.686,122.212 199.822,124.310 200.239 C 124.591 200.294,124.636 200.249,124.410 200.137 C 124.185 200.025,124.000 199.633,124.000 199.266 C 124.000 198.594,199.091 123.200,199.760 123.200 C 199.957 123.200,217.221 140.304,238.125 161.209 L 276.132 199.219 274.966 200.445 C 271.222 204.383,257.459 217.984,257.067 218.133 C 256.810 218.231,247.018 208.752,235.306 197.070 C 220.974 182.774,213.879 175.961,213.607 176.233 C 213.342 176.498,213.169 191.753,213.102 220.818 L 213.000 265.000 199.800 265.208 L 186.600 265.416 199.526 265.508 C 207.849 265.567,212.728 265.453,213.226 265.186 C 213.984 264.780,214.000 263.866,214.000 220.986 C 214.000 196.904,214.133 177.200,214.295 177.200 C 214.457 177.200,223.963 186.567,235.420 198.016 C 252.697 215.281,256.382 218.782,257.025 218.537 C 257.878 218.211,276.400 199.843,276.400 199.322 C 276.400 198.703,200.195 122.800,199.599 122.827 C 199.270 122.841,182.023 139.854,161.273 160.633 M310.800 160.877 C 310.800 160.987,311.160 161.493,311.600 162.000 C 312.040 162.507,312.400 162.743,312.400 162.523 C 312.400 162.304,312.040 161.798,311.600 161.400 C 311.160 161.002,310.800 160.766,310.800 160.877 M312.800 162.877 C 312.800 162.987,313.160 163.493,313.600 164.000 C 314.040 164.507,314.400 164.743,314.400 164.523 C 314.400 164.304,314.040 163.798,313.600 163.400 C 313.160 163.002,312.800 162.766,312.800 162.877 M314.800 164.877 C 314.800 164.987,315.160 165.493,315.600 166.000 C 316.040 166.507,316.400 166.743,316.400 166.523 C 316.400 166.304,316.040 165.798,315.600 165.400 C 315.160 165.002,314.800 164.766,314.800 164.877 M316.800 166.877 C 316.800 166.987,317.160 167.493,317.600 168.000 C 318.040 168.507,318.400 168.743,318.400 168.523 C 318.400 168.304,318.040 167.798,317.600 167.400 C 317.160 167.002,316.800 166.766,316.800 166.877 M318.800 168.877 C 318.800 168.987,319.160 169.493,319.600 170.000 C 320.040 170.507,320.400 170.743,320.400 170.523 C 320.400 170.304,320.040 169.798,319.600 169.400 C 319.160 169.002,318.800 168.766,318.800 168.877 M320.800 170.877 C 320.800 170.987,321.160 171.493,321.600 172.000 C 322.040 172.507,322.400 172.743,322.400 172.523 C 322.400 172.304,322.040 171.798,321.600 171.400 C 321.160 171.002,320.800 170.766,320.800 170.877 M322.800 172.877 C 322.800 172.987,323.160 173.493,323.600 174.000 C 324.040 174.507,324.400 174.743,324.400 174.523 C 324.400 174.304,324.040 173.798,323.600 173.400 C 323.160 173.002,322.800 172.766,322.800 172.877 M324.800 174.877 C 324.800 174.987,325.160 175.493,325.600 176.000 C 326.040 176.507,326.400 176.743,326.400 176.523 C 326.400 176.304,326.040 175.798,325.600 175.400 C 325.160 175.002,324.800 174.766,324.800 174.877 M164.799 197.032 C 153.469 208.380,143.840 217.814,143.400 217.997 C 142.721 218.278,141.245 216.988,133.642 209.464 C 128.716 204.589,125.057 201.140,125.512 201.800 C 127.657 204.914,142.214 218.774,143.097 218.543 C 143.580 218.417,153.341 208.945,164.787 197.494 L 185.600 176.674 185.600 220.714 C 185.600 244.935,185.735 264.836,185.900 264.938 C 186.065 265.040,186.153 245.161,186.097 220.762 C 186.040 196.363,185.859 176.400,185.695 176.400 C 185.531 176.400,176.128 185.685,164.799 197.032 M326.800 176.877 C 326.800 176.987,327.160 177.493,327.600 178.000 C 328.040 178.507,328.400 178.743,328.400 178.523 C 328.400 178.304,328.040 177.798,327.600 177.400 C 327.160 177.002,326.800 176.766,326.800 176.877 M328.800 178.877 C 328.800 178.987,329.160 179.493,329.600 180.000 C 330.040 180.507,330.400 180.743,330.400 180.523 C 330.400 180.304,330.040 179.798,329.600 179.400 C 329.160 179.002,328.800 178.766,328.800 178.877 M330.800 180.877 C 330.800 180.987,331.160 181.493,331.600 182.000 C 332.040 182.507,332.400 182.743,332.400 182.523 C 332.400 182.304,332.040 181.798,331.600 181.400 C 331.160 181.002,330.800 180.766,330.800 180.877 M332.800 182.877 C 332.800 182.987,333.160 183.493,333.600 184.000 C 334.040 184.507,334.400 184.743,334.400 184.523 C 334.400 184.304,334.040 183.798,333.600 183.400 C 333.160 183.002,332.800 182.766,332.800 182.877 M334.800 184.877 C 334.800 184.987,335.160 185.493,335.600 186.000 C 336.040 186.507,336.400 186.743,336.400 186.523 C 336.400 186.304,336.040 185.798,335.600 185.400 C 335.160 185.002,334.800 184.766,334.800 184.877 M336.800 186.877 C 336.800 186.987,337.160 187.493,337.600 188.000 C 338.040 188.507,338.400 188.743,338.400 188.523 C 338.400 188.304,338.040 187.798,337.600 187.400 C 337.160 187.002,336.800 186.766,336.800 186.877 M338.800 188.877 C 338.800 188.987,339.160 189.493,339.600 190.000 C 340.040 190.507,340.400 190.743,340.400 190.523 C 340.400 190.304,340.040 189.798,339.600 189.400 C 339.160 189.002,338.800 188.766,338.800 188.877 M340.800 190.877 C 340.800 190.987,341.160 191.493,341.600 192.000 C 342.040 192.507,342.400 192.743,342.400 192.523 C 342.400 192.304,342.040 191.798,341.600 191.400 C 341.160 191.002,340.800 190.766,340.800 190.877 M342.800 192.877 C 342.800 192.987,343.160 193.493,343.600 194.000 C 344.040 194.507,344.400 194.743,344.400 194.523 C 344.400 194.304,344.040 193.798,343.600 193.400 C 343.160 193.002,342.800 192.766,342.800 192.877 M344.800 194.877 C 344.800 194.987,345.160 195.493,345.600 196.000 C 346.040 196.507,346.400 196.743,346.400 196.523 C 346.400 196.304,346.040 195.798,345.600 195.400 C 345.160 195.002,344.800 194.766,344.800 194.877 M346.800 196.877 C 346.800 196.987,347.160 197.493,347.600 198.000 C 348.040 198.507,348.400 198.743,348.400 198.523 C 348.400 198.304,348.040 197.798,347.600 197.400 C 347.160 197.002,346.800 196.766,346.800 196.877 M50.800 200.529 C 50.800 201.168,199.326 349.200,199.960 349.192 C 200.740 349.183,349.200 201.134,349.200 200.366 C 349.200 200.025,348.993 200.116,348.646 200.611 C 348.127 201.349,314.739 234.694,233.886 315.222 L 199.972 349.000 166.686 315.752 C 96.627 245.774,50.800 200.208,50.800 200.529 " stroke="none" fill="#d4f4fc" fill-rule="evenodd"></path></g></svg>