<?xml version="1.0" encoding="UTF-8" standalone="no"?>
<!DOCTYPE svg PUBLIC "-//W3C//DTD SVG 1.1//EN"
  "http://www.w3.org/Graphics/SVG/1.1/DTD/svg11.dtd">
<svg width="160" height="80"
     xmlns="http://www.w3.org/2000/svg" version="1.1">
 <path d="  M 0,0  L 0,80  L 160,80  L 160,0  Z  M 82,65  L 81,65  L 81,72  L 77,72  L 77,71  L 76,71  L 76,72  L 65,72  L 65,65  L 64,65  L 64,66  L 63,66  L 63,72  L 60,72  L 60,63  L 68,63  L 68,64  L 70,64  L 70,63  L 90,63  L 90,72  L 87,72  L 87,65  L 86,65  L 86,72  L 82,72  Z  M 55,30  L 55,31  L 56,31  L 56,32  L 57,32  L 57,34  L 58,34  L 58,35  L 59,35  L 59,36  L 60,36  L 60,37  L 62,37  L 62,38  L 66,38  L 66,37  L 68,37  L 68,36  L 70,36  L 70,34  L 71,34  L 71,32  L 72,32  L 72,28  L 71,28  L 71,26  L 70,26  L 70,24  L 68,24  L 68,23  L 66,23  L 66,22  L 62,22  L 62,23  L 60,23  L 60,24  L 59,24  L 59,25  L 58,25  L 58,27  L 57,27  L 57,28  L 56,28  L 56,29  L 53,29  L 53,11  L 54,11  L 54,9  L 55,9  L 55,7  L 56,7  L 56,6  L 58,6  L 58,5  L 100,5  L 100,6  L 102,6  L 102,7  L 103,7  L 103,9  L 104,9  L 104,11  L 105,11  L 105,49  L 104,49  L 104,52  L 103,52  L 103,53  L 102,53  L 102,54  L 100,54  L 100,55  L 58,55  L 58,54  L 56,54  L 56,53  L 55,53  L 55,52  L 54,52  L 54,49  L 53,49  L 53,31  L 54,31  L 54,30  Z  M 39,62  L 36,62  L 36,60  L 45,60  L 45,62  L 43,62  L 43,72  L 39,72  Z  M 45,63  L 58,63  L 58,64  L 59,64  L 59,72  L 51,72  L 51,67  L 52,67  L 52,66  L 55,66  L 55,65  L 49,65  L 49,72  L 45,72  Z  M 110,64  L 111,64  L 111,63  L 117,63  L 117,64  L 118,64  L 118,69  L 113,69  L 113,70  L 118,70  L 118,72  L 111,72  L 111,71  L 110,71  Z  M 119,60  L 122,60  L 122,72  L 119,72  Z  M 98,63  L 98,64  L 99,64  L 99,65  L 101,65  L 101,64  L 102,64  L 102,63  L 106,63  L 106,60  L 109,60  L 109,72  L 102,72  L 102,71  L 101,71  L 101,70  L 99,70  L 99,71  L 98,71  L 98,72  L 92,72  L 92,70  L 91,70  L 91,65  L 92,65  L 92,63  Z  " style="fill:rgb(0, 0, 0); fill-opacity:0.000; stroke:none;" />
 <path d="  M 56,68  L 54,68  L 54,70  L 55,70  L 55,69  L 56,69  Z  " style="fill:rgb(0, 0, 0); fill-opacity:0.000; stroke:none;" />
 <path d="  M 73,70  L 73,69  L 72,69  L 72,68  L 70,68  L 70,67  L 69,67  L 69,70  Z  " style="fill:rgb(0, 0, 0); fill-opacity:0.000; stroke:none;" />
 <path d="  M 73,65  L 73,66  L 75,66  L 75,67  L 76,67  L 76,68  L 77,68  L 77,65  Z  " style="fill:rgb(0, 0, 0); fill-opacity:0.000; stroke:none;" />
 <path d="  M 96,65  L 95,65  L 95,67  L 94,67  L 94,68  L 95,68  L 95,70  L 96,70  Z  " style="fill:rgb(0, 0, 0); fill-opacity:0.000; stroke:none;" />
 <path d="  M 104,70  L 106,70  L 106,65  L 104,65  Z  " style="fill:rgb(0, 0, 0); fill-opacity:0.000; stroke:none;" />
 <path d="  M 115,66  L 113,66  L 113,67  L 115,67  Z  " style="fill:rgb(0, 0, 0); fill-opacity:0.000; stroke:none;" />
 <path d="  M 36,60  L 36,62  L 37,62  L 37,60  Z  " style="fill:rgb(5, 73, 255); fill-opacity:0.600; stroke:none;" />
 <path d="  M 48,64  L 49,64  L 49,63  L 48,63  Z  " style="fill:rgb(5, 73, 255); fill-opacity:0.600; stroke:none;" />
 <path d="  M 49,66  L 49,65  L 48,65  L 48,66  Z  " style="fill:rgb(5, 73, 255); fill-opacity:0.600; stroke:none;" />
 <path d="  M 52,68  L 52,67  L 51,67  L 51,68  Z  " style="fill:rgb(5, 73, 255); fill-opacity:0.600; stroke:none;" />
 <path d="  M 52,71  L 52,70  L 51,70  L 51,71  Z  " style="fill:rgb(5, 73, 255); fill-opacity:0.600; stroke:none;" />
 <path d="  M 55,72  L 56,72  L 56,71  L 55,71  Z  " style="fill:rgb(5, 73, 255); fill-opacity:0.600; stroke:none;" />
 <path d="  M 61,64  L 60,64  L 60,71  L 61,71  Z  " style="fill:rgb(5, 73, 255); fill-opacity:0.600; stroke:none;" />
 <path d="  M 73,66  L 73,67  L 74,67  L 74,66  Z  " style="fill:rgb(5, 73, 255); fill-opacity:0.600; stroke:none;" />
 <path d="  M 81,66  L 80,66  L 80,71  L 81,71  Z  " style="fill:rgb(5, 73, 255); fill-opacity:0.600; stroke:none;" />
 <path d="  M 85,64  L 86,64  L 86,63  L 85,63  Z  " style="fill:rgb(5, 73, 255); fill-opacity:0.600; stroke:none;" />
 <path d="  M 88,66  L 87,66  L 87,72  L 88,72  Z  " style="fill:rgb(5, 73, 255); fill-opacity:0.600; stroke:none;" />
 <path d="  M 109,60  L 108,60  L 108,71  L 109,71  Z  " style="fill:rgb(5, 73, 255); fill-opacity:0.600; stroke:none;" />
 <path d="  M 116,66  L 115,66  L 115,67  L 116,67  Z  " style="fill:rgb(5, 73, 255); fill-opacity:0.600; stroke:none;" />
 <path d="  M 117,65  L 117,66  L 118,66  L 118,65  Z  " style="fill:rgb(5, 73, 255); fill-opacity:0.600; stroke:none;" />
 <path d="  M 117,71  L 118,71  L 118,70  L 117,70  Z  " style="fill:rgb(5, 73, 255); fill-opacity:0.600; stroke:none;" />
 <path d="  M 37,60  L 37,62  L 40,62  L 40,72  L 42,72  L 42,62  L 45,62  L 45,60  Z  " style="fill:rgb(6, 74, 255); fill-opacity:1.000; stroke:none;" />
 <path d="  M 48,72  L 48,65  L 50,65  L 50,64  L 48,64  L 48,63  L 46,63  L 46,72  Z  " style="fill:rgb(6, 74, 255); fill-opacity:1.000; stroke:none;" />
 <path d="  M 52,71  L 53,71  L 53,72  L 55,72  L 55,71  L 57,71  L 57,72  L 58,72  L 58,64  L 56,64  L 56,63  L 53,63  L 53,64  L 52,64  L 52,65  L 56,65  L 56,66  L 53,66  L 53,67  L 52,67  Z  M 53,68  L 56,68  L 56,70  L 53,70  Z  " style="fill:rgb(6, 74, 255); fill-opacity:1.000; stroke:none;" />
 <path d="  M 68,65  L 67,65  L 67,64  L 66,64  L 66,63  L 64,63  L 64,64  L 62,64  L 62,63  L 61,63  L 61,72  L 63,72  L 63,65  L 66,65  L 66,72  L 68,72  Z  " style="fill:rgb(6, 74, 255); fill-opacity:1.000; stroke:none;" />
 <path d="  M 74,68  L 74,70  L 70,70  L 70,71  L 71,71  L 71,72  L 74,72  L 74,71  L 76,71  L 76,68  L 75,68  L 75,67  L 73,67  L 73,66  L 72,66  L 72,65  L 76,65  L 76,64  L 75,64  L 75,63  L 72,63  L 72,64  L 70,64  L 70,66  L 71,66  L 71,67  L 72,67  L 72,68  Z  " style="fill:rgb(6, 74, 255); fill-opacity:1.000; stroke:none;" />
 <path d="  M 80,72  L 80,65  L 83,65  L 83,72  L 85,72  L 85,65  L 88,65  L 88,72  L 90,72  L 90,65  L 89,65  L 89,64  L 88,64  L 88,63  L 86,63  L 86,64  L 84,64  L 84,63  L 82,63  L 82,64  L 80,64  L 80,63  L 78,63  L 78,72  Z  " style="fill:rgb(6, 74, 255); fill-opacity:1.000; stroke:none;" />
 <path d="  M 97,65  L 97,70  L 94,70  L 94,65  Z  M 99,70  L 99,65  L 98,65  L 98,64  L 97,64  L 97,63  L 94,63  L 94,64  L 93,64  L 93,65  L 92,65  L 92,70  L 93,70  L 93,71  L 94,71  L 94,72  L 97,72  L 97,71  L 98,71  L 98,70  Z  " style="fill:rgb(6, 74, 255); fill-opacity:1.000; stroke:none;" />
 <path d="  M 108,60  L 106,60  L 106,63  L 103,63  L 103,64  L 102,64  L 102,65  L 101,65  L 101,70  L 102,70  L 102,71  L 103,71  L 103,72  L 107,72  L 107,71  L 108,71  Z  M 106,65  L 106,70  L 103,70  L 103,65  Z  " style="fill:rgb(6, 74, 255); fill-opacity:1.000; stroke:none;" />
 <path d="  M 110,69  L 111,69  L 111,71  L 113,71  L 113,72  L 116,72  L 116,71  L 117,71  L 117,70  L 112,70  L 112,69  L 118,69  L 118,67  L 117,67  L 117,65  L 116,65  L 116,64  L 115,64  L 115,63  L 113,63  L 113,64  L 111,64  L 111,66  L 110,66  Z  M 116,65  L 116,67  L 112,67  L 112,65  Z  " style="fill:rgb(6, 74, 255); fill-opacity:1.000; stroke:none;" />
 <path d="  M 120,72  L 122,72  L 122,60  L 120,60  Z  " style="fill:rgb(6, 74, 255); fill-opacity:1.000; stroke:none;" />
 <path d="  M 39,71  L 40,71  L 40,62  L 39,62  Z  " style="fill:rgb(5, 73, 255); fill-opacity:0.733; stroke:none;" />
 <path d="  M 51,63  L 50,63  L 50,65  L 51,65  Z  " style="fill:rgb(5, 73, 255); fill-opacity:0.733; stroke:none;" />
 <path d="  M 71,71  L 70,71  L 70,72  L 71,72  Z  " style="fill:rgb(5, 73, 255); fill-opacity:0.733; stroke:none;" />
 <path d="  M 80,65  L 80,66  L 81,66  L 81,65  Z  " style="fill:rgb(5, 73, 255); fill-opacity:0.733; stroke:none;" />
 <path d="  M 89,65  L 90,65  L 90,64  L 89,64  Z  " style="fill:rgb(5, 73, 255); fill-opacity:0.733; stroke:none;" />
 <path d="  M 99,65  L 99,64  L 98,64  L 98,65  Z  " style="fill:rgb(5, 73, 255); fill-opacity:0.733; stroke:none;" />
 <path d="  M 98,70  L 98,71  L 99,71  L 99,70  Z  " style="fill:rgb(5, 73, 255); fill-opacity:0.733; stroke:none;" />
 <path d="  M 115,63  L 115,64  L 116,64  L 116,63  Z  " style="fill:rgb(5, 73, 255); fill-opacity:0.733; stroke:none;" />
 <path d="  M 39,71  L 39,72  L 40,72  L 40,71  Z  " style="fill:rgb(6, 73, 255); fill-opacity:0.667; stroke:none;" />
 <path d="  M 53,71  L 52,71  L 52,72  L 53,72  Z  " style="fill:rgb(6, 73, 255); fill-opacity:0.667; stroke:none;" />
 <path d="  M 53,69  L 53,70  L 54,70  L 54,69  Z  " style="fill:rgb(6, 73, 255); fill-opacity:0.667; stroke:none;" />
 <path d="  M 75,64  L 76,64  L 76,63  L 75,63  Z  " style="fill:rgb(6, 73, 255); fill-opacity:0.667; stroke:none;" />
 <path d="  M 81,63  L 80,63  L 80,64  L 81,64  Z  " style="fill:rgb(6, 73, 255); fill-opacity:0.667; stroke:none;" />
 <path d="  M 88,65  L 87,65  L 87,66  L 88,66  Z  " style="fill:rgb(6, 73, 255); fill-opacity:0.667; stroke:none;" />
 <path d="  M 101,65  L 102,65  L 102,64  L 101,64  Z  " style="fill:rgb(6, 73, 255); fill-opacity:0.667; stroke:none;" />
 <path d="  M 102,70  L 101,70  L 101,71  L 102,71  Z  " style="fill:rgb(6, 73, 255); fill-opacity:0.667; stroke:none;" />
 <path d="  M 104,69  L 103,69  L 103,70  L 104,70  Z  " style="fill:rgb(6, 73, 255); fill-opacity:0.667; stroke:none;" />
 <path d="  M 108,71  L 107,71  L 107,72  L 108,72  Z  " style="fill:rgb(6, 73, 255); fill-opacity:0.667; stroke:none;" />
 <path d="  M 43,62  L 42,62  L 42,71  L 43,71  Z  " style="fill:rgb(0, 75, 255); fill-opacity:0.133; stroke:none;" />
 <path d="  M 52,64  L 52,63  L 51,63  L 51,64  Z  " style="fill:rgb(0, 75, 255); fill-opacity:0.133; stroke:none;" />
 <path d="  M 56,70  L 56,69  L 55,69  L 55,70  Z  " style="fill:rgb(0, 75, 255); fill-opacity:0.133; stroke:none;" />
 <path d="  M 59,64  L 58,64  L 58,65  L 59,65  Z  " style="fill:rgb(0, 75, 255); fill-opacity:0.133; stroke:none;" />
 <path d="  M 69,72  L 70,72  L 70,71  L 69,71  Z  " style="fill:rgb(0, 75, 255); fill-opacity:0.133; stroke:none;" />
 <path d="  M 77,70  L 76,70  L 76,71  L 78,71  L 78,64  L 76,64  L 76,65  L 77,65  Z  " style="fill:rgb(0, 75, 255); fill-opacity:0.133; stroke:none;" />
 <path d="  M 96,69  L 97,69  L 97,66  L 96,66  Z  " style="fill:rgb(0, 75, 255); fill-opacity:0.133; stroke:none;" />
 <path d="  M 113,65  L 113,66  L 115,66  L 115,65  Z  " style="fill:rgb(0, 75, 255); fill-opacity:0.133; stroke:none;" />
 <path d="  M 117,65  L 118,65  L 118,64  L 117,64  Z  " style="fill:rgb(0, 75, 255); fill-opacity:0.133; stroke:none;" />
 <path d="  M 42,71  L 42,72  L 43,72  L 43,71  Z  " style="fill:rgb(0, 75, 255); fill-opacity:0.067; stroke:none;" />
 <path d="  M 52,71  L 51,71  L 51,72  L 52,72  Z  " style="fill:rgb(0, 75, 255); fill-opacity:0.067; stroke:none;" />
 <path d="  M 54,15  L 54,14  L 53,14  L 53,15  Z  " style="fill:rgb(0, 75, 255); fill-opacity:0.067; stroke:none;" />
 <path d="  M 68,65  L 69,65  L 69,64  L 68,64  Z  " style="fill:rgb(0, 75, 255); fill-opacity:0.067; stroke:none;" />
 <path d="  M 69,66  L 69,67  L 70,67  L 70,66  Z  " style="fill:rgb(0, 75, 255); fill-opacity:0.067; stroke:none;" />
 <path d="  M 75,66  L 74,66  L 74,67  L 75,67  Z  " style="fill:rgb(0, 75, 255); fill-opacity:0.067; stroke:none;" />
 <path d="  M 76,64  L 78,64  L 78,63  L 76,63  Z  " style="fill:rgb(0, 75, 255); fill-opacity:0.067; stroke:none;" />
 <path d="  M 78,71  L 77,71  L 77,72  L 78,72  Z  " style="fill:rgb(0, 75, 255); fill-opacity:0.067; stroke:none;" />
 <path d="  M 93,64  L 93,63  L 92,63  L 92,64  Z  " style="fill:rgb(0, 75, 255); fill-opacity:0.067; stroke:none;" />
 <path d="  M 92,71  L 92,72  L 93,72  L 93,71  Z  " style="fill:rgb(0, 75, 255); fill-opacity:0.067; stroke:none;" />
 <path d="  M 94,67  L 95,67  L 95,66  L 94,66  Z  " style="fill:rgb(0, 75, 255); fill-opacity:0.067; stroke:none;" />
 <path d="  M 95,69  L 95,68  L 94,68  L 94,69  Z  " style="fill:rgb(0, 75, 255); fill-opacity:0.067; stroke:none;" />
 <path d="  M 46,63  L 45,63  L 45,72  L 46,72  Z  " style="fill:rgb(3, 71, 255); fill-opacity:0.267; stroke:none;" />
 <path d="  M 48,72  L 49,72  L 49,66  L 48,66  Z  " style="fill:rgb(3, 71, 255); fill-opacity:0.267; stroke:none;" />
 <path d="  M 51,65  L 52,65  L 52,64  L 51,64  Z  " style="fill:rgb(3, 71, 255); fill-opacity:0.267; stroke:none;" />
 <path d="  M 57,64  L 58,64  L 58,63  L 57,63  Z  " style="fill:rgb(3, 71, 255); fill-opacity:0.267; stroke:none;" />
 <path d="  M 66,66  L 65,66  L 65,72  L 66,72  Z  " style="fill:rgb(3, 71, 255); fill-opacity:0.267; stroke:none;" />
 <path d="  M 68,64  L 68,63  L 67,63  L 67,64  Z  " style="fill:rgb(3, 71, 255); fill-opacity:0.267; stroke:none;" />
 <path d="  M 68,66  L 69,66  L 69,65  L 68,65  Z  " style="fill:rgb(3, 71, 255); fill-opacity:0.267; stroke:none;" />
 <path d="  M 69,70  L 69,71  L 70,71  L 70,70  Z  " style="fill:rgb(3, 71, 255); fill-opacity:0.267; stroke:none;" />
 <path d="  M 70,67  L 70,68  L 71,68  L 71,67  Z  " style="fill:rgb(3, 71, 255); fill-opacity:0.267; stroke:none;" />
 <path d="  M 76,71  L 75,71  L 75,72  L 76,72  Z  " style="fill:rgb(3, 71, 255); fill-opacity:0.267; stroke:none;" />
 <path d="  M 85,72  L 86,72  L 86,65  L 85,65  Z  " style="fill:rgb(3, 71, 255); fill-opacity:0.267; stroke:none;" />
 <path d="  M 100,66  L 100,65  L 99,65  L 99,66  Z  " style="fill:rgb(3, 71, 255); fill-opacity:0.267; stroke:none;" />
 <path d="  M 99,69  L 99,70  L 100,70  L 100,69  Z  " style="fill:rgb(3, 71, 255); fill-opacity:0.267; stroke:none;" />
 <path d="  M 103,67  L 103,68  L 104,68  L 104,67  Z  " style="fill:rgb(3, 71, 255); fill-opacity:0.267; stroke:none;" />
 <path d="  M 50,63  L 49,63  L 49,64  L 50,64  Z  " style="fill:rgb(5, 74, 255); fill-opacity:0.933; stroke:none;" />
 <path d="  M 56,72  L 57,72  L 57,71  L 56,71  Z  " style="fill:rgb(5, 74, 255); fill-opacity:0.933; stroke:none;" />
 <path d="  M 66,63  L 66,64  L 67,64  L 67,63  Z  " style="fill:rgb(5, 74, 255); fill-opacity:0.933; stroke:none;" />
 <path d="  M 67,65  L 68,65  L 68,64  L 67,64  Z  " style="fill:rgb(5, 74, 255); fill-opacity:0.933; stroke:none;" />
 <path d="  M 71,66  L 70,66  L 70,67  L 71,67  Z  " style="fill:rgb(5, 74, 255); fill-opacity:0.933; stroke:none;" />
 <path d="  M 72,63  L 71,63  L 71,64  L 72,64  Z  " style="fill:rgb(5, 74, 255); fill-opacity:0.933; stroke:none;" />
 <path d="  M 73,68  L 73,69  L 74,69  L 74,68  Z  " style="fill:rgb(5, 74, 255); fill-opacity:0.933; stroke:none;" />
 <path d="  M 116,65  L 115,65  L 115,66  L 116,66  Z  " style="fill:rgb(5, 74, 255); fill-opacity:0.933; stroke:none;" />
 <path d="  M 116,64  L 116,65  L 117,65  L 117,64  Z  " style="fill:rgb(5, 74, 255); fill-opacity:0.933; stroke:none;" />
 <path d="  M 52,68  L 51,68  L 51,70  L 52,70  Z  " style="fill:rgb(5, 74, 255); fill-opacity:0.867; stroke:none;" />
 <path d="  M 52,63  L 52,64  L 53,64  L 53,63  Z  " style="fill:rgb(5, 74, 255); fill-opacity:0.867; stroke:none;" />
 <path d="  M 53,69  L 54,69  L 54,68  L 53,68  Z  " style="fill:rgb(5, 74, 255); fill-opacity:0.867; stroke:none;" />
 <path d="  M 63,63  L 62,63  L 62,64  L 63,64  Z  " style="fill:rgb(5, 74, 255); fill-opacity:0.867; stroke:none;" />
 <path d="  M 72,67  L 71,67  L 71,68  L 72,68  Z  " style="fill:rgb(5, 74, 255); fill-opacity:0.867; stroke:none;" />
 <path d="  M 112,66  L 113,66  L 113,65  L 112,65  Z  " style="fill:rgb(5, 74, 255); fill-opacity:0.867; stroke:none;" />
 <path d="  M 116,71  L 116,72  L 117,72  L 117,71  Z  " style="fill:rgb(5, 74, 255); fill-opacity:0.867; stroke:none;" />
 <path d="  M 118,67  L 118,66  L 117,66  L 117,67  Z  " style="fill:rgb(5, 74, 255); fill-opacity:0.867; stroke:none;" />
 <path d="  M 53,67  L 53,66  L 52,66  L 52,67  Z  " style="fill:rgb(4, 73, 255); fill-opacity:0.467; stroke:none;" />
 <path d="  M 58,72  L 59,72  L 59,65  L 58,65  Z  " style="fill:rgb(4, 73, 255); fill-opacity:0.467; stroke:none;" />
 <path d="  M 66,65  L 65,65  L 65,66  L 66,66  Z  " style="fill:rgb(4, 73, 255); fill-opacity:0.467; stroke:none;" />
 <path d="  M 72,66  L 73,66  L 73,65  L 72,65  Z  " style="fill:rgb(4, 73, 255); fill-opacity:0.467; stroke:none;" />
 <path d="  M 83,65  L 82,65  L 82,66  L 83,66  Z  " style="fill:rgb(4, 73, 255); fill-opacity:0.467; stroke:none;" />
 <path d="  M 85,64  L 85,63  L 84,63  L 84,64  Z  " style="fill:rgb(4, 73, 255); fill-opacity:0.467; stroke:none;" />
 <path d="  M 91,69  L 92,69  L 92,66  L 91,66  Z  " style="fill:rgb(4, 73, 255); fill-opacity:0.467; stroke:none;" />
 <path d="  M 95,65  L 94,65  L 94,66  L 95,66  Z  " style="fill:rgb(4, 73, 255); fill-opacity:0.467; stroke:none;" />
 <path d="  M 94,70  L 95,70  L 95,69  L 94,69  Z  " style="fill:rgb(4, 73, 255); fill-opacity:0.467; stroke:none;" />
 <path d="  M 96,65  L 96,66  L 97,66  L 97,65  Z  " style="fill:rgb(4, 73, 255); fill-opacity:0.467; stroke:none;" />
 <path d="  M 99,69  L 100,69  L 100,66  L 99,66  Z  " style="fill:rgb(4, 73, 255); fill-opacity:0.467; stroke:none;" />
 <path d="  M 102,64  L 103,64  L 103,63  L 102,63  Z  " style="fill:rgb(4, 73, 255); fill-opacity:0.467; stroke:none;" />
 <path d="  M 102,71  L 102,72  L 103,72  L 103,71  Z  " style="fill:rgb(4, 73, 255); fill-opacity:0.467; stroke:none;" />
 <path d="  M 120,60  L 119,60  L 119,72  L 120,72  Z  " style="fill:rgb(4, 73, 255); fill-opacity:0.467; stroke:none;" />
 <path d="  M 53,12  L 54,12  L 54,11  L 53,11  Z  " style="fill:rgb(0, 0, 255); fill-opacity:0.008; stroke:none;" />
 <path d="  M 72,28  L 72,27  L 71,27  L 71,28  Z  " style="fill:rgb(0, 0, 255); fill-opacity:0.008; stroke:none;" />
 <path d="  M 53,12  L 53,13  L 54,13  L 54,12  Z  " style="fill:rgb(0, 76, 255); fill-opacity:0.039; stroke:none;" />
 <path d="  M 54,14  L 54,13  L 53,13  L 53,14  Z  " style="fill:rgb(0, 68, 255); fill-opacity:0.059; stroke:none;" />
 <path d="  M 54,15  L 53,15  L 53,19  L 54,19  Z  " style="fill:rgb(0, 71, 255); fill-opacity:0.071; stroke:none;" />
 <path d="  M 54,19  L 53,19  L 53,20  L 54,20  Z  " style="fill:rgb(0, 67, 255); fill-opacity:0.075; stroke:none;" />
 <path d="  M 53,20  L 53,28  L 54,28  L 54,20  Z  " style="fill:rgb(0, 69, 255); fill-opacity:0.086; stroke:none;" />
 <path d="  M 54,28  L 53,28  L 53,29  L 54,29  Z  " style="fill:rgb(0, 78, 255); fill-opacity:0.051; stroke:none;" />
 <path d="  M 53,32  L 54,32  L 54,31  L 53,31  Z  " style="fill:rgb(85, 170, 255); fill-opacity:0.082; stroke:none;" />
 <path d="  M 103,53  L 103,52  L 102,52  L 102,53  Z  " style="fill:rgb(85, 170, 255); fill-opacity:0.082; stroke:none;" />
 <path d="  M 53,32  L 53,47  L 54,47  L 54,32  Z  " style="fill:rgb(93, 174, 255); fill-opacity:0.086; stroke:none;" />
 <path d="  M 53,47  L 53,48  L 54,48  L 54,47  Z  " style="fill:rgb(89, 179, 255); fill-opacity:0.078; stroke:none;" />
 <path d="  M 53,49  L 54,49  L 54,48  L 53,48  Z  " style="fill:rgb(76, 179, 255); fill-opacity:0.039; stroke:none;" />
 <path d="  M 55,9  L 54,9  L 54,10  L 55,10  Z  " style="fill:rgb(3, 71, 255); fill-opacity:0.251; stroke:none;" />
 <path d="  M 55,10  L 54,10  L 54,11  L 55,11  Z  " style="fill:rgb(5, 74, 254); fill-opacity:0.690; stroke:none;" />
 <path d="  M 64,21  L 64,22  L 65,22  L 65,21  Z  " style="fill:rgb(5, 74, 254); fill-opacity:0.690; stroke:none;" />
 <path d="  M 55,12  L 55,11  L 54,11  L 54,12  Z  " style="fill:rgb(5, 73, 254); fill-opacity:0.980; stroke:none;" />
 <path d="  M 100,7  L 100,6  L 99,6  L 99,7  Z  " style="fill:rgb(5, 73, 254); fill-opacity:0.980; stroke:none;" />
 <path d="  M 73,54  L 85,54  L 85,27  L 86,27  L 86,25  L 87,25  L 87,24  L 88,24  L 88,23  L 89,23  L 89,22  L 91,22  L 91,21  L 96,21  L 96,22  L 98,22  L 98,23  L 100,23  L 100,24  L 101,24  L 101,26  L 102,26  L 102,27  L 103,27  L 103,28  L 104,28  L 104,12  L 103,12  L 103,10  L 102,10  L 102,8  L 101,8  L 101,7  L 99,7  L 99,6  L 96,6  L 96,5  L 62,5  L 62,6  L 59,6  L 59,7  L 57,7  L 57,8  L 56,8  L 56,9  L 55,9  L 55,12  L 54,12  L 54,28  L 55,28  L 55,27  L 56,27  L 56,26  L 57,26  L 57,24  L 58,24  L 58,23  L 59,23  L 59,22  L 62,22  L 62,21  L 67,21  L 67,22  L 69,22  L 69,23  L 70,23  L 70,24  L 71,24  L 71,25  L 72,25  L 72,27  L 73,27  Z  " style="fill:rgb(6, 74, 254); fill-opacity:1.000; stroke:none;" />
 <path d="  M 55,29  L 55,28  L 54,28  L 54,29  Z  " style="fill:rgb(5, 72, 254); fill-opacity:0.565; stroke:none;" />
 <path d="  M 57,6  L 57,7  L 58,7  L 58,6  Z  " style="fill:rgb(5, 72, 254); fill-opacity:0.565; stroke:none;" />
 <path d="  M 54,31  L 55,31  L 55,30  L 54,30  Z  " style="fill:rgb(0, 255, 255); fill-opacity:0.004; stroke:none;" />
 <path d="  M 71,33  L 72,33  L 72,32  L 71,32  Z  " style="fill:rgb(0, 255, 255); fill-opacity:0.004; stroke:none;" />
 <path d="  M 104,51  L 103,51  L 103,52  L 104,52  Z  " style="fill:rgb(0, 255, 255); fill-opacity:0.004; stroke:none;" />
 <path d="  M 55,31  L 54,31  L 54,32  L 55,32  Z  " style="fill:rgb(91, 172, 254); fill-opacity:0.890; stroke:none;" />
 <path d="  M 54,49  L 55,49  L 55,51  L 56,51  L 56,52  L 57,52  L 57,53  L 59,53  L 59,54  L 72,54  L 72,35  L 71,35  L 71,36  L 70,36  L 70,37  L 69,37  L 69,38  L 67,38  L 67,39  L 62,39  L 62,38  L 59,38  L 59,37  L 58,37  L 58,36  L 57,36  L 57,34  L 56,34  L 56,32  L 54,32  Z  " style="fill:rgb(91, 172, 254); fill-opacity:1.000; stroke:none;" />
 <path d="  M 86,54  L 88,54  L 88,55  L 97,55  L 97,54  L 100,54  L 100,53  L 101,53  L 101,52  L 102,52  L 102,51  L 103,51  L 103,48  L 104,48  L 104,29  L 102,29  L 102,28  L 101,28  L 101,27  L 100,27  L 100,25  L 99,25  L 99,24  L 98,24  L 98,23  L 96,23  L 96,22  L 92,22  L 92,23  L 90,23  L 90,24  L 88,24  L 88,25  L 87,25  L 87,27  L 86,27  Z  " style="fill:rgb(91, 172, 254); fill-opacity:1.000; stroke:none;" />
 <path d="  M 54,50  L 55,50  L 55,49  L 54,49  Z  " style="fill:rgb(90, 171, 254); fill-opacity:0.894; stroke:none;" />
 <path d="  M 58,37  L 59,37  L 59,36  L 58,36  Z  " style="fill:rgb(90, 171, 254); fill-opacity:0.894; stroke:none;" />
 <path d="  M 62,54  L 61,54  L 61,55  L 62,55  Z  " style="fill:rgb(90, 171, 254); fill-opacity:0.894; stroke:none;" />
 <path d="  M 54,51  L 55,51  L 55,50  L 54,50  Z  " style="fill:rgb(90, 172, 255); fill-opacity:0.455; stroke:none;" />
 <path d="  M 55,52  L 55,51  L 54,51  L 54,52  Z  " style="fill:rgb(73, 182, 255); fill-opacity:0.027; stroke:none;" />
 <path d="  M 104,47  L 104,48  L 105,48  L 105,47  Z  " style="fill:rgb(73, 182, 255); fill-opacity:0.027; stroke:none;" />
 <path d="  M 56,8  L 56,7  L 55,7  L 55,8  Z  " style="fill:rgb(0, 73, 255); fill-opacity:0.055; stroke:none;" />
 <path d="  M 105,25  L 104,25  L 104,28  L 105,28  Z  " style="fill:rgb(0, 73, 255); fill-opacity:0.055; stroke:none;" />
 <path d="  M 56,8  L 55,8  L 55,9  L 56,9  Z  " style="fill:rgb(4, 74, 254); fill-opacity:0.651; stroke:none;" />
 <path d="  M 55,27  L 55,28  L 56,28  L 56,27  Z  " style="fill:rgb(5, 73, 254); fill-opacity:0.957; stroke:none;" />
 <path d="  M 102,28  L 103,28  L 103,27  L 102,27  Z  " style="fill:rgb(5, 73, 254); fill-opacity:0.957; stroke:none;" />
 <path d="  M 55,28  L 55,29  L 56,29  L 56,28  Z  " style="fill:rgb(0, 73, 255); fill-opacity:0.137; stroke:none;" />
 <path d="  M 55,32  L 56,32  L 56,31  L 55,31  Z  " style="fill:rgb(91, 172, 255); fill-opacity:0.373; stroke:none;" />
 <path d="  M 55,52  L 56,52  L 56,51  L 55,51  Z  " style="fill:rgb(90, 172, 254); fill-opacity:0.796; stroke:none;" />
 <path d="  M 55,52  L 55,53  L 56,53  L 56,52  Z  " style="fill:rgb(91, 173, 255); fill-opacity:0.110; stroke:none;" />
 <path d="  M 61,37  L 61,38  L 62,38  L 62,37  Z  " style="fill:rgb(91, 173, 255); fill-opacity:0.110; stroke:none;" />
 <path d="  M 55,66  L 56,66  L 56,65  L 55,65  Z  " style="fill:rgb(5, 75, 255); fill-opacity:0.200; stroke:none;" />
 <path d="  M 69,65  L 70,65  L 70,64  L 69,64  Z  " style="fill:rgb(5, 75, 255); fill-opacity:0.200; stroke:none;" />
 <path d="  M 76,69  L 77,69  L 77,68  L 76,68  Z  " style="fill:rgb(5, 75, 255); fill-opacity:0.200; stroke:none;" />
 <path d="  M 90,63  L 89,63  L 89,64  L 90,64  Z  " style="fill:rgb(5, 75, 255); fill-opacity:0.200; stroke:none;" />
 <path d="  M 100,65  L 100,66  L 101,66  L 101,65  Z  " style="fill:rgb(5, 75, 255); fill-opacity:0.200; stroke:none;" />
 <path d="  M 100,69  L 100,70  L 101,70  L 101,69  Z  " style="fill:rgb(5, 75, 255); fill-opacity:0.200; stroke:none;" />
 <path d="  M 117,63  L 116,63  L 116,64  L 117,64  Z  " style="fill:rgb(5, 75, 255); fill-opacity:0.200; stroke:none;" />
 <path d="  M 57,7  L 57,6  L 56,6  L 56,7  Z  " style="fill:rgb(0, 63, 255); fill-opacity:0.031; stroke:none;" />
 <path d="  M 56,7  L 56,8  L 57,8  L 57,7  Z  " style="fill:rgb(5, 74, 254); fill-opacity:0.784; stroke:none;" />
 <path d="  M 65,22  L 66,22  L 66,21  L 65,21  Z  " style="fill:rgb(5, 74, 254); fill-opacity:0.784; stroke:none;" />
 <path d="  M 57,26  L 56,26  L 56,27  L 57,27  Z  " style="fill:rgb(4, 73, 254); fill-opacity:0.808; stroke:none;" />
 <path d="  M 56,27  L 56,28  L 57,28  L 57,27  Z  " style="fill:rgb(4, 72, 255); fill-opacity:0.208; stroke:none;" />
 <path d="  M 56,33  L 57,33  L 57,32  L 56,32  Z  " style="fill:rgb(89, 172, 255); fill-opacity:0.314; stroke:none;" />
 <path d="  M 57,33  L 56,33  L 56,34  L 57,34  Z  " style="fill:rgb(91, 172, 254); fill-opacity:0.780; stroke:none;" />
 <path d="  M 56,52  L 56,53  L 57,53  L 57,52  Z  " style="fill:rgb(90, 172, 254); fill-opacity:0.827; stroke:none;" />
 <path d="  M 101,52  L 101,53  L 102,53  L 102,52  Z  " style="fill:rgb(90, 172, 254); fill-opacity:0.827; stroke:none;" />
 <path d="  M 56,54  L 57,54  L 57,53  L 56,53  Z  " style="fill:rgb(78, 177, 255); fill-opacity:0.051; stroke:none;" />
 <path d="  M 57,64  L 57,63  L 56,63  L 56,64  Z  " style="fill:rgb(5, 74, 255); fill-opacity:0.800; stroke:none;" />
 <path d="  M 74,72  L 75,72  L 75,71  L 74,71  Z  " style="fill:rgb(5, 74, 255); fill-opacity:0.800; stroke:none;" />
 <path d="  M 82,63  L 81,63  L 81,64  L 82,64  Z  " style="fill:rgb(5, 74, 255); fill-opacity:0.800; stroke:none;" />
 <path d="  M 88,63  L 88,64  L 89,64  L 89,63  Z  " style="fill:rgb(5, 74, 255); fill-opacity:0.800; stroke:none;" />
 <path d="  M 92,65  L 93,65  L 93,64  L 92,64  Z  " style="fill:rgb(5, 74, 255); fill-opacity:0.800; stroke:none;" />
 <path d="  M 93,71  L 93,70  L 92,70  L 92,71  Z  " style="fill:rgb(5, 74, 255); fill-opacity:0.800; stroke:none;" />
 <path d="  M 111,65  L 110,65  L 110,66  L 111,66  Z  " style="fill:rgb(5, 74, 255); fill-opacity:0.800; stroke:none;" />
 <path d="  M 110,69  L 110,70  L 111,70  L 111,69  Z  " style="fill:rgb(5, 74, 255); fill-opacity:0.800; stroke:none;" />
 <path d="  M 112,63  L 112,64  L 113,64  L 113,63  Z  " style="fill:rgb(5, 74, 255); fill-opacity:0.800; stroke:none;" />
 <path d="  M 112,70  L 113,70  L 113,69  L 112,69  Z  " style="fill:rgb(5, 74, 255); fill-opacity:0.800; stroke:none;" />
 <path d="  M 112,72  L 113,72  L 113,71  L 112,71  Z  " style="fill:rgb(5, 74, 255); fill-opacity:0.800; stroke:none;" />
 <path d="  M 57,24  L 57,25  L 58,25  L 58,24  Z  " style="fill:rgb(5, 74, 254); fill-opacity:0.949; stroke:none;" />
 <path d="  M 57,25  L 57,26  L 58,26  L 58,25  Z  " style="fill:rgb(5, 73, 255); fill-opacity:0.384; stroke:none;" />
 <path d="  M 57,26  L 57,27  L 58,27  L 58,26  Z  " style="fill:rgb(0, 0, 255); fill-opacity:0.004; stroke:none;" />
 <path d="  M 105,12  L 105,11  L 104,11  L 104,12  Z  " style="fill:rgb(0, 0, 255); fill-opacity:0.004; stroke:none;" />
 <path d="  M 58,35  L 58,34  L 57,34  L 57,35  Z  " style="fill:rgb(91, 173, 255); fill-opacity:0.306; stroke:none;" />
 <path d="  M 58,35  L 57,35  L 57,36  L 58,36  Z  " style="fill:rgb(90, 172, 254); fill-opacity:0.910; stroke:none;" />
 <path d="  M 57,53  L 57,54  L 58,54  L 58,53  Z  " style="fill:rgb(90, 172, 254); fill-opacity:0.600; stroke:none;" />
 <path d="  M 58,5  L 58,6  L 59,6  L 59,5  Z  " style="fill:rgb(0, 71, 255); fill-opacity:0.125; stroke:none;" />
 <path d="  M 59,6  L 58,6  L 58,7  L 59,7  Z  " style="fill:rgb(5, 74, 254); fill-opacity:0.988; stroke:none;" />
 <path d="  M 59,23  L 58,23  L 58,24  L 59,24  Z  " style="fill:rgb(5, 74, 254); fill-opacity:0.922; stroke:none;" />
 <path d="  M 59,25  L 59,24  L 58,24  L 58,25  Z  " style="fill:rgb(5, 72, 255); fill-opacity:0.180; stroke:none;" />
 <path d="  M 59,35  L 58,35  L 58,36  L 59,36  Z  " style="fill:rgb(87, 175, 255); fill-opacity:0.125; stroke:none;" />
 <path d="  M 58,54  L 59,54  L 59,53  L 58,53  Z  " style="fill:rgb(90, 172, 254); fill-opacity:0.996; stroke:none;" />
 <path d="  M 58,54  L 58,55  L 59,55  L 59,54  Z  " style="fill:rgb(89, 172, 255); fill-opacity:0.157; stroke:none;" />
 <path d="  M 59,6  L 60,6  L 60,5  L 59,5  Z  " style="fill:rgb(6, 74, 255); fill-opacity:0.498; stroke:none;" />
 <path d="  M 59,22  L 59,23  L 60,23  L 60,22  Z  " style="fill:rgb(5, 73, 254); fill-opacity:0.992; stroke:none;" />
 <path d="  M 59,24  L 60,24  L 60,23  L 59,23  Z  " style="fill:rgb(4, 74, 255); fill-opacity:0.243; stroke:none;" />
 <path d="  M 59,37  L 60,37  L 60,36  L 59,36  Z  " style="fill:rgb(88, 172, 255); fill-opacity:0.192; stroke:none;" />
 <path d="  M 59,38  L 60,38  L 60,37  L 59,37  Z  " style="fill:rgb(90, 172, 254); fill-opacity:0.984; stroke:none;" />
 <path d="  M 59,55  L 60,55  L 60,54  L 59,54  Z  " style="fill:rgb(91, 171, 254); fill-opacity:0.573; stroke:none;" />
 <path d="  M 70,36  L 69,36  L 69,37  L 70,37  Z  " style="fill:rgb(91, 171, 254); fill-opacity:0.573; stroke:none;" />
 <path d="  M 61,5  L 60,5  L 60,6  L 61,6  Z  " style="fill:rgb(5, 73, 254); fill-opacity:0.765; stroke:none;" />
 <path d="  M 61,23  L 61,22  L 60,22  L 60,23  Z  " style="fill:rgb(5, 73, 254); fill-opacity:0.600; stroke:none;" />
 <path d="  M 60,37  L 60,38  L 61,38  L 61,37  Z  " style="fill:rgb(90, 173, 254); fill-opacity:0.545; stroke:none;" />
 <path d="  M 60,54  L 60,55  L 61,55  L 61,54  Z  " style="fill:rgb(90, 172, 254); fill-opacity:0.831; stroke:none;" />
 <path d="  M 63,38  L 62,38  L 62,39  L 63,39  Z  " style="fill:rgb(90, 172, 254); fill-opacity:0.831; stroke:none;" />
 <path d="  M 60,64  L 61,64  L 61,63  L 60,63  Z  " style="fill:rgb(5, 73, 255); fill-opacity:0.533; stroke:none;" />
 <path d="  M 60,71  L 60,72  L 61,72  L 61,71  Z  " style="fill:rgb(5, 73, 255); fill-opacity:0.533; stroke:none;" />
 <path d="  M 63,64  L 64,64  L 64,63  L 63,63  Z  " style="fill:rgb(5, 73, 255); fill-opacity:0.533; stroke:none;" />
 <path d="  M 80,71  L 80,72  L 81,72  L 81,71  Z  " style="fill:rgb(5, 73, 255); fill-opacity:0.533; stroke:none;" />
 <path d="  M 94,63  L 93,63  L 93,64  L 94,64  Z  " style="fill:rgb(5, 73, 255); fill-opacity:0.533; stroke:none;" />
 <path d="  M 94,72  L 94,71  L 93,71  L 93,72  Z  " style="fill:rgb(5, 73, 255); fill-opacity:0.533; stroke:none;" />
 <path d="  M 97,69  L 96,69  L 96,70  L 97,70  Z  " style="fill:rgb(5, 73, 255); fill-opacity:0.533; stroke:none;" />
 <path d="  M 97,63  L 97,64  L 98,64  L 98,63  Z  " style="fill:rgb(5, 73, 255); fill-opacity:0.533; stroke:none;" />
 <path d="  M 97,71  L 97,72  L 98,72  L 98,71  Z  " style="fill:rgb(5, 73, 255); fill-opacity:0.533; stroke:none;" />
 <path d="  M 104,66  L 104,65  L 103,65  L 103,66  Z  " style="fill:rgb(5, 73, 255); fill-opacity:0.533; stroke:none;" />
 <path d="  M 113,66  L 112,66  L 112,67  L 113,67  Z  " style="fill:rgb(5, 73, 255); fill-opacity:0.533; stroke:none;" />
 <path d="  M 62,6  L 62,5  L 61,5  L 61,6  Z  " style="fill:rgb(5, 73, 254); fill-opacity:0.914; stroke:none;" />
 <path d="  M 61,23  L 62,23  L 62,22  L 61,22  Z  " style="fill:rgb(0, 74, 255); fill-opacity:0.149; stroke:none;" />
 <path d="  M 62,21  L 62,22  L 63,22  L 63,21  Z  " style="fill:rgb(5, 74, 254); fill-opacity:0.851; stroke:none;" />
 <path d="  M 68,55  L 68,54  L 62,54  L 62,55  Z  " style="fill:rgb(90, 171, 254); fill-opacity:0.941; stroke:none;" />
 <path d="  M 86,55  L 87,55  L 87,54  L 86,54  Z  " style="fill:rgb(90, 171, 254); fill-opacity:0.941; stroke:none;" />
 <path d="  M 63,22  L 64,22  L 64,21  L 63,21  Z  " style="fill:rgb(5, 73, 254); fill-opacity:0.710; stroke:none;" />
 <path d="  M 64,38  L 63,38  L 63,39  L 64,39  Z  " style="fill:rgb(90, 172, 254); fill-opacity:0.675; stroke:none;" />
 <path d="  M 63,65  L 63,66  L 64,66  L 64,65  Z  " style="fill:rgb(6, 72, 255); fill-opacity:0.333; stroke:none;" />
 <path d="  M 69,65  L 69,66  L 70,66  L 70,65  Z  " style="fill:rgb(6, 72, 255); fill-opacity:0.333; stroke:none;" />
 <path d="  M 73,69  L 73,70  L 74,70  L 74,69  Z  " style="fill:rgb(6, 72, 255); fill-opacity:0.333; stroke:none;" />
 <path d="  M 83,72  L 83,71  L 82,71  L 82,72  Z  " style="fill:rgb(6, 72, 255); fill-opacity:0.333; stroke:none;" />
 <path d="  M 92,66  L 92,65  L 91,65  L 91,66  Z  " style="fill:rgb(6, 72, 255); fill-opacity:0.333; stroke:none;" />
 <path d="  M 92,70  L 92,69  L 91,69  L 91,70  Z  " style="fill:rgb(6, 72, 255); fill-opacity:0.333; stroke:none;" />
 <path d="  M 100,66  L 100,67  L 101,67  L 101,66  Z  " style="fill:rgb(6, 72, 255); fill-opacity:0.333; stroke:none;" />
 <path d="  M 100,69  L 101,69  L 101,68  L 100,68  Z  " style="fill:rgb(6, 72, 255); fill-opacity:0.333; stroke:none;" />
 <path d="  M 103,67  L 104,67  L 104,66  L 103,66  Z  " style="fill:rgb(6, 72, 255); fill-opacity:0.333; stroke:none;" />
 <path d="  M 103,68  L 103,69  L 104,69  L 104,68  Z  " style="fill:rgb(6, 72, 255); fill-opacity:0.333; stroke:none;" />
 <path d="  M 109,71  L 108,71  L 108,72  L 109,72  Z  " style="fill:rgb(6, 72, 255); fill-opacity:0.333; stroke:none;" />
 <path d="  M 111,65  L 111,64  L 110,64  L 110,65  Z  " style="fill:rgb(6, 72, 255); fill-opacity:0.333; stroke:none;" />
 <path d="  M 110,70  L 110,71  L 111,71  L 111,70  Z  " style="fill:rgb(6, 72, 255); fill-opacity:0.333; stroke:none;" />
 <path d="  M 112,63  L 111,63  L 111,64  L 112,64  Z  " style="fill:rgb(6, 72, 255); fill-opacity:0.333; stroke:none;" />
 <path d="  M 111,72  L 112,72  L 112,71  L 111,71  Z  " style="fill:rgb(6, 72, 255); fill-opacity:0.333; stroke:none;" />
 <path d="  M 118,72  L 118,71  L 117,71  L 117,72  Z  " style="fill:rgb(6, 72, 255); fill-opacity:0.333; stroke:none;" />
 <path d="  M 64,38  L 64,39  L 65,39  L 65,38  Z  " style="fill:rgb(91, 172, 254); fill-opacity:0.627; stroke:none;" />
 <path d="  M 65,39  L 66,39  L 66,38  L 65,38  Z  " style="fill:rgb(91, 171, 254); fill-opacity:0.725; stroke:none;" />
 <path d="  M 67,22  L 67,21  L 66,21  L 66,22  Z  " style="fill:rgb(5, 73, 254); fill-opacity:0.969; stroke:none;" />
 <path d="  M 92,21  L 91,21  L 91,22  L 92,22  Z  " style="fill:rgb(5, 73, 254); fill-opacity:0.969; stroke:none;" />
 <path d="  M 66,22  L 66,23  L 67,23  L 67,22  Z  " style="fill:rgb(0, 73, 255); fill-opacity:0.027; stroke:none;" />
 <path d="  M 67,37  L 66,37  L 66,38  L 67,38  Z  " style="fill:rgb(85, 170, 255); fill-opacity:0.012; stroke:none;" />
 <path d="  M 67,38  L 66,38  L 66,39  L 67,39  Z  " style="fill:rgb(90, 171, 254); fill-opacity:0.929; stroke:none;" />
 <path d="  M 68,23  L 68,22  L 67,22  L 67,23  Z  " style="fill:rgb(5, 72, 255); fill-opacity:0.345; stroke:none;" />
 <path d="  M 67,38  L 68,38  L 68,37  L 67,37  Z  " style="fill:rgb(91, 173, 255); fill-opacity:0.318; stroke:none;" />
 <path d="  M 68,22  L 68,23  L 69,23  L 69,22  Z  " style="fill:rgb(6, 73, 254); fill-opacity:0.835; stroke:none;" />
 <path d="  M 69,23  L 68,23  L 68,24  L 69,24  Z  " style="fill:rgb(0, 85, 255); fill-opacity:0.024; stroke:none;" />
 <path d="  M 69,36  L 68,36  L 68,37  L 69,37  Z  " style="fill:rgb(85, 170, 255); fill-opacity:0.024; stroke:none;" />
 <path d="  M 68,38  L 69,38  L 69,37  L 68,37  Z  " style="fill:rgb(91, 171, 254); fill-opacity:0.824; stroke:none;" />
 <path d="  M 69,54  L 68,54  L 68,55  L 69,55  Z  " style="fill:rgb(90, 171, 254); fill-opacity:0.906; stroke:none;" />
 <path d="  M 69,66  L 68,66  L 68,72  L 69,72  Z  " style="fill:rgb(5, 72, 255); fill-opacity:0.400; stroke:none;" />
 <path d="  M 71,64  L 71,63  L 70,63  L 70,64  Z  " style="fill:rgb(5, 72, 255); fill-opacity:0.400; stroke:none;" />
 <path d="  M 72,69  L 73,69  L 73,68  L 72,68  Z  " style="fill:rgb(5, 72, 255); fill-opacity:0.400; stroke:none;" />
 <path d="  M 75,67  L 75,68  L 76,68  L 76,67  Z  " style="fill:rgb(5, 72, 255); fill-opacity:0.400; stroke:none;" />
 <path d="  M 76,70  L 77,70  L 77,69  L 76,69  Z  " style="fill:rgb(5, 72, 255); fill-opacity:0.400; stroke:none;" />
 <path d="  M 82,71  L 83,71  L 83,66  L 82,66  Z  " style="fill:rgb(5, 72, 255); fill-opacity:0.400; stroke:none;" />
 <path d="  M 101,67  L 100,67  L 100,68  L 101,68  Z  " style="fill:rgb(5, 72, 255); fill-opacity:0.400; stroke:none;" />
 <path d="  M 69,24  L 70,24  L 70,23  L 69,23  Z  " style="fill:rgb(5, 73, 254); fill-opacity:0.584; stroke:none;" />
 <path d="  M 69,54  L 69,55  L 72,55  L 72,54  Z  " style="fill:rgb(90, 172, 254); fill-opacity:0.878; stroke:none;" />
 <path d="  M 71,24  L 70,24  L 70,25  L 71,25  Z  " style="fill:rgb(5, 74, 254); fill-opacity:0.580; stroke:none;" />
 <path d="  M 70,26  L 71,26  L 71,25  L 70,25  Z  " style="fill:rgb(0, 51, 255); fill-opacity:0.020; stroke:none;" />
 <path d="  M 103,8  L 103,7  L 102,7  L 102,8  Z  " style="fill:rgb(0, 51, 255); fill-opacity:0.020; stroke:none;" />
 <path d="  M 104,13  L 105,13  L 105,12  L 104,12  Z  " style="fill:rgb(0, 51, 255); fill-opacity:0.020; stroke:none;" />
 <path d="  M 71,34  L 70,34  L 70,35  L 71,35  Z  " style="fill:rgb(63, 191, 255); fill-opacity:0.016; stroke:none;" />
 <path d="  M 70,35  L 70,36  L 71,36  L 71,35  Z  " style="fill:rgb(90, 172, 254); fill-opacity:0.553; stroke:none;" />
 <path d="  M 72,26  L 72,25  L 71,25  L 71,26  Z  " style="fill:rgb(4, 74, 254); fill-opacity:0.827; stroke:none;" />
 <path d="  M 72,26  L 71,26  L 71,27  L 72,27  Z  " style="fill:rgb(3, 73, 255); fill-opacity:0.329; stroke:none;" />
 <path d="  M 71,34  L 72,34  L 72,33  L 71,33  Z  " style="fill:rgb(89, 172, 255); fill-opacity:0.290; stroke:none;" />
 <path d="  M 72,34  L 71,34  L 71,35  L 72,35  Z  " style="fill:rgb(90, 171, 254); fill-opacity:0.800; stroke:none;" />
 <path d="  M 72,28  L 73,28  L 73,27  L 72,27  Z  " style="fill:rgb(5, 73, 254); fill-opacity:0.910; stroke:none;" />
 <path d="  M 73,28  L 72,28  L 72,29  L 73,29  Z  " style="fill:rgb(5, 73, 254); fill-opacity:0.678; stroke:none;" />
 <path d="  M 102,7  L 101,7  L 101,8  L 102,8  Z  " style="fill:rgb(5, 73, 254); fill-opacity:0.678; stroke:none;" />
 <path d="  M 73,30  L 73,29  L 72,29  L 72,30  Z  " style="fill:rgb(5, 74, 254); fill-opacity:0.569; stroke:none;" />
 <path d="  M 73,30  L 72,30  L 72,31  L 73,31  Z  " style="fill:rgb(5, 73, 253); fill-opacity:0.502; stroke:none;" />
 <path d="  M 73,32  L 73,31  L 72,31  L 72,32  Z  " style="fill:rgb(33, 104, 254); fill-opacity:0.608; stroke:none;" />
 <path d="  M 73,33  L 73,32  L 72,32  L 72,33  Z  " style="fill:rgb(59, 134, 254); fill-opacity:0.729; stroke:none;" />
 <path d="  M 72,50  L 73,50  L 73,33  L 72,33  Z  " style="fill:rgb(66, 144, 254); fill-opacity:0.784; stroke:none;" />
 <path d="  M 72,50  L 72,51  L 73,51  L 73,50  Z  " style="fill:rgb(68, 145, 254); fill-opacity:0.792; stroke:none;" />
 <path d="  M 73,51  L 72,51  L 72,54  L 73,54  Z  " style="fill:rgb(72, 152, 254); fill-opacity:0.792; stroke:none;" />
 <path d="  M 72,54  L 72,55  L 73,55  L 73,54  Z  " style="fill:rgb(68, 147, 254); fill-opacity:0.702; stroke:none;" />
 <path d="  M 73,54  L 73,55  L 85,55  L 85,54  Z  " style="fill:rgb(5, 74, 254); fill-opacity:0.878; stroke:none;" />
 <path d="  M 85,28  L 86,28  L 86,27  L 85,27  Z  " style="fill:rgb(9, 77, 254); fill-opacity:0.878; stroke:none;" />
 <path d="  M 86,28  L 85,28  L 85,29  L 86,29  Z  " style="fill:rgb(24, 96, 254); fill-opacity:0.792; stroke:none;" />
 <path d="  M 85,29  L 85,30  L 86,30  L 86,29  Z  " style="fill:rgb(36, 110, 254); fill-opacity:0.788; stroke:none;" />
 <path d="  M 86,30  L 85,30  L 85,36  L 86,36  Z  " style="fill:rgb(43, 117, 254); fill-opacity:0.792; stroke:none;" />
 <path d="  M 85,36  L 85,37  L 86,37  L 86,36  Z  " style="fill:rgb(46, 120, 254); fill-opacity:0.800; stroke:none;" />
 <path d="  M 85,54  L 86,54  L 86,37  L 85,37  Z  " style="fill:rgb(50, 125, 254); fill-opacity:0.808; stroke:none;" />
 <path d="  M 85,55  L 86,55  L 86,54  L 85,54  Z  " style="fill:rgb(52, 128, 254); fill-opacity:0.733; stroke:none;" />
 <path d="  M 87,25  L 86,25  L 86,26  L 87,26  Z  " style="fill:rgb(17, 86, 254); fill-opacity:0.824; stroke:none;" />
 <path d="  M 87,26  L 86,26  L 86,27  L 87,27  Z  " style="fill:rgb(72, 152, 254); fill-opacity:0.910; stroke:none;" />
 <path d="  M 88,24  L 87,24  L 87,25  L 88,25  Z  " style="fill:rgb(44, 119, 254); fill-opacity:0.816; stroke:none;" />
 <path d="  M 87,54  L 87,55  L 88,55  L 88,54  Z  " style="fill:rgb(91, 172, 254); fill-opacity:0.980; stroke:none;" />
 <path d="  M 89,23  L 88,23  L 88,24  L 89,24  Z  " style="fill:rgb(38, 111, 254); fill-opacity:0.808; stroke:none;" />
 <path d="  M 90,23  L 90,22  L 89,22  L 89,23  Z  " style="fill:rgb(11, 80, 254); fill-opacity:0.859; stroke:none;" />
 <path d="  M 89,24  L 90,24  L 90,23  L 89,23  Z  " style="fill:rgb(90, 171, 254); fill-opacity:1.000; stroke:none;" />
 <path d="  M 91,23  L 91,22  L 90,22  L 90,23  Z  " style="fill:rgb(58, 134, 254); fill-opacity:0.843; stroke:none;" />
 <path d="  M 91,23  L 92,23  L 92,22  L 91,22  Z  " style="fill:rgb(89, 170, 254); fill-opacity:1.000; stroke:none;" />
 <path d="  M 92,22  L 93,22  L 93,21  L 92,21  Z  " style="fill:rgb(11, 80, 254); fill-opacity:0.847; stroke:none;" />
 <path d="  M 93,22  L 94,22  L 94,21  L 93,21  Z  " style="fill:rgb(15, 84, 254); fill-opacity:0.820; stroke:none;" />
 <path d="  M 95,21  L 94,21  L 94,22  L 95,22  Z  " style="fill:rgb(11, 82, 254); fill-opacity:0.843; stroke:none;" />
 <path d="  M 95,22  L 96,22  L 96,21  L 95,21  Z  " style="fill:rgb(6, 74, 254); fill-opacity:0.929; stroke:none;" />
 <path d="  M 96,6  L 97,6  L 97,5  L 96,5  Z  " style="fill:rgb(5, 73, 254); fill-opacity:0.941; stroke:none;" />
 <path d="  M 104,11  L 103,11  L 103,12  L 104,12  Z  " style="fill:rgb(5, 73, 254); fill-opacity:0.941; stroke:none;" />
 <path d="  M 97,22  L 96,22  L 96,23  L 97,23  Z  " style="fill:rgb(73, 152, 254); fill-opacity:0.918; stroke:none;" />
 <path d="  M 97,5  L 97,6  L 98,6  L 98,5  Z  " style="fill:rgb(5, 73, 254); fill-opacity:0.788; stroke:none;" />
 <path d="  M 98,22  L 97,22  L 97,23  L 98,23  Z  " style="fill:rgb(25, 95, 254); fill-opacity:0.800; stroke:none;" />
 <path d="  M 97,54  L 97,55  L 98,55  L 98,54  Z  " style="fill:rgb(91, 172, 254); fill-opacity:0.925; stroke:none;" />
 <path d="  M 99,6  L 99,5  L 98,5  L 98,6  Z  " style="fill:rgb(5, 72, 254); fill-opacity:0.510; stroke:none;" />
 <path d="  M 99,23  L 98,23  L 98,24  L 99,24  Z  " style="fill:rgb(64, 141, 254); fill-opacity:0.871; stroke:none;" />
 <path d="  M 98,55  L 99,55  L 99,54  L 98,54  Z  " style="fill:rgb(90, 171, 254); fill-opacity:0.643; stroke:none;" />
 <path d="  M 100,5  L 99,5  L 99,6  L 100,6  Z  " style="fill:rgb(0, 73, 255); fill-opacity:0.110; stroke:none;" />
 <path d="  M 100,23  L 99,23  L 99,24  L 100,24  Z  " style="fill:rgb(6, 74, 254); fill-opacity:0.953; stroke:none;" />
 <path d="  M 100,24  L 99,24  L 99,25  L 100,25  Z  " style="fill:rgb(69, 148, 254); fill-opacity:0.894; stroke:none;" />
 <path d="  M 100,54  L 99,54  L 99,55  L 100,55  Z  " style="fill:rgb(91, 173, 255); fill-opacity:0.231; stroke:none;" />
 <path d="  M 100,7  L 101,7  L 101,6  L 100,6  Z  " style="fill:rgb(4, 73, 255); fill-opacity:0.494; stroke:none;" />
 <path d="  M 100,24  L 100,25  L 101,25  L 101,24  Z  " style="fill:rgb(5, 73, 254); fill-opacity:0.973; stroke:none;" />
 <path d="  M 101,26  L 101,25  L 100,25  L 100,26  Z  " style="fill:rgb(39, 114, 254); fill-opacity:0.804; stroke:none;" />
 <path d="  M 100,26  L 100,27  L 101,27  L 101,26  Z  " style="fill:rgb(89, 169, 254); fill-opacity:1.000; stroke:none;" />
 <path d="  M 100,53  L 100,54  L 101,54  L 101,53  Z  " style="fill:rgb(90, 171, 254); fill-opacity:0.678; stroke:none;" />
 <path d="  M 102,7  L 102,6  L 101,6  L 101,7  Z  " style="fill:rgb(0, 85, 255); fill-opacity:0.012; stroke:none;" />
 <path d="  M 102,27  L 102,26  L 101,26  L 101,27  Z  " style="fill:rgb(8, 77, 254); fill-opacity:0.898; stroke:none;" />
 <path d="  M 101,28  L 102,28  L 102,27  L 101,27  Z  " style="fill:rgb(68, 145, 254); fill-opacity:0.882; stroke:none;" />
 <path d="  M 102,54  L 102,53  L 101,53  L 101,54  Z  " style="fill:rgb(85, 170, 255); fill-opacity:0.071; stroke:none;" />
 <path d="  M 103,8  L 102,8  L 102,9  L 103,9  Z  " style="fill:rgb(5, 73, 254); fill-opacity:0.549; stroke:none;" />
 <path d="  M 102,9  L 102,10  L 103,10  L 103,9  Z  " style="fill:rgb(5, 73, 254); fill-opacity:0.996; stroke:none;" />
 <path d="  M 103,28  L 102,28  L 102,29  L 103,29  Z  " style="fill:rgb(79, 159, 254); fill-opacity:0.945; stroke:none;" />
 <path d="  M 102,51  L 102,52  L 103,52  L 103,51  Z  " style="fill:rgb(90, 172, 254); fill-opacity:0.729; stroke:none;" />
 <path d="  M 103,10  L 104,10  L 104,9  L 103,9  Z  " style="fill:rgb(5, 74, 255); fill-opacity:0.188; stroke:none;" />
 <path d="  M 103,10  L 103,11  L 104,11  L 104,10  Z  " style="fill:rgb(4, 73, 254); fill-opacity:0.639; stroke:none;" />
 <path d="  M 103,28  L 103,29  L 104,29  L 104,28  Z  " style="fill:rgb(35, 108, 254); fill-opacity:0.792; stroke:none;" />
 <path d="  M 103,49  L 104,49  L 104,48  L 103,48  Z  " style="fill:rgb(90, 171, 254); fill-opacity:0.988; stroke:none;" />
 <path d="  M 103,50  L 104,50  L 104,49  L 103,49  Z  " style="fill:rgb(90, 172, 254); fill-opacity:0.757; stroke:none;" />
 <path d="  M 103,50  L 103,51  L 104,51  L 104,50  Z  " style="fill:rgb(91, 173, 255); fill-opacity:0.329; stroke:none;" />
 <path d="  M 105,14  L 105,13  L 104,13  L 104,14  Z  " style="fill:rgb(0, 56, 255); fill-opacity:0.035; stroke:none;" />
 <path d="  M 105,14  L 104,14  L 104,25  L 105,25  Z  " style="fill:rgb(0, 69, 255); fill-opacity:0.043; stroke:none;" />
 <path d="  M 105,28  L 104,28  L 104,29  L 105,29  Z  " style="fill:rgb(21, 106, 255); fill-opacity:0.047; stroke:none;" />
 <path d="  M 104,47  L 105,47  L 105,29  L 104,29  Z  " style="fill:rgb(85, 170, 255); fill-opacity:0.035; stroke:none;" />
 <path d="  M 105,49  L 105,48  L 104,48  L 104,49  Z  " style="fill:rgb(127, 255, 255); fill-opacity:0.008; stroke:none;" />
</svg>

