<svg id="svg" version="1.1" xmlns="http://www.w3.org/2000/svg" xmlns:xlink="http://www.w3.org/1999/xlink" width="400" height="400" viewBox="0, 0, 400,400"><g id="svgg"><path id="path0" d="M191.923 3.575 C 192.522 3.649,193.422 3.648,193.923 3.572 C 194.424 3.495,193.933 3.435,192.833 3.437 C 191.733 3.438,191.324 3.501,191.923 3.575 M207.589 3.575 C 208.188 3.649,209.088 3.648,209.589 3.572 C 210.090 3.495,209.600 3.435,208.500 3.437 C 207.400 3.438,206.990 3.501,207.589 3.575 M185.921 3.902 C 186.335 3.982,186.935 3.979,187.254 3.896 C 187.573 3.812,187.233 3.747,186.500 3.751 C 185.767 3.754,185.506 3.823,185.921 3.902 M214.254 3.902 C 214.669 3.982,215.269 3.979,215.587 3.896 C 215.906 3.812,215.567 3.747,214.833 3.751 C 214.100 3.754,213.839 3.823,214.254 3.902 M202.589 15.908 C 203.188 15.982,204.088 15.981,204.589 15.905 C 205.090 15.829,204.600 15.768,203.500 15.770 C 202.400 15.772,201.990 15.834,202.589 15.908 M211.256 16.242 C 211.855 16.316,212.755 16.314,213.256 16.238 C 213.757 16.162,213.267 16.101,212.167 16.103 C 211.067 16.105,210.657 16.167,211.256 16.242 M201.583 19.569 C 201.996 19.648,202.671 19.648,203.083 19.569 C 203.496 19.489,203.158 19.424,202.333 19.424 C 201.508 19.424,201.171 19.489,201.583 19.569 M212.088 19.906 C 212.595 19.982,213.345 19.980,213.755 19.901 C 214.165 19.822,213.750 19.760,212.833 19.762 C 211.917 19.765,211.581 19.829,212.088 19.906 M205.107 24.000 C 205.107 25.192,205.167 25.679,205.241 25.083 C 205.315 24.488,205.315 23.512,205.241 22.917 C 205.167 22.321,205.107 22.808,205.107 24.000 M209.440 24.000 C 209.440 25.192,209.501 25.679,209.574 25.083 C 209.648 24.488,209.648 23.512,209.574 22.917 C 209.501 22.321,209.440 22.808,209.440 24.000 M158.254 24.236 C 158.669 24.315,159.269 24.312,159.587 24.229 C 159.906 24.146,159.567 24.080,158.833 24.084 C 158.100 24.088,157.839 24.156,158.254 24.236 M152.770 30.167 C 152.772 31.267,152.834 31.676,152.908 31.077 C 152.982 30.478,152.981 29.578,152.905 29.077 C 152.829 28.576,152.768 29.067,152.770 30.167 M148.433 30.667 C 148.433 31.675,148.496 32.087,148.572 31.583 C 148.648 31.079,148.648 30.254,148.572 29.750 C 148.496 29.246,148.433 29.658,148.433 30.667 M251.077 30.000 C 251.077 30.642,251.146 30.904,251.230 30.583 C 251.314 30.262,251.314 29.738,251.230 29.417 C 251.146 29.096,251.077 29.358,251.077 30.000 M204.773 33.000 C 204.773 34.192,204.834 34.679,204.908 34.083 C 204.982 33.487,204.982 32.512,204.908 31.917 C 204.834 31.321,204.773 31.808,204.773 33.000 M209.107 33.000 C 209.107 34.192,209.167 34.679,209.241 34.083 C 209.315 33.487,209.315 32.512,209.241 31.917 C 209.167 31.321,209.107 31.808,209.107 33.000 M233.587 40.236 C 234.002 40.315,234.602 40.312,234.921 40.229 C 235.239 40.146,234.900 40.080,234.167 40.084 C 233.433 40.088,233.173 40.156,233.587 40.236 M252.091 42.667 C 252.091 43.492,252.156 43.829,252.235 43.417 C 252.315 43.004,252.315 42.329,252.235 41.917 C 252.156 41.504,252.091 41.842,252.091 42.667 M289.222 43.889 C 288.921 44.190,288.940 45.257,289.250 45.448 C 289.387 45.533,289.500 45.167,289.500 44.635 C 289.500 44.102,289.487 43.667,289.472 43.667 C 289.457 43.667,289.344 43.767,289.222 43.889 M292.333 49.167 C 293.329 50.175,294.219 51.000,294.311 51.000 C 294.402 51.000,293.662 50.175,292.667 49.167 C 291.671 48.158,290.781 47.333,290.689 47.333 C 290.598 47.333,291.338 48.158,292.333 49.167 M279.411 53.000 C 279.411 53.642,279.479 53.904,279.563 53.583 C 279.647 53.262,279.647 52.737,279.563 52.417 C 279.479 52.096,279.411 52.358,279.411 53.000 M289.000 52.438 C 289.000 52.495,289.487 52.983,290.083 53.521 L 291.167 54.500 290.188 53.417 C 289.275 52.407,289.000 52.180,289.000 52.438 M237.000 59.000 C 237.000 60.650,236.859 62.000,236.687 62.000 C 236.515 62.000,235.428 61.781,234.271 61.513 C 209.500 55.784,181.070 57.188,156.680 65.347 C 153.414 66.440,150.388 67.344,149.954 67.357 C 148.289 67.406,150.447 67.952,152.404 67.977 C 157.326 68.037,168.814 69.958,175.750 71.880 L 179.000 72.781 179.000 76.049 L 179.000 79.317 178.145 78.992 C 177.675 78.813,177.112 78.674,176.895 78.684 C 176.678 78.693,178.075 79.270,180.000 79.965 C 213.183 91.945,231.650 120.221,231.702 159.131 C 231.716 169.223,231.235 172.667,229.814 172.667 L 229.000 172.667 229.080 191.417 L 229.161 210.167 229.250 191.626 L 229.339 173.086 230.586 172.880 C 231.272 172.767,232.846 172.672,234.083 172.670 L 236.333 172.667 236.333 190.424 L 236.333 208.181 237.812 210.707 C 251.431 233.972,281.121 245.640,304.167 236.783 C 333.936 225.343,351.421 186.421,341.820 152.966 C 331.469 116.896,297.754 80.002,260.500 63.980 C 253.780 61.089,238.888 56.000,237.151 56.000 C 237.068 56.000,237.000 57.350,237.000 59.000 M60.995 61.250 L 56.500 65.833 61.083 61.338 C 63.604 58.866,65.667 56.803,65.667 56.755 C 65.667 56.516,65.171 56.992,60.995 61.250 M339.995 61.083 C 342.468 63.604,344.530 65.667,344.579 65.667 C 344.818 65.667,344.341 65.171,340.083 60.995 L 335.500 56.500 339.995 61.083 M74.241 65.592 C 73.008 66.834,72.000 67.941,72.000 68.052 C 72.000 68.163,73.044 67.185,74.319 65.877 L 76.639 63.500 78.569 65.333 L 80.500 67.167 78.678 65.250 C 76.464 62.921,76.927 62.885,74.241 65.592 M316.315 70.250 L 315.167 71.500 316.417 70.351 C 317.580 69.282,317.820 69.000,317.565 69.000 C 317.510 69.000,316.947 69.563,316.315 70.250 M77.333 69.920 C 77.333 70.147,77.483 70.333,77.667 70.333 C 77.850 70.333,77.962 70.468,77.917 70.633 C 77.871 70.798,77.944 70.911,78.079 70.883 C 78.215 70.856,80.727 73.231,83.663 76.163 L 89.000 81.492 90.579 79.912 L 92.159 78.332 90.000 76.249 L 87.841 74.167 89.829 76.253 L 91.818 78.339 90.408 79.749 L 88.999 81.158 83.166 75.333 C 79.958 72.129,77.333 69.693,77.333 69.920 M319.479 73.417 L 318.500 74.500 319.583 73.521 C 320.179 72.983,320.667 72.495,320.667 72.438 C 320.667 72.180,320.392 72.407,319.479 73.417 M64.164 75.669 L 61.846 78.005 63.836 79.919 L 65.825 81.833 64.006 79.915 L 62.187 77.998 64.501 75.665 C 65.774 74.383,66.740 73.333,66.649 73.333 C 66.557 73.333,65.439 74.385,64.164 75.669 M135.750 74.239 C 136.254 74.315,137.079 74.315,137.583 74.239 C 138.087 74.162,137.675 74.100,136.667 74.100 C 135.658 74.100,135.246 74.162,135.750 74.239 M149.256 74.242 C 149.855 74.316,150.755 74.314,151.256 74.238 C 151.757 74.162,151.267 74.101,150.167 74.103 C 149.067 74.105,148.657 74.167,149.256 74.242 M132.083 74.563 C 132.404 74.647,132.929 74.647,133.250 74.563 C 133.571 74.479,133.308 74.411,132.667 74.411 C 132.025 74.411,131.762 74.479,132.083 74.563 M154.254 74.569 C 154.669 74.649,155.269 74.646,155.587 74.562 C 155.906 74.479,155.567 74.414,154.833 74.417 C 154.100 74.421,153.839 74.489,154.254 74.569 M157.417 74.896 C 157.737 74.980,158.262 74.980,158.583 74.896 C 158.904 74.813,158.642 74.744,158.000 74.744 C 157.358 74.744,157.096 74.813,157.417 74.896 M69.500 80.000 C 70.858 81.391,71.641 81.892,70.412 80.583 C 70.024 80.171,69.683 79.683,69.654 79.500 C 69.624 79.317,69.465 79.204,69.300 79.250 C 69.135 79.296,69.000 79.183,69.000 79.000 C 69.000 78.817,68.820 78.667,68.599 78.667 C 68.378 78.667,68.784 79.267,69.500 80.000 M135.500 80.205 C 106.716 83.219,87.859 96.795,70.894 126.719 C 51.566 160.813,46.131 203.495,56.569 239.212 L 57.167 241.258 59.658 239.795 C 61.029 238.991,62.232 238.333,62.332 238.333 C 62.432 238.333,62.935 239.721,63.449 241.417 C 70.763 265.541,86.158 289.527,104.833 305.895 C 107.033 307.824,109.726 310.249,110.816 311.284 C 112.091 312.494,112.418 312.716,111.732 311.904 C 108.841 308.484,99.513 284.039,100.759 283.151 C 101.634 282.528,105.725 280.333,106.012 280.333 C 106.289 280.333,106.336 279.959,106.170 279.083 C 101.325 253.607,108.569 229.719,126.726 211.300 C 131.539 206.418,134.320 204.108,134.687 204.687 C 134.853 204.951,134.992 205.049,134.995 204.905 C 134.998 204.761,134.787 204.311,134.527 203.905 C 134.267 203.499,133.532 201.592,132.894 199.667 C 132.256 197.742,129.844 191.075,127.534 184.852 C 125.223 178.629,123.333 173.337,123.333 173.091 C 123.333 172.739,124.125 172.665,127.083 172.739 L 130.833 172.833 133.079 179.333 C 134.314 182.908,136.411 188.908,137.739 192.667 C 139.067 196.425,140.121 199.606,140.082 199.735 C 140.042 199.865,140.945 199.320,142.088 198.524 C 147.300 194.895,154.743 190.814,155.430 191.209 C 155.652 191.336,155.732 191.328,155.609 191.190 C 155.485 191.052,155.921 189.491,156.578 187.720 C 157.234 185.949,158.694 181.875,159.822 178.667 L 161.872 172.833 165.809 172.739 C 168.903 172.665,169.712 172.736,169.586 173.072 C 169.498 173.308,168.860 175.075,168.170 177.000 C 167.480 178.925,166.484 181.675,165.957 183.112 C 165.431 184.548,165.000 185.863,165.000 186.033 C 165.000 186.658,172.213 182.725,175.569 180.270 C 176.524 179.571,177.386 179.000,177.486 179.000 C 177.585 179.000,177.667 189.875,177.667 203.167 L 177.667 227.333 181.417 227.263 L 185.167 227.192 181.583 227.085 L 178.000 226.977 177.999 204.072 C 177.998 191.474,177.899 179.234,177.778 176.872 L 177.559 172.577 181.363 172.722 C 183.455 172.801,184.909 172.812,184.595 172.744 C 184.131 172.645,184.327 172.235,185.637 170.561 C 205.616 145.036,200.682 105.464,175.500 89.253 C 165.048 82.525,148.689 78.825,135.500 80.205 M327.812 81.750 L 326.833 82.833 327.917 81.854 C 328.512 81.316,329.000 80.828,329.000 80.771 C 329.000 80.513,328.725 80.740,327.812 81.750 M331.146 84.750 L 330.167 85.833 331.250 84.854 C 331.846 84.316,332.333 83.828,332.333 83.771 C 332.333 83.513,332.058 83.740,331.146 84.750 M84.293 85.750 C 83.446 86.621,82.852 87.333,82.974 87.333 C 83.271 87.333,86.164 84.372,85.979 84.257 C 85.899 84.207,85.140 84.879,84.293 85.750 M316.333 85.167 C 316.955 85.808,317.539 86.333,317.631 86.333 C 317.722 86.333,317.289 85.808,316.667 85.167 C 316.045 84.525,315.461 84.000,315.369 84.000 C 315.278 84.000,315.711 84.525,316.333 85.167 M78.294 88.386 C 79.242 89.400,79.656 90.093,79.490 90.386 C 79.283 90.749,79.321 90.754,79.691 90.411 C 80.069 90.059,79.868 89.722,78.494 88.411 L 76.843 86.833 78.294 88.386 M75.243 90.994 C 76.969 92.783,77.391 93.070,77.743 92.691 C 78.088 92.321,78.083 92.283,77.717 92.491 C 77.416 92.662,76.587 92.099,75.217 90.794 L 73.167 88.841 75.243 90.994 M325.333 94.642 C 325.333 94.937,328.628 98.164,328.742 97.980 C 328.792 97.899,328.046 97.067,327.083 96.130 C 326.121 95.192,325.333 94.523,325.333 94.642 M54.084 107.167 C 54.088 107.900,54.156 108.161,54.236 107.746 C 54.315 107.331,54.312 106.731,54.229 106.413 C 54.146 106.094,54.080 106.433,54.084 107.167 M59.583 113.235 C 59.996 113.315,60.671 113.315,61.083 113.235 C 61.496 113.156,61.158 113.091,60.333 113.091 C 59.508 113.091,59.171 113.156,59.583 113.235 M363.917 121.902 C 364.329 121.981,365.004 121.981,365.417 121.902 C 365.829 121.822,365.492 121.757,364.667 121.757 C 363.842 121.757,363.504 121.822,363.917 121.902 M358.250 122.235 C 358.662 122.315,359.337 122.315,359.750 122.235 C 360.162 122.156,359.825 122.091,359.000 122.091 C 358.175 122.091,357.837 122.156,358.250 122.235 M352.250 122.569 C 352.662 122.648,353.337 122.648,353.750 122.569 C 354.162 122.489,353.825 122.424,353.000 122.424 C 352.175 122.424,351.837 122.489,352.250 122.569 M346.583 122.902 C 346.996 122.981,347.671 122.981,348.083 122.902 C 348.496 122.822,348.158 122.757,347.333 122.757 C 346.508 122.757,346.171 122.822,346.583 122.902 M36.259 125.911 C 37.043 125.982,38.243 125.981,38.925 125.909 C 39.608 125.837,38.967 125.780,37.500 125.781 C 36.033 125.782,35.475 125.841,36.259 125.911 M47.925 126.244 C 48.709 126.315,49.909 126.314,50.592 126.242 C 51.275 126.171,50.633 126.113,49.167 126.114 C 47.700 126.115,47.141 126.174,47.925 126.244 M361.417 126.230 C 361.738 126.314,362.262 126.314,362.583 126.230 C 362.904 126.146,362.642 126.077,362.000 126.077 C 361.358 126.077,361.096 126.146,361.417 126.230 M361.017 128.816 C 359.476 130.365,358.068 131.542,357.889 131.432 C 357.699 131.314,357.671 131.405,357.823 131.650 C 358.031 131.986,364.000 126.612,364.000 126.090 C 364.000 125.852,363.624 126.195,361.017 128.816 M348.254 127.236 C 348.669 127.315,349.269 127.312,349.587 127.229 C 349.906 127.146,349.567 127.080,348.833 127.084 C 348.100 127.088,347.839 127.156,348.254 127.236 M37.645 138.065 C 44.771 145.266,46.333 146.649,46.333 145.758 C 46.333 145.647,46.228 145.661,46.098 145.790 C 45.969 145.920,42.182 142.382,37.682 137.929 L 29.500 129.833 37.645 138.065 M38.583 130.241 C 39.179 130.315,40.154 130.315,40.750 130.241 C 41.346 130.167,40.858 130.107,39.667 130.107 C 38.475 130.107,37.987 130.167,38.583 130.241 M364.151 131.417 L 362.833 132.833 364.250 131.516 C 365.029 130.791,365.667 130.153,365.667 130.099 C 365.667 129.847,365.376 130.099,364.151 131.417 M49.587 130.569 C 50.002 130.649,50.602 130.646,50.921 130.562 C 51.239 130.479,50.900 130.414,50.167 130.417 C 49.433 130.421,49.173 130.489,49.587 130.569 M353.322 136.583 L 351.500 138.500 353.417 136.678 C 354.471 135.676,355.333 134.813,355.333 134.761 C 355.333 134.514,355.015 134.803,353.322 136.583 M358.818 137.083 L 357.500 138.500 358.917 137.182 C 360.234 135.957,360.487 135.667,360.234 135.667 C 360.180 135.667,359.542 136.304,358.818 137.083 M45.667 140.167 C 46.662 141.175,47.552 142.000,47.644 142.000 C 47.736 142.000,46.996 141.175,46.000 140.167 C 45.004 139.158,44.114 138.333,44.023 138.333 C 43.931 138.333,44.671 139.158,45.667 140.167 M372.083 164.230 C 372.404 164.314,372.929 164.314,373.250 164.230 C 373.571 164.146,373.308 164.077,372.667 164.077 C 372.025 164.077,371.762 164.146,372.083 164.230 M373.083 168.563 C 373.404 168.647,373.929 168.647,374.250 168.563 C 374.571 168.479,374.308 168.411,373.667 168.411 C 373.025 168.411,372.762 168.479,373.083 168.563 M271.851 173.162 C 278.467 175.383,282.939 180.506,283.578 186.595 L 283.762 188.357 280.131 188.262 L 276.500 188.167 276.296 186.493 C 275.086 176.585,256.557 174.485,253.725 183.936 C 251.900 190.029,255.068 193.227,266.500 196.831 C 280.098 201.117,285.100 206.607,283.644 215.647 C 280.740 233.682,244.333 230.879,244.333 212.620 L 244.333 211.311 247.913 211.405 L 251.493 211.500 251.720 213.089 C 253.343 224.469,275.400 225.507,276.561 214.259 C 277.131 208.739,274.531 206.475,263.419 202.813 C 251.634 198.930,247.356 195.446,246.261 188.838 C 244.333 177.204,258.337 168.626,271.851 173.162 M196.820 173.083 C 196.732 173.313,196.700 181.900,196.750 192.167 L 196.839 210.833 196.920 191.928 L 197.000 173.023 200.583 172.915 L 204.167 172.808 200.573 172.737 C 197.951 172.686,196.936 172.779,196.820 173.083 M3.751 186.500 C 3.754 187.233,3.823 187.494,3.902 187.079 C 3.982 186.665,3.979 186.065,3.896 185.746 C 3.812 185.427,3.747 185.767,3.751 186.500 M397.417 186.833 C 397.421 187.567,397.489 187.827,397.569 187.413 C 397.649 186.998,397.646 186.398,397.562 186.079 C 397.479 185.761,397.414 186.100,397.417 186.833 M372.750 189.247 C 373.988 189.311,376.012 189.311,377.250 189.247 C 378.488 189.183,377.475 189.131,375.000 189.131 C 372.525 189.131,371.512 189.183,372.750 189.247 M348.550 191.250 C 348.440 191.754,348.250 192.542,348.129 193.000 C 347.979 193.570,348.018 193.728,348.254 193.500 C 348.443 193.317,348.702 192.529,348.828 191.750 C 349.083 190.185,348.867 189.798,348.550 191.250 M3.437 192.833 C 3.438 193.933,3.501 194.343,3.575 193.744 C 3.649 193.145,3.648 192.245,3.572 191.744 C 3.495 191.243,3.435 191.733,3.437 192.833 M397.773 193.000 C 397.773 194.192,397.834 194.679,397.908 194.083 C 397.982 193.487,397.982 192.512,397.908 191.917 C 397.834 191.321,397.773 191.808,397.773 193.000 M369.083 193.245 C 369.954 193.314,371.379 193.314,372.250 193.245 C 373.121 193.176,372.408 193.120,370.667 193.120 C 368.925 193.120,368.212 193.176,369.083 193.245 M15.767 195.667 C 15.767 196.675,15.829 197.088,15.905 196.583 C 15.982 196.079,15.982 195.254,15.905 194.750 C 15.829 194.246,15.767 194.658,15.767 195.667 M37.433 196.667 C 37.433 197.675,37.496 198.088,37.572 197.583 C 37.648 197.079,37.648 196.254,37.572 195.750 C 37.496 195.246,37.433 195.658,37.433 196.667 M347.537 195.833 C 347.811 197.059,348.002 197.325,347.995 196.472 C 347.992 196.121,347.838 195.608,347.651 195.333 C 347.404 194.968,347.373 195.103,347.537 195.833 M22.421 195.906 C 22.928 195.982,23.678 195.980,24.088 195.901 C 24.498 195.822,24.083 195.760,23.167 195.762 C 22.250 195.765,21.915 195.829,22.421 195.906 M29.421 196.239 C 29.928 196.316,30.678 196.314,31.088 196.235 C 31.498 196.156,31.083 196.093,30.167 196.095 C 29.250 196.098,28.915 196.163,29.421 196.239 M18.755 199.906 C 19.261 199.982,20.011 199.980,20.421 199.901 C 20.831 199.822,20.417 199.760,19.500 199.762 C 18.583 199.765,18.248 199.829,18.755 199.906 M25.750 200.239 C 26.254 200.315,27.079 200.315,27.583 200.239 C 28.087 200.162,27.675 200.100,26.667 200.100 C 25.658 200.100,25.246 200.162,25.750 200.239 M33.088 200.573 C 33.595 200.649,34.345 200.647,34.755 200.568 C 35.165 200.489,34.750 200.426,33.833 200.429 C 32.917 200.431,32.581 200.496,33.088 200.573 M376.427 202.245 C 377.303 202.314,378.653 202.313,379.427 202.244 C 380.200 202.174,379.483 202.117,377.833 202.118 C 376.183 202.119,375.550 202.177,376.427 202.245 M372.083 206.247 C 373.321 206.311,375.346 206.311,376.583 206.247 C 377.821 206.183,376.808 206.131,374.333 206.131 C 371.858 206.131,370.846 206.183,372.083 206.247 M397.773 208.333 C 397.773 209.525,397.834 210.012,397.908 209.417 C 397.982 208.821,397.982 207.846,397.908 207.250 C 397.834 206.654,397.773 207.142,397.773 208.333 M3.437 208.500 C 3.438 209.600,3.501 210.010,3.575 209.411 C 3.649 208.812,3.648 207.912,3.572 207.411 C 3.495 206.910,3.435 207.400,3.437 208.500 M341.570 209.512 C 340.893 210.880,340.411 212.000,340.499 212.000 C 340.721 212.000,343.071 207.293,342.922 207.144 C 342.856 207.078,342.247 208.143,341.570 209.512 M236.077 211.667 C 236.077 212.308,236.146 212.571,236.230 212.250 C 236.314 211.929,236.314 211.404,236.230 211.083 C 236.146 210.762,236.077 211.025,236.077 211.667 M397.417 214.500 C 397.421 215.233,397.489 215.494,397.569 215.079 C 397.649 214.665,397.646 214.065,397.562 213.746 C 397.479 213.427,397.414 213.767,397.417 214.500 M3.751 214.833 C 3.754 215.567,3.823 215.827,3.902 215.413 C 3.982 214.998,3.979 214.398,3.896 214.079 C 3.812 213.761,3.747 214.100,3.751 214.833 M337.127 217.417 C 335.980 219.363,335.905 219.530,336.489 218.833 C 337.166 218.027,337.750 217.000,337.531 217.000 C 337.444 217.000,337.262 217.188,337.127 217.417 M225.000 219.374 C 223.838 220.392,223.838 220.394,224.907 219.683 C 225.497 219.290,226.068 218.826,226.176 218.651 C 226.498 218.131,226.231 218.295,225.000 219.374 M207.000 218.759 C 207.000 218.823,207.487 219.232,208.083 219.668 C 208.754 220.158,208.987 220.239,208.694 219.879 C 208.250 219.332,207.000 218.506,207.000 218.759 M210.000 220.833 C 210.458 221.095,210.983 221.310,211.167 221.310 C 211.350 221.310,211.125 221.095,210.667 220.833 C 210.208 220.571,209.683 220.357,209.500 220.357 C 209.317 220.357,209.542 220.571,210.000 220.833 M231.000 222.430 C 229.992 223.392,228.792 224.445,228.333 224.771 C 227.532 225.340,227.541 225.340,228.581 224.777 C 229.524 224.267,233.403 220.655,232.989 220.673 C 232.903 220.677,232.008 221.467,231.000 222.430 M221.000 221.333 C 220.313 221.553,220.284 221.605,220.833 221.628 C 221.200 221.644,221.725 221.511,222.000 221.333 C 222.584 220.956,222.179 220.956,221.000 221.333 M213.417 221.896 C 213.737 221.980,214.262 221.980,214.583 221.896 C 214.904 221.813,214.642 221.744,214.000 221.744 C 213.358 221.744,213.096 221.813,213.417 221.896 M218.417 221.896 C 218.737 221.980,219.262 221.980,219.583 221.896 C 219.904 221.813,219.642 221.744,219.000 221.744 C 218.358 221.744,218.096 221.813,218.417 221.896 M339.428 225.297 C 336.137 230.383,331.529 236.090,326.655 241.115 L 322.143 245.767 319.460 244.220 L 316.777 242.672 321.141 238.253 C 325.444 233.895,329.889 228.625,332.678 224.573 C 334.772 221.531,333.826 222.611,330.406 227.167 C 300.248 267.334,254.110 272.629,209.992 240.984 C 189.791 226.495,172.570 223.863,152.003 232.122 C 111.661 248.320,104.804 294.424,137.814 327.534 C 150.602 340.361,163.417 346.394,182.833 348.727 C 226.283 353.949,271.748 338.731,302.909 308.536 C 307.728 303.867,307.539 304.449,304.750 302.859 C 303.512 302.154,302.447 301.532,302.382 301.476 C 302.318 301.421,303.371 300.129,304.724 298.605 C 323.464 277.484,334.609 255.238,340.169 227.853 C 340.651 225.480,341.197 223.255,341.383 222.908 C 342.305 221.184,341.272 222.447,339.428 225.297 M202.832 223.614 C 203.195 224.044,203.794 224.550,204.163 224.738 C 204.871 225.101,204.768 224.989,203.169 223.662 C 202.207 222.863,202.195 222.861,202.832 223.614 M205.000 225.163 C 205.000 225.392,207.041 226.403,207.193 226.251 C 207.266 226.179,206.802 225.870,206.162 225.565 C 205.523 225.260,205.000 225.080,205.000 225.163 M225.277 226.168 C 225.184 226.260,223.997 226.627,222.638 226.983 C 221.279 227.339,220.488 227.638,220.882 227.648 C 221.662 227.668,226.000 226.401,226.000 226.153 C 226.000 225.947,225.487 225.958,225.277 226.168 M144.583 227.246 C 145.546 227.313,147.121 227.313,148.083 227.246 C 149.046 227.178,148.258 227.123,146.333 227.123 C 144.408 227.123,143.621 227.178,144.583 227.246 M214.762 227.913 C 215.823 227.980,217.473 227.979,218.429 227.912 C 219.385 227.845,218.517 227.791,216.500 227.791 C 214.483 227.792,213.701 227.847,214.762 227.913 M376.917 248.235 C 377.329 248.315,378.004 248.315,378.417 248.235 C 378.829 248.156,378.492 248.091,377.667 248.091 C 376.842 248.091,376.504 248.156,376.917 248.235 M371.250 248.569 C 371.662 248.648,372.337 248.648,372.750 248.569 C 373.162 248.489,372.825 248.424,372.000 248.424 C 371.175 248.424,370.837 248.489,371.250 248.569 M365.250 248.902 C 365.662 248.981,366.337 248.981,366.750 248.902 C 367.162 248.822,366.825 248.757,366.000 248.757 C 365.175 248.757,364.837 248.822,365.250 248.902 M359.583 249.235 C 359.996 249.315,360.671 249.315,361.083 249.235 C 361.496 249.156,361.158 249.091,360.333 249.091 C 359.508 249.091,359.171 249.156,359.583 249.235 M375.921 252.569 C 376.335 252.649,376.935 252.646,377.254 252.562 C 377.573 252.479,377.233 252.414,376.500 252.417 C 375.767 252.421,375.506 252.489,375.921 252.569 M364.923 253.242 C 365.522 253.316,366.422 253.314,366.923 253.238 C 367.424 253.162,366.933 253.101,365.833 253.103 C 364.733 253.105,364.324 253.167,364.923 253.242 M365.468 269.718 C 365.315 269.966,365.377 270.012,365.642 269.848 C 365.892 269.694,366.471 269.970,367.110 270.547 L 368.167 271.500 367.188 270.417 C 366.128 269.244,365.835 269.125,365.468 269.718 M334.667 295.500 C 333.857 296.325,333.270 297.000,333.361 297.000 C 333.453 297.000,334.190 296.325,335.000 295.500 C 335.810 294.675,336.397 294.000,336.305 294.000 C 336.214 294.000,335.476 294.675,334.667 295.500 M352.587 302.902 C 353.002 302.982,353.602 302.979,353.921 302.896 C 354.239 302.812,353.900 302.747,353.167 302.751 C 352.433 302.754,352.173 302.823,352.587 302.902 M114.333 304.119 C 114.333 304.481,116.988 309.667,117.174 309.667 C 117.323 309.667,114.774 304.367,114.461 304.028 C 114.391 303.951,114.333 303.992,114.333 304.119 M349.254 306.902 C 349.669 306.982,350.269 306.979,350.587 306.896 C 350.906 306.812,350.567 306.747,349.833 306.751 C 349.100 306.754,348.839 306.823,349.254 306.902 M323.151 309.750 L 321.833 311.167 323.255 309.844 L 324.677 308.521 325.908 309.753 L 327.140 310.984 326.161 312.075 L 325.182 313.167 326.330 312.088 L 327.478 311.009 326.171 309.671 C 324.574 308.036,324.749 308.032,323.151 309.750 M114.333 315.333 C 115.286 316.433,116.141 317.333,116.233 317.333 C 116.324 317.333,115.620 316.433,114.667 315.333 C 113.714 314.233,112.859 313.333,112.767 313.333 C 112.676 313.333,113.380 314.233,114.333 315.333 M328.975 315.917 L 328.167 316.833 329.093 316.016 L 330.020 315.198 331.244 316.422 L 332.469 317.646 331.660 318.573 L 330.852 319.500 331.831 318.587 L 332.810 317.675 331.504 316.337 C 329.952 314.748,329.998 314.755,328.975 315.917 M314.995 318.172 L 313.518 319.677 315.505 321.589 L 317.492 323.500 315.675 321.585 L 313.859 319.669 315.332 318.168 C 316.142 317.342,316.730 316.667,316.639 316.667 C 316.547 316.667,315.807 317.344,314.995 318.172 M320.326 318.174 L 319.189 319.348 320.927 321.085 L 322.664 322.823 323.749 321.669 L 324.833 320.515 323.742 321.495 L 322.650 322.474 321.086 320.911 L 319.523 319.347 320.660 318.174 C 321.286 317.528,321.722 317.000,321.631 317.000 C 321.539 317.000,320.952 317.528,320.326 318.174 M119.000 320.167 C 119.622 320.808,120.206 321.333,120.297 321.333 C 120.389 321.333,119.955 320.808,119.333 320.167 C 118.711 319.525,118.128 319.000,118.036 319.000 C 117.944 319.000,118.378 319.525,119.000 320.167 M58.000 319.771 C 58.000 319.828,58.487 320.316,59.083 320.854 L 60.167 321.833 59.188 320.750 C 58.275 319.740,58.000 319.513,58.000 319.771 M336.812 321.750 L 335.833 322.833 336.925 321.847 L 338.016 320.860 339.248 322.093 L 340.480 323.325 338.995 324.912 L 337.510 326.500 339.161 324.922 L 340.813 323.345 339.506 322.006 C 337.933 320.395,338.029 320.404,336.812 321.750 M120.667 321.438 C 120.667 321.495,121.154 321.983,121.750 322.521 L 122.833 323.500 121.854 322.417 C 120.942 321.407,120.667 321.180,120.667 321.438 M91.500 323.333 C 92.216 324.067,92.877 324.667,92.969 324.667 C 93.060 324.667,92.549 324.067,91.833 323.333 C 91.117 322.600,90.456 322.000,90.365 322.000 C 90.273 322.000,90.784 322.600,91.500 323.333 M124.000 324.500 C 124.622 325.142,125.206 325.667,125.297 325.667 C 125.389 325.667,124.955 325.142,124.333 324.500 C 123.711 323.858,123.128 323.333,123.036 323.333 C 122.944 323.333,123.378 323.858,124.000 324.500 M326.162 324.338 C 325.222 325.319,325.215 325.356,325.832 325.921 C 326.433 326.472,326.442 326.472,326.014 325.905 C 325.621 325.384,325.684 325.185,326.512 324.321 C 327.032 323.778,327.383 323.333,327.291 323.333 C 327.200 323.333,326.692 323.785,326.162 324.338 M61.667 323.771 C 61.667 323.828,62.154 324.316,62.750 324.854 L 63.833 325.833 62.854 324.750 C 61.942 323.740,61.667 323.513,61.667 323.771 M125.667 325.771 C 125.667 325.828,126.154 326.316,126.750 326.854 L 127.833 327.833 126.854 326.750 C 125.942 325.740,125.667 325.513,125.667 325.771 M128.667 327.104 C 128.667 327.162,129.154 327.649,129.750 328.188 L 130.833 329.167 129.854 328.083 C 128.942 327.074,128.667 326.847,128.667 327.104 M330.763 328.057 C 329.829 328.992,329.636 329.062,329.103 328.659 C 328.526 328.223,328.525 328.231,329.087 328.843 C 329.660 329.469,329.700 329.456,330.914 328.241 C 331.597 327.559,332.080 327.000,331.988 327.000 C 331.896 327.000,331.345 327.476,330.763 328.057 M128.000 327.771 C 128.000 327.828,128.487 328.316,129.083 328.854 L 130.167 329.833 129.188 328.750 C 128.275 327.740,128.000 327.513,128.000 327.771 M131.382 330.884 C 131.972 331.492,132.522 331.922,132.605 331.840 C 132.688 331.757,133.042 332.054,133.392 332.499 C 133.742 332.944,134.510 333.637,135.098 334.038 C 135.686 334.440,135.071 333.646,133.730 332.273 C 132.390 330.901,131.072 329.778,130.802 329.778 C 130.485 329.778,130.692 330.171,131.382 330.884 M326.916 332.666 L 328.999 334.826 330.583 333.168 L 332.167 331.510 330.582 332.993 L 328.996 334.476 326.915 332.491 L 324.833 330.507 326.916 332.666 M339.995 340.250 L 335.500 344.833 340.083 340.338 C 344.341 336.162,344.818 335.667,344.579 335.667 C 344.530 335.667,342.468 337.729,339.995 340.250 M61.167 340.333 C 63.545 342.717,65.565 344.667,65.657 344.667 C 65.749 344.667,63.878 342.717,61.500 340.333 C 59.122 337.950,57.101 336.000,57.010 336.000 C 56.918 336.000,58.789 337.950,61.167 340.333 M90.146 338.417 L 89.167 339.500 90.250 338.521 C 91.260 337.608,91.487 337.333,91.229 337.333 C 91.172 337.333,90.684 337.821,90.146 338.417 M109.889 343.222 C 109.588 343.523,109.607 344.590,109.917 344.782 C 110.054 344.867,110.167 344.501,110.167 343.968 C 110.167 343.436,110.154 343.000,110.139 343.000 C 110.124 343.000,110.011 343.100,109.889 343.222 M113.000 348.500 C 113.996 349.508,114.886 350.333,114.977 350.333 C 115.069 350.333,114.329 349.508,113.333 348.500 C 112.338 347.492,111.448 346.667,111.356 346.667 C 111.264 346.667,112.004 347.492,113.000 348.500 M109.667 351.771 C 109.667 351.828,110.154 352.316,110.750 352.854 L 111.833 353.833 110.854 352.750 C 109.942 351.740,109.667 351.513,109.667 351.771 M152.077 359.333 C 152.077 359.975,152.146 360.238,152.230 359.917 C 152.314 359.596,152.314 359.071,152.230 358.750 C 152.146 358.429,152.077 358.692,152.077 359.333 M152.411 364.000 C 152.411 364.642,152.479 364.904,152.563 364.583 C 152.647 364.262,152.647 363.738,152.563 363.417 C 152.479 363.096,152.411 363.358,152.411 364.000 M148.437 365.833 C 148.438 366.933,148.501 367.343,148.575 366.744 C 148.649 366.145,148.648 365.245,148.572 364.744 C 148.495 364.243,148.435 364.733,148.437 365.833 M152.744 368.667 C 152.744 369.308,152.813 369.571,152.896 369.250 C 152.980 368.929,152.980 368.404,152.896 368.083 C 152.813 367.762,152.744 368.025,152.744 368.667 M188.083 367.896 C 188.404 367.980,188.929 367.980,189.250 367.896 C 189.571 367.813,189.308 367.744,188.667 367.744 C 188.025 367.744,187.762 367.813,188.083 367.896 M178.077 369.667 C 178.077 370.308,178.146 370.571,178.230 370.250 C 178.314 369.929,178.314 369.404,178.230 369.083 C 178.146 368.762,178.077 369.025,178.077 369.667 M182.411 369.667 C 182.411 370.308,182.479 370.571,182.563 370.250 C 182.647 369.929,182.647 369.404,182.563 369.083 C 182.479 368.762,182.411 369.025,182.411 369.667 M153.077 373.333 C 153.077 373.975,153.146 374.238,153.230 373.917 C 153.314 373.596,153.314 373.071,153.230 372.750 C 153.146 372.429,153.077 372.692,153.077 373.333 M177.744 374.000 C 177.744 374.642,177.813 374.904,177.896 374.583 C 177.980 374.262,177.980 373.738,177.896 373.417 C 177.813 373.096,177.744 373.358,177.744 374.000 M149.091 376.333 C 149.091 377.158,149.156 377.496,149.235 377.083 C 149.315 376.671,149.315 375.996,149.235 375.583 C 149.156 375.171,149.091 375.508,149.091 376.333 M153.411 378.000 C 153.411 378.642,153.479 378.904,153.563 378.583 C 153.647 378.262,153.647 377.738,153.563 377.417 C 153.479 377.096,153.411 377.358,153.411 378.000 M177.411 378.333 C 177.411 378.975,177.479 379.238,177.563 378.917 C 177.647 378.596,177.647 378.071,177.563 377.750 C 177.479 377.429,177.411 377.692,177.411 378.333 M181.751 378.500 C 181.754 379.233,181.823 379.494,181.902 379.079 C 181.982 378.665,181.979 378.065,181.896 377.746 C 181.812 377.427,181.747 377.767,181.751 378.500 M232.667 378.833 C 233.289 379.475,233.872 380.000,233.964 380.000 C 234.056 380.000,233.622 379.475,233.000 378.833 C 232.378 378.192,231.794 377.667,231.703 377.667 C 231.611 377.667,232.045 378.192,232.667 378.833 M182.750 385.230 C 183.071 385.314,183.596 385.314,183.917 385.230 C 184.237 385.146,183.975 385.077,183.333 385.077 C 182.692 385.077,182.429 385.146,182.750 385.230 M186.750 385.563 C 187.071 385.647,187.596 385.647,187.917 385.563 C 188.237 385.479,187.975 385.411,187.333 385.411 C 186.692 385.411,186.429 385.479,186.750 385.563 M190.750 385.896 C 191.071 385.980,191.596 385.980,191.917 385.896 C 192.237 385.813,191.975 385.744,191.333 385.744 C 190.692 385.744,190.429 385.813,190.750 385.896 M186.254 397.569 C 186.669 397.649,187.269 397.646,187.587 397.562 C 187.906 397.479,187.567 397.414,186.833 397.417 C 186.100 397.421,185.839 397.489,186.254 397.569 M213.921 397.569 C 214.335 397.649,214.935 397.646,215.254 397.562 C 215.573 397.479,215.233 397.414,214.500 397.417 C 213.767 397.421,213.506 397.489,213.921 397.569 M191.923 397.908 C 192.522 397.982,193.422 397.981,193.923 397.905 C 194.424 397.829,193.933 397.768,192.833 397.770 C 191.733 397.772,191.324 397.834,191.923 397.908 M207.589 397.908 C 208.188 397.982,209.088 397.981,209.589 397.905 C 210.090 397.829,209.600 397.768,208.500 397.770 C 207.400 397.772,206.990 397.834,207.589 397.908 " stroke="none" fill="#557ba9" fill-rule="evenodd"></path><path id="path1" d="M185.833 0.351 C 86.307 8.374,8.473 85.688,0.506 184.443 C -7.965 289.453,65.879 382.979,170.023 399.143 L 175.546 400.000 200.627 400.000 C 225.577 400.000,225.737 399.996,231.104 399.181 C 317.694 386.038,385.668 318.132,399.143 231.310 L 400.000 225.787 400.000 200.667 L 400.000 175.546 399.143 170.023 C 384.975 78.736,312.348 10.320,219.333 0.638 C 214.847 0.171,190.639 -0.036,185.833 0.351 M219.667 4.150 C 322.428 15.463,397.993 98.736,397.993 200.667 C 397.993 321.920,289.951 414.262,169.864 395.644 C 84.218 382.365,16.042 312.590,5.032 226.945 C 3.654 216.229,3.504 213.643,3.504 200.667 C 3.504 125.196,45.155 57.773,112.628 24.022 C 136.794 11.933,160.248 5.682,189.500 3.532 C 193.845 3.212,215.108 3.648,219.667 4.150 M199.000 17.465 L 199.000 19.333 200.917 19.337 C 201.971 19.339,203.411 19.436,204.118 19.553 L 205.402 19.765 205.192 26.299 C 205.076 29.893,204.895 33.846,204.790 35.083 L 204.599 37.333 206.763 37.333 L 208.927 37.333 209.140 30.750 C 209.256 27.129,209.440 23.133,209.548 21.870 L 209.744 19.573 212.872 19.760 L 216.000 19.947 216.000 18.176 L 216.000 16.405 210.083 16.194 C 206.829 16.078,203.004 15.896,201.583 15.790 L 199.000 15.597 199.000 17.465 M178.833 16.901 C 174.983 17.356,171.815 17.752,171.793 17.781 C 171.771 17.810,172.327 22.333,173.029 27.833 C 173.730 33.333,174.311 38.094,174.319 38.412 C 174.331 38.886,178.077 38.997,178.537 38.537 C 178.557 38.517,178.355 36.577,178.087 34.227 C 177.507 29.124,177.042 29.699,182.231 29.102 C 187.254 28.523,186.630 28.873,186.421 26.754 C 186.267 25.188,186.176 25.024,185.541 25.157 C 182.929 25.705,177.565 26.042,177.337 25.672 C 177.028 25.172,176.604 21.285,176.834 21.055 C 176.926 20.963,179.137 20.602,181.746 20.254 C 184.355 19.906,186.514 19.594,186.542 19.560 C 186.695 19.381,186.216 16.006,186.041 16.037 C 185.927 16.057,182.683 16.446,178.833 16.901 M221.000 16.949 C 221.000 17.337,218.026 36.369,217.832 37.221 C 217.690 37.850,217.850 37.970,219.084 38.162 C 219.863 38.283,220.742 38.450,221.039 38.533 C 221.491 38.659,221.669 38.056,222.149 34.758 C 222.888 29.686,222.895 29.667,223.834 29.667 C 226.209 29.667,226.682 30.184,229.362 35.708 L 231.404 39.917 233.785 40.070 C 235.095 40.154,236.467 40.389,236.833 40.591 C 237.200 40.793,238.217 41.185,239.093 41.462 L 240.685 41.966 242.093 39.823 C 243.743 37.311,243.202 37.405,247.993 38.793 C 252.289 40.037,252.240 39.985,252.300 43.364 L 252.333 45.229 254.675 45.912 L 257.017 46.595 256.843 45.547 C 256.747 44.971,256.204 39.850,255.636 34.167 C 255.068 28.483,254.559 23.787,254.504 23.730 C 254.450 23.674,253.497 23.352,252.386 23.016 L 250.367 22.405 243.639 31.202 C 239.939 36.041,236.804 40.000,236.672 40.000 C 236.541 40.000,236.005 38.987,235.481 37.750 C 234.158 34.626,232.456 31.630,231.536 30.807 L 230.762 30.114 232.648 29.724 C 236.333 28.963,238.344 25.065,236.871 21.539 C 235.957 19.350,234.493 18.759,227.333 17.684 C 224.858 17.312,222.421 16.935,221.917 16.846 C 221.412 16.756,221.000 16.803,221.000 16.949 M156.500 20.448 C 144.662 23.519,146.673 42.488,158.833 42.454 C 166.700 42.432,170.676 37.066,168.863 28.917 C 167.355 22.140,162.582 18.870,156.500 20.448 M228.792 21.372 C 232.395 22.208,233.000 22.641,233.000 24.385 C 233.000 26.911,231.618 27.380,226.223 26.685 C 223.402 26.321,223.555 26.536,224.172 23.799 C 225.007 20.099,224.485 20.373,228.792 21.372 M160.800 24.465 C 165.345 26.364,166.498 35.529,162.502 37.999 C 157.668 40.986,152.667 36.914,152.667 29.990 C 152.667 25.676,156.868 22.822,160.800 24.465 M126.448 31.259 L 118.730 34.730 119.398 36.337 L 120.066 37.944 122.746 36.648 C 124.221 35.935,125.525 35.412,125.645 35.486 C 125.765 35.561,127.481 39.215,129.460 43.608 L 133.057 51.595 135.079 50.802 C 136.191 50.366,137.131 49.970,137.167 49.922 C 137.204 49.873,135.606 46.246,133.617 41.861 C 131.627 37.476,130.000 33.832,130.000 33.762 C 130.000 33.693,131.264 33.029,132.809 32.288 L 135.617 30.940 134.954 29.394 C 134.590 28.543,134.263 27.834,134.229 27.817 C 134.195 27.801,130.693 29.350,126.448 31.259 M251.476 32.762 L 251.713 36.358 250.814 36.132 C 248.267 35.493,246.171 34.764,246.205 34.530 C 246.227 34.386,247.277 32.873,248.539 31.169 C 251.189 27.590,251.135 27.561,251.476 32.762 M265.712 31.100 C 264.972 32.787,263.028 37.190,261.393 40.885 L 258.419 47.604 260.185 48.254 L 261.951 48.905 264.701 42.778 C 266.213 39.408,267.552 36.767,267.675 36.909 C 267.799 37.051,268.232 39.567,268.636 42.500 C 269.041 45.433,269.533 48.928,269.729 50.267 L 270.086 52.701 272.012 53.673 L 273.937 54.645 275.285 51.572 C 276.027 49.883,277.969 45.483,279.601 41.795 L 282.568 35.091 280.819 34.232 L 279.069 33.374 276.305 39.691 C 274.785 43.166,273.441 45.894,273.317 45.754 C 273.194 45.614,272.614 41.980,272.029 37.677 C 271.444 33.375,270.928 29.817,270.883 29.772 C 270.837 29.726,269.958 29.317,268.929 28.861 L 267.058 28.034 265.712 31.100 M112.253 38.098 C 110.636 39.052,110.492 38.577,114.379 45.133 C 116.238 48.268,117.828 50.956,117.913 51.106 C 118.098 51.432,116.688 50.721,108.969 46.592 L 103.104 43.455 101.385 44.296 C 100.440 44.759,99.667 45.282,99.667 45.458 C 99.667 45.964,110.136 63.650,110.441 63.659 C 110.591 63.663,111.363 63.287,112.155 62.822 L 113.596 61.978 110.433 56.572 C 108.694 53.599,107.125 50.897,106.948 50.567 C 106.560 49.845,107.121 50.118,115.569 54.762 L 121.305 57.916 122.986 56.882 C 123.910 56.314,124.667 55.708,124.667 55.537 C 124.667 54.962,114.171 37.344,113.833 37.354 C 113.650 37.359,112.939 37.694,112.253 38.098 M287.716 40.211 C 283.540 42.348,283.849 46.222,288.627 51.642 C 291.674 55.098,291.996 56.097,290.455 57.309 C 287.910 59.311,282.712 55.812,283.552 52.663 L 283.885 51.416 282.136 50.558 L 280.387 49.700 280.027 50.733 C 277.610 57.667,289.104 64.896,294.295 59.705 C 297.269 56.731,296.928 54.028,293.060 49.909 C 288.848 45.423,288.275 44.316,289.808 43.618 C 292.118 42.565,295.775 45.058,295.620 47.580 C 295.511 49.348,298.619 51.669,299.326 50.348 C 302.076 45.209,293.161 37.425,287.716 40.211 M88.000 54.209 C 84.792 56.686,82.120 58.842,82.063 59.000 C 81.951 59.313,94.190 75.433,94.671 75.605 C 95.008 75.726,107.777 66.799,107.941 66.328 C 108.076 65.942,106.366 63.667,105.941 63.667 C 105.768 63.667,103.526 65.272,100.958 67.234 C 98.248 69.305,96.194 70.659,96.061 70.462 C 95.936 70.275,95.100 69.179,94.204 68.026 C 93.283 66.842,92.718 65.836,92.905 65.715 C 94.388 64.751,101.000 59.462,101.000 59.239 C 101.000 58.802,99.294 56.667,98.944 56.667 C 98.774 56.667,96.804 58.089,94.567 59.827 C 92.330 61.565,90.425 62.983,90.333 62.978 C 89.876 62.952,87.255 59.253,87.556 59.056 C 89.327 57.898,96.333 52.456,96.333 52.238 C 96.333 51.745,94.604 49.666,94.210 49.686 C 94.003 49.696,91.208 51.732,88.000 54.209 M300.665 57.721 C 293.531 67.042,293.940 66.239,295.635 67.601 C 297.384 69.006,297.281 69.045,299.537 66.137 C 300.617 64.746,301.679 63.380,301.897 63.101 C 302.347 62.526,303.209 63.012,305.943 65.380 C 309.665 68.605,313.721 68.083,316.299 64.046 C 318.380 60.788,317.999 58.252,315.051 55.734 C 312.246 53.338,307.445 49.667,307.117 49.667 C 306.959 49.667,304.056 53.291,300.665 57.721 M309.644 55.655 C 313.544 57.645,314.527 61.021,311.641 62.513 C 310.275 63.220,309.263 62.835,304.899 59.951 C 304.643 59.783,307.862 55.057,308.263 55.011 C 308.316 55.005,308.938 55.295,309.644 55.655 M74.361 65.806 C 72.944 67.235,72.307 68.117,72.440 68.465 C 72.550 68.751,74.169 71.576,76.037 74.743 C 77.905 77.909,79.504 80.627,79.590 80.783 C 79.797 81.157,79.489 80.986,72.617 76.907 L 66.733 73.416 64.457 75.710 L 62.181 78.003 65.841 81.692 C 67.853 83.721,71.279 87.052,73.453 89.095 L 77.406 92.810 78.536 91.576 C 80.059 89.914,80.364 90.404,73.953 84.198 C 70.810 81.156,68.349 78.667,68.485 78.667 C 68.620 78.667,71.852 80.542,75.667 82.833 C 83.641 87.624,82.846 87.360,84.432 85.736 C 86.008 84.122,86.299 84.989,81.500 77.000 C 79.208 73.185,77.333 69.939,77.333 69.786 C 77.333 69.632,79.958 72.129,83.166 75.333 L 88.999 81.158 90.416 79.720 L 91.833 78.281 84.376 70.974 C 80.275 66.955,76.820 63.667,76.700 63.667 C 76.579 63.667,75.527 64.629,74.361 65.806 M321.998 66.767 C 315.555 68.575,311.452 76.006,313.910 81.417 C 318.002 90.426,329.611 90.088,333.987 80.833 C 337.349 73.724,329.602 64.634,321.998 66.767 M144.667 68.645 C 140.745 69.417,122.048 75.493,122.428 75.872 C 122.484 75.928,124.098 75.693,126.015 75.349 C 140.562 72.741,160.310 73.864,175.162 78.145 L 179.000 79.251 179.000 76.019 L 179.000 72.788 175.829 71.892 C 169.187 70.016,159.073 68.356,151.500 67.900 C 149.845 67.800,147.859 68.016,144.667 68.645 M328.227 71.628 C 332.038 74.389,331.264 79.563,326.531 82.963 C 323.609 85.062,320.076 84.699,318.090 82.096 C 313.964 76.686,322.724 67.641,328.227 71.628 M53.250 87.815 C 47.673 95.166,47.969 94.542,49.482 95.750 C 51.022 96.978,50.981 96.994,53.034 94.346 C 54.024 93.070,54.908 92.024,55.000 92.021 C 55.092 92.018,58.277 94.412,62.079 97.341 C 65.881 100.270,69.106 102.666,69.246 102.666 C 69.544 102.665,71.333 99.909,71.333 99.451 C 71.333 99.212,59.289 89.733,57.558 88.610 C 57.356 88.479,57.994 87.423,59.107 86.045 C 61.335 83.288,61.327 83.328,59.856 82.206 C 58.274 81.000,58.690 80.646,53.250 87.815 M333.893 88.160 C 329.526 91.520,325.860 94.362,325.747 94.475 C 325.517 94.705,328.311 97.667,328.758 97.667 C 328.916 97.667,330.505 96.542,332.291 95.167 C 336.067 92.259,335.755 92.357,336.639 93.789 C 337.646 95.419,337.510 97.248,336.034 101.908 L 334.743 105.982 335.955 107.606 C 336.621 108.500,337.296 109.291,337.455 109.365 C 338.000 109.621,340.630 101.966,340.649 100.068 L 340.667 98.302 342.035 99.401 C 346.893 103.303,353.052 97.011,349.682 91.589 C 348.111 89.061,342.564 81.996,342.174 82.025 C 341.986 82.040,338.260 84.800,333.893 88.160 M344.250 90.172 C 346.690 93.465,346.960 94.792,345.434 95.992 C 343.665 97.384,342.480 96.889,339.918 93.688 C 337.231 90.332,337.247 90.845,339.767 88.924 C 342.302 86.991,341.786 86.848,344.250 90.172 M353.754 100.771 C 352.387 101.695,352.378 101.612,354.209 104.551 C 355.058 105.912,355.695 107.069,355.626 107.122 C 355.557 107.175,352.096 109.209,347.936 111.641 L 340.372 116.064 341.255 117.865 C 342.375 120.147,341.569 120.378,350.238 115.292 C 354.339 112.885,357.739 110.973,357.793 111.042 C 357.847 111.110,358.553 112.253,359.362 113.580 C 360.171 114.908,360.948 115.996,361.088 115.997 C 361.531 116.002,363.658 114.513,363.663 114.195 C 363.670 113.632,355.504 100.014,355.167 100.028 C 354.983 100.035,354.348 100.370,353.754 100.771 M46.141 101.455 C 44.571 102.166,38.351 111.227,37.790 113.621 C 37.673 114.119,54.653 124.667,55.573 124.667 C 55.854 124.667,57.333 121.920,57.333 121.399 C 57.333 121.261,55.687 120.177,53.674 118.991 C 49.434 116.491,49.667 116.867,51.281 115.130 C 52.718 113.583,53.027 113.506,59.252 113.137 L 63.004 112.914 64.169 110.997 C 64.809 109.942,65.333 108.967,65.333 108.830 C 65.333 108.365,56.241 108.864,54.996 109.398 L 53.825 109.900 53.930 107.533 C 54.128 103.066,49.887 99.758,46.141 101.455 M49.654 106.063 C 51.041 107.552,50.476 109.457,47.117 114.619 C 47.059 114.709,43.427 112.660,42.727 112.143 C 42.380 111.887,46.074 105.825,46.740 105.557 C 47.744 105.154,49.012 105.374,49.654 106.063 M356.833 122.351 C 351.700 122.676,346.789 122.956,345.920 122.971 L 344.340 123.000 345.391 125.131 L 346.442 127.263 349.033 127.085 L 351.624 126.908 353.554 130.785 L 355.484 134.662 353.601 136.581 L 351.718 138.500 352.723 140.466 L 353.727 142.432 355.330 140.799 C 356.212 139.901,359.717 136.193,363.118 132.558 L 369.302 125.950 368.246 123.808 C 367.589 122.476,366.997 121.684,366.678 121.713 C 366.397 121.738,361.967 122.025,356.833 122.351 M30.586 127.716 L 29.754 129.833 37.784 137.910 C 42.201 142.352,45.921 145.877,46.052 145.743 C 46.182 145.609,46.577 144.750,46.928 143.833 L 47.567 142.167 45.729 140.269 L 43.891 138.371 45.546 134.435 L 47.201 130.500 49.887 130.533 L 52.573 130.566 53.598 128.488 L 54.622 126.410 46.561 126.200 C 42.128 126.084,36.906 125.901,34.959 125.794 L 31.417 125.599 30.586 127.716 M361.167 129.000 C 359.524 130.650,358.131 132.000,358.071 132.000 C 357.849 132.000,355.649 126.906,355.805 126.751 C 355.987 126.569,360.379 126.118,362.660 126.047 L 364.153 126.000 361.167 129.000 M43.516 130.405 C 43.612 130.501,43.160 131.741,42.513 133.162 L 41.335 135.746 39.918 134.481 C 39.138 133.785,37.677 132.471,36.671 131.560 L 34.841 129.904 39.092 130.068 C 41.430 130.158,43.421 130.310,43.516 130.405 M371.609 134.902 L 370.051 135.358 371.026 138.245 C 372.211 141.749,373.102 141.052,363.267 144.314 C 355.222 146.982,355.040 147.062,355.326 147.814 C 355.487 148.237,355.782 149.190,355.982 149.931 L 356.344 151.279 364.741 148.475 C 369.359 146.933,373.238 145.783,373.361 145.919 C 373.484 146.055,373.990 147.405,374.487 148.919 C 374.983 150.433,375.489 151.610,375.611 151.536 C 375.733 151.462,376.451 151.235,377.207 151.033 L 378.580 150.664 375.963 142.617 C 374.524 138.191,373.306 134.542,373.257 134.508 C 373.207 134.474,372.466 134.652,371.609 134.902 M28.793 140.340 C 26.856 140.613,25.713 141.479,24.914 143.278 C 24.222 144.837,21.310 154.333,21.524 154.333 C 21.670 154.333,38.711 159.541,40.562 160.152 L 41.957 160.612 42.619 158.653 L 43.280 156.695 41.473 156.014 C 40.480 155.640,38.804 155.015,37.750 154.626 C 35.132 153.659,35.153 153.703,36.020 150.943 C 38.252 143.837,35.250 139.433,28.793 140.340 M31.672 144.890 C 33.341 145.875,33.550 146.689,32.917 149.746 C 32.200 153.218,32.252 153.183,29.129 152.300 C 25.881 151.382,25.849 151.354,26.474 149.965 C 26.754 149.343,27.140 148.207,27.331 147.441 C 27.951 144.964,29.879 143.831,31.672 144.890 M374.333 155.346 C 371.492 156.030,366.821 157.147,363.954 157.828 L 358.741 159.065 359.216 161.100 C 359.477 162.219,359.723 163.163,359.762 163.198 C 359.801 163.232,361.558 162.843,363.667 162.334 C 365.775 161.824,370.447 160.705,374.048 159.847 L 380.597 158.286 380.120 156.242 C 379.858 155.118,379.611 154.177,379.571 154.151 C 379.532 154.124,377.175 154.662,374.333 155.346 M19.663 162.738 C 19.442 164.074,18.843 167.567,18.333 170.500 C 17.822 173.433,17.426 175.857,17.452 175.886 C 17.528 175.969,38.159 179.586,38.233 179.529 C 38.270 179.501,38.837 176.258,39.495 172.322 C 40.152 168.387,40.763 164.925,40.853 164.629 C 40.990 164.177,37.811 163.093,37.430 163.461 C 37.391 163.499,36.957 165.949,36.464 168.907 C 35.972 171.865,35.466 174.452,35.340 174.655 C 35.104 175.038,30.837 174.518,30.008 174.005 C 29.671 173.797,30.419 168.644,31.468 163.936 C 31.573 163.468,28.813 162.409,28.446 162.776 C 28.411 162.811,27.972 165.088,27.469 167.836 C 26.966 170.585,26.459 172.947,26.342 173.085 C 26.111 173.359,22.335 172.722,21.898 172.335 C 21.676 172.137,23.001 163.421,23.528 161.622 C 23.648 161.210,23.382 161.024,22.427 160.855 C 21.734 160.732,20.919 160.559,20.616 160.470 C 20.162 160.337,19.993 160.738,19.663 162.738 M371.333 164.393 C 358.789 165.715,359.369 184.606,371.957 184.725 C 379.909 184.800,384.396 180.711,383.909 173.833 C 383.425 167.005,378.886 163.598,371.333 164.393 M377.000 169.292 C 380.656 171.926,380.252 177.347,376.253 179.316 C 369.113 182.831,362.761 178.657,365.574 172.297 C 366.992 169.093,374.121 167.218,377.000 169.292 M259.715 172.481 C 250.517 174.233,244.961 180.989,246.261 188.838 C 247.356 195.446,251.634 198.930,263.419 202.813 C 274.531 206.475,277.131 208.739,276.561 214.259 C 275.400 225.507,253.343 224.469,251.720 213.089 L 251.493 211.500 247.913 211.405 L 244.333 211.311 244.333 212.620 C 244.333 230.879,280.740 233.682,283.644 215.647 C 285.100 206.607,280.098 201.117,266.500 196.831 C 256.490 193.675,253.364 191.270,253.341 186.705 C 253.312 181.042,257.062 178.173,264.500 178.169 C 271.640 178.165,275.622 180.975,276.296 186.493 L 276.500 188.167 280.131 188.262 L 283.762 188.357 283.578 186.595 C 282.538 176.683,271.605 170.216,259.715 172.481 M123.333 173.091 C 123.333 173.337,125.223 178.629,127.534 184.852 C 129.844 191.075,132.256 197.742,132.894 199.667 C 133.532 201.592,134.242 203.467,134.472 203.833 C 134.701 204.200,136.752 209.560,139.028 215.745 L 143.167 226.990 146.333 226.994 L 149.500 226.998 156.794 207.249 C 160.806 196.387,164.265 187.200,164.481 186.833 C 164.697 186.467,165.333 184.892,165.893 183.333 C 166.453 181.775,167.477 178.925,168.168 177.000 C 168.860 175.075,169.498 173.308,169.586 173.072 C 169.712 172.736,168.903 172.665,165.809 172.739 L 161.872 172.833 159.818 178.667 C 157.206 186.083,156.650 187.698,151.151 203.833 C 146.534 217.378,146.462 217.573,146.164 217.275 C 145.965 217.076,140.085 199.988,140.048 199.500 C 140.034 199.317,138.966 196.167,137.674 192.500 C 136.382 188.833,134.314 182.908,133.079 179.333 L 130.833 172.833 127.083 172.739 C 124.125 172.665,123.333 172.739,123.333 173.091 M177.781 176.917 C 177.900 179.254,177.998 191.479,177.999 204.083 L 178.000 227.000 181.500 227.000 L 185.000 227.000 185.000 200.042 L 185.000 173.083 183.958 172.875 C 183.385 172.760,181.712 172.667,180.240 172.667 L 177.564 172.667 177.781 176.917 M230.250 172.905 L 229.333 173.044 229.323 191.105 C 229.310 213.301,229.149 214.778,226.356 218.305 C 222.505 223.167,211.715 223.443,207.195 218.796 C 204.013 215.525,204.009 215.493,204.004 192.583 L 204.000 173.000 200.500 173.000 L 197.000 173.000 197.000 192.439 C 197.000 213.680,197.056 214.448,198.876 218.260 C 204.801 230.669,227.441 230.992,233.916 218.760 C 236.195 214.457,236.121 215.265,236.255 192.917 L 236.375 172.667 233.771 172.717 C 232.339 172.744,230.754 172.829,230.250 172.905 M22.667 182.624 C 17.542 184.317,16.404 186.271,15.984 194.104 C 15.826 197.058,15.727 199.501,15.765 199.533 C 15.803 199.566,19.733 199.761,24.500 199.966 C 29.267 200.171,34.083 200.422,35.202 200.524 L 37.238 200.710 37.470 195.771 C 37.847 187.752,36.685 185.199,31.814 183.340 C 29.682 182.526,24.250 182.101,22.667 182.624 M31.464 187.505 C 33.419 188.433,33.667 189.039,33.667 192.908 L 33.667 196.333 32.083 196.321 C 29.727 196.303,19.606 195.717,19.480 195.591 C 19.206 195.317,19.989 189.337,20.387 188.669 C 21.582 186.658,28.211 185.962,31.464 187.505 M371.583 189.250 L 363.667 189.345 363.667 191.321 L 363.667 193.298 370.750 193.110 L 377.833 192.922 370.750 197.495 L 363.667 202.068 363.667 204.252 L 363.667 206.437 368.417 206.220 C 371.029 206.100,375.829 206.002,379.083 206.001 L 385.000 206.000 385.000 204.012 L 385.000 202.024 377.750 202.216 L 370.500 202.409 377.750 197.837 L 385.000 193.266 385.000 191.133 L 385.000 189.000 382.250 189.077 C 380.738 189.119,375.938 189.197,371.583 189.250 M346.668 198.093 C 342.055 211.720,332.506 226.744,321.141 238.253 L 316.777 242.672 319.460 244.220 L 322.143 245.767 326.655 241.114 C 334.824 232.690,340.366 224.944,342.597 218.833 C 343.858 215.381,348.314 195.202,347.906 194.794 C 347.856 194.745,347.299 196.229,346.668 198.093 M33.833 240.378 C 22.494 243.764,21.013 245.565,23.191 253.326 C 25.070 260.018,27.013 260.236,42.221 255.459 L 45.942 254.290 45.288 252.355 L 44.635 250.420 40.234 251.717 C 37.814 252.430,34.647 253.386,33.196 253.840 C 30.003 254.841,29.161 254.864,27.730 253.991 C 25.596 252.690,25.046 249.123,26.725 247.467 C 27.329 246.872,40.671 242.333,41.817 242.333 C 41.893 242.333,41.652 241.433,41.281 240.333 C 40.909 239.233,40.582 238.346,40.553 238.360 C 40.524 238.375,37.500 239.283,33.833 240.378 M368.333 248.742 C 362.375 249.101,357.468 249.426,357.428 249.464 C 357.389 249.501,357.070 250.454,356.719 251.581 L 356.081 253.630 364.610 260.732 C 374.337 268.832,373.561 268.417,374.332 265.924 L 374.923 264.015 373.045 262.443 C 372.012 261.578,371.114 260.834,371.049 260.789 C 370.984 260.745,371.521 258.936,372.243 256.771 C 373.712 252.363,373.607 252.455,377.237 252.373 L 378.974 252.333 379.344 250.959 C 379.548 250.202,379.850 249.227,380.016 248.792 C 380.263 248.143,380.213 248.008,379.742 248.045 C 379.425 248.070,374.292 248.384,368.333 248.742 M369.541 253.583 C 369.448 253.904,369.121 255.067,368.815 256.167 C 368.052 258.915,368.214 258.921,364.568 255.995 L 361.302 253.373 362.734 253.245 C 367.088 252.855,369.716 252.985,369.541 253.583 M37.130 263.417 L 27.428 267.722 28.391 269.501 L 29.354 271.279 35.573 268.480 C 38.994 266.941,41.829 265.717,41.873 265.762 C 41.917 265.806,39.879 268.886,37.343 272.605 L 32.732 279.368 33.568 281.307 L 34.405 283.247 43.619 279.095 C 48.687 276.812,53.013 274.868,53.232 274.776 C 53.514 274.658,53.378 274.094,52.772 272.857 L 51.913 271.106 45.567 273.886 C 42.077 275.414,39.185 276.628,39.141 276.583 C 39.098 276.537,41.210 273.453,43.836 269.728 L 48.611 262.956 47.775 261.062 C 47.315 260.019,46.915 259.154,46.886 259.139 C 46.857 259.124,42.467 261.049,37.130 263.417 M353.253 265.808 C 346.932 268.064,345.453 277.082,350.640 281.746 C 356.181 286.728,363.933 286.812,367.258 281.927 C 370.042 277.837,369.955 273.258,367.042 270.521 L 366.000 269.542 364.971 270.521 C 363.197 272.210,363.147 272.546,364.451 273.989 C 366.647 276.420,366.719 278.332,364.692 280.359 C 360.555 284.496,350.108 278.733,351.665 273.172 C 352.324 270.820,355.289 268.649,356.674 269.505 C 356.853 269.615,357.005 269.585,357.012 269.436 C 357.018 269.288,357.230 268.304,357.482 267.250 L 357.940 265.333 356.220 265.348 C 355.274 265.356,353.939 265.563,353.253 265.808 M46.928 284.427 C 42.029 287.217,38.017 289.634,38.011 289.798 C 37.993 290.281,39.805 292.999,40.144 292.999 C 40.315 293.000,44.459 290.670,49.352 287.822 L 58.249 282.645 57.375 280.992 C 56.258 278.882,57.215 278.568,46.928 284.427 M103.167 281.730 C 101.883 282.483,100.800 283.123,100.759 283.152 C 99.938 283.727,106.506 302.433,109.835 309.003 C 111.569 312.424,117.177 318.350,125.333 325.378 C 132.086 331.196,132.865 331.785,130.981 329.647 C 119.753 316.907,110.229 298.580,106.784 283.083 C 106.076 279.899,106.204 279.947,103.167 281.730 M341.250 285.119 C 340.746 285.917,340.338 286.704,340.344 286.868 C 340.355 287.175,357.727 297.667,358.223 297.666 C 358.538 297.665,360.339 294.920,360.323 294.465 C 360.312 294.158,342.939 283.666,342.443 283.667 C 342.291 283.668,341.754 284.321,341.250 285.119 M58.421 287.100 C 57.042 288.038,57.026 287.947,59.060 290.889 C 60.217 292.562,60.660 293.465,60.403 293.623 C 58.064 295.069,46.333 303.226,46.333 303.407 C 46.333 303.822,48.447 306.667,48.756 306.667 C 48.918 306.667,52.152 304.549,55.942 301.961 C 59.732 299.373,62.983 297.199,63.167 297.129 C 63.350 297.059,64.175 298.050,65.000 299.331 C 66.701 301.971,66.610 301.926,68.167 300.917 C 69.694 299.928,69.944 300.513,64.812 293.063 C 59.906 285.940,59.999 286.027,58.421 287.100 M335.302 295.228 C 333.516 296.899,327.559 304.855,327.730 305.341 C 327.864 305.719,344.244 317.667,344.629 317.667 C 344.971 317.667,346.667 315.516,346.667 315.082 C 346.667 314.919,345.098 313.672,343.181 312.310 C 339.139 309.438,339.297 309.750,340.983 307.978 L 342.299 306.594 347.497 306.714 L 352.694 306.833 354.046 305.060 C 354.790 304.085,355.321 303.210,355.227 303.116 C 354.948 302.837,345.582 302.810,344.599 303.086 L 343.699 303.338 344.183 302.180 C 346.562 296.486,339.700 291.114,335.302 295.228 M340.081 297.992 C 341.122 298.811,341.409 300.173,340.831 301.556 C 340.322 302.775,337.265 307.004,336.967 306.902 C 336.857 306.864,335.823 305.975,334.670 304.926 L 332.573 303.018 334.019 301.092 C 336.872 297.291,338.277 296.573,340.081 297.992 M63.611 309.665 C 59.334 313.330,55.791 316.460,55.738 316.619 C 55.626 316.956,65.959 328.333,66.377 328.333 C 66.530 328.333,67.139 327.902,67.729 327.374 C 69.021 326.221,69.232 326.611,64.373 321.179 L 60.912 317.310 63.017 315.405 C 65.626 313.045,64.989 312.843,68.835 317.250 C 72.519 321.472,72.281 321.336,73.729 320.041 C 75.007 318.899,75.182 319.247,70.858 314.329 C 69.191 312.433,68.030 310.847,68.218 310.723 C 68.402 310.600,69.268 309.908,70.141 309.184 C 71.729 307.869,71.731 307.868,72.282 308.565 C 74.077 310.835,79.174 316.331,79.475 316.321 C 80.231 316.296,81.755 314.747,81.477 314.287 C 80.939 313.397,71.867 303.000,71.630 303.000 C 71.496 303.000,67.888 305.999,63.611 309.665 M319.197 314.054 C 316.339 317.016,314.000 319.553,314.000 319.690 C 314.000 320.002,328.687 334.333,329.007 334.333 C 329.135 334.333,331.774 331.870,334.870 328.860 L 340.500 323.387 339.222 322.110 L 337.945 320.833 333.812 325.138 L 329.679 329.442 327.756 327.663 C 326.699 326.684,325.698 325.767,325.532 325.624 C 325.366 325.481,326.829 323.697,328.782 321.658 C 332.864 317.399,332.686 317.802,331.133 316.315 L 329.933 315.167 326.289 318.985 L 322.645 322.804 320.911 321.070 L 319.177 319.336 322.180 316.251 C 323.831 314.555,325.620 312.678,326.155 312.082 L 327.128 310.997 325.998 309.832 C 324.515 308.301,325.092 307.943,319.197 314.054 M77.723 325.531 C 73.842 329.857,70.667 333.515,70.667 333.661 C 70.667 334.163,78.434 340.743,79.632 341.254 C 88.019 344.837,98.626 331.524,92.804 324.722 C 91.407 323.090,85.452 317.667,85.057 317.667 C 84.904 317.667,81.604 321.206,77.723 325.531 M87.912 324.833 C 91.767 328.322,91.706 330.471,87.631 334.724 C 83.957 338.559,82.281 338.714,78.500 335.572 C 76.005 333.498,75.737 334.286,81.000 328.214 C 86.262 322.144,85.404 322.564,87.912 324.833 M307.945 324.868 L 305.724 326.698 308.532 333.568 C 310.076 337.347,311.298 340.480,311.248 340.530 C 311.198 340.580,308.574 338.682,305.418 336.311 C 302.262 333.940,299.521 332.000,299.327 332.000 C 298.870 332.000,294.667 335.367,294.667 335.733 C 294.667 336.071,306.855 351.377,307.457 351.794 C 307.904 352.104,310.667 350.512,310.667 349.944 C 310.667 349.778,308.543 346.986,305.947 343.738 C 300.031 336.335,300.382 336.802,301.000 337.169 C 301.275 337.332,304.305 339.611,307.734 342.233 C 314.733 347.585,314.340 347.423,316.214 345.740 L 317.595 344.500 313.995 336.749 C 312.015 332.487,310.519 329.076,310.671 329.169 C 310.823 329.263,313.161 332.113,315.867 335.503 C 318.573 338.893,320.905 341.667,321.049 341.667 C 321.436 341.667,323.667 339.646,323.667 339.295 C 323.667 338.801,310.901 322.998,310.519 323.019 C 310.325 323.030,309.167 323.862,307.945 324.868 M108.383 339.544 C 104.207 341.681,104.515 345.555,109.294 350.975 C 112.340 354.431,112.663 355.430,111.122 356.642 C 108.577 358.644,103.379 355.146,104.219 351.996 L 104.552 350.749 102.786 349.883 L 101.021 349.018 100.659 350.361 C 98.800 357.266,109.962 364.038,114.961 359.039 C 117.935 356.065,117.594 353.361,113.727 349.242 C 109.514 344.757,108.942 343.649,110.474 342.951 C 112.820 341.882,116.424 344.228,116.291 346.736 L 116.203 348.381 117.938 349.330 C 119.915 350.411,120.120 350.288,120.521 347.774 C 121.285 342.997,112.834 337.266,108.383 339.544 M283.417 342.368 C 281.984 343.204,281.698 343.518,281.837 344.111 C 281.930 344.508,282.751 349.467,283.662 355.131 C 285.583 367.077,285.160 366.005,287.439 364.701 L 289.251 363.665 288.783 361.430 C 288.180 358.552,288.026 358.784,292.139 356.350 L 295.673 354.258 297.473 355.796 C 299.587 357.602,299.590 357.602,301.701 356.417 C 303.810 355.232,304.546 356.088,294.656 348.228 C 285.005 340.559,285.805 340.976,283.417 342.368 M124.733 348.326 L 124.077 349.904 126.736 351.200 C 128.198 351.914,129.453 352.591,129.524 352.706 C 129.625 352.869,123.104 367.689,122.503 368.662 C 122.423 368.791,123.315 369.277,124.486 369.742 L 126.614 370.586 130.209 362.604 C 134.437 353.215,133.680 353.997,136.948 355.640 L 139.591 356.969 140.267 355.343 C 140.747 354.186,140.830 353.668,140.555 353.551 C 140.341 353.460,136.842 351.892,132.778 350.067 L 125.389 346.748 124.733 348.326 M291.069 350.620 C 291.932 351.287,292.643 351.908,292.650 352.000 C 292.663 352.200,288.303 354.737,287.848 354.794 C 287.579 354.827,286.064 348.425,286.016 347.055 C 286.007 346.810,286.787 347.239,287.750 348.008 C 288.712 348.777,290.206 349.952,291.069 350.620 M258.132 354.582 L 251.430 357.053 255.046 366.913 C 259.281 378.464,258.388 377.030,260.887 376.278 L 262.941 375.660 261.306 371.428 C 260.406 369.101,259.782 367.093,259.919 366.967 C 260.055 366.841,261.742 366.177,263.667 365.491 C 265.592 364.806,267.341 364.179,267.555 364.098 C 267.829 363.994,267.749 363.485,267.281 362.358 L 266.619 360.766 262.583 362.223 C 260.364 363.025,258.443 363.565,258.315 363.424 C 257.812 362.868,256.653 359.214,256.902 358.970 C 257.048 358.828,259.030 358.019,261.307 357.173 C 266.737 355.157,266.385 355.451,265.543 353.639 L 264.833 352.111 258.132 354.582 M140.598 364.449 C 132.485 374.407,132.926 373.564,135.419 374.336 L 137.339 374.930 138.919 372.979 C 140.745 370.725,140.446 370.748,145.599 372.476 C 149.205 373.684,149.242 373.730,149.300 377.054 L 149.333 378.942 151.417 379.580 C 152.563 379.931,153.522 380.207,153.548 380.193 C 153.637 380.145,151.938 357.168,151.837 357.064 C 151.783 357.007,150.829 356.685,149.717 356.349 L 147.696 355.737 140.598 364.449 M238.333 359.552 C 231.318 360.963,228.086 367.351,230.545 374.948 C 233.598 384.381,247.832 383.540,250.240 373.785 C 252.241 365.675,245.853 358.039,238.333 359.552 M158.852 360.919 C 158.731 361.605,158.560 362.409,158.474 362.706 C 158.346 363.145,158.860 363.355,161.242 363.841 C 162.850 364.168,164.285 364.539,164.430 364.665 C 164.628 364.836,162.500 375.875,161.207 381.390 C 161.097 381.858,164.497 382.910,164.905 382.534 C 164.944 382.498,165.754 378.725,166.706 374.151 C 168.756 364.291,168.223 365.128,171.941 365.934 L 174.962 366.589 175.252 364.878 C 175.411 363.937,175.519 363.128,175.491 363.082 C 175.464 363.035,172.079 362.325,167.971 361.504 C 163.862 360.683,160.179 359.935,159.787 359.842 C 159.179 359.698,159.040 359.858,158.852 360.919 M148.642 367.256 L 148.667 370.013 147.791 369.793 C 142.563 368.481,142.659 368.717,145.762 364.795 L 148.167 361.757 148.392 363.129 C 148.516 363.883,148.628 365.740,148.642 367.256 M178.658 364.063 C 178.654 364.487,178.295 369.258,177.860 374.667 C 177.426 380.075,177.092 384.522,177.119 384.549 C 177.145 384.575,180.317 384.841,184.167 385.139 C 188.017 385.436,191.635 385.755,192.207 385.847 C 193.245 386.014,193.248 386.010,193.420 384.257 C 193.630 382.126,194.296 382.462,189.000 382.027 C 186.525 381.824,183.842 381.573,183.038 381.468 L 181.575 381.279 181.758 378.614 C 181.858 377.148,182.019 375.870,182.114 375.775 C 182.288 375.601,190.055 376.215,191.706 376.532 C 192.543 376.693,192.586 376.628,192.753 374.933 C 192.964 372.788,193.569 373.120,188.666 372.684 C 186.375 372.480,183.993 372.232,183.373 372.133 L 182.246 371.953 182.419 369.791 C 182.515 368.602,182.675 367.547,182.776 367.446 C 182.960 367.263,191.734 367.887,193.373 368.200 C 194.116 368.342,195.114 365.435,194.547 364.779 C 194.521 364.749,191.575 364.486,188.000 364.193 C 184.425 363.901,180.862 363.579,180.083 363.477 C 178.774 363.306,178.666 363.351,178.658 364.063 M242.657 364.162 C 246.839 366.324,247.608 375.334,243.811 377.681 C 239.422 380.393,234.000 376.117,234.000 369.942 C 234.000 365.515,238.920 362.229,242.657 364.162 M203.904 364.474 C 199.403 365.685,197.562 370.626,200.405 373.864 C 201.791 375.443,202.784 375.902,206.438 376.654 C 210.265 377.441,211.293 377.892,211.544 378.890 C 212.623 383.191,205.075 384.232,203.186 380.044 C 202.752 379.079,202.398 378.702,202.030 378.809 C 201.739 378.893,200.789 379.062,199.920 379.185 C 198.175 379.431,198.091 379.806,199.252 382.167 C 202.894 389.565,216.935 386.279,215.505 378.364 C 214.969 375.400,213.338 374.129,208.602 372.984 C 205.083 372.133,203.400 371.403,203.152 370.619 C 202.124 367.381,208.998 366.444,210.323 369.642 C 210.738 370.644,210.750 370.648,212.787 370.444 C 215.278 370.196,215.117 370.340,214.687 368.741 C 213.708 365.106,208.791 363.160,203.904 364.474 " stroke="none" fill="#050505" fill-rule="evenodd"></path><path id="path2" d="M192.833 3.528 C 150.308 6.071,114.906 18.581,83.000 42.340 C -12.810 113.685,-23.820 253.378,59.661 338.457 C 154.457 435.068,315.631 410.259,376.642 289.667 C 428.686 186.795,381.709 61.414,274.778 17.797 C 250.047 7.710,217.544 2.050,192.833 3.528 M214.083 16.210 L 216.000 16.399 216.000 18.248 L 216.000 20.098 212.869 19.911 L 209.737 19.724 209.526 26.279 C 209.410 29.884,209.229 33.846,209.124 35.083 L 208.932 37.333 206.763 37.333 L 204.594 37.333 204.806 30.750 C 204.923 27.129,205.105 23.154,205.210 21.917 L 205.401 19.667 203.747 19.667 C 202.837 19.667,201.397 19.571,200.547 19.455 L 199.000 19.243 199.000 17.418 L 199.000 15.594 205.583 15.807 C 209.204 15.925,213.029 16.106,214.083 16.210 M186.457 16.750 C 186.567 17.162,186.660 17.985,186.662 18.577 C 186.667 19.835,186.936 19.743,181.000 20.514 C 178.709 20.812,176.814 21.080,176.790 21.111 C 176.733 21.183,177.364 25.809,177.441 25.885 C 177.474 25.916,179.427 25.720,181.783 25.449 C 186.668 24.885,186.379 24.794,186.589 26.976 C 186.776 28.927,187.104 28.776,181.410 29.365 L 177.653 29.755 177.821 30.794 C 178.220 33.269,178.704 38.407,178.552 38.559 C 177.854 39.257,174.359 39.046,174.194 38.295 C 173.795 36.474,171.627 17.928,171.794 17.762 C 171.969 17.587,183.581 16.112,185.378 16.037 C 186.023 16.010,186.309 16.199,186.457 16.750 M227.104 17.487 C 230.072 17.938,233.025 18.483,233.667 18.698 C 239.301 20.587,238.423 29.073,232.509 29.884 L 230.962 30.096 231.965 31.131 C 232.517 31.701,233.807 33.932,234.833 36.091 L 236.697 40.015 237.451 39.091 C 237.865 38.582,240.882 34.642,244.155 30.333 C 247.428 26.025,250.143 22.451,250.189 22.391 C 250.500 21.988,254.421 23.525,254.641 24.135 C 254.962 25.028,257.102 46.342,256.891 46.553 C 256.804 46.640,255.783 46.420,254.622 46.063 C 252.238 45.331,252.088 45.092,252.033 41.930 L 252.000 40.026 250.583 39.656 C 249.103 39.271,244.780 38.055,244.116 37.838 C 243.904 37.769,243.091 38.640,242.308 39.773 C 241.525 40.906,240.852 41.880,240.812 41.936 C 240.687 42.111,236.853 40.945,236.517 40.630 C 236.343 40.467,235.668 40.332,235.017 40.330 C 231.440 40.319,231.488 40.358,229.091 35.431 C 226.838 30.801,226.323 30.200,224.298 29.830 L 223.095 29.610 222.520 33.555 C 221.736 38.938,221.799 38.776,220.591 38.535 C 220.037 38.424,219.340 38.331,219.042 38.328 C 217.550 38.314,217.551 38.206,219.145 27.966 C 220.909 16.633,220.902 16.667,221.361 16.667 C 221.552 16.667,224.137 17.036,227.104 17.487 M163.833 20.921 C 169.671 23.976,171.362 35.552,166.600 39.854 C 158.947 46.768,147.372 40.193,148.463 29.552 C 149.206 22.302,157.536 17.625,163.833 20.921 M224.476 23.268 C 224.166 24.679,223.860 25.928,223.795 26.044 C 223.729 26.160,225.426 26.443,227.565 26.674 L 231.455 27.093 232.227 26.194 C 234.092 24.027,232.842 22.339,228.770 21.527 C 227.155 21.204,225.654 20.887,225.435 20.821 C 225.182 20.745,224.834 21.632,224.476 23.268 M155.673 24.917 C 150.893 27.319,152.756 37.840,158.140 38.850 C 162.053 39.584,165.375 36.078,164.866 31.750 C 164.175 25.865,159.985 22.751,155.673 24.917 M135.012 29.194 C 135.372 30.035,135.667 30.783,135.667 30.857 C 135.667 30.932,134.415 31.632,132.886 32.413 L 130.105 33.833 133.723 41.813 C 135.712 46.202,137.226 49.904,137.087 50.039 C 136.665 50.449,133.302 51.687,133.044 51.527 C 132.912 51.446,131.181 47.775,129.198 43.371 L 125.591 35.364 122.970 36.682 C 119.772 38.289,120.110 38.311,119.310 36.445 C 118.478 34.505,117.859 34.968,126.500 31.058 C 135.219 27.113,134.214 27.333,135.012 29.194 M269.124 28.800 C 271.272 29.750,271.069 29.170,272.167 37.500 C 273.409 46.922,273.082 46.744,276.161 39.679 C 277.613 36.348,278.915 33.553,279.054 33.466 C 279.494 33.195,282.733 35.015,282.559 35.436 C 282.015 36.756,274.540 53.604,274.286 54.082 C 274.002 54.619,273.823 54.587,271.995 53.664 C 269.695 52.503,269.964 53.251,268.814 44.833 C 267.578 35.786,267.905 35.952,264.837 42.814 C 263.388 46.056,262.091 48.777,261.956 48.861 C 261.709 49.013,259.047 48.085,258.585 47.685 C 258.393 47.519,266.004 29.675,266.852 28.304 C 267.103 27.897,267.061 27.888,269.124 28.800 M248.557 31.351 C 247.306 33.024,246.356 34.467,246.446 34.557 C 246.537 34.648,247.741 35.071,249.123 35.497 L 251.636 36.272 251.445 34.053 C 251.341 32.832,251.160 31.041,251.044 30.072 L 250.833 28.310 248.557 31.351 M119.627 46.360 C 122.630 51.492,125.030 55.732,124.960 55.782 C 124.890 55.833,124.048 56.366,123.088 56.969 L 121.342 58.064 114.921 54.574 C 111.389 52.655,108.136 50.897,107.692 50.666 L 106.884 50.248 107.639 51.528 C 111.185 57.537,113.729 62.045,113.625 62.132 C 112.828 62.795,110.185 64.059,110.099 63.817 C 110.038 63.643,107.600 59.457,104.683 54.515 C 101.766 49.573,99.454 45.407,99.546 45.258 C 99.639 45.109,100.464 44.607,101.381 44.143 L 103.048 43.298 109.274 46.607 C 117.289 50.868,117.770 51.109,117.586 50.778 C 117.501 50.625,115.887 47.910,114.000 44.743 C 112.113 41.577,110.628 38.938,110.701 38.879 C 111.064 38.582,113.855 37.008,114.000 37.018 C 114.092 37.024,116.624 41.228,119.627 46.360 M294.214 40.696 C 298.870 42.917,301.612 48.212,299.297 50.509 C 298.310 51.488,295.480 49.419,295.599 47.806 C 295.795 45.136,291.164 42.030,289.670 43.829 C 288.934 44.716,289.623 45.955,292.663 49.217 C 297.400 54.301,297.559 57.562,293.227 60.796 C 287.900 64.773,276.311 55.383,280.119 50.175 C 280.519 49.629,280.647 49.645,282.225 50.445 L 283.906 51.297 283.749 52.928 C 283.399 56.572,288.812 59.422,290.906 56.696 C 291.662 55.712,291.340 55.039,288.626 51.933 C 283.993 46.630,283.468 43.846,286.554 40.943 C 288.468 39.142,290.797 39.067,294.214 40.696 M95.643 50.870 C 96.331 51.784,96.650 52.476,96.444 52.610 C 94.683 53.761,87.667 59.210,87.667 59.426 C 87.667 59.823,90.083 62.667,90.420 62.667 C 90.574 62.667,92.529 61.245,94.766 59.507 C 97.003 57.768,98.908 56.348,99.000 56.350 C 99.444 56.360,101.417 59.410,101.108 59.610 C 99.707 60.519,93.000 65.864,93.000 66.072 C 93.000 66.489,96.076 70.333,96.410 70.333 C 96.577 70.333,98.815 68.731,101.383 66.772 C 104.013 64.766,106.150 63.356,106.276 63.542 C 106.399 63.724,106.942 64.442,107.482 65.137 C 108.289 66.175,108.378 66.452,107.982 66.688 C 107.717 66.846,104.650 69.002,101.167 71.479 C 97.683 73.956,94.758 75.979,94.667 75.975 C 94.480 75.966,81.871 59.441,81.767 59.070 C 81.705 58.847,93.978 49.358,94.333 49.355 C 94.425 49.355,95.014 50.036,95.643 50.870 M309.629 51.250 C 318.713 58.191,319.717 60.503,315.657 65.127 C 312.627 68.578,309.654 68.499,305.118 64.848 C 302.256 62.544,302.469 62.515,300.130 65.529 C 299.050 66.920,297.987 68.288,297.768 68.568 C 297.370 69.077,293.914 66.907,294.099 66.264 C 294.195 65.928,306.803 49.370,306.977 49.350 C 307.056 49.341,308.249 50.196,309.629 51.250 M306.699 57.157 C 304.637 59.781,304.631 59.560,306.801 61.066 C 309.735 63.102,311.509 63.155,312.676 61.241 C 313.815 59.373,312.793 57.464,309.733 55.744 L 308.399 54.994 306.699 57.157 M242.503 57.506 C 285.539 69.970,320.180 100.978,338.165 143.133 C 356.401 185.877,331.795 235.848,290.623 239.685 C 271.281 241.487,248.519 228.997,237.812 210.707 L 236.333 208.181 236.328 210.174 C 236.303 220.611,228.141 227.971,216.569 227.994 C 206.758 228.014,200.018 223.487,197.446 215.152 C 196.880 213.318,196.833 211.633,196.833 193.000 L 196.833 172.833 200.417 172.739 L 204.000 172.644 204.003 191.405 C 204.005 210.474,204.142 213.056,205.292 215.733 C 208.754 223.792,223.596 224.035,227.612 216.097 C 228.908 213.536,229.000 211.934,229.000 191.984 L 229.000 172.667 229.814 172.667 C 231.235 172.667,231.716 169.223,231.702 159.131 C 231.652 121.685,214.128 93.461,183.333 81.229 C 164.290 73.665,139.827 71.978,119.833 76.850 C 117.249 77.480,120.056 76.377,129.691 72.979 C 138.498 69.872,141.069 69.109,145.833 68.187 C 149.384 67.499,153.588 66.390,157.093 65.217 C 181.053 57.194,209.664 55.822,234.271 61.513 C 235.428 61.781,236.515 62.000,236.687 62.000 C 236.859 62.000,237.000 60.650,237.000 59.000 C 237.000 57.350,237.068 56.000,237.151 56.000 C 237.235 56.000,239.643 56.678,242.503 57.506 M84.524 70.926 L 92.139 78.352 90.569 79.922 L 88.999 81.492 83.311 75.829 L 77.623 70.167 81.870 77.270 L 86.117 84.374 84.579 85.912 L 83.041 87.451 75.937 83.226 L 68.833 79.001 74.465 84.490 L 80.096 89.980 78.807 91.406 C 77.158 93.231,78.212 93.910,69.488 85.402 L 61.868 77.971 64.241 75.598 L 66.613 73.226 71.723 76.239 C 74.534 77.897,77.424 79.602,78.146 80.030 C 78.868 80.457,79.376 80.663,79.275 80.487 C 79.173 80.311,77.472 77.418,75.495 74.059 L 71.899 67.952 74.193 65.640 C 75.454 64.369,76.581 63.367,76.697 63.414 C 76.813 63.461,80.335 66.842,84.524 70.926 M328.240 67.315 C 335.755 70.870,337.167 78.813,331.323 84.657 C 325.556 90.425,317.683 89.148,313.911 81.833 C 309.734 73.736,319.944 63.390,328.240 67.315 M322.420 71.367 C 317.389 73.857,315.602 79.357,318.789 82.544 C 324.114 87.869,334.229 78.460,329.261 72.802 C 327.292 70.559,325.016 70.082,322.420 71.367 M152.662 80.828 C 171.231 83.962,184.423 92.926,191.666 107.332 C 201.917 127.721,199.517 152.829,185.620 170.583 C 184.549 171.951,184.162 172.667,184.494 172.667 C 184.942 172.667,185.000 175.791,185.000 200.000 L 185.000 227.333 181.333 227.333 L 177.667 227.333 177.667 203.167 C 177.667 189.875,177.585 179.000,177.486 179.000 C 177.386 179.000,176.524 179.571,175.569 180.270 C 173.270 181.952,170.405 183.653,167.279 185.193 L 164.725 186.451 157.144 206.892 L 149.562 227.333 146.343 227.333 L 143.123 227.333 139.028 216.215 C 136.775 210.100,134.809 204.897,134.658 204.653 C 134.150 203.831,125.878 211.652,121.447 217.143 C 101.254 242.166,99.276 273.625,115.821 306.642 C 121.020 317.016,126.102 324.307,133.474 331.964 C 137.202 335.837,136.132 335.008,125.640 325.893 C 118.884 320.024,115.721 317.025,113.515 314.393 C 111.873 312.435,109.190 309.708,107.552 308.333 C 87.473 291.474,71.089 266.615,63.449 241.417 C 62.935 239.721,62.432 238.333,62.332 238.333 C 62.232 238.333,61.029 238.991,59.658 239.795 L 57.167 241.258 56.569 239.212 C 46.131 203.495,51.566 160.813,70.894 126.719 C 87.859 96.795,106.716 83.219,135.500 80.205 C 138.369 79.905,149.609 80.313,152.662 80.828 M59.020 81.427 C 59.306 81.651,59.962 82.169,60.477 82.580 L 61.414 83.326 59.517 85.675 C 57.168 88.581,56.618 87.706,64.667 93.868 C 68.425 96.745,71.553 99.142,71.617 99.195 C 71.817 99.357,69.515 102.984,69.261 102.906 C 69.129 102.866,65.944 100.471,62.183 97.583 C 58.421 94.696,55.214 92.333,55.054 92.333 C 54.819 92.333,52.151 95.476,51.281 96.778 C 51.156 96.966,50.445 96.629,49.614 95.988 C 48.818 95.374,48.107 94.828,48.034 94.775 C 47.879 94.663,58.086 81.039,58.333 81.028 C 58.425 81.024,58.734 81.204,59.020 81.427 M345.899 86.133 C 349.760 91.167,351.000 93.289,351.000 94.861 C 351.000 99.337,346.015 102.073,342.232 99.674 L 340.667 98.681 340.667 100.378 C 340.667 101.928,340.298 103.145,338.014 109.132 L 337.646 110.097 336.117 108.040 L 334.588 105.982 335.960 101.633 C 337.522 96.686,337.612 95.696,336.639 94.123 C 335.721 92.636,335.788 92.616,331.961 95.563 L 328.633 98.126 326.906 96.398 C 325.244 94.736,325.204 94.653,325.839 94.200 C 326.203 93.941,330.025 91.020,334.333 87.708 C 338.642 84.397,342.242 81.691,342.333 81.694 C 342.425 81.698,344.029 83.696,345.899 86.133 M339.833 89.042 C 337.678 90.791,337.688 90.644,339.554 93.076 C 342.425 96.818,343.142 97.211,345.046 96.087 C 346.968 94.951,346.753 93.772,343.936 90.008 C 341.889 87.273,341.986 87.296,339.833 89.042 M359.802 107.046 C 362.212 111.164,363.961 114.493,363.780 114.615 C 362.315 115.603,360.949 116.388,360.870 116.288 C 360.818 116.221,360.113 115.080,359.304 113.753 C 357.491 110.777,358.526 110.577,350.034 115.546 C 346.073 117.862,342.726 119.818,342.595 119.892 C 342.463 119.965,341.898 119.119,341.339 118.011 L 340.322 115.997 341.411 115.328 C 342.010 114.960,345.385 112.973,348.912 110.913 C 352.438 108.852,355.325 107.037,355.328 106.879 C 355.331 106.720,354.639 105.477,353.791 104.116 C 352.942 102.754,352.305 101.595,352.374 101.538 C 352.907 101.106,355.190 99.670,355.327 99.681 C 355.422 99.689,357.436 103.003,359.802 107.046 M51.627 102.101 C 53.510 103.347,54.149 104.686,54.139 107.361 L 54.131 109.555 55.682 109.101 C 56.725 108.795,58.609 108.677,61.432 108.740 L 65.632 108.833 64.491 110.667 C 63.863 111.675,63.304 112.625,63.249 112.778 C 63.193 112.931,60.827 113.194,57.991 113.363 L 52.833 113.669 51.584 115.085 C 49.998 116.882,49.770 116.504,53.917 118.971 C 55.887 120.144,57.548 121.140,57.606 121.185 C 57.764 121.307,56.057 124.592,55.731 124.794 C 55.529 124.919,38.426 114.983,37.375 114.130 C 36.830 113.687,44.485 102.027,45.735 101.395 C 47.058 100.726,50.100 101.090,51.627 102.101 M46.907 105.699 C 46.329 106.035,45.511 107.208,43.626 110.403 L 42.700 111.972 44.644 113.153 C 47.173 114.689,46.986 114.760,48.780 111.583 C 51.133 107.417,50.011 103.892,46.907 105.699 M368.408 123.834 L 369.477 126.002 367.634 127.918 C 366.003 129.612,355.230 141.088,354.132 142.300 C 353.781 142.688,353.525 142.393,352.614 140.544 L 351.518 138.322 353.398 136.443 L 355.278 134.563 353.403 130.797 L 351.529 127.031 348.960 127.230 L 346.391 127.428 345.340 125.347 C 344.762 124.202,344.372 123.184,344.472 123.084 C 344.647 122.908,361.496 121.805,365.420 121.712 L 367.340 121.667 368.408 123.834 M45.773 125.983 C 55.764 126.314,54.988 126.049,53.660 128.680 L 52.609 130.761 50.014 130.561 L 47.419 130.361 45.756 134.314 L 44.093 138.267 45.914 140.088 L 47.736 141.909 46.986 143.965 C 46.574 145.095,46.136 146.082,46.014 146.158 C 45.891 146.234,42.145 142.648,37.689 138.189 L 29.588 130.083 30.312 128.147 C 30.711 127.082,31.112 126.088,31.205 125.939 C 31.411 125.604,34.658 125.614,45.773 125.983 M362.667 126.186 C 362.392 126.246,360.719 126.391,358.951 126.509 L 355.734 126.724 356.732 128.945 C 357.281 130.167,357.834 131.277,357.961 131.412 C 358.087 131.547,359.457 130.384,361.005 128.829 C 362.552 127.273,363.672 126.017,363.493 126.039 C 363.313 126.060,362.942 126.126,362.667 126.186 M37.333 132.025 C 38.525 133.118,39.912 134.319,40.417 134.695 L 41.333 135.379 42.452 132.939 C 43.067 131.598,43.555 130.483,43.535 130.463 C 43.516 130.442,41.625 130.338,39.333 130.232 L 35.167 130.038 37.333 132.025 M376.080 142.512 C 377.501 146.889,378.551 150.575,378.415 150.704 C 377.986 151.108,375.530 151.665,375.301 151.410 C 375.181 151.276,374.681 149.943,374.191 148.448 L 373.299 145.729 364.914 148.529 C 360.302 150.069,356.423 151.217,356.295 151.081 C 355.865 150.627,354.993 147.206,355.249 146.976 C 355.387 146.852,359.200 145.523,363.723 144.023 L 371.945 141.296 370.972 138.416 C 370.436 136.832,370.111 135.427,370.249 135.294 C 370.575 134.980,372.736 134.374,373.165 134.476 C 373.347 134.519,374.659 138.135,376.080 142.512 M34.069 141.050 C 37.006 142.657,37.660 146.055,36.058 151.391 L 35.390 153.615 39.210 155.030 C 41.311 155.809,43.096 156.552,43.176 156.681 C 43.335 156.939,42.383 160.011,42.017 160.422 C 41.800 160.665,22.108 154.816,21.582 154.353 C 21.313 154.115,24.072 144.468,24.820 143.030 C 26.374 140.046,30.585 139.144,34.069 141.050 M28.522 145.508 C 28.093 145.971,27.567 147.044,27.353 147.892 C 27.140 148.740,26.754 149.843,26.495 150.342 L 26.026 151.250 28.930 152.081 L 31.833 152.911 32.375 151.205 C 33.503 147.658,33.505 146.787,32.388 145.670 C 31.101 144.383,29.622 144.321,28.522 145.508 M380.230 156.144 C 380.477 157.231,380.564 158.224,380.423 158.349 C 379.944 158.776,359.895 163.362,359.670 163.097 C 359.329 162.697,358.629 159.260,358.844 159.045 C 359.110 158.779,378.730 154.053,379.307 154.115 C 379.599 154.147,379.953 154.927,380.230 156.144 M23.437 160.992 C 23.585 161.129,23.265 163.699,22.725 166.703 C 22.185 169.708,21.764 172.186,21.788 172.210 C 21.813 172.234,22.831 172.478,24.051 172.753 L 26.268 173.253 27.159 168.376 C 28.314 162.047,28.072 162.566,29.751 162.838 C 30.529 162.965,31.288 163.182,31.436 163.320 C 31.655 163.525,30.377 171.412,29.806 173.374 C 29.675 173.823,34.799 175.236,35.231 174.870 C 35.266 174.840,35.684 172.495,36.160 169.658 C 37.321 162.733,37.083 163.257,38.944 163.523 C 39.800 163.645,40.619 163.854,40.765 163.987 C 41.028 164.228,38.727 178.697,38.320 179.355 C 38.116 179.685,17.916 176.360,17.481 175.926 C 17.317 175.761,19.461 162.328,19.880 160.900 C 20.059 160.289,22.746 160.358,23.437 160.992 M377.240 164.503 C 386.010 167.108,386.488 180.733,377.922 183.938 C 369.366 187.139,362.246 182.631,362.246 174.012 C 362.246 166.625,369.307 162.147,377.240 164.503 M369.167 169.482 C 361.395 172.721,365.070 182.310,373.277 180.207 C 378.564 178.853,380.222 176.545,378.953 172.309 C 377.918 168.852,373.641 167.617,369.167 169.482 M30.972 182.921 C 33.724 183.742,35.678 185.231,36.778 187.349 L 37.722 189.167 37.590 194.744 C 37.517 197.811,37.364 200.414,37.249 200.528 C 37.046 200.732,22.935 200.197,18.038 199.801 L 15.577 199.601 15.814 194.607 C 16.168 187.177,16.889 185.407,20.323 183.538 C 23.220 181.961,27.013 181.741,30.972 182.921 M23.374 186.980 C 20.769 187.643,19.883 189.151,19.614 193.385 L 19.473 195.592 24.653 195.804 C 27.502 195.921,30.696 196.102,31.750 196.208 L 33.667 196.399 33.667 193.058 C 33.667 188.113,32.690 187.203,27.000 186.849 C 25.625 186.763,23.993 186.822,23.374 186.980 M384.989 191.250 L 384.978 193.500 380.239 196.427 C 377.633 198.036,374.455 200.017,373.178 200.828 L 370.855 202.302 377.928 202.099 L 385.000 201.895 385.000 203.896 L 385.000 205.896 380.250 206.114 C 377.637 206.233,372.837 206.331,369.583 206.332 L 363.667 206.333 363.683 204.083 L 363.699 201.833 366.600 200.008 C 368.195 199.004,371.292 197.027,373.481 195.614 L 377.463 193.045 370.565 193.241 L 363.667 193.436 363.667 191.396 L 363.667 189.356 367.250 189.249 C 369.221 189.190,374.021 189.110,377.917 189.071 L 385.000 189.000 384.989 191.250 M346.694 202.671 C 344.752 212.617,344.110 215.265,342.657 219.309 C 341.707 221.954,340.494 226.229,339.961 228.809 C 334.432 255.590,323.266 277.707,304.724 298.605 C 303.371 300.129,302.318 301.421,302.382 301.476 C 302.447 301.532,303.512 302.154,304.750 302.859 C 307.539 304.449,307.728 303.867,302.909 308.536 C 271.748 338.731,226.283 353.949,182.833 348.727 C 163.417 346.394,150.602 340.361,137.814 327.534 C 104.804 294.424,111.661 248.320,152.003 232.122 C 172.570 223.863,189.791 226.495,209.992 240.984 C 250.938 270.354,293.889 268.038,324.077 234.833 C 334.965 222.857,343.656 207.897,347.732 194.111 C 348.338 192.063,348.871 190.490,348.918 190.615 C 348.965 190.739,347.964 196.164,346.694 202.671 M152.167 192.441 C 148.719 194.262,142.619 197.982,141.117 199.179 L 140.261 199.862 143.214 208.430 C 144.838 213.142,146.242 216.998,146.333 216.997 C 146.425 216.997,147.749 213.360,149.276 208.915 C 150.803 204.470,152.845 198.546,153.812 195.750 C 154.780 192.954,155.556 190.670,155.536 190.674 C 155.516 190.678,154.000 191.473,152.167 192.441 M41.393 240.334 C 42.127 242.492,42.231 242.379,38.500 243.485 C 26.152 247.143,25.888 247.284,25.946 250.165 C 25.986 252.203,26.707 253.433,28.274 254.140 L 29.595 254.735 36.381 252.711 C 45.245 250.067,44.612 250.095,45.378 252.315 C 46.155 254.568,46.542 254.283,40.000 256.286 C 26.645 260.376,24.781 259.966,22.786 252.500 C 21.004 245.826,23.028 243.483,33.167 240.488 C 36.650 239.459,39.650 238.566,39.833 238.503 C 40.525 238.266,40.800 238.589,41.393 240.334 M380.121 248.917 C 379.283 252.333,378.991 252.574,375.613 252.633 L 373.725 252.667 372.392 256.652 L 371.059 260.636 372.946 262.216 C 373.984 263.085,374.882 263.829,374.942 263.868 C 375.106 263.977,373.939 267.999,373.700 268.146 C 373.537 268.247,365.205 261.465,357.044 254.589 L 355.962 253.678 356.528 251.663 C 356.839 250.555,357.246 249.554,357.433 249.438 C 357.754 249.240,374.281 248.143,378.423 248.045 L 380.346 248.000 380.121 248.917 M364.720 253.314 L 361.607 253.500 364.664 255.945 C 368.146 258.731,367.924 258.756,368.870 255.478 L 369.586 253.000 368.709 253.064 C 368.228 253.099,366.432 253.211,364.720 253.314 M47.852 260.843 C 48.300 261.856,48.663 262.794,48.659 262.926 C 48.655 263.058,46.571 266.092,44.030 269.667 C 41.488 273.242,39.445 276.208,39.490 276.258 C 39.535 276.308,42.180 275.208,45.369 273.813 C 48.558 272.418,51.345 271.202,51.564 271.110 C 52.057 270.904,53.831 274.302,53.436 274.697 C 52.942 275.191,34.590 283.325,34.330 283.165 C 34.194 283.080,33.749 282.191,33.342 281.189 L 32.603 279.366 37.147 272.683 C 39.647 269.007,41.637 266.000,41.571 266.000 C 41.504 266.000,38.779 267.197,35.515 268.660 C 28.924 271.614,29.306 271.581,28.148 269.296 L 27.308 267.640 29.721 266.570 C 31.047 265.981,35.365 264.053,39.316 262.284 C 43.267 260.515,46.621 259.052,46.768 259.034 C 46.916 259.015,47.403 259.829,47.852 260.843 M357.589 265.278 C 357.929 265.494,357.924 265.932,357.563 267.523 L 357.114 269.499 355.526 269.727 C 349.099 270.646,350.767 278.282,357.993 281.028 C 364.446 283.480,368.892 277.322,363.588 273.279 L 362.861 272.726 364.321 271.113 C 365.123 270.226,365.830 269.437,365.891 269.360 C 366.697 268.344,369.460 273.400,369.437 275.846 C 369.346 285.500,357.929 288.999,350.391 281.684 C 344.980 276.433,347.331 266.740,354.348 265.364 C 356.326 264.977,357.082 264.957,357.589 265.278 M57.529 281.057 C 57.996 281.979,58.331 282.768,58.272 282.810 C 56.722 283.941,39.846 293.374,39.771 293.152 C 39.712 292.977,39.218 292.162,38.674 291.341 C 38.127 290.516,37.811 289.722,37.969 289.565 C 38.618 288.915,56.174 279.068,56.416 279.218 C 56.561 279.307,57.062 280.135,57.529 281.057 M351.788 288.890 C 356.580 291.758,360.557 294.150,360.626 294.206 C 360.722 294.283,359.114 297.053,358.442 297.967 C 358.369 298.066,340.707 287.667,340.049 287.138 C 339.725 286.876,342.215 283.366,342.622 283.512 C 342.872 283.602,346.997 286.022,351.788 288.890 M64.828 292.831 C 67.391 296.571,69.528 299.752,69.577 299.899 C 69.720 300.332,66.629 302.143,66.384 301.770 C 66.265 301.588,65.567 300.516,64.833 299.389 C 63.167 296.827,64.106 296.543,56.058 302.039 C 52.268 304.627,49.017 306.797,48.833 306.861 C 48.329 307.037,45.842 303.304,46.282 303.032 C 48.779 301.489,60.333 293.433,60.333 293.235 C 60.333 293.089,59.571 291.839,58.638 290.458 C 57.706 289.076,56.993 287.906,57.055 287.858 C 57.646 287.392,59.860 286.003,59.994 286.015 C 60.089 286.024,62.264 289.091,64.828 292.831 M339.924 293.842 C 343.661 294.951,345.555 298.050,344.546 301.401 L 344.115 302.833 348.813 302.720 C 351.397 302.658,353.985 302.733,354.564 302.887 L 355.617 303.167 354.225 305.083 L 352.833 307.000 347.663 306.788 L 342.493 306.575 341.247 307.955 C 340.561 308.714,340.000 309.453,340.000 309.596 C 340.000 309.797,344.604 313.277,346.783 314.723 C 347.138 314.959,345.022 318.035,344.594 317.906 C 344.462 317.866,340.659 315.133,336.143 311.833 C 331.626 308.533,327.774 305.736,327.583 305.617 C 326.760 305.104,335.210 294.416,337.000 293.706 C 338.104 293.268,337.972 293.262,339.924 293.842 M336.880 298.022 C 335.872 298.815,333.000 302.456,333.000 302.941 C 333.000 303.303,336.579 306.667,336.964 306.667 C 337.228 306.667,338.184 305.438,339.909 302.883 C 342.167 299.538,339.795 295.730,336.880 298.022 M76.871 308.606 C 82.722 315.411,82.304 314.607,80.616 315.802 C 79.251 316.769,79.247 316.770,78.707 316.090 C 76.759 313.635,71.855 308.336,71.543 308.348 C 71.336 308.355,70.503 308.944,69.693 309.656 C 67.957 311.180,67.754 310.680,72.135 315.663 L 75.104 319.039 73.814 320.103 C 72.145 321.478,72.582 321.714,68.832 317.417 C 65.004 313.030,65.523 313.208,63.111 315.454 C 60.846 317.562,60.595 316.863,65.635 322.496 L 69.103 326.373 67.813 327.437 C 67.104 328.022,66.427 328.500,66.309 328.500 C 66.077 328.500,55.539 317.078,55.440 316.719 C 55.365 316.449,71.421 302.676,71.704 302.768 C 71.816 302.804,74.141 305.431,76.871 308.606 M326.147 309.647 L 327.430 310.961 323.548 315.035 C 319.028 319.778,319.276 319.148,321.196 321.014 L 322.726 322.500 326.382 318.691 L 330.039 314.882 331.407 316.250 L 332.775 317.618 329.221 321.354 C 325.045 325.743,325.206 325.179,327.527 327.300 C 329.881 329.452,329.283 329.686,333.983 324.769 L 338.028 320.538 339.416 321.926 L 340.805 323.315 335.013 328.907 C 331.828 331.983,329.121 334.500,328.998 334.500 C 328.875 334.500,325.357 331.167,321.180 327.094 L 313.586 319.688 319.043 314.022 C 325.340 307.484,324.526 307.986,326.147 309.647 M88.739 320.579 C 95.804 326.826,96.516 330.559,91.811 336.690 C 88.453 341.066,84.348 342.760,80.135 341.509 C 78.619 341.059,70.500 334.427,70.500 333.639 C 70.500 333.413,84.726 317.375,84.951 317.348 C 85.015 317.340,86.720 318.794,88.739 320.579 M317.453 331.023 L 324.072 339.345 322.620 340.659 C 321.820 341.381,321.092 341.972,321.000 341.971 C 320.908 341.969,318.808 339.418,316.333 336.301 C 313.858 333.184,311.569 330.304,311.245 329.900 C 310.667 329.179,311.213 330.445,315.570 339.927 C 316.773 342.545,317.699 344.730,317.629 344.782 C 317.558 344.834,316.789 345.446,315.920 346.142 L 314.340 347.408 309.151 343.454 C 306.297 341.279,303.258 338.977,302.397 338.339 L 300.833 337.177 302.023 338.672 C 302.678 339.494,304.985 342.384,307.151 345.095 C 309.317 347.805,311.031 350.068,310.961 350.124 C 310.164 350.757,307.598 352.370,307.528 352.282 C 307.478 352.219,304.468 348.449,300.841 343.905 C 297.214 339.361,294.303 335.599,294.373 335.546 C 294.443 335.492,295.589 334.579,296.919 333.518 L 299.338 331.588 305.169 335.964 C 308.376 338.371,311.000 340.260,311.000 340.161 C 311.000 340.063,309.780 336.986,308.289 333.324 L 305.577 326.666 306.372 326.038 C 306.809 325.693,307.917 324.798,308.833 324.050 C 309.750 323.302,310.575 322.693,310.667 322.695 C 310.758 322.698,313.812 326.446,317.453 331.023 M81.216 328.168 C 75.956 334.169,76.136 333.547,79.012 335.797 C 82.244 338.326,84.254 338.134,87.291 335.004 C 91.483 330.684,91.601 328.256,87.784 324.860 C 85.561 322.882,86.079 322.621,81.216 328.168 M114.881 340.030 C 119.537 342.251,122.279 347.545,119.963 349.843 C 118.891 350.906,116.167 348.761,116.167 346.853 C 116.167 344.297,111.973 341.551,110.428 343.096 C 109.550 343.973,110.197 345.190,113.330 348.551 C 116.547 352.002,117.173 353.230,116.910 355.564 C 116.038 363.302,103.526 362.107,100.843 354.030 C 99.623 350.355,100.496 348.565,102.912 349.789 L 104.572 350.630 104.416 352.261 C 104.065 355.906,109.479 358.756,111.573 356.029 C 112.328 355.045,112.006 354.373,109.292 351.266 C 104.660 345.964,104.135 343.179,107.220 340.276 C 109.135 338.475,111.464 338.400,114.881 340.030 M294.803 348.167 C 299.664 352.017,303.645 355.242,303.650 355.333 C 303.655 355.425,302.752 355.998,301.643 356.607 L 299.628 357.714 297.844 356.191 C 295.621 354.292,295.882 354.271,291.816 356.677 L 288.420 358.687 288.865 360.760 C 289.506 363.749,289.514 363.730,287.338 364.925 L 285.350 366.017 285.172 365.258 C 284.321 361.638,281.687 343.513,281.970 343.230 C 282.508 342.692,285.475 341.004,285.732 341.089 C 285.860 341.132,289.942 344.317,294.803 348.167 M133.007 350.003 C 141.775 353.921,141.194 353.491,140.357 355.445 C 139.557 357.311,139.894 357.289,136.697 355.682 L 134.075 354.364 130.469 362.371 C 128.486 366.775,126.767 370.438,126.650 370.510 C 126.410 370.659,122.970 369.415,122.581 369.039 C 122.442 368.904,123.916 365.278,125.857 360.981 C 127.799 356.683,129.412 353.062,129.443 352.933 C 129.475 352.805,128.262 352.098,126.750 351.362 C 125.237 350.626,124.000 349.956,124.000 349.873 C 124.000 349.605,125.306 346.667,125.425 346.667 C 125.489 346.667,128.900 348.168,133.007 350.003 M286.333 347.456 C 286.333 348.100,287.643 354.421,287.812 354.589 C 287.976 354.754,292.318 352.244,292.327 351.978 C 292.330 351.875,290.983 350.709,289.333 349.388 C 287.663 348.051,286.333 347.194,286.333 347.456 M265.680 353.530 C 266.521 355.493,266.791 355.255,261.380 357.304 L 256.722 359.067 257.556 361.284 C 258.015 362.503,258.415 363.516,258.445 363.537 C 258.475 363.557,260.075 362.996,262.000 362.290 C 263.925 361.584,265.763 360.919,266.085 360.813 C 266.678 360.618,268.214 363.383,267.845 363.981 C 267.759 364.121,265.899 364.866,263.713 365.637 L 259.738 367.038 261.367 371.254 C 262.263 373.573,262.885 375.576,262.748 375.705 C 262.290 376.138,258.872 377.006,258.628 376.751 C 258.203 376.309,251.331 357.224,251.525 357.025 C 251.722 356.823,264.312 352.067,264.762 352.025 C 264.906 352.011,265.319 352.689,265.680 353.530 M150.650 356.491 C 152.168 357.016,152.130 356.806,153.007 369.611 C 153.830 381.626,154.004 380.464,151.497 379.720 C 149.262 379.056,149.089 378.766,149.033 375.604 L 149.000 373.708 144.917 372.396 L 140.833 371.084 140.000 371.966 C 139.542 372.451,138.758 373.338,138.259 373.938 L 137.352 375.029 135.318 374.430 C 134.200 374.101,133.258 373.731,133.226 373.607 C 133.193 373.484,136.392 369.401,140.333 364.535 C 148.287 354.715,147.436 355.378,150.650 356.491 M245.321 360.524 C 251.281 363.760,252.537 374.533,247.472 378.980 C 243.402 382.553,236.083 382.456,232.602 378.781 C 229.694 375.711,228.624 368.628,230.515 364.970 C 233.080 360.011,240.354 357.827,245.321 360.524 M167.333 361.215 C 176.222 362.972,175.762 362.784,175.477 364.567 C 175.129 366.745,175.129 366.745,171.745 366.051 L 168.702 365.427 168.381 366.963 C 168.205 367.809,167.421 371.575,166.638 375.333 C 164.994 383.235,165.232 382.731,163.269 382.462 C 160.783 382.122,160.809 382.595,162.773 373.308 C 163.758 368.647,164.537 364.795,164.504 364.749 C 164.470 364.703,163.105 364.392,161.471 364.060 L 158.500 363.455 158.551 362.380 C 158.618 360.958,158.954 359.667,159.256 359.666 C 159.390 359.666,163.025 360.363,167.333 361.215 M145.697 365.030 C 144.365 366.693,143.351 368.129,143.443 368.221 C 143.535 368.313,144.742 368.738,146.125 369.164 L 148.639 369.940 148.440 366.053 C 148.330 363.916,148.213 362.131,148.179 362.087 C 148.146 362.043,147.028 363.367,145.697 365.030 M186.167 363.843 C 189.650 364.124,193.006 364.435,193.624 364.533 L 194.747 364.712 194.588 366.363 C 194.501 367.272,194.345 368.099,194.242 368.203 C 194.062 368.383,186.466 367.841,183.964 367.469 L 182.761 367.291 182.578 369.562 C 182.357 372.287,181.696 371.859,186.833 372.314 C 193.459 372.901,193.108 372.763,192.921 374.709 C 192.834 375.610,192.675 376.436,192.567 376.544 C 192.387 376.724,185.590 376.199,183.131 375.816 L 182.096 375.654 181.907 378.409 C 181.682 381.702,180.927 381.190,186.667 381.640 C 189.325 381.849,192.006 382.101,192.624 382.199 L 193.747 382.379 193.588 384.030 C 193.501 384.938,193.343 385.768,193.236 385.875 C 193.013 386.098,177.381 384.826,177.118 384.563 C 176.949 384.394,178.135 367.620,178.518 364.750 C 178.656 363.718,178.860 363.333,179.270 363.332 C 179.580 363.332,182.683 363.562,186.167 363.843 M238.181 364.196 C 234.345 365.601,233.105 369.522,235.061 374.067 C 237.984 380.863,246.833 379.073,246.210 371.811 C 245.685 365.694,242.456 362.631,238.181 364.196 M210.450 364.360 C 212.795 365.011,215.950 369.161,214.900 370.211 C 213.990 371.121,210.749 370.694,210.090 369.578 C 208.897 367.556,205.866 367.128,203.867 368.700 C 201.899 370.248,202.960 371.296,207.837 372.623 C 214.259 374.369,215.667 375.576,215.667 379.333 C 215.667 386.909,202.760 389.286,199.250 382.357 C 197.788 379.470,197.892 379.265,201.052 378.819 C 202.584 378.603,202.611 378.616,203.178 379.809 C 204.685 382.986,209.381 383.605,211.177 380.864 C 212.480 378.875,211.196 377.688,206.893 376.905 C 200.299 375.705,197.697 372.508,199.491 367.810 C 200.670 364.722,205.866 363.087,210.450 364.360 " stroke="none" fill="#fbfbfb" fill-rule="evenodd"></path></g></svg>